<svg version="1.1" id="Layer_1" xmlns="http://www.w3.org/2000/svg" x="0" y="0" viewBox="0 0 252 136.4" xml:space="preserve"><style>.st65{fill:#bf282d}.st68{fill:#333}.st69{fill:#4e4e4e}.st70{fill:#801a1f}.st73{fill:#f1f0f0}.st74{fill:none;stroke:#f1f0f0;stroke-width:2.1093;stroke-miterlimit:10}</style><path class="st65" d="M247 97.9H5c-2.8 0-5 2.2-5 5v33.5c0-2.8 2.2-5 5-5h242c2.8 0 5 2.2 5 5v-33.5c0-2.8-2.2-5-5-5z"/><path d="M207.5 116.2c0 2.8-18.9 5.1-42.1 5.1-23.3 0-42.1-2.3-42.1-5.1s18.9-5.1 42.1-5.1c23.2 0 42.1 2.2 42.1 5.1z" opacity=".1" fill="#000100"/><path d="M207.5 100.8s-3.6 5.5-10.9-.5" fill="none" stroke="#333" stroke-width="1.498" stroke-linecap="round" stroke-miterlimit="10"/><path class="st68" d="M216.9 71.6c.1.4-.2.7-.5.8l-2.8.3c-.4.1-.7-.2-.8-.5-.1-.4.2-.7.5-.8l2.8-.3c.4-.1.8.1.8.5zM219.1 75c.1.4-.2.7-.5.8l-2.8.3c-.4.1-.7-.2-.8-.5-.1-.4.2-.7.5-.8l2.8-.3c.4-.1.8.2.8.5zM220 81.6c-.3.2-.7.2-.9-.1l-1.8-2.2c-.2-.3-.2-.7.1-.9.3-.2.7-.2.9.1l1.8 2.2c.2.2.1.7-.1.9zM214.8 68.1c.1.4-.2.7-.5.8l-2.8.4c-.4.1-.7-.2-.8-.5-.1-.4.2-.7.5-.8l2.8-.4c.4-.1.7.2.8.5zM218.2 85.3c-.3.2-.7.2-.9-.1l-1.8-2.2c-.2-.3-.2-.7.1-.9.3-.2.7-.2.9.1l1.8 2.2c.2.2.2.6-.1.9zM216.5 88.9c-.3.2-.7.2-.9-.1l-1.8-2.2c-.2-.3-.2-.7.1-.9.3-.2.7-.2.9.1l1.8 2.2c.2.3.2.7-.1.9zM214.8 92.6c-.3.2-.7.2-.9-.1l-1.8-2.2c-.2-.3-.2-.7.1-.9.3-.2.7-.2.9.1l1.8 2.2c.2.2.1.7-.1.9zM213 96.3c-.3.2-.7.2-.9-.1l-1.8-2.2c-.2-.3-.2-.7.1-.9.3-.2.7-.2.9.1l1.8 2.2c.2.2.2.7-.1.9zM211.3 99.9c-.3.2-.7.2-.9-.1l-1.8-2.2c-.2-.3-.2-.7.1-.9.3-.2.7-.2.9.1l1.8 2.2c.2.3.2.7-.1.9z"/><path class="st69" d="M216.5 71c.4.1.6.4.5.8l-.8 3.8c-.1.4-.4.6-.8.5-.4-.1-.6-.4-.5-.8l.8-3.8c.1-.3.4-.5.8-.5zM218.7 74.4c.4.1.6.4.5.8l-.8 3.8c-.1.4-.4.6-.8.5-.4-.1-.6-.4-.5-.8l.8-3.8c.1-.3.4-.5.8-.5zM214.3 67.6c.4.1.6.4.5.8l-.8 3.8c-.1.4-.4.6-.8.5-.4-.1-.6-.4-.5-.8l.8-3.8c.1-.3.5-.6.8-.5zM220.2 80.9c.1.3-.1.7-.4.8l-3.6 1.3c-.3.1-.7-.1-.8-.4-.1-.3.1-.7.4-.8l3.6-1.3c.3-.1.7.1.8.4zM218.5 84.6c.1.3-.1.7-.4.8l-3.6 1.3c-.3.1-.7-.1-.8-.4-.1-.3.1-.7.4-.8l3.6-1.3c.3-.1.7.1.8.4zM216.8 88.3c.1.3-.1.7-.4.8l-3.6 1.3c-.3.1-.7-.1-.8-.4-.1-.3.1-.7.4-.8l3.6-1.3c.3-.1.6 0 .8.4zM215 91.9c.1.3-.1.7-.4.8L211 94c-.3.1-.7-.1-.8-.4-.1-.3.1-.7.4-.8l3.6-1.3c.3-.1.7.1.8.4zM213.3 95.6c.1.3-.1.7-.4.8l-3.6 1.3c-.3.1-.7-.1-.8-.4-.1-.3.1-.7.4-.8l3.6-1.3c.3-.1.7.1.8.4zM211.5 99.3c.1.3-.1.7-.4.8l-3.6 1.3c-.3.1-.7-.1-.8-.4-.1-.3.1-.7.4-.8l3.6-1.3c.3-.1.7 0 .8.4z"/><path class="st70" d="M171.6 13.5l-6.6 6.6-11.9-11.8 2.2-2.2c8.1-8.1 21.3-8.1 29.4 0l29.4 29.4c8.1 8.1 8.1 21.3 0 29.4l-2.2 2.2L200 55.2l6.6-6.6c.5-.5.5-1.4 0-1.9l-33.1-33.1c-.5-.6-1.4-.6-1.9-.1z"/><path class="st65" d="M160.8 23.6c.5.5 1.4.5 1.9 0l4.3-4.3c.5-.5.5-1.4 0-1.9L155.8 6.2c-.5-.5-1.4-.5-1.9 0l-4.3 4.3c-.5.5-.5 1.4 0 1.9l11.2 11.2zM207.5 71.6c.6.6 1.5.6 2.1 0l4.5-4.5c.6-.6.6-1.5 0-2.1l-11.9-11.9c-.6-.6-1.5-.6-2.1 0l-4.5 4.5c-.6.6-.6 1.5 0 2.1l11.9 11.9zM202 108.5c.1 1.1-.7 2.1-1.8 2.2l-73 7.4c-1.1.1-2.1-.7-2.2-1.8l-1.2-11.9c-.1-1.1.7-2.1 1.8-2.2l73-7.4c1.1-.1 2.1.7 2.2 1.8l1.2 11.9z"/><path transform="rotate(-5.789 161.783 95.728)" class="st70" d="M125.3 93.1h73.1v5.5h-73.1z"/><path class="st65" d="M178.3 54.6l-.5-5.2-7.1.7.5 5.2-13.4 1.4-13.4 1.4-.5-5.2-7.1.7.5 5.2s-1.3 27.1-12.2 38l36.4-3.7 36.4-3.7c-12.9-8.5-19.6-34.8-19.6-34.8z"/><path d="M172.4 67.2c-4.7-6.5-13.8-8-20.3-3.3s-8 13.8-3.3 20.3 13.8 8 20.3 3.3 8-13.8 3.3-20.3zM162 62.8c1.1-.1 2.1.7 2.2 1.8.1 1.1-.7 2.1-1.8 2.2-1.1.1-2.1-.7-2.2-1.8-.1-1.1.7-2.1 1.8-2.2zm-6.7 1c.9-.6 2.2-.4 2.8.5.6.9.4 2.2-.5 2.8-.9.6-2.2.4-2.8-.5-.6-.8-.4-2.1.5-2.8zm-5.2 4.2c.5-1 1.6-1.5 2.7-1 1 .5 1.5 1.6 1 2.7-.5 1-1.6 1.5-2.7 1-1-.5-1.4-1.6-1-2.7zm-2.4 6.3c-.1-1.1.7-2.1 1.8-2.2 1.1-.1 2.1.7 2.2 1.8.1 1.1-.7 2.1-1.8 2.2-1.1.1-2.1-.7-2.2-1.8zm1 6.6c-.6-.9-.4-2.2.5-2.8.9-.6 2.2-.4 2.8.5.6.9.4 2.2-.5 2.8-.9.6-2.1.4-2.8-.5zm6.9 4.2c-.5 1-1.6 1.5-2.7 1-1-.5-1.5-1.6-1-2.7.5-1 1.6-1.5 2.7-1 1 .5 1.4 1.7 1 2.7zm3.6 3.5c-1.1.1-2.1-.7-2.2-1.8-.1-1.1.7-2.1 1.8-2.2 1.1-.1 2.1.7 2.2 1.8.1 1.1-.7 2.1-1.8 2.2zm6.6-1.1c-.9.6-2.2.4-2.8-.5-.6-.9-.4-2.2.5-2.8.9-.6 2.2-.4 2.8.5.6.9.4 2.2-.5 2.8zm-.8-5.6c-3.4 2.5-8.2 1.7-10.7-1.8-2.5-3.4-1.7-8.2 1.8-10.7 3.4-2.5 8.2-1.7 10.7 1.8 2.4 3.5 1.7 8.2-1.8 10.7zm1.6-13c-1-.5-1.5-1.6-1-2.7.5-1 1.6-1.5 2.7-1 1 .5 1.5 1.6 1 2.7-.5 1-1.7 1.5-2.7 1zm5.3 4.4c-.9.6-2.2.4-2.8-.5-.6-.9-.4-2.2.5-2.8.9-.6 2.2-.4 2.8.5.7.9.4 2.1-.5 2.8z" fill="#c9c8c8"/><path d="M172.3 66.5c-4.7-6.5-13.8-8-20.3-3.3s-8 13.8-3.3 20.3 13.8 8 20.3 3.3c6.5-4.6 8-13.7 3.3-20.3zm-10.4-4.3c1.1-.1 2.1.7 2.2 1.8.1 1.1-.7 2.1-1.8 2.2-1.1.1-2.1-.7-2.2-1.8-.1-1.1.7-2.1 1.8-2.2zm-6.6 1c.9-.6 2.2-.4 2.8.5.6.9.4 2.2-.5 2.8-.9.6-2.2.4-2.8-.5-.6-.9-.4-2.2.5-2.8zm-5.3 4.2c.5-1 1.6-1.5 2.7-1 1 .5 1.5 1.6 1 2.7-.5 1-1.6 1.5-2.7 1-1-.5-1.4-1.7-1-2.7zm-2.4 6.2c-.1-1.1.7-2.1 1.8-2.2 1.1-.1 2.1.7 2.2 1.8.1 1.1-.7 2.1-1.8 2.2-1.1.1-2.1-.7-2.2-1.8zm1 6.6c-.6-.9-.4-2.2.5-2.8.9-.6 2.2-.4 2.8.5.6.9.4 2.2-.5 2.8-.8.7-2.1.5-2.8-.5zm6.9 4.3c-.5 1-1.6 1.5-2.7 1-1-.5-1.5-1.6-1-2.7.5-1 1.6-1.5 2.7-1 1 .5 1.5 1.7 1 2.7zm3.6 3.4c-1.1.1-2.1-.7-2.2-1.8-.1-1.1.7-2.1 1.8-2.2 1.1-.1 2.1.7 2.2 1.8.1 1.1-.7 2.1-1.8 2.2zm6.6-1c-.9.6-2.2.4-2.8-.5-.6-.9-.4-2.2.5-2.8.9-.6 2.2-.4 2.8.5.6.9.4 2.1-.5 2.8zm-.7-5.7c-3.4 2.5-8.2 1.7-10.7-1.8-2.5-3.4-1.7-8.2 1.8-10.7 3.4-2.5 8.2-1.7 10.7 1.8 2.4 3.5 1.6 8.3-1.8 10.7zm1.5-13c-1-.5-1.5-1.6-1-2.7.5-1 1.6-1.5 2.7-1 1 .5 1.5 1.6 1 2.7s-1.7 1.5-2.7 1zm5.4 4.4c-.9.6-2.2.4-2.8-.5-.6-.9-.4-2.2.5-2.8.9-.6 2.2-.4 2.8.5.6.9.4 2.2-.5 2.8z" fill="#efefee"/><path class="st70" d="M165.5 79.5l6.8 4c.6.3.8 1.1.4 1.7-.3.6-1.1.8-1.7.4-.1-.1-.2-.2-.3-.2l-5.2-5.9z"/><g><path class="st73" d="M125.8 62.5s0-.5-.1-1.4v-.7c0-.3 0-.6.1-.9 0-.6.1-1.3.3-2.1.1-.4.2-.8.2-1.2.1-.4.3-.8.4-1.2.2-.9.7-1.7 1-2.6.5-.8.9-1.7 1.6-2.5.6-.8 1.3-1.6 2-2.4.8-.7 1.5-1.4 2.4-2 .8-.6 1.7-1.1 2.5-1.6.9-.4 1.7-.8 2.6-1 .4-.1.8-.3 1.2-.4.4-.1.8-.2 1.2-.2.7-.2 1.4-.2 2.1-.3.3 0 .6 0 .9-.1h.7c.9 0 1.4.1 1.4.1s-.5.1-1.4.2c-.2 0-.5.1-.7.1-.3.1-.5.1-.8.2-.6.1-1.2.3-1.9.5-.3.1-.7.2-1.1.4-.4.2-.7.3-1.1.5-.8.3-1.5.8-2.3 1.2-.8.5-1.6 1-2.3 1.6-.8.5-1.5 1.2-2.2 1.9-.6.7-1.3 1.4-1.9 2.2-.6.7-1.1 1.5-1.6 2.3-.4.8-.9 1.6-1.2 2.3-.2.4-.3.8-.5 1.1-.1.4-.2.7-.4 1.1-.2.7-.4 1.3-.5 1.9-.1.3-.1.6-.2.8 0 .3-.1.5-.1.7l-.3 1.5z"/><path class="st73" d="M116.7 62.5s-.1-.7-.1-2v-1.1c0-.4.1-.8.1-1.2 0-.5.1-.9.1-1.4 0-.5.2-1 .3-1.6.1-.5.2-1.1.3-1.7l.6-1.8c.3-1.2 1-2.4 1.5-3.7.7-1.2 1.3-2.5 2.3-3.7.8-1.2 1.9-2.3 2.9-3.4 1.1-1 2.2-2 3.4-2.9 1.1-.9 2.5-1.6 3.7-2.3 1.3-.6 2.5-1.2 3.7-1.5l1.8-.6c.6-.1 1.2-.2 1.7-.3.5-.1 1.1-.2 1.6-.3.5 0 1-.1 1.4-.1.4 0 .9-.1 1.2-.1h1.1c1.3.1 2 .1 2 .1s-.7.1-2 .3c-.3 0-.7.1-1 .1l-1.2.3c-.9.2-1.8.4-2.8.8-.5.2-1 .3-1.6.5-.5.2-1.1.4-1.6.7-.3.1-.6.2-.8.4-.3.1-.6.3-.8.4-.6.3-1.1.6-1.7.9-1.1.7-2.3 1.4-3.3 2.3-1.1.8-2.1 1.8-3.1 2.7-.9 1-1.9 2-2.7 3.1-.9 1.1-1.6 2.2-2.3 3.3-.3.6-.6 1.2-.9 1.7-.1.3-.3.6-.4.8-.1.3-.2.6-.4.8-.2.6-.5 1.1-.7 1.6-.2.5-.3 1.1-.5 1.6-.4 1-.6 2-.8 2.8l-.3 1.2c-.1.4-.1.7-.1 1-.5 1.6-.6 2.3-.6 2.3z"/></g><g><path class="st73" d="M219.2 100.4s0 .5.1 1.4v.7c0 .3 0 .6-.1.9 0 .6-.1 1.3-.3 2.1-.1.4-.2.8-.2 1.2-.1.4-.3.8-.4 1.2-.2.9-.7 1.7-1 2.6-.5.8-.9 1.7-1.6 2.5-.6.8-1.3 1.6-2 2.4-.8.7-1.5 1.4-2.4 2-.8.6-1.7 1.1-2.5 1.6-.9.4-1.7.8-2.6 1-.4.1-.8.3-1.2.4-.4.1-.8.2-1.2.2-.7.2-1.4.2-2.1.3-.3 0-.6 0-.9.1h-.7c-.9 0-1.4-.1-1.4-.1s.5-.1 1.4-.2c.2 0 .5-.1.7-.1.3-.1.5-.1.8-.2.6-.1 1.2-.3 1.9-.5.3-.1.7-.2 1.1-.4.4-.2.7-.3 1.1-.5.8-.3 1.5-.8 2.3-1.2.8-.5 1.6-1 2.3-1.6.8-.5 1.5-1.2 2.2-1.9.6-.7 1.3-1.4 1.9-2.2.6-.7 1.1-1.5 1.6-2.3.4-.8.9-1.6 1.2-2.3.2-.4.3-.8.5-1.1.1-.4.2-.7.4-1.1.2-.7.4-1.3.5-1.9.1-.3.1-.6.2-.8 0-.3.1-.5.1-.7l.3-1.5z"/><path class="st73" d="M228.3 100.4s.1.7.1 2v1.1c0 .4-.1.8-.1 1.2 0 .5-.1.9-.1 1.4 0 .5-.2 1-.3 1.6-.1.5-.2 1.1-.3 1.7l-.6 1.8c-.3 1.2-1 2.4-1.5 3.7-.7 1.2-1.3 2.5-2.3 3.7-.8 1.2-1.9 2.3-2.9 3.4-1.1 1-2.2 2-3.4 2.9-1.1.9-2.5 1.6-3.7 2.3-1.3.6-2.5 1.2-3.7 1.5l-1.8.6c-.6.1-1.2.2-1.7.3-.5.1-1.1.2-1.6.3-.5 0-1 .1-1.4.1-.4 0-.9.1-1.2.1h-1.1c-1.3-.1-2-.1-2-.1s.7-.1 2-.3c.3 0 .7-.1 1-.1l1.2-.3c.8-.2 1.8-.4 2.8-.8.5-.2 1-.3 1.6-.5.5-.2 1.1-.4 1.6-.7.3-.1.6-.2.8-.4.3-.1.6-.3.8-.4.6-.3 1.1-.6 1.7-.9 1.1-.7 2.3-1.4 3.3-2.3 1.1-.8 2.1-1.8 3.1-2.7.9-1 1.9-2 2.7-3.1.9-1.1 1.6-2.2 2.3-3.3.3-.6.6-1.2.9-1.7.1-.3.3-.6.4-.8.1-.3.2-.6.4-.8.2-.6.5-1.1.7-1.6.2-.5.3-1.1.5-1.6.4-1 .6-2 .8-2.8l.3-1.2c.1-.4.1-.7.1-1 .5-1.6.6-2.3.6-2.3z"/></g><g><path class="st74" d="M24.8 66.2l4.3-.9 5.5 25.4 8.4-1.8.9 4.3-12.7 2.7-6.4-29.7zM38.2 63.3l12.7-2.7.9 4-8.4 1.8 1.9 8.7 7.3-1.6.9 4-7.3 1.6 1.9 8.7 8.4-1.8.9 4.3L44.6 93l-6.4-29.7z"/><path class="st74" d="M55.2 63.8l-4.9 1.1-.9-4 14.1-3.1.9 4-4.9 1.1L65 88.5l-4.3.9-5.5-25.6z"/><path class="st74" d="M63 57.9l4.3-.9.9 4.3-3.6 4-1.6-7.4zM84.6 62.2l-4.3.9-.2-1c-.2-1-.6-1.8-1.2-2.4-.6-.6-1.5-.8-2.5-.6-.6.1-1 .3-1.4.6-.3.3-.6.7-.7 1s-.2.8-.2 1.3.1 1 .2 1.5c.1.6.3 1.1.4 1.5.1.4.3.7.5 1s.5.5.9.6c.4.2.9.3 1.5.4l3.5.6c1 .2 1.9.4 2.6.8.7.4 1.3.8 1.7 1.4.5.6.8 1.3 1.1 2.1.3.8.6 1.8.8 2.9.3 1.3.4 2.4.4 3.6 0 1.1-.2 2.1-.6 3-.4.9-1 1.7-1.9 2.3-.8.6-2 1.1-3.3 1.4-1 .2-2 .2-3 .1-1-.2-1.8-.5-2.6-1s-1.4-1.1-2-1.9c-.6-.8-1-1.7-1.2-2.7l-.3-1.6 4.3-.9.3 1.3c.2.8.5 1.4 1.1 2s1.4.7 2.5.4c.7-.2 1.3-.4 1.6-.7.4-.3.6-.7.7-1.1.1-.4.2-.9.1-1.5s-.2-1.2-.3-1.9c-.2-.8-.3-1.4-.5-1.9s-.4-.9-.6-1.1c-.2-.3-.6-.5-.9-.6-.4-.1-.8-.2-1.4-.4l-3.3-.6c-2-.4-3.4-1.1-4.3-2.2-.9-1.1-1.5-2.6-1.9-4.4-.2-1.1-.3-2.2-.2-3.3.1-1.1.4-2 .8-2.9.4-.9 1.1-1.6 1.9-2.2.8-.6 1.8-1.1 3.1-1.3 1.1-.2 2.1-.2 3 0 1 .2 1.8.6 2.6 1.1.8.5 1.4 1.1 1.9 1.8s.8 1.5 1 2.3l.3 2.3zM35.5 101.7l-4.9 1.1-.9-4 14.1-3.1.9 4-4.9 1.1 5.6 25.7-4.3.9-5.6-25.7zM46 95.2l3.5-.8 13.1 28.3-4.3.9-2.6-6.1-5.8 1.3.1 6.7-4.3.9.3-31.2zm3.6 8.2l.2 11.2 4.3-.9-4.5-10.3zM56.2 93l4.3-.9 5.5 25.4 8.4-1.8.9 4.3-12.7 2.7L56.2 93zM69.5 90.1l4.3-.9 2.9 13.6h.1l3.3-14.9 4.3-.9-3.2 13.1 10.7 16.3-4.5 1-7.7-12.1-1.4 4.8 1.9 8.9-4.3.9-6.4-29.8zM85.5 86.6l5.3-1.2 3.2 22.7-2.1.5-6.4-22zm6.1 25.4l4.3-.9.9 4.3-4.3.9-.9-4.3z"/></g><g><path class="st65" d="M24.1 65.8l4.3-.9 5.5 25.4 8.4-1.8.9 4.3-12.7 2.7-6.4-29.7zM37.4 62.9l12.7-2.7.9 4-8.5 1.8 1.9 8.7 7.3-1.6.9 4-7.3 1.6 1.9 8.7 8.4-1.8.9 4.3-12.7 2.7-6.4-29.7z"/><path class="st65" d="M54.4 63.5l-4.9 1.1-.9-4 14.1-3.1.9 4-4.9 1.1 5.6 25.7-4.3.8-5.6-25.6z"/><path class="st65" d="M62.3 57.6l4.3-.9.9 4.3-3.6 4-1.6-7.4zM83.8 61.8l-4.3.9-.2-1c-.2-1-.6-1.8-1.2-2.4-.6-.6-1.5-.8-2.5-.6-.6.1-1 .3-1.4.6-.3.3-.6.7-.7 1-.1.4-.2.8-.2 1.3s.1 1 .2 1.5c.1.6.3 1.1.4 1.5.1.4.3.7.5 1 .2.3.5.5.9.6.4.2.9.3 1.5.4l3.5.6c1 .2 1.9.4 2.6.8.7.4 1.3.8 1.7 1.4.5.6.8 1.3 1.1 2.1.3.8.6 1.8.8 2.9.3 1.3.4 2.4.4 3.6 0 1.1-.2 2.1-.6 3s-1 1.7-1.9 2.3c-.8.6-2 1.1-3.3 1.4-1 .2-2 .2-3 .1-1-.2-1.8-.5-2.6-1s-1.4-1.1-2-1.9c-.6-.8-1-1.7-1.2-2.7l-.3-1.4 4.3-.9.3 1.3c.2.8.5 1.4 1.1 2 .6.5 1.4.7 2.5.4.7-.2 1.3-.4 1.6-.7.4-.3.6-.7.7-1.1.1-.4.2-.9.1-1.5s-.2-1.2-.3-1.9c-.2-.8-.3-1.4-.5-1.9s-.4-.9-.6-1.1-.6-.5-.9-.6c-.4-.1-.8-.2-1.4-.3l-3.3-.6c-2-.4-3.4-1.1-4.3-2.2s-1.5-2.6-1.9-4.4c-.4-1.1-.4-2.2-.4-3.3.1-1.1.4-2 .8-2.9.4-.9 1.1-1.6 1.9-2.2.8-.6 1.8-1.1 3.1-1.3 1.1-.2 2.1-.2 3 0 1 .2 1.8.6 2.6 1.1.8.5 1.4 1.1 1.9 1.8s.8 1.5 1 2.3l.5 2zM34.7 101.4l-4.9 1.1-.9-4L43 95.4l.9 4-4.9 1.1 5.6 25.7-4.3.9-5.6-25.7zM45.2 94.9l3.5-.8 13.1 28.3-4.3.9-2.6-6.1-5.8 1.3.1 6.7-4.2.8.2-31.1zm3.6 8.2l.2 11.2 4.3-.9-4.5-10.3z"/><path class="st65" d="M55.4 92.7l4.3-.9 5.5 25.4 8.4-1.8.9 4.3-12.7 2.7-6.4-29.7zM68.7 89.8l4.3-.9 2.9 13.6h.1l3.3-14.9 4.3-.9-3.2 13.1 10.7 16.3-4.5 1-7.7-12.1-1.4 4.8 1.9 8.9-4.3.9-6.4-29.8zM84.7 86.3l5.3-1.2 3.2 22.7-2.1.5-6.4-22zm6.1 25.4l4.3-.9.9 4.2-4.3.9-.9-4.2z"/></g></svg>