<svg version="1.1" id="Layer_1" xmlns="http://www.w3.org/2000/svg" x="0" y="0" viewBox="0 0 191.5 88" xml:space="preserve"><style>.st26{fill:#fff}</style><path d="M178.9 88l8.5-66c.6-4.5-2.6-8.6-7.1-9.2L80.8.1c-4.5-.6-8.6 2.6-9.2 7.1l-8.5 66L178.9 88z" fill="#aaa798"/><path d="M.2 6.6H4v22.8h7.6v3.8H.2V6.6zm12.7 0h11.4v3.6h-7.6V18h6.6v3.6h-6.6v7.8h7.6v3.8H12.9V6.6z"/><path d="M28.2 10.1h-4.4V6.6h12.6v3.6H32v23h-3.8V10.1zm8.5-3.5h3.8v3.8l-3.8 2.8V6.6zm18.4 7.6h-3.8v-.9c0-.9-.2-1.6-.6-2.3s-1.1-1-2.1-1c-.5 0-1 .1-1.3.3s-.6.5-.8.8-.3.7-.4 1.1-.1.9-.1 1.4c0 .5 0 1 .1 1.3 0 .4.1.7.3.9.1.3.4.5.7.7.3.2.7.4 1.2.6l2.9 1.2c.8.3 1.5.7 2.1 1.1.5.4.9.9 1.2 1.5.3.6.5 1.3.6 2 .1.8.1 1.6.1 2.6 0 1.1-.1 2.2-.3 3.1-.2 1-.6 1.8-1.1 2.5s-1.2 1.2-2 1.6-1.9.6-3.1.6c-.9 0-1.8-.2-2.6-.5s-1.5-.8-2.1-1.3c-.6-.6-1-1.2-1.4-2-.4-.7-.6-1.5-.6-2.4v-1.4h3.8v1.2c0 .7.2 1.3.6 1.9.4.6 1.1.8 2.1.8.6 0 1.2-.1 1.5-.3.4-.2.6-.4.8-.8.2-.3.3-.8.4-1.3 0-.5.1-1 .1-1.6 0-.7 0-1.3-.1-1.7-.1-.4-.2-.8-.3-1.1s-.4-.5-.7-.7c-.3-.2-.7-.4-1.1-.6l-2.7-1.1c-1.6-.7-2.7-1.6-3.3-2.7-.6-1.1-.8-2.5-.8-4.2 0-1 .1-1.9.4-2.8.3-.9.7-1.7 1.2-2.3.5-.6 1.2-1.2 2-1.6.8-.4 1.8-.6 2.9-.6.9 0 1.8.2 2.6.5s1.5.8 2 1.4c.6.6 1 1.2 1.3 1.9.3.7.4 1.4.4 2.2v2zM12.3 55.6c0 .8-.2 1.6-.5 2.4-.3.7-.7 1.4-1.3 2-.5.6-1.2 1-1.9 1.3-.7.3-1.5.5-2.4.5-.7 0-1.5-.1-2.2-.3-.7-.2-1.4-.5-2-1-.6-.5-1.1-1.1-1.5-1.9-.4-.8-.6-1.8-.6-3V40.8c0-.9.1-1.7.4-2.4.3-.7.7-1.4 1.3-1.9.5-.5 1.2-1 2-1.3.8-.3 1.6-.5 2.5-.5.9 0 1.7.2 2.4.5s1.4.7 1.9 1.3c.5.6 1 1.2 1.3 2 .3.8.5 1.6.5 2.6v1.5H8.5v-1.3c0-.7-.2-1.4-.6-1.9s-1-.8-1.7-.8c-.9 0-1.6.3-1.9.9-.3.5-.5 1.2-.5 2.1v13.6c0 .8.2 1.4.5 1.9s.9.8 1.8.8c.2 0 .5 0 .8-.1.3-.1.5-.2.8-.4.2-.2.4-.5.6-.8.1-.3.2-.8.2-1.3V54h3.8v1.6zm2-20.7h3.8v11.4h4.7V34.9h3.8v26.6h-3.8V49.7h-4.7v11.9h-3.8V34.9zm19 0h3.2l5.9 26.6h-3.8l-1.1-5.7h-5.2l-1.1 5.7h-3.8l5.9-26.6zm1.7 7.7l-2 9.6h3.8L35 42.6zm8.7-4.1h-4.4v-3.6h12.6v3.6h-4.4v23h-3.8v-23zm9.1-3.6h4.8l-1.5 20h-1.9l-1.4-20zm.4 22.8H57v3.8h-3.8v-3.8z"/><path class="st26" d="M191.5 42.7l-25.8 13.6L85.1 8.6z"/><path fill="#cacaca" d="M165.7 56.3v29.4L85.1 8.6z"/><path fill="#e3e3e2" d="M165.7 85.7l-12.1-22.3L85.1 8.6z"/><path class="st26" d="M153.6 63.4l-28.2 18.7L85.1 8.6z"/></svg>