<svg version="1.1" id="Layer_1" xmlns="http://www.w3.org/2000/svg" x="0" y="0" viewBox="0 0 240.5 57.3" xml:space="preserve"><style>.st4{fill:#165079}.st5{fill:#103754}.st6{fill:#1d75af}</style><path class="st4" d="M231.9 7.9v28.8c0 .3.3.6.6.6s.6-.3.6-.6V7.9c0-3.7 3-6.6 6.6-6.6.3 0 .6-.3.6-.6s-.3-.6-.6-.6c-4.2-.1-7.8 3.4-7.8 7.8z"/><path class="st4" d="M224.4 24.3v15c0 2.4 2 4.4 4.4 4.4 2.4 0 4.4-2 4.4-4.4v-15c0-.3-.3-.6-.6-.6-.4 0-.6.3-.6.6v15c0 1.7-1.4 3.1-3.2 3.1-1.7 0-3.1-1.4-3.1-3.1v-15c0-.3-.3-.6-.6-.6-.4 0-.7.2-.7.6zm-23 10c0 .3.3.6.6.6h15c2.4 0 4.4-2 4.4-4.4 0-.4-.3-.6-.6-.6-.4 0-.6.3-.6.6 0 1.7-1.4 3.1-3.1 3.1h-15c-.4.1-.7.4-.7.7z"/><path class="st4" d="M220.2 22.3v8.3c0 .4.3.6.6.6s.6-.3.6-.6v-8.3c0-.8.6-1.5 1.5-1.5.8 0 1.4.7 1.4 1.5v8.3c0 .4.3.6.6.6s.6-.3.6-.6v-8.3c0-1.5-1.2-2.7-2.7-2.7-1.4 0-2.6 1.2-2.6 2.7z"/><path class="st5" d="M126.3 16.8h89.2v39.3h-89.2z"/><path class="st4" d="M126.3 18h89.2v39.3h-89.2z"/><path class="st5" d="M202.5 43.3h6.3v6.3h-6.3zm-8.7 0h6.3v6.3h-6.3zm-8.7 0h6.3v6.3h-6.3zm-8.7 0h6.3v6.3h-6.3zm-8.7 0h6.3v6.3h-6.3zm-8.7 0h6.3v6.3H159zm-8.7 0h6.3v6.3h-6.3zm-8.7 0h6.3v6.3h-6.3zm-8.7 0h6.3v6.3h-6.3zM202.5 34.6h6.3v6.3h-6.3zm-8.7 0h6.3v6.3h-6.3zm-8.7 0h6.3v6.3h-6.3zm-8.7 0h6.3v6.3h-6.3zm-8.7 0h6.3v6.3h-6.3zm-8.7 0h6.3v6.3H159zm-8.7 0h6.3v6.3h-6.3zm-8.7 0h6.3v6.3h-6.3zm-8.7 0h6.3v6.3h-6.3zM202.5 25.9h6.3v6.3h-6.3zm-40.9 6.3h38.5v-6.3H159v6.3zm-11.3-6.3h6.3v6.3h-6.3zm-8.7 0h6.3v6.3h-6.3zm-8.7 0h6.3v6.3h-6.3z"/><path class="st6" d="M202.5 44.3h6.3v6.3h-6.3zm-8.7 0h6.3v6.3h-6.3zm-8.7 0h6.3v6.3h-6.3zm-8.7 0h6.3v6.3h-6.3zm-8.7 0h6.3v6.3h-6.3zm-8.7 0h6.3v6.3H159zm-8.7 0h6.3v6.3h-6.3zm-8.7 0h6.3v6.3h-6.3zm-8.7 0h6.3v6.3h-6.3zM202.5 35.7h6.3V42h-6.3zm-8.7 0h6.3V42h-6.3zm-8.7 0h6.3V42h-6.3zm-8.7 0h6.3V42h-6.3zm-8.7 0h6.3V42h-6.3zm-8.7 0h6.3V42H159zm-8.7 0h6.3V42h-6.3zm-8.7 0h6.3V42h-6.3zm-8.7 0h6.3V42h-6.3zM202.5 27h6.3v6.3h-6.3zm-40.9 6.3h38.5V27H159v6.3zM150.3 27h6.3v6.3h-6.3zm-8.7 0h6.3v6.3h-6.3zm-8.7 0h6.3v6.3h-6.3z"/><g><path class="st4" d="M0 27.4h3.8v22.8h7.6V54H0V27.4zm12.7 0h11.4V31h-7.6v7.8h6.6v3.6h-6.6v7.8h7.6V54H12.7V27.4z"/><path class="st4" d="M27.9 31h-4.4v-3.6h12.6V31h-4.4v23h-3.8V31zm8.6-3.6h3.8v3.8L36.5 34v-6.6zM54.9 35h-3.8v-.9c0-.9-.2-1.6-.6-2.3-.4-.6-1.1-1-2.1-1-.5 0-1 .1-1.3.3s-.6.5-.8.8c-.2.3-.3.7-.4 1.1s-.1.8-.1 1.3 0 1 .1 1.3c0 .4.1.7.3.9.1.3.4.5.7.7.3.2.7.4 1.2.6L51 39c.8.3 1.5.7 2.1 1.1.5.4.9.9 1.2 1.5.3.6.5 1.3.6 2 .1.8.1 1.6.1 2.6 0 1.1-.1 2.2-.3 3.1-.2 1-.6 1.8-1.1 2.5s-1.2 1.2-2 1.6-1.9.6-3.1.6c-.9 0-1.8-.2-2.6-.5s-1.5-.8-2.1-1.3c-.6-.6-1-1.2-1.4-2-.3-.8-.5-1.6-.5-2.5v-1.4h3.8v1.2c0 .7.2 1.3.6 1.9.4.6 1.1.8 2.1.8.6 0 1.2-.1 1.5-.3.4-.2.6-.4.8-.8.2-.3.3-.8.4-1.3 0-.5.1-1 .1-1.6 0-.7 0-1.3-.1-1.7-.1-.4-.2-.8-.3-1.1s-.5-.3-.8-.4c-.3-.2-.7-.4-1.1-.6l-2.7-1.1c-1.6-.7-2.7-1.6-3.3-2.7-.6-1.1-.8-2.5-.8-4.2 0-1 .1-1.9.4-2.8.3-.9.7-1.7 1.2-2.3.5-.6 1.2-1.2 2-1.6.8-.4 1.8-.6 2.9-.6.9 0 1.8.2 2.6.5s1.5.8 2 1.4c.6.6 1 1.2 1.3 1.9.3.7.4 1.4.4 2.2V35zm19.6 13.1c0 .8-.2 1.6-.5 2.4-.3.7-.7 1.4-1.3 2-.5.6-1.2 1-1.9 1.3-.7.3-1.5.5-2.4.5-.7 0-1.5-.1-2.2-.3-.7-.2-1.4-.5-2-1-.6-.5-1.1-1.1-1.5-1.9-.4-.8-.6-1.8-.6-3V33.3c0-.9.1-1.7.4-2.4.3-.7.7-1.4 1.3-1.9.5-.5 1.2-1 2-1.3.8-.3 1.6-.5 2.5-.5.9 0 1.7.2 2.4.5s1.4.7 1.9 1.3c.5.6 1 1.2 1.3 2 .3.8.5 1.6.5 2.6V35h-3.8v-1.3c0-.7-.2-1.4-.6-1.9-.4-.5-1-.8-1.7-.8-.9 0-1.6.3-1.9.9-.3.6-.5 1.3-.5 2.2v13.6c0 .8.2 1.4.5 1.9s.9.8 1.8.8c.2 0 .5 0 .8-.1.3-.1.5-.2.8-.4.2-.2.4-.5.6-.8.1-.3.2-.8.2-1.3v-1.3h3.8v1.6zm2-20.7h3.8v11.4H85V27.4h3.8V54H85V42.1h-4.7V54h-3.8V27.4zm19.1 0h3.2l5.9 26.6h-3.8l-1.1-5.7h-5.2L93.4 54h-3.8l6-26.6zm1.6 7.6l-1.9 9.6H99L97.2 35zm8.7-4h-4.4v-3.6h12.6V31h-4.4v23h-3.8V31z"/></g></svg>