<svg version="1.1" id="Layer_1" xmlns="http://www.w3.org/2000/svg" xmlns:xlink="http://www.w3.org/1999/xlink" x="0" y="0" viewBox="0 0 238.1 82.4" xml:space="preserve"><style>.st407{fill:#586374}.st408{fill:#efece3}.st409{fill:#84cacc}.st410{fill:#406578}</style><path d="M0 63.5V38.4h5.6v22.3H14v2.8H0zm32.2-8.4H21v2.8c0 .8.3 1.4.8 2 .5.6 1.2.8 2 .8h2.8c1.8 0 2.8-.9 2.8-2.8h2.8c-.4 3.7-2.3 5.6-5.5 5.6H21c-1.5 0-2.8-.5-3.9-1.6s-1.7-2.4-1.7-3.9v-8.4c0-1.5.6-2.8 1.7-3.9S19.5 44 21 44h5.6c1.5 0 2.8.5 3.9 1.6s1.6 2.4 1.6 3.9v5.6zM21 52.4h5.6v-2.8c0-.8-.3-1.4-.8-2-.5-.5-1.2-.8-2-.8s-1.4.3-2 .8-.8 1.2-.8 2v2.8zm15.5-14H42V44h2.8v2.8H42v11.1c0 .9.3 1.6.9 2.1.6.5 1.1.7 1.6.7h.3v2.8H42c-1.5 0-2.8-.5-3.9-1.6s-1.6-2.4-1.6-3.9V46.8h-2.8V44h2.8v-5.6zm9.9 0H52V44c0 3.3-1.9 5.1-5.6 5.5v-2.8c1.8-.1 2.7-1 2.8-2.8h-2.8v-5.5zm21.1 11.1h-2.8c-.2-1.8-1.1-2.8-2.6-2.8-1 0-1.7.2-2.2.6-.5.4-.7 1-.7 1.7 0 .8 1.3 1.9 4 3.4 2.2 1.2 3.5 2.2 3.8 2.9s.5 1.6.5 2.5c0 1.5-.5 2.9-1.6 3.9-1.1 1.1-2.4 1.6-3.9 1.6h-2.8c-3.7 0-5.6-1.9-5.6-5.6h2.8c.2 1.9 1.1 2.8 2.6 2.8 1 0 1.7-.2 2.2-.6.5-.4.7-1 .7-1.8s-1.3-1.9-4-3.3c-2.2-1.2-3.5-2.2-3.8-2.9-.3-.8-.5-1.6-.5-2.5 0-1.5.6-2.9 1.7-3.9s2.4-1.6 3.9-1.6H62c3.4.1 5.3 2 5.5 5.6zm22.6 8.4c-.2 3.7-2.1 5.6-5.5 5.6H79c-1.5 0-2.8-.5-3.9-1.6s-1.7-2.4-1.7-3.9V44c0-1.5.5-2.8 1.6-3.9s2.4-1.7 4-1.7h5.6c3.5 0 5.3 1.9 5.5 5.6h-2.8c-.2-1.9-1.1-2.8-2.8-2.8h-2.8c-.8 0-1.4.3-2 .8-.5.5-.8 1.2-.8 2v13.9c0 .8.3 1.4.8 2 .5.6 1.2.8 2 .8h2.8c1.6 0 2.6-.9 2.8-2.8h2.8zm1.5 5.6V38.4h5.6v8.4c.1-.9.4-1.6.9-2.1s1.1-.7 1.9-.7h2.8c1.5 0 2.8.5 3.9 1.6s1.6 2.4 1.6 3.9v13.9h-5.5V49.5c0-.8-.3-1.4-.8-2-.5-.5-1.2-.8-2-.8s-1.4.3-2 .8-.8 1.2-.8 2v13.9h-5.6zm29.5-11.1v-2.8c0-.8-.3-1.4-.8-2-.5-.5-1.2-.8-2-.8h-2.8c-1.6 0-2.6.9-2.8 2.8h-2.8c.4-3.7 2.3-5.5 5.6-5.5h5.6c1.5 0 2.8.5 3.9 1.6s1.6 2.4 1.6 3.9v13.9h-5.5v-2.8c-.2 1.8-1.2 2.8-2.8 2.8h-2.8c-1.5 0-2.8-.5-3.9-1.6s-1.7-2.4-1.7-3.9.6-2.8 1.7-3.9 2.4-1.6 3.9-1.6h5.6zm0 2.7h-2.8c-.8 0-1.4.3-2 .8s-.8 1.2-.8 2 .3 1.4.8 2c.5.6 1.2.8 2 .8s1.4-.3 2-.8c.5-.6.8-1.2.8-2v-2.8zm9.9-16.7h5.5V44h2.8v2.8h-2.8v11.1c0 .9.3 1.6.9 2.1.6.5 1.1.7 1.6.7h.3v2.8h-2.8c-1.5 0-2.8-.5-3.9-1.6S131 59.5 131 58V46.8h-2.8V44h2.8v-5.6z" fill="#aaa798"/><defs><path id="SVGID_129_" d="M144.3 0h93.8v72h-93.8z"/></defs><clipPath id="SVGID_1_"><use xlink:href="#SVGID_129_" overflow="visible"/></clipPath><g clip-path="url(#SVGID_1_)"><path class="st407" d="M224.6 19.4c0 .5-.4.8-.8.8h-71.3c-.5 0-.8-.4-.8-.8v-4.7c0-.5.4-.8.8-.8h71.3c.5 0 .8.4.8.8v4.7z"/><path class="st408" d="M164.1 2.4h48.3v17.2h-48.3z"/><path class="st409" d="M217.9 12c-.5 0-.8.4-.8.8v5.1c0 .5-.4.8-.8.8h-7c-.5 0-.8-.4-.8-.8 0-.5-.4-.8-.8-.8H169c-.5 0-.8.4-.8.8 0 .5-.4.8-.8.8h-7c-.5 0-.8-.4-.8-.8v-5.1c0-.5-.4-.8-.8-.8h-4.2c-.5 0-.8.4-.8.8V24c0 .5.4.8.8.8h67.9c.5 0 .8-.4.8-.8V12.8c0-.5-.4-.8-.8-.8h-4.6zm3.7 39.5c-.6 2.7-2.3 4.6-5.1 5.1-13.1 2.2-43.6 2.2-56.6 0-2.7-.5-4.5-2.3-5.1-5.1-1.4-6.6-1.5-11.7-1.5-22.9 0-2.8.2-2.9 2.9-2.9H220c2.8 0 2.6.2 2.7 2.9.4 11.2.3 16.3-1.1 22.9z"/><path class="st410" d="M216.7 49.8c-.7 2.2-1.9 2.8-4.2 3-19 1.9-29.7 2.1-48.5 0-2.3-.3-3.6-.8-4.2-3-1.2-4.3-1.5-8.1-1.1-13.1.2-2.3 1.9-4.2 4.2-4.2h50.7c2.3 0 4.1 1.9 4.2 4.2.3 5 .2 8.8-1.1 13.1z"/><path class="st408" d="M201.9 51.2c0 .5-.4.9-.8.9 0 0-6 .7-12.8.7-6.8 0-12.8-.7-12.8-.7-.5-.1-.8-.5-.8-.9v-1.3c0-.5.4-.8.8-.8H201c.5 0 .8.4.8.8v1.3zm10.4-1.1c0 .5-.4.8-.8 1-1.1.6-5.2.8-7.3.8-.5 0-.8-.3-.8-.7v-1.3c0-.5.4-.9.8-.9l7.5-.2c.5 0 .7.3.7.8v.5zm-48.1 0c0 .5.4.8.8 1 1.1.6 5.2.8 7.3.8.5 0 .8-.3.8-.7v-1.3c0-.5-.4-.9-.8-.9l-7.5-.2c-.5 0-.7.3-.7.8v.5zm2.1-14.2c0 1-.8 1.9-1.9 1.9-1 0-1.9-.8-1.9-1.9 0-1 .8-1.9 1.9-1.9 1 0 1.9.9 1.9 1.9zm5.3 0c0 1-.8 1.9-1.9 1.9s-1.9-.8-1.9-1.9c0-1 .8-1.9 1.9-1.9s1.9.9 1.9 1.9zm5.3 0c0 1-.8 1.9-1.9 1.9s-1.9-.8-1.9-1.9c0-1 .8-1.9 1.9-1.9s1.9.9 1.9 1.9zm5.3 0c0 1-.8 1.9-1.9 1.9-1 0-1.9-.8-1.9-1.9 0-1 .8-1.9 1.9-1.9 1 0 1.9.9 1.9 1.9zm5.3 0c0 1-.8 1.9-1.9 1.9-1 0-1.9-.8-1.9-1.9 0-1 .8-1.9 1.9-1.9 1 0 1.9.9 1.9 1.9zm5.3 0c0 1-.8 1.9-1.9 1.9-1 0-1.9-.8-1.9-1.9 0-1 .8-1.9 1.9-1.9 1 0 1.9.9 1.9 1.9zm5.3 0c0 1-.8 1.9-1.9 1.9-1 0-1.9-.8-1.9-1.9 0-1 .8-1.9 1.9-1.9 1 0 1.9.9 1.9 1.9zm5.3 0c0 1-.8 1.9-1.9 1.9-1 0-1.9-.8-1.9-1.9 0-1 .8-1.9 1.9-1.9 1.1 0 1.9.9 1.9 1.9zm5.3 0c0 1-.8 1.9-1.9 1.9-1 0-1.9-.8-1.9-1.9 0-1 .8-1.9 1.9-1.9 1.1 0 1.9.9 1.9 1.9z"/><circle class="st408" cx="212.1" cy="35.9" r="1.9"/><path class="st408" d="M166.3 45c0 1-.8 1.9-1.9 1.9-1 0-1.9-.8-1.9-1.9 0-1 .8-1.9 1.9-1.9 1 0 1.9.9 1.9 1.9zm5.3 0c0 1-.8 1.9-1.9 1.9s-1.9-.8-1.9-1.9c0-1 .8-1.9 1.9-1.9s1.9.9 1.9 1.9zm5.3 0c0 1-.8 1.9-1.9 1.9s-1.9-.8-1.9-1.9c0-1 .8-1.9 1.9-1.9s1.9.9 1.9 1.9zm5.3 0c0 1-.8 1.9-1.9 1.9-1 0-1.9-.8-1.9-1.9 0-1 .8-1.9 1.9-1.9 1 0 1.9.9 1.9 1.9zm5.3 0c0 1-.8 1.9-1.9 1.9-1 0-1.9-.8-1.9-1.9 0-1 .8-1.9 1.9-1.9 1 0 1.9.9 1.9 1.9zm5.3 0c0 1-.8 1.9-1.9 1.9-1 0-1.9-.8-1.9-1.9 0-1 .8-1.9 1.9-1.9 1 0 1.9.9 1.9 1.9zm5.3 0c0 1-.8 1.9-1.9 1.9-1 0-1.9-.8-1.9-1.9 0-1 .8-1.9 1.9-1.9 1 0 1.9.9 1.9 1.9zm5.3 0c0 1-.8 1.9-1.9 1.9-1 0-1.9-.8-1.9-1.9 0-1 .8-1.9 1.9-1.9 1.1 0 1.9.9 1.9 1.9zm5.3 0c0 1-.8 1.9-1.9 1.9-1 0-1.9-.8-1.9-1.9 0-1 .8-1.9 1.9-1.9 1.1 0 1.9.9 1.9 1.9zm5.3 0c0 1-.8 1.9-1.9 1.9s-1.9-.8-1.9-1.9c0-1 .8-1.9 1.9-1.9s1.9.9 1.9 1.9zm-50.4-4.5c0 1-.8 1.9-1.9 1.9s-1.9-.8-1.9-1.9c0-1 .8-1.9 1.9-1.9s1.9.8 1.9 1.9zm5.3 0c0 1-.8 1.9-1.9 1.9-1 0-1.9-.8-1.9-1.9 0-1 .8-1.9 1.9-1.9 1 0 1.9.8 1.9 1.9zm5.3 0c0 1-.8 1.9-1.9 1.9-1 0-1.9-.8-1.9-1.9 0-1 .8-1.9 1.9-1.9 1 0 1.9.8 1.9 1.9zm5.3 0c0 1-.8 1.9-1.9 1.9-1 0-1.9-.8-1.9-1.9 0-1 .8-1.9 1.9-1.9 1 0 1.9.8 1.9 1.9zm5.3 0c0 1-.8 1.9-1.9 1.9s-1.9-.8-1.9-1.9c0-1 .8-1.9 1.9-1.9s1.9.8 1.9 1.9zm5.3 0c0 1-.8 1.9-1.9 1.9-1 0-1.9-.8-1.9-1.9 0-1 .8-1.9 1.9-1.9 1 0 1.9.8 1.9 1.9zm5.3 0c0 1-.8 1.9-1.9 1.9-1 0-1.9-.8-1.9-1.9 0-1 .8-1.9 1.9-1.9 1.1 0 1.9.8 1.9 1.9zm5.3 0c0 1-.8 1.9-1.9 1.9s-1.9-.8-1.9-1.9c0-1 .8-1.9 1.9-1.9s1.9.8 1.9 1.9zm5.3 0c0 1-.8 1.9-1.9 1.9s-1.9-.8-1.9-1.9c0-1 .8-1.9 1.9-1.9s1.9.8 1.9 1.9zm5.3 0c0 1-.8 1.9-1.9 1.9-1 0-1.9-.8-1.9-1.9 0-1 .8-1.9 1.9-1.9 1.1 0 1.9.8 1.9 1.9zm5.3 0c0 1-.8 1.9-1.9 1.9-1 0-1.9-.8-1.9-1.9 0-1 .8-1.9 1.9-1.9 1.1 0 1.9.8 1.9 1.9z"/><path class="st409" d="M159.2 13.9h57.9v1h-57.9z"/><path class="st407" d="M174.1 14.7c0 .2-.2.4-.4.4h-3.1c-.2 0-.4-.2-.4-.4V14c0-.2.2-.4.4-.4h3.1c.2 0 .4.2.4.4v.7zm10.7 0c0 .2-.2.4-.4.4h-3.1c-.2 0-.4-.2-.4-.4V14c0-.2.2-.4.4-.4h3.1c.2 0 .4.2.4.4v.7zm17.4 0c0 .2.2.4.4.4h3.1c.2 0 .4-.2.4-.4V14c0-.2-.2-.4-.4-.4h-3.1c-.2 0-.4.2-.4.4v.7zm-10.7 0c0 .2.2.4.4.4h3.1c.2 0 .4-.2.4-.4V14c0-.2-.2-.4-.4-.4h-3.1c-.2 0-.4.2-.4.4v.7zm-42.2 6.7c0 .5.4.8.8.8h1.5c.5 0 .8-.4.8-.8v-8.6c0-.5-.4-.8-.8-.8h-1.5c-.5 0-.8.4-.8.8v8.6zm76.2 1.9c0 .5.3.8.8.8.4 0 .8-.4.8-.8v-8.6c0-.5-.3-.8-.8-.8-.4 0-.8.4-.8.8v8.6zm6.8-1.9c0-.1-.1-.3-.3-.3h-4.5c-.1 0-.3.1-.3.3v1c0 .1.1.3.3.3h4.5c.1 0 .3-.1.3-.3v-1zm-7.8-5.9h1v3.2h-1z"/><path class="st407" d="M235.7 23.2c.2 0 .4-.2.4-.4V21c0-.2-.2-.4-.4-.4h-6.6c-.2 0-.4.2-.4.4v1.9c0 .2.2.4.4.4h6.6zm-8.6.3c.5 0 .8-.4.8-.8v-1.5c0-.5-.4-.8-.8-.8h-.2c-.5 0-.8.4-.8.8v1.5c0 .5.4.8.8.8h.2zm-21.8 2.7c-.3-2.6-5.1-9.1-5.1-9.1H176s-4.5 6.4-5.1 9.1c-.4 2.1 2.5 2.5 2.5 2.5 10.2 1.5 19.3 1.5 29.2 0 .1 0 2.8-.4 2.7-2.5z"/><path class="st408" d="M185.8 18.8h4.8c.5 0 1-.4 1-1v-.7h-6.7v.7c-.1.5.3 1 .9 1zM188.3 27.8c0 .1-.1.3-.3.3-.1 0-.3-.1-.3-.3v-6.7c0-.1.1-.3.3-.3.1 0 .3.1.3.3v6.7z"/><path class="st408" d="M188.5 27.8c0 .1-.1.3-.3.3h-.4c-.1 0-.3-.1-.3-.3v-1.7c0-.1.1-.3.3-.3h.4c.1 0 .3.1.3.3v1.7zm1.8-.1c0 .1-.1.3-.2.3s-.2-.1-.3-.2l-.7-6.6c0-.1.1-.3.2-.3s.2.1.3.2l.7 6.6z"/><path class="st408" d="M190.6 27.7c0 .1-.1.3-.2.3h-.4c-.1 0-.3-.1-.3-.2l-.2-1.7c0-.1.1-.3.2-.3h.4c.1 0 .3.1.3.2l.2 1.7zm1.8-.1c0 .1-.1.3-.2.3s-.3-.1-.3-.2l-1.3-6.6c0-.1.1-.3.2-.3s.3.1.3.2l1.3 6.6z"/><path class="st408" d="M192.6 27.5c0 .1-.1.3-.2.3l-.4.1c-.1 0-.3-.1-.3-.2l-.3-1.7c0-.1.1-.3.2-.3l.4-.1c.1 0 .3.1.3.2l.3 1.7zm1.8-.2c0 .1 0 .3-.1.3s-.3-.1-.3-.2l-2-6.4c0-.1 0-.3.1-.3s.3.1.3.2l2 6.4z"/><path class="st408" d="M194.6 27.2c0 .1 0 .3-.2.3l-.4.1c-.1 0-.3-.1-.3-.2l-.5-1.6c0-.1 0-.3.2-.3l.4-.1c.1 0 .3.1.3.2l.5 1.6zm1.8-.3c.1.1 0 .3-.1.3s-.3 0-.3-.2l-2.7-6.3c-.1-.1 0-.3.1-.3s.3 0 .3.2l2.7 6.3z"/><path class="st408" d="M196.6 26.8c.1.1 0 .3-.1.3l-.4.1c-.1 0-.3 0-.3-.2l-.7-1.6c-.1-.1 0-.3.1-.3l.4-.1c.1 0 .3 0 .3.2l.7 1.6zm1.8-.4c.1.1 0 .3-.1.3s-.3 0-.3-.1l-3.3-6c-.1-.1 0-.3.1-.3s.3 0 .3.1l3.3 6z"/><path class="st408" d="M198.6 26.3c.1.1 0 .3-.1.3l-.4.1c-.1.1-.3 0-.4-.1l-.8-1.5c-.1-.1 0-.3.1-.3l.4-.1c.1-.1.3 0 .4.1l.8 1.5zm1.8-.5c.1.1.1.3-.1.3-.1.1-.3 0-.3-.1l-3.9-5.8c-.1-.1-.1-.3.1-.3.1-.1.3 0 .3.1l3.9 5.8z"/><path class="st408" d="M200.6 25.7c.1.1 0 .3-.1.3l-.4.2c-.1.1-.3 0-.4-.1l-1-1.5c-.1-.1 0-.3.1-.3l.4-.2c.1-.1.3 0 .4.1l1 1.5zM185.8 27.7c0 .1.1.3.2.3s.2-.1.3-.2l.7-6.6c0-.1-.1-.3-.2-.3s-.2.1-.3.2l-.7 6.6z"/><path class="st408" d="M185.6 27.7c0 .1.1.3.2.3h.4c.1 0 .3-.1.3-.2l.2-1.7c0-.1-.1-.3-.2-.3h-.4c-.1 0-.3.1-.3.2l-.2 1.7zM183.8 27.6c0 .1.1.3.2.3s.3-.1.3-.2l1.3-6.6c0-.1-.1-.3-.2-.3s-.3.1-.3.2l-1.3 6.6z"/><path class="st408" d="M183.5 27.5c0 .1.1.3.2.3l.4.1c.1 0 .3-.1.3-.2l.3-1.7c0-.1-.1-.3-.2-.3l-.4-.1c-.1 0-.3.1-.3.2l-.3 1.7zM181.7 27.3c0 .1 0 .3.1.3s.3-.1.3-.2l2-6.4c0-.1 0-.3-.1-.3s-.3.1-.3.2l-2 6.4z"/><path class="st408" d="M181.5 27.2c0 .1 0 .3.2.3l.4.1c.1 0 .3-.1.3-.2l.5-1.6c0-.1 0-.3-.2-.3l-.4-.1c-.1 0-.3.1-.3.2l-.5 1.6z"/><g><path class="st408" d="M179.7 26.9c-.1.1 0 .3.1.3s.3 0 .3-.2l2.7-6.3c.1-.1 0-.3-.1-.3s-.3 0-.3.2l-2.7 6.3z"/><path class="st408" d="M179.5 26.8c-.1.1 0 .3.1.3l.4.1c.1 0 .3 0 .3-.2l.7-1.6c.1-.1 0-.3-.1-.3l-.4-.1c-.1 0-.3 0-.3.2l-.7 1.6z"/></g><g><path class="st408" d="M177.7 26.4c-.1.1 0 .3.1.3s.3 0 .3-.1l3.3-6c.1-.1 0-.3-.1-.3s-.3 0-.3.1l-3.3 6z"/><path class="st408" d="M177.5 26.3c-.1.1 0 .3.1.3l.4.1c.1.1.3 0 .4-.1l.8-1.5c.1-.1 0-.3-.1-.3l-.4-.1c-.1-.1-.3 0-.4.1l-.8 1.5z"/></g><g><path class="st408" d="M175.7 25.8c-.1.1-.1.3.1.3.1.1.3 0 .3-.1l3.9-5.8c.1-.1.1-.3-.1-.3-.1-.1-.3 0-.3.1l-3.9 5.8z"/><path class="st408" d="M175.5 25.7c-.1.1 0 .3.1.3l.4.2c.1.1.3 0 .4-.1l1-1.5c.1-.1 0-.3-.1-.3l-.4-.2c-.1-.1-.3 0-.4.1l-1 1.5z"/></g><path class="st410" d="M159.3 32.5c0 .4-.3.8-.8.8s-.8-.3-.8-.8c0-.4.3-.8.8-.8s.8.4.8.8zm-2.2-18.1c0 .4-.3.8-.8.8-.4 0-.8-.3-.8-.8 0-.4.3-.8.8-.8s.8.4.8.8zm63.7 0c0 .4-.3.8-.8.8-.4 0-.8-.3-.8-.8 0-.4.3-.8.8-.8.4 0 .8.4.8.8zm-2.1 18.1c0 .4-.3.8-.8.8-.4 0-.8-.3-.8-.8 0-.4.3-.8.8-.8s.8.4.8.8z"/><path d="M157.1 70.3s1.1-2.8 1.8-4.2c.6-1.4.5-2.9.6-5.9.1-3 .8-6.7.8-8 0-2.5-.1-3.9 1.8-8 .9-2 3.3-1.6 3.5-1.3 1.2-.8 1.1-1.2 2.5-1.5 1-.2 2 .2 2.3.5 1-.8.9-1.3 2.5-2.1 1.3-.7 1.7-.4 3.2-.9 1-.3 2.3.3 2.7 1.1.3.5.1 1.3-1.1 1.7-.5.2-1.8.3-2.6 1.5-.4.6 0 .8-1.2 2.4-1.2 1.6-.9 2.4-.8 2.2 1.1-1.5 2-1.2 3-3 .6-1.2 1.6-1.7 2.4-2.6.7-.8 2-1.2 2.8-1.3 1.2-.3 2 .1 2.2.3.5.6-.2 1.9-1.3 2.8-1.3 1.2-1.8 2.7-2.9 4-1.2 1.4-.5 1.9-1.1 3.5-.6 1.6-.6 3.9-.5 4.5.1.7-.3 1.6 0 1.7.3.1 1.7-.9 1.9-1.9.2-1-.1-2.4 1.3-4.4 1.4-2 2.9-2.2 3.1-1.7.2.5-.2 3.3 0 4.5.3 1.7.7 2.2.6 2.5-.1.4 0 1.2-1.1 2.3-1.6 1.5-3 5.9-5.6 7.6-2.2 1.4-4.6 3.4-6.4 6.4-.7 1.7-1.8 3.6-1.8 3.6l-12.6-6.3zm45.8 4.8s-1.4-2.3-1.5-3.1c-.3-1.7-.8-2.6-4.5-5.5s-3.7-3-4.7-6.3c-.4-1.4-1.4-3.2-1.7-4-.5-1.6.6-1.7.6-4.7 0-1-.2-1.9.4-2.2.6-.3 2.9 2.3 3 3.6.2 2.2-.3 1.8.2 2.7.6 1.2 1.1 1.7 1.3 2 .4.6-.3-1.8-.2-3.2.1-1.1-1-2.5-1-4.4 0-1.4-.2-2.2-.4-3.4-.4-2.2-.5-2.1-1.1-3.1-.3-.6-.7-1.1-.4-1.7.3-.7 1.4-.6 2.7.1 1.4.8 2.4 3.2 2.4 3.2s1.3 3.4 1.5 3.5c.3.2-.2-1.6-.3-2.7-.1-1.1-.8-2.2-1.1-2.9-.2-.4-.5-.1-.8-.4-.3-.3-1-.7-1-1.3 0-.3.3-1 1.1-1.5s2-.2 2.9 0c.4.1 1.1.6 1.4 1.1 1 1.4 1.3 1.1 1.3 1.1s.9-.5 1.7-.5 1.8-.1 2.6 1c1 1.3 0 .3 1.3.3.9 0 2 .6 2.4.8.3.3 1.7 2.2 1.9 3.7.3 1.5 1.9 5.1 1.6 8.5-.3 3.4-.3 8.2-.1 9.3.1.4 1.5 3.4 1.5 3.4l-13 6.6z" fill="#efc3a0"/><path d="M201.6 74.4c-.8-3.4 13.5-9.7 14.7-6.9l8.2 14.9h-20.8l-2.1-8zM156.5 69c1.1-2.2 15.3 4.5 14.2 6.7l-2.4 6.7H148l8.5-13.4z" fill="#ef8456"/></g></svg>