<svg version="1.1" id="Layer_1" xmlns="http://www.w3.org/2000/svg" x="0" y="0" viewBox="0 0 187.5 95.3" xml:space="preserve"><style>.st288{opacity:.4;fill:#aaa798}</style><path class="st288" d="M180.2 13.3c0 .1 0 .2-.1.2.6 4.4.3 9 1.3 13.4 1.6 6.5 2.2 9.3 3.6 15.8 1.1 5.1 1.5 10.3 2.5 15.5.3 1.9-1.2-7.6-1.6-5.5.1 1.6-.1 3.3-.7 4.9 0 0 0 .1-.1.1 0 .1-.1.2-.1.2-.1.3-.3.5-.6.8-.1.1-.2.1-.2.1-.3.5-.7 1.1-1.1 1.6-2.2 2.5-5.9 4-9.2 5-4.2 1.4-8.5 2.1-12.8 2.9-6.3 1.1-12.5 2.6-18.7 4-16.5 3.9-33 8.1-49.5 11.8-8.3 1.9-16.7 3.9-25.1 5.4-7.7 1.4-15.6 2.4-23.2 4.3-.4.1-.7.2-1 .3-.1 0-.3.1-.4.1H43C26.9 98 26.6 89.1 24.5 80.3c-3.9-.9-7.2-1.5-11.5-.3-4.4 1.2-7.9 4.2-9.4 7.9 0 0 0 .1.1.1l-.2.2c-.1 0-.1-.1-.2-.1-10-9.6 4.7-26 19-26.6.3-3 0-2.1-.8-4.9-1-3.6-1.1-7.4-1.4-11.1-.2-3 0-5.5 2-8.2 1.7-2.2 4.5-3.8 7.2-5 7.8-3.5 16.8-5.2 25.1-7.2 9.5-2.4 19.1-4.4 28.8-5.9h.1c.9-.2 1.8-.3 2.8-.4h.2c11.4-3 23.3-4.4 34.8-6.5C130.2 10.5 139 8 148 5.8 158.1 3.3 173.7.9 178.7 9c.2-.1.4 0 .4.1.2.6.4 1.2.5 1.8.2.8.4 1.5.6 2.4z"/><path class="st288" d="M181.1 21.5c0 .1 0 .2-.1.2.1 4.2-1.4 4.6-.8 8.8.8 6.4 1.3 12.8 2 19.2.5 5-1.6-1.9-1.3 3.1.1 1.8.3 4.1-.3 6.1-.1 1.6-.4 3.1-1.2 4.6l-.1.1c0 .1-.1.1-.1.2-.2.2-.4.5-.6.7-.1.1-.2.1-.2.1-.3.5-.7.9-1.2 1.4-2.3 2.2-6 3.1-9.2 3.8-4.1.8-8.3 1.1-12.5 1.4-6.1.4-12.1 1.1-18.1 1.8-16.1 1.9-32.1 4.2-48.2 5.9-8.1.9-16.2 1.9-24.4 2.4-7.4.5-15 .6-22.4 1.6-.3.1-.7.1-1 .2-.1 0-.3.1-.4.1h-.1c-13.2-1.7-14.1-29-14.1-29 .6-2.9.1-5.8-.4-8.6-.6-3.5-.3-7.2-.1-10.7.2-2.8.6-5.3 2.8-7.6 1.8-1.9 4.7-3.1 7.4-4 7.7-2.5 16.5-3.1 24.5-4.2 9.3-1.2 18.6-2.2 27.9-2.5h.1c.9-.1 1.8-.1 2.7-.1h.2c11.1-1.6 22.6-1.7 33.7-2.5 8.8-.7 17.4-2.1 26.1-3.2 9.8-1.3 24.9-1.9 28.7 6.3.2 0 .3 0 .4.2l.3 1.8c-.1.9 0 1.6 0 2.4z"/><path class="st288" d="M174.9 8.7c0 .1 0 .2-.1.2.8 4.2.7 8.6 1.9 12.6 1.8 6.2 2.7 8.5 4.4 14.7 1.3 4.8 2 9.8 3.1 14.6.4 1.8.9 4 .7 6.1.2 1.5-1.9-8.7-2.4-7.1 0 0 0 .1-.1.1 0 .1-.1.1-.1.2-.1.3-.3.5-.5.8-.1.1-.1.1-.2.1-.3.5-.6 1-1 1.5-2 2.5-5.4 4.1-8.5 5.3-3.9 1.5-8 2.5-12.1 3.4-5.9 1.4-11.8 3.1-17.6 4.8-15.5 4.5-31 9.3-46.6 13.7-7.8 2.2-15.7 4.5-23.6 6.4-7.2 1.7-14.7 3-21.8 5.2-.3.1-.7.2-1 .3-.1.1-.3.1-.4.2h-.1c-13.3.5-21.8-29.6-21.8-29.6.2-2.9-.2-1.8-1.1-4.4-1.1-3.3-1.5-7-1.8-10.5-.3-2.8-.3-5.3 1.5-8 1.5-2.2 4.1-3.8 6.6-5.1 7.2-3.7 15.8-5.8 23.5-8.1 9-2.7 18-5.2 27.2-7h.1c.9-.2 1.7-.4 2.6-.5h.2c10.7-3.4 22-5.3 32.8-8 8.6-2.1 16.8-4.9 25.3-7.4 9.5-2.9 24.2-6 29.4 1.6.1-.1.3-.1.4.1.2.6.4 1.1.6 1.7.1.6.3 1.3.5 2.1z"/><path class="st288" d="M173.5 17.1c0 .1 0 .2-.1.2.4 3.9 0 8 .8 11.9 1.2 5.9 1.5 7.9 2.6 13.8.8 4.6 1.1 9.2 1.8 13.8.3 1.7-1.4-8.1-1.8-6.2.1 1.5-.2 2.9-.8 4.4 0 0 0 .1-.1.1 0 .1-.1.1-.1.2-.1.2-.3.5-.5.7-.1.1-.1.1-.2.1-.3.5-.6.9-1 1.4-2 2.2-5.3 3.4-8.3 4.2-3.7 1.1-7.6 1.7-11.5 2.2-5.6.8-11.2 1.9-16.7 3.1-14.8 3-29.5 6.3-44.4 9.1-7.5 1.4-15 3-22.5 4.1-6.9 1-13.9 1.7-20.7 3.2-.3.1-.6.2-.9.2-.1 0-.3.1-.4.1h-.1c-12.4-.6-16.9-28.5-16.9-28.5.4-2.7.3-1.4-.4-4-.8-3.2-.8-6.6-.9-9.9-.1-2.6.1-4.9 2-7.3 1.5-1.9 4.1-3.3 6.5-4.3 7-2.9 15.1-4.1 22.5-5.7 8.5-1.8 17.1-3.4 25.8-4.4h.1c.8-.1 1.7-.2 2.5-.3h.2c10.2-2.3 20.8-3.2 31.1-4.8 8.1-1.3 16-3.2 24.1-4.9 9.1-1.9 23-3.7 27.2 3.7.1-.1.3 0 .4.1.2.5.3 1.1.4 1.6 0 .7.2 1.4.3 2.1z"/><path d="M41.3 68.6l-3.6-22.1 4.9-.8 3.2 19.7 7.4-1.2.4 2.5-12.3 1.9zm27.2-12l-9.8 1.6.4 2.4c.1.7.4 1.2 1 1.6.6.4 1.2.6 1.8.5l2.5-.4c1.6-.3 2.3-1.2 2-2.9l2.4-.4c.2 3.3-1.2 5.3-4.1 5.7l-4.9.8c-1.3.2-2.6-.1-3.7-.9s-1.8-1.9-2-3.2L52.9 54c-.2-1.3.1-2.6.9-3.7s1.9-1.8 3.2-2l4.9-.8c1.3-.2 2.6.1 3.7.9s1.8 1.9 2 3.2l.9 5zm-10.3-.8l4.9-.8-.4-2.5c-.1-.7-.4-1.2-1-1.6-.6-.4-1.2-.5-1.9-.4-.7.1-1.2.4-1.6 1-.4.6-.5 1.2-.4 1.8l.4 2.5zm11.7-14.6l4.9-.8.8 4.9 2.5-.4.4 2.5-2.5.4 1.6 9.8c.1.8.5 1.4 1.1 1.7.6.3 1.1.5 1.6.4h.2l.4 2.5-2.5.4c-1.3.2-2.6-.1-3.7-.9s-1.8-1.9-2-3.2l-1.6-9.8-2.5.3-.4-2.5 2.5-.4-.8-4.9zm8.7-1.4l4.9-.8.8 4.9c.5 2.9-.9 4.8-4.1 5.7l-.4-2.4c1.6-.3 2.3-1.3 2.1-2.9l-2.5.4-.8-4.9zm20.3 6.8l-2.5.4c-.5-1.6-1.4-2.3-2.7-2.1-.9.1-1.5.4-1.9.8-.4.4-.5 1-.4 1.6.1.7 1.5 1.5 4.1 2.4 2.1.7 3.4 1.4 3.8 2 .4.6.7 1.4.8 2.1.2 1.4-.1 2.6-.9 3.7s-1.9 1.8-3.2 2l-2.4.4c-3.3.5-5.2-.8-5.7-4.1l2.5-.4c.5 1.6 1.4 2.3 2.7 2.1.9-.1 1.5-.4 1.9-.8.4-.4.5-1 .4-1.7-.1-.7-1.5-1.5-4.1-2.4-2.1-.7-3.4-1.4-3.8-2-.4-.6-.7-1.4-.8-2.1-.2-1.4.1-2.6.9-3.7s1.9-1.8 3.2-2l2.4-.4c3-.4 4.9.9 5.7 4.2zm21.1 4.1c.3 3.3-1 5.2-4.1 5.7l-4.9.8c-1.3.2-2.6-.1-3.7-.9s-1.8-1.9-2-3.2l-2-12.3c-.2-1.3.1-2.6.9-3.7s1.9-1.8 3.3-2l4.9-.8c3.1-.5 5 .9 5.7 4.1l-2.4.4c-.5-1.6-1.4-2.3-2.9-2.1l-2.5.4c-.7.1-1.2.4-1.6 1-.4.6-.5 1.2-.4 1.9l2 12.3c.1.7.4 1.2 1 1.6.6.4 1.2.6 1.8.5l2.5-.4c1.5-.2 2.1-1.2 2-2.9l2.4-.4zm2.2 4.7l-3.6-22.1 4.9-.8 1.2 7.4c0-.8.1-1.5.5-2 .3-.5.9-.8 1.6-.9l2.5-.4c1.3-.2 2.6.1 3.7.9s1.8 1.9 2 3.2l2 12.3-4.9.8-2-12.3c-.1-.7-.4-1.2-1-1.6-.6-.4-1.2-.5-1.9-.4-.7.1-1.2.4-1.6 1-.4.6-.6 1.2-.4 1.8l2 12.3-5 .8zm24.4-14.1l-.4-2.5c-.1-.7-.4-1.2-1-1.6-.6-.4-1.2-.5-1.9-.4l-2.5.4c-1.5.2-2.1 1.2-2 2.9l-2.5.4c-.1-3.3 1.2-5.2 4.1-5.7l4.9-.8c1.3-.2 2.6.1 3.7.9s1.8 1.9 2 3.2l2 12.3-4.9.8-.4-2.5c.1 1.7-.6 2.6-2.1 2.9l-2.5.4c-1.3.2-2.6-.1-3.7-.9s-1.8-1.9-2-3.2c-.2-1.3.1-2.6.9-3.7s1.9-1.8 3.2-2l5.1-.9zm.4 2.4l-2.5.4c-.7.1-1.2.4-1.6 1-.4.6-.6 1.2-.4 1.8s.4 1.2 1 1.6c.6.4 1.2.6 1.8.5.7-.1 1.2-.5 1.6-1 .4-.6.5-1.2.4-1.9l-.3-2.4zm6.3-16.2l4.9-.8.8 4.9 2.5-.4.4 2.5-2.5.4 1.6 9.8c.1.8.5 1.4 1.1 1.7.6.3 1.1.5 1.6.4h.2l.4 2.5-2.5.4c-1.3.2-2.6-.1-3.7-.9s-1.8-1.9-2-3.2l-1.6-9.8-2.5.4-.4-2.5 2.5-.4-.8-5z" fill="#fff"/></svg>