<svg version="1.1" id="Layer_1" xmlns="http://www.w3.org/2000/svg" x="0" y="0" viewBox="0 0 223.6 149.1" xml:space="preserve"><style>.st1362{fill:#fad0a8}.st1365{fill:#fbd0a8}.st1369{fill:#f5c598}.st1370{fill:#ad7a4a}.st1375{fill:#f5c798}.st1378{fill:#fac99b}.st1383{fill:#d19966}.st1389{fill:#e8ac79}.st1391{fill:#f4bd90}.st1392{fill:#f8cb9d}.st1396{fill:#dba26d}.st1405{fill:#f6c696}.st1406{fill:#f1c08d}.st1411{fill:#efbf90}.st1416{fill:#e1a46a}.st1418{fill:#f6c195}.st1426{fill:#fbd4b0}.st1428{fill:#f4bd8e}.st1431{fill:#fbdbbb}.st1434{fill:#faca9b}.st1435{fill:#f8c99b}.st1439{fill:#d48e51}.st1441{fill:#f2bf8c}.st1442{fill:#a6642f}.st1443{fill:#f3c18f}.st1446{fill:#f5c297}.st1458{fill:#c88d55}.st1459{fill:#f4c499}.st1461{fill:#f9cfa9}.st1463{fill:#f9cea9}.st1465{fill:#f5bb8a}.st1466{fill:#e9a560}.st1467{fill:#fbd3ae}.st1469{fill:#e8ae76}.st1470{fill:#f7c293}.st1471{fill:#f5b681}.st1479{fill:#ebb47f}.st1481{fill:#efb68c}.st1482{fill:#efb889}.st1486{fill:#db9e65}.st1488{fill:#fbd2ab}.st1495{fill:#fad8b7}.st1496{fill:#fbd6b4}.st1497{fill:#eeb17a}.st1510{fill:#f9ca9e}.st1511{fill:#eca86c}.st1516{fill:#facea5}.st1517{fill:#f8c99f}.st1521{fill:#f9c79f}.st1522{fill:#fbdcbf}.st1524{fill:#fbd9ba}.st1527{fill:#ebb27b}.st1534{fill:#f9cca3}.st1549{fill:#db975e}.st1563{fill:#935326}.st1564{fill:#753914}</style><path class="st1362" d="M105.4 100.3c.4-.5.9-.7 1.5-.9.5.2 1.1-.3 1.5.2.2.8.9 1.6.3 2.6.5 0 .9.2 1 .8.8 1.4 1.7 2.6 3 3.5-.5.5-1.1.9-1.4 1.6-.2.1-.4.1-.7.1-.5.1-1 .1-1.4-.4-.9-1-.8 0-.9.4-.1.3.1.8-.3.9-.5.1-.8-.2-1-.7-.2-.6 0-1.2-.2-1.7-.1-.4-.3-.8-.5-1.1-.1-.4-.2-.8.2-1.2.3-.1.5 0 .6.3.1 1.2.8 1.3 1.7 1.1 0-.7-.3-1.2-1-1.3-.2 0-.5-.2-.4-.5.1-.8-.5-.7-.9-.7.3.3 1.5.2.4 1-.4 0-.5.3-.7.5-.2.3-.5.6-.9.5-.5-.1-.5-.5-.6-.9-.2-.9.1-1.7.4-2.4.1-.5.2-1.1.3-1.7z"/><path d="M90.5 117.4c.5-.4 1-.8 1.4-1.2 1.4-.7 2.4.2 3.5.8 1.4.8 2.9 1.3 4.2 2.2.4.3.9.4 1.3.4.3 0 .6-.1.8.2.3.7.9.6 1.5.5.4-.1.9 0 1.2.4.2.2-.3.6.5.8 1.6.3 3.3.4 4.7 1.2.3.2.6.1.9.1.7.1 1.4.4.9 1.4-.3.4-.7.7-1.2.6-.1 0-.2 0-.3-.1-.4-1.2-1.4-1-2.4-.9-.4 0-.7-.2-.9-.5-.2-.3-.5-.4-.8-.5-1.6-.2-3.1-.6-4.6-1.2-1-.3-1.8-.9-2.9-1.1-.7-.2-1.3-.3-2-.3-1-.3-1.9-.6-2.3-1.8-.5-1.2-1.2-1.5-2.4-1.1-.7.3-.7.3-1.1.1z" fill="#f8c9a2"/><path d="M102.3 149.3h-5.5c0-1 .6-1.5 1.4-1.9.2 0 .5-.1.7-.1.8-.3 1.6.6 2.4.2.2-.1.5 0 .6-.2.6-1.4 2-1.3 3.1-1.7.1 0 .2-.1.4-.1h.7c1.1.1 1.2.2 1.2 1.4v.7c-.2.5-.2.9-.2 1.4-.3.6-.7.3-1.1.1-.8-.5-3.1-.3-3.7.2z" fill="#facea3"/><path class="st1365" d="M90.5 117.4c.4.3.7-.1.9-.2.9-.6 1.8.1 2.7.1 0 0 .2.2.1.3-.2 1.6.9 2 2 2.5-.9.6-1.9 0-2.9 0-.5 0-.4-.6-.3-1.1.2-1-.1-1.4-1.1-1.2-.6.1-1.2.2-1.5.9.5.4 1.2.3 1.8.5.7.3.6.6.4 1.1-.1.2-.3.4-.4.6-1.1 1.3-1.1 1.7 0 3l.3.3c.3.5.8.9.7 1.5-.1.2-.2.3-.3.4-.2 0-.3 0-.4-.2-.2-.4-.4-.7-.8-1-.4-.4-.8-.7-1-1.3-.5-.8-.6-1.9-1.9-2-.3 0-.4-.4-.3-.8.2-.4.4-.9.3-1.4.6-.6.8-1.6 1.7-2z"/><path d="M133.9 138c.3 3.6-.1 7.2-.2 10.8 0 .4-.2.6-.6.6h-1.8c-.3-.2-.5-.4-.4-.8.2-.6.3-1.2.2-1.9 0-.2 0-.5.2-.6 1.1-.8 1.2-2.1 1.3-3.3.2-1.6.3-3.2 1-4.6.1-.3.2-.3.3-.2z" fill="#a8794b"/><path d="M88.6 149.3h-6.5c-.4-1.2 1.3-3.1 2.6-2.8 1.1.3 1.9 0 2.8-.3.4-.2.8-.5 1.4-.3.5.5.9 1.1.4 1.8-.3.2-.8.1-1.1.2-.3.1 0 .2.1.3.2.3.4.6.3 1.1z" fill="#f8caa0"/><path d="M87.4 131.7c.4-.1.7-.3.9-.7.1 0 .1.1.2.1.1.1.2.3.4.4 3.2.3 6.3.1 9.5.2 1.2 0 2.4.4 3.6.5 1.2.2 2.5.4 3.7.6.4.2.9.1 1.3.4.1.1.1.2 0 .4-.2.1-.3.2-.5.2-.6.1-1.2.1-1.8-.1-.6-.2-1.2-.2-1.8-.2-1.9.1-3.7 0-5.6-.3-1.9-.2-3.9-.5-5.9-.2-1.2-.3-2.5-.2-3.7-.5-.3 0-.9-.1-.3-.8z" fill="#f0ba83"/><path class="st1369" d="M88.8 145.9c-1 .5-2.1.9-3.2 1.2-.2.1-.3.1-.4 0-1.6-.7-3 .3-3.1 2.1-.5.1-.9-.1-.6-.7.2-.4.4-1 .8-1.3.8-.9 1.7-1.7 3.1-1.4.3.1.6-.2.9-.3.1-.1.2-.1.3-.1 1.1 0 2.2-.5 3.3-.6.4.3.7.5 1.2.6 1.2.2 1.3.4.7 1.5-.1.2-.2.3-.1.5v.3c-.3.3-.8.3-1.2.4-.7.1-1.2 0-1-.9 0-.4-.3-.9-.7-1.3z"/><path class="st1370" d="M133.7 138c-.1 1.9-.9 3.7-.7 5.7 0 .5-.5 1.4-.6 2.2 0 .3-.3.1-.5 0-.4-.1-.6.3-.6.4.4 1-.4 2-.1 3h-.7c-.1-2.2-.8-4.5.2-6.7.5-.2.5.3.5.5.1.5.1 1 .1 1.7.6-1.9.5-3.7.9-5.5.1-.3 0-.5-.1-.8-.1-.3 0-.5.2-.7l.4-.4c.3-.2.6-.5.9-.3.3.2.3.6.1.9z"/><path d="M111.4 100.3c3 2.8 6.1 5.4 8.6 8.7-.1.2 0 .5-.3.6-.5.1-.9-.2-1.3-.4-1.3-.8-1.9-2.2-3-3.2-.3-.2 0-.7-.5-.8-.1 0-.2 0-.3-.1-.3-.1-.6-.3-.6-.7-.3-.9-1.1-1.4-1.7-2-.2-.4-.5-.7-.7-1-.2-.3-.6-.6-.2-1.1z" fill="#f0c09a"/><path d="M105.1 145.7h-.2c-.7.1-1.4.4-2.1.5-.8.2-1.6-.1-2.4-.2-.3 0-.5 0-.8-.1-2.2-.5-4.4-.8-6.6-.3-.9.2-1.7-.4-2.6-.1-.2.1-.1-.3-.2-.5-.2-.2-.4-.2-.6-.1-1 .5-2.1.3-3.1.8-.8.1-1.7.6-2.4-.3 0-.1 0-.2.1-.2.1-.1.2-.2.3-.2 1.2-.5 2.6-.3 3.8-.7.2-.1.4-.1.6-.1 2.1 0 4.2-.1 6.3 0 1.7 0 3.4.6 5.1.7.2 0 .4 0 .6.1.5.2 1 .1 1.5.1.8-.1 1.6.1 2.5-.1.2-.1.4-.1.6-.1.4 0 .9-.2 1.3.1.1.2.1.4 0 .5-.7.2-1.2-.1-1.7.2z" fill="#efbb88"/><path d="M124.3 149.3h-1.7c-.7-1.2-.5-1.5.7-1.7.6-.1.7-.6 1-1 0-.1.1-.2.1-.3.2-.8.4-1.5.9-2.1.1-.1.1-.2.2-.3.6-.4.8.1 1 .6v.3c-.1.8.6 1 1.1 1.3.1.1.1.2.1.3-.4 1-1.3 1.7-1.7 2.8h-.1c-.6-1-1.1-.5-1.6.1z" fill="#c08654"/><path d="M95.5 108.7c1.5-2.1 3.5-3.6 5.5-5.2.7-.6 1.4-1.2 2.2-1.6.2.8-.5 1.3-.8 1.8-.2.4-.6.6-.9 1-.6.7-1.4 1-2.1 1.6-1 .8-1.5 2.1-2.5 2.9-.3.3-.6.7-1.1.7-.1 0-.2-.1-.3-.1-.3-.4 0-.8 0-1.1z" fill="#e7bf9a"/><path class="st1375" d="M81.4 137.3c.4-1.9 1.4-3.4 2.8-4.6.2 0 .3.2.4.3v.3c-.7 1-.9 2.3-1.4 3.4-.4.7.1 1.3.5 1.8.2.3.4.5.5.8.3.5.5 1 .9 1.4.5.4 1 .7 1.6 1.1.1 0 .2.1.3.2.3.2.7.4.7.8-.1.2-.3.3-.5.3s-.3-.1-.4-.2c-.4-.3-.9-.4-1.2-.7-.5-.5-1.1-.8-1.6-1.3-.2-.2-.3-.5-.5-.6-1.3-.7-1.9-1.7-2.1-3z"/><path d="M131.1 142.6c-.5 1.1-.6 2.4-.4 3.6.2 1.1.1 2.1 0 3.1h-.2c-.5-.6-.2-1.3-.3-2-.1-.4.1-1-.6-1.1.3.8.5 1.6 0 2.4-.8-.2-1-.9-1.1-1.5-.1-.5-.2-.9-.7-.9-.4-.7 0-1.3.6-1.5 1.2-.3 1.5-1.2 1.7-2.1.1-.5.5-.9.5-1.5.1-.6.2-1.1.5-1.7.1-.1.1-.2.2-.3.2-.2.4-.3.7-.1.1.2.2.5.1.7-.3 1-.5 2-1 2.9z" fill="#c28952"/><path d="M111.4 100.3c0 .9 1.2 1.2 1.2 2.2-.7.3-1.6.4-2.1 1-.2 0-.3 0-.5-.1-.3-.2-.5-.5-.4-.8.3-1.2-.7-1.9-1.3-2.7-.4-.5-1.1 0-1.4-.5 1.6-.6 3.2-.5 4.5.9z" fill="#f4be94"/><path class="st1378" d="M106.6 104.6c-.4.3-.2.8-.2 1.2h-.1c-.5 0-.4.7-.8.8-.4.1-.8.2-1 .5-.2.1-.3 0-.5 0-.4-.4-.6-.9-1-1.3-.3-.3-.5-.8-.1-1 1-.6.9-1.7 1.3-2.5.2-.4.1-.8.3-1.2.2-.4.6-.5.9-.7.9 1-.2 1.8-.4 2.6-.2.6-.1 1.2-.1 1.8 0 .3 0 .5.3.6.3.1.4 0 .5-.3.2-.4.4-.7 1-.6-.1 0 0 0-.1.1z"/><path d="M91 123.6c.3.4.6.8 1 1.2-.5.1-1 .2-.4.9.5.7 1 1.4 1.6 2.1.2.2.4.4.5.7.1.3.1.7-.2.8-.3.2-.6-.1-.8-.3-.4-.3-.8-.5-1-.9-1.1-1.8-2.3-3.5-3.2-5.4-.1-.2 0-.6-.2-.8v-.7c.1 0 .2-.1.2 0 .5 1.1 1.3 1.9 2.5 2.4z" fill="#f8c28f"/><path d="M127.7 146.2c.6-.5 1-.4.9.4 0 .8.3 1.4.7 2 .3.4 0 .5-.2.7H126c-.1 0-.1-.1-.1-.2s.1-.1.1-.1c0-1.3 1.2-1.8 1.7-2.8z" fill="#bb834c"/><path d="M102.3 149.3c0-.6 0-.9.8-.8.7.1 1.6.4 2.3-.5.2-.2.4.2.5.4.2.4.4.8 1 .4.1-.7.4-1 1.2-1.1.9 0 1.8-.5 2.7.1.2.1.4.2.4.5-.7.4-1.6.4-2.2 1h-6.7z" fill="#fbd2ac"/><path d="M133.2 125c.1.2.2.5.3.7.1.2.1.4.1.6-.2.2-.3.5-.4.7-.1.1-.3.1-.4.2-.8.7-1.3.4-1.8-.3-.6-.9-.8-1.9-1.2-2.9-.3-.7.3-.9.9-.9.9 0 1.1.7 1.4 1.2.2.6.6.7 1.1.7z" fill="#f2b980"/><path class="st1383" d="M132.5 138c-.2.1-.2.3-.2.5.1.1.1.2 0 .3-.2.1-.4 0-.5-.1-.2-.2-.2-.5-.2-.7 0-.4.2-.8.3-1.2.2-.5.4-1 .5-1.5.2-1.3.4-2.7.1-4-.1-.3 0-.6.4-.6.6 0 1.4-.1 1.5.9 0 .6.1 1.3-.2 1.9-.9 1.4-.8 3.1-1.7 4.5z"/><path d="M111.1 148.3c-.9-.5-1.8-.8-2.9-.2-.4.2-1.2-.1-1.4.7 0-.4-.2-.9.2-1.2.1-.5.3-.9.3-1.4 0-.4.1-.7.5-.8.4-.1.7.1.9.5.4 1 1.2 1.2 2.2 1.4 1.1.2 2.1.6 2.8 1.6.1.2 0 .3-.1.5h-.7c-.6-.6-1.2-.7-1.8-1.1z" fill="#fbcea4"/><path d="M84.5 133l-.3-.3c.9-.7 2-.9 3.1-.9-.2.3-.1.4.3.5 1.2.2 2.5.1 3.7.5.2.3 0 .6-.2.9-.2.2-.5.3-.8.3-1.8-.6-3.8-.8-5.8-1z" fill="#efbf94"/><path d="M88.8 145.9c.6.2.8.5.8 1.1-.1.7.1 1.4 1.1.9.3-.2.7.1 1-.3 1.2-.7 1.2-.7 2.8.6.1.1.1.2.2.3-.5.6-1.2.7-1.8.7-.8-.1-1.7.2-2.5-.3-.6-.4-.9.2-1.3.5h-.5c-.2-.3-.3-.6-.5-.9.2-.4.7-.4 1-.7.6-.9-.3-1.3-.3-1.9z" fill="#f9ca9d"/><path d="M99.6 119.3c-1.2-.2-2.1-1-3.2-1.5-1.5-.6-2.7-1.8-4.5-1.7.1-.2.2-.3.3-.5.3-.2.7-.2 1.1-.3.4 0 .8 0 1.2.1.4.1.7.3 1 .6.3 1.2 1.3 1.2 2.3 1.3 1 .1 1.5.8 2.2 1.3.2.5.3.8-.4.7z" fill="#f1b990"/><path d="M124.6 146.4c.1.8-.6 1.1-.9 1.6-.1.2-.2.2-.4.1-.7-.5-.8-.1-.7.5 0 .2.1.5.1.7h-.5c-.6-.8-.7-1.6-.3-2.4.4-.8.2-1.8.8-2.6.8-.6 1-.1 1 .5 0 .7.2 1.3.9 1.6z" fill="#c78956"/><path class="st1389" d="M116.9 149.3h-1.2c-.5-.3-.6-.7-.4-1.1.2-.5.6-.6 1.1-.5.8.1 1.6 0 2.5-.1.6-.1.9-.4 1.1-.9.7-.4.7-1.6 1.7-1.7.5.7 0 1.3-.3 1.9-.8 1.4-1.9 2.4-3.7 2.1-.4-.1-.6.1-.8.3z"/><path d="M88.1 121.9c.3.2.2.5.2.7 1 1.5 1.4 3.1.9 4.9-.2.7-.1 1.5.5 2.1.2.3.5.5.3.9-.6.3-1.2.1-1.7-.3.3-2.7-.3-5.5-.2-8.3z" fill="#e8b380"/><path class="st1391" d="M115 149.3h-.7c-.4-.2-.6-.5-.8-.8-.1-.1-.1-.2-.2-.3-.2-.5-1.1-.6-.8-1.3.3-.6 1-.3 1.5-.4 1.8-.3 3.7.4 5.4-.2.5.6-.1.7-.4 1-.1.1-.2.1-.3.2-.6.3-1.3.3-1.9.2-1.6-.4-1.8-.2-1.8 1.6z"/><path class="st1392" d="M98.2 147.6c-.7.3-1.1 1-1.4 1.7h-1c-.4-.3-.9-.5-1.2-.9-.1-.4.2-.6.5-.7.7-.4 1.6-.5 1.7-1.6 0-.3.4-.3.7-.2.5.2 1 .5 1.1 1.2-.1.1-.3.3-.4.5z"/><path d="M84 140.9c.6.3 1.3.6 1.7 1.2-.1.1-.4.1-.2.4.2.2.3.5.2.8-.6.4-1.1-.6-1.8-.2h-.3c-.6-.8-1-1.7-1.4-2.5-.2-.3-.3-.6-.6-.7-.2-.5-.4-.9-.3-1.4.2-.1.4 0 .5.2.5.9 1.4 1.5 2.2 2.2z" fill="#ecb27a"/><path d="M116.9 149.3c0-.5.3-.9.8-.6 1.3.8 2-.5 2.8-1 .8-.5 1.3-1.6 1.2-2.7v-.2c.2-.3.3-.9.8-.4-.2 1.4-.8 2.6-1.2 3.9-.1.4-.5.7-.9.9-1.1.1-2.3.1-3.5.1z" fill="#e3a56f"/><path d="M119.8 109.4c.1-.2.1-.3.2-.5 1.3 1.2 2.3 2.7 3.4 4 .7.8 1.3 1.7 2 2.5.3.3.7.6.5 1.1-.1.1-.2.1-.3.1-.8-.2-1.1-.9-1.6-1.5-1.2-1.5-2.2-3.1-3.7-4.5-.4-.2-.7-.6-.5-1.2z" fill="#e6b98f"/><path class="st1396" d="M134.2 131.6c-.2-.4-.5-.6-.9-.6-.2 0-.6-.3-.7.1-.1.3.1.4.4.5.2.1.3.3.2.3-1 1 0 2.4-.7 3.5-.6-1.1-.3-2.4-.7-3.5-.2-.6-.1-1 .3-1.3.4-.3 1.1-.2 1-1.1 0-.3.4-.9 1-1 .1.1.1.3.1.4.1.5-.2 1 .1 1.5.1.3.2.8-.1 1.2z"/><path d="M94.6 148.3c.5.1 1 .4 1.2.9h-6.7c.1-.5.3-1.3 1-.9.8.4 1.7.2 2.5.5.7.4 1.3-.3 2-.5z" fill="#facfa6"/><path d="M125.5 116.6h.3c.3-.1.5 0 .6.2.9 1.2 2.1 2.2 2.9 3.4v.2c.1.4-.2.4-.4.4-.4-.1-.8-.1-1.3-.2-.6-.2-.9-.5-1-1.1-.2-1-1.2-1.5-1.5-2.5.1-.2.3-.3.4-.4z" fill="#eec092"/><path d="M91 123.6c-1.8.2-2.1-1.4-2.9-2.4.1-.6.3-1.2.7-1.7.3.3.3.8.2 1.1-.6.9-.2 1 .6.9.5 0 .7.1.8.6 0 .5.3 1 .6 1.5z" fill="#f9cba0"/><path d="M104.4 101c.3.4.3.8 0 1.2-.5.9-1.1 1.8-1.8 2.4-.3.3-.5.7-1 .7-.3-.2-.4-.5-.2-.8.6-1 1.5-1.6 1.9-2.7.2-.3.6-.5 1.1-.8z" fill="#efbd92"/><path d="M115 149.3c-.6-.6-.4-1.2 0-1.8.5-.5 1.1-.5 1.7-.1.8.3 1.5.4 2.2-.2.5 0 .9-.5 1.4-.5-.1 1.5-1.5 1.1-2.3 1.4-.4.1-.9 0-1.3 0-1.2-.2-1.4 0-1 1.2h-.7z" fill="#f0b585"/><path d="M129.4 120.3c-1.3-1.1-2.4-2.4-3.6-3.6-.5-1.1-1.4-1.8-2-2.8-.2-.3-.4-.5-.5-.8 1.5 1.2 2.6 2.9 3.8 4.3.9.9 1.9 1.7 2.3 2.9z" fill="#c2e0e0"/><path d="M120.5 149.3c.8-1.6 1.5-3.3 1.9-5-.1-.2 0-.3.2-.4.1 0 .2 0 .3.1.1.1.1.2 0 .3-.4 1.6-1.2 3.3-.7 5h-1.7z" fill="#d49562"/><path d="M93.1 115.7c-.3 0-.6.2-.9 0 .1-1.9.7-3.6 1.8-5.1.2-.1.3 0 .4.2.1.8-.5 1.4-.8 2.1 0 .1-.1.2-.1.3-.2.4-.1.8 0 1.1.3.6.1 1-.4 1.4z" fill="#dcaf7c"/><path class="st1405" d="M127.7 120.5c.6-.3 1.1.3 1.7 0l.7.7c-.1.5-.6.9-.4 1.5-.1.2-.3.3-.5.3-.3-.3-.6-.7-1.1-.8-.1-.1-.2-.2-.4-.3-.9-.3-.8-.9-.3-1.5.1 0 .2 0 .3.1z"/><path class="st1406" d="M133.2 125c-.5.8-.8.6-1.1-.1-.3-.6-.6-1.2-1.2-1.6-.6-.4-.4-.8.1-1.2h.2c.7.9 1.5 1.9 2 2.9z"/><path d="M129.1 149.3c.1-.2.2-.5.2-.7 0-.8.3-1.7-.3-2.4 1-.5 1.4-.2 1.3 1-.1.7 0 1.4 0 2.2-.4-.1-.8-.1-1.2-.1z" fill="#c68e56"/><path d="M81.6 139.9c.9.5 1.2 1.4 1.7 2.2.2.3.1.7.4.9.4.3.6.7.9 1.1.4.5.2.9-.4 1H84c-.8-1.7-1.6-3.4-2.4-5.2z" fill="#d7a170"/><path d="M111.1 148.3c.8-.1 1.4.1 1.7 1H109c.4-.9 1.2-1.1 2.1-1z" fill="#fbd8b4"/><path d="M132.5 138c.4-1.5.3-3.2 1.5-4.6 0 .4 0 .8-.1 1.2-.1.6-.1 1.3 0 1.9v1.5h-.2c0-.3.1-.7-.1-.7-.6-.2-.7.6-1.1.7z" fill="#b58559"/><path class="st1411" d="M84 145.4c.8.6 1.7-.2 2.4.3-.1.3-.4.7-.6.6-1.5-.6-2.4.4-3.5 1 .3-.8 1-1.3 1.7-1.9z"/><path d="M84 140.9c-.9-.2-1.5-.8-2-1.5-.2-.3-.3-.7-.7-.9-.4-.4 0-.8 0-1.2.2-.1.5-.1.5.3-.1 1 .5 1.7 1.3 2.2.5.2.7.7.9 1.1z" fill="#edbb88"/><path d="M126 149v.2h-1.7v-.1c.2-.4.2-1.1.8-1.2.8 0 .5.9.9 1.1z" fill="#c88d5b"/><path d="M94.3 110.9l-.3-.3c.4-.7.8-1.4 1.4-1.9.5.3 0 .7.1 1 .1.7-.4 1-.9 1.3-.1 0-.2 0-.3-.1z" fill="#e1b893"/><path class="st1406" d="M129.6 122.6c-.9-.9.2-1 .5-1.5.4.2.7.6.9 1-.5.2-.7.9-1.4.5z"/><path d="M134.2 128.9v-.5c-.3-.3-.7 0-1-.3-.1-.4 0-.8.2-1.2 0-.2 0-.3.1-.5v-.7c.7.9.9 2 .9 3.1-.1.2-.2.2-.2.1z" fill="#e5b47d"/><path class="st1416" d="M88.4 130.3c.6.1 1.1.2 1.7.2.5-.3.8-.1 1 .5-.1.1-.2.2-.3.2-.8.1-1.6.3-2.3-.2h-.1c-.1-.2-.1-.4 0-.7z"/><path class="st1383" d="M133.9 136.5c-.3-.6-.3-1.3 0-1.9v1.9z"/><path d="M134.2 128.9h.2v1.4c-.6-.4-.2-.9-.2-1.4z" fill="#ce9760"/><path class="st1418" d="M113.5 148.3c.2.3.5.6.7 1h-.7v-.5c-.1-.2-.1-.3 0-.5z"/><path d="M110.4 108h.7c.6.1 1.2.2.3 1 1.9-.7 3.4 0 4.6 1.3.4.7 1.2 1.2.9 2.2 0 .2-.1.2.2.2.9-.1 1 .6 1.2 1.2.3 1 .8 1.6 1.8 2.1 1.1.6 1.1 1.1.3 1.9-.1.1-.2.2-.3.4-1.2 1.6-1.7 1.7-3.2.5-.1 0-.2-.1-.3-.1-.7-.4-.8-1.4-1.7-1.6-.1 0-.2-.1-.3-.2-.7-.7-.9-1.5-.5-2.4.4-.7.1-.9-.6-.8-.6.1-1.2 0-1.8-.2-.3-.1-.7-.3-.7-.7-.1-.7-.5-1-1.1-1.1-.5-.1-.7-.4-.5-.9.3-.6.4-1.1.2-1.7-.2-.6.6-.7.8-1.1z" fill="#fcd8b6"/><path d="M107.1 108.7c.3.1.4.5.9.3-.2-.8-.1-1.7.7-2.1.5-.2.4.5.6.8.2.5 0 1-.2 1.5-.7 1.7.8 3.6 2.4 4.1.9.3 1.6.8 1.9 1.7.2.7.6 1.4 1.3 1.8.4.2.8.3.9.8.1.5.5.8 1 .9.2.3.1.5-.2.7-.5.1-.9-.1-1.3-.4-.5-.9-1.4-1.4-2.2-2-1-.8-1.8-2-3.2-2.3-.7-.2-.7-1.3-1.4-1.7-.2-.6-.4-1.1-1.1-1.5-.8-.5-.5-1.7-.1-2.6z" fill="#facaa2"/><path d="M110.2 103.2l.2.2c.3 0 .6 0 .8.2 0 1.3 1.1 1.4 2 1.7.1 0 .2.1.3.2 3.3 2.8 6.2 6 8 10v.3c-.1.1-.1.2-.2.2-1 .2-1.2-.7-1.7-1.2-1.3-1.3-1.9-3.2-3.3-4.4-.4-.3-.5-.9-.8-1.3-.2-.3-.3-.6-.6-.9-.1-.1-.2-.1-.2-.2-.4-.2-.7-.4-.9-.8-.2-.4-.4-.7-.9-.6-.1 0-.2-.1-.3-.1-1.1.2-1.2-.9-1.9-1.4-.4-.3-.3-1.2-1.2-.8-.1.1-.2-.1-.1-.2.8-.3-.4-.6 0-.9.3-.2.5-.2.8 0z" fill="#f9cba1"/><path d="M114.7 116.9c-1.1-.2-1.3-1.1-1.7-1.9-.4-.7-.7-1.5-1.7-1.5-1.3 0-1.7-1-2.3-1.8-1-1.3-.2-2.7.2-4 .4.3.7.4 1.2.2-1 .8.1 2.2-.9 3.1-.3.2 0 .4.4.4.8 0 1.2.4 1.2 1.2 0 .5 1.6 1 2.4.7.3-.1.5-.5.8-.1.2.3.4.7.2 1-.8 1.1-.4 1.9.2 2.7z" fill="#fbd1ae"/><path d="M112.6 106.6h.2c.9.1.5.8.5 1.2.5.1 1.1 0 1.6.2 0 .3 0 .7.3.9.3.4.8.8.6 1.5-.3 0-.4-.1-.6-.3-1-.8-1.9-1.6-3.3-.9-.4.2-.9-.1-1.2-.5.2-.4.6.1.9-.2 0-.4-.5-.2-.5-.5-.1-1 .7-1.2 1.5-1.4z" fill="#fbd3af"/><path d="M106.6 104.6v-.2c.4-.2.5-.4 0-.6-.4-.1-.8 0-.9-.6h1.5c.2 0 .6.1.5.4-.3 1.5 1.1.8 1.6 1.2 0 .3-.5.3-.6.6.1.4.6-.3.6.2 0 .2-.2.5-.4.6-.6.4-1.2-.1-1.8.2-.1-.4-.6-.8-.3-1.3 0-.2-.2-.3-.2-.5z" fill="#fbd5b2"/><path d="M110.2 103.2h-.7c-.1-1-.9-.6-1.7-.8 1.7-.7.3-1.7.5-2.6.8.7 2.1 1.1 1.5 2.6-.2.4.2.5.4.8z" fill="#f9c79a"/><path class="st1378" d="M107.1 108.7c0 .4-.1.8 0 1.1.1.6-.4 1.6 1 1.5.4 0 .4.9.4 1.4-.1.1-.2.1-.3 0-.9-.5-1.9-1-1.7-2.4.1-1.2-.2-2.3.2-3.5l.1-.1c.5.7.2 1.4.3 2z"/><path class="st1378" d="M106.3 105.8c.4.2.5.5.5 1-.1.1-.2.1-.3.1-.1-.1-.3-.2-.3-.3 0-.1-.1-.2-.1-.3 0-.2.1-.4.2-.5z"/><path class="st1426" d="M92.4 124.3c-.2-.1-.4-.3-.6-.4-1.1-1.2-1.3-2.2 0-3.2.4-.3.6-.6.7-1.1-.6.2-.8-.6-1.5-.4-.5.2-1.1 0-1.2-.4-.1-.4.4-.7.8-.9.5-.3 1-.5 1.6-.5 1.1 0 1.5.4 1.1 1.5-.1.3-.4.6-.1.9.3.4.5 0 .8 0 .7 0 1.4.5 2.2.3 1.7-.1 3.1.4 4.6 1.2.7.4 1.5.7 2.3.8.6 0 1.3-.3 1.6.6 0 .1.2.1.3.1 1.1-.5 1.7.1 2.2 1 0 .1.3 0 .5.1 1-.3 1.5.4 2.2 1h.2c1.5 0 2.5 1.3 3.9 1.7 1.1.4 2.2 1 3.4 1.2.8.1 1.6.5 2 1.4.3.8.6.5.9 0 .4-.5.7-1.1 1.4-1.1.5.4.3.9 0 1.4-.3.5-.2.8.4 1 .7.2 1.7.1 1.6 1.3 0 .1.3.2.4.4.4.5.9.5 1.5.5.4 0 1-.1.9.7-1.6.5-3 .1-4.4-.7-.2-.2-.4-.3-.7-.2-1.3.3-2.7-.1-4 .1-.4.1-.8-.2-1-.5-.3-.6.3-.6.5-.8.2-.2.4-.5.1-.6-1.2-.7-2-1.9-3.4-2.3-1 .1-1.7-.3-2.4-1.1-.4-.5-1-.8-1.6-1-1.2-.5-2.5-.9-3.5-1.7-1.6.5-2.4-1.6-4-1.3-.6.1-1.2-.4-1.7-.8-1.6-1.4-3.6-1.4-5.5-1.1-.5.1-.9.2-1.4.2-.5-.1-1 0-1.3.6-.3.6.1.9.4 1.3.1 0 .2.5-.2.8z"/><path class="st1365" d="M121.9 127.9c-.7.3-1.2.8-1.4 1.5-.2.5-.6.4-1 .4-.5 0-.3-.4-.3-.7 0-.5-1.4-1.4-2-1.4-1.2.1-2.1-.6-3.1-1-1.4-.5-2.7-1.4-4-2.2.5.2.7-.5 1.2-.5.6-.6 1.2-.5 1.8.1.6.6 1.1.9 1.6-.2.2-.6.8-.6 1.3-.5 1.3.3 2.6.8 4 .8.9.2 1.9.3 2.6.9.1.1.1.2.1.3-1 .8-2.1.2-3.1.1-.9-.1-1.7-.5-2.3.4.4.1.8-.1 1.2-.2 1.4-.3 2.6 0 3.7.7.6.4.2.9-.1 1.3-.1.2-.1.2-.2.2z"/><path d="M120 124.6c-1.4.2-2.7-.5-4-.8-.7-.2-1 0-1.2.7-.3.9-.9 1.1-1.5.3-.5-.8-1.2-.8-1.9-.6.3-.6-.3-1-.6-1-1.2.1-2.1-.7-3.2-1-.9-.2-1.9-.1-2.8-.5-.2-.1-.7.2-.9-.1-.2-.4.6-.3.5-.8l.1-.1h.2c.6.3 1.3.2 2 0 .3 0 .6 0 .9.1 1.3.7 2.8.7 4.2.8.1 0 .2.1.3.1.8.8 1.8.7 2.8.9.4 0 .9.2 1.3.2l.6.3c.4.2.9.3 1.4.5.1 0 .2.1.3.1.5.3 1.3.1 1.5.9z" fill="#f8c494"/><path class="st1428" d="M104.7 120.7h-.2c-.5-.1-1-.3-1.6-.1-.4.1-1.2.5-1.1-.6 0-.3-.4-.1-.6-.2-.5-.1-1.2.3-1.5-.5.4 0 .4-.2.2-.5 1.2-.6 2.3.3 3.4.5.3.3.7.5 1.1.7.2.1.5.3.3.7z"/><path class="st1365" d="M109.9 124.6c-.2 0-.6.2-.6 0-.2-.9-1-.7-1.5-.9.5-.4 1.2-.1 1.8-.2.7-.1-.1.8.3 1.1z"/><path d="M113.5 148.3v.5c-1.2-.8-2.5-1.4-3.9-1.5-.6 0-.6-.5-.9-.9-.2-.3-.3-1-.8-.9-.5.1-.5.7-.3 1.1.1.5-.2.7-.5.9-.1-.1-.2-.3-.2-.4.5-1.8-.6-1.6-1.7-1.5.4-.4 1-.2 1.4-.2 1.3-.8 2.7-1.3 4.3-.6.4.2.8.4.7.8-.1 1 .4 1.5 1.2 1.9.3.3.5.6.7.8z" fill="#f9c99d"/><path d="M98.2 147.6c.1-.6.1-1.1-.5-1.4-.2-.1-.4-.4-.7-.2-.3.2 0 .4.1.6.2.4-.1.4-.4.5-.7.5-1.6.5-2.1 1.1-.4-.1-1.2.4-.9-.7.1-.2-.4-.3-.7-.3-.4.1-.8.2-1.3.2.3-1 1.2-1.3 2-1.2 1.1.1 1.9-.2 2.7-.8.4-.3.8-.4 1.1-.3.7.5 1.5 0 2.1.3h.7c.1.1.1.2 0 .3-.8.2-1.1.9-1.4 1.6-.2.3-.5.3-.7.3z" fill="#f6c697"/><path class="st1392" d="M98.9 147.6c-.1-1 .2-1.8 1.4-1.7.8-.1 1.6.3 2.4 0 .7-.1 1.4-.4 2.2-.2-.5.2-1 .5-1.5.6-.6.2-1.2.1-1.1 1 0 .4-.5.4-.9.5-.9.2-1.7-.5-2.5-.2z"/><path class="st1431" d="M92.4 124.3v-1.4c0-.7.2-1.1 1-1.2.1.1.3.3.2.4-.4 1-.1 1.6.6 2.4.6.6 1.2.6 1.8.9 1.4.4 2.7.7 4.1 1 1 .2 1.8.9 2.8 1 .6 0 1.2.2 1.6.7.6.6 1.4.8 2.3.6.5-.2 1-.1 1.3.3.4.6.9.6 1.6.7.6.1 1.1.4 1.1 1.1 0 .1-.1.2-.2.3-.6-.2-1.3-.3-1.9-.3-3-.8-6-1.9-9.1-2.6-2.2-.5-4.2-1.2-6.3-2 0-.1-.1-.1-.1-.2-.1-.8-.6-1.2-.8-1.7z"/><path d="M93.4 128.4l-.5-.5c-.3-.6-.7-1.1-1-1.7-.1-.3-.2-.7.1-.9.4-.2.5.2.7.4.1.1.2.1.3.2.4.1.7.4.9.8.2.6.8 1 .8 1.7v.6c.3 1.7.2 1.8-1.6 1.8h-.3c-.2 0-.4-.1-.6-.3-.3-.3-.7-.4-.8-.9 0-.4.2-.6.6-.5.3.1.6.2.9.4.2.1.5.4.8.2.2-.2.1-.5.1-.8-.2-.2-.3-.4-.4-.5z" fill="#eca05c"/><path d="M92.6 125.8c-.2-.1-.4-.2-.7-.4 0 1 .8 1.7.9 2.5-.7-.6-1.1-1.4-1.6-2.1-.2-.4-.8-.8-.4-1.2.4-.5.7.4 1.1.2.4.2.7.5.7 1z" fill="#f7b779"/><path class="st1434" d="M93.6 126.7c-.3-.2-.6-.4-.7-.7.1-.1.2-.1.2-.2.2.2.4.3.6.4.2.2.3.3.1.6 0 0-.1 0-.2-.1z"/><path class="st1369" d="M89.1 147.6c0 .6-.4.7-1 .7-.3-.1-.8.2-.8-.3 0-.4.5-.4.8-.4h1z"/><path class="st1435" d="M104.7 133.4h1.9c.5.3 1.1-.3 1.6.1.1.1.1.2.1.3-.4.4-.9.4-1.3.3-1.6-.1-2.9.6-4.3 1-1.2.4-2.4.5-3.6.2-.9-.3-1 .3-1.3.8-.6.5-1 0-1.3-.4-.1-.1-.1-.2-.2-.3-.1-.3 0-.6.2-.8 0-.1.2-.1.2-.2-.1-.1-.2 0-.3 0h-.3c-.6-.3-.5-.6-.1-1 .3-.2.7-.1 1-.3.2-.2.5-.2.6 0 .3.7.8.2 1.2.3 1.8.4 3.5-.3 5.3-.2.2.1.4.1.6.2z"/><path d="M104.7 133.4c-1.2-.1-2.5-.1-3.4.4-1 .5-1.5.2-2.3 0-.5-.1-1 .2-1 .8-.6-.1-.3-.4-.3-.6 0-.6-.2-1-.8-.4-.3.3-.6.2-.9 0-.6.1-1.2.4-1.8.4h-.3c-.5-.1-.9 0-1.4.2-.7.2-1.3.1-1.3-.8.1-.2.2-.5.2-.7 1.4 0 2.8-.3 4.1-.1 1.1.2 2.2.1 3.3.4 1.7.5 3.4 0 5.1.1.3.1.6.1.8.3z" fill="#f4c393"/><path d="M102 132.5c-1.2-.2-2.4-.3-3.6-.5-.6-.3-1.2-.1-1.7-.1-.2-.6-.2-.6-.8-.8-.2-.2-.3-.4-.2-.7.4-.4.8-.1 1.2 0 1.4.4 2.8.6 4.3.4 1.4-.2 2.8.1 4.1.4.7.5 1.6.4 2.4.6.1 0 .2.1.3.2v.3c-.7.7-1.5.3-2.2 0-1.2-.4-2.5-.3-3.7-.4l-.1.1v.1c.1.2.1.3 0 .4z" fill="#c67e44"/><path class="st1416" d="M96.5 131.7c.6.2 1.3-.2 1.9.3-3.1 0-6.1-.1-9.2-.1-.4 0-.7 0-.8-.5.8-.4 1.6-.2 2.3-.2.3 0 .2-.1.3-.3.5-.5 1.2-.1 1.7-.5h.3c.7-.1.9.7 1.6.7.3 0 .6 0 .8.1.3.3.8.2 1.1.5z"/><path d="M102 132.5v-.2c0-.5.4-.4.7-.4 1.5.1 2.9.2 4.3.7.1.1.3 0 .5 0 .3.1.4.3.4.6-.2.1-.4.1-.5.1-.4-.4-1 0-1.5-.3-1.4 0-2.6-.4-3.9-.5z" fill="#925928"/><path class="st1439" d="M107.3 133.2h.5c.2-.2.5-.3.8-.2.2 0 0 .2.1 0 0 0 .1.1 0 0-.3-.2-.6-.3-.7-.7v-.2c.9-.4 1.5.4 2.3.6.3.3.7.5.3 1-.7.3-1.4.2-2.1.1-.4-.3-1 0-1.4-.3v-.2c0-.2.1-.2.2-.1z"/><path d="M91 131.1c.2.1.3.2.6.4h-3.2v-.4H91z" fill="#d38d50"/><path class="st1441" d="M107.1 133.4c.5 0 .9 0 1.4.1.1 0 .1.1.1.2v.1c-.1.1-.2 0-.3 0-.6-.1-1.2.2-1.7-.2.1-.2.3-.2.5-.2z"/><path class="st1442" d="M107.3 133.2c-.1 0-.2 0-.2.1-.4-.1-.9 0-1.2-.2.4-.1.9-.3 1.4.1z"/><path class="st1443" d="M99.6 145.7c-.7-.1-1.5.8-2.1-.2 0-.1-.4-.1-.4 0-.6.9-1.6.8-2.4 1.3-.2.1-.3.4-.6.3-.9-.3-1.6-.1-2.4.5-.4 0-.8.1-.3-.5.9-1.1.9-1.2-.6-1.4-.5-.1-.9-.1-.8-.7.1-.1.2-.1.2 0 .1.2.2.3.3.5.7-1.3 1.6.4 2.5-.1.8-.4 1.9-.4 2.9-.4s2 .3 3 .4c.3.1.6.1.7.3z"/><path class="st1411" d="M90.3 145h-.2c-1.2.4-2.3.9-3.6.7 1.1-.8 2.4-.9 3.8-.7z"/><path d="M132.2 138.7v-.2c.9.7.3 1.6.2 2.3-.2.6-.2 1.1-.2 1.6 0 1.1-.6 2.1-.8 3.2h-.4v-3c0-1 .5-1.9.7-2.9.3-.3.2-.7.5-1z" fill="#aa7649"/><path d="M125.5 116.6l-.2.2c-.9.2-1.6 0-2-1-.2-.6-.7-1.2-1.6-1-1-.3-1.3-1.3-1.6-1.9-.5-1.1-1.3-1.9-1.8-2.9-.2-.5-.5-.9.3-1.1.4.2.8.3 1.2.5.5.9 1 1.8 2 2.2.3.1.4.4.5.6.7 1.8 2.1 3 3.2 4.4z" fill="#f1be8f"/><path class="st1446" d="M118.6 109c-.4.3-.3.5 0 1 .5.7 1.1 1.4 1.5 2.2.4.7 1 1.2 1.1 2 .1.3.3.5.5.6.2.4.1.7-.2 1-1.2-1.1-1.5-2.7-2.5-3.9-.8-1-1.3-2-2.3-2.8-1.2-.9-2.2-2.2-3.3-3.3.5-.4 1.1-.5 1.7-.5.2.2.2.6.5.7.6 0 1 .5 1.1.9.3.8 1.2 1.4 1.9 2.1z"/><path d="M115 105.1c-.5.3-1 .6-1.7.5-.2-.2-.5-.2-.5-.5-.1-.5-.2-.8-.8-.7-.4.1-.6-.4-.8-.7-.3 0-.5 0-.7-.2.4-1.1 1.3-1 2.2-1 .8.3 1.3.8 1.6 1.6 0 .4.3.7.7 1zm.5.7c-1.1.4-.4-.4-.5-.7.9-.2.3.5.5.7z" fill="#f2b98f"/><path class="st1418" d="M113.5 148.3c-.7-.1-1.1-.8-1.8-.9-.4 0-.5-.6-.6-1.1-.1-.4.5-1-.1-1.1-.9-.2-1.7-.9-2.6-.4-.6.3-1.1.6-1.8.5v-.4c.1-.1.1-.2.3-.2.6-.2 1.1-.5 1.7-.6.7-.1 1.4.1 2.2 0-.2-.5-.6-.5-.9-.5-1.4 0-2.8-.4-4.2-.5-.3 0-.6-.1-.9.1-1.1.7-2.3.4-3.5.1-.1-.1-.2-.2-.2-.3l.3-.3c2.6-.5 5.3-.7 7.9-.1.8.1 1.7-.1 2.5.3.8.3 1.4.7 1.6 1.7.1.7.6 1.3 1.5.9.5-.2 1-.1 1.5.2 1.2.7 2 .5 2.8-.7.4-.6.9-.7 1.5-.4.1.1.2.1.3.2v.3c-.2.3-.7.5-.9.9-.1.1-.2.2-.4.2-1.2.5-2.4.5-3.7.3-1.1-.2-2.2.1-3.5.2.3.8 1.2.8 1 1.6z"/><path d="M95.3 144.5h-6.7c.1-.7.7-.4 1-.5-.4-.1-.9.2-1.1-.4 0-.1.1-.2.3-.3 3.8-.3 7.7-.7 11.5-.4.3 0 .5.1.8.3.9.1 1.9.5 2.8.3.3 0 .5 0 .7.1-.4 1.1-1.4.9-2.2.9-.7-.1-1.5-.3-2.2-.2-1.6.1-3.1-.3-4.7-.3-.9 0 .2.5-.2.5z" fill="#e8a46c"/><path d="M100.1 144c.8-.1 1.6.1 2.4.2.5.4 1 .3 1.6.1.5-.2 1-.5 1.6-.4.4.1.9.2.9.6 0 .4-.5.5-.8.5-.3-.1-.6-.4-.9-.2-.5.3.2.2.1.4-.9.4-1.8.2-2.7.2-.2-.4-.6-.5-1-.7-.9 0-1.9.1-2.8.1-.4-.1-.8-.2-1.2-.4.8-.5 1.9 0 2.8-.4z" fill="#bf7536"/><path d="M100.1 144c-.8.5-1.8 0-2.7.3.5.1.9.3 1.3.4.6-.1 1.3-.3 1.7.5-1.7-.2-3.4-.5-5-.7-.3-.4-.9-.1-1.5-.5 2.1-.6 4.2.1 6.2 0z" fill="#be753b"/><path d="M88.6 143.8h2.5c-.9.9-1.9.1-2.5.7h-.5c-.8.1-1.7.5-1.9-.8-.1-.1-.2-.3-.3-.4-.3-1.4.6-.5 1-.5.1.1.2.1.3.2.2-.1.4.1.5.2v.3c0 .6.4.2.6.1.1.1.2.1.3.2z" fill="#de9659"/><path d="M86.4 143.5h.2c-.1 1.3.8.9 1.5.9-1.2.6-2.6.4-3.8.7.3-.3.6-.5.1-.9-.4-.3-.6-.7-.6-1.2h.2c.8.3 1.4 1.4 2.4.5z" fill="#e2a66e"/><path d="M105.6 145c.3 0 .6-.1.8-.5-.8-.5-1.5-.4-2.3 0-.6.3-1.2.5-1.6-.2.8.2 1.5 0 2.2-.5 1-.6 1.9-.2 2.6.3.8.5-.2.6-.5.9h-.2c-.4.1-.8.3-1.2.2-.1-.2 0-.3.2-.2z" fill="#da914f"/><path d="M101.5 144.5c.1.4 1.3 0 .7.9-.5 0-1 .1-1.5-.2-.2-.6-.2-.6.8-.7z" fill="#7e401d"/><path d="M101.5 144.5c-.2.3-1 0-.7.7h-.5c-.5-.3-1.1-.4-1.7-.5 1-.3 2-.4 2.9-.2z" fill="#96501f"/><path d="M105.6 145l-.2.2h-.4c-.3 0-.5 0-1-.1.6-.4 1-1.1 1.6-.1z" fill="#ae6525"/><path class="st1443" d="M102.7 145.9c-.8.4-1.6.4-2.4 0v-.2c.8.1 1.6.1 2.4.2z"/><path d="M122.9 144.2v-.2c-.1-1.3.2-1.8 1.5-1.8.2 0 .3-.1.4-.2.7-1.2 1.4-.6 2.1-.1.9 1.3 1.2 1.3 2.4 0 .4-.5.9-.8 1.6-.8.1.6-.5.9-.5 1.4-.6 1-1.7 1.5-2.5 2.3-.4.3-1.1.4-1.6-.1v-.2c.3-.5-.3-.7-.3-1.3-.3.4-.3.6-.5.8-.7.6-.8 1.5-1 2.4-1.1.3-1.1-.4-1.2-1.1 0-.4.6-1.1-.4-1.1z" fill="#d0935b"/><path class="st1458" d="M126.3 144.7c.9.1 1.7-.1 2.2-.8.5-.7 1.3-.8 1.9-1.4-.4 1-.4 2.3-2 2.4-.6 0-.7.7-.7 1.2-.8-.1-1.6-.2-1.4-1.4zm-.8-.7c.1-.5-.2-1.2.4-1.3.6 0 .2.8.5 1.1.1.2.1.4-.2.6 0-.4-.1-.7-.7-.4z"/><path class="st1458" d="M124.6 146.4c0-.9-.1-1.9 1-2.4-.4.8-.7 1.6-1 2.4z"/><path class="st1459" d="M101.3 104.6c.1.2.2.5.2.7-.6.9-.8 2.2-1.9 2.8-.2 0-.5-.4-.6 0-.1.9-.8 1.4-1 2.3 0 .1-.1.2-.1.3-1.1.9-1.5 2-.9 3.4.1.2 0 .4-.2.5-1.2-.4-1.7-1.3-1.6-2.7.1-.7.2-1.5.5-2.2.9-.1 1.5-1 1.7-1.4.9-1.8 2.5-2.6 3.9-3.7z"/><path d="M95.8 109.7c.1.6.1 1.2-.2 1.9-.5 1.1.2 2.3 1.4 2.9.1-.1.2-.1.3 0 0 .1 0 .2-.1.3-.4.2-.8.1-1.2-.2-.3-.2-.6-.3-1-.2-1.1.2-1.4 0-1.6-1.4.5-.7.8-1.4 1.2-2.2.3-.4.6-.8 1-1.2 0 .1.1.1.2.1z" fill="#f2be8c"/><path class="st1461" d="M96.7 134.9c-.3.2-.2.5-.2.7-.1.2-.3.4-.5.5-1.3 1.4-1.3 1.4-2.9.6-.7-.4-1.3-.6-2-.4-.3.1-.7 0-1.1-.1-.8-.9-1.7-.8-2.7-.5-.7.2-1.4.4-2.2-.1-.5-.3-1.1.4-1.1 1.3.1.7.1 1.4-.6 1.8-1-.7-1.1-1.6-.5-2.6.6-.9.3-2.3 1.4-2.9 1.8-.4 3.5.3 5.1 1 .4.2.9.8 1.1-.2.1-.3.4-.1.7 0 .5.3 1.1 1.1 1.6-.1.1-.2.7-.2 1.1 0 .6.5 1.3.9 2.2.5h.2c.6 0 .6.2.4.5z"/><path d="M90 136.1c.6-.1 1.3.2 1.8-.3.3-.2.5-.1.7.1.5.7 1.4.6 2 1.2.3.3.6 0 .7-.4.2-.6.6-1 1.2-1.2.2.2.1.4 0 .6-.2.3.1.3.3.3.6.1 1.3.2 1.1 1.1-1.8.4-3.6.9-5.3-.2-.9.2-1.7.2-2.6-.1-.8-.3-1.5-.1-2.2.4-.5.2-1.1.1-1.5.4-.5.4-.8.9-.7 1.5.1.8.8 1 1.5 1.1.2.1.3.2.4.3.7.5 1.5.4 2.3.4.6 0 1.1.2 1.7.4.3.1.6.3.3.7-.4.2-.9.2-1.3.2-.2 0-.4 0-.6-.1-1.1-.1-2.2-.4-3.3-.5-.6-.4-1.1-.8-1.7-1.2-.2-.3-.3-.7-.5-1 0-.9-.2-1.7-.3-2.6-.1-1.3.4-1.6 1.5-1.1.7.3 1.4 0 2-.3 1.1-.3 1.8-.3 2.5.3z" fill="#f9d4b2"/><path class="st1463" d="M90 136.1c-1.3-.7-2.3.3-3.5.5-.5.1-.8.3-1.1-.3-.3-.6-.5-.4-.7.2-.2.4-.2.8-.1 1.3.3.7.3 1.5.1 2.2-.5.2-.5-.3-.7-.5-.1-.2-.5-.3-.5-.7.2-.7.5-1.4.2-2.1-.3-1 .8-1.1 1.3-1.6 0 0 .3 0 .3.1.2 1.2 1.1.6 1.6.4.7-.3 1.4-.1 2.1-.3.6-.3.7.5 1 .8z"/><path d="M94.1 133.9c-.4.1-1.3-.4-.9.8.1.2-.5.5-.8.2-.4-.3-.7-.5-1-.8-.2-.1-.4-.3-.5.1-.2.7-.5.9-1 .5-1.1-.9-2.5-.8-3.6-1.4-.3-.2-.7-.1-1 .2-.3.3-.5.1-.6-.2v-.2c2-.4 3.9.2 5.8.6.3.1.6.1.9-.1.4.6.8.9 1.5.4.2-.4.7-.5 1.2-.1z" fill="#f4c89e"/><path class="st1465" d="M87.6 143.3c-.2-.1-.3-.2-.5-.3.2-.1.3-.1.5-.2.1-.1.2-.1.3-.1 1 0 1.9.3 2.9.2h.3c.9.2 1.6-.2 2.5-.3 2.5-.3 4.9 0 7.3.3l.1.1v.2c-4.2-.3-8.3.2-12.5.2-.3.4-.7.3-.9-.1z"/><path class="st1463" d="M87.9 142.8h-.2l-.7-.7c1.1-.1 2.1.2 3.1.2h.5c.5.3 1.2 0 1.7.2.1.1.1.2.1.4-.4.4-.8.3-1.3.1-1.2-.1-2.2 0-3.2-.2z"/><path class="st1466" d="M86.9 142.8c-.2.3-1.2-.7-.7.5-.2.1-.3.1-.5 0-.3-.4-.5-.9-.8-1.4.3.1.6.1.8.2.3.4.9.2 1.2.7z"/><path class="st1467" d="M90 142.3c-1 0-2.1 0-3.1-.2h-.2c1.1-.5 2.2 0 3.3.2z"/><path class="st1461" d="M84 139.4c.2.2.5.3.7.5.2.3.3.6.2 1-.4-.4-.7-.9-.9-1.5z"/><path d="M130.8 141.1c-.7.5-1.3 1-1.9 1.6-1.1 1-1.5.8-2.2-.6.1-.1.3-.1.4-.1.1 0 .2.1.3.2.5.4.8.1 1.1-.2.9-.6 1.8-1.2 2.1-2.3.2-.2.4-.3.6-.1-.1.4-.2 1-.4 1.5z" fill="#d99c63"/><path class="st1469" d="M131.3 139.4c-.2 0-.4.1-.5.2-.2.4-.4.8-.7 1.2-.3.4-.6.5-1 .1-.2-.6.3-.8.5-1.2.4-.4.8-.9 1.4-.9.2.1.3.1.2.4.1.1.1.2.1.2z"/><path class="st1396" d="M131.3 139.2l-.2-.2c-.1-.1-.2-.3-.2-.5 0-.1.1-.2.1-.3.2-.2.5-.4.8-.2v.8c0 .1.1.1 0 .2 0 0 0 .1-.1.1s-.2 0-.4.1z"/><path class="st1370" d="M131.8 139v-.2h.5c0 .4-.2.7-.5 1v-.8z"/><path class="st1470" d="M99.6 108c.4-.5.5-1.3 1.3-1.4-.1-.4-.5 0-.5-.3-.1-.4.3-.3.4-.4.2-.2.7-.1.7-.5 1-1 1.9-2.1 2.9-3.1-.1.6-.8 1.1-.3 1.9.2.3 0 .3-.4.2-.5-.2-.4.6-.9.7-.2 0 .1.4.3.6.4.4.7.8.8 1.4-.2.3-.2.7-.5.9-.6.1-.4-.9-1-.6-.4.2-.2.6-.1.9 0 .1.1.2.1.3.1.9.2 1.8-.5 2.7-.3.4.1.9.2 1.3.1.1.1.2.1.3-.2 1-.9.8-1.6.7-.4-.1-.6-.5-.8-.9 0-.1 0-.2.1-.3.8-.1 1-.4.6-1.2-.1-.3-.3-.5-.4-.9v-.3c.5-.7-.7-1.1-.5-2z"/><path class="st1471" d="M102.3 108.5c-.3-.3-.6-.6-.3-1.1.2-.3.4-.5.8-.5.5 0 .4.6.6.9.4-.1-.2-1 .6-.7h.5c.6-.3.8.2.9.6.1.7.4-.2.5.1.2.1.3.2.3.3.2.8-.1 1.9-.6 1.8-.8-.2-.8-.9-.9-1.5.2 1-.1 2 .2 3 .1.4 0 .8-.4.8-.4.1-.7-.2-.8-.5-.4-1-.8-2-.9-3.1-.1-.6-.4-.1-.5-.1z"/><path d="M105.6 107.8c-.1.3-.1.6-.2 1-.5-.6-.1-1.5-1-1.7-.1-1 .5-.5 1-.5l.1.1c.1.3.2.6.2.8 0 .1 0 .2-.1.3zm.7-2v.5c-.3.1-.5.5-1 .2l.6-1.2c.2.2.3.4.4.5z" fill="#f9c18d"/><path d="M92.6 130.6c.1.2.2.5-.2.5H91c-.3-.3-.6-.4-1-.5-1.2-1.1-1.5-2.3-1-3.8s-.3-2.7-.7-4.1c1.4 1.6 2.1 3.6 3.4 5.3-.1.2 0 .3.1.4.1.2.4.4.1.6-.2.2-.5 0-.6-.2-.4-.4-.7-.9-1-1.4.1.4.7.8.3 1.3-.3.2-.5-.2-.8 0 .4 1.2.9 1.6 2.4 1.7.1 0 .3.1.4.2z" fill="#f4bb83"/><path d="M90.5 128.6c-.2-.6-.4-1.1-.6-1.7l.1-.1c.5.7 1.1 1.3 1.6 2 .3-.4-.4-.7.1-1 .4.6 1.1.7 1.4 1.4.4-.3.2-.6.2-.9.6.4.7 1 .4 1.5-.3.5-.8-.1-1.3-.2-.4 0-.7-.8-1.1-.1-.5.1-.8-.3-.8-.9z" fill="#f2b273"/><path d="M129.6 122.6c.5 0 .8-.6 1.4-.5-.2.4-.6.7-.2 1.2-.7.3-.4.3-.5.9-.2 1.1.8 1.8.7 2.7.2.4 0 .7-.4.8-.5.1-.3-.5-.6-.7 0-.1-.2.2 0 .1.3.4.1.6-.2.9-.3.1-.4 0-.6-.2-.2-.6-1.2-.8-.8-1.7.1-.1-.5-.3-.8-.5-.4-.2-.9-.1-1.3-.4-.3-.5-.8-.7-.9-1.3.4-.5 1.1 0 1.6-.4.1 0 .2-.1.3-.1.5-.1 1-.4 1.5-.6.1 0 .2 0 .3.1.2-.1.4-.2.5-.3z" fill="#f6be86"/><path d="M129.9 127.9c.2-.4-.2-.8-.2-1.1.6-.8.6 1.8 1.4.1.7.8 1.4 0 2.2 0 .1-.1.2-.1.2 0 0 .4 0 .8-.2 1.2-.1 1.2-1.2.6-1.7 1.1-.6.1-.8-.5-1.2-.6-.3-.2-.5-.4-.5-.7z" fill="#eeb57a"/><path class="st1406" d="M133.5 127h-.2c-.1-.2-.5-.3-.4-.5.1-.3.4 0 .6 0v.5z"/><path d="M132.5 130.6c-1.1.8-.1 1.7-.1 2.6 0 .7.1 1.5.1 2.2 0 .5 0 1.1-.5 1.4-.4-.8-.2-1.7-.3-2.5-.1-1.1-.2-2.2-.6-3.2-.1-.2-.2-.5-.2-.7 0-.6.4-.7.9-.8.6 0 .8.4.7 1z" fill="#e8ae7c"/><path d="M131.3 130.8c1.1 1.9.8 4 .7 6l-.3 1.2c-.2.1-.5.2-.7.3-.2-.1-.2-.3-.2-.5 0-1 .4-1.9.6-2.8 0-1 .2-2.1-.3-3-.2-.5-.1-.9.2-1.2z" fill="#edbc8a"/><path class="st1479" d="M93.4 113c.5.6.7 2 2 .9.2-.2.4.2.6.3.4.4.8.5 1.3.4.4-.1.8.1 1.1.4.1.2.3.4.1.6-.1.1-.3.1-.5.1-1.2-.4-2.5-.9-3.7-.4 0 0 .3-.1.3.2v.2h-1.4c.2-.5.4-1 0-1.5s-.2-.9.2-1.2z"/><path d="M103.2 119.5c-1.1-.1-2.2-.7-3.4-.7-.8-.2-1.2-1.2-2.2-1.2-.2-.1-.4-.3-.2-.6 1.3-.4 2.4.4 3.5.8.8.4 1.8.5 2.3 1.3.1.2.1.3 0 .4z" fill="#f0b685"/><path class="st1481" d="M97.5 117.1c.1.2.2.3.2.5-1.3.1-2.2-.4-2.2-1.4l.1-.1c.9 0 1.5.3 1.9 1z"/><path class="st1481" d="M95.5 116.2c-.4 0-.7-.2-1-.5.2-.2.4-.2.7-.2.2.1.3.2.4.3.1.2 0 .3-.1.4z"/><path class="st1482" d="M119.5 146.4l.2-.2c.2-.4.8-.5 1-1 .2-.4.2-.8.6-1.1.5-.5.4-1.3 1-1.6.1 0 .2.1.2.2.3 1-.6 1.5-.9 2.2-.6.4-.6 1.4-1.4 1.7-.4.3-.8.9-1.4.5.3-.2.5-.5.7-.7z"/><path class="st1482" d="M118.8 147.1c-.6 1.1-1.4.7-2.2.2.8.1 1.5.1 2.2-.2z"/><path d="M85.7 143.3h.5l.2.2c-.8 1.1-1.2 1-2.4-.5 0-.5.3-.3.6-.3.4.1.6.6 1.1.6z" fill="#edb884"/><path class="st1389" d="M121.7 145c.1-.8.9-1.5.7-2.4.1-.1.3 0 .4.1.2.5.1.9-.1 1.4l-.2.2c-.3.2-.6.4-.8.7z"/><path d="M132.5 130.6c-.2-.4-.3-.8-.7-1-.4 0-.4-.2-.2-.5 0-.2-.3-.5.2-.4.7.2 1.1-.1 1.5-.6.4-.1.8-.5 1 .2 0 .7-1.4.8-.6 1.8-.1.2-.9.2-1.2.5z" fill="#e6ad72"/><path d="M121.5 115.7c0-.3.1-.7.2-1 .3-.2.6-.7.9-.1.4.6 1 .9 1.2 1.7.2.7 1.1.1 1.5.6.6 1.1 2 1.7 1.8 3.2 0 .1.5.1.6.4h-.2c-.9.6-1.7-.3-2.5-.4-.2 0-.3-.5-.2-.7.3-.9.2-1-.6-1.5-.9-.6-2.1-1-2.7-2v-.2z" fill="#f6c492"/><path class="st1486" d="M122.7 144v-1.4c-.1-.1-.1-.2-.1-.3.1-.3.2-.5.4-.6.1-.2.3-.3.4-.5.7-.3 1.5-.4 2.3-.6.8-.3 1.5.5 1.6 1.5h-.5c-1.5-.8-1.5-.8-2.1.8-.4-.1-.2-.8-.8-.7-.4.1-.4.5-.6.8-.2.3-.3.7-.4 1h-.2z"/><path class="st1479" d="M94.6 110.9c-.2.8-.5 1.6-1.2 2.2.1-.8.8-1.4 1-2.2h.2z"/><path d="M121.5 115.9c.2 0 .6-.2.6 0 .3 1 1.7.6 1.9 1.7 1.3-.6.8.9 1.4 1.1.2.1.1.2-.3.4-.1 0-.2.2-.2.2l.3.6c.9-.6 1.4.8 2.2.4-.6.9.7 1 .7 1.7 0 .2-.1.3-.2.4-.4.2-.5.7-.7 1-.2.1-.4.2-.6.1-.8-.4-1.6-.5-2.5-.4-.8 0-.7-.5-.5-1.1.5-.6.2-.9-.4-1-.4 0-1 .3-.9-.5.1-1.1-.3-2.2-.6-3.2-.3-.3-.7-.8-.2-1.4z" fill="#facb9c"/><path class="st1406" d="M127.9 122.4l.2-.2c.8-.4.8.2 1 .7h-.2c-.3-.2-.9.2-1-.5z"/><path class="st1488" d="M121.5 115.9c0 .6.4 1 .5 1.5.3 1.1 1.1 2.1.5 3.3-.6.5-1 .7-1.8.1s-1.9-.7-2.9-.8c-.5-.1-.9-.1-1.3-.5 0-.1 0-.1-.1-.2.1-.2.2-.5.2-.7.3.1.5-.2.8.2.5.8 1.6.7 2.1-.2.2-.3.3-.8.6-.9 1.3-.6.5-1.3-.1-1.5-1.3-.4-1.7-1.5-2-2.6-.2-.9-.7-.8-1.4-.6.7-1.2-.4-1.8-.6-2.7-.2-.5-.5-1-.7-1.4.1-.1.2-.1.2 0 1.2 1.2 2.4 2.5 3 4.1v.1c1.3.3 1.2 1.8 2.1 2.5.2.3.5.3.9.3z"/><path class="st1488" d="M116.7 118.6c-.5 0-1-.2-1.1-.7-.1-.5-.5-.7-.8-1 1.2-.1 1.2 1.2 1.9 1.7z"/><path d="M106.8 110.6c.1.6-.3 1.6 1 1.4.1 0 .3.5.4.8.5.8 1 1.6 1.9 2 1.9 1 3.5 2.5 5.1 4 .4.2.8.3 1.2.5.2.2.2.4.1.7-.1.1-.2.2-.3.2-.3 0-.5-.1-.7-.2-1.2-.8-2.5-1.5-3.9-2.1-1.1-.4-1.9-1.1-2.7-1.9-.2-.2-.3-.4-.5-.5-1.8-1-2.5-2.8-1.9-4.8.1-.1.2-.1.3-.1z" fill="#f6bb8b"/><path d="M115.2 118.8c-1.2-.7-2.3-1.5-3.2-2.6-.3-.4-.7-.4-1.1-.6-1.2-.5-2-1.5-2.9-2.4-.2-.2.2-.3.2-.4h.2c.5.3 1.4.3 1.1 1.2 0 .1.4.4.7.4 2.3.6 3.2 2.8 5 3.9.1.1 0 .4 0 .5z" fill="#f9c397"/><path class="st1446" d="M111.1 103.7c.4.2.7.9 1.4.3.3-.3.9.1.5.6s.2.7.2 1c-.3-.1-.6-.2-.9-.2-.9-.2-1.5-.6-1.2-1.7z"/><path class="st1362" d="M115 108c-.8-.1-1.5.3-2.4.1.2-.5 1.1-.9.2-1.5.6-.5 1 0 1.1.3.1.6.7.8 1.1 1.1zm.5 1h-.2c-1.3 0-.3-.6-.2-1 .2.2.3.6.4 1z"/><path class="st1471" d="M106.8 110.6h-.2c-.1.1-.2.1-.3-.1-.1-.2-.1-.4-.1-.6.2-.8 0-1.7.1-2.5 0-.3.1-.5.3-.7h.2v3.9z"/><path d="M106.6 106.8v.7c-.4.7-.1 1.6-.3 2.3-.2.3-.2.9-.7.9-.4 0-.6-.3-.7-.7 0 .6.3 1.2.3 1.8 0 .7-.2 1.2-1 1.4-.7.2-.8.9-1 1.5-.6 1.4-2.3 2-3.6 1.4-.1-.7.4-.5.7-.6.6.5.2-.3.4-.3.1-.1.2-.1.3-.1.6-.7 1.2-1.3 1.2-2.2-.2-.1-.5-.5-.3-.5 1.1-.5.4-1.3.4-1.9 0-.6.2-1.3-.1-1.9.1-.3.3-.5.6-1.2.2 1.7.4 3 1 4.2.1.3.2.6.6.5.4-.1.2-.4.2-.7-.4-1.2.1-2.4 0-3.6.3.7.5 1.3.8 2 .6-.8.7-1 .3-2v-.2c-.2-.7.2-.9.7-1l.2.2z" fill="#f0b27b"/><path class="st1471" d="M106.3 106.6c-.3.3-.7.5-.7 1-.3-.3-.2-.6-.2-1 .4.1.5-.6 1-.2-.1 0-.1.1-.1.2z"/><path d="M93.6 126.2c-.2-.1-.4-.3-.5-.5 1.6.5 3.2 1 4.9 1.6 1.6.6 3.4.7 5.1 1.3 1.8.7 3.8.9 5.6 1.7.6.4 1.4.2 1.9.6.2 0 .4.1.5.2 1.4.1 2.8.3 4.1-.2.5-.2.9.1 1.1.6.9.5 1.9.4 2.8.3.9-.1 1.9.5 2.7-.2 0 0 .3 0 .3.1 1.2 1.6 2.9 1.2 4.5 1.3h.7c.5.2.5.7.7 1.1.2.4.5.8.5 1.3 0 .2-.1.3-.2.5-1.3.4-1.7-.9-2.1-1.5-.3-.5-.6-.6-1-.7-.5-.2-1.1-.1-1.6-.2-1.6-.1-3.2-.4-4.7-.6-.5-.1-1-.1-1.5 0-.3.1-.7.2-.9 0-1-.9-2.2-.6-3.3-.5-1.8.1-3.3-.6-5-1.1-2.5-1-5-1.7-7.7-1.9-.4 0-.7 0-1.1.1-.8.3-1.6.1-2.2-.6-.5-.7-1.2-1.4-2.1-1.5-.6-.1-1-.8-1.5-1.2z" fill="#fad1ab"/><path class="st1431" d="M110.9 131.3l-.2-.2c-.1-.1-.1-.1-.1-.2s.1-.1.1-.1c.4-.4.8-.6 1.3-.8.2-.1.5-.3.6-.1.7 1 .9 0 1.4-.3-1 0-1.5-.5-1.8-1.3-.7-.9-1.6-1.3-2.7-.8-.4.2-.8.1-.9-.3-.1-.6-.6-.7-.9-1-1.2-1.1-2.7-1.7-4.1-2.4-1.1-.5-2.3-.8-3.4-1.4-.2-.1-.7-.2-.4-.7.3-.2.6-.1.9.1 1 .4 2 1 3.2.6.3-.1.3.1.3.4.1.7.8.6 1.2 1 .8-1 1 0 1.5.4.2.2.5.4.8.1.4-.3.8-.2.7.4 0 .3.1.3.4.4 1.4.2 2.5.9 3.3 1.9.5.7 1.3 0 1.8.5.4.5 1.1.6 1.5 1.1 1 1.2.8 2.1-.8 2.5-1.3.4-2.5.4-3.7.2z"/><path d="M124.1 132c-.1-.4-1.3-.2-.5-1 .1-.1 0-.2-.3-.3-.4-.1-.8-.2-1.3-.3-1-.1-.9-.7-.5-1.3.3-.4.4-.8.3-1.2 1.5-.8 3.3.1 3.9 1.9.1.6-1 .9-.3 1.5.2.2.4.4.4.7-.5 1.1-1.1.2-1.7 0z" fill="#fcd9b7"/><path d="M100.6 121.9h-1c-1.6-.3-3.2-.2-4.8.3-.5.2-.9-.4-1.4-.5-.5.3-.6.8-1 1.2-.2-.2-1-.1-.7-.5.3-.5-.1-1.5.7-1.5 2.3-.1 4.6-.7 6.9.1.6.1 1.1.4 1.3.9z" fill="#fbd7b9"/><path class="st1495" d="M110.9 131.3h2.5c.9 0 2-.2 2.2-1.1.2-.8-.7-1.4-1.3-2-.2-.2-.5-.2-.5-.5 1 .5 2.1.7 2.6 1.8 0 .1.1.1.2.1 1.5 1 1.5 1-.1 1.9-.5-.3-.8-.3-1.4-.2-1.4.4-2.9.5-4.2 0z"/><path class="st1496" d="M124.1 132c.4 0 .8.1 1.1.3.4.2.5 0 .6-.3.2-.4-.4-1.2.5-1.3.7-.1 1.2.4 1.5 1 .7 1.3.7 1.3-.5 1.6-.2 0-.4 0-.5-.2-.3-.5-.8-.3-1.3-.2-.6-.1-1.2-.2-1.4-.9z"/><path class="st1426" d="M127.2 133.2c.1-.4 1-.2.7-.7-.5-.6-.5-1.7-1.5-1.7-.4 0-.6.2-.3.6.3.4 0 .5-.3.5l-.5-.5c-.4-.7.3-1 .5-1.4-.7-1.7-2-2.4-3.8-2.2.1-.2.1-.5.2-.7.2-.4.1-.3-.3-.5-1.4-.9-2.8-.8-4.3-.4-.3.1-.5-.1-.6-.3-.2-.5.3-.2.4-.3.4-1.5 1.5-.5 2.2-.4 1 .1 2.1.3 3.1.3 1.3-.3 2.4.6 3.5 1 2.1.7 3.8 2 4.3 4.3-.2.5-.8.3-1.1.6-.4.1-.6-.1-1.1-.3 1.2 1.2.3 2.1-.3 3-.5-.1-.1-.9-.8-.9z"/><path class="st1497" d="M116.2 120h.2c.2-.1.4 0 .6.1.5.2.9.4 1.2.8 1.8.7 2.7 2.4 4.3 3.3.4.2.7.6.4 1.1-.1.1-.2.1-.3 0-.9-.2-1.8-.5-2.6-.7-.5-.4-1.2-.2-1.7-.7-.4-1-.7-2.1-1.8-2.7-.3-.2-.7-.6-.3-1.2z"/><path d="M122.7 125.3h.2c.5-.4 1-.1 1.4 0 1.4.5 2.8.8 4 1.7 1.5 1 2.4 2.3 2.8 4.1.3 1.3.5 2.6.6 4-.1.4-.2.6-.6.6-.1-.1-.2-.2-.2-.3-.1-1.3-.2-2.5-.5-3.7 0-.2 0-.4.1-.6-.8-2.4-2.6-3.8-4.9-4.5-.9-.3-1.8-.7-2.8-1-.1-.2-.1-.2-.1-.3z" fill="#f9cfa5"/><path d="M116.2 120c0 .3.1.8.4.8 1.3.3 1.3 1.7 2.1 2.5.3.2 0 .5-.4.5-.4-.3-1-.3-1.4-.5-.2 0-.4 0-.5-.2-.1-.1-.1-.2 0-.3.1-.9-.7-2.2-1.4-2.4-1.9-.5-3.6-1.4-5.3-2.4l-.6-.6c-.1-.2-.2-.4-.1-.6.1-.1.3-.1.5-.1.3.1.6.3.8.5.5.4 1.1.7 1.8.8 1.3.3 2.3 1.3 3.7 1.7.1.1.2.2.4.3z" fill="#d78f56"/><path d="M103.2 119.5v-.2c.4-.3.9-.3 1.3-.2 1.1.4 2.3.5 3.3 1.1 1 .2 2.1.4 3.1.9.4.2.9.2.9.8-1.8.2-3.5-.6-5.3-1-.6-.1-1.3.2-1.9-.2-.1-.7-1.2-.4-1.4-1.2z" fill="#f2b680"/><path d="M111.9 121.9c-1-.7-2.2-1-3.3-1.2-.3-.1-.6 0-.8-.2.3-.3.7-.3 1.1-.3 1 0 1.9.6 2.9.7.4 0 .8.1 1.2.3.4.2.9.3 1.3.5.2.1.4.2.5.5 0 .1-.1.2-.2.3-.9.1-1.7-.3-2.5-.6h-.2z" fill="#e9ac71"/><path d="M112.1 121.9c1-.2 1.8.5 2.7.5.7-.3 1.2-.1 1.6.5v.2c-1 0-2-.4-3-.3-.7.1-1-.4-1.3-.9z" fill="#edb37b"/><path class="st1428" d="M104.7 120.7c.6.3 1.3-.2 1.9.2-.7.2-1.4.5-1.9-.2z"/><path class="st1497" d="M116.9 123.4c.5 0 1.1 0 1.4.5-.5-.1-1-.2-1.4-.5z"/><path d="M104.4 128.2c-.4-.3-.9-.5-1.4-.5-1 0-1.7-.9-2.6-.9-1.3 0-2.4-1-3.7-.7-.3.1-.6-.1-.8-.5-.2-.2-.3-.5-.4-.7-.7-2.2 0-2.6 2.3-2.6.1 0 .3 0 .3.1.5 1.1 1.5.3 2.2.6 1.3.5 2.7.4 3.8 1.4.7.6 1.4 1.3 2.5 1.4.3 0 .5.2.5.5 0 .5.3.7.6.9.5.4.5 1.1-.2 1.3-1 .3-2.1.6-3.1-.3z" fill="#fce1c6"/><path d="M104.4 128.2c.9.6 1.8.5 2.7.2.4-.1.8-.3.8-.8.1-.5-.5-.4-.7-.5-.9-.2-.2-.8-.4-1.3-1.1.3-1.7-.5-2.5-1.1-1.7-1.2-3.3-2.4-5.4-1.2-.3.2-.4 0-.5-.3-.1-.3.2-1-.5-.9-.7.1-1.6-.1-2.2.4-.2.2-.1.4 0 .7.1.7.2 1.3.3 2-.7-.4-2 .4-2-1.2 0-.2-.2-.1-.4 0-.5.3-.3-.1-.5-.4-.6-.9.4-1.5.2-2.2.1-.1.1-.2.2-.2 1.5.4 2.9.1 4.4-.2.5-.1 1.1.4 1.7.6 1.3.5 2.4 1.5 4 1.6.6 0 1.2.6 1.7 1.1.2.2.5.5.8.4.8-.2 1.2.1 1.5.8.1.3.4.4.7.4.4 0 .8 0 .5.7-.2.5.2.6.5.5 1.7-.6 2-.6 3.1.8-.5.3-1 .1-1.4-.1-.3-.1-.6-.3-1-.2-.4.1-.9.2-1 .7-.1.5.3.7.6.9.2.1.3.2.3.5-.7.1-1.4 0-1.8-.8-.2-.4-.4-.4-.9-.3-1.2.4-2.1.3-2.8-.6z" fill="#fcdcc0"/><path d="M109.7 129.8l-.2-.2c-.8-.1-1.2-.6-1.1-1.4 0-.5 1.7-1.1 2.2-.7.5.4 1.1.5 1.8.6.4.6.8 1.1 1.7 1 .4-.1.6.3.3.6-.3.4-.7.9-1.2 1.1-.7.3-.5-.5-.7-.8-.7.1-1.1.9-1.8.8-.1-.6-.4-.9-1-1z" fill="#fce0c5"/><path class="st1495" d="M110.7 130.8v.2c-.6-.3-1.5 0-1.9-.7.6 0 1.3 0 1.9.5z"/><path d="M93.6 126.7h.3c.4.1.7.4 1 .7 1.5 1.3 2.9 2.5 5.2 2 1.5-.3 3 .2 4.5.4.4.1.9.3.4.9-.9 0-1.9 0-2.8-.2-.9-.2-1.8 0-2.7.3-1.8.2-3.2-.5-4.6-1.4-.3-.3-.4-.6-.5-1-.1-.7-.9-.9-.8-1.7z" fill="#f8c190"/><path d="M90.5 128.6l1 1 .7.7c0 .2-.1.4-.3.4-.9-.2-1.7-.4-2.2-1.2-.3-.5-.7-1-.2-1.4.3-.3.6.5 1 .5z" fill="#f9c999"/><path d="M94.4 128.4c.3.2.5.4.5.7.3.4.9.5.8 1.2-.4.5-1 .7-1.3 1.3-.7 0-.9-.7-1.4-1 1.6.1 1.7-.8 1.3-2-.1-.1 0-.2.1-.2z" fill="#c37b42"/><path class="st1365" d="M94.6 127.4c-.3-.2-.6-.4-.7-.7-.1-.2-.2-.3-.2-.5 1.1.7 2.5 1 3.5 1.8.2.2.3.4.3.6-1.2.2-2.1-.5-2.9-1.2zm3.1 8.9c0-.9-.3-1.6 1.3-1.2 1.9.5 3.9-.2 5.8-1 1-.4 2.2-.2 3.4-.2.1 0 .2.1.3.2l.2.2c.5 1.6 1.7 1.6 3.1 1.3 1.1-.2 2.2 0 3.3-.9 1-.8 2.4-.3 3.6-.1.5.1.7.6.5 1.2-.5.4-1 .1-1.4-.1-.5-.3-.5.1-.6.4-1-.1-1.9.5-2.9.5-.3 0-.5.1-.8.1-1.4-.2-1.6-.1-2.1 1.2-.3.8-.6 1-1.2.4-.3-.3-.6-.5-1.1-.4-.4.1-.8 0-1.2-.2-.8-.5-1.7-.4-2.5-.5-.7-.9-1.6-1.1-2.6-.5-.6.3-1.4.7-1.8.5-.7-.3-1.4-.5-2.1-.3-.1 0-.3-.2-.4-.4-.2-.8-.4.1-.6 0l-.2-.2z"/><path d="M108.3 134.2v-.4h.2c.4-.2.8-.1 1.2-.1 1 .2 1.9-.1 2.9 0 .4 0 .9 0 1.3.2.3.2.1.4-.1.5-.5.2-.9.5-1.2.9-.4.4-1 .5-1.3.2-.9-.9-2-.9-3-1.3z" fill="#f9c899"/><path class="st1510" d="M96.3 134.4c-.9.8-1.7 1-2.2-.5.7 0 1.2-.8 1.9-.2-.1.3-.4.6.3.7z"/><path class="st1461" d="M96.5 136.8c-.2 0-.4.2-.5.1-.2-.1-.1-.3 0-.5.2-.3.5-.5.5-.9.4.2.6.9 1.2.7-.2.9-.9.2-1.2.6z"/><path class="st1510" d="M96.7 134.9c0-.2 0-.4-.2-.5.2-.2.4-.5.6-.2.3.3-.1.5-.4.7z"/><path class="st1511" d="M95.5 130.3c0-.6-.6-.7-.7-1.2 1.5.6 2.8 1.6 4.5 1.5 2.7-.6 5.3.3 8 .4.2 0 .4.1.6.1.4.2.9.3 1.3.5.5.5 1.4.2 1.7.9 0 .1 0 .2-.1.3-.2 0-.5.1-.7-.1-.8.1-1.4-.7-2.2-.7-.9-.2-1.8-.2-2.6-.5-1.5-.3-3.1-.6-4.7-.3-1.2.2-2.4 0-3.6-.4-.4-.1-.8-.5-1.3-.3-.1.1-.2 0-.2-.2z"/><path class="st1442" d="M108 132.2c.3.2.6.3.9.5.3.2.2.4-.2.4-.3-.3-.9-.2-1.2-.5-1.5-.2-3-.6-4.6-.6-.3 0-.7-.2-1 .1-.3 0-.7.1-.8-.4 1.9-.3 3.7-.1 5.4.5.6.3 1.1.3 1.5 0z"/><path d="M95.5 130.3l.2.2c.1.2.2.3.3.5l-.1.1c-.2.1-.3.3-.5.5h-1.2c.2-.2-1.1-.7.1-.6.7 0 .6-1 1.2-.7z" fill="#945522"/><path class="st1439" d="M105.4 131.5c.9 0 1.8.1 2.6.5-.9 0-1.8.2-2.6-.5z"/><path d="M95.3 131.6h.3c.1-.2.7.1.4-.4h.1c.4 0 .7.1 1 .3-.2.1-.4.3-.6.4-.4-.2-.9 0-1.2-.3z" fill="#aa6128"/><path d="M107.5 132.7c.5 0 1-.1 1.2.5h-1c0-.2-.1-.3-.2-.5z" fill="#914d17"/><path class="st1511" d="M109.7 133.7h-1.2v-.2h2.2c.3-.2.1-.5.2-.7 1.1-.8 2.4-.2 3.6-.4.2 0 .4.2.3.4-.1.5-.3.8-.9.8-.5-.2-1.1-.7-1.5.2-.9 0-1.8.1-2.7-.1z"/><path d="M110.9 132.7c.1.2.4.3.4.5-.1.3-.4.2-.6.2 0-.4-.3-.5-.5-.7h.7z" fill="#e19e60"/><path class="st1516" d="M109.5 143c-.7 0-1.3 0-2-.2-1.4-.4-2.8-.3-4.2.1-.7.2-1.5 0-2.2.1-.1-.1-.1-.2 0-.3.9-.4 2-.2 3-.6.1 0 .2-.1.3-.1 1.3-.1 2.7-.1 4-.1 1.3 0 3 .5 4-1.1.4-.6 1.1-.7 1.6 0 .6.8 1.7.4 2.3 1.2.1.1.2.1.3.2 1 1.1 1 1.3-.4 2 .7.7 1.4 1.1 2.3.4.2-.1.5-.3.7.1-.7 1.8-2.6 2-3.9.5-1.6-1.9-3.5-2.4-5.8-2.2z"/><path class="st1517" d="M109.5 143c2-.7 5 .3 6.1 1.9.3.4.7 1 1.2.9.9-.3 2.1-.1 2.3-1.4.2-.9 1.2-.9 1.8-1.4.2-.1.4-.2.6-.2.1 0 .2.1.3.1.2.5-.3.8-.4 1.2-.2.2-.4.5-.6.7-.8-.2-1.4-.2-1.7.8-.3.9-2 1-3 .3-.4-.3-.7-.4-1.2-.2-.8.5-1.8 0-2-1-.1-.4.2-1-.3-1.2-.7-.3-1.3-.9-2.2-.7-.3.3-.6.2-.9.2z"/><path class="st1465" d="M103.9 143.8c-1 0-2 0-2.9-.5 1.7.4 3.3-.4 4.9-.3 1.5.1 3 .4 4.5.5.5.1.9.3.8.8-.1.5-.6.3-1 .3-.6-.1-1.2-.1-1.8-.1-.1-.2.1-.3.1-.4-1.4.2-2.8-.9-4.2-.5-.1.1-.2 0-.4.2z"/><path d="M103.9 143.8c.6-.5 1.3-.6 2-.4 1.2.4 2.3.5 3.5.4-.1.7-.8.3-1 .7-.6 0-1 .6-1.7.5.1-.3.5-.2.5-.6-.9-.3-1.7-.6-2.7-.5-.1-.1-.3-.1-.6-.1z" fill="#edae6f"/><path class="st1391" d="M120.7 145.2c0 .6-.5.7-1 1-.1-.8.6-.7 1-1zm0-.2c0-.3.2-.6.5-.7.1-.1.2-.1.2 0-.2.3-.5.6-.7 1v-.3z"/><path class="st1466" d="M87.6 143.3c.3.2.6.3 1 .2v.2h-.3c-.3.2-.6.3-.7-.2v-.2z"/><path d="M87.6 143.5c.2.2.4.2.7.2-.1.7-.7.6-1 .3-.3-.1.1-.3.3-.5z" fill="#af6936"/><path d="M100.1 112.6v.2c.2 1.1-.4 1.7-1.9 2.1-.3-.1-.5-.1-.8-.4-.7-1.1-.8-2.2.2-3.2.2-.2.2-.5.3-.7v-.2c0-.5.2-.7.7-.7 1.7 0 1.7 0 2 .5.1.6-.2 1.3-.5 1.7-.5.4-.1.4 0 .7z" fill="#facca9"/><path class="st1521" d="M100.6 110.2c0-.1-.1-.2-.1-.2-.9-.2-1.7 0-2.5.4-.1-.1-.2-.3-.1-.4.6-.8 1-1.6 1.2-2.7l.7.7c0 .8 1.2 1.1.8 2.2zm-2.7.4c0 .3.6.6.2.8-1.4.8-.9 1.9-.7 3.1-.1.1-.2.1-.2 0H97c-1-1.6-.7-2.8.9-3.9z"/><path class="st1459" d="M97.2 114.5h.2c.2.1.5.2.7.2.1.2.1.3 0 .5-.3-.2-.6-.3-1-.5.1-.1.1-.1.1-.2z"/><path class="st1522" d="M87.4 141.1l-.2-.2c-1.2-.5-1.3-.9-.7-2.1.3-.5.7-1 1.2-1.3.7-.7 1.5-.9 2.5-.5.8.3 1.7.3 2.6 0 1 1.4 2.7 1.1 4 1.8.1.1.3.1.5 0 1.4-1 3.2-.3 4.7-.9.4-.2.8 0 1.1.3.3.3.7.4 1.1.5 1.6.3 1.9 1.3 1 2.6-.2.3-.4.6-.7.8-1 .5-2-.1-3 0-1.7.2-3.4-.4-5.2-.5-1.1-.1-2.2-.2-3.3-.4-.3-1-.1-1.3.8-1.1.5.1.9.3 1.4.1-.1-.5-.5-.4-.8-.5-.4-.1-.9-.3-1.1-.6-.5-1.1-1.5-1.1-2.4-1.3-.6-.1-1.3-.2-1.6.4-.3.6-.1 1.4.4 2 .3.3.9.4.8 1-1.2.1-2.2.4-3.1-.1z"/><path d="M104.2 141.8c.2-.3.4-.7.7-1 .6-.9.2-1.8-.8-1.9-.6 0-.9-.2-1.3-.6-.7-.7-1.5 0-2.2.1-.3 0-.6.3-1 .1-.4-.2-1.1-.3-1.4 0-.9.9-1.7.6-2.5.1-.4-.3-.7.1-1.2 0-.9-.2-1.4-.9-1.8-1.6l.1-.1c1.6 1.6 3.5.3 5.2.6.3-.3.7-.5 1-.4 1.2.4 2.3.1 3.3-.4.7-.3 1-.1 1.3.4.2.2 0 .6.2.6 1.8-.3 2.9.9 4.2 1.8.6.4.5 1.2.6 1.9 0 .4-.4.4-.7.3-.9-.3-1.8-.1-2.6.3-.3.1-.7.1-1 .1-.2 0-.2-.1-.1-.3-.1.1-.1 0 0 0z" fill="#fad9b8"/><path class="st1524" d="M104.2 141.8v.2c.1.1.1.1.1.2s-.1.1-.1.1c-2 .5-4 .2-5.9 0-2.1-.2-4.2-.3-6.3 0-1.1-.6-2.3-.6-3.5-.7-.4-.1-.9 0-1.1-.5 1 .2 1.9-.3 2.9 0h.2c.6-.4 1.2.4 1.8.1.1-.1.3-.1.4 0 .5 0 .9-.2 1.5-.1 2.7.2 5.4 1.1 8.2.7.6-.2 1.1.7 1.8 0z"/><path class="st1467" d="M103.5 137.3c-.6-.8-1.3-.3-1.9 0-.7.3-1.4.7-2.3.2-.4-.3-.9.2-1.4.1-.3-.6-.8-.8-1.4-.7.3-.5.9 0 1.2-.5.5-.2.4-.7.6-1.1.5.3.3.7.4 1 .2.5.4.7.8.2.2-.3.3-.7.8-.5.7.2.1.7.2 1.1 1-.4 1.9-.8 2.9-1.1.9-.3 1.7.1 1.9 1.1 0 .1-.1.1-.1.2-.5.4-1.1.6-1.7 0zm-11.6 5c1.5-.8 3.2-.6 4.8-.4 2.5.2 5 .5 7.5.4-1 .6-2.1.4-3.1.5-.2.1-.3.1-.5.1-.7-.1-1.5 0-2.3-.1-.2 0-.4 0-.5-.1-.4-.2-.9-.1-1.3-.2-.9-.2-1.9-.2-2.8 0-.5 0-1 .5-1.5 0-.6-.1-1.2.2-1.7-.2h1.4z"/><path class="st1524" d="M87.6 137.5c-.4.6-.9 1.2-1.2 1.9-.5.8.4 1.1.7 1.5-1 .1-1.9-.5-1.9-1.2-.1-.9.8-1.9 1.7-2 .2-.1.5-.1.7-.2z"/><path class="st1375" d="M97.7 142.6h.5c.8.3 1.6-.1 2.4.2h.5v.2c-2.6-.1-5.1-.2-7.7-.2v-.2c1.4-.5 2.9-.2 4.3 0zm-9.8.2c1 .1 2.1-.3 3.1.2-1.1.3-2.1.2-3.1-.2zm3.1.2c.4-.1.9.2 1.2-.2.4-.2.8-.3 1.2 0-.8.3-1.6.8-2.4.2z"/><path class="st1516" d="M93.4 142.8h-1.2v-.2c.5-.1 1-.2 1.4-.2 1-.2 1.9-.2 2.9 0 .4.1.9-.2 1.2.2-1.4.1-2.9-.3-4.3.2z"/><path d="M127.2 142.1c-.5-1-1.1-1.8-2.4-.9-.4.3-1-.2-1.5.2-.4-.8 0-1.1.7-1.5.6-.4 1.3-.5 1.9-.5.5.4 1.1.8 1.6 1.2.4.4.8.3 1.3.2.1 0 .2 0 .3.1.5.3.8.2 1-.3.2-.3.3-.7.7-.9 0 1.4-1.3 1.8-2.2 2.4-.4.3-.9.7-1.4 0z" fill="#e2a66d"/><path class="st1486" d="M127.2 142.1c.5.4 1 .1 1.4 0-.4.7-.9 1-1.4 0z"/><path d="M122.7 142.3v.2h-.2c-.4-.5-.4-1.1-.3-1.6.6-1.5.2-3 .2-4.4 0-.3-.2-.6-.4-.8-.2-.2-.4-.4-.2-.7.2-.3.5-.4.8-.3.2 0 .5.1.6.3 1.1 1.3 2.6 1.9 3.8 3 .2.2.5.4.8.6.8.3.8.3 3.2 0v.5c-.4.3-.9.5-1.2 1-.7.5-1.3 1.1-2.2.3l-.2-.2c-1.1-.6-1.7-1.7-2.9-2.2-.7-.2-.9-.2-.9.5s-.2 1.4-.3 2.1c0 .2-.1.3-.1.5 0 .3-.4.7-.5 1.2z" fill="#f0b985"/><path class="st1527" d="M127.7 139.9c.7.9 1.4.1 2.2 0-.2.3-.5.6-.7 1h-.2c-1.6 0-1.6 0-1.3-1z"/><path d="M131 138.5c-1.1.8-2.1 1.4-3.4.2.4-.6 1.1.2 1.6-.3.7 0 1.1-.8 1.8-.6v.5c.1 0 .1.1 0 .2z" fill="#f3bf8e"/><path class="st1521" d="M98.2 115.2v-.5c.8-.5 1.8-.7 1.9-1.9l.7.7.1.1c.3.5.8 1 0 1.5-.5-.1-.2.6-.6.6-.2.1-.5.1-.7.2-.5.3-.8.1-1.2-.2-.1-.2-.1-.3-.2-.5z"/><path class="st1471" d="M102.3 108.5c.5 1.1.2 2.4.7 3.5.2.4-.2.5-.6.4-.8-.2-.1.3-.2.4-.5-.6-1.2-1.1-.2-2 .6-.6.2-1.5.3-2.3z"/><path class="st1521" d="M100.1 112.6l-.9-.3c.8-.5 1.1-1.3 1.4-2.1 0 .4.3.7.5 1 .4 1.2.3 1.4-1 1.4z"/><path class="st1471" d="M102.3 112.8c.4.7-.4 2.4-1.2 2.4.4-.6.3-1.2-.2-1.7.4-.3 1.2.2 1.4-.7z"/><path d="M124.3 125.5c-.5-.1-1-.2-1.4-.3.1-.7-.5-.9-.9-1.1-1.1-.5-1.7-1.4-2.4-2.2-.4-.5-1.3-.2-1.5-1 .6-.5 1.3-.2 1.7.2 1 .9 2.5 1 3.3 2.3.2.3.6.1.9.1.6-.1 1.1-.1 1.5.4.2.5.8.6 1 1.2-.5 1-1.3.8-2.2.4z" fill="#f3ba86"/><path d="M125.5 123.8c-.5.1-.9-.3-1.4-.1-.7.3-1.5.4-1.7-.7 0 0 0-.1-.1-.1-1.6-.3-2.5-2.1-4.3-2-.4-.2-.8-.5-1.2-.7 1-.7 2-.1 2.8.2 1.3.5 2.5 1.3 3.9 1.5.1 0 .2.1.3.2-.3.6 0 1 .6.9.9-.2 1.5.1 2.2.4.2.1.4.1.6.2-.5.6-1.1.4-1.7.2z" fill="#f8c597"/><path d="M124.3 125.5c.8.2 1.5 0 2.2-.5.8.2 1.6.4 2.3.9.7.5.2.6-.3.8.3.4 1.1.3.9 1-.5.1-.8-.4-1.2-.5-1.3-.6-2.6-1.1-3.9-1.7z" fill="#f3c18e"/><path d="M128.2 127.2c.5-.1.8.3 1.2.5.1.2.3.2.5.2l.5.5c.8.4.4 1.3.7 1.9.2.1.2.3.2.5.3 1.4.7 2.8.5 4.3-.1.1-.2.1-.2 0-.4-1.6-.4-3.2-1-4.8-.6-1.3-1.4-2.2-2.4-3.1z" fill="#f3c395"/><path class="st1405" d="M127.9 122.4c.2.4.9-.1 1 .5-.5.4-1 .7-1.7.7-.2-.7 0-1.1.7-1.2zm1.2 1.4c-.6.2-.9.3-1.4.4.3-.5.6-.6 1.4-.4z"/><path d="M131.1 130.3c-.7-.5-.3-1.3-.7-1.9.6-.1.6.7 1.2.7 0 .2.1.4.2.5-.2.3-.8.2-.7.7z" fill="#eebb8c"/><path class="st1534" d="M131.5 135.1h.2c-.2.9-.5 1.8-.7 2.6-.6.2-.9 1-1.7.7-.1-.1-.1-.3 0-.4.9-.6 1.2-1.6 1.7-2.4.3-.1.4-.2.5-.5z"/><path d="M98.4 115.7c.4.1.8.2 1.2.2 1.4.6 2.7-.1 3.3-1.4.3-.6.3-1.8 1.6-1.7.4 0 .4-.6.4-1 .1-.1.2-.1.3-.1.2.1.3.2.3.4 0 .1.1.2.1.4-.1 3-2.6 4.9-5.5 4.3-1-.3-2-.5-3-.9-.6-.3-1.2-.2-1.9-.3h-.7c-.2-.1-.4-.2-.5-.3-.1-.3.3-.2.4-.2 1.1-.5 2-.1 3 .3.4.1.7.2 1 .3z" fill="#d8915a"/><path d="M95.5 116.2v-.3c.3-.3.7-.2 1.1-.2 1 .4 2 .6 3 .9.6.2 1.1.3 1.7.5.3.1.6.2.8.2.4.2.9.2.9.8 0 .1-.1.2-.2.3-.7.3-1.2-.4-1.8-.4-1.2-.2-2.3-1.1-3.6-1-.6-.1-1.1-.8-1.9-.8z" fill="#e3a46f"/><path d="M101.1 118.1c.6.1 1.3.2 1.9.2.3-.2.6-.1.8 0 1.6.7 3.3 1 4.9 1.7.2.1.3.2.3.4h-1.2c-1.5-.5-2.9-1.1-4.6-1.2-.6-.5-1.5-.6-2.1-1.1z" fill="#eaaa70"/><path d="M96.7 116c-.4 0-.8 0-1.2-.1-.1-.1-.2-.1-.3-.2.6-.4 1.3-.4 1.9 0 0 .2-.2.2-.4.3z" fill="#c1773d"/><path d="M122.7 136.3c.4 2.1-.2 4.2-.2 6.2-.4.5-.4 1.2-1 1.7h-.2c.2-.4.3-.8.5-1.2-.1-.1-.1-.2-.1-.3-.1-1.2.3-2.4.1-3.7-.1-1-.5-2 .6-2.7 0-.1.1-.1.3 0z" fill="#f2c093"/><path d="M123.1 140.9v-.5c.2-.2 0-.5.1-.7.4-.4.3-1.4.9-1.3.7.1 1.6-.1 2 .8 0 .1-.1.2-.2.3-.4.3-.8.6-1.3.1-.1.5-.1.8-.2 1.2-.5 0-.3-.5-.5-.7-.4.3-.6.8-.5 1.3 0 .2 0 .4-.2.5-.3-.4-.2-.7-.1-1z" fill="#e7ac74"/><path class="st1389" d="M123.1 140.9v1l-.5.5c.1-.6.2-1.1.5-1.5z"/><path d="M123.9 122.2c-1.6.1-2.9-.8-4.2-1.5-.8-.4-1.8-.4-2.7-.4-.2-.1-.3-.2-.5-.2v-.7c1 .5 2 .7 3.2.6.4 0 1.1.4 1.3.7.6.8.9.3 1.4-.1.1-.1.2.1.2.3.7.2 1.4.2 1.9.7-.3 0-.5.3-.6.6z" fill="#facda3"/><path d="M110.2 117.4c-.3 0-.6-.2-.7-.5-1.1-.8-2.3-1.5-3.3-2.5-.2-1.3-.5-2.5.2-3.7h.2c-.1 1.1.1 2.1.4 3.2.2.6.6 1.1 1 1.2 1.5.5 2.1 2.1 3.6 2.5 1.5.4 2.8 1.2 4 2.2-1.2.1-2-.8-2.9-1.2-.3-.1-.6-.3-.9-.3-.5-.4-1.1-.6-1.6-.9z" fill="#e8a670"/><path d="M106.4 110.6c.1 1.3-.3 2.6.2 3.9.4.8 1.5 1 1.7 2-.1.1-.3.2-.5.1-.5-.1-1-.5-1.4-.8-.1-.1-.2-.3-.3-.4-.5-1.1-.1-2.3-.5-3.3 0-.1-.1-.1-.1-.2-.1-.2-.1-.3-.1-.5-.1.2-.1.4-.2.5h-.2c-.1-.7-.4-1.4-.2-2.1.5-.2.7 1.8 1.4.2.2-.1.3 0 .2.3-.1 0 0 .2 0 .3z" fill="#d4884b"/><path d="M106.3 110.2c-.1-.1-.2-.2-.2-.3.1-.8-.3-1.7.5-2.4-.1.9.2 1.8-.3 2.7z" fill="#e08f48"/><path class="st1470" d="M100.8 113.5c.8.5.9 1 .2 1.7h-.2c-.1-.1-.1-.1-.1-.2s0-.1.1-.1c.8-.4-.2-.9 0-1.4z"/><path class="st1471" d="M100.8 115v.2c0 .3.1.8-.5.5.3-.2 0-.8.5-.7z"/><path d="M129.4 138v.5c-.4.9-1.2-.1-1.7.2-.2-.2-.5-.3-.7-.5-.2-.5-.5-.9-1-1.1-.2-.1-.4-.2-.5-.3-1.3-2.4-3.7-2.4-5.9-3-1-.3-2.1-.3-3.2-.3-.5 0-1.1 0-1.3-.8-.1-.4-.5-.5-.8-.4-.7.2-1.3-.1-2 0-1.1.1-2.1-.2-3.1-.6-.4-.2-.8-.3-1.2-.5 0-.2 0-.3.2-.2 1.9.4 3.7 1.3 5.8 1 .9-.1 1.8-.3 2.5.6.1.1.5.1.7.1 1.4-.3 2.7.1 4 .3.9.2 1.8 0 2.7.2.5.3.9.6 1.4.8.9.3 1.4.9 1.7 1.9.2.7.6 1.4 1.2 1.8.1 0 .2.1.3.1.2.1.5.1.7.1.1.1.1.1.2.1z" fill="#f7c595"/><path class="st1434" d="M108.3 131l-.2.2h-.5c-.8-.4-1.6-.3-2.4-.7-.2-.2-.3-.4-.5-.5-1.4-.3-2.9-.8-4.2-.4-1.3.4-2.5.2-3.4-.3-.8-.5-2.2-.7-2.4-2 1 .4 1.9.8 2.9 1.2.6.7 1.3.9 2.1.5.6-.3 1.2-.2 1.7 0 .6.2 1.1.2 1.6.2 1.8.3 3.5 1.2 5.3 1.8z"/><path class="st1496" d="M127.9 134.2c0-1 1.2-2 .1-3-.1-.1.1-.5.5-.7.1.4.2 1 .8.8.1 0 .1 0 .2.1l.2.2c.2.6.3 4.6.1 5.2-.5.4-.7-.1-.9-.4-.2-.3-.2-.7-.4-1l-.6-1.2z"/><path class="st1534" d="M128.4 138c-1.2-.2-1.6-1.3-1.8-2.1-.2-1-.8-1.4-1.5-1.6-.6-.2-1-.6-1.3-1.1 1.1-.2 2.1.5 3.2.3 0 .5-.5.4-.6.8 1 0 .9 1.5 2 1.5.9.8.1 1.5 0 2.2z"/><path d="M128.4 138c-.6-.7.6-1.4 0-2.2v-.5c.7.2.6 1.1 1.2 1.4.6-.4.6-1.3 1.4-1.4v.2c-.1 1.4-.8 2.4-1.7 2.4-.2-.1-.6.5-.9.1z" fill="#fad2ae"/><path class="st1496" d="M125.8 130.1c-.2.5-.3 1-.5 1.4-.9-.8 0-1 .5-1.4zm4.5.9l.2.2c-.4.3-.8.3-1.2 0 .3-.4.6-.4 1-.2z"/><path d="M129.4 131.3h1.2c.3 1.3.7 2.7.5 4.1-.5.5-.5 1.4-1.4 1.4.1-.5.3-1-.1-1.5-.3-.3-.1-.8 0-1.1.3-1 .1-2-.2-2.9z" fill="#fbdaba"/><path d="M116.4 122.9c-.5-.2-1.1-.4-1.6-.5 0-.1 0-.1-.1-.2.6-1 .6-1.1-.4-1.4-1.7-.4-3.2-1.2-4.6-2.2-.3-.2-.6-.4-.5-.8.2-.1.3-.1.5.1 1.9.9 3.7 1.9 5.7 2.5.9.2 1 1.6 1.6 2.3.2.1-.3.1-.6.2z" fill="#a9642d"/><path class="st1549" d="M108.2 116.4c-.6-.6-1.5-1-1.7-1.9 1 .8 2.1 1.4 2.9 2.4h-.5c-.3.1-.7 0-.7-.5z"/><path d="M109.7 117.8h-.5c-.9.1-1.4-.8-2.3-.9-.3-.3-.7-.7-.4-1.2.4.2.8.5 1.2.7.5.3 1 .6 1.4 1 .3.1.4.3.6.4z" fill="#a66134"/><path class="st1549" d="M110.2 117.4c.6.2 1.3.4 1.7 1-.7-.2-1.3-.4-1.7-1z"/><path d="M109.2 117.4c-.6-.2-1.1-.5-1.4-1h.5c.2.2.5.3.7.5.1.1.1.3.2.5z" fill="#c17746"/><path d="M107.1 116.8c.9-.1 1.3.8 2.1 1 1.6 1.3 3.3 2.3 5.3 2.7.4.1 1.1 0 1 .7 0 .5-.1 1-.8.9-.2-.1-.3-.2-.5-.2-.3-.2.5-.5.1-.6-.4-.1-.9-.6-1.3.2-.4-.1-.8-.2-1.1-.3-.2-.2-.6 0-.6-.4-.3-1-1.1-1.4-1.9-1.7-.8-.4-1.3-1-2-1.5-.2-.2-.6-.4-.3-.8z" fill="#723814"/><path d="M111.3 120.8c.2.1.4.3.6.4-1 0-1.9-.7-2.9-.7-2-.7-4-1.4-6-2.2v-.2c.3-.3.7-.2 1.1-.1 2.3.7 4.4 1.5 6.7 2.3.2 0 .5.1.5.5z" fill="#e0a063"/><path d="M113 121.5c-.1-.2-.2-.4-.3-.7.5.1.9.1 1.4.2.4 0 .9.1 1 .5.1.6-.7.1-.9.5-.4-.1-.8-.2-1.2-.5z" fill="#52230f"/><path d="M105.1 130.6c.9-.1 1.7.1 2.4.7-1.3.1-2.5-.4-3.7-.5-1.2-.2-2.4-.3-3.6 0-.3.1-.5-.1-.8-.2 1.9-1 3.8-.2 5.7 0z" fill="#efb887"/><path class="st1467" d="M104.2 142.3v-.2c.3-.2.6-.3 1-.2.9-.4 1.8-.3 2.7-.2.7.1 1.4.1 1.2-1-.1-.6.4-.7.8-.9 0-.2-.2-.4-.3-.4-1.7.2-2.3-1.7-3.8-1.9-.2 0-.4-.2-.4-.5 2-.5 3.7.6 5.6 1.3.1-.1-.1-.6.2-1 .6-.8 1.1-1.3 2.3-1 .5.2 1.8.5 2.3-.7.1-.3.4-.2.6 0 .2.2.5.4.8.4 0 .8-.6 1.1-1.2 1.4-.3.1-.6.1-.7.4-.1.8-.5 1.3-1.4 1.4-.3.1-.4.6.1.9.2.1.5.1.8.2.1 0 .2 0 .3.1 1.7.6 1.8.7 1.3 1.9-.8-.8-2.3-.2-2.8-1.5-.1-.3-.6-.2-.9.1-.3.3-.7.6-.9.9-.4.7-.8 1-1.5.3-.2-.2-.5-.2-.6 0-.5.6-1.2.4-1.8.2-1.2-.4-2.5.2-3.7 0z"/><path d="M116.4 142.3c.4-1.3-.7-1.3-1.4-1.7.2-.8.7-.5 1.1-.3.7.4 1.2.2 1.6-.4.5-.8 1-.6 1.4.1.3.5.6 1 .9 1.6.1.2.3.4.6.3.2-.1.4-.4.3-.6-.3-.8-.3-2-1.1-2.3-.9-.4-2.1-.9-3.1-.5-.8.4-1.3 1.3-1.8 2.1-1.7-.3-1.9-.6-1.1-1.6 0-.1.1-.2.1-.2 1.2.3 1-.8 1.3-1.4.3-.5.8-.1 1.1-.4.4-.3.6-.7 1-1-.2-.7.2-.8.7-.7.4.1.7.5 1.2.4 1.7.7 2.6 1.9 2.5 3.7 0 1.2.3 2.4-.1 3.5-.2.1-.3.2-.5.2-.8 0-1.5 0-2.2.8-.5.6-1 .2-1.1-.4-.3-.5-.4-1.3-1.4-1.2z" fill="#fbd4b3"/><path d="M121.5 143c.2-1.4-.2-2.8-.1-4.2 0-.6-.4-1.5-1.1-1.9-.5-.3-.8-.7-1.2-1.1 0-.8-.3-1.2-1.2-1-.6.1-1.3-.5-2-.1-.4.2-1.2-.1-1.2.8 0 .3-.5.2-.8.2-1.4 0-2.8 0-4.1.4-.4.1-.9-.1-.8-.5.2-.8-.6-1.1-.8-1.6 1 .1 2.1-.4 2.8.8.3.4 1.2.6 1.5-.2.3-.7 1-.4 1.4-.8 1.2-.2 2.3-.1 3.5 0 .9 0 1.9-.1 2.8.5.1.1.3.2.3.3.1 1.6 1.3 2.8 1.2 4.4-.1 1.2.1 2.4-.1 3.7v.2c0 .1-.1.1-.1.1z" fill="#facda4"/><path class="st1435" d="M101.9 136.2c-.1 0-.2.1-.2.1-.1 0-.2 0-.2-.2 0-.1.1-.2.2-.2.2 0 .2.1.2.3z"/><path class="st1441" d="M120.3 134.6c-1.1-.6-2.4-.3-3.5-.5-.9-.1-1.8.1-2.7-.3-1.4-.1-2.9.3-4.3-.2 1-.1 2 .2 2.9-.2.4-.3.8-.3 1.2 0 .4 0 .9-.3.8-.7-.1-.6-.6 0-1-.1-.9-.3-1.8 0-2.8 0-.3-.8-1.4-.1-1.7-1 1.8.5 3.6.5 5.4.5.4 0 1.1-.3.8.7-.1.4.3.3.5.3 2.1-.2 4.1.3 6.1.8 1.2.3 2.8.8 3.2 1.6.5 1.1 1.9 1.3 1.8 2.7-1.2-1.1-2.8-1.6-3.8-2.9-.3-.4-.9-.7-1.2-.2-.4.5.5.5.6.8 0 .1.1.3.1.4h-.2c-.6.1-.9-.4-1.2-.8-.4-.3-.7-.6-1-.9z"/><path d="M96 131.1c.4.6-.2.4-.4.4-.4-.6.1-.4.4-.4z" fill="#713410"/><path d="M113.8 133.4h-1.2c-.2 0-.5.1-.6-.2 0-.3.3-.3.5-.2.4.2 1.1-.5 1.3.4z" fill="#e39e61"/><path class="st1467" d="M116.4 142.3c.5.1.4-.5.8-.6.3.6.6 1.3.8 2 .1.6.4.7.7.2.6-1 1.4-1.1 2.3-.5-.6.4-1.3.8-1.9 1.2-.9.9-1.9 1.1-2.9.2-.2-.2-.4-.5-.4-.7.1-.6.4 0 .6-.1.7-.3.7-.7 0-1.7z"/><path d="M92.7 141.1l-.2.2c-.2.2-.5.1-.6 0-.5-.6-1-.4-1.5-.2-.7-.6-1.8-.9-1.7-2.2.1-1.1.6-1.8 1.7-1.6.7.1 1.3.6 2.1.4.1 0 .2.1.3.2.3 1.2 1.1 1.5 2.2 1.6.3 0 .7.3.6.7-.1.5-.4.6-.9.4-.3-.1-.7.1-.9-.1-1.1-.6-1.1 0-1.1.6z" fill="#fbdfc4"/><path d="M97 140.5c.9-.6 1.3-1.9 2.6-.7.3.3.5-.1.6-.4.2-.4.6-.9 1-.5.4.5 1.5.4 1.2 1.4-.3 1.4-.4 1.3-1.8 1-1.1-.2-2.3-.5-3.6-.8z" fill="#fcdec4"/><path d="M105.4 137c.3.3.7.4 1.1.4.7 0 1 .3 1.2.9.1.5.4.8 1 .5.9-.5 1.2.6 1.7.9.4.2-.1.4-.4.4-.7 0-.9.2-.6.9.3.8-.2.9-.8.9-1.2 0-2.3 0-3.5-.1 1.2-.8 1.8-.8 3.2-.3.1-1.7-1.1-2.5-2.3-3-.7-.3-1.4-1-2.3-.5-.3.2-.2-.5-.2-.7.7.4 1.2 0 1.9-.3z" fill="#f9d6b2"/><path class="st1522" d="M90.3 141.1c.6-.7 1.1-.9 1.6 0 .1.1.3.1.5.2-.8.7-1.4-.4-2.1-.2z"/><path class="st1463" d="M96.5 142.3h-2.9c1-.4 1.9-.4 2.9 0z"/><path class="st1516" d="M100.6 142.8c-.8-.1-1.6.2-2.4-.2.8.1 1.6-.3 2.4.2z"/><path class="st1469" d="M126 139.4v-.2c.6.1 1.1.5 1.7.7-.3 1.2.9.6 1.2 1-.1.3-.3.4-.6.3-1-.3-1.8-.8-2.3-1.8z"/><path class="st1527" d="M127.7 139.9c-.7.2-1.2-.4-1.7-.7-.7-.1-1.3-.2-1.9-.7-.1.6-.6 1-.8 1.5-.1.1-.2.3-.2.4.1-.9.2-1.7.2-2.6 0-.5.3-.8.8-.6.6.2 1.2.6 1.7.9.8.4 1.3 1.2 1.9 1.8z"/><path class="st1563" d="M101.3 117.4c-.6-.2-1.1-.3-1.7-.5 0-.4.2-.3.5-.2.9.1 1.9.4 2.8-.2 1.5-1 2.6-2.2 2.5-4.1 1 .7.6 1.6.3 2.4-.4 1.1-1.1 2.1-2.4 2.5-.1.1-.2.1-.4.1-.5.1-1.1-.2-1.6 0z"/><path class="st1564" d="M103 117.1c.9-.6 1.7-1.1 2.2-2.1.5-.9.6-1.7.2-2.7v-.2c-.1-.3.1-.3.3-.3.4.2.5.6.5 1-.1.9.1 1.7.2 2.6-.5 0-.7.4-1 .7-.4.6-1 1.1-1.8 1.2-.2.1-.5 0-.6-.2z"/><path d="M100.1 116.6c-.2.1-.3.1-.5.2-1-.3-2-.6-2.9-.9.1-.2.3-.3.5-.3 1 .4 1.9.7 2.9 1z" fill="#ad6428"/><path class="st1563" d="M105.6 111.8l-.3.3c-.1-.1-.1-.2-.2-.3.1-.2-.1-.5.2-.5.3 0 .3.3.3.5z"/><path d="M103 117.1h.7c.1.1 0 .2-.1.3-.1 0-.1 0-.2.1h.2c1.8.3 3.5 1 5.2 1.5.3.1.6.4.6-.2.9.1 1.4.9 2.1 1.4.3.3.2.5-.2.5-2.8-.9-5.4-2.2-8.3-2.7-.3-.2-.6-.3-1-.5.1-.6.7 0 1-.4z" fill="#542a13"/><path class="st1564" d="M103 117.1c-.2.4-.7.1-1 .5-.3.1-.5-.1-.7-.2.5-.5 1.1-.2 1.7-.3z"/><path d="M120.3 134.6c1.1.1 1.3 1.3 2.2 1.7-.7.8-.6 1.7-.5 2.6-.1.1-.2.1-.2 0-.1-.9-.3-1.7-1-2.3-.3-.3-.5-.5-.2-.9.2-.4-.2-.7-.3-1.1z" fill="#f6c79b"/><path class="st1517" d="M121.7 139h.2c.2 1.3.1 2.6-.2 3.8V139z"/><path d="M103.4 117.6c-.3-.3.3-.3.2-.5.8-.2 1.3-.8 1.7-1.5.3-.4.5-.7.9-.2.1.1.1.2.2.3.1.4.3.8.6 1.1 0 .3.2.4.4.5-.1.7-.7.5-1.1.6-.9.1-1.9-.2-2.9-.3z" fill="#160707"/><path class="st1534" d="M128.4 138c.3.1.6-.4 1 0-.3.1-.7.7-1 0z"/><path d="M103.4 117.6h3c.4 0 .8.1 1.1-.2.6.5 1.3 1 1.9 1.4.1.4.6.4.6.9l-6.6-2.1z" fill="#270e0c"/><path d="M114.7 140.6c-.1-1.2 1.1-1.8 1.7-2.6.2-.3 1.1.3 1.7 0 .4.8 1.2 0 1.6.4.6.5.7 1.3 1 1.9.3.7.7 1.3-.1 1.9-.4.3-.7.3-.9-.2-.3-.9-.9-1.6-1.4-2.5-.1 0-.2.1-.3.1-.6.8-1 1.9-2.3.8-.2-.2-.6-.2-.9.1.1.1 0 .1-.1.1z" fill="#fcd9bc"/><path d="M118 105.6l6.9-.5 10.2 14.2 7.5-17.4 24.9-14.6 8.7-25.3-17.7-30.4-33.4-10L88.3 24 52.1 41.6 40.8 71.1l14.6 28.4 39.4 8s5.1-4.7 8.1-6.7 4.2-4.7 8.1-2.2c3.7 2.5 7 7 7 7z" fill="#801a1f"/><path d="M73.1 64.7V42.1h5v20.1h7.5v2.5H73.1zm17.3 0V42.1H103v2.5h-7.5v7.5h5v2.5h-5v7.5h7.5v2.5H90.4zm19.8 0V44.6h-5v-2.5h15.1v2.5h-5v20.1h-5.1zm12.2-22.6h5v5c0 3-1.7 4.6-5 5v-2.5c1.6-.1 2.5-.9 2.5-2.5h-2.5v-5zm22.3 5h-2.5c-.2-1.7-1-2.5-2.4-2.5-.9 0-1.5.2-2 .6-.4.4-.7 1.1-.7 1.9 0 .6.2 1.2.7 1.8l5.3 6c1 1.1 1.5 2.3 1.5 3.6v1.2c0 1.4-.5 2.5-1.5 3.5s-2.2 1.5-3.6 1.5H137c-1.7 0-2.9-.4-3.8-1.3-.8-.8-1.3-2.1-1.3-3.8h2.5v.4c0 .7.3 1.2.8 1.6.5.4 1.1.5 1.7.5.9 0 1.5-.2 1.9-.6.4-.4.6-1.1.6-1.9 0-.6-.2-1.2-.7-1.8l-5.3-6c-1-1.1-1.5-2.3-1.5-3.6V47c0-1.4.5-2.5 1.5-3.5s2.2-1.5 3.6-1.5h2.5c3.4.1 5 1.8 5.2 5.1zM88.2 85.6c-.2 3.4-1.9 5-5 5h-5c-1.4 0-2.5-.5-3.5-1.5s-1.5-2.2-1.5-3.6V73c0-1.4.5-2.5 1.5-3.5s2.2-1.5 3.6-1.5h5c3.2 0 4.8 1.7 5 5h-2.5c-.2-1.7-1-2.5-2.5-2.5h-2.5c-.7 0-1.3.2-1.8.7-.5.5-.7 1.1-.7 1.8v12.5c0 .7.2 1.3.7 1.8.5.5 1.1.8 1.8.8h2.5c1.5 0 2.3-.8 2.5-2.5h2.4zm4.7 5V68h5v10h5V68h5v22.6h-5v-10h-5v10h-5zm19.8 0V73c0-1.4.5-2.6 1.5-3.6s2.2-1.5 3.5-1.5h5c1.4 0 2.5.5 3.5 1.5s1.5 2.2 1.5 3.5v17.6h-5v-10h-5v10h-5zm5.1-12.6h5v-5c0-.7-.2-1.3-.7-1.8-.5-.5-1.1-.7-1.8-.7s-1.3.2-1.8.7c-.5.5-.7 1.1-.7 1.8v5zm17.3 12.6V70.5h-5V68h15.1v2.5h-5v20.1h-5.1z" fill="#fff"/></svg>