<svg version="1.1" id="Layer_1" xmlns="http://www.w3.org/2000/svg" x="0" y="0" viewBox="0 0 237.1 88.5" xml:space="preserve"><style>.st124{fill:#3a3a3a}</style><path class="st124" d="M148.6 44.2c0 24.4 19.8 44.2 44.2 44.2 24.4 0 44.2-19.8 44.2-44.2C237 19.8 217.2 0 192.8 0c-24.4 0-44.2 19.8-44.2 44.2z"/><path d="M217.6 22.3h-47.5c-4.2 0-7.6 3.4-7.6 7.6v24.2c0 4.2 3.4 7.6 7.6 7.6h4.5v13l13-13h30.1c4.2 0 7.6-3.4 7.6-7.6V29.9c-.1-4.2-3.5-7.6-7.7-7.6z" fill="#c4c5c4"/><path d="M217.6 19h-47.5c-4.2 0-7.6 3.4-7.6 7.6v24.2c0 4.2 3.4 7.6 7.6 7.6h4.5v13l13-13h30.1c4.2 0 7.6-3.4 7.6-7.6V26.5c-.1-4.1-3.5-7.5-7.7-7.5z" fill="#ededed"/><path d="M174.6 57.2h-4.5c-4.2 0-7.6-3.4-7.6-7.6v1.1c0 4.2 3.4 7.6 7.6 7.6h4.5v-1.1zm43 0h-30.1l-13 13v1.1l13-13h30.1c4.2 0 7.6-3.4 7.6-7.6v-1.1c0 4.2-3.4 7.6-7.6 7.6z" fill="#e8e7e7"/><path d="M173.6 29.6h44v5.7h-44zm0 12.5h44v5.7h-44z" fill="#cccbcb"/><path d="M173.6 34.3h44v1h-44zm0 12.5h44v1h-44z" fill="#b6b5b4"/><path class="st124" d="M5.9 47.2H3.4c-.9 0-1.7-.3-2.3-1-.6-.6-1-1.4-1-2.3v-8.1c0-.9.3-1.7 1-2.3.6-.6 1.4-1 2.3-1h3.3c.9 0 1.7.3 2.3 1s1 1.4 1 2.3v8.1c0 1.9-1.1 3-3.2 3.3H10v1.6H7.5c-1 0-1.5-.5-1.6-1.6zM3.4 35.8v8.1c0 .4.2.8.5 1.2.3.3.7.5 1.1.5.5 0 .8-.2 1.2-.5.3-.3.5-.7.5-1.2v-8.1c0-.5-.2-.8-.5-1.2-.3-.3-.7-.5-1.2-.5-.4 0-.8.2-1.1.5-.3.3-.5.7-.5 1.2zm18 0v11.4h-3.2v-1.6c-.1 1.1-.7 1.6-1.6 1.6H15c-.9 0-1.7-.3-2.3-1-.6-.6-1-1.4-1-2.3v-8.1H15v8.1c0 .4.2.8.5 1.2.3.3.7.5 1.1.5.5 0 .8-.2 1.2-.5.3-.3.5-.7.5-1.2v-8.1h3.1zm1.7-1.7v-1.6h3.3v1.6h-3.3zm0 13.1V35.8h3.3v11.4h-3.3zM36.2 39h-1.6c-.1-1.1-.7-1.6-1.6-1.6-.4 0-.8.2-1.1.5-.3.3-.5.7-.5 1.1v4.9c0 .4.2.8.5 1.2.3.3.7.5 1.1.5 1 0 1.5-.5 1.6-1.6h1.6c-.1 2.2-1.2 3.3-3.3 3.3h-1.6c-.9 0-1.7-.3-2.3-1-.6-.6-1-1.4-1-2.3v-5c0-.9.3-1.7 1-2.3.6-.6 1.4-1 2.3-1H33c2 .1 3.1 1.1 3.2 3.3zm1.7 8.2V32.5h3.3v7.3l4.9-4.1h3.3l-6.8 5.7 6.8 5.7h-3.3L41.2 43v4.1h-3.3zm20.5 0H56c-.9 0-1.7-.3-2.3-1-.6-.6-1-1.4-1-2.3v-8.1c0-.9.3-1.7 1-2.3.6-.6 1.4-1 2.3-1h3.3c.9 0 1.7.3 2.3 1s1 1.4 1 2.3v8.1c0 1.9-1.1 3-3.2 3.3h3.2v1.6h-2.4c-1.1 0-1.6-.5-1.8-1.6zM56 35.8v8.1c0 .4.2.8.5 1.2.3.3.7.5 1.1.5.5 0 .8-.2 1.2-.5.3-.3.5-.7.5-1.2v-8.1c0-.5-.2-.8-.5-1.2-.3-.3-.7-.5-1.2-.5-.4 0-.8.2-1.1.5-.3.3-.5.7-.5 1.2zm18 0v11.4h-3.2v-1.6c-.1 1.1-.7 1.6-1.6 1.6h-1.6c-.9 0-1.7-.3-2.3-1-.6-.6-1-1.4-1-2.3v-8.1h3.3v8.1c0 .4.2.8.5 1.2.3.3.7.5 1.1.5.5 0 .8-.2 1.2-.5.3-.3.5-.7.5-1.2v-8.1H74zm11.5 6.5H79v1.6c0 .4.2.8.5 1.2.3.3.7.5 1.1.5h1.6c1.1 0 1.6-.5 1.6-1.6h1.6c-.2 2.2-1.3 3.3-3.2 3.3H79c-.9 0-1.7-.3-2.3-1-.6-.6-1-1.4-1-2.3v-5c0-.9.3-1.7 1-2.3.6-.6 1.4-1 2.3-1h3.3c.9 0 1.7.3 2.3 1 .6.6 1 1.4 1 2.3v3.3zM79 40.7h3.3V39c0-.4-.2-.8-.5-1.1-.3-.3-.7-.5-1.2-.5-.4 0-.8.2-1.1.5-.4.3-.5.7-.5 1.1v1.7zM95.4 39h-1.6c-.1-1.1-.7-1.6-1.5-1.6-.6 0-1 .1-1.3.3-.3.2-.4.6-.4 1 0 .5.8 1.1 2.4 2 1.3.7 2 1.3 2.2 1.7.2.5.3.9.3 1.5 0 .9-.3 1.7-1 2.3-.6.6-1.4 1-2.3 1h-1.6c-2.2 0-3.3-1.1-3.3-3.3h1.6c.1 1.1.6 1.6 1.5 1.6.6 0 1-.1 1.3-.3.3-.2.4-.6.4-1 0-.5-.8-1.1-2.4-2-1.3-.7-2-1.3-2.2-1.7-.2-.5-.3-.9-.3-1.5 0-.9.3-1.7 1-2.3.6-.6 1.4-1 2.3-1h1.6c2 .1 3.1 1.1 3.3 3.3zm3.3-6.5h3.2v3.3h1.6v1.6h-1.6v6.5c0 .5.2.9.5 1.2.4.3.7.4 1 .4h.2v1.6H102c-.9 0-1.7-.3-2.3-1-.6-.6-1-1.4-1-2.3v-6.5h-1.6v-1.6h1.6v-3.2zm6.6 1.6v-1.6h3.3v1.6h-3.3zm0 13.1V35.8h3.3v11.4h-3.3zm8.2-11.4h3.3c.9 0 1.7.3 2.3 1 .6.6 1 1.4 1 2.3V44c0 .9-.3 1.7-1 2.3s-1.4 1-2.3 1h-3.3c-.9 0-1.7-.3-2.3-1-.6-.6-1-1.4-1-2.3v-5c0-.9.3-1.7 1-2.3.6-.6 1.4-.9 2.3-.9zm0 3.2v4.9c0 .4.2.8.5 1.2.3.3.7.5 1.1.5.5 0 .8-.2 1.2-.5.3-.3.5-.7.5-1.2V39c0-.4-.2-.8-.5-1.1-.3-.3-.7-.5-1.2-.5-.4 0-.8.2-1.1.5-.3.3-.5.7-.5 1.1zm8.2 8.2V35.8h3.3v1.6c.1-.5.2-1 .5-1.2.3-.3.6-.4 1.1-.4h1.6c.9 0 1.7.3 2.3 1 .6.6 1 1.4 1 2.3v8.2h-3.2V39c0-.4-.2-.8-.5-1.1-.3-.3-.7-.5-1.2-.5-.4 0-.8.2-1.1.5-.3.3-.5.7-.5 1.1v8.2h-3.3zm14.8-4.9v-1.6c0-1.4.7-2.5 2.1-3.3l.3-.2c.6-.4.9-.8.9-1.4 0-.4-.2-.8-.5-1.2-.3-.3-.7-.5-1.2-.5h-1.6c-1 0-1.5.5-1.6 1.6h-1.6c.3-2.2 1.4-3.3 3.3-3.3h3.3c.9 0 1.7.3 2.3 1 .6.6 1 1.4 1 2.3 0 1.4-.6 2.4-1.9 2.9l-.3.1c-.6.3-.9.5-1 .8s-.1.6-.1 1.1v1.6h-3.4zm0 4.9v-3.3h3.3v3.3h-3.3zM7.5 53H6c-.1-1-.6-1.5-1.4-1.5-.5 0-.9.1-1.2.4-.3.2-.4.6-.4 1.1 0 .4.1.7.4 1.1l3.2 3.6c.6.7.9 1.4.9 2.1v.7c0 .8-.3 1.5-.9 2.1-.6.6-1.3.9-2.1.9H3c-1 0-1.7-.2-2.2-.7-.5-.6-.8-1.3-.8-2.3h1.5v.3c0 .4.2.7.5.9.3.2.6.3 1 .3.5 0 .9-.1 1.1-.4.2-.3.3-.6.3-1.1 0-.4-.1-.7-.4-1.1L.8 55.8c-.5-.6-.8-1.3-.8-2V53c0-.8.3-1.5.9-2.1.6-.6 1.3-.9 2.1-.9h1.5c1.9 0 2.9 1 3 3zM9 53h3v1.5c0-.5.1-.9.4-1.1.3-.2.6-.4 1.1-.4H15c.8 0 1.5.3 2.1.9.6.6.9 1.3.9 2.1v4.5c0 .8-.3 1.5-.9 2.1-.6.6-1.3.9-2.1.9h-3v3H9V53zm3 9h1.5c.4 0 .8-.1 1.1-.4.3-.3.4-.6.4-1.1V56c0-.4-.1-.8-.4-1.1-.3-.3-.6-.4-1.1-.4-.4 0-.8.1-1 .4-.3.3-.5.7-.5 1.1v6zm16.5-3h-6v1.5c0 .4.1.8.4 1.1.3.3.6.4 1 .4h1.5c1 0 1.5-.5 1.5-1.5h1.5c-.2 2-1.2 3-3 3h-3c-.8 0-1.5-.3-2.1-.9-.6-.6-.9-1.3-.9-2.1V56c0-.8.3-1.5.9-2.1.6-.6 1.3-.9 2.1-.9h3c.8 0 1.5.3 2.1.9.6.6.9 1.3.9 2.1v3zm-5.9-1.5h3V56c0-.4-.1-.8-.4-1.1-.3-.3-.6-.4-1.1-.4-.4 0-.8.1-1 .4-.3.3-.4.6-.4 1.1v1.5zm13.5 0V56c0-.4-.1-.8-.4-1.1-.3-.3-.6-.4-1.1-.4h-1.5c-.9 0-1.4.5-1.5 1.5h-1.5c.2-2 1.2-3 3-3h3c.8 0 1.5.3 2.1.9.6.6.9 1.3.9 2.1v7.5h-3V62c-.1 1-.6 1.5-1.5 1.5h-1.5c-.8 0-1.5-.3-2.1-.9-.6-.6-.9-1.3-.9-2.1s.3-1.5.9-2.1 1.3-.9 2.1-.9h3zm0 1.5h-1.5c-.4 0-.8.1-1 .4-.3.3-.4.6-.4 1.1 0 .4.1.8.4 1.1.3.3.6.4 1 .4s.8-.1 1.1-.4c.3-.3.4-.7.4-1.1V59zm4.5 4.5V50h3v6.7l4.5-3.7h3l-6.3 5.2 6.3 5.2h-3l-4.5-3.7v3.7h-3zM55.7 50h3v3h1.5v1.5h-1.5v6c0 .5.2.9.5 1.1.3.3.6.4.9.4h.1v1.5h-1.5c-.8 0-1.5-.3-2.1-.9-.6-.6-.9-1.3-.9-2.1v-6h-1.5V53h1.5v-3zm9.1 3h3c.8 0 1.5.3 2.1.9.6.6.9 1.3.9 2.1v4.5c0 .8-.3 1.5-.9 2.1-.6.6-1.3.9-2.1.9h-3c-.8 0-1.5-.3-2.1-.9-.6-.6-.9-1.3-.9-2.1V56c0-.8.3-1.5.9-2.1.6-.6 1.3-.9 2.1-.9zm0 3v4.5c0 .4.1.8.4 1.1.3.3.6.4 1 .4s.8-.1 1.1-.4c.3-.3.4-.7.4-1.1V56c0-.4-.1-.8-.4-1.1-.3-.3-.6-.4-1.1-.4-.4 0-.8.1-1 .4-.3.3-.4.7-.4 1.1zm19.6-3v10.5h-3V62c-.1 1-.6 1.5-1.5 1.5h-1.5c-.8 0-1.5-.3-2.1-.9-.6-.6-.9-1.3-.9-2.1V53h3v7.5c0 .4.1.8.4 1.1.3.3.6.4 1 .4s.8-.1 1.1-.4c.3-.3.4-.7.4-1.1V53h3.1zm9 3h-1.5c-.1-1-.6-1.5-1.4-1.5-.5 0-.9.1-1.2.3-.3.2-.4.5-.4.9s.7 1 2.2 1.8c1.2.6 1.9 1.2 2 1.6.2.4.3.9.3 1.3 0 .8-.3 1.5-.9 2.1-.6.6-1.3.9-2.1.9h-1.5c-2 0-3-1-3-3h1.5c.1 1 .6 1.5 1.4 1.5.5 0 .9-.1 1.2-.3.3-.2.4-.5.4-.9s-.7-1-2.2-1.8c-1.2-.6-1.9-1.2-2.1-1.6s-.3-.9-.3-1.3c0-.8.3-1.5.9-2.1.6-.6 1.3-.9 2.1-.9h1.5c2 0 3 1 3.1 3zm4.6 7.5V50h3v4.5c.1-.5.2-.9.5-1.1.3-.2.6-.4 1-.4h1.5c.8 0 1.5.3 2.1.9.6.6.9 1.3.9 2.1v7.5h-3V56c0-.4-.1-.8-.4-1.1-.3-.3-.6-.4-1.1-.4-.4 0-.8.1-1 .4-.3.3-.4.6-.4 1.1v7.5H98zm19.5-4.5h-6v1.5c0 .4.1.8.4 1.1.3.3.6.4 1 .4h1.5c1 0 1.5-.5 1.5-1.5h1.5c-.2 2-1.2 3-3 3h-3c-.8 0-1.5-.3-2.1-.9-.6-.6-.9-1.3-.9-2.1V56c0-.8.3-1.5.9-2.1.6-.6 1.3-.9 2.1-.9h3c.8 0 1.5.3 2.1.9.6.6.9 1.3.9 2.1v3zm-6-1.5h3V56c0-.4-.1-.8-.4-1.1-.3-.3-.6-.4-1.1-.4-.4 0-.8.1-1 .4-.3.3-.4.6-.4 1.1v1.5zm10.6 6h-3V53h3v3c.1-1 .4-1.7.9-2.2.5-.5 1.2-.7 2.1-.7h1.5v3h-3c-.4 0-.8.1-1 .4-.3.3-.4.6-.4 1.1v5.9z"/><path class="st124" d="M135.6 59h-6v1.5c0 .4.1.8.4 1.1.3.3.6.4 1 .4h1.5c1 0 1.5-.5 1.5-1.5h1.5c-.2 2-1.2 3-3 3h-3c-.8 0-1.5-.3-2.1-.9-.6-.6-.9-1.3-.9-2.1V56c0-.8.3-1.5.9-2.1.6-.6 1.3-.9 2.1-.9h3c.8 0 1.5.3 2.1.9.6.6.9 1.3.9 2.1v3zm-6-1.5h3V56c0-.4-.1-.8-.4-1.1-.3-.3-.6-.4-1.1-.4-.4 0-.8.1-1 .4-.3.3-.4.6-.4 1.1v1.5zm9.1 1.5v-9h3v9h-3zm0 4.5v-3h3v3h-3z"/></svg>