<svg xmlns="http://www.w3.org/2000/svg" viewBox="0 0 154.4 64.4"><linearGradient id="a" gradientUnits="userSpaceOnUse" x1="-1412.033" y1="1886.467" x2="-1418.738" y2="1874.074" gradientTransform="rotate(90.08 284.252 1736.148)"><stop offset="0" stop-color="#333"/><stop offset=".145" stop-color="#395858"/><stop offset=".306" stop-color="#3f797a"/><stop offset=".471" stop-color="#439494"/><stop offset=".639" stop-color="#46a6a7"/><stop offset=".813" stop-color="#48b1b2"/><stop offset="1" stop-color="#49b5b6"/></linearGradient><path fill="url(#a)" d="M142.8 23.7l-2.7 20 14.3-1.4z"/><linearGradient id="b" gradientUnits="userSpaceOnUse" x1="-1421.13" y1="1998.633" x2="-1435.726" y2="2031.069" gradientTransform="rotate(90.08 284.252 1736.148)"><stop offset="0" stop-color="#333"/><stop offset=".145" stop-color="#395858"/><stop offset=".306" stop-color="#3f797a"/><stop offset=".471" stop-color="#439494"/><stop offset=".639" stop-color="#46a6a7"/><stop offset=".813" stop-color="#48b1b2"/><stop offset="1" stop-color="#49b5b6"/></linearGradient><path fill="url(#b)" d="M0 42.3l14.1 3L7.4 0z"/><path d="M7.4 0v34.8c0 5.8 4.7 10.5 10.5 10.6l114.3 19c5.8 0 10.5-4.7 10.6-10.5V23.8L7.4 0z" fill="#3a3a3a"/><path d="M22 34.1l2.9-17.4 3.9.6-2.5 15.5 5.8 1-.3 1.9-9.8-1.6zm24.2-2l-7.7-1.3-.3 1.9c-.1.5 0 1 .3 1.5.3.4.7.7 1.3.8l1.9.3c1.3.2 2-.3 2.2-1.6l1.9.3c-.7 2.5-2.2 3.6-4.5 3.2l-3.9-.6c-1.1-.2-1.9-.7-2.5-1.6-.6-.9-.9-1.9-.7-2.9l1-5.8c.2-1 .7-1.9 1.6-2.5.9-.6 1.9-.9 2.9-.7l3.9.6c1.1.2 1.9.7 2.5 1.6.6.9.9 1.8.7 2.9l-.6 3.9zm-7.4-3.2l3.9.6.3-1.9c.1-.5 0-1-.3-1.4-.3-.4-.7-.7-1.3-.8-.5-.1-1 0-1.4.3-.4.3-.7.7-.8 1.3l-.4 1.9zM52 21.1l3.8.6-.6 3.9 1.9.3-.3 1.9-1.9-.3-1.3 7.7c-.1.6 0 1.2.4 1.6.4.4.7.6 1.1.7h.2l-.3 2-2-.3c-1.1-.2-1.9-.7-2.5-1.6-.6-.9-.9-1.9-.7-2.9l1.3-7.7-1.9-.3.3-1.9 1.9.3.6-4zm7.8 1.3l3.9.6-.6 3.9c-.4 2.3-1.9 3.3-4.5 3.2l.3-1.9c1.3.2 2-.4 2.3-1.6l-1.9-.3.5-3.9zm14.3 10.3l-1.9-.3c0-1.3-.5-2.1-1.5-2.2-.7-.2-1.3-.1-1.7.1-.4.2-.6.6-.7 1.1-.1.6.7 1.5 2.4 2.8 1.4 1.1 2.2 1.9 2.3 2.5.1.6.2 1.2.1 1.8-.2 1.1-.7 1.9-1.6 2.5-.9.6-1.9.9-2.9.7l-1.9-.3c-2.6-.4-3.7-1.9-3.2-4.5l1.9.3c-.1 1.3.4 2.1 1.5 2.2.7.1 1.2.1 1.6-.2.4-.2.6-.6.7-1.1.1-.5-.7-1.5-2.4-2.8-1.4-1.1-2.2-1.9-2.3-2.5-.2-.6-.2-1.2-.1-1.8.2-1.1.7-1.9 1.6-2.5s1.9-.9 2.9-.7l1.9.3c2.5.5 3.6 2 3.3 4.6zm16.6 8.7c-.6 2.6-2.1 3.6-4.5 3.2l-3.9-.6c-1.1-.2-1.9-.7-2.5-1.6-.6-.9-.9-1.9-.7-2.9l1.6-9.6c.2-1.1.7-1.9 1.6-2.5.9-.6 1.9-.9 2.9-.7l3.9.6c2.4.4 3.5 1.9 3.2 4.5l-1.9-.3c.1-1.3-.5-2.1-1.6-2.3l-1.9-.3c-.5-.1-1 0-1.4.3-.4.3-.7.7-.8 1.3l-1.6 9.6c-.1.5 0 1 .3 1.5.3.4.7.7 1.3.8l1.9.3c1.1.2 1.9-.4 2.2-1.6l1.9.3zm1.3 4.2l2.9-17.4 3.9.6-1 5.8c.2-.6.5-1.1.8-1.3s.8-.3 1.4-.3l1.9.3c1.1.2 1.9.7 2.5 1.6.6.9.9 1.8.7 2.9l-1.6 9.7-3.8-.6 1.6-9.7c.1-.5 0-1-.3-1.4-.3-.4-.7-.7-1.3-.8-.5-.1-1 0-1.4.3-.4.3-.7.7-.8 1.3l-1.6 9.7-3.9-.7zm22.7-4.3l.3-1.9c.1-.5 0-1-.3-1.4-.3-.4-.7-.7-1.3-.8l-1.9-.3c-1.1-.2-1.9.3-2.2 1.6l-1.9-.3c.7-2.5 2.2-3.6 4.5-3.2l3.9.6c1.1.2 1.9.7 2.5 1.6.6.9.9 1.8.7 2.9l-1.6 9.7-3.8-.6.3-1.9c-.4 1.3-1.1 1.8-2.3 1.6l-1.9-.3c-1.1-.2-1.9-.7-2.5-1.6-.6-.9-.9-1.9-.7-2.9.2-1 .7-1.9 1.6-2.5.9-.6 1.9-.9 2.9-.7l3.7.4zm-.4 2l-1.9-.3c-.5-.1-1 0-1.5.3-.4.3-.7.7-.8 1.3-.1.5 0 1 .3 1.5.3.4.7.7 1.3.8.5.1 1 0 1.5-.4s.7-.7.8-1.3l.3-1.9zm9.8-10.3l3.8.6-.6 3.9 1.9.3-.3 1.9-1.9-.3-1.3 7.7c-.1.6 0 1.2.4 1.6.4.4.7.6 1.1.7h.2l-.3 1.9-1.9-.3c-1.1-.2-1.9-.7-2.5-1.6-.6-.9-.9-1.9-.7-2.9l1.3-7.7-1.9-.3.3-1.9 1.9.3.5-3.9z" fill="#fff"/></svg>