<svg xmlns="http://www.w3.org/2000/svg" viewBox="0 0 213 131.8"><path d="M0 86.4h3.4v20.4h6.7v3.4H0V86.4zm12 0h10.1v3.2h-6.7v7h5.9v3.2h-5.9v7h6.7v3.4H12V86.4zm14.3 3.2h-3.9v-3.2h11.3v3.2h-3.9v20.6h-3.4V89.6zm8.3-3.2H38v3.4l-3.4 2.5v-5.9zm17.1 6.8h-3.4v-.8c0-.8-.2-1.5-.6-2-.4-.6-1-.9-1.9-.9-.5 0-.9.1-1.2.3-.3.2-.5.4-.7.7-.2.3-.3.6-.4 1-.1.4-.1.8-.1 1.2v1.2c0 .3.1.6.3.8.1.2.3.4.6.6s.6.4 1.1.5l2.6 1c.8.3 1.4.6 1.8 1 .5.4.8.8 1.1 1.4.3.5.4 1.1.5 1.8.1.7.1 1.5.1 2.3 0 1-.1 1.9-.3 2.8s-.5 1.6-1 2.2c-.5.6-1.1 1.1-1.8 1.5-.8.4-1.7.5-2.8.5-.8 0-1.6-.1-2.3-.4-.7-.3-1.3-.7-1.8-1.2s-.9-1.1-1.2-1.8c-.3-.7-.5-1.4-.5-2.2v-1.3h3.4v1.1c0 .6.2 1.2.6 1.7s1 .8 1.9.8c.6 0 1-.1 1.4-.2.3-.2.6-.4.7-.7.2-.3.3-.7.3-1.1 0-.4.1-.9.1-1.5s0-1.1-.1-1.5c0-.4-.1-.7-.3-1-.1-.2-.3-.4-.6-.6-.3-.2-.6-.3-1-.5l-2.4-1c-1.5-.6-2.5-1.4-3-2.4s-.8-2.2-.8-3.7c0-.9.1-1.7.4-2.5.2-.8.6-1.5 1.1-2.1.5-.6 1.1-1 1.8-1.4.7-.3 1.6-.5 2.6-.5.8 0 1.6.2 2.3.5.7.3 1.3.7 1.8 1.2s.9 1.1 1.2 1.7c.3.6.4 1.3.4 2v1.5zm18.9 11.6c0 .7-.1 1.4-.4 2.1-.3.7-.7 1.3-1.2 1.8s-1.1.9-1.7 1.2c-.7.3-1.4.5-2.1.5-.6 0-1.3-.1-2-.3-.7-.2-1.3-.5-1.8-.9s-1-1-1.3-1.7c-.3-.7-.5-1.6-.5-2.7V91.6c0-.8.1-1.5.4-2.2s.6-1.2 1.1-1.7c.5-.5 1.1-.9 1.8-1.2.7-.3 1.4-.4 2.3-.4.8 0 1.5.1 2.2.4.7.3 1.2.7 1.7 1.2s.9 1.1 1.2 1.8c.3.7.4 1.5.4 2.3v1.3h-3.4V92c0-.7-.2-1.2-.6-1.7-.4-.5-.9-.7-1.5-.7-.8 0-1.4.3-1.7.8-.3.5-.4 1.2-.4 2v12.2c0 .7.2 1.3.5 1.7s.8.7 1.6.7c.2 0 .5 0 .7-.1.3-.1.5-.2.7-.4.2-.2.4-.4.5-.7.1-.3.2-.7.2-1.2v-1.2h3.4v1.4zM73 86.4h3.4v10.2h4.2V86.4H84v23.8h-3.4V99.6h-4.2v10.6H73V86.4zm17.7 0h2.8l5.3 23.8h-3.4l-1-5.1h-4.6l-1 5.1h-3.4l5.3-23.8zm1.4 6.8l-1.7 8.6h3.4l-1.7-8.6zm8.5-3.6h-3.9v-3.2H108v3.2h-4v20.6h-3.4V89.6zm8.7-3.2h4.3l-1.3 17.9h-1.7l-1.3-17.9zm.5 20.3h3.4v3.4h-3.4v-3.4z"/><path d="M200.2.6l-68-.6c-6.9.2-12.2 5.9-12 12.8l14.9 80.8c.2 6.9 5.9 12.2 12.8 12l26.5-.1-2.7 26.3 18.9-26.4h7.1c6.9-.2 12.2-5.9 12-12.8l3.2-80c-.1-6.8-5.9-12.2-12.7-12z" fill="#ec8400"/><path d="M155.3 52.7c0 1.8-1.5 3.3-3.3 3.3-1.8 0-3.3-1.5-3.3-3.3 0-1.8 1.5-3.3 3.3-3.3 1.9 0 3.3 1.5 3.3 3.3zm13.4 0c0 1.8-1.5 3.3-3.3 3.3-1.8 0-3.3-1.5-3.3-3.3 0-1.8 1.5-3.3 3.3-3.3 1.8 0 3.3 1.5 3.3 3.3zm13.3 0c0 1.8-1.5 3.3-3.3 3.3s-3.3-1.5-3.3-3.3c0-1.8 1.5-3.3 3.3-3.3s3.3 1.5 3.3 3.3z" fill="#fff"/></svg>