<svg version="1.1" id="Layer_1" xmlns="http://www.w3.org/2000/svg" x="0" y="0" viewBox="0 0 185.2 138.2" xml:space="preserve"><style>.st26{fill:#fff}</style><path fill="#8c8c8c" d="M85.7 138.2V0L73.1 3.9v134.3z"/><path fill="#616160" d="M92 138.2V3.9L85.4 0v138.2z"/><linearGradient id="SVGID_1_" gradientUnits="userSpaceOnUse" x1="79.173" y1="142.941" x2="79.173" y2="0"><stop offset="0" stop-color="#fff"/><stop offset="1"/></linearGradient><path opacity=".34" fill="url(#SVGID_1_)" d="M85.2 138.2V0L73.1 3.9v134.3z"/><linearGradient id="SVGID_2_" gradientUnits="userSpaceOnUse" x1="88.69" y1="142.941" x2="88.69" y2="0"><stop offset="0"/><stop offset="1" stop-color="#fff"/></linearGradient><path opacity=".34" fill="url(#SVGID_2_)" d="M92 138.2V3.9L85.4 0v138.2z"/><path d="M77.2 108.7h4.6v5.1h-4.6zm0-11.6h4.6v5.1h-4.6zm0 23.9h4.6v5.1h-4.6zm0-98.9h4.6v5.1h-4.6zm0-11.6h4.6v5.1h-4.6z" fill="#353535"/><path d="M81.2 113h-4v.8h4.5v-5.1h-.5zm0-11.6h-4v.8h4.5v-5.1h-.5zm0 23.9h-4v.8h4.5V121h-.5zm0-98.9h-4v.8h4.5v-5.1h-.5zm0-15.9v4.3h-4v.8h4.5v-5.1z" fill="#000100"/><path d="M90.1 113.1l-2.2.7v-5.1l2.2-.7zm0-11.6l-2.2.7v-5.1l2.2-.7zm0 23.9l-2.2.7V121l2.2-.7zm0-98.9l-2.2.7v-5.1l2.2-.7zm0-11.1l-2.2.2v-5.1l2.2-.2z" fill="#040506"/><linearGradient id="SVGID_3_" gradientUnits="userSpaceOnUse" x1="79.435" y1="102.268" x2="79.435" y2="84.865"><stop offset="0" stop-color="#fff"/><stop offset="1"/></linearGradient><path fill="url(#SVGID_3_)" stroke="#fff" stroke-width=".346" d="M73.1 82.6h12.6v22.7H73.1z"/><linearGradient id="SVGID_4_" gradientUnits="userSpaceOnUse" x1="88.863" y1="101.99" x2="88.863" y2="83"><stop offset="0" stop-color="#fff"/><stop offset="1"/></linearGradient><path fill="url(#SVGID_4_)" stroke="#fff" stroke-width=".346" d="M92 103.2l-6.3 2.1V82.6l6.3-2.1z"/><linearGradient id="SVGID_5_" gradientUnits="userSpaceOnUse" x1="79.435" y1="686.083" x2="79.435" y2="668.68" gradientTransform="matrix(1 0 0 -.9453 0 653.93)"><stop offset="0" stop-color="#fff"/><stop offset="1"/></linearGradient><path opacity=".63" fill="url(#SVGID_5_)" stroke="#fff" stroke-width=".336" d="M85.7 2.5L73.1 6.2V24h12.6z"/><linearGradient id="SVGID_6_" gradientUnits="userSpaceOnUse" x1="88.863" y1="685.225" x2="88.863" y2="662.924" gradientTransform="matrix(1 0 0 -.9453 0 653.93)"><stop offset="0" stop-color="#fff"/><stop offset="1"/></linearGradient><path opacity=".63" fill="url(#SVGID_6_)" stroke="#fff" stroke-width=".336" d="M92 6.2l-6.3-3.7v25.6L92 30z"/><path d="M185.2 64.3c0 5.7-4.7 10.4-10.4 10.4L10.4 91.5C4.7 91.5 0 86.9 0 81.1V40.2c0-5.7 4.7-10.4 10.4-10.4L174.8 6.7c5.7 0 10.4 4.7 10.4 10.4v47.2z" fill="#696863"/><path d="M184.2 63.7c0 5.6-4.6 10.2-10.2 10.2L11.3 90.7c-5.6 0-10.2-4.6-10.2-10.2V40.8c0-5.6 4.6-10.2 10.2-10.2L174 7.5c5.6 0 10.2 4.6 10.2 10.2v46z" fill="#e1e1e0"/><path d="M182.6 62.6c0 5.4-4.4 9.8-9.8 9.8l-160 16.8c-5.4 0-9.8-4.4-9.8-9.8V41.7c0-5.4 4.4-9.8 9.8-9.8l160-23.1c5.4 0 9.8 4.4 9.8 9.8v44z" fill="#aaa798"/><radialGradient id="SVGID_7_" cx="9.665" cy="36.722" r="1.363" gradientUnits="userSpaceOnUse"><stop offset=".444" stop-color="#c2c2c2"/><stop offset=".714" stop-color="#747474"/><stop offset=".815" stop-color="#525252"/><stop offset=".904" stop-color="#747474"/></radialGradient><path d="M11 36.7c0 .8-.6 1.4-1.4 1.4-.8 0-1.4-.6-1.4-1.4 0-.8.6-1.4 1.4-1.4.8.1 1.4.7 1.4 1.4z" fill="url(#SVGID_7_)"/><radialGradient id="SVGID_8_" cx="9.665" cy="84.265" r="1.363" gradientUnits="userSpaceOnUse"><stop offset=".444" stop-color="#c2c2c2"/><stop offset=".714" stop-color="#747474"/><stop offset=".815" stop-color="#525252"/><stop offset=".904" stop-color="#747474"/></radialGradient><path d="M11 84.3c0 .8-.6 1.4-1.4 1.4-.8 0-1.4-.6-1.4-1.4 0-.8.6-1.4 1.4-1.4.8 0 1.4.6 1.4 1.4z" fill="url(#SVGID_8_)"/><radialGradient id="SVGID_9_" cx="175.647" cy="13.625" r="1.363" gradientUnits="userSpaceOnUse"><stop offset=".444" stop-color="#c2c2c2"/><stop offset=".714" stop-color="#747474"/><stop offset=".815" stop-color="#525252"/><stop offset=".904" stop-color="#747474"/></radialGradient><path d="M177 13.6c0 .8-.6 1.4-1.4 1.4-.8 0-1.4-.6-1.4-1.4s.6-1.4 1.4-1.4c.8.1 1.4.7 1.4 1.4z" fill="url(#SVGID_9_)"/><radialGradient id="SVGID_10_" cx="175.647" cy="67.475" r="1.363" gradientUnits="userSpaceOnUse"><stop offset=".444" stop-color="#c2c2c2"/><stop offset=".714" stop-color="#747474"/><stop offset=".815" stop-color="#525252"/><stop offset=".904" stop-color="#747474"/></radialGradient><path d="M177 67.5c0 .8-.6 1.4-1.4 1.4-.8 0-1.4-.6-1.4-1.4 0-.8.6-1.4 1.4-1.4.8 0 1.4.6 1.4 1.4z" fill="url(#SVGID_10_)"/><path class="st26" d="M174.8 6.9L10.4 30C4.7 30 .1 34.6.1 40.4v1.3c2.5 19.4 64.7 18.5 92 14 25.8-4.3 91.1-18 93.2-37.6v-.7c-.1-5.9-4.7-10.5-10.5-10.5z" opacity=".21"/><path class="st26" d="M22.8 43.9l4.6-.5 3 27.4 9.1-1 .5 4.6-13.6 1.5-3.6-32zm15.3-1.6l13.6-1.5.5 4.3-9.1 1 1 9.4 7.9-.9.5 4.3-7.9.9 1 9.4 9.1-1 .5 4.6-13.6 1.5-3.5-32z"/><path class="st26" d="M56.8 44.5l-5.3.6-.5-4.3 15.2-1.7.5 4.3-5.3.6 3.1 27.6-4.6.5-3.1-27.6zm9.8-5.4l4.6-.5.5 4.6-4.2 3.8-.9-7.9zm23.1 6.7l-4.6.5-.1-1c-.1-1-.5-1.9-1-2.6-.6-.7-1.4-1-2.6-.9-.6.1-1.1.2-1.5.5-.4.3-.7.6-.8 1-.2.4-.3.8-.3 1.4v1.6c.1.6.2 1.2.2 1.6.1.4.2.8.5 1.1.2.3.5.5.9.7.4.2.9.4 1.5.6l3.7 1c1.1.3 1.9.6 2.6 1.1.7.5 1.2 1 1.7 1.7.4.7.7 1.4 1 2.3.2.9.4 1.9.5 3.1.1 1.3.2 2.6 0 3.8-.1 1.2-.5 2.2-1 3.1-.5.9-1.3 1.6-2.2 2.2-1 .6-2.2 1-3.6 1.1-1.1.1-2.2 0-3.2-.2-1-.3-1.9-.7-2.6-1.3s-1.4-1.3-1.9-2.2c-.5-.9-.8-1.9-.9-2.9l-.2-1.7 4.6-.5.2 1.4c.1.8.4 1.6 1 2.2.6.6 1.4.9 2.6.7.8-.1 1.4-.3 1.8-.5.4-.3.7-.6.9-1.1.2-.4.3-.9.3-1.5s0-1.3-.1-2c-.1-.8-.2-1.5-.3-2.1-.1-.5-.3-1-.5-1.3-.2-.3-.5-.5-.9-.7-.4-.2-.8-.3-1.4-.5l-3.4-1c-2.1-.6-3.5-1.5-4.3-2.8-.8-1.3-1.3-2.9-1.6-4.9-.1-1.2-.1-2.4.1-3.5s.6-2.1 1.1-2.9 1.3-1.6 2.2-2.1c.9-.6 2.1-.9 3.4-1.1 1.1-.1 2.2 0 3.2.3s1.9.8 2.6 1.4c.7.6 1.4 1.3 1.8 2.1.5.8.7 1.7.8 2.6l-.2 2.2zm25.3 13c.1 1 0 2-.2 2.9-.3.9-.7 1.8-1.3 2.5-.6.7-1.3 1.4-2.1 1.9s-1.8.8-2.8.9c-.9.1-1.8.1-2.7-.1-.9-.1-1.8-.5-2.6-1s-1.5-1.2-2-2.1c-.6-.9-.9-2.1-1.1-3.6l-1.9-17.6c-.1-1 0-2 .2-3s.7-1.8 1.3-2.5c.6-.7 1.3-1.3 2.2-1.8.9-.5 1.9-.8 3-.9 1-.1 2 0 3 .2.9.3 1.8.7 2.5 1.3.7.6 1.3 1.3 1.8 2.2.5.9.8 1.9.9 3l.2 1.8-4.6.5-.2-1.5c-.1-.9-.4-1.6-1-2.2-.6-.6-1.3-.9-2.2-.8-1.1.1-1.9.6-2.1 1.3-.3.7-.4 1.7-.3 2.7l1.8 16.3c.1.9.4 1.7.9 2.3.5.6 1.2.8 2.3.7.3 0 .6-.1.9-.3.3-.1.6-.3.9-.6.3-.3.5-.6.6-1.1s.2-1 .1-1.6l-.2-1.6 4.6-.5.1 2.3zm-.4-25l4.6-.5 1.5 13.7 5.7-.6-1.5-13.7 4.6-.5 3.5 31.9-4.6.5-1.6-14.2-5.7.6 1.6 14.2-4.6.5-3.5-31.9zm22.9-2.6l3.8-.4L151.9 62l-4.6.5-2.1-6.7-6.2.7-.6 7-4.6.5 3.7-32.8zm2.9 9L139.3 52l4.6-.5-3.5-11.3zm9.9-6l-5.3.6-.5-4.3 15.2-1.7.5 4.3-5.3.6 3.1 27.6-4.6.5-3.1-27.6z"/></svg>