<svg version="1.1" id="Layer_1" xmlns="http://www.w3.org/2000/svg" x="0" y="0" viewBox="0 0 97 95.3" xml:space="preserve"><style>.st11{fill:#353535}.st12{fill:#000100}.st13{fill:#040506}.st18{fill:#4f9a98}.st19{fill:#e1e1e0}.st20{fill:#0e7575}.st25{opacity:.21}.st26{fill:#fff}</style><path fill="#8c8c8c" d="M44.9 93.3V0l-6.6 2.1v91.2z"/><path fill="#616160" d="M48.2 93.3V2.1L44.7 0v93.3z"/><linearGradient id="SVGID_1_" gradientUnits="userSpaceOnUse" x1="41.465" y1="96.531" x2="41.465" y2="0"><stop offset="0" stop-color="#fff"/><stop offset="1"/></linearGradient><path opacity=".34" fill="url(#SVGID_1_)" d="M44.6 93.3V0l-6.3 2.1v91.2z"/><linearGradient id="SVGID_2_" gradientUnits="userSpaceOnUse" x1="46.45" y1="96.531" x2="46.45" y2="0"><stop offset="0"/><stop offset="1" stop-color="#fff"/></linearGradient><path opacity=".34" fill="url(#SVGID_2_)" d="M48.2 93.3V2.1L44.7 0v93.3z"/><path class="st11" d="M40.4 78.4h2.4v2.7h-2.4zM40.4 72.3h2.4V75h-2.4zM40.4 84.9h2.4v2.7h-2.4zM40.4 11.6h2.4v2.7h-2.4zM40.4 5.5h2.4v2.7h-2.4z"/><path class="st12" d="M42.5 80.7h-2.1v.4h2.4v-2.7h-.3zM42.5 74.6h-2.1v.4h2.4v-2.7h-.3zM42.5 87.1h-2.1v.4h2.4v-2.6h-.3zM42.5 13.8h-2.1v.5h2.4v-2.7h-.3zM42.5 5.5v2.2h-2.1v.5h2.4V5.5z"/><path class="st13" d="M47.2 80.7l-1.2.4v-2.7l1.2-.4zM47.2 74.6L46 75v-2.7l1.2-.3zM47.2 87.1l-1.2.4v-2.6l1.2-.4zM47.2 13.9l-1.2.4v-2.7l1.2-.4zM47.2 8.1l-1.2.1V5.5l1.2-.1z"/><linearGradient id="SVGID_3_" gradientUnits="userSpaceOnUse" x1="41.603" y1="81.32" x2="41.603" y2="72.205"><stop offset="0" stop-color="#fff"/><stop offset="1"/></linearGradient><path fill="url(#SVGID_3_)" stroke="#fff" stroke-width=".171" d="M38.3 71h6.6v11.9h-6.6z"/><linearGradient id="SVGID_4_" gradientUnits="userSpaceOnUse" x1="46.54" y1="81.175" x2="46.54" y2="71.23"><stop offset="0" stop-color="#fff"/><stop offset="1"/></linearGradient><path fill="url(#SVGID_4_)" stroke="#fff" stroke-width=".171" d="M48.2 81.8l-3.3 1.1V71l3.3-1.1z"/><linearGradient id="SVGID_5_" gradientUnits="userSpaceOnUse" x1="41.603" y1="611.429" x2="41.603" y2="602.314" gradientTransform="matrix(1 0 0 -.9453 0 580.8)"><stop offset="0" stop-color="#fff"/><stop offset="1"/></linearGradient><path opacity=".63" fill="url(#SVGID_5_)" stroke="#fff" stroke-width=".166" d="M44.9 1.3l-6.6 1.9v9.4h6.6z"/><linearGradient id="SVGID_6_" gradientUnits="userSpaceOnUse" x1="46.54" y1="610.981" x2="46.54" y2="599.301" gradientTransform="matrix(1 0 0 -.9453 0 580.8)"><stop offset="0" stop-color="#fff"/><stop offset="1"/></linearGradient><path opacity=".63" fill="url(#SVGID_6_)" stroke="#fff" stroke-width=".166" d="M48.2 3.2l-3.3-1.9v13.4l3.3 1z"/><path class="st18" d="M80.3 36.9c0 3-2.4 5.4-5.4 5.4L5.4 37.7c-3 0-5.4-2.4-5.4-5.4V10.8c0-3 2.4-5.4 5.4-5.4L74 12.9c3 0 5.4 2.4 5.4 5.4l.9 18.6z"/><path class="st19" d="M79.8 36.6c0 2.9-2.4 5.3-5.3 5.3L5.9 37.2C3 37.2.6 34.8.6 31.9V11.1C.6 8.2 3 5.8 5.9 5.8l67.8 7.5c2.9 0 5.3 2.4 5.3 5.3l.8 18z"/><path class="st20" d="M79 36c0 2.8-2.3 5.1-5.1 5.1L6.7 36.4c-2.8 0-5.1-2.3-5.1-5.1V11.6c0-2.8 2.3-5.1 5.1-5.1L73 13.9c2.8 0 5.1 2.3 5.1 5.1l.9 17z"/><radialGradient id="SVGID_7_" cx="5.062" cy="8.954" r=".714" gradientUnits="userSpaceOnUse"><stop offset=".444" stop-color="#c2c2c2"/><stop offset=".714" stop-color="#747474"/><stop offset=".815" stop-color="#525252"/><stop offset=".904" stop-color="#747474"/></radialGradient><path d="M5.8 9c0 .4-.3.7-.7.7-.4 0-.8-.4-.8-.7 0-.4.3-.7.7-.7.5-.1.8.3.8.7z" fill="url(#SVGID_7_)"/><radialGradient id="SVGID_8_" cx="5.062" cy="33.853" r=".714" gradientUnits="userSpaceOnUse"><stop offset=".444" stop-color="#c2c2c2"/><stop offset=".714" stop-color="#747474"/><stop offset=".815" stop-color="#525252"/><stop offset=".904" stop-color="#747474"/></radialGradient><path d="M5.8 33.9c0 .4-.3.7-.7.7-.4 0-.7-.3-.7-.7s.3-.7.7-.7c.4-.1.7.3.7.7z" fill="url(#SVGID_8_)"/><radialGradient id="SVGID_9_" cx="74.534" cy="16.443" r=".714" gradientUnits="userSpaceOnUse"><stop offset=".444" stop-color="#c2c2c2"/><stop offset=".714" stop-color="#747474"/><stop offset=".815" stop-color="#525252"/><stop offset=".904" stop-color="#747474"/></radialGradient><path d="M75.2 16.4c0 .4-.3.7-.7.7-.4 0-.7-.3-.7-.7 0-.4.3-.7.7-.7.4 0 .7.3.7.7z" fill="url(#SVGID_9_)"/><radialGradient id="SVGID_10_" cx="75.352" cy="38.539" r=".714" gradientUnits="userSpaceOnUse"><stop offset=".444" stop-color="#c2c2c2"/><stop offset=".714" stop-color="#747474"/><stop offset=".815" stop-color="#525252"/><stop offset=".904" stop-color="#747474"/></radialGradient><path d="M76.1 38.5c0 .4-.3.7-.7.7-.4 0-.7-.3-.7-.7 0-.4.3-.7.7-.7.3 0 .7.3.7.7z" fill="url(#SVGID_10_)"/><g class="st25"><path class="st26" d="M74.1 12.9L5.5 5.4c-3 0-5.4 2.4-5.4 5.4v.7c1.3 10.1 28.3 15.8 42.8 15.8 29.3 0 37.6-6.9 36.8-8.6v-.4c-.1-3-2.6-5.4-5.6-5.4z"/></g><path class="st18" d="M97 61.6c0 3-2.4 5.4-5.4 5.4L5.4 75.9c-3 0-5.4-2.4-5.4-5.4V49c0-3 2.4-5.4 5.4-5.4l86.1-12.1c3 0 5.4 2.4 5.4 5.4v24.7z"/><path class="st19" d="M96.5 61.3c0 2.9-2.4 5.3-5.3 5.3L5.9 75.4C3 75.4.6 73 .6 70.1V49.3C.6 46.4 3 44 5.9 44l85.2-12.1c2.9 0 5.3 2.4 5.3 5.3v24.1z"/><path class="st20" d="M95.6 60.7c0 2.8-2.3 5.1-5.1 5.1L6.7 74.7c-2.8 0-5.1-2.3-5.1-5.1V49.8c0-2.8 2.3-5.1 5.1-5.1l83.8-12.1c2.8 0 5.1 2.3 5.1 5.1v23z"/><radialGradient id="SVGID_11_" cx="5.062" cy="47.18" r=".714" gradientUnits="userSpaceOnUse"><stop offset=".444" stop-color="#c2c2c2"/><stop offset=".714" stop-color="#747474"/><stop offset=".815" stop-color="#525252"/><stop offset=".904" stop-color="#747474"/></radialGradient><path d="M5.8 47.2c0 .4-.3.7-.7.7-.4 0-.7-.3-.7-.7 0-.4.3-.7.7-.7.4 0 .7.3.7.7z" fill="url(#SVGID_11_)"/><radialGradient id="SVGID_12_" cx="5.062" cy="72.079" r=".714" gradientUnits="userSpaceOnUse"><stop offset=".444" stop-color="#c2c2c2"/><stop offset=".714" stop-color="#747474"/><stop offset=".815" stop-color="#525252"/><stop offset=".904" stop-color="#747474"/></radialGradient><path d="M5.8 72.1c0 .4-.3.7-.7.7-.4 0-.7-.3-.7-.7 0-.4.3-.7.7-.7.4 0 .7.3.7.7z" fill="url(#SVGID_12_)"/><radialGradient id="SVGID_13_" cx="91.991" cy="35.083" r=".714" gradientUnits="userSpaceOnUse"><stop offset=".444" stop-color="#c2c2c2"/><stop offset=".714" stop-color="#747474"/><stop offset=".815" stop-color="#525252"/><stop offset=".904" stop-color="#747474"/></radialGradient><path d="M92.7 35.1c0 .4-.3.7-.7.7-.4 0-.7-.3-.7-.7s.3-.7.7-.7c.4 0 .7.3.7.7z" fill="url(#SVGID_13_)"/><radialGradient id="SVGID_14_" cx="91.991" cy="63.285" r=".714" gradientUnits="userSpaceOnUse"><stop offset=".444" stop-color="#c2c2c2"/><stop offset=".714" stop-color="#747474"/><stop offset=".815" stop-color="#525252"/><stop offset=".904" stop-color="#747474"/></radialGradient><path d="M92.7 63.3c0 .4-.3.7-.7.7-.4 0-.7-.3-.7-.7 0-.4.3-.7.7-.7.4 0 .7.3.7.7z" fill="url(#SVGID_14_)"/><g class="st25"><path class="st26" d="M91.6 31.5L5.5 43.6C2.5 43.6.1 46 .1 49v.7C1.4 59.8 34 59.4 48.3 57c13.5-2.2 47.7-9.4 48.8-19.7V37c-.1-3-2.5-5.5-5.5-5.5z"/></g><linearGradient id="SVGID_15_" gradientUnits="userSpaceOnUse" x1="12.593" y1="44.254" x2="33.133" y2="36.86"><stop offset="0" stop-color="#fff"/><stop offset="1"/></linearGradient><path opacity=".45" fill="url(#SVGID_15_)" d="M6.9 43.3v5.5l26.5-9z"/><linearGradient id="SVGID_16_" gradientUnits="userSpaceOnUse" x1="51.536" y1="38.714" x2="46.878" y2="21.536"><stop offset="0" stop-color="#757575"/><stop offset="1"/></linearGradient><path fill="url(#SVGID_16_)" d="M20.7 38.5l12.7 1.1 46.7-6.7v-2.4z"/><radialGradient id="SVGID_17_" cx="79.497" cy="-1087.18" r="26.317" gradientTransform="matrix(.4896 0 0 .0752 3.872 175.089)" gradientUnits="userSpaceOnUse"><stop offset="0" stop-color="#2a2a2a"/><stop offset=".309" stop-color="#838383"/><stop offset=".566" stop-color="#c6c6c6"/><stop offset=".751" stop-color="#efefef"/><stop offset=".847" stop-color="#fff"/></radialGradient><path d="M55.7 93.3c0 1.1-5.8 2-12.9 2-7.1 0-12.9-.9-12.9-2s5.8-2 12.9-2c7.1.1 12.9.9 12.9 2z" opacity=".51" fill="url(#SVGID_17_)"/><path class="st26" d="M11.7 31.9V12.6H16v17.2h6.4v2.1H11.7zM37.6 25.4H29v2.1c0 .6.2 1.1.6 1.5.4.4.9.6 1.5.6h2.2c1.4 0 2.1-.7 2.1-2.2h2.1c-.3 2.9-1.8 4.3-4.3 4.3H29c-1.2 0-2.2-.4-3-1.3-.9-.8-1.3-1.9-1.3-3V21c0-1.2.4-2.2 1.3-3s1.9-1.3 3-1.3h4.3c1.2 0 2.2.4 3 1.3s1.3 1.8 1.3 3v4.4zM29 23.3h4.3v-2.2c0-.6-.2-1.1-.6-1.5-.4-.4-.9-.6-1.5-.6s-1.1.2-1.5.6c-.4.4-.6.9-.6 1.5v2.2zM42 12.6h4.3v4.3h2.2V19h-2.2v8.6c0 .7.2 1.2.7 1.6.5.4.9.6 1.3.6h.2v2.1h-2.2c-1.2 0-2.2-.4-3-1.3-.8-.8-1.3-1.9-1.3-3V19h-2.2v-2.1H42v-4.3zM50.6 12.6h4.3v4.3c0 2.5-1.4 3.9-4.3 4.3V19c1.4-.1 2.1-.8 2.2-2.1h-2.2v-4.3zM67.9 21.1h-2.1c-.2-1.4-.9-2.1-2-2.1-.8 0-1.3.2-1.7.5-.4.3-.6.7-.6 1.3 0 .6 1 1.5 3.1 2.6 1.7.9 2.7 1.7 2.9 2.3.3.6.4 1.2.4 1.9 0 1.2-.4 2.2-1.3 3-.8.8-1.9 1.3-3 1.3h-2.1c-2.9 0-4.3-1.4-4.3-4.3h2.2c.2 1.4.8 2.2 2 2.2.8 0 1.3-.1 1.7-.5.4-.3.6-.8.6-1.4s-1-1.5-3.1-2.6c-1.7-.9-2.7-1.7-2.9-2.3-.3-.6-.4-1.2-.4-1.9 0-1.2.4-2.2 1.3-3s1.9-1.3 3-1.3h2.1c2.6.1 4 1.5 4.2 4.3z"/><g><path class="st26" d="M34.1 63.5c.5 3.3-.8 5.3-3.9 5.9l-5 1c-1.3.3-2.6 0-3.8-.8-1.2-.8-1.9-1.8-2.2-3.2l-2.5-12.3c-.3-1.3 0-2.6.7-3.8.8-1.2 1.8-1.9 3.2-2.2l5-1c3.1-.6 5.1.7 5.9 4l-2.5.5c-.5-1.6-1.5-2.3-3-2l-2.5.5c-.7.1-1.2.5-1.6 1.1-.4.6-.5 1.2-.4 1.9L24 65.4c.1.7.5 1.2 1.1 1.6.6.4 1.2.5 1.9.4l2.5-.5c1.5-.3 2.1-1.3 2-3l2.6-.4zM37.7 67.9l-4.5-22.3 5-1 1.5 7.4c-.1-.9.1-1.5.4-2 .3-.5.9-.8 1.6-.9l2.5-.5c1.3-.3 2.6 0 3.8.8 1.2.8 1.9 1.8 2.1 3.2L52.6 65l-4.9 1-2.5-12.4c-.1-.7-.5-1.2-1.1-1.6-.6-.4-1.2-.5-1.9-.4-.7.1-1.2.5-1.6 1.1-.4.6-.5 1.2-.4 1.9L42.7 67l-5 .9zM63.1 52.6l-.5-2.5c-.1-.7-.5-1.2-1.1-1.6-.6-.4-1.2-.5-1.9-.4l-2.5.5c-1.5.3-2.1 1.3-2 3l-2.4.4c-.3-3.4 1.1-5.3 4-5.9l5-1c1.3-.3 2.6 0 3.8.8 1.2.8 1.9 1.8 2.1 3.2L70 61.4l-4.9 1-.5-2.4c.1 1.7-.5 2.7-2 3l-2.5.5c-1.3.3-2.6 0-3.8-.8-1.2-.8-1.9-1.8-2.2-3.2-.3-1.3 0-2.6.8-3.8.8-1.2 1.8-1.9 3.2-2.2l5-.9zm.5 2.4l-2.5.5c-.7.1-1.2.5-1.6 1.1-.4.6-.5 1.2-.4 1.9s.5 1.2 1.1 1.6c.6.4 1.2.5 1.9.4.7-.1 1.2-.5 1.6-1.1.4-.6.5-1.2.4-1.9l-.5-2.5zM70.6 38.2l4.9-1 1 5 2.5-.5.5 2.5-2.5.4 2 9.9c.2.8.6 1.4 1.2 1.7.6.3 1.1.4 1.6.3h.2l.5 2.5-2.5.4c-1.3.3-2.6 0-3.8-.8-1.2-.8-1.9-1.8-2.2-3.2l-2-9.9-2.5.5-.5-2.5 2.5-.5-.9-4.8z"/></g></svg>