<svg version="1.1" id="Layer_1" xmlns="http://www.w3.org/2000/svg" x="0" y="0" viewBox="0 0 256.7 86.3" xml:space="preserve"><style>.st38{fill:#aaa798}.st160{fill:#dae1da}.st161{fill:#716f64}.st162{fill:#363435}</style><path class="st38" d="M139.7 57.4l7.3 14.5 7.4 14.4 7.3-14.4 7.4-14.5-11.3 3.7V49.4H151v11.7z"/><path class="st38" d="M147 71.9l7.4 14.4.2-.5V49.4H151v11.7l-11.3-3.7z"/><path class="st38" d="M0 30.4c0-.4.1-.7.2-1.1 0-.1.3-.2.6-.2s.5.1.5.2c-.1.5-.2 1-.1 1.5 0 .1-.2.2-.6.2-.3.1-.6 0-.6-.1v-.5zm.5 2c0-.1.2-.2.5-.2s.6.1.7.2c.2.5.6 1 1 1.5.1.1-.1.2-.4.3-.3 0-.6 0-.7-.1-.5-.7-.9-1.2-1.1-1.7zm.3-4.6c.3-.5.7-1 1.2-1.5.1-.1.4-.2.7-.1.3 0 .5.2.4.3-.4.5-.8 1-1.1 1.4-.1.1-.4.2-.7.1-.3 0-.5-.1-.5-.2zm2.3 7.5c0-.1.1-.2.3-.2.3-.1.6 0 .8.1.7.5 1.5.9 2.3 1.2.2.1.3.2.1.3-.2.1-.6.1-.8 0-1-.3-1.9-.8-2.6-1.3-.1 0-.1-.1-.1-.1zM3.5 25s0-.1 0 0c.6-.5 1.3-1 2-1.4.2-.1.5-.1.8-.1.3.1.4.2.2.3-.7.4-1.3.9-1.9 1.3-.1.1-.5.1-.8.1-.2 0-.3-.1-.3-.2zm4.1-2.6s0-.1.1-.1c.8-.4 1.7-.8 2.6-1.2.2-.1.6-.1.8 0 .2.1.3.2.1.3-.9.4-1.7.7-2.5 1.1-.2.1-.5.1-.8 0-.2.1-.3 0-.3-.1zm.7-6c0-.1.3-.2.6-.2s.6.1.6.2c0 .5.2 1 .6 1.4.1.1-.1.2-.4.3-.3 0-.6 0-.7-.1-.5-.6-.7-1.1-.7-1.6zm.5-1.5c0-.1 0-.1 0 0 .4-.5.9-1 1.5-1.5.1-.1.5-.1.8-.1.3.1.4.2.3.3-.6.5-1.1.9-1.4 1.4-.1.1-.4.2-.7.1-.3-.1-.5-.1-.5-.2zm.4 22.3c0-.1.3-.2.6-.2h.6c1 0 2 0 3.1-.2.3 0 .6 0 .7.1.1.1-.1.2-.4.3-1.2.1-2.4.2-3.5.2h-.7c-.1 0-.4-.1-.4-.2zm1.8-18c0-.1.1-.1.2-.2.2-.1.6-.1.8 0 .5.2 1.2.5 1.9.8.8-.3 1.6-.5 2.4-.7.3-.1.6 0 .8.1.2.1.1.2-.1.3-.7.2-1.5.4-2.2.6.3.1.3.2.1.3-.2.1-.6.1-.8 0-.1 0-.1 0-.2-.1-.2.1-.6.1-.8 0-.2-.1-.2-.2-.1-.3-.8-.3-1.4-.5-2-.8 0 .1 0 .1 0 0zm1.3-7s0-.1.1-.1c.7-.4 1.6-.8 2.5-1.2.2-.1.6-.1.8 0 .2.1.3.2.1.3-.9.4-1.7.8-2.4 1.2-.2.1-.5.1-.8 0-.2-.1-.3-.2-.3-.2zm4.5 24.2c0-.1.1-.1.3-.2 1-.2 2.1-.5 3.2-.8.2-.1.6-.1.8 0 .2.1.2.2-.1.3l-3.3.9c-.3.1-.6 0-.8-.1-.1 0-.1-.1-.1-.1zm.7-26.5c0-.1.1-.1.2-.1.9-.3 1.9-.7 3-1 .2-.1.6-.1.8 0 .2.1.2.2 0 .3-1 .3-2 .7-2.9 1-.2.1-.6.1-.8 0-.2-.1-.3-.1-.3-.2zm-.1 11.3c0-.1 0-.1 0 0 .2-.2.5-.2.8-.2 1.3.3 2.6.4 3.6.5.3 0 .5.1.5.2s-.3.2-.6.2c-1.2-.1-2.6-.2-4-.5-.2-.1-.3-.2-.3-.2zm2.2-2.6c0-.1.1-.2.4-.2 1.2-.2 2.2-.2 3.1-.2.4 0 .8 0 1.2.1.3 0 .5.2.4.3-.1.1-.4.2-.7.1-.2 0-.5-.1-.8-.1-.8 0-1.7.1-2.7.2-.4.1-.7 0-.9-.2 0 .1 0 .1 0 0zM23.5 8c0-.1.1-.1.2-.2 1-.3 2.1-.6 3.2-.9.3-.1.6 0 .8.1.2.1.1.2-.1.3-1.1.3-2.2.6-3.2.9-.2.1-.6.1-.8 0 0-.1-.1-.2-.1-.2zm-.4 26.6c0-.1.1-.1.2-.2 1.6-.6 2.7-1.1 2.7-1.1.2-.1.6-.1.8 0 .2.1.3.2.1.3 0 0-1.1.5-2.8 1.1-.2.1-.6.1-.8 0-.2 0-.2-.1-.2-.1zm1.6-13.4s0-.1.1-.1c.5-.3.7-.7.7-1.3 0-.1.2-.2.5-.2s.6.1.6.2c.1.7-.2 1.2-.9 1.6-.2.1-.5.1-.8.1-.1-.2-.2-.2-.2-.3zM30 6.3c0-.1.1-.1.2-.2 1.1-.3 2.2-.5 3.4-.8.3-.1.6 0 .8.1.2.1.1.2-.2.3-1.1.3-2.3.5-3.3.8-.3.1-.6 0-.8-.1-.1 0-.1-.1-.1-.1zm6.8-1.6c0-.1.1-.1.3-.2 1.1-.2 2.3-.5 3.5-.7.3-.1.6 0 .8.1.2.1.1.2-.2.3-1.2.2-2.3.5-3.5.7-.3.1-.6 0-.8-.1-.1 0-.1 0-.1-.1zm6.9-1.4c0-.1.1-.2.3-.2l3.6-.6c.3 0 .6 0 .8.1.1.1 0 .2-.3.3l-3.6.6c-.3.1-.6 0-.8-.1.1 0 0-.1 0-.1zM51 2.1c0-.1.1-.2.3-.2 1.2-.2 2.5-.4 3.8-.5.3 0 .6 0 .7.1.1.1 0 .2-.3.3-1.2.2-2.5.3-3.7.5-.3.1-.6 0-.8-.2 0 .1 0 0 0 0zm7.5-.9c0-.1.2-.2.4-.2 1.3-.1 2.6-.3 3.9-.4.3 0 .6 0 .7.2.1.1-.1.2-.4.2-1.3.1-2.6.2-3.8.4-.3 0-.6-.1-.8-.2zm7.8-.7c0-.1.2-.2.5-.2 1.3-.1 2.7-.1 4-.2.3 0 .6.1.7.2 0 .1-.2.2-.5.2-1.3 0-2.6.1-3.9.2-.4.1-.7 0-.8-.2.1 0 0 0 0 0zm8-.3c0-.1.2-.2.5-.2h4.1c.3 0 .6.1.6.2s-.2.2-.6.2h-4c-.3.1-.5 0-.6-.2zm8.1.1c0-.1.3-.2.6-.2 1.3 0 2.7.1 4.1.2.3 0 .5.1.5.2s-.3.2-.6.2c-1.3-.1-2.7-.1-4-.2-.4 0-.6-.1-.6-.2zm8 .5c0-.1 0-.1 0 0 .1-.2.4-.2.7-.2 1.3.1 2.7.2 4 .4.3 0 .5.2.4.3-.1.1-.4.2-.7.2-1.3-.1-2.6-.3-3.9-.4-.3-.1-.5-.2-.5-.3zm7.8.8s0-.1 0 0c.1-.2.4-.2.7-.2l3.9.6c.3 0 .5.2.3.3-.1.1-.4.2-.7.1-1.2-.2-2.5-.4-3.8-.5-.2-.1-.4-.2-.4-.3zm7.6 1.2c0-.1 0-.1 0 0 .2-.2.5-.2.8-.2 1.2.2 2.5.5 3.7.7.3.1.4.2.2.3-.1.1-.5.1-.8.1-1.2-.3-2.4-.5-3.6-.7-.2-.1-.3-.1-.3-.2zm7.2 1.5s0-.1.1-.1c.2-.1.5-.1.8-.1 1.2.3 2.3.6 3.4.9.3.1.3.2.2.3-.2.1-.5.1-.8 0-1.1-.3-2.2-.6-3.4-.9-.2 0-.3 0-.3-.1zm6.6 1.8s0-.1.1-.1c.2-.1.6-.1.8 0 1.1.3 2.1.7 3.1 1 .2.1.3.2.1.3-.2.1-.6.1-.8 0-1-.3-2-.7-3.1-1-.1 0-.2-.1-.2-.2zm1 14.7c.3-.6.9-1.1 1.8-1.5.2-.1.6-.1.8 0 .2.1.3.2.1.3-.8.4-1.3.8-1.5 1.3-.1.1-.4.2-.7.2-.3-.1-.5-.2-.5-.3zm.1 1.5c0-.1.2-.2.5-.2s.6.1.7.2c.3.5.8 1 1.5 1.3.2.1.2.2-.1.3-.2.1-.6.1-.8 0-.9-.4-1.5-.9-1.8-1.6 0 .1 0 .1 0 0zm4.7-3.7c0-.1.1-.2.3-.2 1.2-.2 2.5-.3 4-.4.3 0 .6.1.7.2.1.1-.2.2-.5.2-1.4.1-2.6.2-3.7.4-.3.1-.6 0-.8-.2 0 .1 0 0 0 0zm.3-10.4c0-.1.1-.1.2-.1.2-.1.6-.1.8 0 1 .4 1.9.8 2.8 1.2.2.1.2.2-.1.3-.2.1-.6.1-.8 0l-2.7-1.2c-.2 0-.2-.1-.2-.2zm.1 16.3c0-.1.3-.2.6-.2h.4c1 0 2.1-.1 3.2-.3.3-.1.6 0 .8.1.1.1 0 .2-.2.3-1.2.2-2.5.3-3.7.3h-.5c-.4 0-.6-.1-.6-.2zm5.2-13.9c0-.1.1-.1.2-.2.3-.1.6 0 .8.1.8.4 1.6.9 2.3 1.3.2.1.1.2-.2.3-.3.1-.6 0-.8-.1-.7-.4-1.4-.9-2.3-1.3v-.1zm1.8 12.7c0-.1.1-.1.2-.1.8-.3 1.6-.7 2.2-1.2.2-.1.5-.1.8-.1.3.1.4.2.2.3-.7.5-1.5.9-2.4 1.2-.2.1-.6.1-.8 0-.2.1-.2 0-.2-.1zm.4-5.1c0-.1.3-.2.6-.2 1.3 0 2.7.1 4.1.2.3 0 .5.1.5.3-.1.1-.4.2-.7.2-1.3-.1-2.7-.2-3.9-.2-.3-.1-.6-.2-.6-.3zm2-4.9c0-.1.1-.2.3-.2.3 0 .6 0 .8.1.6.5 1.2 1 1.6 1.5.1.1-.1.2-.4.3-.3 0-.6 0-.7-.1-.4-.5-.9-1-1.6-1.6 0 .1 0 0 0 0zm1.5 7.4c.4-.5.7-1 .9-1.5 0-.1.3-.2.7-.2.3 0 .5.1.5.3-.2.5-.5 1-.9 1.5-.1.1-.4.2-.7.1-.4 0-.5-.1-.5-.2zm1-4.5c0-.1.2-.2.5-.2s.6.1.7.2c.1.2.1.4.2.7v1c0 .1-.3.2-.6.2s-.6-.1-.6-.2v-.1-.7c0-.4-.1-.6-.2-.9 0 .1 0 0 0 0zm3.4 2.7c.1-.2.5-.2.8-.2 1.3.2 2.6.4 3.8.6.3.1.4.2.3.3-.1.1-.5.2-.8.1-1.2-.2-2.5-.4-3.7-.6-.2 0-.4-.1-.4-.2zm7.4 1.4s0-.1.1-.1c.2-.1.5-.1.8-.1 1.2.3 2.3.6 3.4.9.3.1.3.2.1.3-.2.1-.5.1-.8 0l-3.3-.9c-.2 0-.3-.1-.3-.1zm4 38.7c0-.2 0-.3.1-.5 0-.1.3-.2.6-.2s.5.1.5.3c0 .2-.1.3-.1.4 0 .4.1.7.4 1 .1.1 0 .2-.3.3-.3 0-.6 0-.7-.1-.3-.4-.5-.8-.5-1.2zm.4-8.4c0-.4.4-.7 1.2-.8.3-.1.6 0 .8.1.1.1 0 .2-.2.3-.4.1-.5.2-.5.4s.1.4.4.7c.1.1 0 .2-.3.3-.3 0-.6 0-.7-.1-.6-.3-.7-.6-.7-.9zm.7 6.5s0-.1 0 0c.4-.5.9-.9 1.6-1.5.1-.1.5-.2.8-.1.3.1.4.2.3.3-.7.5-1.1 1-1.5 1.4-.1.1-.4.2-.7.1-.3 0-.5-.1-.5-.2zm1.4-34.9c0-.1 0-.1.1-.1.2-.1.6-.1.8 0 1 .3 1.9.7 2.9 1.2.2.1.2.2-.1.3-.2.1-.6.1-.8 0-.9-.4-1.9-.8-2.8-1.1 0-.2-.1-.3-.1-.3zm.5 30.5c0-.1.1-.1.2-.2.2-.1.6-.1.8 0 .5.2 1.1.4 1.7.6l.3-.3c.1-.1.5-.2.7-.1.3 0 .4.2.3.3-.1.1-.2.2-.4.3.1 0 .2 0 .3.1.3.1.4.2.3.3-.1.1-.5.1-.8.1-.1 0-.2 0-.3-.1-.3.2-.5.4-.8.7-.1.1-.5.1-.8.1-.3-.1-.4-.2-.3-.3.3-.2.6-.5.8-.7-.7-.2-1.4-.4-2.1-.7.2 0 .1-.1.1-.1zm2.1-2.5s.1 0 0 0c.2-.2.5-.2.8-.2 1.5.3 2.2.8 2.2 1.5 0 .1-.3.2-.6.2s-.6-.1-.6-.2c.1-.5-.4-.8-1.5-1.1-.1 0-.3-.1-.3-.2zm2.8-25.7c0-.1.1-.1.2-.2.3-.1.6 0 .8.1.8.4 1.5.9 2.2 1.3.2.1.1.2-.2.3-.3.1-.6 0-.8-.1-.7-.5-1.4-.9-2.2-1.3v-.1zm2.3 29.5c0-.1.2-.2.5-.2 1.2 0 2.3-.2 3.3-.5.2-.1.6-.1.8 0 .2.1.2.2-.1.3-1.2.4-2.5.6-3.9.6-.3 0-.6-.1-.6-.2zm1.9-26.8c0-.1.1-.2.3-.2.3 0 .6 0 .8.1.6.5 1.2.9 1.8 1.4.1.1 0 .2-.3.3-.3 0-.6 0-.8-.1-.6-.5-1.2-.9-1.8-1.4v-.1zm3.3 2.8c0-.1.1-.2.4-.2.3 0 .6 0 .7.1.5.5 1 1 1.4 1.5.1.1-.1.2-.4.3-.3 0-.6 0-.7-.1-.4-.5-.9-1-1.4-1.6 0 .1 0 .1 0 0zm1 22.3s0-.1.1-.1c.4-.2.8-.5 1.1-.7.3-.2.5-.4.7-.6.1-.1.5-.2.8-.1.3.1.4.2.3.3-.2.2-.5.4-.8.6-.4.3-.8.5-1.2.8-.2.1-.5.1-.8 0-.1-.1-.2-.1-.2-.2zm1.7-19.3c0-.1.2-.2.4-.2.3 0 .6 0 .7.2.4.5.8 1 1.1 1.5.1.1-.1.2-.4.3-.3 0-.6-.1-.7-.2-.4-.6-.7-1.1-1.1-1.6zm1.7 16.6s0-.1 0 0c.4-.5.8-1 1.1-1.5.1-.1.4-.2.7-.2.3 0 .5.2.4.3-.3.5-.7 1-1.1 1.5-.1.1-.4.2-.7.1-.3 0-.4-.1-.4-.2zm.3-13.6c0-.1.2-.2.5-.2s.6.1.7.2c.3.5.5 1 .8 1.5.1.1-.2.2-.5.2s-.6-.1-.7-.2c-.3-.5-.5-1-.8-1.5zm1.3 3c0-.1.2-.2.5-.2s.6.1.6.2c.2.5.3 1 .4 1.5 0 .1-.2.2-.5.2s-.6-.1-.6-.2c0-.5-.2-1-.4-1.5zm.2 7.6c.2-.5.3-1 .4-1.5 0-.1.3-.2.6-.2s.6.1.5.2c-.1.5-.2 1-.4 1.5 0 .1-.3.2-.7.2-.2 0-.5-.1-.4-.2zm.5-4.5c0-.1.2-.2.6-.2.3 0 .6.1.6.2 0 .4.1.9.1 1.3v.2c0 .1-.3.2-.6.2s-.6-.1-.6-.2v-.2c0-.5-.1-.9-.1-1.3z"/><path class="st160" d="M12.8 27.9h113.9v50.2H12.8z"/><path class="st161" d="M12.7 34.7h113.9v50.2H12.7z"/><path class="st38" d="M12.7 33.2h113.9v50.2H12.7z"/><path class="st161" d="M21.2 43h8v8h-8zM32.3 43h8v8h-8zM43.4 43h8v8h-8zM54.5 43h8v8h-8zM65.7 43h8v8h-8zM76.8 43h8v8h-8zM87.9 43h8v8h-8zM99 43h8v8h-8zM110.2 43h8v8h-8z"/><g><path class="st161" d="M21.2 54.1h8v8h-8zM32.3 54.1h8v8h-8zM43.4 54.1h8v8h-8zM54.5 54.1h8v8h-8zM65.7 54.1h8v8h-8zM76.8 54.1h8v8h-8zM87.9 54.1h8v8h-8zM99 54.1h8v8h-8zM110.2 54.1h8v8h-8z"/></g><g><path class="st161" d="M21.2 65.2h8v8h-8zM81.5 65.2H32.3v8.1h52.5v-8.1zM87.9 65.2h8v8h-8zM99 65.2h8v8h-8zM110.2 65.2h8v8h-8z"/></g><g><path class="st160" d="M21.2 41.7h8v8h-8zM32.3 41.7h8v8h-8zM43.4 41.7h8v8h-8zM54.5 41.7h8v8h-8zM65.7 41.7h8v8h-8zM76.8 41.7h8v8h-8zM87.9 41.7h8v8h-8zM99 41.7h8v8h-8zM110.2 41.7h8v8h-8z"/><g><path class="st160" d="M21.2 52.7h8v8h-8zM32.3 52.7h8v8h-8zM43.4 52.7h8v8h-8zM54.5 52.7h8v8h-8zM65.7 52.7h8v8h-8zM76.8 52.7h8v8h-8zM87.9 52.7h8v8h-8zM99 52.7h8v8h-8zM110.2 52.7h8v8h-8z"/></g><g><path class="st160" d="M21.2 63.8h8v8h-8zM81.5 63.8H32.3v8.1h52.5v-8.1zM87.9 63.8h8v8h-8zM99 63.8h8v8h-8zM110.2 63.8h8v8h-8z"/></g></g><g><path class="st162" d="M180.1 49.7V21.3h6.3v25.3h9.5v3.1h-15.8zM216.6 40.2H204v3.1c0 .9.3 1.6.9 2.2.6.6 1.4.9 2.2.9h3.2c2.1 0 3.1-1.1 3.1-3.2h3.1c-.5 4.2-2.6 6.3-6.3 6.3h-6.3c-1.7 0-3.2-.6-4.5-1.9-1.3-1.2-1.9-2.7-1.9-4.5v-9.5c0-1.7.6-3.2 1.9-4.4 1.3-1.2 2.7-1.9 4.5-1.9h6.3c1.7 0 3.2.6 4.4 1.9s1.9 2.7 1.9 4.4v6.6zm-12.7-3.1h6.3v-3.2c0-.9-.3-1.6-.9-2.2-.6-.6-1.4-.9-2.3-.9-.9 0-1.6.3-2.2.9-.6.6-.9 1.4-.9 2.2v3.2zM221.6 21.3h6.3v6.3h3.2v3.1h-3.2v12.6c0 1 .3 1.8 1 2.4.7.5 1.3.8 1.9.8h.3v3.1h-3.2c-1.7 0-3.2-.6-4.4-1.9s-1.9-2.7-1.9-4.5V30.7h-3.2v-3.1h3.2v-6.3zM232.8 21.3h6.3v6.3c0 3.7-2.1 5.8-6.3 6.3v-3.1c2-.1 3.1-1.1 3.2-3.1h-3.2v-6.4zM256.7 33.9h-3.1c-.3-2.1-1.3-3.1-3-3.1-1.1 0-1.9.2-2.5.7-.6.4-.8 1.1-.8 2 0 .9 1.5 2.2 4.6 3.8 2.5 1.3 3.9 2.5 4.3 3.3.4.9.6 1.8.6 2.8 0 1.7-.6 3.2-1.9 4.5s-2.7 1.9-4.5 1.9h-3.1c-4.2 0-6.3-2.1-6.3-6.3h3.2c.3 2.1 1.2 3.2 3 3.2 1.1 0 2-.2 2.5-.7.6-.4.8-1.1.8-2 0-.9-1.5-2.1-4.6-3.8-2.5-1.3-4-2.5-4.3-3.3-.4-.9-.6-1.8-.6-2.8 0-1.7.6-3.2 1.9-4.5 1.3-1.2 2.7-1.9 4.5-1.9h3.1c3.8-.1 5.9 2 6.2 6.2zM199 75c-.3 4.2-2.4 6.3-6.3 6.3h-6.3c-1.7 0-3.2-.6-4.5-1.9-1.3-1.2-1.9-2.7-1.9-4.5V59.2c0-1.7.6-3.2 1.8-4.5 1.2-1.3 2.7-1.9 4.5-1.9h6.3c4 0 6.1 2.1 6.3 6.3h-3.1c-.3-2.1-1.3-3.2-3.1-3.2h-3.2c-.9 0-1.6.3-2.2.9-.6.6-.9 1.4-.9 2.3V75c0 .9.3 1.6.9 2.2.6.6 1.4.9 2.2.9h3.2c1.9 0 2.9-1.1 3.1-3.2h3.2zM200.8 81.3V52.9h6.3v9.5c.1-1.1.5-1.9 1-2.4s1.3-.8 2.2-.8h3.2c1.7 0 3.2.6 4.4 1.9s1.9 2.7 1.9 4.4v15.8h-6.3V65.5c0-.9-.3-1.6-.9-2.2-.6-.6-1.4-.9-2.3-.9-.9 0-1.6.3-2.2.9-.6.6-.9 1.4-.9 2.2v15.8h-6.4zM234.2 68.7v-3.2c0-.9-.3-1.6-.9-2.2-.6-.6-1.4-.9-2.3-.9h-3.1c-1.9 0-2.9 1-3.1 3.1h-3.2c.5-4.2 2.6-6.3 6.3-6.3h6.3c1.7 0 3.2.6 4.4 1.9s1.9 2.7 1.9 4.4v15.8h-6.3v-3.1c-.3 2.1-1.3 3.1-3.2 3.1h-3.1c-1.7 0-3.2-.6-4.5-1.9-1.3-1.2-1.9-2.7-1.9-4.5 0-1.7.6-3.2 1.9-4.4 1.3-1.2 2.7-1.9 4.5-1.9h6.3zm0 3.1H231c-.9 0-1.6.3-2.2.9-.6.6-.9 1.4-.9 2.2 0 .9.3 1.6.9 2.2.6.6 1.4.9 2.2.9.9 0 1.6-.3 2.3-.9.6-.6.9-1.4.9-2.2v-3.1zM245.5 52.9h6.3v6.3h3.2v3.1h-3.2V75c0 1 .3 1.8 1 2.4.7.5 1.3.8 1.9.8h.3v3.1h-3.2c-1.7 0-3.2-.6-4.4-1.9s-1.9-2.7-1.9-4.5V62.3h-3.2v-3.1h3.2v-6.3z"/></g></svg>