<svg version="1.1" id="Layer_1" xmlns="http://www.w3.org/2000/svg" x="0" y="0" viewBox="0 0 200.8 101.8" xml:space="preserve"><style>.st26{fill:#fff}.st126{opacity:.25;fill:#91c9c9}</style><path d="M150.4 43.4c-2.3 0-4.5.3-6.7.9-3-9-11.4-15.5-21.3-15.5-9.3 0-17.3 5.8-20.7 14-2.6-2.4-6-3.9-9.8-3.9-8 0-14.5 6.6-14.5 14.8 0 1 .1 2 .3 3-7.3 4.2-12.2 11-12.6 18.9L53.9 89.7l12.4-6.1c3.6 10 14.7 17.2 27.8 17.2 5.2 0 10.2-1.2 14.4-3.2 3.2 2.6 7.6 4.2 12.5 4.2 6.2 0 11.6-2.6 14.8-6.5 4.2 2.7 9.2 4.2 14.5 4.2 15.2 0 27.6-12.6 27.6-28.1 0-15.5-12.3-28-27.5-28z" fill="#91c9c9"/><path class="st126" d="M200.8 78.2c0 10.5-8.5 19-19 19s-19-8.5-19-19 8.5-19 19-19 19 8.5 19 19zM172.7 29.3c0 5.9-4.8 10.8-10.8 10.8s-10.8-4.8-10.8-10.8c0-6 4.8-10.8 10.8-10.8s10.8 4.9 10.8 10.8z"/><path d="M161 40.2c0 7.8-6.3 14.1-14.1 14.1s-14.1-6.3-14.1-14.1 6.3-14.1 14.1-14.1c7.8.1 14.1 6.4 14.1 14.1z" opacity=".15" fill="#91c9c9"/><path d="M128.6 33.3c0 2.4-2 4.4-4.4 4.4s-4.4-2-4.4-4.4c0-2.4 2-4.4 4.4-4.4s4.4 2 4.4 4.4z" opacity=".75" fill="#91c9c9"/><path d="M125 28.4c0 4.1-3.3 7.4-7.4 7.4-4.1 0-7.4-3.3-7.4-7.4 0-4.1 3.3-7.4 7.4-7.4 4.1.1 7.4 3.4 7.4 7.4z" opacity=".26" fill="#91c9c9"/><path d="M86 33.2c0 1.7-1.4 3.2-3.2 3.2-1.7 0-3.2-1.4-3.2-3.2 0-1.7 1.4-3.2 3.2-3.2 1.8 0 3.2 1.5 3.2 3.2z" opacity=".58" fill="#91c9c9"/><g><path d="M44.7.7C72.5-3.4 97.7 11 101 32.9c2.4 15.8-7.4 31.2-23.5 40.1.4.6.8 1.3 1.3 1.9 4.2 5.1 9.7 8.6 15.9 10.6-12.7 2.8-25.2.8-34.2-6.2-1.3.3-2.6.6-3.9.8C28.8 84.2 3.6 69.8.4 47.9-2.9 26 17 4.8 44.7.7z" fill="#2cadb6"/><path class="st26" d="M20.9 37.3V20.8h3.7v14.7h5.5v1.8h-9.2zM32 37.3V20.8h9.2v1.8h-5.5v5.5h3.7V30h-3.7v5.5h5.5v1.8H32z"/><path class="st26" d="M44.9 37.3V22.6h-3.7v-1.8h11v1.8h-3.7v14.7h-3.6zM52.3 20.8H56v3.7c0 2.2-1.2 3.4-3.7 3.7v-1.8c1.2 0 1.8-.7 1.9-1.8h-1.9v-3.8zM67.1 24.5h-1.8c-.2-1.2-.7-1.9-1.7-1.9-.6 0-1.1.2-1.5.5-.3.3-.5.8-.5 1.4 0 .5.2.9.5 1.3l3.9 4.4c.7.8 1.1 1.7 1.1 2.6v.9c0 1-.4 1.9-1.1 2.6s-1.6 1.1-2.6 1.1h-1.8c-1.2 0-2.1-.3-2.8-.9-.6-.6-.9-1.5-.9-2.8h1.9v.3c0 .5.2.9.6 1.1.4.3.8.4 1.3.4.6 0 1.1-.2 1.4-.5.3-.3.4-.8.4-1.4 0-.5-.2-.9-.5-1.3L59 28c-.7-.8-1.1-1.7-1.1-2.6v-.9c0-1 .4-1.9 1.1-2.6.7-.7 1.6-1.1 2.6-1.1h1.8c2.3 0 3.5 1.2 3.7 3.7zM22.7 59.2V44.5H19v-1.8h11v1.8h-3.7v14.7h-3.6zM30.1 59.2V46.4c0-1 .4-1.9 1.1-2.6s1.6-1.1 2.6-1.1h3.7c1 0 1.9.4 2.6 1.1.7.7 1.1 1.6 1.1 2.6v12.9h-3.7V52h-3.7v7.3h-3.7zm3.7-9.2h3.7v-3.7c0-.5-.2-1-.5-1.3-.4-.4-.8-.5-1.3-.5s-.9.2-1.3.5c-.4.4-.5.8-.5 1.3V50zM43.1 59.2V42.7h3.7v14.7h5.5v1.8h-9.2zM54.2 59.2V42.7h3.7v6.7l6-6.7H67L59.7 51l7.4 8.3h-3.7l-5.5-6.4v6.4h-3.7zM70.8 53.7v-11h3.7v11h-3.7zm0 5.5v-3.7h3.7v3.7h-3.7z"/></g></svg>