<svg version="1.1" id="Layer_1" xmlns="http://www.w3.org/2000/svg" x="0" y="0" viewBox="0 0 214.9 102.6" xml:space="preserve"><style>.st90{fill-rule:evenodd;clip-rule:evenodd;fill:#895e3c}.st91{fill:#679f97}</style><path class="st90" d="M135.3 98.1l-2.1.6v-.3c.7-.1 1.4-.3 2.1-.3zm31.4-76l.3-.1-.3.1c-.2 0-1.7.5-1.7.9 0 .1-.9.3-1.5.8-1.8 1.4-.1.7-3.1 1.5-.5.1-1.3.4-1.7.7 1.7 0 1.8-.2 2.6-.2-1.1 1.6-1.7 1-2.5 1.8l-2.1 1.3 1.3-.1c-.6.5-1.8.4-2 1.3.8 0 1.2-.4 1.9-.4-1 1.9-2 1.4-2.9 2.2 2.4 0 6.1-1.7 7.7-1.7l-1.9.7c-.7.2-1.4.5-2 .7-.6.2-1.4.5-2 .7-1.4.4-.4.3-1.3.7-.3.1-.3.1-.5.2.2.2.2.2.5.3.6.1-.3-.2.2 0-.5 1-1.5.4-1.8 1.3.4.2.9 0 1.3-.1-.1.8-.2.6-.7.9.2.3 0 .2.4.1-.3.6 0 .7 0 .7-1.1 1.1-1.3.3-1.8.9.7.3.9-.1 1.5-.2-.1.6-.5.6-1.1.8-1.2.5-3.1 1.2-4.2 1.5 0-.4 0-.4.4-.5.2-.1.5-.1.7-.2 0-.5-.1-.6-.1-1.2-.4 0-.6.2-.9.3 0-.2.1-1 .2-1.1.2-.4.2-.1.6-.4.3-.2.6-2.4.6-2.4-.3 0-.4 0-.7.1.2-.2.2-.3.4-.6.3-.8-.1-.2.5-.6.4-.2.6-1.1.7-1.6l-.4.1.9-.9c.6-.9.6-1.6 2.3-3.3.4-.4 1.2-1.4 1.8-1.8.3-.2.3-.1.6-.3 1.1-.4-.6.1 1.5-1.2.8-.5 1.7-.8 2.6-1.1.6-.2 8-2.5 8.7-2.6l-.2.2c1.1-.1 1.2-.3 2-.3-.2.2.2 0-.3.2-.3.1-.2.1-.5.1v.7c-1.1.3-3.3 1.3-4 1.2v-.1zm-2.2 26.8zm-33 37.1c.1 0 0 0 0 0zM168 21.8s0-.1 0 0c0-.1 0 0 0 0zm23 1.2c-.2-.9-2.2-2.5-3-3.2-1.5-1.2-4.8-3.1-6.7-3.9-1.2-.5-1.3-.7-2.2-.8-.3 0-.6-.1-.9-.2-1.8-.6-5.4-1-7.5-1h-2.1c-.6 0-1.2.2-1.9.2 0 0 .1-.1.1 0l1.2-.3c2.3-.3 5.1-.3 7.6-.3 1.6 0 2.4.5 2.7.1-.9 0-1.7-.3-2.7-.3h-6c-1 0-1.9.2-2.8.3-4.5.6-9.7 2.6-13 5.6-1.3 1.1-1.7 1.5-2.7 2.8-1 1.3-2.5 3.4-3.5 5.3-1.3-.2-2.3 0-3.2.6.7-1.7 1.5-3.4 2.7-6-2.2 3.3-3.3 5.2-4.4 8.1-.4.8-.7 1.7-1 2.7-.2.5-.4 1.1-.5 1.8l-.1.5v.5c0 .4-.1.9-.1 1.3-.1.7-.2 1.3-.2 1.8 0 .3.1.5.3.7v.5c.2 1.8.2 3.9.7 5.4.4 1.1.5 1.2 1.1 2.1-.5 0-1.1.2-1.6.3-.7.1-1.1-.3-1.3.5.3.1 3.7.2 4.4.2.5.8 1.1 2.1 2 2.7-.2-.7-1-1.6-1.1-2.7 1.1.1 2.1.3 3.1-.2.2-.1.3-.2.5-.3.6-.3.3-.1.6-.1.7.1 0 .2.2 0 .3-.2-.1-.4-.1-1l2 .8c.2.1.5.2.7.3.5.2 1 .3 1.4.5.3.1.5.1.8.2 1.7.4 1.8.5 3.9.9 3.9.6 1.7.4 6.2-.8.9-.2 8.9-2.1 9.6-2.1-.1.1 0 0-.2.1l-.3.1-4.1 1c-.8.2-1.5.4-2.3.6l-2.3.7c1.3 0 2.7-.2 4-.2 1.5 0 3.4-.9 5.6.2.5.2 1.1.4 1.5.7.9.6 1.3 2 .4 3-.4.5-1.1.5-1.4.7-.5.3-.2.3-1.5.6s-3 0-4.2.2c-2 .2-6.2.1-6.2-2.4-1.3 0-1.9-.1-2.9-.3-.9-.2-2-.3-3-.3-.1-.1-.1-.1-.2-.1-.2-.1-.1 0-.3-.1l-2.1-.4c-.8-.2-1.7-.6-2.6-.8-1.4.9-.4.2-1.2.6.1.5.3.6.4.9l.7 2c.3.7.1.4.8.4.1.5.4.7.6 1 .7.9-.1.3.3.9l3.4 3.4c2.2 2.2 5.3 4.3 8.5 5 .6.2 2.4.6 2.8.4-.4-.6-1.1-.2-3-1-.7-.3-2.3-.9-2.7-1.5 1.2.1 4.2 1.6 9.3 1.5.7 0 1.8-.2 2.5-.2l2.9-.4c.7-.2.6-.4 1.5-.5.6-.1.5 0 1-.3.9-.5 5.3-3 5.9-3.5.3-.2.4-.4.7-.7l.6-.7c.2-.3.4-.5.6-.7L190 52c.4-.7.6-1.1.7-2.1l.1-.2c0-.5.1-.3.1-.8.1.2.1.2.3.3.1-.3.3-.4.3-.7 1 0 1.9.2 3.1.2.6 0 1.5-.1 2-.3.4-.1.3-.1.8-.1 0 .7-.3 2.2-.4 2.9-.2 1-.4 1.9-.6 2.8.4-.3.5-.9.7-1.3.2-.5.3-1 .4-1.6.7-2.7.6-4.7 1.3-6.9.1-.4 0-.2 0-.6 0-.4.1-.5.1-.9.1-.7.2-1.2.2-1.9l-.2-3.8c-.2-1.3-.1-1.6-.3-2.5-.1-1.2-.4-2.7-.8-4.1-.4-1.4-.9-3-1.6-4.9.2 1 .4 1.9.5 2.7-.8-1-1.8-1.3-3.3-.5-.4-.8-.7-1.4-1.4-2.5l-1.6-2.2c.2-.2.2-.2.6 0h.1l-.1.1V23zm-22.2 4.4c.1.1.4-.2.1-.1 0 0-.3-.1-.1.1zm-1.3-5.5c.1.1.4-.2.1-.1.1 0-.3-.1-.1.1zm-37.4 69.5c.1.1.4-.2.1-.1 0 0-.3-.1-.1.1zm39.4-64.3c.1.1.4-.2.1-.1.1.1-.2-.1-.1.1zm-1.2.4c.3.2.6 0 1 0 .4-.1.6-.1.9-.2 2-.5 3.8-.6 5.7-1 2-.4 5.9-.5 7.1-.8.4-.1.5-.1 1-.1l-.8-.8c-.6.1-1.2.4-1.8.4-.1-.9-.7-.4-2.5 0l-8.5 1.8c.6-.3 1.8-.4 2.2-.7-.7 0-2 .4-2.7.6-.4.1-2 .6-2.4.8.3 0 .3.1.6.1 0-.1.2 0-.1-.2h.3c.2-.1-.3-.1.3-.1v.1h-.3v.1zm.8-.3h.3v-.1h-.3v.1zm.8-.2h.3v-.1h-.3v.1zm-2.8-5h.3v-.1h-.3v.1zM130 90.5h.4v-.2c-.2 0-.3 0-.4.2zm65.1-27.9c0-.2.2-.3.3-.3 1 .5-.3.9-.3.3zm-62.7 18.1c.3.3-.1.2.4.2v.3h.3v-.8c-.3 0-.4-.1-.7.3zm66.9-14.8c1 .7 1.1-.7.6-.7-.5 0-.6.4-.6.7zm-6.2-3c.3-.1.4-.2.6-.2 1 .2-.1 1.5-.6.7v-.5zm18.3 21.7c0 2.2 1.9.2.8-.1-.1 0-.4.1-.8.1zm-78.2-9.4v.7c.9.5 1.1.1 1.2-.6-.1-.2 0 .1-.2-.2-.1-.1-.1-.2-.2-.3-.6.1-.3.1-.8.4zm28.3-25.4c.3-.4 2.5-.9 2.9-.9-.6.5-.5.2-.9.9-.5 0-.7 0-1 .1-.5.1-.6-.1-1-.1zm5.7 10.6c.3 0 .3-.1.6-.1-.1.6 0 .2-.2.3-.3 0-.4-.2-.4-.2zM147.1 28c-.2.4-.4.8-.5 1.1-.2.4-.2.9-.4 1.2-.9.2-.6-.3-1.4.1-.4.2-.6.3-1.1.3.1-.2.4-.7.6-1.2.7-.8 1.5-1.3 2.8-1.5zm49.8 8.2c-.6.2-1.4.7-1.9.9-.5.2-1.7 1-2 1.1 0-.4-.1-.3.8-.8l2.6-1.3c.4-.2.3 0 .4-.5-.4 0-.8.1-1.1.2.2-.3.4-.3.7-.6.3-.2.3-.4.6-.5-.1.6-.1 1-.1 1.5zm0-5.8c-.8-.4-.6-.1-1.2-.2-.2 0-.5-.1-.7-.2-.7-.2-.7-.3-1.2-1.6-.1-.2-.2-.5-.3-.7 1.5.1 2.4.6 2.8 1.3-.2.4.1.4.3.7.2.3.3.5.3.7zm-37.8 27.8l2.3-.3c-.2.2-1.6.8-1.8.7-.2-.1-.3-.2-.5-.4zm23.3-1.5c-.1.1.2.1-.3.1.1 0-.2 0 .3-.1zm-25.2-.2c.8 0 1.4-.3 2.3-.3v.2c-2.1.5-1.8.9-2.3.1zm25.2.2l3.2-1.1c-.4.7-.4.9-1.3.8-.6 0-1.2.3-1.9.3zm3.2-1.1zm-29.5-1.2v.2h-.3c.2-.2 0-.1.3-.2zm29.5 0c-.2.1.2.1-.2.1-.2 0-.1 0-.2-.1h.4zm0 0l1.5-.4c-.2.4-.3.4-.4.7-.6-.2-.2-.3-1.1-.3zm-7.6-.7c-.2.1.2.1-.3.1.1-.1-.1 0 .3-.1zm0 0l1.5-.5c1.2-.4.7-.2 1.6-.2-.4.4-2.6.7-3.1.7zm3.5-.8c-.1.1.2.1-.3.1.1-.1-.2-.1.3-.1zm0 0c.2-.1-.2-.1.3-.1-.1.1.2.1-.3.1zm-27.3-.1c.6.1.3.3 1 .3-.2.3-.1.3-.6.3 0-.3-.1-.2-.4-.6zm28-.1l-.2.1.2-.1zm.3-.1c-.1.1.2.1-.3.1.1-.1-.2-.1.3-.1zm0 0c.2-.1.1-.1.3-.2.2-.1.3-.1.4-.1-.1.2-.3.3-.7.3zm5.5 0c-.6-.3-1.4.1-2.1.1.4-.3 2.1-.8 2.5-.9l-.4.8zM153.1 51c0 .1 0 .1 0 0zm4-.2zm30.7-.1c.1-.1.4.2.1.1 0 0-.3.1-.1-.1zm-33 0c-.1.1-.2.2-.4.3-.3.1-.3.1-.5-.1l.9-.2zm33.4-.1c.1-.1.4.2.1.1 0 0-.3.1-.1-.1zm-33.1 0c-.1.1.2.1-.3.1.1-.1-.2-.1.3-.1zm0 0l.2-.1-.2.1zm33.8-.3l-1.8-.1c.5-.1 1.3-.4 1.9-.4-.2.2-.1 0-.1.5zm-1-1.4l.7-.2c.1 0 .3-.1.4-.1l.4.1c-.5.1-1.1.2-1.5.2zm-45.4-1h-.8c.7-.4.8 0 .8 0zm53.3-.4c.1-.1.4.2.1.1 0-.1-.3.1-.1-.1zm1.6-.5c0 .7.1.3-.2.4 0-.1.1-.2.1-.2 0-.2 0-.1.1-.2zm-8.2.1c.1-.1.4.2.1.1 0 0-.3.1-.1-.1zm-37-.1c.1-.1.4.2.1.1 0 0-.3.1-.1-.1zm.4-.1c.1-.1.6.2.1 0 0 .1-.3.2-.1 0zm.4-.1c.1-.1.4.2.1.1 0 0-.3.1-.1-.1zm.3-.1c.1-.1.4.2.1.1.1-.1-.2.1-.1-.1zm8.3-.1c.1-.1.4.2.1.1 0-.1-.3.1-.1-.1zm-15.3.2c.2-.2.1-.2.4-.2-.2.3.1.1-.4.2zm47.2-.7v.4h-.8c.2-.2.4-.3.8-.4zm-31.2.4c-.1.1.2.1-.3.1.1-.1-.2-.1.3-.1zm32.7.1c.2-.3.3-.3.7-.4-.1.3-.2.3-.7.4zm-20.9-.2c.2-.1-.2-.1.2-.1.2 0 .1 0 .2.1h-.4zm.6-.3c.1-.1.4.2.1.1 0 0-.3.1-.1-.1zm.5-.1c.1.1 0 0 0 0zm20.9-.1c.1 0 0 0 0 0zm-43.9 0l-.9.4c-.6.2-.5.4-.7-.1.3-.1 1.2-.3 1.6-.3zm-6.8 0c-.2.3-.3.4-.3.9h-.4c0-.6 0-.2-.1-.3.1-.2.5-.5.8-.6zm6.8 0c.1-.1-.2-.1.3-.1-.1.1.2.1-.3.1zm-6.1.3c.1-.5.4-.6.8-.8 0 .3 0 .2.1.4-.4.2-.6.3-.9.4zm-.7-.3zm41.1-.2l-.2.1.2-.1zm-41.8-.1zm2.7-1c.2.3.1 1.1.1 1.5-.6-.5-.1-1.3-.1-1.5zm39.1 1.1l.3-.1c.5-.2.9-.4 1.3-.4 1.6-.1.9-.3 1.8-.3v.6c-.7 0-.8-.1-1.6 0s-.8.2-1.8.2zm7-.8c-.2.2-.8.6-1.3.9l.1-.7c.7 0 .6-.1 1.2-.2zm-49.2 0zm49.4-.1l-.2.1.2-.1zm-5.2-.2c.2-.4 0-.3.5-.4.2 0 .5-.1.8-.1v.2c-.3.1-.9.2-1.3.3zm-26.2 1.9c.2-.2 1.5-.6 1.9-.7 1.2-.4 5.6-1.5 6.7-1.5-.1.1 0 0-.2.1l-.8.2c-.4.1-.7.2-1.1.3l-2.1.6c-.8.1-3.8 1-4.4 1zm8.6-2.3c.2-.1-.2-.1.2-.1.2 0 .1 0 .2.1h-.4zm.5-.2c.1-.1.4.2.1.1.1 0-.2.1-.1-.1zm22.7-.3zm.1-.1l-.1.1.1-.1zm.3-.1l-.2.1.2-.1zm-.8 1.3c.2-.3 3-1.8 3.6-2.1 0 .6-.2.4-.7.7l-1.9 1c-.4.1-.6.3-1 .4zm-43.8-2.1l-.2.1.2-.1zm.2-.1l-.2.1.2-.1zm32 1.4c.5-.3 7.7-1.8 8.2-1.8-.1.7-.3.5-1.7.7-.7.1-1.4.3-2.1.4-.3.1-.7.1-1.1.2-1.2.3-1.8.5-3.3.5zm-31.8-1.6l-.2.1.2-.1zm.2-.1l-.2.1.2-.1zm44 1.2l2-1.6c.3-.2.4-.3.8-.4v.7l-2.8 1.3zm-47.1 1.1c-.2-.2-.1-.2-.4-.2 0-1.6-.3-3.1-.2-4.7 0-.6-.1-.3.2-.5 0 1.1 0 1.7.2 2.7l.2 2.7zm31.1-2.8c.1-.1.6.2.1 0 0 0-.3.2-.1 0zm1.1-.1c-.1.1 0 .1-.2.1h-.3v-.1h.5zm-25.3 0c.1 0 0 0 0 0zm39.9-.1l-.2.1.2-.1zm-39.4 0l-.2.1.2-.1zm-10.6 0zm50.3-.2l-.2.1.2-.1zm-39.4 0c-.1.1.2.1-.3.1.1-.1-.2-.1.3-.1zm-4.6.9c.1-.1 0 0 .2-.1.5-.3 1.6-.7 2.2-.8l-1.1.5c-.4.2-.9.4-1.3.4zm-5.8 3.3c.6-.9 1.2-.8 1.2-1.7-.9 0-.7.7-1.7 1 .4-.6 1.7-1.3 1.9-2-.5-.4-.7.1-1.1.5l-1.1 1c.1-.3 1-1.4 1.3-1.7 0-.1 1.3-1.1.4-1-.3 0-1 .9-1.7 1.4.1-.3.2-.4.4-.7.6-.7 1-1.3 1.8-1.8 0 .5.1.6.1 1s0 .6.1 1.1c.1.8.1 1.3.3 2-.3.1-1.5.8-1.9.9zm-.4-4.2l-.1.1.1-.1zm49.7.3c-.3.4-1.1.5-1.1 1.2.5-.1.4-.1.7-.4.5-.4 2-1.1 2.5-1.2-.2.3-.4.3-.7.5-.9.5-1.4 1.1-2.6 1.4.1.7.3.4-.2.7.1-.5.3-1.4.3-1.9.6-.1.5-.3 1.1-.3zm.7-.4l-.2.1.2-.1zm-5 0h.6v.1h-.6v-.1zm-36.5 0c-.1.1.2.1-.3.1.1-.1-.2-.1.3-.1zm-8.8 0l-.1.1.1-.1zm51.7 0l.2-.1-.2.1zm-1.2-.1l-.2.1.2-.1zm-21.1 0zm-20.2 0c-.1.1.2.1-.3.1 0-.1-.3-.1.3-.1zm-9.1 0l-.1.1.1-.1zm52.1-.1zm-1.5 0l-.2.1.2-.1zm-21 0c.1-.1.6.1.2.1-.2 0-.3.1-.2-.1zm-20.5.1l.2-.1-.2.1zm-9-.1l-.1.1.1-.1zm52 0l.2-.1-.2.1zm-1.1-.1c-.1.1.2.1-.3.1.1-.1-.3-.1.3-.1zm-50.8 0l-.1.1.1-.1zm51-.1l-.2.1.2-.1zm-20.2 0l-.1.1-.2.1c-.3.1-.2.1-.5.1 0 0 .1-.1.1 0l.3-.1c.1-.2.1-.2.4-.2zm-30.7 0l-.1.1.1-.1zm30.7 0c.2-.1-.2-.1.2-.1.2 0 .1 0 .2.1h-.4zm-30.5-.1l-.1.1.1-.1zm-1.4 0zm52.1.1c.2-.2.1-.1.3-.2l1.2-.5v.7c-.8.2.2 0-.7-.1-.3-.1-.5.1-.8.1zm-19.7-.2c.1-.1.6.1.2.1-.2-.1-.3 0-.2-.1zm-25.1.4c-.2.3-1 .8-1.5.9 0-1.5-.2-1.4.4-1.6 0 1.3 0 .8 1.1.7zm-7.2-.4l-.1.1.1-.1zm.1-.2l-.1.1.1-.1zm.2-.1l-.1.1.1-.1zm45.8-.1c-.1.1.2.1-.3.1.1-.1-.2 0 .3-.1zm0 0c.2-.1-.2 0 .3-.2.3-.1.1 0 .4-.1-.3.4-.2.3-.7.3zm-10.2 1.4l.2-.1.3-.1 4.2-.8c.7-.1 1.6-.4 2.3-.5l2.3-.5c-.8.7-8.1 2-9.3 2zm-24.5-.3c.1-.1 0-.1.2-.1.2-.1.1-.1.3-.1l3.2-1c.5-.1.9-.4 1.4-.4-.1.1 0 0-.2.1l-4.9 1.5zm-10.1-.6c.2-.6.8-.9 1.2-1.2 0 .5-.1.3-.5.7-.4.3-.3.2-.7.5zm15.6-1.2c-.1.1.2.1-.3.1.1-.1-.2-.1.3-.1zm0 0l.2-.1-.2.1zm32.4 1.8v-.7c.7-.2 1.6-.7 2.2-1l2.1-1.1v.8c-.3.2-.8.3-1.1.4-.4.2-.7.3-1.1.5l-2.1 1.1zm-49.9-2.2s-.1 0 0 0zm49.9 1c.1-.4.3-.3 1-.7.4-.2.7-.4 1-.6l2.2-1.2v.7c-1-.1-3 1.2-4.2 1.8zm-19.5-2s-.1 0 0 0zM144 40.4c.7-1 1.2-1.1 2-1.9.3-.3 0-.2.4-.3-.3.7.3.3-.9 1.3l-1.5.9zm29.8-2.3zm15.9-.3l.8-.2v.5l-.8-.3zm3.3 1.4c0-.4-.1-.4.9-.8.8-.4 2.7-1.6 3.4-1.8v.6c-1.3 0-3.7 2-4.3 2zm-13.8-2.1c-.1.1.2.1-.3.1.1-.1-.2-.1.3-.1zM174 37c.1-.1.6.2.1 0 0 0-.3.2-.1 0zm-30.8 3.1c.6-.8 2.4-2.8 3.2-3.4-.1.9-.7 1-1.5 1.8l-.8.8c-.3.3-.5.7-.9.8zm31.3-3.2c.1-.1.6.2.1 0 0 0-.3.2-.1 0zm19.4-.5c-.2.3-.5.4-.9.6.1-.4 0-.2.3-.4.1 0 .5-.2.6-.2zm-14.7.7s0-.1 0 0c.1 0 .1-.1.2-.1l2.6-.7c-.5.4-2.3.8-2.8.8zm14.7-.7c.2-.2 0-.1.3-.2-.1.2 0 .1-.3.2zm-11.8-.2c.1-.1.4.2.1.1 0-.1-.3.1-.1-.1zm-21.2 3.3c.6 0 2.2-.7 2.8-.9l8.2-2.4h.2c-1.7 0-10.5 2.8-11.2 3.3zM147 36.2zm25.2-.1c.1 0 0 0 0 0zm6.2-.1c-.1 0-.1 0 0 0l-.1.1s-.1.1-.2.1l-1.3.3c-.5.1-1.3.4-1.8.4l3.4-.9zm-31.2-.3c0 .6 0 .2-.1.3 0-.5 0-.1.1-.3zm48.5.2zm-16.9 0l-.1.1h-.3s.1-.1.1 0h.1c.1-.2.1-.1.2-.1zm.5-.2c-.1.1-.1.1 0 0l-.1.1h-.3s.1-.1.1 0h.1c0-.1 0-.1.2-.1zm.4-.1l-.1.1h-.3s.1-.1.1 0h.1c.1-.1.1-.1.2-.1zm-32.5.1v-.4c.1.2.1-.2.1.2 0 .3 0 .1-.1.2zm-3.5-.1zm36 0c.1-.1-.2-.1.3-.1-.1.1.2.1-.3.1zm.5-.2c.1-.1.4.2.1.1 0 0-.3.1-.1-.1zm-33.7.7c-.1.4-.1 0-.2 0-.5.2-.7.5-1.3 1.1-.4.3-1.1 1.1-1.7 1.2l.4-.4c.2-.2.2-.2.3-.4l2.6-2.4c.1.3 0 .6-.1.9zm17.8-1.7c-.2.2.1.1.1.1.3.1 0-.2-.1-.1zm32.5-.2c-.2.3-.5.5-.8.6l-2 .9c-.4.2-.6.4-1.1.5v-.3l1.9-.9c.5-.3 1.5-.7 2-.8zm-16.9 0zm16.9 0zm-9 .3c0-.5-.1-.3.3-.5.1 0 .5-.2.7-.2.6-.2.9-.4.9.4-.6 0-1.6.1-1.9.3zm-4.1-.5c.1-.1.4.2.1.1.1-.1-.3 0-.1-.1zm-40.6 3.6c.1-.4.6-.9.9-1.1l2.7-2.4c.3-.2.3-.3.6-.5-.2.9-.2.4-1 1l-.5.5c-.2.2-.3.3-.6.5l-1 1.1c-.4.3-.7.7-1.1.9zm49.7-2.2c0-.6.3-.5.8-.7.9-.4 1.2-.4 2.2-.9.4-.2.6-.4 1-.5v.4c-.7 0-3.3 1.3-4 1.7zm-12.9-1.2l.7-.2c1.3-.3 3.9-.9 5.1-.8.5 0 .6.1.7.3-1 .5-2.9.3-3.1.3-1 .2-2.2.4-3.4.4zm13.7-1zm-35.7 0c-.2.2.1.1.1.1.3 0 0-.2-.1-.1zm36-.1zm-6.4 0c.1-.1.6.2.1 0 .1 0-.3.2-.1 0zm6.4 0zm-5.9-.2c.1-.1.6.2.1 0 0 .1-.3.2-.1 0zm6.1-.1c.1.1 0 0 0 0zm-5.6 0c.1-.1.4.2.1.1.1 0-.2.1-.1-.1zm-43.1 0c-.2.4-1.5 1.7-1.9 1.8.8-1.5 1.1-1.3 1.6-2l.3.2zm48.9-.1c.1.1 0 0 0 0zm-5.1-.3c.3.3.2-.1.2.4-.6 0-.2.2-.2-.4zm-43.8.4zm47.3 1.7c.1-.3-.2-.1.8-.6.6-.4 2.4-1.5 3-1.6 0 .3 0 .2.1.4-.5.3-1.6.5-2.9 1.3-.4.2-.6.4-1 .5zm-48.3-1.9zm50.3-.1zM155 36.4l9.7-2.9c.6-.2 2.8-.7 3.2-1-.6 0-6.1 1.2-6.9 1.5-.3.1-5.7 2.2-6 2.4zm-10.5-3.9l-.1.1.1-.1zm50.4-.1zm-27 .1h.4c-.1-.1 0-.1-.2-.1-.5 0 0 0-.2.1zm-23.3-.1l-.1.1.1-.1zm23.8-.1c-.2.2.1.1.1.1.3.1 0-.2-.1-.1zm-6.9 0c-.5 0-1.2.3-1.7.4-.3.1-.5.1-.8.2l2.5-.6zm-16.8 0l-.1.1.1-.1zm16.8 0h.4c-.1-.1 0-.1-.2-.1-.5-.1 0-.1-.2.1zm-15.3-.1zm15.9-.1c-.2.2.1.1.1.1.3 0 0-.3-.1-.1zm-15.8 0l-.1.1.1-.1zm49.7-.2l-.2.1.2-.1zm-49.6 0l-.1.1.1-.1zm49.6 0l.2-.1-.2.1zm-51.8-.2zm38.3 1.1s.1 0 0 0l.6-.2c1.1-.3 4.7-1.2 5.7-1.2l.2.6c-.5-.1-.1-.2-.7-.2-1.3-.1-4.2 1-5.8 1zm-38.2-1.2l-.1.1.1-.1zm48 1.8c0-.7.3-.7 1.3-1.3 1.4-.9.9-.7 1.8-.6-.3.5-.7.4-1.5.9-.5.3-1 .7-1.6 1zm-.5-1.9c.1-.1.4.2.1.1 0 0-.3.1-.1-.1zm-48.1 4.1c.5-1 2.1-2.5 3.1-3.2.6-.4.4-.4 1.2-1-.1.2-.2.5-.3.7-.2.3 0 0-.3.3-.1.1-.2.1-.3.3l-.5.5c-.3.3-.3.3-.6.5-.6.5-1.4 1.7-2.3 1.9zm.6-4zm3.8-.2zm-3.4.9c.1-.5.6-.9 1-1.1-.1.4-.6.8-1 1.1zm1.7-.4c.2-.7.8-.7 1-.8-.2.3-.7.8-1 .8zm46.2-1.2c.2-.3.2-.5.6-.3-.1.3 0 .1-.2.2s-.3.1-.4.1zm-10.2-.4c.1-.1.4.2.1.1 0-.1-.3.1-.1-.1zm.4-.1c.1-.1.6.2.1 0 .1 0-.3.1-.1 0zm.5-.2c.1-.1.6.2.1 0 0 .1-.3.2-.1 0zm-20.1 0c-.5 0-.2 0-.3.1.5.1.1.1.3-.1zm-4.8 0l-.2.1.2-.1zm25.3-.1zm-20.5.1c.5 0 .2 0 .3-.1-.6 0-.2 0-.3.1zm29.1-.2l-.2.1.2-.1zm-8 0c.1-.1.6.2.1 0 0 .1-.3.2-.1 0zm8 0c.1-.1-.2-.1.3-.1-.1.1.2.1-.3.1zm-27.8-.3zm-15.2-.2c-.1.4 0 .1-.4.4-.8.7-.4 1-1.4 1.3.1-.4.5-.7.8-.9.4-.4.5-.6 1-.8zm42.6 0l-.2.1.2-.1zm-7.2.5l.5-.2c.4-.1 1.6-.6 1.9-.2-.8 0-1.5.4-2.4.4zm-17.7-.5c-.5 0-.2 0-.3.1.5 0 .1 0 .3-.1zm.3-.2c-.5 0-.2 0-.3.1.5.1.2.1.3-.1zm-17.9 0l-.1.1.1-.1zm42.5.2c.2-.2.1-.2.4-.2-.2.3.1.1-.4.2zm-42.5-.2zm17.9 0l.9-.1c-.2-.2-.5-.2-.9.1zm-8.9-.4zm23.7.3c.4-.2 1.8-.4 2.3-.5.4-.1.9 0 1.3-.1.6-.1.5-.5.9.1-1 .1-3.7.5-4.5.5zm6.3-.7zm2.5.2c.2-.2.3-.2.5-.3.2-.1.3-.2.7-.2v.3c-.4 0-.8.1-1.2.2zM158.4 30c.7 0 1.4-.2 2.1-.4 2.2-.4 3.4-.5 5.3-1.4l.2-.1h.2c-.9 0-4.2 1-5.2 1.2l-2.4.6c-.1.1-.1.1-.2.1zm7.8-1.9c.5 0 .2 0 .3-.1-.5 0-.2 0-.3.1zm12.4 0s.1 0 0 0l.7-.3c.8-.3 2.1-.1 3-.1v.1c-1.4 0-2.9.3-3.7.3zm-11.6-.4zm.5-.1c-.4.1-.2.1.1.2l-.1-.2zm20.9.7c-.4-.3-.8-.7-1-1.1.4.1.3.2.6.4.2.3.3.3.4.7zm-6-1.2c.8-.1 1.7-.4 2.6-.4.5.8.8.8.9 1.2-.5-.3-.3.1-1-.3-.3-.2.4-.2-.6-.2-.7 0-.1.2-.8-.1-.2-.1-.3-.1-.4-.1l-.7-.1zm5 0l-.1-.1.1.1zm-.1-.1zm-26.4-.3c-.2.2.1.1.1.1.4.1.1-.2-.1-.1zm30.3-.1s.1 0 0 0zm-29.6 0c-.5 0-.2 0-.3.1.5 0 .2 0 .3-.1zm29.8-.1c.1-.1.4.2.1.1.1-.1-.2.1-.1-.1zm-18.3-.5l-.1.1h-.3s.1-.1.1 0h.1c.1-.1.1-.1.2-.1zm0 0c.1-.1-.2-.1.3-.1-.1.1.2.1-.3.1zm.5-.2c.1-.1.4.2.1.1 0 0-.3.1-.1-.1zm16.8.2c.1-.1.2-.2.3-.2.2-.1.1-.1.5-.1-.2.2-.3.3-.8.3zm-16.5-.3c.1-.1.6.2.1 0 0 0-.3.2-.1 0zm-12.5.1zm12.9-.2c.1-.1.4.2.1.1.1-.1-.2.1-.1-.1zm-3.5 0c-.5 0-.8.1-1.2.3-.4.1-.8.2-1.1.3-1 .3-5.7 1.4-6.4 2 .8 0 7.2-1.9 8.3-2.3l.4-.3zm4-.1c.1-.1.4.2.1.1 0-.1-.3 0-.1-.1zm-4 .1c.5 0 .2 0 .3-.1-.6 0-.2 0-.3.1zm4.4-.3c.1-.1.4.2.1.1.1 0-.2.1-.1-.1zm-4 0c-.2.2.1.1.1.1.3.1 0-.2-.1-.1zm18.8-.1l-.2.1.2-.1zm-14.3 0c.1-.1.4.2.1.1 0 0-.3.1-.1-.1zm.7-.1c-.1.1.2.1-.3.1.1-.1-.2 0 .3-.1zm13.6.1c.1-.1 0-.1.3-.2.2-.1.2-.1.4-.1v.2l-.7.1zm-13.2-.2l-.1.1h-.3s.1-.1.1 0h.1c0-.1 0-.1.2-.1zm.3-.1c-.1.1.2.1-.3.1.1-.1-.2-.1.3-.1zm0 0l.6-.2c.3-.1.3-.1.7-.1-.1.1 0 0-.2.1-.1.1-.1.1-.3.1-.2.1-.4.1-.8.1zm1.3-.3c.1-.1 0 0 .2-.1.6-.4.5-.1.5-.6-.3-.2-.3-.1-.8-.1.6-.4 1.6-.5 2.3-.6.8-.1.7-.1 1.1.3.4.3.7.2.9.7-.5 0-.8.1-1.2.2-.1-.5-.2-.4-1.3-.1-.5 0-1.3.3-1.7.3zm-16.8 2c1.1 0 4.1-1 5.4-1.4.6-.1 4.5-1.3 5.1-1.7-.7 0-8.6 2.4-10 2.9-.2.1-.2.1-.3.1-.2.1-.1 0-.2.1zm10.6-3.3c.1-.1.4.2.1.1 0 0-.3.1-.1-.1zm16.1-.4l-.2.1.2-.1zm0 0c.2-.2 0-.1.3-.2-.1.2 0 .1-.3.2zm-27.7-.2c-.6 0-1.3.3-1.6.7l1.6-.7zm28.1 0zm-28.1 0l.2-.1-.2.1zm29.7-.1l-.1-.1.1.1zm-.1-.2zm-18 1.6c.3-.2.5-.3.9-.4l2.6-.8c.7-.2.2-.2.9-.4l1.5-.5c1-.3 1-.2 1.8.4-.6 0-1.4.2-2 .4l-5.7 1.3zm14.7-1.9l-.2.1.2-.1zm0 0c.3-.3.7-.4 1.1-.4v.2c-.6 0-.6.2-1.1.2zm-31 .1l-.1-.6c-.3.2-.6.4-.7.9.4-.1.3-.2.8-.3zm8.5-.8l-.2.1.2-.1zm.3-.1c-.5 0-.2 0-.3.1.5 0 .2 0 .3-.1zm8.3.8c.3-.2.8-.3 1.2-.4l2.6-.8c.4-.1.9.2 1.3.3l-5.1.9zm-8.3-.8c.5 0 .2 0 .3-.1-.5 0-.1 0-.3.1zm.5-.2zm-8.5-.1zm.2-.1l-.2.1.2-.1zm.1-.1l-.1.1.1-.1zm29-.3l-.2.1.2-.1zm-15.9 1.2c.8 0 1.9-.3 2.5-.5.5-.1 1.8-.5 2.4-.5v-.2c-1.7 0 .1-.6-2.6.3-.4.1-.9.3-1.3.4-.4.2-.7.2-1 .5zm-2.7-1.3s0 .1 0 0zm18.6.1c.2-.2.2-.2.6-.2-.3.3-.1.2-.6.2zm-16.1-.2l.2-.1-.2.1zm15.4-.5h.1s.1-.3.1 0c-.1 0-.2.2-.2 0zm-2-.4l-.2.1.2-.1zm0 0c.1-.1 0-.1.3-.2.9-.5.8-.4 1-.1-.5.1-.8.3-1.3.3zM157 20.8c.3-.1 1.2-.7 1.5-.9.4-.2 1.2-.7 1.4-1-.4.1-1.3.6-1.7.8-.4.2-.9.6-1.2 1.1zm3.2-2l-.2.1.2-.1zm0 0zm23.1-.4zm-1.8-.4zm.2-.1c.1 0 0 0 0 0zm-19 0c.1 0 0 0 0 0zm19.2-.2c.1-.1.4.2.1.1.1 0-.2.1-.1-.1zm-18.6-.1c-.2.2 0 .1-.3.2.1-.2 0-.1.3-.2zm-2.9-.6zm1.8-.1l-.2.1.2-.1zm6.9-.2l-.2.1.2-.1zm8.2-.1c-.1.1 0 .1-.3.2l-.9.4c-.4.2-.9.4-1.4.4l1.2-.6c.3 0 1-.3 1.4-.4zm-15.1.3c.2-.2.2-.2.6-.2-.3.1-.2.1-.6.2zm15.1-.3l.2-.1-.2.1zm-14.4-.1l-.2.1.2-.1zm14.7-.1zm-14.7.1l.2-.1-.2.1zm-2.5.5c.1-.4.1-.2.4-.4l.6-.3c-.2.2-.7.6-1 .7zm1.1-.8zm15.3-.4c0 .1 0 .1 0 0zm-1.8 0zm-2.4 0zm-4-.1c.1.1 0 0 0 0zm6.4.1c.1-.2 0-.1.3-.2.5-.1.2 0 .3.1-.3.1-.3.1-.6.1zm-6-.2zm-5.8 0c0 .1 0 0 0 0zm.1 2l3.5-2.2c-.2.7-.5.7-1.5 1.3-.5.2-1.6.8-2 .9zm5.7-2c.1-.1-.1-.1.2-.2.5-.1.1-.1.3 0l-.5.2zm3.6.2c.1-.3.1-.2 0-.6h1.2c-.3.3-.9.6-1.2.6zm-3.5.9c.2-.2 1-.7 1.3-.9 1.1-.6.3-.6 1.5-.6l-.6.4c-.3.1-.5.2-.7.4-.5.3-1.1.6-1.5.7zm-2.5-2.6l-.2.1.2-.1zm-.5 0c.1-.1.4.2.1.1 0-.1-.3 0-.1-.1zm31 87v.1h1.4c.4.1.8.2 1.3.2h2.1c.6 0 .3.1.5-.2-.2-.3.1-.2-.7-.2l-4.6.1zm5.4.1c.1.7.4 1 1 .6.1 1.2 1.3 1.1 1.3-.6 0-.4-1.1-.4-1.2-.4l-1.1.4zm-10.3-39.8c.2-.4.4-.3.4-.7.1-.6-.4-.5.2-.6.4-.1.9 0 1.5-.2.2-.1.1-.1.3 0 .1.1.5 1.1 0 1.7-.3.4-.8.6-1.5.6-.5-.1-.6-.4-.9-.8zm-56.9 36.7h.4c-.1-.1 0-.1-.2-.1-.4 0 .1 0-.2.1zm10.7-1.3zm.6-.2c-.2.1.2.1-.3.1.1 0-.1 0 .3-.1zm27.5.3l4.6-.6c1.3.4 1.1-.2 1.4.4-1.2 0-1.6.1-2.9.1-1.1 0-2 .1-3.1.1zm-13.4.1l1.6-.4c-.5.3-1 .4-1.6.4zm-13.6-.5h-.3s-.1.1-.1 0h-.1.3c.1.1.1.1.2 0-.1 0 0 0 0 0zm.3-.1c-.1.1.2.1-.3.1.1-.1-.2-.1.3-.1zm50.6-.1c.1 0 0 0 0 0zm-50.2 0c-.5 0-.2 0-.3.1.4 0 .1 0 .3-.1zm0 0l.2-.1-.2.1zm53.9.1v-.1c.7 0 .8-.2 1.5-.2h-.1l-.2.1c-.4.3-.7.2-1.2.2zm-53.6-.3c.1-.1.4.2.1.1 0-.1-.3.1-.1-.1zm60.7.1c.2-.3 0-.2.6-.2-.3.2-.2.2-.6.2zm-37.6-.7c-.1.2-.1 0-.2.1 0 0-.2.1-.3.1l-4.3.7 2.2-.6c.4-.1 1-.1 1.3-.2.5 0 .8-.1 1.3-.1zm0 0h.4c-.1-.1 0-.1-.2-.1-.4 0 0 0-.2.1zm37.1-.3l.8-.3c-.1.1.2.3-.8.3zm-15.2-.3c-.1.1 0 0-.2.1-.1 0-.3.1-.3.1l-4.8 1.3c-.6.2-.6.2-1.5.2h-5.1c1.4-.1 11.1-1.7 11.9-1.7zm-56.3.1c.1-.1-.2-.1.3-.1-.1.1.2 0-.3.1zm56.3-.1h.4c-.1-.1 0-.1-.2-.1-.4-.1 0-.1-.2.1zm-38.6-.6s-.1 0 0 0zm.8-.2c.1 0 0 0 0 0zm.8-.3c.1.1 0 .1 0 0zm.5-.1c.1-.1.4.2.1.1 0 0-.3.1-.1-.1zm51.8-.6c.2.3.4.7.4 1.1h-.6c.2-.3.4-.3.2-.5-.1-.2-.5-.2-.8-.2l.8-.4zM136.8 95h-.9c.1-.1.1-.1.2-.1s2.8-.5 4.5-1.1c.3-.1.5-.2.8-.2l.7-.2c-.8 0-1.6.2-2.3.2-1.8.2-2.4.3-4.2.8-.6.2-.4 0-.9.1-.4 0-.7.1-1 .2 0 .4-.1 1.3-.2 1.7l3.3-1.4zm5.3-1.7c.2-.1-.2-.1.2-.1.2 0 .1 0 .2.1h-.4zm-6.1-.8c.1-.1.4.2.1.1 0 0-.3.1-.1-.1zm71.3-.1l.4-.4c.4-.1.1-.2.3.2-.3.1-.3.2-.7.2zm-73.3-.1c.1-.6 0-.4.4-.3-.2.3 0 .1-.4.3zm13.2-.6c.1-.1.4.2.1.1 0 0-.3.1-.1-.1zm40.3-.2c.1-.1.4.2.1.1.1 0-.3.1-.1-.1zm20-.1c.2-.2.4.3 0 0 .1.1-.1.2 0 0zm-19.6 0l.4.1c-.1-.1 0 0-.2-.1h-.2zm16.3-.3s-.1 0 0 0l-1.2.5c-1.2.4-2.5.6-2.6.7-.6.2 0 .1-1.2.5l-5.9.9c.3-.2.9-.3 1.3-.4l4.1-.9c1-.2 1.9-.4 2.7-.6l2.8-.7zm0 0zm-35-.4c-.1.1.2.1-.3.1.1-.1-.2 0 .3-.1zm38-.3s.2-.1.1.2c-.1.2.1 0-.2.1.1-.1.1-.1.1-.3zm-37.4.2h-.3c-.2 0-.1 0-.2.1h.3c.2 0 0 0 .2-.1zm-35.7 1.1c.7-.3 3.4-1 4.1-1.2.3-.1.2 0 .4-.2-.7.1-2.2.6-2.9.2 0 .4.1.3-.4.4-.6.2-.9-.3-1.2.8zm73.1-1.3c-.1-.3.1-.1-.2-.2l.2.2zm-72.5-.5c.1-.3-.2-.2.4-.2-.1.1 0 0-.2.1l-.2.1zm22.9-.3c-.3.2-2 .5-2.4.6-.9.2-1.6.4-2.4.6-.8.2-4.4.9-5.1.9l.5-.2c.3-.1.5-.1.6-.1l3.8-.8c1.2-.2 4-1 5-1zm0 0h.4c-.1-.1 0-.1-.2-.1-.5 0 0 0-.2.1zm.5-.2c.1-.1.4.2.1.1.1-.1-.2.1-.1-.1zm46.2.2c1.4-.3 2-.2 2.1-.8.3.2.2.2.3.6-.5 0-.9.1-1.3.3-.4.1-.5.2-.8.1-.4-.2-.2-.1-.3-.2zm-17.8-.3c.1-.1.4.2.1.1 0-.1-.3.1-.1-.1zm-51.7-.1h.3v.2h-.3v-.2zm52.3 0c-.2.2.1 0 .1 0 .5.1 0-.2-.1 0zm-17.3 1.4l.9-.3c1.2-.2 6.7-1.3 7.3-1.3l-.1.1c-.8.3-5 1.1-5.9 1.2-.7.1-1.5.3-2.2.3zm8.1-1.6h.4c-.1-.1 0-.1-.2-.1-.4 0 0 0-.2.1zm.7-.2c.1-.1.4.2.1.1 0 0-.3.1-.1-.1zm-8.6 0c-.2.1.2.1-.2.1-.2 0-.1 0-.2-.1h.4zm-30.5-.8c-.1.5 0 .6-.4.8l-3.3.7c0-.7-.2-.7.4-.8.4-.1.8-.1 1.2-.2.7-.1 1.4-.4 2.1-.5zm54.4 0l-4.6.9c-.5.1-1.1.2-1.7.2.6-.3 5.7-1.1 6.3-1.1zm12.2-.1zm-12.2.1h.7v-.1h-.4c-.3.1-.2.1-.3.1zm-54.4 0l.2-.1-.2.1zm66.6-.1c-.1-.2 0-.2-.1-.3-.5 0-1.5.4-2.1.6-.7.2-1.5.4-2.2.5-2.2.4-6.2 1.4-7.9 1.5l-3.3.7c-.4.1-.7.2-1.1.2l-.9.2h-.1c.7 0 1.6-.2 2.3-.4l6.7-1.2c1.3-.2 8-1.8 8.7-1.8zm-9.5 0c0-.3-.1-.3-.1-.6l3.7-.5c1-.1 2.8-.6 3.6-.4-.2.6-.8.6-1.4.7-2 .5-3.6.8-5.8.8zm-37.9-1.3c.1-.1.6.2.1 0 0 0-.3.2-.1 0zm.9-.1h-.4c.1.1 0 .1.2.1.4 0 0 0 .2-.1zm28.5-.3c.1-.1.6.2.1 0 0 .1-.3.2-.1 0zm1.2-.1h-.7v.1h.4c.3 0 .2 0 .3-.1zM170 88.8l3.6-.5c1.2-.2 2.3-.3 3.5-.5.5-.1 5.7-1.3 6.3-1.7-1.2 0-8.9 1.7-10.2 2l-2.5.5c-.2.1-.3.1-.4.1l-.3.1zm13.6-2.9c.1 0 0 0 0 0zm20.1.2c.1 0 .1 0 0 0l.6-.2c.2-.1.5-.1.8-.2v.2c-.4.1-.9.2-1.4.2zm-44.1.4l4.8-.8c-.5 0-.8.1-1.1.2-.9.2-3 .6-3.7.6zm5.4-.9h-.4c.2-.1-.2-.1.2-.1.2 0 0 0 .2.1zm.2-.2c.1-.1.4.2.1.1 0-.1-.3 0-.1-.1zm24.1.7l3.1-.6c.8-.1 2.5-.5 3.2-.5-.3.3-.6.3-1.3.5-.5.1-1.1.2-1.6.3-1.2.1-2.2.3-3.4.3zm-19.4-2c-.1.1.2.1-.3.1.1-.1-.2 0 .3-.1zm33.6-.3c.1-.1.4.2.1.1 0-.1-.3.1-.1-.1zm-55.2 0c.1-.1.4.2.1.1 0-.1-.3.1-.1-.1zm55.5 0c.3 0 .6 0 .3-.2-.1-.3-.1 0-.3.2zm-.6-2.6c.1.2.2.4.2.7h-.8c.2-.4.2-.4.6-.7zm-51.4-.5zm.3-.1c.1-.1.6.2.1 0 0 0-.3.1-.1 0zm.9-.2h-.4c.1.1 0 .1.2.1.5.1 0 .1.2-.1zm16.9 3.7l2.4-.4c2.3-.5 5.3-.5 7.1-1.1 2.6-.8 4.6-1 6.6-1.6l2-.9c-.7 0-3.7.7-4.7.9-2.7.5-9.9 2-12.4 2.8l-.8.2c-.2.1-.1.1-.2.1zm-21.1-.3c.8 0 3.2-.6 4.2-.7 1.5-.3 2.8-.5 4.2-.7 1.5-.2 5.6-1.3 7.2-2l.3-.1h.1c-1.4 0-6.2 1.3-8.2 1.7-1.4.3-2.8.6-4 .9-.7.2-1.2.3-1.9.5l-1.9.4c0-.1 0 0 0 0zm4.2-3.4l1.6-.5c1.3-.3 1.2-.6 1.5 0-.5 0-1 .2-1.5.3-.6.1-1 .2-1.6.2zm25.9-.7c.1-.1.4.2.1.1.1-.1-.3 0-.1-.1zm-9.6 0c.1-.1.6.2.1 0 0 0-.3.2-.1 0zm10.5 0c-.1-.1 0-.1-.2-.1-.5 0 0 0-.2.1h.4zm-9.6 0c-.1-.1 0-.1-.2-.1-.5 0 0 0-.2.1h.4zm10.3-.3c-.1.1 0 .1-.2.1h-.3v-.1h.5zm-10.2 0c.1-.1.6.2.1 0 0 .1-.3.2-.1 0zm-12.4-.4c.1-.1.6.1.2.1-.2-.1-.3 0-.2-.1zm.9 0c-.1-.1 0-.1-.2-.1-.5 0 0 0-.2.1h.4zm34.1 1.6c.1-.4 0-.3.4-.4.2 0 .4-.1.7-.1l3.3-.9c.7-.1.3.1.6.1.7 0 1.2-.3 1.8-.4.6-.1 1.5-.3 2.1-.3l-4.4 1.1c-.8.1-1.4.2-2.2.4-.7.1-1.7.4-2.3.5zm-33.5-1.7h-.4c.2-.1-.2-.1.2-.1.2 0 0 0 .2.1zm39.1.1c.5 0 .9-.1 1.2-.3-.3 0-.4.1-.7.1l-.5.2zm-38.6-.2c-.1-.1 0-.1-.2-.1-.5 0 0 0-.2.1h.4zm-16.2 0zm16.5-.3c.1-.1.6.1.2.1-.2 0-.4.1-.2-.1zm40.6-.2c.5 0 .5-.1.9-.1v.2h-.9v-.1zm-21.8-.2c.1-.1.4.2.1.1.1-.1-.2.1-.1-.1zm-20.5-.6l-.2.1.2-.1zm42 .1c.1-.1.2-.2.3-.2.2-.1.1-.1.5-.1-.1.5-.2.3-.8.3zm-41.7-.2c-.1.1.2.1-.3.1.1-.1-.2-.1.3-.1zm0 0zm41.4-.5c.1-.3 0-.4.3-.4s.2 0 .3.2l-.6.2zm-31.8-.5c.1-.1.4.2.1.1 0 0-.3.1-.1-.1zm16.3-.1c.1-.1.4.2.1.1.1 0-.2.1-.1-.1zm-4.2 3.1c1.5 0 2.8-.7 3.4-.3-.3.1-.6.1-.8.2l-.6.2h-.1l7-1.2c.8-.1 1.4-.3 2.3-.4l9.2-1.9c-1.2 0-1.8 0-2.8.2-.9.2-1.7.3-2.5.5-1.5.3-.7.2-1.2 0-.6-.2-3 .4-3.8.5-2.7.4-6.1 1.3-8.8 1.8-.2 0-.5.1-.7.1l-.6.3zm4.8-3.2c-.2.2.1.1.1.1.3.1 0-.2-.1-.1zm-38.3.3l1.1-.3c-.3.4.1.1-.4.3h-.7zm38.9-.4c.1-.1.6.1.2.1-.2-.1-.4 0-.2-.1zm-13.1-.5c0 .1 0 0 0 0zm1.1-.2c.1-.1.6.1.2.1-.2 0-.4.1-.2-.1zm-5.1 1c.8 0 2.1-.4 2.9-.7.4-.1.6-.1.8-.3-.6 0-1.4.3-1.9.4l-1.8.6zm5.8-1.1c-.2.2 0 .1.2.1.4 0-.2-.2-.2-.1zm.9 0h-.5c.2-.1-.2-.1.2-.1.3 0 .1 0 .3.1zm-19.3-.1c-.2.1.2.1-.2.1-.2 0-.1 0-.2-.1h.4zm19.5-.1c.1-.1.4.2.1.1 0-.1-.3.1-.1-.1zm.5-.1c.1 0 0 0 0 0zm-22.6 0zm2.6.2c.8 0 1.1-.2 1.9-.2v-.1c-.7 0-1.1 0-1.7.3h-.2zm38.5-.5l-2 .4c-3 .4-1.4.3-2.4.6l-11 2.3c.5 0 .7-.1 1.2-.2s.7-.1 1.2-.2l14.5-2.5c.5-.1.5-.1.7-.5-.5 0-.5-.2-1.1-.1-.3.2-.6.2-1.1.2zm-1 0c.1-.1.4.2.1.1 0 0-.3.1-.1-.1zm-34.7.2h-.4c.2-.1-.2-.1.2-.1.3 0 .1 0 .2.1zm35.7-.2l-.7-.1c.7 0 1.1-.2 1.7-.3l-1 .4zm1.5-1.6c.4 0 .3 0 .6-.1 0 .3 0 .2-.1.4-.4-.1-.3 0-.5-.3zm-52.7-.7zm50.5.1v-.2-.2c-.7.1-1.5.3-2.3.4-.9.1-1.6.1-2.4.3-.7.1-1.5.3-2.3.4-.8.1-1.4.2-2.2.4-2.9.6-5.9 1.2-8.8 1.8-1.5.3-2.9.7-4.4 1L161 78.8c-.4.1-1.6.4-1.9.6 1.4 0 12.6-2.3 14.1-2.7 4.8-1.1 9-2 13.9-2.6l4.9-.7c.5-.1.8-.1 1.3-.2 1.4-.3 2.9 0 3.3-.5-.6-.6-2-.2-2.6-.2zm-38.1-.4c-.2.1.2.1-.2.1-.2 0-.1 0-.2-.1h.4zm0 0l2.5-.4c-.2-.2-.2-.2-.6-.1l-1.7.5c-.1-.1-.1-.1-.2 0zm9.4-1.2c.1-.1.4.2.1.1 0 0-.3.1-.1-.1zm17.7-.1l-6.1.8c-2 .3-16.6 3.1-17.7 3.1v-.1c.5 0 5-1.1 5.7-1.2l5.9-1c2-.3 3.9-.8 5.8-1.1 1.1-.2 2.1-.4 3-.3.3 0 1.2-.1 1.6-.1.6-.1 1.1-.1 1.8-.1zm0 0l.2-.1c-.1.1-.2.1-.2.1zm1.1-.2c.1-.1.6.2.1 0 0 0-.3.2-.1 0zm-18.4.3c.7 0 1-.2 1.8-.2v-.1c-1 0-1.5.2-1.8.3zm-13.5-.4c.1 0 0 0 0 0zm33.9 0h-.4c.2-.1-.2-.1.2-.1.2 0 .1 0 .2.1zm-33.3-.1l-.2.1.2-.1zm32.1 1.9v-.1c.5 0 .9-.1 1.4-.2l8.1-1.8c.9-.2.6-.1 1.4 0v.2l-.6.2c-.3.1-.4.1-.6.2-1.3.3-1.1.3-2.6.6l-4.2.6c-.9.1-2.1.3-2.9.3zm2.1-2l-.8.1c.2 0 .6 0 .8-.1zm-34.2.1c.1-.1-.2-.1.3-.1-.1.1.1 0-.3.1zm11.4-.2zm22.8.1c1 0 1.7-.2 2.6-.2V70c-.4-.1-2.3.1-2.6.3zm-25.2 0l.4-.3c.7-.4.6-.1 1.2-.1l-1.6.4zm-8.6 0c.6 0 1-.3 1.6-.3-.3-.5-1.5.2-1.6.3zm40.5-.6l.7-.2c.3-.1.4-.1.6.1-.5 0-.7.1-1.3.1zm-6.9-.2c-.2.1.2.1-.2.1-.2 0-.1 0-.2-.1h.4zm-31.8 0c.7 0 .7-.3 1.3-.3v.4c-.7.1-1 .3-1.3-.1zm31.8 0c.7 0 1-.1 1.5-.1s1-.1 1.4-.1V69l-2.3.4c-.1 0-.3.1-.4.1-.1-.1-.2 0-.2 0 0-.1 0 0 0 0zm6.7-1.2c.4.2.2 0 .4.3-.7-.1-.2 0-.4-.3zm-46.1-.3c.2-.4.6-.6 1-.9.2.1.4.3.6.4-.7.1-1 .4-1.6.5zm43.4-1.3c0-.3 0-.2.1-.4.4.1.3 0 .4.3-.2 0-.4 0-.5.1zm-2-.8c.3-.2 1-.3 1.3-.3v.2c-.6 0-.8.1-1.3.1zM147 76.5c-.7 0-1.2.3-1.9.3l.4-.8h.1l.3-.4h-.9c.2-.1.1-.1.3-.2.5-.2.6-.1 1.1-.5-.7 0-.8.2-2.5.2V75c.5 0 1.2-.3 1.7-.4 1-.2 1.1-.1 1.4-.6-.4 0-.3.1-.8.1v-.2c.2 0 .8-.2 1-.3.3-.1 1.3-1.6 1.5-1.9-.5 0-.6.1-1.2.1l.2-.3c.4-.5.4-.2.6-.6.5-.8 1.1-.2 1.6-.9-.6.1-.3.1-.9 0 .2-.8 1-.4 1.6-.8 1.2-.7.6-1.4 2.8-1.9.6-.1 1.3-.4 1.9-.4-.2-.8-.6 0-1.8 0 .4-.3 2.1-1 2.6-1.2.4-.2.5-.1.7-.6-.6 0-1.2.4-1.7.6-1.2.5-2.4 1.2-3 1.5-1.3.5-3.3 1.6-4.5 2.2l-1.4.8c-.8.3-1-.1-1.5.6.4-.1.8-.3 1.2-.3-.2.3-.9.8-1.2 1-1.3 1.1-.8.3-1.3.9.3.1.1-.1.2.2-1.3.8-3 3.4-3.8 4.8-.2.3-.4.6-.5.9l-.7 1.4c-.6 1.2-1 2-1.4 3.5-.2.7-.3.4-.4 1.1-.3 1.3-.8.7-.5 1.6 0 .1 0 0 .1.2 0 .3-.2.6-.2 1.1-.7.2-.7.1-.9.8.5 0 .2-.1.6 0 .2.1-.1.2.6.1.4-.1.9-.2 1.3-.3.4-.1.8-.2 1.3-.3 1-.3.9-.2 1-.6-.4.2-.5.2-.9 0 .6-.9 1 0 1.3-1 .1-.2.1-.3.1-.5-.6.1-1.2.7-1.5-.1.2-.1.3-.1.6-.2 2-.7.7.1 2.3-3-.8.2-1.8.2-2.6.3.1-.4-.1-.1.4-.3l1.3-.5c1.5-.5 1.1-.1 1.6-.9-.5 0-.5 0-.8-.1.1-.3 0-.2.3-.3.3-.2.6-.1 1-.4-.6 0-.8.1-1.2.1.3-.4 0-.1.5-.3 1.2-.6.9-.1 1.4-.9-.5 0-.8.2-1.3.3-.6.2-3 .8-3.5.6-.1-.2-.2 0 .8-.4 1.8-.8 3.9-1.2 5.2-1.9.8-.6 1.6-.7 1.9-.9zm40.4-12.6c.3.1.2 0 .3.2h-.3v-.2zm-35.5 0c.4.1.3 0 .4.3-.5.1-.2.1-.4-.3zm18.4 4.2l-3.4-.3c-3.6-.5-6.4-1.3-9.7-2.8-1.1-.5-2.1-.9-3.1-1.6-.4-.3-.6-.6-1.1-.8h-.1l-.2-.1c-.6-.2-1.4-.2-1.9.1-.4.2-.6.4-.9.6-1.7 1-3.8 2.8-5.2 4.2l-1.6 1.5c-1.6 1.6-2.9 3.5-3.8 5.5-.3.6-.1.5-.7.9.2.7-.3 1.1-.6 1.7-.2.5-.2.5-.5.7-.3.2-.5.3-.6.8.3 0 .3-.1.6-.1-.4.5-1.2.6-1.1 1.8v.1l-1.4 3.2c-.6 1.7-.8 3-1.3 4.7-.2.7-.2.3-.4.6-.3.3-.3.5.2.6-.1.3-.2.3-.2.6 0 0 .1.1 0 .4-.1.3 0 .2-.3.3v.3c.3.1.2.2 0 .8-.4 1.5-.7 2.9-.7 4.4 0 .6-.2.7-.2 1.1 0 1.2-.4 1.2-.4 2.2-1 .2-2.2.3-3.2.4-1.7.2-8.6 1-9.8 1.6.4.6 1.6.3 2.3.2 2.2-.2 5.2-.9 7.6-1 .1.7.5.3 2.1.3.6 0 .7-.1 1.2-.1l10.4-.3c2.1-.2 4.3-.2 6.5-.2l7.4-.4c.8-.1 1.8 0 2.6 0l10.2-.2c2.5 0 5 .1 7.5-.1 2.1-.2 4.3.1 6.4-.1 1.8-.2 3.6.1 5.4 0l3.8-.1c.6 0 .7-.1 1.2-.1l6.6-.1h1.2c2-.1 4.4 0 6.4-.2h1.3c.6 0 .8-.1 1.3-.1.1.3.3.9.3 1.2h.4c0-.6-.1-.7-.1-1.2.8 0 1.4-.1 2.3-.1 1-1.8 1.9-.8 1.9-2.1-5.3 0-4.7.4-5-.9.5 0 .7-.1.8-.6-.5-.3-.3-.2-1-.2 0-.6-.4-1.4-.5-2.1-.2-1-.5-1.5-.2-2.1-.4-.2-.3-.1-.5-.6-.4-1.4-1-3.9-1.7-5.2l-.1-.2c.3-.4.2 0 .3-.4-.3-.2-.3-.2-.5-.6-.2-.5-.1-.4-.5-.6.2-.5 0 .1.2-.4-.7-.2-.3-.4-.2-.9-.6 0-.5-.1-.7-.6-.1-.4-.3-.7-.4-1.1.2-.2 0-.1.3-.2-.1-.8-.6-.3-.6-1 0-.5.5-.4.8-.8-.4 0-1 .1-1.3.2-.2-.7-1.2-2.5-1.7-3.2l-1.4-2.2c-.2-.3-.4-.5-.5-.7.2-.3.2-.1.3-.6-.3-.1-.6-.4-.8-.5-.4-.1-.2.1-.7-.5-.6-.7-1.4-1.4-2-2-1.2-1.1-2.2-2.2-3.6-3.1l-3.3-2c-1.9-1.3-1.1-.9-2.7-.9.3-.4 4.2-3.3 3.9-4.9-.4.1-1.1 1.4-1.8 2.1-.7.7-1.4 1.2-2.1 1.8l-3.4 2.5c-1.2.8-2.5 1.5-4 2-2.1.7-4.1 1.3-6.4 1.4-1.1.2-2.2.4-3.6.4z"/><path class="st91" d="M20.1 46.5c.3.1.6.2 1 .2s.7 0 1.1-.1c.3-.1.7-.3.9-.6.3-.3.5-.6.7-.8.2-.2.4-.6.6-1.3.3-.8.7-1.8 1.1-3.2 1.1 1.1 1.8 1.9 2 2.4-1.3 4.8-3.6 7.2-6.9 7.2-1.6 0-3.5-1-5.9-3-1.3 2-3.2 3-5.9 3-1.2 0-2.2-.4-3.2-1.2-.9-.8-1.4-1.9-1.4-3.4s.5-2.7 1.5-3.6 2.3-1.4 3.8-1.4c.3 0 .7 0 1.3.1l.6-5.2c-1.2.4-3.1.9-5.6 1.5V34c2-.5 4-1 5.9-1.6l.8-6.7c.6-4.6 2.9-6.8 7-6.8 1.6 0 2.9.4 3.9 1.3s1.5 2.1 1.5 3.7c0 3.9-2.5 7-7.5 9.4L16.1 43v.4c2 1.8 3.4 2.8 4 3.1zM7.4 45.4c0 .8.5 1.2 1.4 1.2.9 0 1.5-.8 1.7-2.4-.5-.2-1-.3-1.5-.3s-.8.1-1.1.4c-.3.3-.5.7-.5 1.1zm14.4-21.1c0-1.1-.5-1.7-1.4-1.7-1.1 0-1.9 1.4-2.2 4.1l-.4 3.2c2.6-1.6 4-3.5 4-5.6z"/><path class="st91" d="M36 38.8c.8-1 1.2-2 1.2-2.9s-.2-1.6-.7-1.9c-.5-.3-1.1-.5-1.7-.5-1.3 0-2.4.7-3.4 2.1-1 1.4-1.5 3.1-1.5 5.1s.5 3.5 1.4 4.4c.9 1 2.1 1.5 3.5 1.5 2 0 4-.7 5.9-2.1s3.4-3.3 4.6-5.6c.6.6 1.1 1.3 1.6 2.1-.9 2-2.5 4.1-4.8 6-1.1 1-2.5 1.7-4.1 2.3-1.6.6-3.2.9-4.9.9-2.7 0-4.9-.8-6.5-2.5-1.7-1.8-2.5-4.1-2.5-6.9 0-2.8 1.1-5.3 3.2-7.4 2.1-2.1 4.6-3.2 7.6-3.2 2.1 0 3.8.5 5.1 1.4 1.3.9 2 2.1 2 3.7 0 2.1-.8 3.8-2.5 5.1s-4 2.2-6.9 2.7l-.6-2.4c1.9-.2 3.2-.9 4-1.9z"/><path class="st91" d="M53 21.5c0 .2-.4 3.1-1.1 8.8h6v3.2h-6.4l-.1 1c3.2 2.7 4.8 5.6 4.8 8.8 0 2.5-.6 4.3-1.9 5.4-1.3 1.1-2.8 1.6-4.6 1.6-1.8 0-3.1-.5-3.9-1.4-.8-.9-1.2-2.1-1.2-3.4 0-.3 0-.6.1-1L46 33.6l-.2-.1h-3.3v-1.3c0-.6.1-1.2.4-1.8h3.5l1.3-11.1c.6-.2 1.3-.3 2.3-.3 1.9-.1 3 .8 3 2.5zm.4 21.7c0-1.9-.8-3.7-2.5-5.6-.5 4.1-.7 6.4-.7 7 0 1.2.4 1.8 1.2 1.8.6 0 1.1-.3 1.4-.8.4-.4.6-1.2.6-2.4zM58.3 20.9c0-.9.3-1.6 1-2.3.6-.7 1.4-1 2.4-1s1.8.3 2.5.9c.7.6 1 1.5 1 2.7 0 1.2-.6 2.6-1.8 4.1-1.2 1.6-2.4 2.8-3.5 3.7h-.3c-.1 0-.5-.1-1-.2-.5-.2-.8-.3-.9-.4 1.3-1.5 2.4-2.9 3.4-4.3-.8-.1-1.4-.5-1.9-1.1-.6-.5-.9-1.2-.9-2.1zM85.1 37.5c2.2 1.6 3.2 3.5 3.2 5.6s-.8 3.9-2.5 5.2c-1.7 1.3-3.8 2-6.4 2-1.7 0-3-.4-4.2-1.2-1.1-.8-1.7-1.9-1.7-3.1 0-1.2.4-2.2 1.2-2.9.8-.7 1.8-1.2 3.1-1.3-.5.7-.8 1.5-.8 2.2 0 .8.3 1.4.8 1.8.5.5 1.2.7 2 .7s1.4-.3 2-.9c.5-.6.8-1.3.8-2 0-1.3-.6-2.4-1.8-3.4-.7-.6-1.5-1.1-2.3-1.6-.8-.5-1.3-.8-1.3-.8-.1-.1-.2-.2-.3-.2-.5.6-1.2 1.4-2.1 2.4-.9 1-1.7 1.8-2.2 2.4-1.5 1.7-2.4 3.1-2.6 4.2-.1.2-.1.6-.1 1.2s.2 1.2.6 1.9c.4.7.8 1.1 1.3 1.5.5.3 1 .6 1.5.8.5.2.9.3 1.3.4.4.1.6.1.6.2 0 .2-.3.4-.9.7-1.1.4-2.3.6-3.5.6-1.2 0-2.4-.4-3.5-1.3-1.6-1.2-2.3-2.8-2.3-4.8 0-1.2.3-2.4.9-3.6 1.1-2.1 3.7-5 7.9-8.8-1-1-1.5-2.1-1.5-3.2s.4-2.1 1.3-2.9c.9-.8 1.9-1.2 3-1.2s2 .4 2.8 1.3c.5.6.8 1.3.8 2.2 0 .9-.3 1.9-.9 2.9 2.8 1.2 4.8 2.3 5.8 3zm-8.9-4.6c.7-.7 1-1.2 1-1.5 0-.7-.3-1-.9-1.1-.7 0-1 .4-1 1.1 0 .5.3 1 .9 1.5zM12.3 85.6c-4.2 0-7.3-1.1-9.3-3.2-2-2.2-3-5-3-8.5s.6-6.8 1.8-9.7c1.2-2.9 3-5.3 5.4-7.2 2.4-1.9 5-2.8 7.8-2.8s5 .7 6.6 2c1.6 1.4 2.4 3.2 2.4 5.4s-.7 4.2-2.1 5.7c-1.4 1.5-3 2.3-4.9 2.3s-3.3-.4-4.4-1.2c-1-.8-1.6-1.7-1.6-2.7s.4-1.7 1.1-2.2 1.8-.8 3.3-.8c-.4.4-.5.8-.5 1.4s.2 1.1.5 1.5c.4.4.9.7 1.6.7s1.5-.4 2.2-1.2c.7-.8 1.1-1.8 1.1-3.1s-.4-2.3-1.2-3.1c-.8-.8-1.9-1.1-3.3-1.1-1.9 0-3.5.8-5.1 2.3-1.5 1.5-2.7 3.4-3.5 5.7-.8 2.3-1.2 4.8-1.2 7.3 0 2.2.5 4.2 1.4 5.9.5.9 1.2 1.6 2.2 2.1 1 .5 2.1.8 3.4.8 2.2 0 4.4-.7 6.5-2.1s3.8-3.3 5.2-5.5l1.4 2.5c-1.6 2.6-3.6 4.8-6.1 6.4-2.1 1.6-4.8 2.4-7.7 2.4z"/><path class="st91" d="M34.8 80.7l1-9c0-.7-.2-1.4-.6-1.8-.4-.5-1-.7-1.8-.7s-1.6.3-2.1 1c-.6.7-1 1.5-1.3 2.6-.2 1.6-.5 3.8-.9 6.8s-.6 4.9-.7 5.8H23c2-16.7 3.2-27 3.6-30.8.6-.2 1.4-.3 2.3-.3 2.1 0 3.2.6 3.2 1.9v.2c-.5 4.3-1 8-1.5 11.3 1.4-1.3 3.1-2 4.9-2 1.8 0 3.3.5 4.3 1.4 1.1.9 1.6 2.1 1.6 3.5 0 .4-.1 1.1-.2 2.1-.6 4.1-.9 6.5-.9 7.2 0 1.3.4 1.9 1.3 1.9.7 0 1.5-.5 2.3-1.4.8-.9 1.5-2.4 1.9-4.4.9 1 1.5 1.8 1.7 2.3-1.4 4.7-3.9 7.1-7.5 7.1-1.7 0-2.9-.5-3.8-1.6-1-.8-1.4-1.9-1.4-3.1z"/><path class="st91" d="M62.2 85.6c-2.5 0-4.2-.9-5-2.6-1.4 1.8-3.2 2.7-5.5 2.7-2.2 0-4.1-.8-5.6-2.3-1.5-1.5-2.3-3.5-2.3-5.9 0-3.6 1.1-6.4 3.2-8.6 2.1-2.1 4.8-3.2 8-3.2h.2c1.4 0 2.6.2 3.8.7.7-.5 1.6-.7 2.7-.7 1 0 1.8.1 2.3.4-.2 2-.5 4-.8 6-.3 2-.5 3.3-.6 4.2-.2 1.9-.4 3.2-.4 4 0 1.1.4 1.6 1.3 1.6.7 0 1.4-.5 2.2-1.4.8-.9 1.4-2.4 2-4.3.8.7 1.3 1.5 1.6 2.4-.8 2.6-1.9 4.4-3.2 5.5-1.3 1-2.6 1.5-3.9 1.5zm-6.6-16.7c-1.7 0-3.1.7-4.2 2-1 1.3-1.6 3.3-1.8 5.9v.7c0 1.3.3 2.4 1 3.2.6.8 1.5 1.2 2.5 1.2 1.7 0 3-1.2 3.9-3.6l1-8.8c-.9-.4-1.6-.6-2.4-.6z"/><path class="st91" d="M75.7 56.9c0 .2-.4 3.1-1.1 8.8h6v3.2h-6.4l-.1 1c3.2 2.7 4.8 5.6 4.8 8.8 0 2.5-.6 4.3-1.9 5.4-1.3 1.1-2.8 1.6-4.6 1.6-1.8 0-3.1-.5-3.9-1.4-.8-.9-1.2-2.1-1.2-3.4 0-.3 0-.6.1-1L68.7 69l-.2-.1h-3.3v-1.3c0-.6.1-1.2.4-1.8H69l1.3-11.1c.6-.2 1.3-.3 2.3-.3 2-.2 3.1.7 3.1 2.5zm.4 21.7c0-1.9-.8-3.7-2.5-5.6-.5 4.1-.7 6.4-.7 7 0 1.2.4 1.8 1.2 1.8.6 0 1.1-.3 1.4-.8.4-.4.6-1.3.6-2.4zM81.7 80.5c.6-.7 1.4-1 2.4-1 .9 0 1.7.3 2.4 1s1 1.4 1 2.4c0 .9-.3 1.7-1 2.4-.7.6-1.4 1-2.4 1-.9 0-1.7-.3-2.4-1-.6-.6-1-1.4-1-2.4.1-1 .4-1.8 1-2.4zm3.8-29.1c.5-.3 1.5-.4 2.9-.4 2.7 0 4 .6 4 1.9v.4l-5.1 21.4h-4.4l2.6-23.3z"/><path class="st90" d="M123.3 45.4l.2.1-.2-.1zm16.4-24.5c-1.3 8.1-.7 7.2-4.3 14.2 2.7-7.8 2.2-6.3 3.1-14.3.1-.5.4-.9.7-.9.4.1.6.5.5 1zM87.2 35.1c.1 0 0 0 0 0zm-1-2.7zm1.3 3.2zm-1-2.4s-.1 0 0 0zm.3.8v.1l.2-.1h-.2v-.1l-.1.1h.1zm-.7-2.1v.1l.1-.1h-.1c-.4-.4-.8-2.1-1-2.7l-.6-2.9c-.1-.9-.3-2-.3-3.1 0-5.3 1.2-8.7 3.9-12.9l1.6-2.2c-.3-.1-.3-.1-.5-.2l.1-.3c.9.2.8.1 1.4-.3.4-.4 1-1.3 1.9-2 .4-.3.6-.5 1-.7 1.3-.8.8-.2 1.7-.9.5-.4 2.2-1.2 2.9-1.5-.2-.2-.5-.3-.8-.5l.1-.2c.3.1.8.5 1.1.5.2 0 .9-.3 1.1-.4 1.3-.5.8-.3 2.1-.6 1.1-.2 3.6-.8 4.6-.9 1.9 0 3.2-.2 5-.1l5.4.7.8.2c1.6.4 3.2 1.2 4.4 1.8.8.4 1.5.8 2.3 1.2 1.9 1.1 4.4 2.6 5.9 4 1 .9 1.3 1.1 2.1 1.9l.4.4c.3.4 0 .2.6.8 0-.3-.4-1-.7-1.4l-3.7-5.2c1.5.8 3.6 3.5 4.7 4.9.8 1.1 1.6 2.5 2.1 3.8 1 2.7.7 3.6 1 4.5.1.4.1-.1 0 .5-.2 1.3.5.7.5 1.5-.3-.1-.3-.1-.5-.2 0 .4.1.8.2 1.3l-.1 4-1 4.6c-.3 1.1-.8 1.6-1.2 2.4-.5 1.3-.2 1.6-1.9 3.3-1.3 1.3-1.2 1.3-2.7 2.3l-.3.3c-.2.2-.2.3-.3.5.4.1.3 0 .4.4-.4.1-.4-.1-.8-.3 0 .5.1.6.1 1.1 0 2 .3 4.4.8 6.3.4 1.6.7 3.3 1.2 4.9.1.4.1.1.1.6.1 1.2.7 2.6.7 3.5-.4-.2-.2-.1-.8-.2 0 .4.3.9.5 1.4-.3-.2-.1 0-.3-.4l-.9-1.8c-.1-.3-.2-.5-.3-.7l-2.1-2.5c-.9-.8-2-1.4-3-2.1l-3.1-1.9c-1.2-.7-3.9-2.1-5-2.8-2.8-2-2.2-1.2-3.2-1.3-1.2-.1.4-.3-1.7-.3-1.2 0-3-.6-4.3-.9-3-.7-5.7-1.7-7.9-2.9-1.2-.6-1.7-1.2-3.2-2l-3.3-1.8c-.6-.3-3-2.3-3.5-2.8-1.1-1.4-.8-1.5-1.3-2-.2-.3-1.2-1.7-1.3-2-.1-.5-.2-.2-.4-.7-.3-.5-.3-1.1-.5-1.6-.3-.6-.1-.9-.4-1.6-.2 1 0 4.9.2 6.2-.2.6 0 1.7 0 2zm24.9-9.8c.3.1.7.1.8-.3.2-.8.2-.8-.6-.9-.3.5-1 1-.2 1.2zm-2.4-1.3l.3 1.7c.5.4.2.5.6.9.5.6 1.3.3 1.9.2 2.7-.4 2.7-2.7 1.7-3.7-.4-.4-.3-.1-.7-.7-.9-1.7-3.4.2-3.8 1.6zm9.5 2.7c-.2.9 1.8 2.2 2.2.5.3-1.4-1.9-1.6-2.2-.5zm-1.5-.9c-.2.9-.5 1.5.3 2.6 2.2 2.9 7.3-.2 4.4-2.8-.8-.7-2.1-2.2-3.7-1.1-.4.2-.8.7-1 1.3zm-14.8-2.9c-.1.4.4.8.8.9.7.2.6-1.6.2-2-.4.1-.9.6-1 1.1zm-.5 2.3c1.4.3 1.5 0 2.7-.5 1.9-.7 3.2-2.8.3-4-.2-.1-.5-.1-.7-.2-.7-.4-.7-1.6-2.7-.2-.6.4-.9.7-1.1 1.7-.4 1.3.2 2.9 1.5 3.2zM82 15.7c-.6 2.6-.9 4.3-.6 6.6.2 1.5.2.7.3 2.6 0 .7.2 2.1.6 2.5 0-1.4.4-.6.4-1.5 0-1.1-.3-2 0-3.4.8-4.1.4-5.5 2.3-9.7.3-.6.9-2 1.4-2.5.5-.6 0-.9-1.5.7-.3.3 0 0-.3.2-1.2.7-2.2 3.1-2.6 4.5zm41.3 29.7c-.5-.1-.2 0-.3-.2.5.2.2.1.3.2zm2.6.2c.2.4 1.4 1.5 1.8 1.8 0-.4 0-.3-.3-.6l-1.5-1.2zm0 0l-.2-.2.2.2zm-.2-.1l-.2-.1.2.1zm-1.3-.6s0 .1 0 0zm-.4-.3c.1.3 0 .1.3.3-.1-.3 0-.2-.3-.3zm-1 .6l-2.4-1.8.3.6c.1.3 1.8 1.2 2.1 1.2zm-2.5-1.7l-.2-.2.2.2zm-1.8-.6s0 .1 0 0zm1.6.4l-.2-.2.2.2zm-.2-.1l-.2-.1.2.1zm-.5-.4c-.2.1.1.1.1.1.3.2.1-.2-.1-.1zm-5.2-1.7s.1 0 0 0zm-13.2-3.6l.2.1-.2-.1zm0 0c-.1 0-.1 0 0 0l-.5-.4c-.2-.1-.3-.2-.5-.3l-.1.3c.5.2.5.3 1.1.4zm3.6.5c.2.3.4.4.7.6.2.2.2 0 .3.4v.3c.4.1.4 0 .9.1-.3-.5-1.5-1.3-1.9-1.4zm0 0c-.1-.1.2-.1-.3-.2.1.1-.2.1.3.2zm-.3-.2l-.2-.1.2.1zm18.5 4.4l4.4 4c-.2-.7 0-.9-.4-1.3-.2-.2-.8-.6-1-.8-2.4-2.2-1.9-1.7-3-1.9zm-18.8-4.7c-.1 0 0 0 0 0zm-6.5-1.9l.2.1-.2-.1zm26.3 9c-.4-1-4.6-3.7-5.2-3.9.1.1 0 .1.2.2l5 3.7zm-3.1-3.6l.2.1-.2-.1zm-2.1-.4c-.1-.1.3 0-.3-.2.1.2-.3.1.3.2zm-.6-.3c-.2.1.1.1.1.1.3.1 0-.2-.1-.1zm5.9 1.2c.1.6-.1.5.5.9.3.3.5.4.9.7.4.4 1.2 1.2 1.7 1.4 0-.5-.1-.6-.5-.9-.6-.5-1.8-1.8-2.6-2.1zm-3.2-.5c-.3-.4-.9-.8-1.4-.9l1.4.9zm-14.3-4.1c.1.2.1.1.3.3l.8.6c.9.8 1.3 1.1 2 1.6.4.4.1.4.9.6.3.1.6.1.9.2-.2-.3-2-1.5-2.4-1.7-.5-.3-.8-.5-1.2-.8-.5-.3-.8-.6-1.3-.8zm12.6 3c-.2.1.1.1.1.1.3.2.1-.2-.1-.1zm-10.8-2.7l3.6 2.6 2.4 1.1c-.2-.3-2.5-1.7-2.9-2-.7-.2-2.6-1.5-3.1-1.7zm-1.8-.3l-.2-.1.2.1zm9.3 2.1l.2.1-.2-.1zm-7.5-1.8c-.1-.1.2-.1-.3-.2.1.2-.3.1.3.2zm-2.3-.6c-.2.1.1.1.1.1.3.1.1-.2-.1-.1zm2 .5c-.1-.2.3 0-.3-.2.1.1-.3 0 .3.2zm-2.2-.7zm1.7.3zm4.9.9l.2.1-.2-.1zm-1-.3c-.1 0 0 .1 0 0zm-.5-.2c.1.1-.3 0 .3.2-.1-.2.3-.1-.3-.2zm4.9 1.9c-.5-.7-1.1-1.1-2.2-1.4.2.4.6.6 1 .8.4.2.8.5 1.2.6zm-4.9-1.9c-.1-.1.3 0-.3-.2.2.2-.2.1.3.2zm-2.9-.8l.6.4c2.9 1.5 5.7 3.5 8.5 5.4.3.2.9.6 1.3.8l-.2-.2-.1-.1c-1.7-1.6-6.5-4.3-8.7-5.6-.1-.1-.2-.1-.4-.2-.5-.4-.1-.3-1-.5zm-2-.5c-.2.1.1.1.1.1.5.2 0-.2-.1-.1zm-4-1c.2.3 3.1 2.2 3.5 2.5 1.4 1 2.3 2.2 3.6 2.5-.2-.3-1.1-1-1.6-1.4-.9-.7-4.9-3.5-5.5-3.6zm11.6 2.8l-.2-.2.2.2zm-3.3-.9c-.2.1.1.1.1.1.3.2.1-.2-.1-.1zm-8.3-1.9c-.1-.1.2-.1-.3-.2.1.1-.2 0 .3.2zm11.4 2.7l-.2-.1.2.1zm-1 .1s0-.1 0 0l-.6-.6-.1-.1c-.1-.1 0 0-.2-.1h-.5-.1c.7.3.9.6 1.5.8zm-10.7-3l-.2-.1.2.1zm22.1 5.1v.7c.1.5.7.7 1.4 1.2.4.3.6.5.9.8l.8.8c.1-.5.1-.9-.2-1.3l-2.9-2.2zm-22.5-5.5c0 .1 0 .1 0 0zm-3.7 1.4c-.1-.5-.1-.4-.6-.7L92.7 32c-.6-.4-1.2-.8-1.7-1.1.1.4.3.4.7.7.7.6 1.8 1.3 2.5 1.8.3.2.6.3 1 .5.6.5 1.6 1.4 2.5 1.7zm26.2 3.2c.1.4-.2.1.2.5.1.1.3.2.4.3.6.5 2 1.8 2.5 2-.1-.6-.1-.5-.6-.8l-2.5-2zm-27.5-7.2l.2.1-.2-.1zm0 0c-.1-.1.2-.1-.3-.2.1.2-.2.1.3.2zm-.3-.2l-.2-.2.2.2zm-.2-.1l-.2-.1.2.1zm27.9 6.2c.1.7-.2.4.5 1l2.6 2.1c0-.7-.7-1.1-1.3-1.7-.7-.5-1.2-.9-1.8-1.4zm2.8.6zm-2.7-1.5c.1.4-.2.2.5.9l2.3 1.9c.1-.9-.6-1.1-1.2-1.6-.3-.3-1-1-1.6-1.2zm-35.1-8.7c.3.9.8 1.2 1.7 1.7.8.5 1.4.9 2.1 1.3 3.4 2.2 6.8 4.5 10.1 6.9.7.5 1.1.9 2.2 1.2l-.5-.5c-.2-.1-.3-.2-.4-.4-.8-.7-1.2-.9-1.9-1.4L94.9 32c-.7-.5-1.4-.9-2-1.4l-3.1-2c-.3-.2-.7-.5-1-.7zm.8.1zm4.2.8l.2.2 1.3.9c-.1-.3-.4-.4-.7-.7-.4-.4-.3-.4-.8-.4zm-3.2-.8zm36 10.1l.1-.5c-1.1-.5-2.1-2.2-2.6-1.2.9.2 1.6 1.2 2.5 1.7zm-33-9.5s0 .1 0 0zm-3.4-.8c.1.1-.3 0 .3.2-.1-.2.3-.1-.3-.2zm-1.4.1h.8c-.5-.2-.5-.3-.9-.5 0 .1 0 .2.1.3 0 .3-.1 0 0 .2zm4.5.5s0 .1 0 0zm-4.7-1zm4.4.8l.2.1-.2-.1zm0 0c-.1-.1.2-.1-.3-.2.1.2-.2.1.3.2zm34.4 8.9c-.5-.2-1.4-1.1-1.9-1.4-.4-.2-.3-.2-.6.1 1.4.4 1.9 2 2.5 1.3zm-37.2-9.3l-2.3-1.5-.1.2c.4.2.7.4 1.2.7.5.2.8.5 1.2.6zm35.5 7.4c.2.4-.2 0 .2.3l.4.2c.3.2.4.3.7.5.9.8.9.8 1.3.4-.3-.3-.8-.6-1.2-.9-.9-.4-1-.6-1.4-.5zm1.1-.3l.1-.2c.7.2.9.5 1.3.8.4.3.7.7 1.1.6-.1-.3-.4-.4-.7-.6-.7-.5-1.5-1.3-2-.9-.3.2-.1-.2-.2.4.4.2 1 .6 1.3.9 1.1.9 1 .8 1.2.5-.8-.5-1.3-1.1-2.1-1.5zm-34.1-6.8c-.2-.3-.9-.7-1.2-.9-1.5-1-2.3-1.6-4-2.5l.2.5c1.3.3 4 2.5 5 2.9zm-1-2.5zm35.8 8.1c-.2.2-.2.2-.4.5 1.4.4 2.3 2.3 2.7 1-.5-.2-1.5-1.2-2.3-1.5zm-41.8-9.8zm42.9 9.1l-.7.4c.7.3 1.9 1.5 2.4 1.6.2-.4.3-.3.4-.7-.6-.1-1.4-.9-2.1-1.3zM87.2 22.9c-.1.4 0 .2 0 .5.1 1 .1.7.7 1 2.4 1.1 3.8 2.5 4.8 2.9-.1-.3-.3-.4-.4-.7-.5-.8-2.5-1.8-3.4-2.3-1.4-.8-1.3-.4-1.3-.9.4-.1 1.8.7 2.2 1 .5.3 1.5 1 2 1.2-.2-.3-1.8-1.3-2.2-1.5-.6-.3-1.8-1-2.4-1.2zm0 0zm3.6.5c0 .1.1.1 0 0zm-.2-.1s.1 0 0 0zm38.8 8.9c-.2.2-.3.3-.5.6 1.7.9 1.8 2 2.5.7-.4-.3-1.5-1.1-2-1.3zm-39.2-9.3c-.1 0 0 .1 0 0zm.5-.3zm-3.7-.9c.2.8-.1.5.9 1l2.4 1.4c.4.3.7.5 1.1.7-.3-.8-3.7-2.9-4.4-3.1zm3.4.7c-.2.1.1.1.1.1.3.2 0-.2-.1-.1zm-.3-.2l.2.1-.2-.1zm40.1 9.1l-.3.6c.5.2.7.5 1.1.7.2.2.9.7 1 .2.1-.3 0-.2-.3-.5l-1.5-1zm-40.1-9.1c-.2-.3-.4-.3-.7-.6-.3-.2-.5-.3-.7-.5-.3-.2-1.1-.7-1.6-.9l2.4 1.5c.1.3.3.4.6.5zm40.6 7.9c-.1.4-.1.4-.3.6.4.3 1.4 1.1 1.8 1.4l.2-.8c-.4-.4-1.1-.7-1.7-1.2zM87.1 19.2c-.1.3 0 .4-.1.7.6.2 1.5.7 2 1l1.8 1.2c.1-.5.1-.3-.1-.6-.5-.4-3-1.7-3.6-2.3zm44.1 10l-.3.6 1.8 1.2.4-.6c-.7-.3-1.1-.8-1.9-1.2zM87.1 18.4l-.1.5c.2.2 2.4 1.1 3.9 2.4 0-.7.2-.7-.4-1-.4-.3-.6-.4-1-.7-.9-.4-1.6-.8-2.4-1.2zm.1-1c.1.7-.3.5.6.9l2.1 1.1c.4.2.6.4 1 .6l.1-.5c-.9-.9-2.7-1.6-3.8-2.1zm.1-.7l-.1.3c1.4.4 2.6 1.3 3.8 1.9-.1-.4-3.3-2.1-3.7-2.2zM132 26c-.1.9-.1.8.5 1.3 1.1.8.9.7.9 1.1l-1.6-1.1-.2.7c.7.4 1.4 1.1 2.2 1.5l-.1.2c-.8-.2-1.5-.9-2.2-1.2-.1.6-.2.4.2.7l1.8 1.2c.2-.4.4-.7.6-1.2.2-.6.3-.8.5-1.5-.9-.4-1.9-1.2-2.6-1.7zM87.8 14.8c.6.1.7 0 1.2.2l2.6 1.5c.1-.3.1-.4.3-.6-.4-.3-1.2-.8-1.8-1.1l-2-.9c-.6 1.1-.4 1.7-.6 2.6 2.5.6 2 .8 3.8 1.8.1-.6-.1-.4-.6-.7-.5-.3-2.2-1.5-2.7-1.6l.1-.2c2 .5 2.4 1.4 3.5 1.7-.1-.6.1-.5-.6-.9l-2.1-1.2c-1.3-.6-.9-.2-1.1-.6zm44.3 9.7v.5c0 .3 0 .3.1.5.2.3 2.3 1.6 2.4 1.8l.2-.9c-.8-.3-1.9-1.5-2.7-1.9zM88.8 12.9c-.1.5-.1.4-.4.7 1.6.4 2.9 1.5 3.6 1.7.1-.2.1-.2.2-.5l-3.4-1.9zm43.6 10.3c-.1.5-.1.7.2 1 .2.2.5.4.8.6.4.4 1.1.9 1.6 1.2l.2-.7-2-1.6c-.4-.2-.6-.3-.8-.5zm-1.5-.3zM89.3 11.8l-.2.8c.7.2 1.2.6 1.8 1 .5.3 1.3.6 1.7.9l.2-.7c-.7-.4-1.7-1.1-3.5-2zm.6-.9c-.1.2-.1.2-.2.5 1.1.6 2.4 1.2 3.2 1.9.2-.2.3-.3.4-.6-.9-.2-2.5-1.5-3.4-1.8zm42.4 10.5c-.1.4-.1 1 .1 1.3l2.6 2.2c.1-2.4-.1-1.2-2.7-3.5zm-38.7-9.6l-1.8-1c-1.4-.7-1.3-1-1.6-.3l1.6 1c.5.3 1.1.6 1.5.9l.3-.6zm38.5 8.3c.2.9-.2.5 1.2 1.6.5.4 1.2.8 1.6 1.2.2-.7 0-.6-.4-1-.5-.4-2.1-1.7-2.4-1.8zM91.4 9.2c-.2 0-.5.5-.6.7.6.3 2.7 1.6 3.1 1.7.3-.3.1-.3.5-.7-.3-.3-2.5-1.6-3-1.7zm40.4 9.8c.1.4-.2.2.7.9.3.3.6.4.9.7l1.8 1.3c0-.4 0-.2-.3-.5-.1-.1-.3-.3-.5-.4l-2.6-2zM92.1 8.2c-.1.3-.2.3-.4.5l3 1.8.5-.6c-.5-.4-2.4-1.5-3.1-1.7zm.9-.9c-.2.2-.3.4-.5.7 2.5.8 3 2.6 3.8 1.1-.5-.1-.5-.2-.8-.4L93 7.3zm36 9zM94 6.4c-.2.4-.4.3-.7.6l3.2 1.8c.2-.2.5-.5.6-.8-.8-.2-1.9-1.3-3.1-1.6zm36.2 9.2c.2.5.4.7.9 1.1l2.2 1.8c.4.3.8.6 1 1-.5.1-1.1-.7-1.8-1.2l-1.7-1.4c.5 1.4.7 1.2 1.8 2.2.4.3 2.1 1.7 2.5 1.8l-.3-1.9-4.6-3.4zm0 0zM95.6 5.7c-.2 0-.8.3-.9.5.5.2 1 .6 1.5.9.5.3.8.6 1.3.9.2-.1.9-.4 1.1-.5-.7-.3-2.5-1.6-3-1.8zm38.2 9.9zm-7-2.2zM96.3 5.1l-.5.5c.4.1 1.1.5 1.5.8 2.1 1.4.9.7 2 .7l.1-.2c-.7-.3-2.4-1.4-3.1-1.8zm32.3 8.3c.3.8 2.1 2.1 2.9 2.7l3.2 2.4c0-.5-.1-.5-.4-.8l-5.7-4.3zm.4 2.9c-.4-1.2-2.4-3-3.5-3.4l.1-.2c.8.2.7.4 1.3.7-.5-.7-1.5-1.9-2.4-2.3-1.3-.6-2.4-1.7-3.6-2.3l-2.5-1.2c-.4-.2-.6-.1-1-.3-.4-.2-.3-.2-.9-.4-2.9-.7-2-.3-3-.5l-3-.4c-.6-.1-.5-.1-1-.1-1.3 0-.3-.1-2 0h-.1c-.3 0-.5-.3-2.2 0l-2.3.6c-.3.1-.5.2-.7.3-.3.1-.9.2-1.1.4-.2.1-.1 0-.2.2.5.1.8.3 1 .7-.6-.2-1-.5-1.4-.7-.2.4-1.4 1.1-1.9 1.3-.7.4-1.2 1.1-1.7 1.5-1.1 1-1.2.7-2.1 2.3-.4.7-1 2.3-1.1 2.6-.3.5-.7.5-.8 1.4 0 .4-.1.5.3.7l-.2.4c-.4 0-.4.2-.4.9 0 .6-.1.6.4.9-.1.4-.1.4-.5.3-.1.5-.3 2.2-.3 2.7 0 .8.5 2.5.8 3.2l.6.8c.3.4.4.4.7.8.2.3.4.5.7.8.5.5 1.1 1 1.6 1.5.3.3.5.5.9.6 1 .3 2.5 1.6 5.2 2.7s5.3 1.7 8.2 2.4c2.5.6.5-.5 5 1.3 1.9.8 2.7 1.1 4.5 2.1l2.3 1c-.1-.4.1-.5-.2-.8-.2-.2-.5-.3-.8-.4.2-.7.2-.3.8-.1 0-.5-.2-.4-.2-1.6 0-.5 0-1.2.4-1.7.2-.2.5-.3.7-.4.6-.3 1.3-.6 1.9-1 .8-.7.1 0 1.2-1 .4-.3.8-.4 1.2-.8.5-.4 1.5-2 1.8-2.6-.5-.2-.2.1-.4-.3.3-.1.4 0 .7-.1.1-.5.2-.4 0-.7 0-.1-.2-.2-.3-.2-.1-.1 0-.1-.3-.1.3-.3.4-.2.8.1.3-1.2-.4-.4-.4-1.2.4.1.4.1.6.3l.2-.9c-.5-.2-1.5-.9-1.6-1.3.4-.1 1 .6 1.7 1l.2-.7c-.2-.2-1.1-.8-1.4-.9l.1-.3 1.3.7.2-.8c-.3-.4-.6-.5-1-.9-.9-.7-.9-.3-.9-.9.8.2 1.1.7 1.7.9.2-1-.9-1.4-1.9-2h-.1c-.2-.2-.1-.3-.1-.3.8 0 1.4.7 2.1 1.1-.3-1.2.2-1-1-1.9-.5-.3-1.6-1.2-2-1.3l.1-.2c.7.2 2 .9 2.4 1.3 0-.7-.1-.9-.7-1.3-.2-.2-.5-.3-.6-.4-.3-.2-.3-.2-.3-.5.4.2.7.5 1.1.7 0-1.1-2.1-1.6-2.5-2.6l.8.4c.6.2.6.3 1 .4zM97.1 4.6c-.3.3-.3.1-.5.5.6.1 1 .5 1.5.7 1.5.8 1.3 1.1 2 .5-.3-.2-1.1-.6-1.5-.9-.4-.2-.9-.6-1.5-.8zm4.2 1.3c-.5-.1-1.5-.8-2-1.1-.7-.4-1-.9-1.7-.2 1.8.4 2.7 2.1 3.7 1.3zm-2.4-2.1c-.1 0-.3.2-.4.2 1.6.4 3.1 2.5 3.7 1.5-.2 0-2.7-1.5-3.3-1.7zm26.5 6.2l.2.2.4.3c.9.7 1.1 1 1.6 1.4.7.6 1.5 1.2 2.3 1.7.4.3.8.5 1.2.9l3.4 2.7c0-.3-.1-.5-.2-.7-.1-.3-.2-.3-.5-.5-1.1-.8-7.8-5.8-8.4-6zm0 0l-.2-.2.2.2zM99.5 3.5c.1.3.3.3.8.6.7.4 2.2 1.3 2.6 1.4.4.1.1-.1.6-.1l.1-.2c-.4-.1-1.2-.7-1.7-.9-2.7-1.6-1.4-.8-2.4-.8zm25.7 6.4l-.2-.2.2.2zm-.4-.4c0 .1 0 .1 0 0zM100.9 3c-.1 0-.2.1-.3.2.5.2 1.4.8 1.8 1 1.3.8 1.3 1.1 1.6.8-.4-.1-1.3-.7-1.6-1-.2-.2-1.2-.9-1.5-1zm32.4 8.1zm-31.9-8.3c.3.4.4.3.9.7.3.2.5.4.9.7 1.7 1.1 1.1.8 2 .8-.1-.3-.4-.4-.8-.7-.3-.2-.5-.3-.8-.5-1.3-.7-1.2-1-2.2-1zm19.9 4.6c.1.1-.3 0 .3.2-.1-.1.2-.1-.3-.2zm-18-4.9c-.4-.1-.7.1-.9.2 1.2.4 2.9 1.9 3.5 2 .4.1.6 0 1 0-.2-.4-.5-.4-.9-.7l-.9-.6c-.4-.2-1.2-.8-1.8-.9zm1-.2l-.1.2c.5.2 1.6 1 2.1 1.3 1.1.7 1.4 1.2 2.1.9l-2.9-1.8c-1-.8-.4-.6-1.2-.6zm5.6 2.5c-.2-.4-1.9-1.4-2.3-1.7-1.3-.9-1.7-1.4-2.4-1 .7.3 1.5.9 2.2 1.4 1 .8 1.6 1.3 2.5 1.3zm-3.2-3l-.1.2c1.4.5 2.7 2.4 5.2 3l-2.4-1.8c-.8-.5-1.7-1.1-2.7-1.4zm1.2 0c.2.4.8.7 1.2.9 1.1.7 2.7 2.1 3.8 2.4-.1-.3-4.8-3.3-5-3.3zm1.9.1c-.6-.1-.8-.2-1.2.1.5.1 3.8 2.4 4.5 2.8.9.6.7.3 1.7.5l-.3-.3c-.2-.1-.1-.1-.3-.2L111 2.7c-.2-.1-.4-.3-.7-.4l-.5-.4zm0 0c.5.1 1.4.7 1.8.9.5.3 1.2.7 1.7 1 1.3.9 2 1.6 3.4 1.9l-.2-.2-.6-.4c-.3-.2-.5-.4-.8-.6l-3.2-2.3c-.5-.2-1.7-.8-2.1-.3zm1.8 0s.1 0 0 0l.1.1c1.5 1.1 5.9 4.3 6.9 4.5-.2-.5-3-2.1-3.5-2.4-.7-.4-1.1-.8-1.8-1.2-.8-.6-1-1-1.7-1zm7.5 1.7l.2.2c1.2.9 6.6 4.3 8.2 5.5.6.4 1 .7 1.6 1.2l2.5 1.7c.3.2.4.4.8.5-.2-.5-.8-1.1-1.3-1.4l-8.2-5.7c-1.3-.9-1.8-1.5-3.8-2zm14.7 12l-.4-.8-8.6-6.1c-1.2-.8-1.7-1-2.6-1.6l-2.5-1.6c-1-.6-3.9-2.9-4.9-3.1l7.2 4.9c.9.8 1.3.8 2.4 1.6l7.1 5c.5.3.7.6 1.1.9.5.3.7.5 1.2.8zm-12.5-8.2l-1-.8c-.4-.3-.6-.5-1-.8l-3.3-2c-1.9-1.2-1.5-1.4-3.5-1.9l.1.1.1.1 6.1 4.1c.9.6 1.3.9 2.5 1.2zm-4.6-4.6c.2.3 1.6 1.1 2 1.4 1.7 1.2 4.4 2.9 6.3 4.1 1.4.9 2.8 1.8 4.1 2.8 1 .7 3 2.3 4 2.8-.3-.9-3.8-2.9-4.9-3.8-1-.8-2.2-1.4-3-2.1l-4.1-2.8c-1.4-.7-2.8-2-4.4-2.4z"/></svg>