<svg version="1.1" id="Layer_1" xmlns="http://www.w3.org/2000/svg" x="0" y="0" viewBox="0 0 225.4 104.5" xml:space="preserve"><style>.st209{fill:#c1d34e}.st210{fill:#23564f}.st212{fill:#b0bd45}</style><path class="st209" d="M183.2 28.8c23.3 0 42.2 14.9 42.2 33.3 0 13.3-9.9 24.7-24.2 30 .3.6.5 1.2.9 1.7 2.8 4.7 6.9 8.2 11.7 10.6-10.8.8-20.7-2.5-27.3-9.2-1.1.1-2.2.1-3.3.1-23.3 0-42.2-14.9-42.2-33.3 0-18.3 18.9-33.2 42.2-33.2z"/><path class="st210" d="M154.2 86.1c26.1-.6 47-17.4 47-38.1 0-6.4-2-12.5-5.6-17.8-3.9-.9-8.1-1.5-12.4-1.5-23.3.1-42.2 15-42.2 33.3 0 9.5 5.1 18.1 13.2 24.1z"/><path d="M147.2 1.5c-26.7 0-48.4 17.1-48.4 38.2 0 15.2 11.4 28.3 27.7 34.5-.3.7-.6 1.3-1 2-3.2 5.4-7.9 9.4-13.5 12.2 12.4.9 23.8-2.8 31.3-10.6 1.3.1 2.5.2 3.8.2 26.7 0 48.4-17.1 48.4-38.2.1-21.3-21.6-38.3-48.3-38.3z" fill="#c0e1de"/><path d="M98.8 39.7c.1 15.2 11.4 28.2 27.7 34.3-.3.7-.6 1.3-1 2-3.2 5.4-7.9 9.4-13.5 12.2 12.4.9 23.8-2.8 31.3-10.6 1.3.1 2.5.2 3.8.2 26.7 0 48.3-17 48.4-38H98.8z" fill="#679f97"/><path class="st212" d="M133.3 40.3c0 3.8-3 6.8-6.8 6.8-3.7 0-6.8-3-6.8-6.8s3-6.8 6.8-6.8 6.8 3.1 6.8 6.8zM154.1 40.3c0 3.8-3 6.8-6.8 6.8-3.7 0-6.8-3-6.8-6.8s3-6.8 6.8-6.8 6.8 3.1 6.8 6.8zM175 40.3c0 3.8-3 6.8-6.8 6.8-3.7 0-6.8-3-6.8-6.8s3-6.8 6.8-6.8c3.7 0 6.8 3.1 6.8 6.8z"/><g><path class="st209" d="M119.8 39.7h13.5c-.3-3.5-3.2-6.2-6.7-6.2-3.6 0-6.5 2.8-6.8 6.2zM140.6 39.7h13.5c-.3-3.5-3.2-6.2-6.7-6.2-3.6 0-6.5 2.8-6.8 6.2zM161.4 39.7h13.5c-.3-3.5-3.2-6.2-6.7-6.2-3.6 0-6.5 2.8-6.8 6.2z"/></g><g><path class="st210" d="M16 28.8c.3.1.6.2 1 .2s.7 0 1.1-.1c.3-.1.7-.3.9-.6.3-.3.5-.6.7-.8.2-.2.4-.6.6-1.3.3-.8.7-1.8 1.1-3.2 1.1 1.1 1.8 1.9 2 2.4-1.3 4.8-3.6 7.2-6.9 7.2-1.6 0-3.5-1-5.9-3-1.3 2-3.2 3-5.9 3-1.2 0-2.2-.4-3.2-1.2C.6 30.6.1 29.5.1 28s.5-2.7 1.5-3.6S3.9 23 5.5 23c.3 0 .7 0 1.3.1l.6-5.2c-1.2.4-3.1.9-5.6 1.5v-3.1c2-.5 4-1 5.9-1.6L8.5 8c.6-4.6 2.9-6.8 7-6.8 1.6 0 2.9.4 3.9 1.3s1.5 2.1 1.5 3.7c0 3.9-2.5 7-7.5 9.4L12 25.3v.4c2 1.8 3.4 2.9 4 3.1zm-12.7-1c0 .8.5 1.2 1.4 1.2.9 0 1.5-.8 1.7-2.4-.5-.2-1-.3-1.5-.3s-.8.2-1.1.5c-.3.2-.5.5-.5 1zM17.7 6.6c0-1.1-.5-1.7-1.4-1.7-1.1 0-1.9 1.4-2.2 4.1l-.4 3.2c2.6-1.6 4-3.4 4-5.6z"/><path class="st210" d="M31.9 21.2c.8-1 1.2-2 1.2-2.9s-.3-1.6-.8-1.9c-.5-.3-1.1-.5-1.7-.5-1.3 0-2.4.7-3.4 2.1-1 1.4-1.5 3.1-1.5 5.1s.5 3.5 1.4 4.4c.9 1 2.1 1.5 3.5 1.5 2 0 4-.7 5.9-2.1s3.4-3.3 4.6-5.6c.6.6 1.1 1.3 1.6 2.1-.9 2-2.5 4.1-4.8 6-1.1 1-2.5 1.7-4.1 2.3-1.6.6-3.2.9-4.9.9-2.7 0-4.9-.8-6.5-2.5-1.7-1.8-2.5-4.1-2.5-6.9 0-2.8 1.1-5.3 3.2-7.4 2.1-2.1 4.6-3.2 7.6-3.2 2.1 0 3.8.5 5.1 1.4 1.3.9 2 2.1 2 3.7 0 2.1-.8 3.8-2.5 5.1s-4 2.2-6.9 2.7l-.6-2.4c2.1-.2 3.3-.9 4.1-1.9z"/><path class="st210" d="M48.9 3.9c0 .2-.4 3.1-1.1 8.8h6v3.2h-6.4l-.1 1c3.2 2.7 4.8 5.6 4.8 8.8 0 2.5-.6 4.3-1.9 5.4-1.3 1.1-2.8 1.6-4.6 1.6-1.8 0-3.1-.5-3.9-1.4-.8-.9-1.2-2.1-1.2-3.4 0-.3 0-.6.1-1L41.9 16l-.2-.1h-3.3v-1.3c0-.6.1-1.2.4-1.8h3.5l1.3-11.1c.6-.2 1.3-.3 2.3-.3 1.9-.2 3 .7 3 2.5zm.4 21.7c0-1.9-.8-3.7-2.5-5.6-.5 4.1-.7 6.4-.7 7 0 1.2.4 1.8 1.2 1.8.6 0 1.1-.3 1.4-.8.4-.4.6-1.3.6-2.4zM54.2 3.3c0-.9.3-1.6 1-2.3.6-.7 1.4-1 2.4-1s1.8.3 2.5.9c.7.6 1 1.5 1 2.7 0 1.2-.6 2.6-1.8 4.1-1.2 1.6-2.4 2.8-3.5 3.7h-.3c-.1 0-.5-.1-1-.2-.5-.2-.8-.3-.9-.4C54.9 9.4 56 8 56.9 6.6c-.8-.1-1.4-.5-1.9-1.1-.5-.6-.8-1.4-.8-2.2zM81 19.9c2.2 1.6 3.2 3.5 3.2 5.6s-.8 3.9-2.5 5.2c-1.7 1.3-3.8 2-6.4 2-1.7 0-3-.4-4.2-1.2-1.1-.8-1.7-1.9-1.7-3.1 0-1.2.4-2.2 1.2-2.9.8-.7 1.8-1.2 3.1-1.3-.6.8-.9 1.6-.9 2.4 0 .8.3 1.4.8 1.8.5.5 1.2.7 2 .7s1.4-.3 2-.9c.5-.6.8-1.3.8-2 0-1.3-.6-2.4-1.8-3.4-.7-.6-1.5-1.1-2.3-1.6-.8-.5-1.3-.8-1.3-.8-.1-.1-.2-.2-.3-.2-.5.6-1.2 1.4-2.1 2.4-.9 1-1.7 1.8-2.2 2.4-1.5 1.7-2.4 3.1-2.6 4.2-.1.2-.1.6-.1 1.2s.2 1.2.6 1.9c.4.7.8 1.1 1.3 1.5.5.3 1 .6 1.5.8.5.2.9.3 1.3.4.4.1.6.1.6.2 0 .2-.3.4-.9.7-1.1.4-2.3.6-3.5.6-1.2 0-2.4-.4-3.5-1.3-1.6-1.2-2.3-2.8-2.3-4.8 0-1.2.3-2.4.9-3.6 1.1-2.1 3.7-5 7.9-8.8-1-1-1.5-2.1-1.5-3.2s.4-2.1 1.3-2.9c.9-.8 1.9-1.2 3-1.2s2 .4 2.8 1.3c.5.6.8 1.3.8 2.2 0 .9-.3 1.9-.9 2.9 2.9 1 4.9 2 5.9 2.8zm-8.9-4.7c.7-.7 1-1.2 1-1.5 0-.7-.3-1-.9-1.1-.7 0-1 .4-1 1.1 0 .6.3 1 .9 1.5zM8.1 44.6c-1.1.8-2.3 1.2-3.6 1.2-1.3 0-2.4-.4-3.2-1.1-.9-.8-1.3-1.9-1.3-3.4s.7-2.7 2-3.5c1.3-.8 2.9-1.2 4.7-1.2H23c.1.4.1.8.1 1.1 0 .9-.3 1.8-.9 2.6-.6.8-1.5 1.2-2.7 1.2H10.7c-.6 1.2-1.5 2.3-2.6 3.1zM6.5 67.9c-1.5 0-2.7-.4-3.5-1.3-.9-.9-1.3-2-1.3-3.4 0-3.2 2.4-6 7.3-8.2l1.4-10.9c1.1-.7 2.4-1.1 3.9-1.1.7 0 1.3.1 2 .2l-2.5 16.7c-.7 5.3-3.1 8-7.3 8zM5.3 41.5c-1 0-1.5.4-1.5 1.1 0 .6.4.9 1.3.9.4 0 .9-.2 1.5-.5.6-.4 1-.8 1.4-1.4H5.3zm-.6 21.2c0 1 .5 1.5 1.4 1.5 1.1 0 1.8-1.1 2-3.2l.3-2.6c-2.4 1.5-3.7 3-3.7 4.3zM34.1 68c-2.5 0-4.2-.9-5-2.6-1.4 1.8-3.2 2.7-5.5 2.7-2.2 0-4.1-.8-5.6-2.3-1.5-1.5-2.3-3.5-2.3-5.9 0-3.6 1.1-6.4 3.2-8.6 2.1-2.1 4.8-3.2 8-3.2h.2c1.4 0 2.6.2 3.8.7.7-.5 1.6-.7 2.7-.7 1 0 1.8.1 2.3.4-.2 2-.5 4-.8 6-.3 2-.5 3.3-.6 4.2-.2 1.9-.4 3.2-.4 4 0 1.1.4 1.6 1.3 1.6.7 0 1.4-.5 2.2-1.4.8-.9 1.4-2.4 2-4.3.8.7 1.3 1.5 1.6 2.4-.8 2.6-1.9 4.4-3.2 5.5-1.3.9-2.6 1.5-3.9 1.5zm-6.6-16.7c-1.7 0-3.1.7-4.2 2-1 1.3-1.6 3.3-1.8 5.9v.7c0 1.3.3 2.4 1 3.2.6.8 1.5 1.2 2.5 1.2 1.7 0 3-1.2 3.9-3.6l1-8.8c-.9-.5-1.7-.6-2.4-.6z"/><path class="st210" d="M43.8 68c-1.7 0-3-.5-3.9-1.4-1-.9-1.4-2.2-1.4-3.9 0-.4.7-6.9 2.2-19.4.4-3.2 1.4-5.3 3.1-6.1.8-.4 1.7-.6 2.7-.6 3.6 0 5.4 1.7 5.4 5v.9c-.3 3.7-2.6 7.4-6.9 11.2-.1 1.3-.3 2.6-.5 3.9-.3 2.8-.5 4.4-.5 4.7 0 1.4.6 2.1 1.8 2.1 1.3 0 2.6-.8 3.7-2.3 1.2-1.5 2.1-3.5 2.7-5.9.2.1.6.3 1 .7.4.4.7.7.9 1-.4 2.3-1.4 4.4-2.9 6.5-.8 1.1-1.7 1.9-2.9 2.6-1.3.6-2.8 1-4.5 1zm1.6-18.5c2.5-2.8 3.8-5.2 3.8-7.4 0-1.3-.5-2-1.5-2-.6.1-1 .5-1.2 1.2s-.4 2-.6 3.7c-.2 1.7-.3 2.8-.3 3.2l-.2 1.3z"/><path class="st210" d="M69.3 53c0 2.8-1.7 5-5.1 6.5.1.5.2 1.1.4 1.8.5 2 1.3 3.1 2.5 3.1h.2c2.2 0 3.8-1.9 4.9-5.8.6.5 1.1 1.3 1.6 2.3-.4 1.5-.9 2.7-1.6 3.7-.7 1-1.5 1.7-2.3 2.2-1.4.8-2.8 1.1-4.1 1.1-3 0-5.1-1.7-6.3-5-.5-1.3-.8-2.7-.9-4.1 1.6-.4 2.8-1 3.7-1.9s1.4-1.8 1.4-2.8c0-1.7-.9-2.6-2.6-2.6-1 0-1.8.4-2.5 1.1-.7.7-1.1 1.6-1.4 2.6-.2 1.4-.4 3.6-.8 6.6-.4 3-.6 5-.7 6h-5.4c2-16.7 3.2-27 3.6-30.8.6-.2 1.4-.3 2.3-.3 2.1 0 3.2.6 3.2 1.9v.2c-.5 4.9-1.1 8.7-1.5 11.3 1.5-1.4 3.4-2.1 5.6-2.1 1.7 0 3.1.4 4.2 1.3s1.6 2.1 1.6 3.7z"/><path class="st210" d="M72.3 62.8c.6-.7 1.4-1 2.4-1 .9 0 1.7.3 2.4 1s1 1.4 1 2.4c0 .9-.3 1.7-1 2.4-.7.6-1.4 1-2.4 1-.9 0-1.7-.3-2.4-1-.6-.6-1-1.4-1-2.4 0-.9.4-1.7 1-2.4zm3.8-29.1c.5-.3 1.5-.4 2.9-.4 2.7 0 4 .6 4 1.9v.4L77.9 57h-4.4l2.6-23.3z"/></g></svg>