<svg version="1.1" id="Layer_1" xmlns="http://www.w3.org/2000/svg" x="0" y="0" viewBox="0 0 231.5 101.6" xml:space="preserve"><style>.st35,.st36{fill:#1c3236}.st36{fill-rule:evenodd;clip-rule:evenodd}</style><path d="M67.9 29.7C65.4 55.2 100 85.4 145.2 97c45.1 11.6 83.7.4 86.2-25.1 2.4-25.5-32.2-55.6-77.3-67.3C108.9-7 70.3 4.2 67.9 29.7z" fill="#e1ddbe"/><path class="st35" d="M1.9 21h3.8v22.8h7.6v3.8H1.9V21zM14.6 21H26v3.6h-7.6v7.8H25V36h-6.6v7.8H26v3.8H14.6V21z"/><path class="st35" d="M29.8 24.6h-4.4V21H38v3.6h-4.4v23h-3.8v-23zM38.4 21h3.8v3.8l-3.8 2.8V21zM56.8 28.7H53v-.9c0-.9-.2-1.6-.6-2.3-.4-.6-1.1-1-2.1-1-.5 0-1 .1-1.3.3-.3.2-.6.5-.8.8-.2.3-.3.7-.4 1.1-.1.4-.1.8-.1 1.3s0 1 .1 1.3c0 .4.1.7.3.9s.4.5.7.7c.3.2.7.4 1.2.6l2.9 1.2c.8.3 1.5.7 2.1 1.1s.9.9 1.2 1.5c.3.6.5 1.3.6 2s.1 1.6.1 2.6c0 1.1-.1 2.2-.3 3.1-.2 1-.6 1.8-1.1 2.5s-1.2 1.2-2 1.6c-.8.4-1.9.6-3.1.6-.9 0-1.8-.2-2.6-.5s-1.5-.8-2.1-1.3c-.6-.6-1-1.2-1.4-2-.3-.8-.5-1.6-.5-2.5V40h3.8v1.2c0 .7.2 1.3.6 1.9.4.6 1.1.8 2.1.8.6 0 1.2-.1 1.5-.3.4-.2.6-.4.8-.8.2-.3.3-.8.4-1.3 0-.5.1-1 .1-1.6 0-.7 0-1.3-.1-1.7-.1-.4-.2-.8-.3-1.1-.2-.3-.4-.5-.7-.7-.3-.2-.7-.4-1.1-.6l-2.9-.9c-1.6-.7-2.7-1.6-3.3-2.7-.6-1.1-.8-2.5-.8-4.2 0-1 .1-1.9.4-2.8.3-.9.7-1.7 1.2-2.3.5-.6 1.2-1.2 2-1.6.8-.4 1.8-.6 2.9-.6.9 0 1.8.2 2.6.5s1.5.8 2 1.4c.6.6 1 1.2 1.3 1.9.3.7.4 1.4.4 2.2v2zM4.4 53H0v-3.6h12.6V53H8.2v23H4.4V53zM15.4 49.4h3.2L24.5 76h-3.8l-1.1-5.7h-5.2L13.2 76H9.4l6-26.6zm1.6 7.7l-2 9.6h3.8L17 57.1zM25.2 49.4H29v22.8h7.6V76H25.2V49.4zM37.9 49.4h3.8v12.2h.1l5.6-12.2h3.8L46 60.1l6.2 16h-4l-4.3-11.8-2.1 3.9v8H38V49.4zM53 49.4h4.8l-1.5 20h-1.9l-1.4-20zm.5 22.8h3.8V76h-3.8v-3.8z"/><path class="st36" d="M128.5 27c-2-4.2-2.6-7.9-1.8-12.4l.5-2.3c.5-1.5 1.5-2.7 2.9-3.7 7.6-5.7 19.5-4.7 25.9 1.8 1.9 1.9 2.9 3.6 4 6.9 1.6-.7 7.5-7.7 14.4-6.7 1.6.2 2.1.5 3.4 1.1 2 1 4.2 2.8 5.2 5.7 1.5 4.5.8 7.5-1.9 10.9 1.2.9 2.7.5 4.2.7 3.4.6 9.2 8.3 8.2 15.3-1.1 7.1-5.6 10.3-12.5 10.6-1.3.1-3.4-.1-4.6.3.2 1.7-1.3 4.9-2.3 6.3-.5.6-.8 1.1-1.4 1.7-3.9 4.6-13.7 8.3-19.5 5.9-.9-.4-3-1.7-3.8-2.5-1.4-1.4-1.2-2.9-1.9-5-2.2.7-6.4 3.1-10 4.3-3.8 1.3-6.2 2.1-10.2 1-6-1.6-6.7-6.5-4.9-11.7 1.1-3.2 1.8-4.1.4-3.8-2.9.8-3.4.8-6.2 2.7-1.1.7-2.5 1.8-3.7 2.3.3-1.2 1.8-2.5 2.5-3.6.4-.6.7-1.3.8-2 0-.8-.5-1.1-1.3-1.3-2.3-.5-3.7-1-5.3-3.5-1.3-2-1.6-4.4-1.7-6.8-.3-7.8 5.3-12.1 12.8-12.4l7.8.2zm6.3-24.3c-3.8 1.6-8.2 4.5-10 7-2 2.8-2 9.6-.5 14.2-1.9.2-3.6.2-5.6.6-5.6 1.1-10.7 3.7-12.6 9-1.1 2.9-1 7.2-.2 10.4 2.1 7.7 2.5 5.6 5.8 8.8l-6.6 9.8c-1.5 2.4-5.4 8.4-5.2 10.5.5-.3.6-.8.9-1.2l5.9-7.2c.4-.4.6-.7 1.1-1.2 2.5-2.5 6.7-6.5 10.9-7.9.1.5 0 1.8 0 2.3-.4 10.2 4.9 11.4 12.3 12.1 6.4.6 8.6-2.4 14.2-4.2.4.4.8 1.1 1.3 1.6 2.8 3.3 6.5 5.4 11 5.7 3.3.2 5.2-.7 8.6-2.1 4.7-2 9.3-5.6 12.1-9.8.9-1.4 1.1-2.4 2.3-2.8 3.5-1.2 8.3-1.2 11.7-5.6 1.7-2.2 2.4-3.6 3.3-6.2 1.1-3.2 1.6-6.9.6-10.8l-.4-1.4c-.5-1.2-1.1-2.4-1.9-3.6-2.8-4.1-6.5-5.7-6.6-6.5-.1-.7.3-3.9.1-5.7-.7-5.9-5.1-9.1-10.3-10.3-8.3-1.9-12.1 2.7-15.8 4.3L159 9.8c-2-2.6-4.5-5.5-7.4-6.9-4.4-2.2-8.7-2.5-13.8-1.4h-.2l-2.8 1.2z"/><path d="M198.3 37.2s-2.9-1.4-9 0-15 10.2-15 10.2-.1 4.7-.6 6.2c-.5 1.6-4.4 6.7-4.4 6.7s1.2 7.7 1.7 8.8c.4 1.1 4.3.2 4.7 0 .4-.2 8.8-1.6 10.3-1.8 1.5-.1 6.1-2.9 7.9-5.2 1.8-2.3 6.4-10.1 6.7-11.8.1-1.7-2.3-13.1-2.3-13.1z" fill-rule="evenodd" clip-rule="evenodd" fill="#e1ddbe"/><path class="st36" d="M171.5 83c.5 0 .8.1 1.2.1h-.9c-.2 0-.2 0-.3-.1zm37.4-10.1c-.2.1-.2.2-.3.3-.1 0-.2.1-.3.2-.1.1-.2.1-.2.2-.1 0-.2.1-.3.2l-.3.3c-.2.1-.5.4-.7.4l1-1c.7-.7 1.2-1.4 1.7-2.2.7-1 .9-1.4 1.5-2.4.9-1.8 1.7-4.9 1.7-7V61v-.9c0-.3.3-.5.1-1-.1-.1 0-.1-.1-.2-.1-.3 0-.7-.1-1.4s-.1 0-.1-.8c0-.3-.1-.5-.1-.8-.1-.5-.1-1.2-.3-1.6-.5-1-.4-1.3-.7-2.2-.1-.2-.2-.5-.3-.7v-.1c0-.2-.1-.3-.1-.5 0-.1-.1-.1-.1-.2l-.1-.1v-.1.1c0 .2.2.7.4.8v.1c0 .2.1.3.1.6-.2 0-.1 0-.2-.2-.5-1.1-1.4-2.7-2.1-3.7-.2-.3-.4-.5-.7-.9-.8-.9-.5-.6-1.5-1.6l-.4-.4c-.2-.1-.4-.5-.8-.8l-.9-.7c-.2-.1-.3-.2-.5-.4-.1-.1-.3-.2-.4-.3-.2-.1-.3-.2-.5-.3-.3-.2-.6-.4-1-.6-.9-.6-.8-.3-1.3-.6-.1-.1-.2-.1-.3-.1-1-.4-2-.6-3.1-.9-.7-.2-.7-.1-1.3-.2-1.9-.3-.7-.2-2.9-.2-1.1 0-.6 0-1-.2-.5-.1-.5.2-1 .2l-3.5.5c-.4.1-.8.3-1.2.4-.3.1-.4.1-.6.2-.4.1-.4.2-.8.4l-.8.4c-.4.2-.3 0-.6.1l-1.1.9c-.1.1-.2.1-.2.2-.2.1-.3.2-.5.3l-.2.2-.2.2-1.4 1c-.5.4-.2.2-.9.7-.2.1-.3.2-.5.3.1-.3.9-1.1 1.2-1.3.5-.6 1.2-1.1 1.8-1.5l2.7-1.7c.2-.1.3-.2.5-.3.2-.1.3-.1.5-.3l-.9.3c-1.9.8-3.7 2-5.1 3.5l-2.3 2.6c-1 1.2-.9 1.2-1.6 2.4-.1.1-.3.2-.3.3v.1c.2.2-.1-.2 0 .1-.1.1-.2.4-.3.6-.1.2-.4.2-.5.4.2 0 .1-.1.3-.1l-.2.9c0 .1-.1.2-.2.3-.3.7-.5 1.2-.7 1.9-.1.3-.1.5-.2.8l-.3.8c-.2.5-.4 1.1-.4 1.7h.1c0 .4-.2.8-.2 1.2-.1.6.1.6-.3 1.2-.1.2-.2.3-.3.5l-.5 1c-.1.3-.2.3 0 .6.2-.1.3-.3.4-.4.1-.1.3-.3.3-.5h.1c0 .2.1.1.1.4v.5c0 .3.1.6.1.8v.6c0 .4.2-.2-.2.9l-.4 1c-.1.1-.1.2 0 .4.2.2.4-.2.5-.4.1-.2.3-.4.3-.7h.1c0 .3.1.7.1.9.1.4 0 .6 0 .9l.5 1.2c.1.2.2.4.2.6.1.3.3.7.3 1 0 .2 0 .2-.1.4s0 .2.1.3c.3.1.1-.2.5.8.2.4.4.7.7 1.1l.7 1c.3.4.6.9 1 1.2l2.3 2.4 1 .8c.1.1.2.1.3.2.5.3.3.3 1.3.9l1.1.6c.1.1.2.1.3.1l.2.2c.2.2.7.2 1 .3l1.4.3c.1 0 .2.1.4.1.3.1.5.1.7.2-.1.3-.1.4.1.6.3 0 .5-.3.6-.4.3.1.5.2.8.3.5.2.9.3 1.4.3.4 0 .2.1.4.1s.5-.4 1.4-.1c.1 0 .7.5 1.1.1.1-.2 0-.1.2-.2.3-.1 1.1-.1 1.5-.2 1-.1 2.5-.2 3.4-.6.4-.2.8-.4 1.3-.4h.5c.2 0 .4 0 .5-.1.2 0 .3-.1.5-.1.1 0 .6 0 .6-.2s-.9.1-1.2.1l.5-.2c.4-.2.7-.3 1.1-.5.6-.3 1.1-.4 1.6-.8.4-.3.6-.4 1-.6.9-.4 1.7-.9 2.5-1.5.2-.1.3-.3.4-.4.2-.2.7-.5.9-.7.2 0 .1-.1.3-.2.1-.1.2-.1.2-.2.2-1 .2-1 .3-1.2.1 0 .1 0 .1-.1-.1 0 0 0-.1.1zm-29.1-11.7c0 .2-.2.4-.3.6-.1.1-.1.2-.2.3-.2.3-.7 1.3-.8 1.4 0-.2 1.2-2.3 1.3-2.3l.1-.1-.1.1zm-2.6-22.7c.2 0 .4-.2.6-.3.9-.5 4.3-1.7 5-1.9 1-.3 2.1-.6 3-.9.4-.1 2.7-.8 3.1-.8-.1.1-.4.2-.6.3l-1.9.7c.2 0 1.1-.3 1.6-.3l3.5-.4c.6-.1 3.4-.1 3.8-.1.9.1 1.5.1 2.6.4l.8.2c.3.1 1.3.4 1.6.3.3-.5-.4-.9-.7-1-.6-.2-.8-.3-1.4-.4-.3-.1-.5-.1-.8-.1-1.5-.3-4.2-.4-5.7-.2-.9.1-1.2 0-2.2.2-.7.1-1.6.2-2.4.4-1.2.3-3.9.9-4.7 1.4-.6.3-.7.4-1.6.8-.5.2-2.2 1-2.6 1.2-.2-.2-1 .2-1 .5zm-6.8 10.1c.1 0 0 0 0 0zm15 26.5c-.1 0 0 0 0 0zM197 43.8c0-.2.1-.2 0-.4 0-.3-.1-.1-.2-.3.1-.3.1-.1.4-.2l-.2.9zM176.2 62l-.2.2c0 .1 0 0-.1.1 0 .1 0 .1-.1.1 0-.3.4-1 .5-1.3.3-.6.1-.4.5-.9.1-.2 0-.2.1-.3.1-.2.1 0 .2-.3.3-.8.7-1.5.9-2.4-.2.1-.5.9-.6 1.2-.2.5-.2 0-.4.5l-.4.6c-.2 0-.7-.1-.9-.2l1-2.4c.1-.5.1-.3.3-.7.1-.1.1-.2.2-.3l.5-1.4c.1-.2.2-.5.2-.8h-.1l-.6 1.3-.3.6c-.6 1.1-.7 1.6-1.4 2.8-.1.1-.1.2-.2.3-.1 0-.1-.1-.3.2-.1.2-.1.3-.3.3-.2-.4.3-1.2.4-1.4.3-.6 1.8-3.6 1.8-4.1-.2.1-.9 1.8-1.1 2.1l-.6 1.1s0 .1-.1.1l-.1.1c0-.1.5-1.2.6-1.5.1-.2.1-.3.2-.5.1-.3.3-.7.4-1 .1-.2.4-.8.4-1 0 0 0 .1-.1.1-.1.1 0 .1-.1.1l-.4.8c-.4.8-.6 1.4-1 2.2-.1.1-.4 1-.5 1.1v-.7h-.1c0-.2.2-.5.2-.6.2-.6.2-.6.5-1.2l.3-.6.6-1.1c.1-.2.2-.4.3-.5.1-.2.2-.4.3-.5.2 0 .3.1.5.1-.1-.4-.3-.5-.1-.7l.8-1.3c.1-.2.4-.5.4-.6l-.8.9c-.1.2-.6.9-.7 1-.3-.2-.1-.2-.6-.4.6-1.2 2.2-3 3.2-4.1.3-.3 1.1-1.1 1.1-1.3l-1.1.9c-.5.5-.5.5-1 1.1-.2.2-.3.3-.4.5l-1.4 1.7c0-.2.1-.3.2-.4l.2-.4c.5-.6.9-1.2 1.4-1.7l.2-.2c.3-.4.8-.7 1.1-1.2l.3-.3c.1-.1.3-.2.4-.4.1-.1.1-.2.3-.3.5-.3.4-.3.5-.4 0 0 .2-.1.3-.1.3.2.6.7.9 1 .2.2.3.3.4.5.1.3.1.4.5.4.3-.5 0-.5-.3-1.3-.2-.8-.5-.9-.7-1.2.1-.1.3-.3.4-.3l1.4-.8c1-.5 2-.9 3.1-1.2.3-.1.8-.2 1.1-.3.8-.2 1.7-.2 2.4-.4v1.1l.1.4c.2.6.3 1.2.4 1.9 0 .2.1.3.1.5.4-.2.4-1.3.5-1.8 0-.4.3-.4.3-.8v-1.2c2.2 0 5.4.7 7.4 1.7l.9.4c-.1.2-.1.4-.2.7-.1.2-.1.5-.1.7l-.3.6c0 .1-.1.2-.1.3.1.2.1.1.3.1.2-.3.3-.7.5-1 .1-.2.2-.3.3-.5.1-.2.2-.4.3-.5.5.2 1 .4 1.5.7.2.1.3.2.5.3.2.1.3.2.5.3.2.1.2.2.4.4l.2.2c.5.6.4.3.3.6.1.1.2.2.3.2.1.1.2.1.3.2 0 .1-.1 0 .2.3l2.4 2.9c.1.2.4.6.5.8-.5.2-1.4.8-1.7 1.2-.6.5-.5.5-1.2.9-.2.1-.4.1-.4.3.2.4 1-.3 1.4-.5.3-.1.7-.2 1.1-.4.1-.1.1-.1.2-.1l.7-.4c.1-.1.3-.3.5-.3.1.3.3.5.4.8.1.3.3.5.4.8.1.3.3.5.3.8l.3.9c.3.9.8 2.9.8 3.9h-1c-.4 0-.6.1-1 .2-1 .3-.6.4-1.9.4 0 0-.1.1-.1.2-.1.2 0 .1 0 .2.1.1.2.1-.2.1h-1.1v.1c.3.1.7 0 1 0 .4 0 .6.1.9.2.3.1.7 0 1.1.1.3.1.5.3.7.4.1 0 .3.1.4.2.8.3 1.3 0 1.3.3.1.5 0 1.1 0 1.7 0 .2 0 .3.2.4.1-.2 0-.8 0-1.1v-1.1c.3.1.2.2.2.6v.8c0 .4-.2 1.2-.3 1.6 0 .2 0 .2-.1.3-.3.1-.4-.1-.5.3-.1.4-.1.8-.3 1.2h.3c-.1.2 0 0-.2.1s-.1 0-.2.3-.3.7-.3 1c.3-.2.1-.4.4-.5.1-.1.2 0 .3-.2.1-.2 0-.2.1-.3 0 .5-.5 1.8-.8 2.1-.2.3-.1.4-.5.5 0-.2.1-.1 0-.3-.3 0-.2.3-.4.5l-.3.6c-.2-.1-.3-.2-.6-.3-.2-.1-.4-.1-.7-.2-.2-.1-.4-.3-.6-.3-.5-.1-.3-.2-.6-.2-.2.3 0 .3.3.5.4.4.5.6 1 .9.2.1.5.3.7.3l-.6.9c-.4.6-1.3 1.9-1.8 2.4l-.2.2-.7.7-1.6 1.4c-.5.3-.5.4-1 .5-.2-.3-.4-.7-.7-1-.3-.3-.3-.9-.8-.6 0 .3.2.4.3.7l.2.8c-.6 0-.5.1-.9.3-.3.1-.5.2-.8.4-.3.1-.5.3-.8.4-.3.1-.5.3-.8.4-.2-.3-.1-.2 0-.4.1-.3 0-.3-.3-.3-.1.1-.1.1-.1.2-.4-.1-.7-.2-1.2-.1-.2.1-.3.2-.5.2h-.7c-1 .2-1.2.6-1.8.7h-.3c0-.4-.1-.8-.1-1.1-.1-.7-.2-1.5-.4-2.2-.1-.3-.1-.2-.1-.5 0-.6-.5-.5-.5 0 0 .2-.3 1.1-.4 1.6l-.2 1.4c0 .1-.1.2-.1.3 0 .3.2.3-.2.3.1-.2.3-.6 0-.6-.3-.1-.4.2-.7.3-.2-.7-1.1-.5-.7.4-.6 0-.5-.2-.5-.3 0-.4-.2-.4-.5-.2s-.2.1-.5 0c.2-.2.4-.2.6-.4-.3-.1-.5 0-.8.1.1-.3.4-1 .5-1.3.1-.4-.2-.3-.4 0v.4l-.6.6-.4-.1c0-.3.3-.4.3-.9-.3-.2-.4-.1-.7 0 .1-.3.1-.3.1-.7-.3-.1-.3.1-.6.5l-.1.1c-.1.1-.1.1-.1.2l-.3.3c0-.1.1-.2.2-.3.1-.2.1-.2.1-.4-.3-.2-.4-.2-.7 0-.1.1-.2.1-.3.2-.1.1-.2.2-.3.2 0-.3.5-1.5.6-1.8.1-.4.3-1 .3-1.4 0-.4-.2-.6-.6-.4l-.7.5c-.5.4-1 1-1.6 1.3 0-.2.2-.4.2-.6.3-.9.2-.9 0-1.2-.1-.2-.3-.3-.6-.3.1-.3.2-.6.3-.8v-.2-.2c0-.1-.2-.2-.3-.3-.7-.4-1 .8-.2.8l-.1.1c-.3.2-.3.7-.6.9.1.4-.3.9-.4 1.2-.2-.1-.4-.4-.5-.5 0-.1.2-.4.3-.6.1-.2.2-.3.4-.5.5-.8.3-.4.3-.9 0-.2.1-.2.1-.4-.2.1-.4.4-.5.7-.2-.1 0-.1-.4-.1.2-.4.1-.2 0-.6-.2 0-.1.1-.2.2l-.8.6c0-.2.5-1.2.6-1.4l1.1-2.4c-.2.1-.4.5-.4.8-.2 0-.2 0-.4.1-.4.3-.6 1-.8 1.5-.1.2-.2.5-.3.6.1-.3.4-1.2.4-1.5 0-.1-.1-.3-.2-.4l-.9 1.9c-.1-.1-.2-.2-.2-.4-.2-.4-.1-.5.2-.8l.5-.8c.3-.4.6-.7.6-1.3-.2 0-.2.1-.3.2-.3.5-.7.9-.9 1.4-.1.2-.3.5-.4.6 0-.4.9-2.2.9-2.5 0-.3.1-.3.2-.6.1-.5.8-1.6-.2-1.6-.1.1-.1.2-.2.4s-.2.1-.2.3c0 .2.1.3.3.3.2 0 .3-.1.4-.2 0 .2-.3.4-.4.6-.5.7-.7 1.2-1.2 1.9-.1-.1-.1-.1-.3-.1 0-.5.8-1.4.4-1.7 0 .2-.2.4-.2.6 0 .1-.1.2-.1.3l.1-.7c.2-.7.3-.7 0-.8-.2.8-.5 1.2-.5 2.2l-.1.3c-.1-.2-.1-.4-.2-.7-.1-.4-.2-.3 0-.6.2-.4.4-.8.7-1.2.1-.1.1-.2.1-.3 0-.1.1-.3 0-.2l-1.1 1.8c-.1-.2-.2-.4-.1-.6l1.2-3 .3-.6.3-.6c-.1.1-.5.7-.6.9-.6 1.2-.6 1.2-1.1 2.5 0 .1-.1.2-.1.3 0 .1 0 .2-.1.3 0-.5-.2-.1.3-.9.1-.2.4-.7.4-.9l-.2-.1-.6 1.2c0-.7-.1-.3.4-1.4.2-.4 1.8-3.7 1.8-3.9-.3.2-1.9 3.6-2.2 4.2l-.1.1c0-.4.1-.8-.1-1.1-.2.1-.2.7-.2.9 0 .2-.1.3 0 .5 0 .3.1.2 0 .5l-.2-.8c-.1-.5-.1-.4.1-.8-.1-.8.3-1.2.4-1.5zm9.8 11.2c0-.2 0 0 0 0s0 .1 0 0zm-15.5-24.7c0 .1.1 0 0 0 0 0 0-.1 0 0zm-.1.2c0-.1 0 0 0 0 .1 0 0 .1 0 0zM178 66c0-.2 0-.2.2-.3l-.2.3zm-2.3-24.7s-.1 0 .1-.2c.1-.1.2-.1.1 0-.1.4-.2.2-.2.2zm4.1 22.8c.1-.3.1-.3.2-.3.1.1.1 0 0 .3h-.2zm17.6-19.8c0-.4.2-.8.2-1.2h.1l-.2.6c.1.2 0 .5-.1.6zm-25.8 26.8c-.2-.2-.4-.8-.4-1l.1.2c.1.2.3.6.3.8zm38.5 8h.3v.1c0 .2-.1.3-.3.3.1-.3.1-.1 0-.3v-.1zm7.1-32.3c0 .1.2.2-.2.4.4 0 .4-.1.5-.3v-.1c0-.1-.1-.1-.2-.1s-.1 0-.1.1zm-33.8 25.4c.1 0 .2-.1.3-.1.3 0 .2.4-.2.4-.1-.3.1 0-.1-.3zm32.3-20.8c0 .1.5.6.5.2 0-.3-.2-.2-.3-.3-.1 0-.2-.1-.2.1zm-2.6 28c.1.2 0 .1.1.1h.3c0 .2-.1.4-.2.5.1 0 .2-.1.3-.3.1-.2.1-.2.1-.4 0 .1-.5.1-.6.1zm-31.7-9.3c0-.1.3-.5.3-.6.1-.2.3-.4.5-.4-.2.4-.4.8-.8 1zm-.4-.5c0-.2.2-.4.3-.6l.3-.6.3-.6c.1-.3.1-.4.2-.7h.1c0 .4 0 .5-.1.8-.4.9-.1.4-.6 1.2-.2.1-.4.4-.5.5zm-11 4c.1-.1.3 0 .4.1.4.1.5-.1.9.1.3.2.3 0 .3.2s0 .2-.2.1c-.8-.3-.1-.2-.9-.2-.2 0-.1.1-.3-.2-.3-.1-.2.1-.2-.1zm.2-.9c0 .2.1.3.3.3.5-.1.5-.9.1-.9-.3 0-.4.4-.4.6zm42.2 5.5c0-.2.1-.4.1-.5.1-.2.4-.4.7 0 0 .2-.2.4-.3.5-.2.3-.5.2-.5 0zm3.3-29.1c0-.2-.1-.2-.2-.2-.1-.1 0-.1-.3-.2-.1-.1-.2-.1-.3 0 0 0-.4.7.3.8.3 0 .5-.4.5-.4zm-9.3-11.4h.1c.1 0 1.3 1 1.6 1.2l.9.5c.5.3 1.7 1 2 1.5.6.7 1.3 1.1 1.3 2.5 0 .7-.5.7-.8.2-.3-.9-1.8-2.8-2.4-3.4l-2.4-2-.2-.2c-.1-.2-.1-.2-.1-.3zm-14.6 20.2c0-.2-.1 0 0-.2 0-.1.1-.1.1-.2.1-.2.1-.3.1-.5.1-.6.8-2.1 1-2.7l3.2-9.2.3-.9c.1-.2.1-.6.4-.8 0 .1.1.1.1.3 0 .7-.7 3.3-.9 4l-2.2 8.4c-.1.3-.2.7-.3 1.1-.2.8-.3 1.4-.5 2.1-.1.4-.1.3-.1.5.2.4.2.8-.2 1.1-.4.3-.3.4-.4.6-.1.1 0 0-.2 0-.4 0-1 .2-1.2-.3-.3 0-.3.1-.4.2-.4.3-.5.2-.1-.1.1-.1.2-.2.3-.2 0-.2-.1-.2-.1-.4 0-1.5.3-.8.5-1.4.3-.4.6-1.4.6-1.4zm-.1 21.1v.1h-.1c0-.1-.1 0 .1-.1zm1.7.2c0-.4.1-.2.4-.2.4 0 .4-.1.6.1-.3 0-.7 0-1 .1zm-2.5-.1c-.2 0 0-.3 0-.5.2 0 .3.1.4.1v.1c-.2.1-.2.3-.4.3zm-.5-.1c-.2 0-.6 0-.7-.1.1-.2.2-.2.4-.4.2-.3.2-.2.5-.2-.1.4-.2.4-.2.7zm-3.1-.7c-.2.1-.3 0-.5 0 .1-.3.2-.1.5 0zm9.7.2h-1.8c.1-.1.2-.1.3-.2.1-.1.1-.2.3-.2.1.2.4.3.7.3.4 0 1.1-.4 1.3-.4.1 0 .1.1.4.1-.1.2-1 .4-1.2.4zm-2.6-.1l-.8-.1c.8 0 .3-.1.9-.2l-.1.3zm-5.3.3c0-.2.2-.3.3-.7.1 0 .4.1.5.2l-.5.5c-.2.1-.1.1-.3 0zm7.3-.6s.1 0 0 0c.1 0 .1-.1 0 0 .1 0 0 .1 0 0zm-7.6.4c-.2-.2 0-.2-.3-.1 0-.2.3-.5.4-.5.2 0-.1.2-.1.6zm-.7-.3c-.1 0-.2 0-.3-.1.1-.2.2-.3.2-.5.2 0 .3.1.4.1.1.1-.2.4-.3.5zm-.5-.6c0 .1-.1.1-.1.3l-.2-.1c.1-.1.2-.1.3-.2zm-1.6 0c0 .1 0 .4-.2.3-.1 0-.1-.1 0-.2s0-.1.2-.1zm13.7 0zm-1.1 0zm-11 0zm11.4-.1zm.1-.1zm-13.6.3c-.1-.1 0-.1-.2-.1.1-.2.5-.5.2.1zm13.6-.3zm.6.2c.1-.1.6-.4.7-.5 0 .2 0 .2-.3.3-.1.1-.2.2-.4.2zm-.5-.3zm-1.1.2c0-.1 0-.2.1-.3.1.1.1 0 .1.2-.1 0-.2 0-.2.1zm-2.8.2c0-.4.1-.4.5-.4-.1.1-.3.3-.5.4zm4-.4zm0 0zm-12.3.3c.1-.1.3-.4.4-.4h.1l-.5.4zm12.5-.4zm-12.9.3c0-.1.1-.2.1-.3.1-.2.1-.2.3-.1 0 .1-.2.3-.4.4zm-1.5-.4zm17.7-.2zm.1 0zm-5.6.4c-.1 0-.1 0-.2-.1-.2-.1-.2-.1-.4-.1l-.2-.1c.1 0 .1-.1.3-.1.3-.1.7-.1 1 0 0 0-.3.4-.5.4zm-14-.6l.2.1v.1h-.2v-.2zm1.2-.2l.3.3c-.1.1-.1.1-.1.2-.1 0-.3-.2-.4-.3l.2-.2zm16.6.2c0-.1 0-.2-.1-.3.2-.1.5-.2.8-.2h.1c-.1.2 0 .1-.4.2-.1.1-.3.2-.4.3zm-18.5-.7c.4.2.3.3.3.4-.2 0-.3-.1-.4-.2.1 0 .1 0 .1-.2zm1 .2c0-.1.1-.1.1-.3.2.1.2.1.3.3 0 .1 0 .1-.1.2-.1-.1-.2-.1-.3-.2zm4.4.7c-.2 0-.1-.1-.3-.1 0-.2.2-.3.3-.4.1-.1.2-.3.4-.3l-.4.8zm-1.7.3c-.1-.1 0-.1-.2-.1 0-.2.3-.7.4-.8l.5-.4c.3-.3.1.1-.1.5-.2.2-.3.1-.4.3-.1.2 0 .1 0 .2l-.2.3zm-1.3-.9l-.2-.2.5-.3c-.1.2-.2.4-.3.5zm-2-1c.2.1.3.2.4.3-.1.1-.1.2-.1.3-.2 0-.2-.2-.4-.3 0-.2.1-.1.1-.3zm3.6.1c0 .6-.4.8-.8 1.1-.1.1-.2.3-.4.2.1-.2.7-.7.9-1 .1-.1.2-.3.3-.3zm0 0zM181 75c.1-.1.2-.1.2-.3h.1c0 .2 0 .1.1.2 0 0 .1.1.2.1 0 .2-.1.3-.2.4-.1 0-.3-.2-.4-.4zm1.3 0c-.2-.2 0-.4.2-.4l.1.1c-.1.2-.2.3-.3.3zm24.4-.5zm-23.8-.3c0 .1 0 .1-.1.1 0-.1 0 0 .1-.1zm0 0zm-1.1.4l-.3-.3c.1-.1.2-.3.3-.4.1 0 0 0 .1.1l.1.1c0 .1-.1.3-.2.5zm1.8.5c-.1 0-.1-.1-.2-.1-.1-.1-.1-.1-.2-.1.1-.2.7-.8.9-.9 0 .4-.4.9-.5 1.1zm-3.7-1.4c0-.1 0-.2.1-.3.1 0 .1 0 .2.1l.4.5c0 .1-.1.2-.1.3-.2-.1-.6-.6-.6-.6zm1.3.2c-.1-.1-.1-.1 0-.2l.1-.2c0 .2 0 .3-.1.4zm1-.3c-.1-.2-.1-.1 0-.3.1-.1.1-.2.2-.2 0 .2-.1.4-.2.5zm-2.6-.4c0-.2 0-.2.1-.2 0 .1 0 .1-.1.2zm2.3-.2zm2.3 2.6c-.2 0-.1-.1-.3-.2.2-.3.4-.7.5-1 .1-.3.5-1-.2-1-.3 0-.5.3-.7.4 0-.1 0-.1-.1-.2.2-.1.3-.2.4-.4.1-.1.3-.2.4-.4.2-.1.3-.2.4-.4.7-.7.3.6.3.8-.1.3-.2.5-.3.7l-.4 1.7zm-5.9-2.9c0-.1 0 0 0 0 .1-.1.1-.1.1-.2.1-.2 0 0 .1-.1.1.2.1.2.3.5.1.2.3.3.3.5v.1c-.3-.2-.7-.6-.8-.8zm3.6.3c0-.2.1-.2.1-.4h.3l-.4.4zm-2.9-.9c.1.1.1.2.2.3.1.2.1.1.1.4-.1 0-.1 0-.3-.3-.1-.2-.1-.2 0-.4zm-.3-.2zm1 .1c-.2 0-.1-.1-.2-.2.2-.1.2-.2.4-.2-.1.1-.2.3-.2.4zm.9-.3c-.4 0-.1.1-.2.4l-.3.4c-.2-.1-.2-.1.1-.6l.3-.6c.1.1 0 .2.1.3v.1zm-2.1 0c-.1-.3 0-.1 0-.4.2.2.2.3 0 .4zm29.4-.5c0-.1 0 0 .1-.1s0 0 .2-.1c-.2.2-.1.2-.3.2zm-29.1-.3c0-.2 0-.3.1-.4 0 .3 0 .3-.1.4zm-.9-.4c.1-.1.1-.2.2-.2 0 .1.1.2.1.3.2.4.3.3.1.6-.2-.1-.3-.5-.4-.7zm-1.2-.2l.3.6c.1.3 0 .1.2.3l.2.3c0-.2 0-.2-.1-.4l.2-.2h.1l.3.6c.2.3 0 .4-.1.7-.2-.2-.4-.6-.7-.8-.2-.3-.3-.8-.4-1.1zm32-.1zm.1 0zm0 0zm-31.7-.6c0 .3.5.8.1 1-.1-.2-.1-.3-.2-.5 0-.1-.1-.2-.1-.3 0-.1.1-.2.2-.2zm-1.2 0c.2 0 .1.1.2.3-.2-.1-.2-.1-.2-.3zm.9-.2v-.3c.1.1.1 0 .1.2 0 .1-.1.1-.1.1zm.8-.8c0 .5.2.4.1.9-.1.2 0 .2-.1.3 0-.5-.4-.5-.1-.9 0-.1 0-.2.1-.3zm31.8.4c.1-.1.1-.1.2-.1 0 .1 0 .1-.2.1zm-32.2-.3s.1.1 0 0c0 .1-.1.1 0 0zm-2-.6zm1.2-.3l.2.5h-.1c-.1-.1-.1-.3-.1-.5zm0 0zm-1-.7c0 .2 0 .3.1.5 0 .2-.1.3-.1.5h-.1c0-.5-.3-.3 0-.8 0 0 0-.1.1-.1v-.1zm-.4 0c0-.2.1-.3.2-.4 0 .2-.1.3-.2.4zm3 1.7c-.1-.2-.2-.2-.4-.2l.6-.9c.1-.2.5-.9.6-1-.1.1-.7 1.7-.8 2.1zm.8-2.2zm-3.8-.1c-.1-.4 0-.7 0-1.1l.1.1c.2.6 0 .7-.1 1zm-.8-.5c.1 0 .2.1 0 0 .1.1 0 .1 0 0zm5.1-.5zm-3.6-.2c0 .1.1.1.1.4l-.1-.4zm-1.7 0c.1-.1 0 0 .2 0 0 .2 0 .1-.2.2v-.2zm36.9-.4h-.1.1zm0 0h.2-.2zm-36.2 1.3c0-.1-.1-.1-.1-.1s0-.1-.1-.2c-.1-.4-.1-.4.1-.8l.1-.3c.1-.1 0-.1.1-.1.1.2-.1.8-.1 1.5zm-.9-1.4c.2-.1.2-.1.4-.1-.1.1-.2.1-.4.1zm.3-.4zm36.9 0h-.1.1zm0 0l.2-.1h.1c-.1.1-.1.1-.3.1zm-37-.4l.1.2h-.2c.1-.1.1-.1.1-.2zm0-.2c0-.1 0-.2 0 0 0-.1 0 .1 0 0zm.3-.8c0-.2.2-.3.4-.4 0 .6.1 1.3.1 1.5l-.2.6c-.1.2 0 .1-.2.2 0-.7-.1-1.3-.1-1.9zm-.7.6zm.1 0c.1-.1.1-.1.2-.1-.1.1 0 .1-.2.1zm.1-1.4c0-.1.1-.3.2-.4V63.5c-.2-.2 0-.4-.2-.4h-.3c.1-.1.2-.1.3-.2v-.7zm2.1.2zm-1.3-.1c-.2.1 0-.1 0 0zm-1.1-.6zm.8.1c0-.5-.1-.6.2-.9 0 .4.1.2-.1.7-.1.2 0 .1-.1.2zm-.6-.2c-.1-.1 0 0-.2 0 .1-.1 0-.1.2-.1 0-.2-.1-.6.1-.6s.1.1.1.3c0 .1-.1.3-.2.4zm1.5.1c-.1-.3-.1-.3-.1-.6 0-.2.1-.1.1-.4l.8-.2-.8 1.2zm-3.2-1.2zm3.4 2.4c-.1-.1-.1.1-.1-.5-.1-.7-.1-.4.5-1.4.1-.2.2-.3.3-.4.2-.3.2-.2.5-.3l-.3.6-.3.6-.6 1.4zm-3.4-2.4c0-.2.1-.3.2-.4.1-.1.1-.3.2-.4-.1.3-.1.6-.4.8zm4.9-1.1v.1c-.1 0-.1 0 0-.1zm0 0zm-4.4-.1zm3-.1zm0 0zm-3 .1c0-.2 0-.2.1-.3v.2c0 .1 0 .1-.1.1zm3-.2c.1 0 0 0 0 0zm.2-.3zm0 0zm-.7-.8zm0-.1c0 .1 0 0 0 0zm-1.4 1.3c0-.3.2-1.2.3-1.4 0-.1.1-.1.1-.2l-.1 1.4c0 .1 0 .2-.3.2zm38-2.2c0 .2.1.5.1.7.1.2 0 .5 0 .8l-.3-.1c.1-.7 0-.7.2-1.4zm-36.4.5zm.1-.1zm.1-.1zm-1.1 1.7c0-.8.1-.9.4-1.6l.1-.2c0 .2-.1.3-.1.5s0 .3-.1.5c0 .2 0 .2-.1.4-.1.1 0 .1-.1.2l-.1.2zm1.1-1.8zm-1.4 0zm.8-.2c0-.1.1 0 0 0 .1 0 0 .2 0 0zm.1-.1zm-.9.3c0-.2.1-.2 0-.4l-.1-.1c.2-.1.1 0 .2-.4.1-.2.1-.3.2-.4 0 .2-.1.5-.1.7 0 .1-.1.2-.1.3 0 .1 0 .1-.1.2.1 0 .1 0 0 .1zm.4-1.3v-.1.1zm37-.5c.1.2 0 .4 0 .6 0 .2.1.4.1.5-.1-.1-.1-.1-.3-.1-.1-.3-.1-.6-.1-.8h.1l.1-.1c.1-.1-.1 0 .1-.1zm-36.3-.5zm0-.2zm0 0zm35.9-.8l.3.6c.1.2.1.4.2.7h-.3c-.1-.4-.2-.8-.2-1.3zm-.1-.1zm-36-.2c-.1 0 0-.2 0 0 0-.1.1-.1 0 0zm.3-.7c.1-.2.1-.2.2-.2-.1.2-.1.2-.2.2zm-.7 4.4c0-.2.1-.5.1-.8.1-.5.3-.9.5-1.3l.9-1.8c.1-.3.6-1 .6-1.2.1.1.2.1.3.1 0 .1-1.4 2.6-1.6 3l-.8 2zm1-5s.2-.1 0 0c0 .1 0 .1 0 0zm0 1.7c-.1-.1 0-.1-.2-.1 0-.3.8-1.5.9-1.9.2 0 .2 0 .3.1l-1 1.9zm.3-2.3zm1.3-1.6zm.1-.1zm-1.3-1zm.8-1.1c0 .1-.2.4-.3.5-.1.1-.3.4-.4.5 0-.2.2-.4.3-.5.1-.2.3-.4.4-.5zm.1-.1zm0 0zm0-.1zm1.9-2.1zm20-4.3zm0 0l-.4-.1c-.2-.1.1.1-.1 0h-.1l.6.1zm-.5-.1h-.4.2c0-.1 0 0 .2 0 0 0-.1 0 0 0zm-.5-.1c0-.1.1 0 0 0 0 0-.1 0 0 0zm14.9 41.1zm-.1 0c-.2 0-.4.1-.5-.1.2 0 .3 0 .5.1zm-4.7-.7v.3H204.2c.1-.1.1-.1.4-.1.6-.1 1.7-.2 2.3-.2.4-.1.6 0 .9 0zm-5.2.2h.7-.7zm6.6-4.6c-.1.2-.8.8-.9 1l-.2.2s-.1 0-.1.1c-.2.2-.5.4-.7.6-.5.4-2.5 2-3.1 2.1-.4 0-.8.1-1.2.1.2-.2.5-.4.8-.4.2 0 .3 0 .4-.1h-.4c.1-.2.4-.3.7-.5 1-.5 1.3-.8 2.1-1.3.2-.1.5-.3.7-.4.3-.2.4-.3.7-.5.2-.2.8-.4 1.1-.6-.1-.1 0-.2.1-.3zm.1 0zm0 0zm2-2.3zm.1 0zm0 0c0-.1 0-.1.1-.1l-.1.1zm0-.2c0-.2.8-1.2 1-1.4 0 .3-.8 1.3-1 1.4zm1.1-1.5zm0 0zm0 0zm.2-.3zm-.4-3zm1.9-5.1zm-.2-11.8l-.1.1c0-.1-.1-.1.1-.1zm-.7-1.6c0 .2.1.1 0 .1 0-.1-.1 0 0-.1zm-.2-.3s.2.1 0 0c0 .1-.1.1 0 0zm-.4-.5l.2-.1c-.1.1 0 .1-.2.1zm-36.5-7.3zm29.7-1.3c-.1 0-1-.6-1.1-.7.4 0 .9.3 1.1.7zm8.3 22.8c-.2.2-.2.5-.4 1-.3 1-.3.7 0 .7-.1.4-.2-.2-.4.6-.1.3-.2.5-.3.8h.3c-.2.3-.1.1-.3.3-.1.1-.2.3-.2.4.2-.1.1 0 .1 0 0 .1 0 .1-.1.2-.2.2-.3 0-.4.5 0 .1.1-.1.1.1 0 .1-.4.2-.4.7-.2 0-.1-.1-.3-.1-.1.3-.3.5-.4.9.1.1 0 .1.2.1 0 .3-1 1.7-1.2 2-.6.9-2.2 2.7-3 3.4l-.2.2-.5.5c-.3.2-.6.4-.8.7v.1c-.1.1-.3.2-.4.3l-.4.3c-.1.1-.3.2-.4.3l-.2-.2c-.2.2-.8.5-.9.6 0 .2 0 .1.1.3-.1 0-.1.1-.2.1l-1.3.7c-1.7.8-3.4 1.5-5.3 1.9-.2 0-.5.1-.7.1h-5.6c-.5 0-.9-.1-1.4-.1-.5-.1-1-.1-1.5-.1s-2.2-.4-2.6-.6c-.5-.3-.4-.3-1-.6-.2-.1-.3-.2-.6-.2-1-.4-.4-.3-1.2-.3-.4 0-2.6-1.4-3.1-1.7-.3-.2-.7-.3-.9-.6l-.4-.4c-.2-.1-.3-.2-.4-.4l-.2-.2-.2-.2c-.3-.2-.5-.5-.7-.7l-1.6-1.8-1-1.4c-1.1-1.6-2-3.5-2.6-5.4-.1-.2-.1-.4-.2-.6 0 .2.1.5.1.8l-.1-.1c0-.1 0-.1-.1-.2-.1-.4-.4-.7-.4-1.2h.2c0-.1-.1-.4-.1-.4-.2.1 0 .2-.2.2-.1-.3 0-.4-.2-1.3h.1c0-.4-.1-.4-.2-.6v-.3c0-.3-.1-.5-.2-.9 0-.4.1-.6 0-1-.1-1.1 0-2 0-3 0-.5.2-1.3.3-1.8.2-.8.3-1.7.6-2.5.2-.5.2-1.1.5-1.6.6-1.4 1.3-3.1 2.2-4.4.1-.1.1-.2.2-.3 1-1.6 2.3-3.2 3.7-4.6l.5-.5.5-.5c1.2-1.2 6.2-3 7.8-3.5l.6-.2c.4-.1.9-.3 1.4-.3l2.2-.4c1.6-.3 3.3-.2 5-.2.4 0 .6.1.9.1.2 0 .3 0 .4.1.5.3.3 0 .8.1.7.2 1.4.4 2 .6 1 .4 1.9.8 2.9 1.2.1.1.2.1.3.2 1.5.8.9.6 1.1.8.1.1.5.3.6.4.1.1.3.2.3 0 .4.1 1.6 1.1 1.9 1.4.4.3 1.2 1 1.5 1.4.1.1 0 .1.1.1l.1.1.5.5.2.2.7.8c.1.1.1.2.2.3l.7.8c.3.4.6.7.9 1 .2.2.4.4.5.7 0 0 .1.1 0 .1s-.1-.1-.3-.1c0 .2 0 .1.1.3l-.2.1c.1.2.3.5.4.8.1 0 .1-.1.3-.1l.9 2.1c0 .1.1.2.2.4s0 .2.2.2c-.1.2-.1 0-.1.2v.1s0 .1.1.2c.1.3.3.6.3 1 .3 0 .5-.3.5.1h-.4c0 .3.1.3.1.5.3 0 .3 0 .5-.1v.1h-.4c0 .1.1.5.1.5.1.1.4 0 .5 0v.2c-.3.1-.5 0-.5.4v.3c.2 0 .2-.1.4-.1-.1.1-.1.1-.2.1s-.2 0-.2.1l.1.5h.4v.1c-.1 0-.2.1-.4.1 0 .5.1.9.1 1.4l.3-.1c-.1.1 0 .1-.2.1v.2h.2v.1h-.2v.7h-.2v2c.5 0 .4 0 .3.8 0 .2-.1.2-.1.3-.1.2-.1.5-.1.8l-.1.7c.1.1-.1.1.1.1v.1c-.2 0-.2 0-.2.2-.3.1-.3.2-.2.3zm-11-25c-.1-.1-.3-.2-.5-.2l.1.1c.1 0 0 0 .1.1.1-.1.1 0 .3 0zm-27 3.5c-.2.3-.6.6-.8.8-.4.4-.7.8-1 1.2-.5.6-.9 1.3-1.4 2-.1.1-.1.2-.2.4l-.4.7c-.9 1.2-1.6 3.4-2 4.7-.4 1.4-.9 3.2-1 4.6 0 .3-.1.7-.1 1 0 .4.1 1.3 0 1.6-.1.2-.1.2-.1.5-.1.3.1.6.3.8.1.2 0 .8 0 1.1 0 .4.1.6.1 1 0 .3 0 .7.1 1 .1.3.1.7.1 1l.2.9c.1.3.2.5.3.8.2.7.4 1.5.6 2.2l.1.3.1.1c0-.2-.1-.3-.1-.6.2 0 .2.2.2.3l.9 2c.1.3.3.5.4.8.5.9 1.5 2.4 2.2 3.1l.9.9 1.5 1.5 1.3 1.1c.2.1.9.7 1 .8h-1.5l-3 .1c-.7.1-2.3.1-3.1.1h-.4c-.9.1-1.8 0-2.6.1-.4 0-1.1.2-1.4.2.5 0 3.2-.1 3.4 0-.1.2-.5.1-.7.1h-2.4c-.8.1-1.6-.1-2.4.1l-1.5.1c-.3 0-.5 0-.8.1-1 .1-1.9.3-2.9.4-.3 0-.4 0-.6.2-.1 0 0 0-.1.1-.2.1-2.7 0-3 .1-.7.1-1.6 0-2.4.1-.5.1-1.1.1-1.5.1h-.8l-5.1.3c-.2 0-.3 0-.4.1h3.3c.9-.1 2.4-.2 3.3-.2H159.6c0 .3.1.3.5.3l2.1.3h3c.6 0 2.3.2 3 .2.3 0 2.8-.1 3 0 .1 0 .1 0 .1.1-.4 0-1.7-.1-1.9 0 .1.1.2.1.5.1h5.1c.6 0 2.7.2 3.3.2l3.3.1h.7c1.1.1 2.9 0 4.1 0h1.3c.6 0 1.5-.1 2.1 0 .2 0 .4.1.7 0 .8-.1 1.7-.1 2.6-.1H195.7c.4 0 .8.1 1.3.1h2.6l2.6-.2c.9-.1 1.8 0 2.6-.1h.7c.8-.1 2.4-.3 3.2-.3h1.4c.5 0 1 .1 1.1-.3h1.1c.2-.2.1-.2.1-.4h.1c-.1-.3-.2-.3-.5-.3s-.5-.1-.7-.1c0-.4-.1-.4-.3-.5-.3-.1-1.9-.3-2.3-.3h-1.3c-.4 0-.4-.1-.8 0h-1.3l.1-.1c.1 0 .1-.1.2-.1.7-.5 1.5-1 2.1-1.5.4-.3.8-.6 1.1-1 1.2-1.2 3-3.1 3.8-4.4.3-.5.4-1.1.9-1.2l-.2-.1c.1-.3.2-.5.3-.7.1-.4.5-.3.6-.6-.2 0-.2.1-.4.1 0-.2.1-.3.1-.5.1-1 0-.4.4-1.4.3-.8.3-1 .6-1.8.1-.3.1-.6.2-.9l.3-.9c.2-.6.4-1.3.4-2h-.2c0-.3.1-.6.1-.9.2-.6-.1-1.3 0-1.8.1-.2.3-.2.4-.7 0-.4 0-.6-.1-.9-.1-.2 0-.7-.1-1 0-.3-.2-1.1-.1-1.3 0-.1.2-.3-.1-.3 0-.3.1-.1.1-.4-.2 0-.2-.2-.2-.4l-.2-1.5c0-.2-.1-.3-.1-.5 0-.3.1-.2 0-.4l-.1-.4c-.1-.4-.9-2.1-1.1-2.8-.2-.5-.4-1.1-.6-1.6-.1-.3-.4-.9-.5-1.1l-.7-1c-.1-.1-.1-.2-.2-.3l-1.7-2-.2-.2-1.3-1.5c-.3-.3-.7-.6-1-.9 0-.1-.1-.1-.1-.1-.4-.4-1.6-1.2-2-1.4-.8-.5-.8-.6-1.8-1l-.7-.4c-.2-.1-.5-.2-.7-.4-.4-.4-.4-.2-.8-.3-1.5-.8-2.5-1.1-4.2-1.4-.7-.1-1.7-.2-2.5-.2-.6 0-1-.1-1.6-.1-.3 0-.8.1-1-.1-.2-.1-.8-.2-1 0-.3.3-.2.2-1 .2-1 0-3 .2-3.9.6-.4.2-.2.2-.8.4l-.8.3-.9.3c-.3.1-.5.2-.8.3-.2.1-.3.1-.4.1-.4.1-.8.3-1.2.5-.5.2-1 .5-1.5.8-.1.1-.2.1-.3.2-.2.2-.5.3-.7.4l-.3.3-1.4.9c-.1.1-.2.1-.3.2-.1.1-.2.1-.4.2-.2.2-.4.3-.6.5-.2.2-.4.3-.6.5-.5.5-1.3 1-1.8 1.6l-.3.3-.3.3c.2-.1.4-.4.6-.5l.9-.8c.7-.3 1.1-.6 1.5-.7z"/></svg>