<svg version="1.1" id="Layer_1" xmlns="http://www.w3.org/2000/svg" x="0" y="0" viewBox="0 0 255.4 128.1" xml:space="preserve"><style>.st26{fill:#fff}.st35{fill:#1c3236}</style><path class="st35" d="M0 91.2h5.2v31.3h10.4v5.2H0V91.2zM19.5 91.2h15.6v4.9H24.8v10.7h9v4.9h-9v10.7h10.4v5.2H19.5V91.2zM42.5 96.2h-6.1v-4.9h17.4v4.9h-6.1v31.7h-5.2V96.2zM56.3 91.2h5.2v5.2l-5.2 3.8v-9zM83.7 101.8h-5.2v-1.2c0-1.2-.3-2.2-.8-3.1s-1.5-1.3-2.9-1.3c-.7 0-1.3.1-1.8.4-.5.3-.8.6-1.1 1.1-.3.4-.4.9-.5 1.5-.1.6-.2 1.2-.2 1.8 0 .7 0 1.3.1 1.8s.2.9.4 1.3.5.7.9 1c.4.3.9.5 1.6.8l4 1.6c1.2.4 2.1 1 2.8 1.6.7.6 1.3 1.3 1.7 2.1.4.8.7 1.7.8 2.8.1 1 .2 2.2.2 3.6 0 1.5-.2 3-.5 4.3-.3 1.3-.8 2.4-1.5 3.4-.7.9-1.6 1.7-2.8 2.2-1.2.5-2.6.8-4.3.8-1.3 0-2.4-.2-3.5-.7-1.1-.4-2-1.1-2.8-1.8-.8-.8-1.4-1.7-1.9-2.7-.5-1.1-.7-2.2-.7-3.4v-2h5.2v1.6c0 1 .3 1.8.8 2.6.6.8 1.5 1.2 2.9 1.2.9 0 1.6-.1 2.1-.4.5-.3.9-.6 1.1-1.1s.4-1 .5-1.7c.1-.7.1-1.4.1-2.3 0-1 0-1.7-.1-2.4-.1-.6-.2-1.1-.4-1.5-.2-.4-.5-.7-.9-.9-.4-.2-.9-.5-1.6-.8l-3.8-1.5c-2.3-.9-3.8-2.1-4.5-3.7-.8-1.5-1.2-3.4-1.2-5.7 0-1.4.2-2.7.6-3.9s.9-2.3 1.7-3.2c.7-.9 1.7-1.6 2.8-2.1 1.1-.5 2.4-.8 4-.8 1.3 0 2.5.2 3.6.7 1.1.5 2 1.1 2.8 1.9.8.8 1.4 1.7 1.8 2.6.4 1 .6 2 .6 3v2.5zM101.6 96.2h-6.1v-4.9h17.4v4.9h-6.1v31.7h-5.2V96.2zM118.7 91.2h4.4l8.2 36.6H126l-1.5-7.9h-7.1l-1.5 7.9h-5.2l8-36.6zm2.2 10.6h-.1l-2.6 13.3h5.2l-2.5-13.3zM134.3 91.2h5.2v31.3h10.4v5.2h-15.6V91.2zM153.8 91.2h5.2v16.7h.1l7.7-16.7h5.2l-7.1 14.6 8.5 21.9h-5.5l-6-16.2-2.8 5.3v10.9h-5.2V91.2zM176.7 91.2h6.6l-2 27.5h-2.6l-2-27.5zm.6 31.4h5.2v5.2h-5.2v-5.2z"/><path d="M249 46.5c1.6-3.1 2.6-6.6 2.6-10.3 0-13.4-12.1-24.2-27-24.2-1.5 0-3 .1-4.5.4C215.3 5 206.1 0 195.5 0c-15.1 0-27.3 10.2-27.8 22.9-12.4 4.7-21.2 15.5-21.2 28 0 16.8 15.7 30.5 35.1 30.5 5.8 0 11.3-1.3 16.1-3.4l-3.5 23.8 14.6-20c4.9 3.4 11.1 5.4 17.8 5.4 15.8 0 28.7-11.2 28.7-24.9.1-6-2.3-11.5-6.3-15.8zm-46.6 28.9c0 .1.1.1.1.2h-.5c.1 0 .3-.1.4-.2z" fill="#caaa0b"/><g><path class="st26" d="M190.6 51.8c0 1.5-1.3 2.8-2.8 2.8-1.6 0-2.8-1.3-2.8-2.8 0-1.5 1.3-2.8 2.8-2.8 1.5 0 2.8 1.3 2.8 2.8zM201.8 51.8c0 1.5-1.3 2.8-2.8 2.8-1.6 0-2.8-1.3-2.8-2.8 0-1.5 1.3-2.8 2.8-2.8 1.6 0 2.8 1.3 2.8 2.8zM213 51.8c0 1.5-1.3 2.8-2.8 2.8-1.5 0-2.8-1.3-2.8-2.8 0-1.5 1.3-2.8 2.8-2.8 1.6 0 2.8 1.3 2.8 2.8z"/></g></svg>