<svg version="1.1" id="Layer_1" xmlns="http://www.w3.org/2000/svg" x="0" y="0" viewBox="0 0 179.6 87.7" xml:space="preserve"><style>.st26{fill:#fff}.st35{fill:#1c3236}.st66{opacity:.1;fill:#000100}.st240{fill:#adaba8}.st241{fill:#48556b}.st242{fill:#323745}.st243{fill:#26336a}.st244{fill:#f1ad2c}.st245{fill:#664e38}.st246{fill:#97cdd3}.st247{fill:#ea5a5b}.st248{fill:#765b45}.st249{fill:#f1f1f2}.st250{fill:#0796ad}.st251{fill:#11adbf}.st252{fill:#8f847f}.st255{fill:#62777f}.st256{fill:#ed7264}.st260{fill:#728693}</style><linearGradient id="SVGID_1_" gradientUnits="userSpaceOnUse" x1="105.137" y1="87.659" x2="105.137" y2="72.945"><stop offset="0" stop-color="#fff"/><stop offset="1"/></linearGradient><path opacity=".15" fill="url(#SVGID_1_)" d="M97.1 74.7l-3.8 13H117l-3.1-13-4.4.1-5.5-1.9z"/><linearGradient id="SVGID_2_" gradientUnits="userSpaceOnUse" x1="66.085" y1="87.659" x2="66.085" y2="73.164"><stop offset="0" stop-color="#fff"/><stop offset="1"/></linearGradient><path opacity=".15" fill="url(#SVGID_2_)" d="M53.7 73.8l3.8 13.9h20.9L72 73.2z"/><linearGradient id="SVGID_3_" gradientUnits="userSpaceOnUse" x1="144.3" y1="87.659" x2="144.3" y2="73.796"><stop offset="0" stop-color="#fff"/><stop offset="1"/></linearGradient><path opacity=".15" fill="url(#SVGID_3_)" d="M139.5 73.8l3.8 13.9h5.8l-4.5-13.9z"/><linearGradient id="SVGID_4_" gradientUnits="userSpaceOnUse" x1="23.375" y1="87.659" x2="23.375" y2="72.945"><stop offset="0" stop-color="#fff"/><stop offset="1"/></linearGradient><path opacity=".15" fill="url(#SVGID_4_)" d="M13.9 75.9l-2.5 11.8h23.7l.3-12.6-7.8-.3-5.5-1.9z"/><linearGradient id="SVGID_5_" gradientUnits="userSpaceOnUse" x1="158.591" y1="87.659" x2="158.591" y2="72.507"><stop offset="0" stop-color="#fff"/><stop offset="1"/></linearGradient><path opacity=".15" fill="url(#SVGID_5_)" d="M153.3 74.5l5 13.2h5.6l-6.4-15.2z"/><linearGradient id="SVGID_6_" gradientUnits="userSpaceOnUse" x1="31.141" y1="87.659" x2="31.141" y2="74.487"><stop offset="0" stop-color="#fff"/><stop offset="1"/></linearGradient><path opacity=".15" fill="url(#SVGID_6_)" d="M27.6 74.5l-.7 13.2h8.2l.3-12.6z"/><linearGradient id="SVGID_7_" gradientUnits="userSpaceOnUse" x1="16.816" y1="87.659" x2="16.816" y2="73.163"><stop offset="0" stop-color="#fff"/><stop offset="1"/></linearGradient><path opacity=".15" fill="url(#SVGID_7_)" d="M13.9 75.9l-2.3 11.8h9L22 73.2z"/><linearGradient id="SVGID_8_" gradientUnits="userSpaceOnUse" x1="109.693" y1="87.659" x2="109.693" y2="74.65"><stop offset="0" stop-color="#fff"/><stop offset="1"/></linearGradient><path opacity=".15" fill="url(#SVGID_8_)" d="M105.6 77.7v10h8.2l-2.7-13.1z"/><linearGradient id="SVGID_9_" gradientUnits="userSpaceOnUse" x1="151.844" y1="87.659" x2="151.844" y2="73.164"><stop offset="0" stop-color="#fff"/><stop offset="1"/></linearGradient><path opacity=".15" fill="url(#SVGID_9_)" d="M139.5 73.8l3.8 13.9h20.9l-6.4-14.5z"/><linearGradient id="SVGID_10_" gradientUnits="userSpaceOnUse" x1="66.256" y1="87.659" x2="66.256" y2="73.796"><stop offset="0" stop-color="#fff"/><stop offset="1"/></linearGradient><path opacity=".15" fill="url(#SVGID_10_)" d="M61.4 73.8l3.8 13.9h5.9l-4.5-13.9z"/><linearGradient id="SVGID_11_" gradientUnits="userSpaceOnUse" x1="72.154" y1="87.659" x2="72.154" y2="72.507"><stop offset="0" stop-color="#fff"/><stop offset="1"/></linearGradient><path opacity=".15" fill="url(#SVGID_11_)" d="M66.9 74.5l5 13.2h5.5l-6.3-15.2z"/><linearGradient id="SVGID_12_" gradientUnits="userSpaceOnUse" x1="100.865" y1="87.659" x2="100.865" y2="74.276"><stop offset="0" stop-color="#fff"/><stop offset="1"/></linearGradient><path opacity=".15" fill="url(#SVGID_12_)" d="M100.3 74.5l-3.9 13.2 8.9-.3.1-13.1z"/><path class="st240" d="M147.9 50.8h1.2v21h-1.2z"/><path class="st241" d="M142.6 50.1h11.7v1.4h-11.7zM147.3 52h2.4v5.1h-2.4zM147.3 66h2.4v5.5h-2.4z"/><path class="st241" d="M147.6 63h1.8v3.9h-1.8z"/><path class="st242" d="M148 71.1h.9v2h-.9z"/><path class="st242" d="M156.7 72.9l-8.2-.9-8.2.9v-.5l8.2-1.3 8.2 1.3z"/><path class="st242" d="M148.5 66h1.2v5.5h-1.2zM148.5 52h1.2v5.1h-1.2z"/><path class="st243" d="M159 36.1c0 .5-.4 1-.8 1h-19.3c-.5 0-.8-.4-.8-1"/><path class="st244" d="M140.6 38.7l15.1-.2"/><path class="st243" d="M34.9 49c0 .6-.4 1.1-.9 1.1H12.5c-.5 0-.9-.5-.9-1.1v-.5c0-.6.4-1.1.9-1.1H34c.5 0 .9.5.9 1.1v.5zM33.9 36.1c0 .5-.4 1-.8 1H13.7c-.5 0-.8-.4-.8-1"/><path class="st245" d="M30.6 38.5s1.7 1 1.9 5c.1 3.5 1.6 5.5-9.8 5.2h-3.2c-2.8 0-5.6-1-5.3-2.3 1.8-6.3 1.2-7.9 1.2-7.9h15.2z"/><path class="st246" d="M30 39.7l-6.8.6M16.7 39.8l6.6.5"/><path class="st247" d="M23.3 40.9l-7.8-1.1M23.3 40.9l8.4-.6M15.4 39.6l7.9 1.3 8.4-.6.6-5.4H14.9z"/><path class="st248" d="M27.3 38.3l4-1.6 2.1.7 1.8 3.7S28.7 58 22.8 69.2c-1.2 1.5-3.5 1.2-4 .8.9-2.1 3.2-6.3 3.8-12.2.4-4.3 4.7-19.5 4.7-19.5z"/><path class="st244" d="M24.1 68.5L22 73.2 13.7 76l4.1-4.3 1.5-5.1z"/><path class="st66" d="M15.4 74.2L13.7 76l8.3-2.8 2.1-4.7-.5-.2-1.6 3.6z"/><path class="st244" d="M18.1 64.9l8 1.6-1.6 3-6.6-2.3z"/><path class="st66" d="M18.1 64.9l8 1.6-1.6 3-6.6-2.3z"/><path class="st248" d="M19 40.1l-3.9-1.5-2.1 1-1.4 3.8s8 16.4 14.8 27.1c1.3 1.5 3.6 1 4.1.5-1.1-2-3.8-6.1-4.9-11.9-.8-4.3-6.6-19-6.6-19z"/><path class="st244" d="M25.6 69.9l2 4.9 7.5.4-3.6-3.3-2.1-4.4z"/><path class="st66" d="M27.6 73.6l-1.6-4-.4.3 2 4.9 7.5.4-1.4-1.3z"/><path class="st244" d="M24.4 68l5.5-2 1.1 2.8-6.1 2.2z"/><path class="st249" d="M28.8 66.4l-2.2.8 1.8-1.8zM19.7 65.2l2.9.6-2.4-1.3z"/><path class="st26" d="M35.9 38.8l-2.7 3.6 3.9-2.7zM9.8 43.3l3.9 1.1-3.4-2.5zM24 50.7l1.1-4.3-1.8 4.1zM14.4 38.7l5.3 1.7-4.6-2.5zM23.3 51.2l1.6 4.7-.9-5.2zM19.7 61.4l2.9 2.7-2.4-4.2z"/><path class="st243" d="M160 49c0 .6-.4 1.1-.9 1.1h-21.5c-.5 0-.9-.5-.9-1.1v-.5c0-.6.4-1.1.9-1.1h21.5c.5 0 .9.5.9 1.1v.5z"/><path class="st250" d="M156.1 37.5s-.2.8.2 1.8 1.2 2.2 1.3 4.2c.2 4.7-1.9 5.4-9.8 5.2h-3.2c-2.8 0-5-.9-5.3-2.3-.6-3.4.5-5.9.9-7.4.3-1.2 0-1.6 0-1.6h15.9z"/><path class="st248" d="M140.1 37.8h16.2v1.3h-16.2z"/><path class="st251" d="M149.4 44.1l3-3 2.3-.2 3.1 2.7s-.7 13.9-1 29.3c-.5 1.9-2.5.3-3.1.1 0-2.3.1-3.4-.7-9.9-.6-5.2-3.6-19-3.6-19z"/><path class="st252" d="M157.4 69.5l.2 4.4-2.2 1.7-2.1-1.1-.3-4.8z"/><path class="st251" d="M147.4 42.1l-3.2-2.3-2.2-.1-2.9 2.1s1.6 18.1 1.3 30.9c.5 1.9 2.8.8 3.5.6-.1-2.3.1-5.9.9-11.8 1-8.8 2.6-19.4 2.6-19.4z"/><path class="st252" d="M140 69.8l-.5 4 2.6 1.4 2.5-1.4-.3-4.2z"/><path class="st26" d="M139 42.6l3.2 1.8-3.8-3.8zM158.3 43.5l-2 3.6 1.6-5.3z"/><path class="st250" d="M148.8 41.8l3.8 5.9-4.3-4.4z"/><path class="st245" d="M26.7 40.7l1.2 4.5-2-3.8zM20.8 41l-3.2 3.5 2.1-3.8z"/><path class="st26" d="M117.8 38.8l-2.6 3.6 3.8-2.7zM96.3 38.7l5.3 1.7-4.6-2.5z"/><path class="st250" d="M147.7 39.7l-2.5 5.9 2.6-3.8z"/><path class="st26" d="M157.8 39.7l-6-.6h5zM156.8 37.5l-5.6-.1 4.7-.9z"/><path class="st252" d="M154.3 70.3s-.6-2.3-.1-2.4c.4-.1 2.2-.2 2.3 0 .1.2-.2 2.3-.2 2.5-.2.1-1.6-.1-2-.1zM141.1 70.2s-.6-2.3-.1-2.4 2.2-.2 2.3 0c.1.2-.2 2.3-.2 2.5-.1.2-1.5-.1-2-.1z"/><path class="st249" d="M145.2 69.8l-3.4-.1 3.5-1.2zM152.5 70.3l3.6-.7-3.3-.3z"/><path class="st250" d="M150.2 47.7l2.9 1.4.5 19.4s-.6-5.3-2.1-14.3c-.7-4.2-1.3-5.6-1.3-6.5zM144 46.9l3.1-2.5-3.1 24.1s-.5-5.3 0-13.5c.2-4.2 0-7.1 0-8.1z"/><path class="st66" d="M142.5 69.8s.2 2.1-.6 3.5c1 .2 2.7.5 2.7.5l-.3-4h-1.8zM155.1 69.8s0 2.5.4 3.9c-1 .2-2.2.9-2.2.9l-.2-4.3 2-.5z"/><path class="st240" d="M62.1 50.8h1.2v21h-1.2z"/><path class="st241" d="M56.9 50.1h11.7v1.4H56.9zM61.5 52h2.4v5.1h-2.4zM61.5 66h2.4v5.5h-2.4z"/><path class="st241" d="M61.8 63h1.8v3.9h-1.8z"/><path class="st242" d="M62.2 71.1h.9v2h-.9z"/><path class="st242" d="M70.9 72.9l-8.2-.9-8.2.9v-.5l8.2-1.3 8.2 1.3z"/><path class="st242" d="M62.7 66h1.2v5.5h-1.2zM62.7 52h1.2v5.1h-1.2z"/><path class="st243" d="M74.3 49c0 .6-.4 1.1-.9 1.1H51.8c-.5 0-.9-.5-.9-1.1v-.5c0-.6.4-1.1.9-1.1h21.5c.5 0 .9.5.9 1.1v.5z"/><path fill="#9cbf2e" d="M56.8 35.8l5.3.6 5.7-.4"/><path class="st66" d="M66.8 34.8l1 1.2-11-.2"/><path class="st243" d="M116 36.3c0 .5-.4 1-.8 1H95.8c-.5 0-.8-.4-.8-1"/><path fill="#eb661c" d="M97.5 39.9l7.9 1.2 8.3-.7"/><path class="st245" d="M13 46.1l4 1 5.8 15.8v1.6z"/><circle class="st255" cx="54.5" cy="73.5" r="1.3"/><path class="st255" d="M72.2 73.5c0 .7-.6 1.3-1.3 1.3-.7 0-1.3-.6-1.3-1.3 0-.7.6-1.3 1.3-1.3.7 0 1.3.6 1.3 1.3z"/><path class="st256" d="M67.9 35.8s.1.7.4 1.8c.3 1.1 1.2 1.8 2.6 3.8-.9 3.7-1.8 7.1-8.8 6.9h-2.8c-2.5 0-5.2-4.6-5.7-6 1.5-2.3 2.4-3.3 2.8-4.9.1-1.3.1-1.5.1-1.5l11.4-.1z"/><path class="st243" d="M56.5 36.1l11.6-.1.2.9-11.8-.1z"/><path class="st26" d="M70.9 36.5l-7.6-.6 6.5-.4z"/><path d="M58.1 46.8l2.1-2.1 3.4 1.4s0 19.7.8 24.9c-.6 1.7-1.3.7-2 .5.1-2-4.3-24.7-4.3-24.7z" fill="#f5b38e"/><path d="M65 38.8l-3.8-1.4-2.2 3.2s5.4 14.3 7.8 26c1 1.6 1.7.5 2.3.2-.6-2.1-1.3-5.4-2.1-10.9-1.1-8.9-2-17.1-2-17.1z" fill="#f8c5af"/><path class="st251" d="M61.7 69.6l.3 5 2.2 1.4 1.7-2.1-1-5.2z"/><path class="st249" d="M65.6 68.9l-2.6.3 2.4-2z"/><path class="st66" d="M63.6 69.3s.5 2.6.2 4.4c.8.1 2.1.2 2.1.2l-1-4.9-1.3.3z"/><path class="st251" d="M66.3 65.4l.7 5.3 2.4 1.3 1.7-2.4-1.5-5.5z"/><path class="st249" d="M70.5 64.3l-2.8.6 2.5-2.4z"/><path class="st66" d="M68.3 64.8s.7 2.8.5 4.7h2.3l-1.4-5.2-1.4.5z"/><path d="M59 40.6l3 1.3 4.2 21.9c0-.1-6.4-21.2-7.2-23.2z" fill="#f7b998"/><path class="st256" d="M59.9 43.3l1.5 4.7-2.4-4.3z"/><path class="st26" d="M71.4 40.3l-3.2 2.3 4.4-1.4zM52.8 42.9H56l-2.9-1.4z"/><path class="st243" d="M116.9 49c0 .6-.4 1.1-.9 1.1H94.4c-.5 0-.9-.5-.9-1.1v-.5c0-.6.4-1.1.9-1.1h21.5c.5 0 .9.5.9 1.1v.5z"/><path class="st255" d="M113.8 38.5s-.2 1.3.5 5c.7 3.5 1.6 5.5-9.8 5.2h-3.2c-2.8 0-5.6-1-5.3-2.3 1.8-6.3 1.2-7.9 1.2-7.9h16.6z"/><path class="st255" d="M108.7 40.7l1.1 4.5-2-3.8zM102.7 41l-3.2 3.5 2.1-3.8z"/><path class="st240" d="M104.7 50.8h1.2v21h-1.2z"/><path class="st241" d="M99.5 50.1h11.7v1.4H99.5zM104.1 52h2.4v5.1h-2.4zM104.1 66h2.4v5.5h-2.4z"/><path class="st241" d="M104.4 63h1.8v3.9h-1.8z"/><path class="st242" d="M104.8 71.1h.9v2h-.9z"/><path class="st242" d="M113.5 72.9l-8.2-.9-8.2.9v-.5l8.2-1.3 8.2 1.3z"/><path class="st242" d="M105.3 66h1.2v5.5h-1.2zM105.3 52h1.2v5.1h-1.2z"/><path class="st260" d="M107.6 44.1l3.6-2.6 2.4.2 2.7 3.3s-3.1 14.2-6.1 30.2c-.8 1.9-2.6-.1-3.2-.4.4-2.4.7-3.6 1-10.3.3-5.5-.4-20.4-.4-20.4zM102.4 41.3l-3.7-1.7-2.3.3-2.6 2.7s5.1 18.2 7.1 31.2c.9 1.8 3 .3 3.7-.1-.5-2.3-1-6-1.4-12.1-.4-9.2-.8-20.3-.8-20.3z"/><path class="st256" d="M100.1 71l.3 4.1 2.8.9 2.4-1.9-1.2-4.2z"/><path class="st26" d="M116.9 45l-2.7 3.4 2.6-5.2z"/><path class="st255" d="M107.3 41.6l3 6.8-3.7-5.2zM103.4 39.3l-3.8 5.4 3.5-3.3zM99.9 46.8l2.7-3.2 1.4 25.2s-1.5-5.3-2.6-13.7c-.6-4.4-1.4-7.3-1.5-8.3z"/><path class="st256" d="M99.1 66.9l1 4.1 4.4-.9-.3-4z"/><path class="st255" d="M107.7 48l2.8 2-2.8 20.1s.3-5.6.3-15.1c0-4.5-.4-6-.3-7z"/><path class="st66" d="M102.7 70.5s.6 2.1.1 3.7h2.8l-1.1-4-1.8.3z"/><path class="st256" d="M106.7 73.7l-1.1 4 2.4 1.8 2.9-1.1.2-4.3z"/><path class="st256" d="M107 69.5l-.3 4.2 4.4.6 1-3.9z"/><path class="st66" d="M109.3 74.1s-.2 2.2-1.1 3.5c1 .3 2.7.9 2.7.9l.3-4.2-1.9-.2z"/><path class="st249" d="M104.1 66.1l-2.9.5 2.7-1.8zM106.7 69.6l3.8.5-3.4-1.6z"/><path class="st26" d="M92.5 43.1l3.9 1.1-3.4-2.5z"/><path class="st255" d="M98.5 73.5c0 .7-.6 1.3-1.3 1.3-.7 0-1.3-.6-1.3-1.3 0-.7.6-1.3 1.3-1.3.8 0 1.3.6 1.3 1.3zM114.9 73.5c0 .7-.6 1.3-1.3 1.3-.7 0-1.3-.6-1.3-1.3 0-.7.6-1.3 1.3-1.3.7 0 1.3.6 1.3 1.3z"/><path fill="#a4d3ba" d="M97.1 38.1h17v1.3h-17z"/><path class="st66" d="M24.4 68l5.5-2 1.1 2.8-6.1 2.2z"/><path class="st248" d="M36.9 35.2h2v39h-2zM167.5 35.2H1.2L0 32.7h168.7z"/><path fill="#eea164" d="M168.7 32.7H0l.4.9h167.8z"/><path class="st248" d="M130 35.2h2v39h-2z"/><g><path class="st35" d="M28.8.2h3.8V23h7.6v3.8H28.8V.2zM42.3.2h11.4v3.6h-7.6v7.8h6.6v3.6h-6.6V23h7.6v3.8H42.3V.2zM58.2 3.8h-4.4V.2h12.6v3.6H62v23h-3.8v-23zM67.5.2h3.8V4l-3.8 2.8V.2zM86.7 7.9h-3.8V7c0-.9-.2-1.6-.6-2.3-.4-.6-1.1-1-2.1-1-.5 0-1 .1-1.3.3s-.6.5-.8.8-.3.8-.4 1.2c-.1.4-.1.8-.1 1.3s0 1 .1 1.3c0 .4.1.7.3.9s.4.5.7.7c.3.2.7.4 1.2.6l2.9 1.2c.8.3 1.5.7 2.1 1.1.5.4.9.9 1.2 1.5.3.6.5 1.3.6 2 .1.8.1 1.6.1 2.6 0 1.1-.1 2.2-.3 3.1-.2 1-.6 1.8-1.1 2.5s-1.2 1.2-2 1.6c-.8.4-1.9.6-3.1.6-.9 0-1.8-.2-2.6-.5s-1.5-.8-2.1-1.3-1-1.2-1.4-2c-.3-.8-.5-1.6-.5-2.5v-1.4h3.8v1.2c0 .7.2 1.3.6 1.9.4.6 1.1.8 2.1.8.6 0 1.2-.1 1.5-.3.4-.2.6-.4.8-.8.2-.3.3-.8.4-1.3 0-.5.1-1 .1-1.6 0-.7 0-1.3-.1-1.7-.1-.4-.2-.8-.3-1.1s-.4-.5-.7-.7c-.3-.2-.7-.4-1.1-.6L78.1 14c-1.6-.7-2.7-1.6-3.3-2.7-.8-1-1-2.3-1-4 0-1 .1-1.9.4-2.8.3-.9.7-1.7 1.2-2.3.5-.6 1.2-1.2 2-1.6.9-.4 1.8-.6 2.9-.6.9 0 1.8.2 2.6.5s1.5.8 2 1.4 1 1.2 1.3 1.9c.3.7.4 1.4.4 2.2v1.9zM107.8 20.9c0 .8-.2 1.6-.5 2.4-.3.7-.7 1.4-1.3 2-.5.6-1.2 1-1.9 1.3-.7.3-1.5.5-2.4.5-.7 0-1.5-.1-2.2-.3-.7-.2-1.4-.5-2-1-.6-.5-1.1-1.1-1.5-1.9-.4-.8-.6-1.8-.6-3V6.1c0-.9.1-1.7.4-2.4.3-.7.7-1.4 1.3-1.9.5-.5 1.2-1 2-1.3.8-.3 1.6-.5 2.5-.5.9 0 1.7.2 2.4.5s1.4.7 1.9 1.3c.5.6 1 1.2 1.3 2 .3.8.5 1.6.5 2.6v1.5H104V6.6c0-.7-.2-1.4-.6-1.9-.4-.5-1-.8-1.7-.8-.9 0-1.6.3-1.9.9-.3.6-.5 1.3-.5 2.2v13.6c0 .8.2 1.4.5 1.9s.9.8 1.8.8c.2 0 .5 0 .8-.1.3-.1.5-.2.8-.4.2-.2.4-.5.6-.8.1-.3.2-.8.2-1.3v-1.3h3.8v1.5zM110.6.2h3.8v11.4h4.7V.2h3.8v26.6h-3.8V15h-4.7v11.9h-3.8V.2zM130.3.2h3.2l5.9 26.6h-3.8l-1.1-5.7h-5.2l-1.1 5.7h-3.8L130.3.2zm1.6 7.7l-1.9 9.6h3.8l-1.9-9.6zM141.4 3.8H137V.2h12.6v3.6h-4.4v23h-3.8v-23z"/></g><linearGradient id="SVGID_13_" gradientUnits="userSpaceOnUse" x1="-321.54" y1="697.719" x2="-321.54" y2="694.269" gradientTransform="rotate(180 -115.379 390.173)"><stop offset=".412" stop-color="#fff"/><stop offset="1" stop-color="#666"/></linearGradient><path fill="url(#SVGID_13_)" d="M1.9 82.6h177.7V86H1.9z"/></svg>