<svg xmlns="http://www.w3.org/2000/svg" viewBox="0 0 245.8 103.2"><linearGradient id="a" gradientUnits="userSpaceOnUse" x1="2634.821" y1="2445.923" x2="2668.988" y2="2386.267" gradientTransform="rotate(-90 272.446 2432.809)"><stop offset="0" stop-color="#fdc721"/><stop offset="1" stop-color="#ae6d15"/></linearGradient><path fill="url(#a)" d="M204.7 71.8l7.8-68.7L245.8 0v87.2z"/><linearGradient id="b" gradientUnits="userSpaceOnUse" x1="2678.364" y1="2402.606" x2="2643.941" y2="2341.976" gradientTransform="rotate(-90 272.446 2432.809)"><stop offset="0" stop-color="#fdc721"/><stop offset="1" stop-color="#fd5"/></linearGradient><path fill="url(#b)" d="M245.8 0l-33.3 3.1-38 58.3-15.4-1.4 20.3 43.2 56.1-34.5-14.8-1.7z"/><path d="M4.4 56.7s1.3.7 3.1.7c2.1 0 4.4-1 4.4-3 0-4.4-10.2-2.6-10.2-9.4 0-4 3.2-5.6 6.8-5.6 2.7 0 6 1.2 6 1.2l-.2 4.8h-1.8l-1-3s-1.4-.5-3-.5c-2.6 0-3.8 1.3-3.8 2.7 0 4.3 10.2 2.7 10.2 9.1 0 4.3-3.5 6.2-7.4 6.2-3 0-5.8-1.2-5.8-1.2v-5H4l.4 3zm16.8-10.5c.9-.8 2.4-1.9 4.3-1.9 4.1 0 6.1 3 6.1 7.4 0 4.8-2.4 8.2-7.7 8.2-.9 0-1.8-.2-2.6-.4V64l3 .6v1.6h-8.1v-1.6l2.3-.6.1-17.2-2.4-.6v-1.6l4.8-.1.2 1.7zm.1 10.9s.9.6 3 .6c3.3 0 4.3-2.5 4.3-5.7 0-3.1-1.1-5.4-3.7-5.4s-3.6 2-3.6 2v8.5zm14.5-4.5c0 3.1 1.7 5.1 4.1 5.1 2.8 0 4.8-1.5 4.8-1.5l1 1.5S43 60 39.6 60c-4.5 0-6.8-3-6.8-7.7 0-4.5 2.9-7.9 7-7.9s6 2.4 5.9 6.7c0 .7-.1 1.5-.1 1.6l-9.8-.1zm7-2.1c0-2.1-.8-3.9-3.1-3.9s-3.6 1.7-3.7 3.9h6.8zm5.3-5s3.1-1.1 5.5-1.1c3.3 0 5.3 1.2 5.2 4.4v8.7l2.3.6v1.6l-4.4.1-.6-2c-1 1-2.7 2.3-4.7 2.3-2.7 0-4.3-1.6-4.2-4.3 0-3.3 2.6-4.4 6.6-4.4h2.3v-2.3c0-1.7-1-2.6-2.7-2.6-1.7 0-2.9.4-2.9.4l-.4 2.1h-1.8l-.2-3.5zm5.9 7.7c-2.8 0-3.9.7-3.9 2.4 0 1.3.8 2.1 2.1 2.1 2.1 0 3.8-2.3 3.8-2.3v-2.3l-2 .1zm17.4-6.3l-1.3-.4v-1.6l6.3-.1v1.7l-2 .3-2.9 4.3 3.6 6.4 2.1.7v1.6h-3.8l-4-7.3h-2.5v5l1.8.7v1.6h-7.1v-1.6l2.4-.7V40.2l-2.4-.6V38l5.3-.1v12.5h2.4l2.1-3.5zm20.6.2h-4.1v9.1c0 1.3.6 1.7 1.4 1.7.7 0 1.5-.3 2.2-.7l.8 1.5c-1.3.9-2.6 1.4-4 1.4-1.7 0-3.3-.9-3.3-4.1v-8.9h-2.8v-1.8L85 45v-3.6l2.8-.6v4.1h4.1l.1 2.2zm14.7 5c0 4.8-2.9 8.1-7.1 8.1-4.3 0-6.8-2.6-6.8-7.7 0-4.8 3-7.9 7.3-7.9 4.2 0 6.6 3 6.6 7.5zm-10.9.3c0 3.4 1.1 5.5 4 5.6 2.8 0 4-2 4-5.7 0-3.1-1-5.4-3.8-5.4-2.9-.1-4.2 1.8-4.2 5.5zm34 7.5l-4.7.1-.3-2c-.7.6-2.9 2.3-5.3 2.3-3.1 0-4.5-2-4.5-5.1v-8l-2.4-.6V45l5.3-.1v10c0 2 .7 3 2.5 3 2.4 0 4.1-2.2 4.1-2.2v-8.4l-2.4-.6v-1.6l5.3-.1v12.8l2.4.6v1.5zm3.2-2s.9.3 2.4.3c1.7 0 3.2-.5 3.2-2.2 0-3.1-7.9-1.7-7.9-6.8 0-3 2.3-4.4 5.2-4.4 2.2 0 4.9.9 4.9.9l-.1 3.8h-1.8l-.4-2.2s-.9-.3-2.3-.4c-1.4 0-2.5.4-2.5 1.9 0 3 7.9 1.9 7.9 6.8 0 3.3-2.9 4.8-6.3 4.8-2.6 0-4.5-.6-4.5-.6v-4.2h2l.2 2.3zm13.2-1.5c1.1 0 1.8.7 1.8 2s-.9 2-1.9 2c-1.1 0-1.8-.7-1.8-2s.9-2 1.9-2zm-1.5-17.6h3.3l-.6 14.2-2.4.1-.3-14.3z" fill="#cecdce"/><path d="M2.8 55.7s1.3.7 3.1.7c2.1 0 4.4-1 4.4-3C10.3 49 .1 50.8.1 44c0-4 3.2-5.6 6.8-5.6 2.7 0 6 1.2 6 1.2l-.2 4.8h-1.8l-1-3s-1.4-.5-3-.5c-2.6 0-3.8 1.3-3.8 2.7 0 4.3 10.2 2.7 10.2 9.1 0 4.3-3.5 6.2-7.4 6.2-3 0-5.8-1.2-5.8-1.2v-5h2.3l.4 3zm16.8-10.5c.9-.8 2.4-1.9 4.3-1.9 4.1 0 6.1 3 6.1 7.4 0 4.8-2.4 8.2-7.7 8.2-.9 0-1.8-.2-2.6-.4V63l3 .6v1.6h-8.1v-1.6l2.3-.6.1-17.2-2.4-.6v-1.6l4.8-.1.2 1.7zm.2 10.9s.9.6 3 .6c3.3 0 4.3-2.5 4.3-5.7 0-3.1-1.1-5.4-3.7-5.4s-3.6 2-3.6 2v8.5zm14.5-4.5c0 3.1 1.7 5.1 4.1 5.1 2.8 0 4.8-1.5 4.8-1.5l1 1.5S41.5 59 38.1 59c-4.5 0-6.8-3-6.8-7.7 0-4.5 2.9-7.9 7-7.9s6 2.4 5.9 6.7c0 .7-.1 1.5-.1 1.6l-9.8-.1zm7-2.1c0-2.1-.8-3.9-3.1-3.9s-3.6 1.7-3.7 3.9h6.8zm5.3-5s3.1-1.1 5.5-1.1c3.3 0 5.3 1.2 5.2 4.4v8.7l2.3.6v1.6l-4.4.1-.6-2c-1 1-2.7 2.3-4.7 2.3-2.7 0-4.3-1.6-4.2-4.3 0-3.3 2.6-4.4 6.6-4.4h2.3v-2.3c0-1.7-1-2.6-2.7-2.6-1.7 0-2.9.4-2.9.4l-.4 2.1h-1.8l-.2-3.5zm5.9 7.7c-2.8 0-3.9.7-3.9 2.4 0 1.3.8 2.1 2.1 2.1 2.1 0 3.8-2.3 3.8-2.3v-2.3l-2 .1zm17.3-6.3l-1.3-.4v-1.6l6.3-.1v1.7l-2 .3-2.9 4.3 3.6 6.4 2.1.7v1.6h-3.8l-4-7.3h-2.5v5l1.8.7v1.6H60v-1.6l2.4-.7.1-17.3-2.4-.6V37l5.3-.1v12.5h2.4l2-3.5zm20.6.2h-4.1v9.1c0 1.3.6 1.7 1.4 1.7.7 0 1.5-.3 2.2-.7l.8 1.5c-1.3.9-2.6 1.4-4 1.4-1.7 0-3.3-.9-3.3-4.1v-8.9h-2.8v-1.8l2.8-.3v-3.6l2.8-.6v4.1h4.1l.1 2.2zm14.8 5c0 4.8-2.9 8.1-7.1 8.1-4.3 0-6.8-2.6-6.8-7.7 0-4.8 3-7.9 7.3-7.9 4.2 0 6.6 3 6.6 7.5zm-10.9.3c0 3.4 1.1 5.5 4 5.6 2.8 0 4-2 4-5.7 0-3.1-1-5.4-3.8-5.4-2.9 0-4.2 1.8-4.2 5.5zm34 7.5l-4.7.1-.3-2c-.7.6-2.9 2.3-5.3 2.3-3.1 0-4.5-2-4.5-5.1v-8l-2.4-.6V44l5.3-.1v10c0 2 .7 3 2.5 3 2.4 0 4.1-2.2 4.1-2.2v-8.4l-2.4-.6v-1.6l5.4-.1v12.8l2.4.6-.1 1.5zm3.2-1.9s.9.3 2.4.3c1.7 0 3.2-.5 3.2-2.2 0-3.1-7.9-1.7-7.9-6.8 0-3 2.3-4.4 5.2-4.4 2.2 0 4.9.9 4.9.9l-.1 3.8h-1.8l-.4-2.2s-.9-.3-2.3-.3-2.5.4-2.5 1.9c0 3 7.9 1.9 7.9 6.8 0 3.3-2.9 4.8-6.3 4.8-2.6 0-4.5-.6-4.5-.6v-4.2h2l.2 2.2zm13.1-1.6c1.1 0 1.8.7 1.8 2s-.9 2-1.9 2c-1.1 0-1.8-.7-1.8-2 .1-1.3.9-2 1.9-2zm-1.5-17.6h3.3l-.5 14.2-2.4.1-.4-14.3z" fill="#ea7652"/></svg>