<svg xmlns="http://www.w3.org/2000/svg" viewBox="0 0 168 168"><path d="M140.2 98.5c-.3 0-.7-.2-.9-.5l-32.5-52.4-2.8-.6-70.1 25.1c-.5.2-1.1-.1-1.3-.6-.2-.5.1-1.1.6-1.3L103.6 43c.2-.1.4-.1.5 0l3.6.7c.3.1.5.2.7.5L141.1 97c.3.5.1 1.1-.3 1.4-.2.1-.4.1-.6.1z" fill="#dfdfde"/><path d="M144.1 101.6l-.8-2.2-.5.2c-.6-.6-1.4-1.1-2.3-1.3L32.8 68.6c-3-.8-6.2 1-7 4.1l-7.2 25.9c-.1.4-.2.9-.2 1.3l-.6-.2 1 2.5c.6 1.6 2 2.9 3.7 3.4l107.6 29.7c3 .8 6.2-1 7-4.1l7.2-25.9c.4-1.2.3-2.5-.2-3.7z" fill="#d4d3d3"/><path d="M129.1 133.1L21.8 103.4c-3.1-.9-4.9-4.1-4-7.1L25 70.4c.9-3.1 4.1-4.9 7.1-4l107.3 29.7c3.1.9 4.9 4.1 4 7.1l-7.2 25.9c-.8 3-4 4.8-7.1 4z" fill="#fff"/><path d="M129.6 129.4c-.3 0-.7 0-1-.1L24.2 100.4c-1-.3-1.8-.9-2.4-1.9-.5-.9-.6-2-.3-3l6.3-22.7c.6-2.1 2.7-3.4 4.8-2.8L137 98.9c1 .3 1.8.9 2.4 1.9.5.9.6 2 .3 3l-6.3 22.7c-.5 1.8-2.1 2.9-3.8 2.9zm-98-58.5c-1.3 0-2.5.9-2.8 2.2l-6.3 22.7c-.2.8-.1 1.6.3 2.3.4.7 1 1.2 1.7 1.4l104.4 28.9c1.5.4 3.2-.5 3.6-2.1l6.3-22.7c.2-.8.1-1.6-.3-2.3-.4-.7-1-1.2-1.7-1.4L32.3 71c-.2-.1-.5-.1-.7-.1z" fill="#9f9f9f"/><g><path d="M37.9 96.4L41.8 82l3.2.9-3.4 12.8 4.8 1.3-.4 1.6-8.1-2.2zM47.6 99l3.9-14.4 8 2.2-.4 1.6-4.8-1.3-1.3 4.8 3.2.9-.4 1.6-3.2-.9-1.3 4.8 4.8 1.3-.4 1.6-8.1-2.2z"/><path d="M58.8 102l3.5-12.8-3.2-.9.4-1.6 9.6 2.6-.5 1.7-3.2-.9-3.5 12.8-3.1-.9zM69.1 89.4l3.2.9-.9 3.2c-.5 1.9-1.9 2.6-4.1 2.3l.4-1.6c1 .2 1.7-.1 2-1.2l-1.6-.4 1-3.2zM81.1 96.1l-1.6-.4c.1-1.1-.2-1.8-1.1-2-.6-.2-1-.1-1.4.1s-.6.6-.7 1.1c-.1.4-.1.8.2 1.3l2.4 4.7c.4.9.5 1.7.3 2.5l-.2.8c-.2.9-.8 1.5-1.5 2-.8.5-1.6.6-2.5.3l-1.6-.4c-1.1-.3-1.8-.8-2.2-1.4s-.4-1.5-.2-2.6l1.6.4c0 .1-.1.2-.1.3-.1.4 0 .8.2 1.1.3.3.6.5 1 .6.6.2 1 .1 1.3-.1s.6-.6.7-1.1c.1-.4.1-.8-.2-1.3l-2.4-4.7c-.4-.9-.5-1.7-.3-2.5l.2-.8c.2-.9.8-1.5 1.5-2 .8-.5 1.6-.6 2.5-.3l1.6.4c2.2.5 2.9 1.8 2.5 4zM93.4 108c-.7 2.1-2.1 2.9-4 2.3l-3.2-.9c-.9-.2-1.5-.8-2-1.5-.5-.8-.6-1.6-.3-2.5l2.2-8c.2-.9.7-1.5 1.5-2s1.6-.6 2.5-.3l3.2.9c2 .5 2.8 1.9 2.3 4.1l-1.6-.4c.2-1.1-.2-1.8-1.2-2l-1.6-.4c-.4-.1-.8-.1-1.2.2-.4.2-.7.6-.8 1l-2.2 8c-.1.4-.1.9.2 1.3.2.4.6.7 1 .8l1.6.4c.9.3 1.6-.1 2-1.2l1.6.2zM94.2 111.6l3.9-14.4 3.2.9-1.7 6.4 3.2.9 1.7-6.4 3.2.9-3.9 14.4-3.2-.9 1.7-6.4-3.2-.9-1.7 6.4-3.2-.9zM105.4 114.7l3-11.2c.2-.9.8-1.5 1.6-2s1.6-.6 2.5-.3l3.2.9c.9.2 1.5.8 2 1.6s.6 1.6.3 2.5l-3 11.2-3.2-.9 1.7-6.4-3.2-.9-1.7 6.4-3.2-.9zm5.4-7.2l3.2.9.9-3.2c.1-.4.1-.9-.2-1.3s-.6-.7-1-.8c-.4-.1-.8-.1-1.2.2-.4.2-.7.6-.8 1l-.9 3.2zM118.3 118.1l3.5-12.8-3.2-.9.4-1.6 9.6 2.6-.4 1.6-3.2-.9-3.5 12.8-3.2-.8z"/></g><circle cx="105.7" cy="44.2" r="3" fill="#9b9999"/></svg>