<svg version="1.1" id="Layer_1" xmlns="http://www.w3.org/2000/svg" x="0" y="0" viewBox="0 0 129.5 129.5" xml:space="preserve"><style>.st4828{fill:#e6ddaf}.st4829{fill:#dc3324}</style><path d="M5.5 99.1s39.3 15.9 91 18.9c0 0 11.7-12.7 20.7-58.5L5.5 99.1z" fill="#ececec"/><path class="st4828" d="M29.8 1.8s79 23.2 93.7 24.5c0 0-13.5 77.7-20.2 81 0 0-11.4 7.5-57.8-.3-10.4-1.8-26.3-4.2-40.1-7.8.1-.1 15.2-72.6 24.4-97.4z"/><path class="st4828" d="M94.8 91.4s-.5-2.2-.3-3.1c.2-.9 1.8-3.5 1.8-3.5s.7-.4 1.4-.4c.7.1.6-1.2.7.1.1 1.2-.6 1.9-.6 2.8 0 .9-.1.4-.2 1.4-.1 1 .3.9-.3 1.3s-.3.4-.9.7c-.7.2-1.6.7-1.6.7z"/><g opacity=".75"><path d="M42.5 33.6l3.7.8-4.9 22.3 7.4 1.6L48 62l-11.1-2.4 5.6-26zM55 36.3l11.1 2.4-.8 3.5-7.4-1.6-1.7 7.6 6.4 1.4-.8 3.5-6.4-1.4-1.7 7.6 7.4 1.6-.8 3.7-11.1-2.4L55 36.3z"/><path d="M69.1 43.1l-4.3-.9.8-3.5 12.3 2.7-.8 3.5-4.3-.9-4.9 22.5-3.7-.8 4.9-22.6zM78.2 41.4l3.7.8-.8 3.7-4.3 1.9 1.4-6.4zM94.5 52.8l-3.7-.8.2-.8c.2-.9.1-1.6-.1-2.3-.3-.7-.9-1.2-1.8-1.4-.5-.1-1-.1-1.3 0-.4.1-.7.3-.9.6-.2.3-.5.6-.6 1-.2.4-.3.8-.4 1.2-.1.5-.2.9-.2 1.3s0 .7.1 1c.1.3.3.6.5.8.2.3.6.5 1 .8l2.6 1.8c.8.5 1.3 1 1.8 1.6.4.5.7 1.1.9 1.8s.2 1.3.1 2.1-.2 1.6-.4 2.6c-.2 1.1-.6 2.1-1 3-.4.9-1 1.6-1.6 2.2-.6.6-1.4.9-2.3 1.2-.9.2-2 .2-3.2-.1-.9-.2-1.7-.5-2.4-1s-1.3-1.1-1.7-1.7c-.4-.7-.7-1.4-.9-2.2s-.2-1.7 0-2.6l.3-1.4 3.5.5-.3 1.2c-.1.7-.1 1.3.2 2 .3.6.9 1.1 1.8 1.3.6.1 1.1.2 1.5 0s.7-.3 1-.6c.3-.3.5-.7.6-1.1.2-.5.3-1 .4-1.6.1-.7.2-1.2.3-1.7 0-.4 0-.8-.1-1.1-.1-.3-.3-.6-.5-.8-.2-.2-.6-.5-1-.8L84.6 57c-1.5-1-2.4-2.1-2.7-3.3-.3-1.2-.3-2.6.1-4.3.2-1 .5-1.9 1-2.7.5-.8 1-1.5 1.7-2s1.4-.9 2.3-1.1c.9-.2 1.9-.2 2.9 0 .9.2 1.7.6 2.4 1.1.7.5 1.3 1.1 1.7 1.8.4.7.7 1.4.9 2.2.1.8.1 1.5 0 2.2l-.4 1.9zM38.2 65.4l-4.3-.9.8-3.5L47 63.6l-.8 3.5-4.3-.9L37 88.7l-3.7-.8 4.9-22.5zM49.6 64.2l3.1.7.1 27.3-3.7-.8.1-5.8-5.1-1.1-2.3 5.3-3.7-.8 11.5-24.8zm0 7.8l-4 9 3.7.8.3-9.8zM59.3 66.3l3.7.8-4.9 22.3 7.4 1.6-.8 3.7-11.1-2.4 5.7-26zM71.7 69l3.7.8-2.6 11.9h.1l8-10.7 3.7.8-7.3 9.3L80 98l-4-.8-1.7-12.5-2.8 3.3-1.7 7.8L66 95l5.7-26zM82.1 94.6l3.7.8-.8 3.7-3.7-.8.8-3.7zm4.4-22.4l4.7 1-5.7 19.3-1.8-.4 2.8-19.9z"/></g><g><ellipse transform="matrix(.9987 -.05029 .05029 .9987 -1.253 3.686)" class="st4829" cx="72.6" cy="26.8" rx="5.9" ry="5.4"/><path d="M74.9 18.3l-6.1.4.5 7.6c.1 1.8 1.6 3.3 3.4 3.2 1.8-.1 3.2-1.7 3.1-3.5l-.9-7.7z" fill="#bb251d"/><ellipse transform="matrix(.9987 -.05029 .05029 .9987 -.85 3.637)" class="st4829" cx="71.9" cy="18.7" rx="4.6" ry="4.1"/><circle cx="71.8" cy="18.3" r="2.6" fill="#e3664f"/></g></svg>