<svg version="1.1" id="Layer_1" xmlns="http://www.w3.org/2000/svg" x="0" y="0" viewBox="0 0 141.2 107.4" xml:space="preserve"><style>.st26{fill:#fff}.st93{fill:#edb326}</style><path d="M67.4 107.2c-9.4-1-16.9-7.5-24.1-12.6-7.4-5.4-15.9-10.5-19.6-18.8-3.7-8.1-2-17.7-1.1-27.2 1-9.4 1.3-19.2 6.5-26.4 5.3-7.4 14.7-10.8 23-14.5C60.2 4 68.8-.8 78.2.1c9.4 1 16.9 7.5 24.1 12.6 7.4 5.3 15.9 10.5 19.6 18.8 3.7 8.1 2 17.7 1.1 27.2-1 9.4-1.3 19.2-6.5 26.4-5.4 7.4-14.7 10.8-23 14.5-8.1 3.7-16.7 8.6-26.1 7.6z" fill="#3b3a31"/><path class="st26" d="M101.7 86.7c-32.7-5.6-68.3 8.1-73 14.5.3.4 2.8 1.6 3.1 1.9 12.2-9.3 37.6-18.4 69.5-15.7l.4-.7z"/><path class="st93" d="M14.4 49.1l.1.3c.7 5.3 1.1 8.6 1.2 9.8.2 2.1.4 3.6.7 4.6.3 1 .9 1.4 1.7 1.2.7-.2 1.3-.9 1.5-2.1.3-1.2.4-2.7.2-4.3-.3-3.5-.7-6.4-1.4-8.8-.3-1.1-.7-2.1-1.1-2.8.6-.6 1.4-1 2.4-1.3 1-.3 1.6.2 1.9 1.3.5 1.8 1 4.6 1.4 8.5.4 3.2.4 5.6-.1 7.3-.2.7-.5 1.4-.8 2.1-.7 1.4-1.9 2.3-3.7 2.8-1.8.5-3.2.1-4.4-1.2-.6 1.8-1.8 2.9-3.8 3.5-1.3.3-2.3.2-3.2-.3-.9-.5-1.5-1.4-1.8-2.6 0-.2-.1-.4-.1-.7l-1-7.7c-2.2-.8-3.6-2.1-4-3.8-.3-1.1-.2-2 .4-2.9.6-.8 1.4-1.4 2.4-1.7 2.3-.6 3.8.2 4.4 2.5v.4c0 .1 0 .3.1.4 0 .2 0 .4.1.7 0 .3.1.7.1 1s.1.9.2 1.5.2 1.3.2 2c.1.7.2 1.6.3 2.6.1 1 .2 1.9.3 2.7.1.7.2 1.3.3 1.6.3 1.2.9 1.6 1.8 1.4 1.3-.3 1.7-1.7 1.4-4.1l-1.9-13.7c.5-.4 1.2-.7 2-1 1.3-.4 1.9-.1 2.2.8zM2.5 52.6c-.3.1-.5.3-.6.6-.1.3-.1.6 0 .9.2.8.9 1.5 2 2.1l-.2-1.1c-.1-.6-.2-1.2-.4-1.8-.1-.6-.4-.8-.8-.7zM32.6 55.9c.4-.8.5-1.5.3-2.1-.2-.6-.4-1-.8-1.1-.4-.1-.8-.1-1.2 0-.8.2-1.4.9-1.8 2-.4 1.1-.4 2.3 0 3.5.3 1.3.9 2.1 1.7 2.6.8.5 1.6.6 2.5.3 1.3-.4 2.5-1.2 3.4-2.4s1.6-2.7 2-4.4c.5.3 1 .6 1.4 1.1-.2 1.5-.9 3-2 4.7-.6.8-1.3 1.5-2.2 2.2-.9.7-1.9 1.1-3 1.4-1.8.5-3.3.3-4.6-.5-1.4-.9-2.3-2.2-2.8-4-.5-1.8-.2-3.6.8-5.3 1-1.7 2.4-2.8 4.3-3.3 1.4-.4 2.5-.4 3.5 0s1.6 1 1.9 2c.4 1.4.1 2.6-.7 3.7-.9 1.1-2.2 2.1-4 3l-.8-1.5c1.1-.4 1.8-1.1 2.1-1.9zM57 57.2c-1.6.4-2.8.2-3.7-.8-.6 1.4-1.6 2.3-3.1 2.7-1.4.4-2.8.2-4-.5-1.2-.7-2.1-1.8-2.5-3.4-.6-2.3-.4-4.3.5-6 1-1.7 2.5-2.9 4.6-3.4h.2c.9-.2 1.7-.3 2.5-.2.4-.4.9-.7 1.6-.9s1.2-.2 1.5-.1c.2 1.3.4 2.7.5 4 .2 1.3.3 2.2.4 2.8.2 1.2.3 2.1.5 2.6.2.7.6 1 1.1.8.4-.1.8-.5 1.2-1.3.3-.7.5-1.8.5-3.1.6.3 1.1.7 1.5 1.2-.1 1.8-.4 3.2-1.1 4.1-.5.7-1.3 1.3-2.2 1.5zm-7.1-9.6c-1.1.3-1.9 1-2.3 2-.4 1-.5 2.4-.1 4.1 0 .2.1.3.1.5.2.9.6 1.5 1.2 1.9.5.4 1.1.5 1.8.3 1.1-.3 1.7-1.3 1.9-3l-.9-5.9c-.7 0-1.2 0-1.7.1z"/><path class="st93" d="M65 45c-.2-.8-.7-1.1-1.4-.9-.7.2-1.2.8-1.3 1.8 2.3 1 3.7 2.4 4.2 4.3.4 1.4.3 2.5-.3 3.4s-1.4 1.5-2.6 1.8c-1.1.3-2.1.2-2.8-.4-.7-.6-1.2-1.4-1.5-2.5-.1-.3-.1-.6-.2-.7l-1.3-8.3c.6-.4 1.2-.6 1.8-.8 1.1-.3 1.7 0 1.9.8v.1c.5-1 1.3-1.7 2.3-2 .8-.2 1.5-.2 2 0s.9.7 1 1.3c.2.6.1 1.1-.3 1.6s-.9.8-1.6 1h-.1c.3-.1.2-.3.2-.5zm-2.7 3l.6 3.9c.2.7.6 1 1.2.9.8-.2 1-.9.7-2.2-.3-1-1.1-1.9-2.5-2.6zM75.9 44.2c.4-.8.5-1.5.3-2.1-.2-.6-.4-1-.8-1.1-.4-.1-.8-.1-1.2 0-.8.2-1.4.9-1.8 2-.4 1.1-.4 2.3 0 3.5.3 1.3.9 2.1 1.7 2.6.8.5 1.6.6 2.5.3 1.3-.4 2.5-1.2 3.4-2.4s1.6-2.7 2-4.4c.5.3 1 .6 1.4 1.1-.2 1.5-.9 3-2 4.7-.6.8-1.3 1.5-2.2 2.2-.9.7-1.9 1.1-3 1.4-1.8.5-3.3.3-4.6-.5-1.4-.9-2.3-2.2-2.8-4-.5-1.8-.2-3.6.8-5.3 1-1.7 2.4-2.8 4.3-3.3 1.4-.4 2.5-.4 3.5 0s1.6 1 1.9 2c.4 1.4.1 2.6-.7 3.7-.9 1.1-2.2 2.1-4 3l-.8-1.5c1.1-.4 1.8-1.1 2.1-1.9zM95 43.6l-.9-6c-.1-.5-.4-.8-.7-1.1-.3-.2-.8-.3-1.3-.2-.5.1-.9.5-1.2 1-.3.5-.4 1.2-.4 1.9.1 1 .4 2.5.6 4.5.3 2 .5 3.3.5 3.9l-3.5.9c-1.6-11.1-2.7-17.9-3.1-20.4.3-.2.8-.4 1.4-.6 1.4-.4 2.2-.2 2.4.7v.2c.4 2.8.8 5.3 1 7.5.7-1.1 1.6-1.8 2.8-2.1 1.2-.3 2.2-.3 3 .1.8.4 1.4 1.1 1.6 2 .1.2.1.7.2 1.4.3 2.7.5 4.3.6 4.8.2.8.6 1.2 1.1 1 .5-.1.9-.6 1.2-1.3.4-.7.5-1.8.5-3.1.8.5 1.3.9 1.5 1.2-.1 3.3-1.3 5.3-3.6 5.9-1.1.3-2 .2-2.7-.3-.4-.5-.8-1.2-1-1.9z"/><path class="st93" d="M107.1 35.8c.4-.8.5-1.5.3-2.1-.2-.6-.4-1-.8-1.1-.4-.1-.8-.1-1.2 0-.8.2-1.4.9-1.8 2-.4 1.1-.4 2.3 0 3.5.3 1.3.9 2.1 1.7 2.6.8.5 1.6.6 2.5.3 1.3-.4 2.5-1.2 3.4-2.4s1.6-2.7 2-4.4c.5.3 1 .6 1.4 1.1-.2 1.5-.9 3-2 4.7-.6.8-1.3 1.5-2.2 2.2-.9.7-1.9 1.1-3 1.4-1.8.5-3.3.3-4.6-.5-1.4-.9-2.3-2.2-2.8-4-.5-1.8-.2-3.6.8-5.3s2.4-2.8 4.3-3.3c1.4-.4 2.5-.4 3.5 0s1.6 1 1.9 2c.4 1.4.1 2.6-.7 3.7-.9 1.1-2.2 2.1-4 3l-.8-1.5c1-.4 1.7-1.1 2.1-1.9z"/><path class="st93" d="M119.2 30.4c-.2-.8-.7-1.1-1.4-.9-.7.2-1.2.8-1.3 1.8 2.3 1 3.7 2.4 4.2 4.3.4 1.4.3 2.5-.3 3.4s-1.4 1.5-2.6 1.8-2.1.2-2.8-.4c-.7-.6-1.2-1.4-1.5-2.5-.1-.3-.1-.6-.2-.7l-1.3-8.3c.6-.4 1.2-.6 1.8-.8 1.1-.3 1.7 0 1.9.8v.1c.5-1 1.3-1.7 2.3-2 .8-.2 1.5-.2 2 0s.9.7 1 1.3c.2.6.1 1.1-.3 1.6-.3.5-.9.8-1.6 1h-.1c.3-.2.3-.4.2-.5zm-2.6 2.9l.6 3.9c.2.7.6 1 1.2.9.8-.2 1-.9.7-2.2-.4-1-1.2-1.9-2.5-2.6zM130.2 29.6c.4-.8.5-1.5.3-2.1-.2-.6-.4-1-.8-1.1-.4-.1-.8-.1-1.2 0-.8.2-1.4.9-1.8 2-.4 1.1-.4 2.3 0 3.5.3 1.3.9 2.1 1.7 2.6.8.5 1.6.6 2.5.3 1.3-.4 2.5-1.2 3.4-2.4 1-1.2 1.6-2.7 2-4.4.5.3 1 .6 1.4 1.1-.2 1.5-.9 3-2 4.7-.6.8-1.3 1.5-2.2 2.2-.9.7-1.9 1.1-3 1.4-1.8.5-3.3.3-4.6-.5-1.4-.9-2.3-2.2-2.8-4-.5-1.8-.2-3.6.8-5.3 1-1.7 2.4-2.8 4.3-3.3 1.4-.4 2.5-.4 3.5 0s1.6 1 1.9 2c.4 1.4.1 2.6-.7 3.7-.9 1.1-2.2 2.1-4 3l-.8-1.5c1-.5 1.7-1.2 2.1-1.9zM134.4 12.7c.3-.3.9-.5 1.8-.8 1.7-.5 2.7-.3 2.9.5v.2l.5 14.7-2.8.8-2.4-15.4zm2.6 19.4c.3-.5.7-.9 1.3-1 .6-.2 1.2-.1 1.7.2.5.3.9.8 1 1.4.2.6.1 1.2-.2 1.7-.3.5-.8.9-1.4 1-.6.2-1.2.1-1.7-.2-.5-.3-.9-.8-1-1.3-.1-.7 0-1.3.3-1.8z"/><g><path class="st26" d="M42.3 67.6l2.3-.7 4.1 13.7 4.5-1.4.7 2.3-6.8 2.1-4.8-16zM49.9 65.3l6.8-2.1.6 2.2-4.5 1.4 1.4 4.7 4-1.2.6 2.2-4 1.2 1.4 4.7 4.5-1.4.7 2.3-6.8 2.1-4.7-16.1z"/><path class="st26" d="M59.7 64.7l-2.7.8-.6-2.2L64 61l.6 2.2-2.6.8 4.2 13.8-2.3.7-4.2-13.8zM64.2 61l2.3-.7.7 2.3-1.8 2.4-1.2-4zM76.6 62.3l-2.3.7-.2-.5c-.2-.5-.4-.9-.8-1.2-.3-.4-.8-.5-1.3-.3-.3.1-.6.2-.7.4-.2.2-.3.4-.3.6-.1.2-.1.5 0 .7 0 .3.1.5.2.8.1.3.2.6.3.8s.2.4.3.5c.1.1.3.2.5.3.2.1.5.1.8.1l2 .2c.6 0 1 .1 1.4.3.4.2.7.4 1 .7.3.3.5.7.7 1.1.2.4.4.9.6 1.5.2.7.3 1.3.4 1.9 0 .6 0 1.2-.2 1.7s-.5 1-.9 1.3-1 .7-1.8.9c-.6.2-1.1.2-1.6.2s-1-.2-1.5-.4c-.4-.2-.8-.6-1.2-1-.3-.4-.6-.9-.8-1.4l-.3-.9 2.3-.7.2.7c.1.4.4.8.7 1 .3.3.8.3 1.4.1.4-.1.7-.3.9-.4.2-.2.3-.4.4-.6.1-.2 0-.5 0-.8-.1-.3-.1-.6-.3-1-.1-.4-.2-.8-.4-1-.1-.3-.2-.5-.4-.6-.1-.1-.3-.2-.5-.3-.2-.1-.5-.1-.8-.1l-1.8-.2c-1.1-.1-1.9-.4-2.5-1-.5-.6-1-1.3-1.3-2.4-.2-.6-.3-1.2-.3-1.8s.1-1.1.3-1.6c.2-.5.5-.9.9-1.3s1-.7 1.6-.9c.6-.2 1.1-.2 1.7-.2.5.1 1 .2 1.5.5.4.2.8.5 1.1.9.3.4.5.8.7 1.2l.3 1.5zM90.8 66.5c.1.5.2 1 .1 1.5s-.2 1-.4 1.4c-.2.4-.5.8-.9 1.2-.4.3-.8.6-1.3.7-.4.1-.9.2-1.4.2-.5 0-1-.1-1.4-.3-.4-.2-.9-.5-1.2-.9-.4-.4-.7-1-.9-1.7l-2.7-8.8c-.2-.5-.2-1-.2-1.5s.2-1 .4-1.4c.2-.4.5-.8.9-1.1s.9-.6 1.4-.7c.5-.2 1-.2 1.5-.2.5.1 1 .2 1.4.4.4.2.8.6 1.1 1 .3.4.6.9.7 1.5l.3.9-2.3.7-.2-.8c-.1-.4-.4-.8-.7-1.1-.4-.3-.7-.3-1.2-.2-.6.2-.9.5-1 .9-.1.4 0 .9.1 1.4l2.5 8.2c.1.5.4.8.7 1.1.3.3.7.3 1.2.1.1 0 .3-.1.5-.2s.3-.2.4-.4.2-.4.2-.6c0-.2 0-.5-.1-.8l-.2-.8 2.3-.7.4 1zM88.2 53.7l2.3-.7 2.1 6.8 2.8-.9-2.1-6.8 2.3-.7 4.8 16-2.3.7-2.1-7-2.8.9 2.1 7.1-2.3.6-4.8-16zM99.6 50.3l1.9-.6 8.4 14.9-2.3.7-1.7-3.2-3.1.9.4 3.6-2.3.7-1.3-17zm2.4 4.3l.6 6.1 2.3-.7-2.9-5.4zM106.5 50.6l-2.6.8-.6-2.2 7.6-2.3.6 2.2-2.6.8 4.2 13.8-2.3.7-4.3-13.8zM111.3 46.8l2.9-.9 2.8 12.3-1.1.3-4.6-11.7zm4.4 13.6l2.3-.7.7 2.3-2.3.7-.7-2.3z"/></g></svg>