<svg version="1.1" id="Layer_1" xmlns="http://www.w3.org/2000/svg" x="0" y="0" viewBox="0 0 197.8 116.3" xml:space="preserve"><style>.st59{fill:#3d3c32}.st61{fill:#d86b27}</style><path class="st59" d="M196.3 71.4c7.3-31.3-12-62.5-43.3-69.9-31.3-7.3-62.5 12-69.9 43.3-7.3 31.3 12 62.5 43.3 69.9 31.2 7.4 62.5-12 69.9-43.3z"/><path d="M191.9 70.4c6.8-28.8-11.1-57.7-39.9-64.5C123.2-.9 94.3 17 87.5 45.8c-6.8 28.8 11.1 57.7 39.9 64.5 28.8 6.8 57.7-11.1 64.5-39.9z" fill="#f7e6c1"/><path class="st59" d="M100.4 83.9c-6.9-10.6-9.3-23.3-6.7-35.8 2.6-12.4 9.9-23.1 20.6-30 15.8-10.3 36.2-10.3 52 .1.4.3.5.8.3 1.3-.3.4-.8.5-1.3.3-15.2-10-34.8-10-50-.1-21.1 13.8-27.1 42.1-13.4 63.2C115.7 104 144 110 165.1 96.3c15.8-10.3 23.7-29.5 19.8-47.9-.1-.5.2-1 .7-1.1.5-.1 1 .2 1.1.7 2 9.3 1.2 18.9-2.4 27.8-3.7 9.1-9.9 16.7-18.1 22-10.6 6.9-23.3 9.3-35.8 6.7-12.4-2.7-23.1-10-30-20.6z"/><path class="st59" d="M128 107.8c-13.3-3.1-24.5-11.2-31.7-22.8-7.2-11.6-9.4-25.3-6.3-38.5 4.6-19.7 20.5-34.8 40.4-38.5.5-.1 1 .3 1.1.8.1.5-.3 1-.8 1.1-19.2 3.5-34.4 18.1-38.9 37-6.2 26.3 10.2 52.8 36.5 59 26.3 6.2 52.8-10.2 59-36.5 4.6-19.7-3.5-40.5-20.2-51.8-.4-.3-.6-.9-.3-1.4.3-.4.9-.6 1.4-.3 8.4 5.7 14.9 13.8 18.7 23.3 3.9 9.7 4.7 20.3 2.3 30.6-3.1 13.3-11.2 24.5-22.8 31.7-11.5 7.2-25.1 9.4-38.4 6.3z"/><path class="st61" d="M122.5 33.9l-.1.3c-1.9 5-3.1 8.1-3.6 9.2-.8 1.9-1.4 3.3-1.6 4.4-.2 1 .1 1.7.9 1.9.7.2 1.5-.2 2.4-1.1.8-.9 1.6-2.1 2.3-3.7 1.4-3.2 2.4-6 3-8.4.3-1.1.4-2.1.4-3 .8-.3 1.7-.3 2.7 0s1.3.9 1.1 2.1c-.4 1.8-1.4 4.5-2.9 8.1-1.2 3-2.4 5.1-3.6 6.3-.5.5-1.1 1-1.7 1.5-1.3.9-2.8 1.1-4.6.7-1.8-.4-2.9-1.5-3.2-3.2-1.3 1.3-3 1.7-5 1.2-1.3-.3-2.2-.9-2.7-1.8s-.6-2-.3-3.2c0-.2.1-.4.2-.7l2.8-7.2c-1.6-1.8-2.1-3.6-1.7-5.3.3-1.1.8-1.8 1.7-2.3.9-.5 1.9-.6 2.9-.3 2.3.6 3.2 2 2.6 4.3v.1s-.1.1-.1.2-.1.2-.1.4c-.1.1-.2.4-.3.6s-.2.6-.4 1c-.1.3-.3.8-.6 1.4-.2.6-.5 1.2-.8 1.9s-.6 1.5-1 2.5-.7 1.8-1 2.5-.5 1.2-.5 1.5c-.3 1.2 0 1.9.9 2.1 1.3.3 2.3-.7 3.2-2.9l4.9-12.9c.6-.1 1.4-.1 2.2.1 1.3.2 1.8.8 1.6 1.7zm-12.1-2.6c-.3-.1-.6 0-.8.2-.2.2-.4.5-.4.8-.2.8 0 1.7.7 2.8l.4-1c.2-.6.4-1.1.5-1.7.2-.6 0-1-.4-1.1zM134.1 48.5c.7-.5 1.1-1.1 1.3-1.7s.1-1.1-.2-1.4-.6-.5-1-.6c-.8-.2-1.7.1-2.5.9-.9.8-1.4 1.8-1.7 3.1-.3 1.3-.2 2.3.2 3.1.5.8 1.1 1.3 2 1.5 1.3.3 2.7.2 4.1-.5 1.4-.6 2.7-1.6 3.8-2.9.3.5.5 1 .7 1.6-.9 1.2-2.2 2.2-4 3.1-.9.4-1.9.7-3 .9-1.1.1-2.2.1-3.3-.2-1.8-.4-3-1.3-3.8-2.6-.8-1.4-1-3.1-.6-4.9.4-1.8 1.5-3.2 3.2-4.3 1.7-1 3.5-1.3 5.4-.8 1.4.3 2.4.9 3.1 1.7s.9 1.7.7 2.7c-.3 1.4-1.1 2.3-2.4 2.9-1.3.6-2.9.8-4.9.7v-1.7c1.3.1 2.2-.1 2.9-.6zM152.7 60.8c-1.6-.4-2.6-1.2-2.8-2.5-1.2.9-2.5 1.2-3.9.9s-2.5-1.1-3.3-2.3c-.7-1.2-.9-2.6-.5-4.2.6-2.3 1.7-4 3.4-5s3.6-1.3 5.7-.8h.2c.9.2 1.7.6 2.3 1 .5-.2 1.2-.2 1.8 0s1.1.4 1.4.6c-.5 1.3-1 2.5-1.4 3.7-.5 1.2-.8 2.1-1 2.6-.5 1.2-.7 2-.9 2.5-.2.7 0 1.1.6 1.3.4.1 1-.1 1.6-.5.6-.5 1.3-1.3 2-2.5.4.6.6 1.2.7 1.8-.9 1.6-1.9 2.6-2.9 3-1.2.5-2.1.6-3 .4zM151.1 49c-1.1-.3-2.1-.1-3 .6-.9.7-1.6 1.9-2.1 3.5-.1.2-.1.3-.1.4-.2.9-.2 1.6.1 2.2.3.6.8 1 1.4 1.2 1.1.3 2.1-.3 3.1-1.7l2-5.6c-.5-.3-.9-.5-1.4-.6z"/><path class="st61" d="M164.5 53.7c.2-.8-.1-1.3-.8-1.4-.7-.2-1.4.1-2 1 1.5 2 2.1 3.9 1.6 5.7-.3 1.4-1 2.3-1.9 2.8-.9.5-2 .6-3.1.4-1.1-.3-1.9-.8-2.3-1.7-.4-.8-.4-1.8-.1-2.9.1-.3.1-.6.2-.7L159 49c.7 0 1.3 0 2 .2 1.1.3 1.5.8 1.3 1.6v.1c.9-.7 1.9-.9 3-.6.8.2 1.4.5 1.7 1 .4.5.5 1 .3 1.6s-.5 1-1 1.3c-.5.3-1.2.3-1.9.1h-.1c.1-.2.1-.4.2-.6zm-3.8 1.3c-.9 2.5-1.4 3.7-1.4 3.7-.2.7 0 1.2.6 1.3.8.2 1.3-.3 1.6-1.6.3-1 .1-2.1-.8-3.4zM173.4 58c.7-.5 1.1-1.1 1.3-1.7.1-.6.1-1.1-.2-1.4-.3-.3-.6-.5-1-.6-.8-.2-1.7.1-2.5.9s-1.4 1.8-1.7 3.1c-.3 1.3-.2 2.3.2 3.1.5.8 1.1 1.3 2 1.5 1.3.3 2.7.2 4.1-.5 1.4-.6 2.7-1.6 3.8-2.9.3.5.5 1 .7 1.6-.9 1.2-2.2 2.2-4 3.1-.9.4-1.9.7-3 .9-1.1.1-2.2.1-3.3-.2-1.8-.4-3-1.3-3.8-2.6-.8-1.4-1-3.1-.6-4.9.4-1.8 1.5-3.2 3.2-4.3 1.7-1 3.5-1.3 5.4-.8 1.4.3 2.4.9 3.1 1.7.7.8.9 1.7.7 2.7-.3 1.4-1.1 2.3-2.4 2.9-1.3.6-2.9.8-4.9.7v-1.7c1.3.2 2.2-.1 2.9-.6zM119.2 72.2l2.1-5.7c.1-.5.1-.9-.1-1.3s-.5-.6-1.1-.8c-.5-.1-1.1 0-1.5.3-.5.3-.9.8-1.2 1.5-.4 1-.9 2.4-1.6 4.3-.7 1.9-1.2 3.1-1.4 3.7l-3.5-.9c3.9-10.5 6.3-16.9 7.1-19.4.4-.1.9 0 1.6.2 1.4.3 2 .9 1.8 1.7v.2c-1 2.7-1.9 5.1-2.7 7.1 1.1-.6 2.3-.8 3.5-.5 1.2.3 2 .8 2.6 1.6.5.8.7 1.6.5 2.5-.1.2-.2.7-.5 1.3-1 2.5-1.6 4-1.7 4.5-.2.8 0 1.3.5 1.4.5.1 1-.1 1.7-.6s1.3-1.3 1.9-2.5c.4.8.7 1.4.7 1.8-1.7 2.8-3.7 4-6 3.4-1.1-.3-1.8-.8-2.2-1.6-.6-.7-.7-1.5-.5-2.2z"/><path class="st61" d="M132.5 70.9c.7-.5 1.1-1.1 1.3-1.7s.1-1.1-.2-1.4c-.3-.3-.6-.5-1-.6-.8-.2-1.7.1-2.5.9-.9.8-1.4 1.8-1.7 3.1s-.2 2.3.2 3.1c.5.8 1.1 1.3 2 1.5 1.3.3 2.7.2 4.1-.5 1.4-.6 2.7-1.6 3.8-2.9.3.5.5 1 .7 1.6-.9 1.2-2.2 2.2-4 3.1-.9.4-1.9.7-3 .9-1.1.1-2.2.1-3.3-.2-1.8-.4-3-1.3-3.8-2.6-.8-1.4-1-3.1-.6-4.9.4-1.8 1.5-3.2 3.2-4.3 1.7-1 3.5-1.3 5.4-.8 1.4.3 2.4.9 3.1 1.7.7.8.9 1.7.7 2.7-.3 1.4-1.1 2.3-2.4 2.9-1.3.6-2.9.8-4.9.7v-1.7c1.3.2 2.2 0 2.9-.6z"/><path class="st61" d="M144.7 71.8c.2-.8-.1-1.3-.8-1.4s-1.4.1-2 1c1.5 2 2.1 3.9 1.6 5.7-.3 1.4-1 2.3-1.9 2.8-.9.5-2 .6-3.1.4-1.1-.3-1.9-.8-2.3-1.7-.4-.8-.4-1.8-.1-2.9.1-.3.1-.6.2-.7l2.9-7.8c.7 0 1.3 0 2 .2 1.1.3 1.5.8 1.3 1.6v.1c.9-.7 1.9-.9 3-.6.8.2 1.4.5 1.7 1s.5 1 .3 1.6c-.1.6-.5 1-1 1.3-.5.3-1.2.3-1.9.1h-.1c.1-.4.1-.6.2-.7zm-3.8 1.2c-.9 2.5-1.4 3.7-1.4 3.7-.2.7 0 1.2.6 1.3.8.2 1.3-.3 1.6-1.6.3-.9 0-2.1-.8-3.4zM153.6 76.1c.7-.5 1.1-1.1 1.3-1.7s.1-1.1-.2-1.4c-.3-.3-.6-.5-1-.6-.8-.2-1.7.1-2.5.9-.9.8-1.4 1.8-1.7 3.1-.3 1.3-.2 2.3.2 3.1.5.8 1.1 1.3 2 1.5 1.3.3 2.7.2 4.1-.5 1.4-.6 2.7-1.6 3.8-2.9.3.5.5 1 .7 1.6-.9 1.2-2.2 2.2-4 3.1-.9.4-1.9.7-3 .9-1.1.1-2.2.1-3.3-.2-1.8-.4-3-1.3-3.8-2.6-.8-1.4-1-3.1-.6-4.9s1.5-3.2 3.2-4.3c1.7-1 3.5-1.3 5.4-.8 1.4.3 2.4.9 3.1 1.7.7.8.9 1.7.7 2.7-.3 1.4-1.1 2.3-2.4 2.9-1.3.6-2.9.8-4.9.7v-1.7c1.3.1 2.2-.1 2.9-.6z"/><path class="st61" d="M157.3 81.3c.5-.3 1.1-.4 1.7-.3.6.1 1.1.5 1.4 1 .3.5.4 1.1.3 1.7s-.5 1.1-1 1.4-1.1.4-1.7.2c-.6-.1-1.1-.5-1.4-1-.3-.5-.4-1.1-.3-1.7s.5-1 1-1.3zm7-18.2c.4-.1 1 0 1.9.2 1.7.4 2.5 1 2.3 1.8 0 .1 0 .1-.1.2l-6.6 13.1-2.8-.7 5.3-14.6z"/><g><path class="st61" d="M.2 25.8h4.2V51h8.3v4.2H.2V25.8zM14.3 25.8h12.6v4h-8.3v8.6h7.3v4h-7.3V51h8.3v4.2H14.3V25.8z"/><path class="st61" d="M31.1 29.7h-4.9v-4h14v4h-4.9v25.4h-4.2V29.7zM40.5 25.8h4.2V30l-4.2 3v-7.2zM60.8 34.2h-4.2v-.9c0-1-.2-1.8-.7-2.5-.5-.7-1.2-1.1-2.3-1.1-.6 0-1.1.1-1.4.3s-.7.5-.9.8c-.2.3-.4.7-.4 1.2-.1.5-.1.9-.1 1.4 0 .6 0 1.1.1 1.5 0 .4.1.7.3 1s.4.5.7.8c.3.2.7.4 1.3.7l3.2 1.3c.9.4 1.7.8 2.3 1.3.6.5 1 1 1.3 1.7.3.6.5 1.4.6 2.2.1.8.2 1.8.2 2.9 0 1.2-.1 2.4-.4 3.4-.2 1.1-.7 2-1.2 2.7-.6.8-1.3 1.4-2.2 1.8-.9.4-2.1.7-3.4.7-1 0-2-.2-2.8-.5-.9-.4-1.6-.8-2.3-1.5-.6-.6-1.1-1.4-1.5-2.2-.4-.9-.6-1.8-.6-2.8v-1.6h4.2v1.3c0 .8.2 1.5.7 2.1.5.6 1.2.9 2.3.9.7 0 1.3-.1 1.7-.3.4-.2.7-.5.9-.9.2-.4.3-.8.4-1.4.1-.6.1-1.2.1-1.8 0-.8 0-1.4-.1-1.9s-.2-.9-.4-1.2c-.2-.3-.4-.5-.7-.7-.3-.2-.7-.4-1.3-.6l-3-1.2c-1.8-.7-3-1.7-3.7-3-.6-1.2-.9-2.8-.9-4.6 0-1.1.2-2.1.5-3.1s.7-1.8 1.3-2.6c.6-.7 1.3-1.3 2.2-1.7s2-.6 3.2-.6a7.173 7.173 0 015.1 2.1c.6.6 1.1 1.3 1.4 2.1.3.8.5 1.6.5 2.4v2.1zM13.6 79.9c0 .9-.2 1.8-.5 2.6s-.8 1.5-1.4 2.2c-.6.6-1.3 1.1-2.1 1.5-.8.4-1.7.6-2.6.6-.8 0-1.6-.1-2.4-.3-.8-.2-1.6-.6-2.2-1.1-.7-.5-1.2-1.2-1.6-2.1S0 81.1 0 79.8V63.6c0-1 .2-1.9.5-2.7.3-.8.8-1.5 1.4-2.1.6-.6 1.3-1.1 2.2-1.4.8-.3 1.8-.5 2.8-.5 1 0 1.9.2 2.7.5.8.3 1.5.8 2.1 1.4.6.6 1.1 1.4 1.4 2.2.3.9.5 1.8.5 2.8v1.7H9.4v-1.4c0-.8-.2-1.5-.7-2.1-.5-.6-1.1-.9-1.9-.9-1 0-1.7.3-2.1 1-.3.6-.5 1.5-.5 2.5v15c0 .9.2 1.6.6 2.1s1 .9 2 .9c.3 0 .6 0 .9-.1s.6-.3.9-.5c.2-.3.4-.6.6-1 .2-.4.2-.9.2-1.4v-1.4h4.2v1.7zM15.8 57.1H20v12.6h5.2V57.1h4.2v29.4h-4.2V73.4H20v13.1h-4.2V57.1zM36.8 57.1h3.5l6.6 29.4h-4.2l-1.2-6.3h-5.7l-1.2 6.3h-4.2l6.4-29.4zm1.8 8.5l-2.1 10.7h4.2l-2.1-10.7zM48.2 61.1h-4.9v-4h14v4h-4.9v25.4h-4.2V61.1zM58.2 57.1h5.3l-1.6 22.1h-2.1l-1.6-22.1zm.6 25.2H63v4.2h-4.2v-4.2z"/></g><g><path class="st59" d="M175 69.2l.6 2.4 2.3.9-2.1 1.3-.2 2.4-1.8-1.6-2.4.6.9-2.2-1.3-2.1 2.5.2zM104 52.5l.5 2.4 2.3.9-2.1 1.3-.2 2.4-1.8-1.6-2.4.6 1-2.2-1.3-2.1 2.4.2z"/></g></svg>