<svg version="1.1" id="Layer_1" xmlns="http://www.w3.org/2000/svg" x="0" y="0" viewBox="0 0 232.1 98.4" xml:space="preserve"><style>.st93{fill:#edb326}</style><path class="st93" d="M68.4 98.2c-6.6.9-12-.9-15.3-4.9-7.8-9.6-48.9-59.8-49.8-61-.8-.9-4.4-5.6-2.9-9.9.6-1.7 2.1-3.8 6.2-4.6H6.9L223.9 0h.3c.4 0 3.6.1 5.9 3 2.1 2.6 2.6 6.4 1.5 11.3-2.2 10.4-10.8 44.7-11.1 46.2v.1c-.1.3-2.5 8.3-12.4 10.3-8 1.6-130.3 25.5-135.6 26.5-.6.1-2.1.6-4.1.8z"/><path d="M7.1 20.8l217-17.7s6.7.1 4.5 10.6c-2.3 10.5-11.1 46.1-11.1 46.1s-1.8 6.5-10 8.2c-8.2 1.7-135.7 26.5-135.7 26.5s-10.9 3.6-16.2-3c-8-9.7-49.9-61-49.9-61s-6.8-8 1.4-9.7z" fill="#3b3a31"/><path class="st93" d="M193.4 55.8s-57 6.4-105.3 27.5c19-6.8 70.9-19.8 105.3-27.5z"/><path d="M222.3 24.3l3.5-16.5s.2-1.7-1.7-1.7-13.9 1.1-13.9 1.1l12.7.1s2-.3 1.3 2.8c-.5 2.4-1.6 12.4-1.9 14.2z" fill="#7f8080"/><path class="st93" d="M62.8 39.3v11.4c-.1 2.3-.1 4 .1 5.2.2 1.2.7 1.7 1.7 1.5.8-.1 1.5-.8 2-2.1s.8-2.9.9-4.7c.2-3.8.1-7.1-.3-9.9-.2-1.3-.4-2.4-.8-3.3.7-.6 1.7-1 2.8-1.1 1.1-.1 1.8.4 1.9 1.7.3 2.1.4 5.2.3 9.5 0 3.6-.4 6.2-1.1 8-.3.8-.7 1.5-1.2 2.2-.9 1.4-2.4 2.3-4.4 2.6-2 .3-3.5-.4-4.6-2-.9 1.9-2.4 2.9-4.6 3.2-1.4.2-2.6-.1-3.5-.8-.9-.7-1.4-1.8-1.6-3.1v-9.4c-2.3-1.2-3.6-2.8-3.9-4.7-.2-1.2.1-2.2.9-3.1.7-.8 1.7-1.3 2.9-1.5 2.6-.4 4.1.8 4.4 3.4V55c0 .8 0 1.4.1 1.8.2 1.3.8 1.9 1.8 1.8 1.4-.2 2.1-1.6 2.1-4.3l-.1-15.4c.6-.4 1.4-.6 2.3-.8 1-.2 1.7.3 1.9 1.2zm-13.5 2.2c-.4.1-.6.2-.8.5-.1.3-.2.6-.1 1 .1.9.7 1.8 1.9 2.6v-1.2c0-.7-.1-1.3-.1-2-.2-.6-.5-.9-.9-.9zM81.8 49.5c.5-.8.7-1.6.6-2.3s-.3-1.1-.7-1.3c-.4-.2-.8-.3-1.3-.2-.9.1-1.7.8-2.3 1.9-.6 1.1-.8 2.4-.6 3.9.2 1.4.7 2.5 1.5 3.1.8.6 1.7.9 2.7.7 1.5-.2 2.9-.9 4.1-2.1s2.2-2.7 2.8-4.5c.5.4 1 .8 1.4 1.4-.5 1.6-1.4 3.2-2.9 4.9-.7.8-1.7 1.5-2.7 2.1-1.1.6-2.2 1-3.5 1.1-2 .3-3.6-.1-5-1.2-1.4-1.1-2.3-2.8-2.5-4.8s.3-3.9 1.6-5.7c1.3-1.7 3.1-2.8 5.2-3 1.5-.2 2.8 0 3.9.5 1 .5 1.7 1.4 1.8 2.5.2 1.5-.2 2.9-1.3 4s-2.7 2-4.8 2.7l-.7-1.7c1.3-.5 2.2-1.1 2.7-2zM108.4 54.4c-1.8.2-3.1-.2-3.9-1.4-.9 1.4-2.1 2.3-3.7 2.5-1.6.2-3.1-.1-4.3-1.1-1.3-.9-2-2.3-2.2-4.1-.4-2.6.1-4.8 1.5-6.6 1.3-1.8 3.2-2.8 5.5-3.1h.2c1-.1 1.9-.1 2.8.1.5-.4 1.1-.7 1.9-.8.8-.1 1.3-.1 1.7.1v7.5c0 1.4 0 2.4.1 3 .1.8.5 1.2 1.1 1.1.5-.1 1-.5 1.4-1.2.5-.7.8-1.9 1-3.3.6.4 1.1 1 1.4 1.6-.3 2-.9 3.4-1.8 4.3-.8.8-1.7 1.3-2.7 1.4zM102 42.9c-1.3.2-2.2.8-2.8 1.9s-.9 2.6-.7 4.5v.5c.1 1 .5 1.7 1 2.2.5.5 1.2.7 1.9.6 1.3-.2 2.1-1.2 2.5-3l-.2-6.6c-.6-.1-1.2-.2-1.7-.1z"/><path class="st93" d="M118.9 42.2c-.1-.9-.6-1.3-1.4-1.2-.8.1-1.4.7-1.7 1.8 2.4 1.4 3.7 3.2 4 5.3.2 1.5-.1 2.8-.8 3.7-.8.9-1.8 1.5-3.1 1.6-1.3.2-2.3-.1-3-.8-.7-.7-1.1-1.7-1.3-2.9-.1-.4-.1-.7-.1-.8l-.2-9.3c.7-.3 1.4-.5 2.1-.6 1.2-.2 1.9.2 2 1.1v.1c.7-1 1.6-1.6 2.9-1.8.9-.1 1.6 0 2.2.3.6.3.9.9 1 1.5.1.7-.1 1.3-.5 1.8-.5.5-1.1.8-1.9.9h-.1c-.1-.2-.1-.5-.1-.7zm-3.4 2.9v4.4c.1.8.5 1.2 1.2 1.1.9-.1 1.2-.9 1-2.3-.1-1.2-.8-2.2-2.2-3.2zM131 42.9c.5-.8.7-1.6.6-2.3s-.3-1.1-.7-1.3c-.4-.2-.8-.3-1.3-.2-.9.1-1.7.8-2.3 1.9-.6 1.1-.8 2.4-.6 3.9.2 1.4.7 2.5 1.5 3.1.8.6 1.7.9 2.7.7 1.5-.2 2.9-.9 4.1-2.1s2.2-2.7 2.8-4.5c.5.4 1 .8 1.4 1.4-.5 1.6-1.4 3.2-2.9 4.9-.7.8-1.7 1.5-2.7 2.1-1.1.6-2.2 1-3.5 1.1-2 .3-3.6-.1-5-1.2-1.4-1.1-2.3-2.8-2.5-4.8-.3-2.1.3-3.9 1.6-5.7 1.3-1.7 3.1-2.8 5.2-3 1.5-.2 2.8 0 3.9.5 1 .5 1.7 1.4 1.8 2.5.2 1.5-.2 2.9-1.3 4s-2.7 2-4.8 2.7l-.7-1.7c1.3-.5 2.2-1.2 2.7-2zM152 45l-.2-6.7c-.1-.5-.3-1-.6-1.3-.3-.3-.8-.4-1.4-.4s-1.1.4-1.5.9c-.4.5-.6 1.2-.7 2.1V49l-4 .5c-.2-12.4-.4-20-.4-22.9.4-.2 1-.4 1.7-.5 1.6-.2 2.4.1 2.5 1.1v.2c.1 3.2.1 6 0 8.4.9-1.1 2.1-1.7 3.4-1.9s2.4 0 3.3.6c.9.6 1.4 1.4 1.5 2.4v1.6c-.1 3.1 0 4.8 0 5.4.1.9.5 1.4 1.1 1.3.5-.1 1-.5 1.5-1.3s.8-1.9 1-3.4c.8.6 1.3 1.1 1.5 1.5-.6 3.6-2.2 5.6-4.8 5.9-1.2.2-2.2-.1-2.9-.8-.5-.5-.9-1.3-1-2.1z"/><path class="st93" d="M166.4 38.2c.5-.8.7-1.6.6-2.3-.1-.7-.3-1.1-.7-1.3-.4-.2-.8-.3-1.3-.2-.9.1-1.7.8-2.3 1.9-.6 1.1-.8 2.4-.6 3.9.2 1.4.7 2.5 1.5 3.1.8.6 1.7.9 2.7.7 1.5-.2 2.9-.9 4.1-2.1 1.2-1.2 2.2-2.7 2.8-4.5.5.4 1 .8 1.4 1.4-.5 1.6-1.4 3.2-2.9 4.9-.7.8-1.7 1.5-2.7 2.1-1.1.6-2.2 1-3.5 1.1-2 .3-3.6-.1-5-1.2-1.4-1.1-2.3-2.8-2.5-4.8s.3-3.9 1.6-5.7c1.3-1.7 3.1-2.8 5.2-3 1.5-.2 2.8 0 3.9.5 1 .5 1.7 1.4 1.8 2.5.2 1.5-.2 2.9-1.3 4s-2.7 2-4.8 2.7l-.7-1.7c1.3-.6 2.1-1.2 2.7-2z"/><path class="st93" d="M180.5 34c-.1-.9-.6-1.3-1.4-1.2s-1.4.7-1.7 1.8c2.4 1.4 3.7 3.2 4 5.3.2 1.5-.1 2.8-.8 3.7-.8.9-1.8 1.5-3.1 1.6-1.3.2-2.3-.1-3-.8-.7-.7-1.1-1.7-1.3-2.9-.1-.4-.1-.7-.1-.8l-.2-9.3c.7-.3 1.4-.5 2.1-.6 1.2-.2 1.9.2 2 1.1v.1c.7-1 1.6-1.6 2.9-1.8.9-.1 1.6 0 2.2.3.6.3.9.9 1 1.5.1.7-.1 1.3-.5 1.8-.5.5-1.1.8-1.9.9h-.1c-.1-.3-.1-.5-.1-.7zm-3.4 2.8v4.4c.1.8.5 1.2 1.2 1.1.9-.1 1.2-.9 1-2.3-.1-1.2-.8-2.2-2.2-3.2zM192.6 34.6c.5-.8.7-1.6.6-2.3-.1-.7-.3-1.1-.7-1.3-.4-.2-.8-.3-1.3-.2-.9.1-1.7.8-2.3 1.9-.6 1.1-.8 2.4-.6 3.9.2 1.4.7 2.5 1.5 3.1.8.6 1.7.9 2.7.7 1.5-.2 2.9-.9 4.1-2.1 1.2-1.2 2.2-2.7 2.8-4.5.5.4 1 .8 1.4 1.4-.5 1.6-1.4 3.2-2.9 4.9-.7.8-1.7 1.5-2.7 2.1-1.1.6-2.2 1-3.5 1.1-2 .3-3.6-.1-5-1.2-1.4-1.1-2.3-2.8-2.5-4.8-.3-2.1.3-4 1.6-5.7 1.3-1.7 3.1-2.8 5.2-3 1.5-.2 2.8 0 3.9.5 1 .5 1.7 1.4 1.8 2.5.2 1.5-.2 2.9-1.3 4s-2.7 2-4.8 2.7l-.7-1.7c1.3-.5 2.2-1.1 2.7-2zM199.7 38.4c.4-.5.9-.9 1.6-.9.7-.1 1.3.1 1.8.5s.9 1 1 1.6c.1.7-.1 1.3-.5 1.8s-1 .8-1.6.9c-.7.1-1.3-.1-1.8-.5s-.8-.9-.9-1.6c-.2-.7 0-1.3.4-1.8zm-.1-21.7c.4-.3 1.1-.4 2.1-.6 2-.3 3 .1 3.1 1v.3l-1.6 16.2-3.2.4-.4-17.3z"/></svg>