<svg version="1.1" id="Layer_1" xmlns="http://www.w3.org/2000/svg" x="0" y="0" viewBox="0 0 210.5 94.5" xml:space="preserve"><style>.st35{fill:#1c3236}.st289{fill:#ffcd01}</style><path d="M23.8 29.5l78.3 23.2 74.7 14.4-52.3-27.7s.7.7-15.1-1.8c-54.2-8.5-85.6-8.1-85.6-8.1z" fill="#3b3a31"/><path class="st289" d="M194 29.7s-27.2-8.1-70.8-16.9C79.5 4 28.4 0 28.4 0l-4.5 29.5S81.4 34 118 41.8c36.6 7.8 70.4 16.5 70.4 16.5l5.6-28.6z"/><path class="st289" d="M204.5 66l-3.7-14 9.7-8-16.5-4.4-3.1 20.2-12.3.2zM20.2 50.5l-17-.8 8.4 10.9L0 73.6l35.3 4.2-18.1-6.1z"/><path class="st289" d="M19.6 69.3s33.3 2.1 82.9 10.7c58.6 10.1 79.7 14.6 79.7 14.6l4.1-25.9s-12.5-3.2-68.3-14.3c-36.7-7.3-93.9-14.2-93.9-14.2l-4.5 29.1z"/><path class="st35" d="M60 29l-2.8-.5V14.7h-.1l-4.5 13-2.8-.5.4-21.1 3.1.5-.6 13.4h.1l4.5-12.7 2.3.4.1 13.8h.1l3.7-13.2 3.1.5L60 29zM68.2 9.2l8.8 1.5-.5 2.8-5.9-1-1 6.1 5.1.9-.5 2.8-5.1-.9-1 6.1 5.9 1-.5 3-8.8-1.5 3.5-20.8zM87 12.3l2.5.4 1.1 21.4-3-.5-.1-4.6-4-.7-1.6 4.3-3-.5L87 12.3zm.2 6.2l-2.8 7.2 3 .5-.2-7.7zM95.2 13.7l4.8.8c3.5.6 4.9 2.9 4.2 6.9-.2 1.2-.6 2.2-1.1 3s-1.3 1.4-2.3 1.7l1.6 10-3.1-.5-1.3-9.3-1.8-.3-1.5 8.8-3-.5 3.5-20.6zm1.4 9.8l1.7.3c.5.1.9.1 1.3 0 .3-.1.6-.3.8-.5.2-.2.4-.6.5-.9s.2-.8.3-1.4c.1-.5.1-1 .1-1.4 0-.4-.1-.8-.2-1.1-.1-.3-.4-.6-.7-.8-.3-.2-.7-.3-1.3-.4l-1.4-.3-1.1 6.5zM107.3 15.8l8.8 1.5-.5 2.8-5.9-1-1 6.1 5.1.9-.5 2.8-5.1-.9-1 6.1 5.9 1-.5 3-8.8-1.5 3.5-20.8zM122.8 18.4l3 .5-1.5 8.8 3.7.6 1.5-8.8 3 .5-3.5 20.6-3-.5 1.6-9.2-3.7-.6-1.6 9.2-3-.5 3.5-20.6zM134.8 20.5l8.8 1.5-.5 2.8-5.9-1-1 6.1 5.1.9-.5 2.8-5.1-.9-1 6.1 5.9 1-.5 3-8.8-1.5 3.5-20.8zM145.3 22.3l4.8.8c3.5.6 4.9 2.9 4.2 6.9-.2 1.2-.6 2.2-1.1 3-.5.8-1.3 1.4-2.3 1.7l1.6 10-3.1-.5-1.3-9.3-1.8-.3-1.5 8.8-3-.5 3.5-20.6zm1.4 9.7l1.7.3c.5.1.9.1 1.3 0 .3-.1.6-.3.8-.5.2-.2.4-.6.5-.9s.2-.8.3-1.4c.1-.5.1-1 .1-1.4 0-.4-.1-.8-.2-1.1-.1-.3-.4-.6-.7-.8-.3-.2-.7-.3-1.3-.4l-1.5-.3-1 6.5zM157.3 24.3l8.8 1.5-.5 2.8-5.9-1-1 6.1 5.1.9-.5 2.8-5.1-.9-1 6.1 5.9 1-.5 3-8.8-1.5 3.5-20.8zM165.3 43.9l3 .5-.5 3-3-.5.5-3zm2.7-17.8l3.7.6-3.8 15.3-1.4-.2 1.5-15.7z"/><g><path class="st35" d="M54.6 48.4l3 .5-2.8 17.7 5.9.9-.5 3-8.9-1.5 3.3-20.6zM65 50l8.8 1.4-.4 2.8-5.9-.9-1 6.1 5.1.8-.4 2.8-5.1-.8-1 6.1 5.9.9-.5 3-8.8-1.4L65 50zM77 54.8l-3.4-.5.4-2.8 9.8 1.6-.4 2.8-3.4-.6-2.9 17.9-3-.5L77 54.8zM84.7 53.2l3 .5-.5 3-3.3 1.7.8-5.2zM98.6 61.5l-3-.5.1-.7c.1-.7 0-1.3-.2-1.8s-.7-.9-1.5-1c-.4-.1-.8 0-1 .1-.3.1-.5.3-.7.5-.2.2-.3.5-.4.8-.1.3-.2.6-.2 1-.1.4-.1.8-.1 1 0 .3 0 .5.1.8s.2.4.4.6c.2.2.5.4.8.6l2.1 1.3c.6.4 1.1.7 1.5 1.1.4.4.6.9.8 1.3.1.5.2 1 .2 1.6 0 .6-.1 1.3-.2 2-.1.9-.4 1.7-.6 2.4-.3.7-.7 1.3-1.2 1.8s-1.1.8-1.8 1c-.7.2-1.5.2-2.5.1-.7-.1-1.4-.3-1.9-.7s-1.1-.8-1.4-1.3c-.4-.5-.6-1.1-.8-1.7-.2-.6-.2-1.3-.1-2l.2-1.1 3 .5-.1.9c-.1.5 0 1.1.2 1.5.2.5.8.8 1.5.9.5.1.9.1 1.2 0s.5-.3.7-.5.3-.5.4-.9c.1-.4.2-.8.3-1.3.1-.5.1-1 .2-1.3s0-.6-.1-.9c-.1-.2-.2-.4-.4-.6-.2-.2-.5-.4-.8-.6l-2-1.2c-1.2-.7-1.9-1.6-2.2-2.5s-.3-2-.1-3.3c.1-.8.3-1.5.7-2.2s.7-1.2 1.2-1.6c.5-.4 1.1-.8 1.8-.9s1.5-.2 2.3-.1c.7.1 1.4.4 2 .7.6.4 1 .8 1.4 1.3.4.5.6 1.1.8 1.7.1.6.2 1.2.1 1.8l-.7 1.4zM113.4 74.3c-.1.6-.3 1.2-.7 1.8-.3.5-.8 1-1.2 1.4-.5.4-1.1.6-1.7.8-.6.2-1.2.2-1.9.1-.6-.1-1.1-.3-1.7-.5-.6-.2-1-.6-1.4-1s-.7-1-.9-1.7c-.2-.7-.2-1.5-.1-2.4l1.8-11.4c.1-.7.3-1.3.7-1.8.3-.5.7-1 1.2-1.3.5-.4 1.1-.6 1.7-.8.6-.1 1.3-.2 2 0 .7.1 1.3.3 1.8.7s1 .8 1.3 1.3c.4.5.6 1.1.7 1.7.1.6.2 1.3 0 2l-.2 1.2-3-.5.2-1c.1-.6 0-1.1-.3-1.6s-.7-.8-1.2-.9c-.7-.1-1.3 0-1.6.4-.3.4-.5 1-.6 1.7l-1.7 10.6c-.1.6 0 1.1.1 1.6.2.4.6.7 1.3.8h.6c.2 0 .5-.1.7-.2.2-.1.4-.3.6-.6.2-.3.3-.6.3-1l.2-1 3 .5v1.1zM118.1 58.6l3 .5-1.4 8.8 3.7.6 1.4-8.8 3 .5-3.3 20.7-3-.5 1.5-9.2-3.7-.6-1.5 9.2-3-.5 3.3-20.7zM133.4 61l2.5.4 1.3 21.4-3-.5-.2-4.6-4-.6-1.6 4.3-3-.5 8-19.9zm.3 6.2l-2.7 7.2 3 .5-.3-7.7zM141.5 65.2l-3.4-.5.4-2.8 9.8 1.6-.4 2.8-3.4-.6-2.9 17.9-3-.5 2.9-17.9zM147.1 81.4l3 .5-.5 3-3-.5.5-3zm2.5-17.8l3.7.6-3.6 15.4-1.5-.2 1.4-15.8z"/></g></svg>