<svg version="1.1" id="Layer_1" xmlns="http://www.w3.org/2000/svg" x="0" y="0" viewBox="0 0 131.5 107.3" xml:space="preserve"><style>.st213{fill:#3b3a31}.st289{fill:#ffcd01}.st295{fill:#1d1d1b}</style><path class="st213" d="M50.6 11.4c-.1-.2-.4-.3-.6-.2-.2.1-.3.4-.2.6.1.2.4.3.6.2.2-.1.3-.4.2-.6zM47 13c-.1-.2-.4-.3-.6-.1-.2.1-.3.4-.1.6.1.2.4.3.6.1.1-.1.2-.4.1-.6zM43.5 14.9c-.1-.2-.4-.2-.6-.1-.2.1-.2.4-.1.6.1.2.4.2.6.1.2-.1.2-.4.1-.6zM40.2 17.1c-.2-.2-.4-.2-.6 0-.2.2-.2.4 0 .6.2.2.4.2.6 0 .1-.1.1-.4 0-.6zM37.1 19.6c-.2-.2-.4-.2-.6 0-.2.2-.2.4 0 .6.2.2.4.2.6 0 .1-.2.1-.4 0-.6zM34.2 22.4c-.2-.1-.4-.1-.6.1-.1.2-.1.4.1.6.2.1.4.1.6-.1.1-.2.1-.5-.1-.6zM31.6 25.3c-.2-.1-.5-.1-.6.1-.1.2-.1.5.1.6.2.1.4.1.6-.1.1-.2.1-.4-.1-.6zM29.2 28.5c-.2-.1-.5 0-.6.2-.1.2 0 .5.2.6.2.1.5 0 .6-.2.1-.2 0-.4-.2-.6zM27.2 31.9c-.2-.1-.5 0-.5.2-.1.2 0 .5.2.6.2.1.5 0 .5-.2.1-.2 0-.5-.2-.6zM25.4 35.5c-.2-.1-.5 0-.5.3-.1.2 0 .5.3.5.2.1.5 0 .5-.3.1-.2-.1-.4-.3-.5zM24 39.2c-.2-.1-.5.1-.5.3-.1.2.1.5.3.5.2.1.4-.1.5-.3 0-.2-.1-.4-.3-.5zM22.9 43c-.2 0-.4.1-.5.3 0 .2.1.4.3.5.2 0 .4-.1.5-.3.1-.2-.1-.5-.3-.5zM22.1 46.9c-.2 0-.4.2-.4.4s.2.4.4.4.4-.2.4-.4-.2-.4-.4-.4zM21.7 50.9c-.2 0-.4.2-.4.4s.2.4.4.4.4-.2.4-.4c0-.3-.2-.5-.4-.4zM21.6 54.8c-.2 0-.4.2-.4.5 0 .2.2.4.5.4.2 0 .4-.2.4-.5-.1-.2-.3-.4-.5-.4zM21.8 58.8c-.2 0-.4.3-.3.5 0 .2.3.4.5.3.2 0 .4-.3.3-.5 0-.2-.2-.4-.5-.3zM22.5 62.7c-.2.1-.3.3-.3.5.1.2.3.3.5.3.2-.1.3-.3.3-.5-.1-.2-.3-.4-.5-.3zM23.4 66.6c-.2.1-.3.3-.2.5.1.2.3.3.5.2.2-.1.3-.3.2-.5 0-.2-.3-.3-.5-.2zM35.6 86.7c-.1.2-.1.4.1.6.2.1.4.1.6-.1.1-.2.1-.4-.1-.6-.2-.1-.4-.1-.6.1zM38.6 89.3c-.1.2-.1.5.1.6.2.1.4.1.6-.1.1-.2.1-.5-.1-.6-.2-.1-.5-.1-.6.1zM41.8 91.7c-.1.2 0 .5.2.6.2.1.5 0 .6-.2.1-.2 0-.5-.2-.6-.2-.1-.5 0-.6.2zM45.2 93.7c-.1.2 0 .5.2.5.2.1.5 0 .6-.2.1-.2 0-.5-.2-.5-.3-.1-.5 0-.6.2zM48.8 95.5c-.1.2 0 .5.3.5.2.1.5 0 .5-.3.1-.2 0-.5-.3-.5-.2 0-.5.1-.5.3zM52.5 96.9c-.1.2.1.5.3.5.2.1.5-.1.5-.3.1-.2-.1-.4-.3-.5-.3 0-.5.1-.5.3zM56.3 98c0 .2.1.4.4.5.2 0 .4-.1.5-.3 0-.2-.1-.4-.4-.5-.3 0-.5.1-.5.3zM60.2 98.8c0 .2.2.4.4.4s.4-.2.4-.4-.2-.4-.4-.4-.4.2-.4.4zM64.1 99.2c0 .2.2.4.4.4s.4-.2.4-.4-.2-.4-.4-.4-.4.2-.4.4zM68.1 99.3c0 .2.2.4.5.4.2 0 .4-.2.4-.5 0-.2-.2-.4-.5-.4-.3.1-.4.3-.4.5zM72.1 99.1c0 .2.3.4.5.3.2 0 .4-.3.3-.5 0-.2-.3-.4-.5-.3-.2 0-.4.2-.3.5zM76 98.5c.1.2.3.3.5.3.2-.1.3-.3.3-.5-.1-.2-.3-.3-.5-.3-.3 0-.4.2-.3.5zM79.8 97.5c.1.2.3.3.5.2.2-.1.3-.3.2-.5-.1-.2-.3-.3-.5-.2-.1.1-.2.3-.2.5zM83.6 96.2c.1.2.4.3.6.2.2-.1.3-.4.2-.6-.1-.2-.4-.3-.6-.2-.2.2-.3.4-.2.6zM87.2 94.6c.1.2.4.3.6.1.2-.1.3-.4.1-.6-.1-.2-.4-.3-.6-.1-.1.2-.2.4-.1.6zM90.7 92.7c.1.2.4.2.6.1.2-.1.2-.4.1-.6-.1-.2-.4-.2-.6-.1-.2.2-.2.4-.1.6zM94 90.5c.2.2.4.2.6 0 .2-.2.2-.4 0-.6-.2-.2-.4-.2-.6 0-.1.2-.1.5 0 .6zM97.1 88c.2.2.4.1.6 0 .2-.2.2-.4 0-.6-.2-.2-.4-.2-.6 0-.2.2-.2.5 0 .6zM100 85.3c.2.1.4.1.6-.1.1-.2.1-.4-.1-.6-.2-.1-.4-.1-.6.1-.1.2-.1.4.1.6zM102.6 82.3c.2.1.5.1.6-.1.1-.2.1-.4-.1-.6-.2-.1-.5-.1-.6.1-.2.2-.1.5.1.6zM104.9 79.1c.2.1.5 0 .6-.2.1-.2 0-.5-.2-.6-.2-.1-.5 0-.6.2 0 .2 0 .5.2.6zM107 75.7c.2.1.5 0 .5-.2.1-.2 0-.5-.2-.5-.2-.1-.5 0-.5.2-.1.2 0 .4.2.5zM108.8 72.1c.2.1.5 0 .5-.3.1-.2 0-.5-.3-.5-.2-.1-.5 0-.5.3-.1.2 0 .5.3.5zM110.2 68.4c.2.1.4-.1.5-.3.1-.2-.1-.4-.3-.5-.2-.1-.4.1-.5.3-.1.3.1.5.3.5zM111.3 64.6c.2 0 .4-.1.5-.4 0-.2-.1-.4-.4-.5-.2 0-.4.1-.5.3 0 .4.2.6.4.6zM112.1 60.7c.2 0 .4-.2.4-.4s-.2-.4-.4-.4-.4.2-.4.4.1.4.4.4zM112.5 56.8c.2 0 .4-.2.4-.4s-.2-.4-.4-.4-.4.2-.4.4.2.4.4.4zM112.6 52.8c.2 0 .4-.2.4-.5 0-.2-.2-.4-.5-.4-.2 0-.4.2-.4.5.1.3.3.4.5.4zM112.3 48.9c.2 0 .4-.3.3-.5 0-.2-.3-.4-.5-.3-.2 0-.4.3-.3.5.1.2.3.3.5.3zM101.3 23.8c.2-.2.2-.4 0-.6-.2-.2-.4-.2-.6 0-.2.2-.2.4 0 .6.2.2.4.2.6 0zM98.6 20.9c.1-.2.1-.4-.1-.6-.2-.1-.4-.1-.6.1-.1.2-.1.4.1.6.1.1.4.1.6-.1zM95.6 18.3c.1-.2.1-.5-.1-.6-.2-.1-.4-.1-.6.1-.1.2-.1.5.1.6.2.2.4.1.6-.1zM92.4 16c.1-.2 0-.5-.2-.6-.2-.1-.5 0-.6.2-.1.2 0 .5.2.6.2 0 .5 0 .6-.2zM89 13.9c.1-.2 0-.5-.2-.6-.2-.1-.5 0-.5.2-.1.2 0 .5.2.5.1.2.4.1.5-.1zM85.4 12.2c.1-.2 0-.5-.3-.5-.2-.1-.5 0-.5.3-.1.2 0 .5.3.5.2 0 .4-.1.5-.3zM81.7 10.7c.1-.2-.1-.4-.3-.5-.2-.1-.4.1-.5.3-.1.2.1.5.3.5.2.1.5-.1.5-.3zM77.9 9.6c0-.2-.1-.4-.4-.5-.2 0-.4.1-.5.3 0 .2.1.4.3.5.4.1.6-.1.6-.3zM74 8.8c0-.2-.2-.4-.4-.4s-.4.2-.4.4.2.4.4.4.4-.1.4-.4zM70.1 8.4c0-.2-.2-.4-.4-.4s-.4.2-.4.4.2.4.4.4.4-.2.4-.4zM66.1 8.3c0-.2-.2-.4-.5-.4-.2 0-.4.2-.4.5 0 .2.2.4.5.4.2 0 .4-.3.4-.5zM62.1 8.6c0-.2-.3-.4-.5-.3-.2 0-.4.3-.3.5 0 .2.3.4.5.3.2-.1.4-.3.3-.5zM58.2 9.2c-.1-.2-.3-.3-.5-.3-.2.1-.3.3-.3.5.1.2.3.3.5.3.2-.1.4-.3.3-.5zM54.3 10.1c-.1-.2-.3-.3-.5-.2-.2.1-.3.3-.2.5.1.2.3.3.5.2.2 0 .3-.3.2-.5z"/><path class="st213" d="M16.4 63.8c-.6-2.9-.2-5.9.2-9.1.2-1.4.4-2.8.4-4.2.1-1.4.1-2.9.1-4.3 0-3.2 0-6.2 1-9 .9-2.8 2.8-5.2 4.7-7.7.9-1.1 1.7-2.3 2.5-3.5.8-1.2 1.5-2.4 2.2-3.6 1.6-2.8 3.1-5.4 5.4-7.4 1.1-.9 2.4-1.8 4.1-2.6 1.2-.6 2.5-1.1 3.8-1.7 1.3-.6 2.7-1.1 4-1.8l3.9-2.1c1.2-.7 2.4-1.4 3.6-2 1.7-1 3.1-1.5 4.5-1.8 2.9-.6 5.9-.2 9.1.2 1.4.2 2.8.4 4.2.4 1.4.1 2.9.1 4.3.1 3.2 0 6.2 0 9 1 2.8.9 5.2 2.8 7.7 4.7 1.1.9 2.3 1.7 3.5 2.5 1.2.8 2.4 1.5 3.6 2.2 2.8 1.6 5.4 3.1 7.4 5.4 1.1 1.3 2 2.7 2.7 4.4l2.5-1.2c-.9-1.8-1.9-3.5-3.1-4.9-2.3-2.6-5.2-4.3-8.1-5.9-1.2-.7-2.4-1.4-3.5-2.1-1.1-.8-2.3-1.6-3.4-2.4-2.6-2-5.3-4-8.5-5.1-3.2-1.1-6.6-1.1-9.9-1.1-1.4 0-2.8 0-4.1-.1-1.3-.1-2.6-.3-4.1-.4-3.3-.4-6.6-.8-10-.2-1.6.3-3.3.9-5.2 1.9-1.3.6-2.6 1.4-3.8 2.1-1.2.7-2.5 1.4-3.7 2-1.1.5-2.4 1-3.7 1.6-1.3.5-2.7 1.1-3.9 1.8-1.9 1-3.4 1.9-4.7 3-2.6 2.3-4.3 5.2-5.9 8.1-.7 1.2-1.4 2.4-2.1 3.5-.7 1.1-1.6 2.3-2.4 3.4-2 2.6-4 5.3-5.1 8.5-1.1 3.2-1.1 6.6-1.1 9.9 0 1.4 0 2.8-.1 4.1-.1 1.3-.3 2.6-.4 4.1-.4 3.3-.8 6.6-.2 10 .4 1.9 1.1 3.7 2 5.5l2.4-1.2c-.8-1.8-1.5-3.3-1.8-5zM117.4 52.6c-.2 1.4-.4 2.8-.4 4.2-.1 1.4-.1 2.9-.1 4.3 0 3.2 0 6.2-1 9-.9 2.8-2.8 5.2-4.7 7.7-.9 1.1-1.7 2.3-2.5 3.5-.8 1.2-1.5 2.4-2.2 3.6-1.6 2.8-3.1 5.4-5.4 7.4-1.1.9-2.4 1.8-4.1 2.6-1.2.6-2.5 1.1-3.8 1.7-1.3.6-2.7 1.1-4 1.8l-3.9 2.1c-1.2.7-2.4 1.4-3.6 2-1.7.9-3.2 1.4-4.6 1.7-2.9.6-5.9.2-9.1-.2-1.4-.2-2.8-.4-4.2-.4-1.4-.1-2.9-.1-4.3-.1-3.2 0-6.2 0-9-1-2.8-.9-5.2-2.8-7.7-4.7-1.1-.9-2.3-1.7-3.5-2.5-1.2-.8-2.4-1.5-3.6-2.2-.3-.2-.5-.3-.8-.5L32 94c.8.5 1.6.9 2.4 1.4 1.2.7 2.4 1.4 3.5 2.1 1.1.7 2.3 1.6 3.4 2.4 2.6 2 5.3 4 8.5 5.1 3.2 1.1 6.6 1.1 9.9 1.1 1.4 0 2.8 0 4.1.1 1.3.1 2.6.3 4.1.4 3.3.4 6.6.8 10 .2 1.6-.3 3.3-.9 5.2-1.9 1.3-.6 2.6-1.4 3.8-2.1 1.2-.7 2.5-1.4 3.7-2 1.3-.6 2.6-1.2 3.9-1.7 1.3-.6 2.7-1.1 3.9-1.8 1.9-1 3.4-1.9 4.7-3 2.6-2.3 4.3-5.2 5.9-8.1.7-1.2 1.4-2.4 2.1-3.5.7-1.1 1.6-2.3 2.4-3.4 2-2.6 4-5.3 5.1-8.5 1.1-3.2 1.1-6.6 1.1-9.9 0-1.4 0-2.8.1-4.1.1-1.3.3-2.7.4-4.1l.3-2.7-2.9 1.4c-.1.6-.2.9-.2 1.2z"/><g><path class="st295" d="M21.3 64.2c-1.7 0-3.3-.5-4.6-1.4-1.7-1.3-2.8-3.1-3.2-5.5-.1-.3-.1-.7-.1-1.3l-.5-10.2c-3.1-1.8-5-4.2-5.5-7.1-.4-2.2.1-4.3 1.4-6 1.3-1.6 3-2.6 5.1-3 .7-.1 1.3-.2 1.9-.2 3.7 0 6.2 2.3 6.9 6.2v2.6l.1 3.7c0 .9.1 1.9.1 3s.1 2.4.1 3.9c.1 1.6.1 2.9.1 4 0 1.3.1 1.8.1 2 0 .1 0 .2.1.3.4-.4.6-1.7.5-3.3L23 30.2l1-.7c1.1-.7 2.4-1.2 3.9-1.5.4-.1.9-.1 1.3-.1 2.2 0 3.9 1.3 4.3 3.5v.2l.1.6c.4 8 .6 12.8.6 14.7 0 2.8.1 5 .4 6.4.2-.2.4-.6.6-1.2.5-1.5.8-3.4.8-5.6 0-5-.3-9.2-.9-12.7-.3-1.5-.6-2.8-1.1-3.8l-.7-1.5 1.3-1.1c1.3-1.1 2.8-1.8 4.7-2.2.3-.1.6-.1 1-.1.9 0 3.7.3 4.4 4.1.5 2.9.8 7.1 1 13 .1 5.1-.2 8.8-1.2 11.5-.5 1.2-1 2.3-1.6 3.4-1.5 2.6-4 4.2-7.3 4.8-.6.1-1.2.2-1.8.2-1.6 0-3.1-.4-4.4-1.3-1.5 1.7-3.5 2.8-6.1 3.3-.8 0-1.4.1-2 .1z"/><path class="st289" d="M40.2 27.3c1.2 0 1.9.8 2.1 2.3.5 2.7.8 6.9.9 12.6.1 4.7-.2 8.3-1 10.7-.4 1-.9 2-1.4 3-1.2 2-3.1 3.2-5.7 3.7-.5.1-1 .1-1.4.1-2 0-3.6-.8-4.9-2.5-1 2.5-3 4.1-6 4.6-.5.1-1 .1-1.5.1-1.3 0-2.3-.3-3.2-1-1.2-.9-2-2.3-2.3-4.1 0-.2-.1-.6-.1-1.1l-.5-11.4c-3.2-1.5-5-3.6-5.5-6.1-.3-1.6 0-3 1-4.1.9-1.1 2.2-1.9 3.8-2.1.5-.1 1-.1 1.5-.1 2.6 0 4.1 1.5 4.6 4.4V40c0 .6 0 1.3.1 2.2 0 .9.1 1.9.1 3s.1 2.4.1 3.9c.1 1.5.1 2.9.1 3.9 0 1.1.1 1.9.2 2.3.3 1.6 1 2.3 2.1 2.3h.5c1.9-.3 2.8-2.3 2.6-5.8l-1-20.5c.8-.6 1.8-.9 3-1.2.3-.1.6-.1.9-.1 1.2 0 1.8.5 2 1.6l.1.5c.4 7.9.6 12.8.6 14.6 0 3 .1 5.3.4 6.9.2 1.3.9 2 1.9 2h.5c1.1-.2 2-1.2 2.5-2.9.6-1.8.9-3.9.9-6.3 0-5.1-.3-9.5-.9-13.1-.3-1.7-.7-3.1-1.2-4.3.9-.8 2.2-1.4 3.6-1.6.1 0 .3-.1.5-.1M14.9 40.8l-.1-1.6c-.1-.9-.1-1.8-.3-2.6-.1-.8-.4-1.2-.9-1.2h-.2c-.5.1-.8.3-1 .7-.2.4-.2.9-.1 1.3.2 1.3 1 2.4 2.6 3.4m25.3-18c-.4 0-.9 0-1.3.1-2.3.4-4.2 1.3-5.8 2.7l-.7.6c-.9-.4-1.9-.7-3.1-.7-.5 0-1.1.1-1.7.2-1.8.3-3.5 1-4.8 1.9L21 28.8c-1.4-1-3.2-1.5-5.2-1.5-.7 0-1.5.1-2.3.2-2.6.5-4.9 1.8-6.5 3.7-1.8 2.2-2.5 4.9-1.9 7.8.4 2.3 1.7 5.4 5.5 8l.4 8.9c0 .7.1 1.2.2 1.6.7 3.8 2.6 5.9 4.1 7 1.7 1.2 3.7 1.9 5.9 1.9.7 0 1.5-.1 2.3-.2 2.4-.4 4.5-1.4 6.1-2.7 1.2.5 2.5.7 4 .7.7 0 1.5-.1 2.2-.2 5-.9 7.6-3.7 8.9-5.8.7-1.2 1.3-2.4 1.8-3.7v-.2c1-2.9 1.4-7 1.3-12.3-.2-6-.5-10.3-1-13.3-.8-4.3-3.9-5.9-6.6-5.9z"/><path class="st295" d="M54.2 58.3c-2.3 0-4.3-.6-6.1-1.9-2.4-1.8-4-4.4-4.5-7.7-.6-3.3.1-6.5 2.2-9.4 2-2.9 4.8-4.7 8.3-5.3.9-.2 1.7-.2 2.5-.2 1.5 0 2.9.3 4.1.8 2.1 1 3.4 2.6 3.9 4.9v.2l.1-.5 2.5 1.7c.8.6 1.7 1.3 2.4 2.2l.8.9-.3 1c-.6 2.5-2 5-4 7.6-1.1 1.3-2.5 2.5-4.1 3.5-1.6 1-3.4 1.7-5.3 2-.9.1-1.7.2-2.5.2zm.9-16.8c-.2 0-.7.1-1.2 1.3-.2.5-.4 1-.4 1.5.6-.4 1.1-.8 1.3-1.2.4-.6.5-1.2.4-1.5.1 0 0-.1-.1-.1.1 0 .1 0 0 0z"/><path class="st289" d="M56.5 36c1.2 0 2.2.2 3.1.6 1.4.7 2.3 1.7 2.6 3.2.4 2-.2 3.8-1.6 5.4-1.4 1.6-3.5 2.8-6.2 3.8l-1-2.2c1.6-.6 2.7-1.5 3.3-2.6.6-1.1.9-2.1.7-3-.2-.9-.5-1.5-1.1-1.7-.4-.2-.8-.3-1.2-.3h-.5c-1.2.2-2.2 1.1-2.9 2.7-.7 1.6-.9 3.3-.5 5.2.3 1.9 1.1 3.3 2.1 4 .8.6 1.7.9 2.7.9.3 0 .6 0 .9-.1 2-.4 3.8-1.4 5.3-3.1 1.6-1.7 2.7-3.8 3.5-6.2.7.4 1.3 1 2 1.8-.5 2.1-1.7 4.4-3.6 6.6-.9 1.1-2.1 2.1-3.5 3-1.4.9-2.9 1.4-4.5 1.7-.7.1-1.3.2-2 .2-1.8 0-3.4-.5-4.7-1.5-1.9-1.4-3.2-3.5-3.7-6.3-.5-2.7.1-5.3 1.8-7.7 1.7-2.4 4-3.9 6.8-4.4.9.1 1.6 0 2.2 0m0-4.5c-.9 0-1.9.1-2.8.3-4 .7-7.4 2.9-9.7 6.2-2.4 3.4-3.2 7.2-2.6 11.1.7 3.9 2.5 7 5.4 9.1 2.2 1.6 4.6 2.4 7.4 2.4.9 0 1.8-.1 2.8-.3 2.2-.4 4.2-1.2 6.1-2.3 1.8-1.1 3.4-2.4 4.7-3.9 2.3-2.8 3.8-5.7 4.5-8.5l.5-2.3-1.5-1.8c-.9-1.1-1.9-1.9-2.9-2.6l-2.2-1.4c-.8-2.2-2.5-3.9-4.7-5-1.5-.7-3.2-1-5-1z"/><path class="st295" d="M80.1 53.7c-2 0-3.9-.6-5.6-1.8-2.2-1.5-3.6-3.8-4.2-6.8-.7-4.1-.1-7.6 1.9-10.5 2-2.9 4.9-4.8 8.6-5.4h.3c.7-.1 1.5-.2 2.2-.2.4 0 .9 0 1.3.1.8-.5 1.7-.8 2.7-1 .6-.1 1.2-.2 1.7-.2.7 0 1.2.1 1.7.3l1.4.5.1 1.5c.1 2 .2 4 .3 5.9.1 1.9.1 3.3.2 4.1 0 .4 0 .7.1 1.1.1-.5.3-1.2.4-2.1l.4-3.6 3.1 1.9c1.2.7 2.1 1.7 2.8 2.8l.4.6-.1.7c-.4 3.1-1.3 5.5-2.7 7.1-1.4 1.6-3.1 2.6-4.9 2.9-.7.1-1.3.2-1.9.2-1.3 0-2.4-.3-3.4-.8-1.3 1.3-2.9 2.1-4.8 2.5-.7.1-1.4.2-2 .2zm2.6-17c-.9.2-1.4.6-1.8 1.4-.5 1-.7 2.7-.5 4.7 0 .2 0 .4.1.5.1.8.4 1.3.7 1.6.2.2.4.2.5.2h.2c.6-.1 1-.8 1.2-2.1l-.4-6.3z"/><path class="st289" d="M89.1 30.1c.4 0 .7 0 1 .1.1 2 .2 4 .3 5.9.1 1.9.1 3.3.2 4.1.1 1.8.2 3.2.3 3.9.2.9.6 1.4 1.2 1.4h.3c.7-.1 1.3-.7 1.9-1.7.6-1 1-2.5 1.2-4.5.9.5 1.6 1.2 2 2-.3 2.6-1 4.6-2.1 5.8-1.1 1.2-2.3 2-3.6 2.2-.5.1-1 .1-1.5.1-1.7 0-2.9-.6-3.8-1.8-1.1 2-2.7 3.1-4.8 3.5-.5.1-1 .1-1.5.1-1.5 0-3-.4-4.3-1.3-1.7-1.2-2.8-3-3.2-5.3-.6-3.5-.1-6.4 1.6-8.8 1.7-2.4 4.1-3.9 7.2-4.5h.2c.6-.1 1.3-.2 1.9-.2.6 0 1.3.1 1.9.2.6-.6 1.5-1 2.5-1.1.3 0 .8-.1 1.1-.1m-7.5 17.4c.2 0 .4 0 .6-.1 1.7-.3 2.7-1.7 3.1-4.2l-.6-8.7c-.5-.1-.9-.2-1.4-.2-.3 0-.6 0-.9.1-1.7.3-2.9 1.2-3.7 2.6-.8 1.5-1 3.5-.7 6 0 .2 0 .5.1.7.2 1.3.7 2.3 1.5 2.9.6.6 1.3.9 2 .9m7.5-21.9c-.7 0-1.3.1-2.1.2-1 .2-1.9.5-2.7.9h-.8c-.9 0-1.8.1-2.7.2H80.5c-4.4.8-7.8 2.9-10.1 6.4-2.4 3.4-3.1 7.5-2.3 12.2.6 3.6 2.4 6.4 5.1 8.3 2.1 1.4 4.4 2.2 6.9 2.2.8 0 1.6-.1 2.3-.2 1.8-.3 3.5-1 4.8-2.1.9.3 1.9.4 3 .4.7 0 1.5-.1 2.3-.2 2.3-.4 4.4-1.6 6.2-3.7 1.8-2 2.8-4.7 3.3-8.3l.2-1.5-.7-1.3c-.8-1.5-2-2.7-3.6-3.7l-3-1.9c-.1-1.2-.1-2.4-.2-3.6l-.2-3-2.8-1c-.8-.2-1.7-.3-2.6-.3z"/><g><path class="st295" d="M100 50.2c-1.7 0-3.2-.6-4.4-1.7-1.3-1.3-2.2-3-2.6-5.1-.1-.6-.2-1-.2-1.4L92 28.2l1.3-.7c1.1-.6 2.3-1 3.5-1.2.4-.1.9-.1 1.3-.1.7 0 1.3.1 1.9.4.9-.7 2-1.2 3.3-1.4.5-.1 1-.1 1.5-.1 1.1 0 2.1.2 2.9.7 1.4.8 2.2 2 2.5 3.6.3 1.6-.1 3-1.1 4.2-.7.9-1.7 1.5-2.8 1.9 1.1 1.4 1.8 2.9 2.1 4.7.5 2.7 0 4.9-1.3 6.7-1.3 1.7-3.1 2.8-5.4 3.2-.6 0-1.1.1-1.7.1z"/><path class="st289" d="M104.7 27.3c.7 0 1.3.1 1.8.4.8.4 1.2 1.1 1.4 2 .2.9 0 1.7-.6 2.4s-1.4 1.1-2.5 1.3h-.2c0-.3 0-.6-.1-.8-.2-1-.7-1.5-1.5-1.5h-.4c-1.1.2-1.8 1-2.2 2.5 3.3 1.7 5.1 4 5.6 6.8.4 2 .1 3.7-.9 4.9-.9 1.3-2.3 2-4 2.3-.4.1-.8.1-1.2.1-1.2 0-2.1-.3-2.8-1-1-.9-1.6-2.2-1.9-3.8-.1-.5-.1-.9-.2-1.1l-.8-12.3c.9-.5 1.8-.8 2.8-1 .3-.1.6-.1.9-.1 1.1 0 1.7.5 1.9 1.4v.1c.8-1.4 2.1-2.3 3.7-2.6.5.1.9 0 1.2 0m-2.8 16.6h.3c1.2-.2 1.6-1.2 1.2-3.1-.3-1.5-1.3-2.9-3.2-4.2.2 3.9.3 5.8.3 5.9.3.9.7 1.4 1.4 1.4m2.8-21.1c-.6 0-1.3.1-1.9.2-1.2.2-2.3.6-3.2 1.2-.5-.2-1-.2-1.6-.2-.5 0-1.1.1-1.7.2-1.4.3-2.8.7-4.1 1.4L89.6 27l.2 3 .8 12.3c0 .5.1 1 .2 1.6.5 2.6 1.6 4.7 3.3 6.4 1.6 1.5 3.6 2.3 6 2.3.6 0 1.3-.1 2-.2 2.8-.5 5.2-1.9 6.8-4.1 1.2-1.6 2.4-4.3 1.7-8.5-.2-1-.5-2.2-1.1-3.4.5-.4.9-.8 1.3-1.3 1.4-1.7 2-3.9 1.6-6.1-.4-2.2-1.7-4-3.6-5.1-1.2-.8-2.6-1.1-4.1-1.1z"/></g><g><path class="st295" d="M117.8 46.9c-2.3 0-4.3-.6-6.1-1.9-2.4-1.8-4-4.4-4.5-7.7-.6-3.3.1-6.5 2.2-9.4 2-2.9 4.8-4.7 8.3-5.3.8-.2 1.7-.2 2.5-.2 1.5 0 2.9.3 4.1.8 2.1 1 3.4 2.6 3.9 4.9v.2l.1-.5 2.5 1.7c.8.6 1.7 1.3 2.4 2.2l.8.9-.3 1.1c-.6 2.5-2 5-4 7.6-1.1 1.3-2.5 2.5-4.1 3.5-1.6 1-3.4 1.7-5.3 2-.9.1-1.7.1-2.5.1zm.9-16.7c-.2 0-.7.1-1.2 1.3-.2.5-.4 1-.4 1.5.6-.4 1.1-.8 1.3-1.2.3-.6.5-1.2.4-1.5.1-.1.1-.1-.1-.1.1 0 .1 0 0 0z"/><path class="st289" d="M120.1 24.7c1.2 0 2.2.2 3.1.6 1.4.7 2.3 1.7 2.6 3.2.4 2-.2 3.8-1.6 5.4-1.4 1.6-3.5 2.8-6.2 3.8l-1-2.2c1.6-.6 2.7-1.5 3.3-2.6.6-1.1.9-2.1.7-3-.2-.9-.5-1.5-1.1-1.7-.4-.2-.8-.3-1.2-.3h-.5c-1.2.2-2.2 1.1-2.9 2.7-.7 1.6-.9 3.3-.5 5.2.3 1.9 1.1 3.3 2.1 4 .8.6 1.7.9 2.7.9.3 0 .6 0 .9-.1 2-.4 3.8-1.4 5.3-3.1 1.6-1.7 2.7-3.8 3.5-6.2.7.5 1.3 1 2 1.8-.5 2.1-1.7 4.4-3.6 6.7-.9 1.1-2.1 2.1-3.5 3-1.4.9-2.9 1.4-4.5 1.7-.7.1-1.3.2-2 .2-1.8 0-3.4-.5-4.7-1.5-1.9-1.4-3.2-3.5-3.7-6.3-.5-2.7.1-5.3 1.8-7.7 1.7-2.4 3.9-3.9 6.8-4.4.9 0 1.6-.1 2.2-.1m0-4.6c-.9 0-1.9.1-2.9.3-4 .7-7.4 2.9-9.7 6.2-2.4 3.4-3.2 7.2-2.6 11.1.7 3.9 2.5 6.9 5.4 9.1 2.2 1.6 4.6 2.4 7.4 2.4.9 0 1.8-.1 2.8-.3 2.1-.4 4.2-1.2 6.1-2.3 1.8-1.1 3.4-2.4 4.7-3.9 2.3-2.8 3.8-5.7 4.5-8.5l.5-2.3-1.5-1.8c-.9-1.1-1.9-1.9-2.9-2.6l-2.2-1.4c-.8-2.2-2.5-3.9-4.7-4.9-1.4-.7-3.1-1.1-4.9-1.1z"/></g></g><g><path class="st295" d="M.1 95.8C-1.2 74.4-2 61.7-2.3 56.9l-.1-1.4 1.2-.7c.9-.5 2.1-.9 3.6-1.2.7-.1 1.4-.2 2-.2 4 0 4.8 2.8 5 3.7l.1.4v.1c.2 3.5.4 6.7.5 9.7 1-.5 2-.8 3.1-1 .8-.1 1.6-.2 2.4-.2 1.8 0 3.5.4 4.9 1.3 2.1 1.2 3.4 3.2 3.8 5.5.1.6.2 1.5.2 3 .1 5.5.3 7.6.3 8.4.1-.1.2-.3.3-.5.4-.7.9-2.1 1.1-4.8l.3-4.1 3.3 2.5c1.7 1.2 2.7 2.3 3.2 3.3l.3.6-.1.7c-1 9.1-5.8 11.8-9.6 12.4-.7.1-1.3.2-1.9.2-2 0-3.7-.6-5-1.8-1.6-1.4-2.6-3.2-3-5.1v-.1L13 76.1c-.1-.5-.3-.7-.4-.7h-.5c-.3.1-.6.2-.9.7-.4.6-.6 1.4-.7 2.4.1 2 .2 4.8.4 8.5.2 3.8.3 6.2.4 7.4l.1 2-11.2 2-.1-2.6z"/><path class="st289" d="M4.5 55.6c1.6 0 2.5.6 2.7 1.8l.1.3c.3 5.4.5 10.2.6 14.3 1.5-1.9 3.4-3.1 5.6-3.5.7-.1 1.4-.2 2-.2 1.4 0 2.6.3 3.7.9 1.5.9 2.4 2.2 2.8 4 .1.5.1 1.4.2 2.7.1 5.2.3 8.2.4 9.1.3 1.4.8 2.1 1.7 2.1h.3c.9-.2 1.7-.9 2.5-2.2.8-1.3 1.3-3.3 1.4-5.8 1.4 1 2.2 1.8 2.6 2.5-.7 6.2-3.3 9.7-7.7 10.5-.5.1-1 .1-1.5.1-1.4 0-2.6-.4-3.5-1.2-1.2-1.1-2-2.4-2.2-3.8l-.8-11.4c-.2-.9-.5-1.6-1.1-2.2-.4-.4-1-.6-1.7-.6-.2 0-.5 0-.8.1-1 .2-1.9.8-2.4 1.7-.6 1-.9 2.1-1 3.5.1 2 .3 4.8.4 8.6s.3 6.2.4 7.4l-6.7 1.2C1.1 74.5.3 61.5 0 56.7c.7-.4 1.6-.7 2.8-.9.6-.1 1.2-.2 1.7-.2m0-4.5c-.8 0-1.6.1-2.4.2-1.8.3-3.2.8-4.3 1.5l-2.4 1.4.2 2.8c.3 4.8 1.1 17.5 2.4 38.8l.3 5.1 5-.9 6.7-1.2 4-.7-.2-4c0-.4-.1-.9-.1-1.6.5.7 1.1 1.3 1.7 1.9 1.8 1.6 4 2.4 6.5 2.4.7 0 1.5-.1 2.3-.2C32.8 95 35 86.9 35.6 82.1l.2-1.4-.7-1.3c-.7-1.3-1.9-2.5-3.9-4l-4.9-3.6c-.7-2.8-2.3-5-4.8-6.5-1.8-1.1-3.8-1.6-6-1.6-.9 0-1.8.1-2.8.3-.2 0-.4.1-.6.1-.1-2.1-.2-4.4-.4-6.7V57l-.1-.3c-.4-2.7-2.6-5.6-7.1-5.6z"/><path class="st295" d="M36.2 91.9c-2.8 0-5.3-.8-7.4-2.3-3-2.2-4.8-5.4-5.6-9.4-.7-4.1.2-8 2.7-11.5 2.5-3.6 5.9-5.7 10.2-6.5 1-.2 2.1-.3 3-.3 1.8 0 3.5.3 5 1 2.5 1.1 4.1 3.1 4.6 5.8.3 1.8.2 3.5-.3 5 .2-.5.4-1.1.6-1.7l.9-2.9 2.5 1.7c1 .7 2 1.6 3 2.7l.7.9-.3 1.1c-.7 3-2.4 6.2-5 9.4-1.4 1.7-3.1 3.1-5.1 4.3-2 1.2-4.2 2.1-6.6 2.5-.9.2-1.9.2-2.9.2zm11-15.6c-.3.4-.6.9-1 1.3-1.7 1.9-4.1 3.5-7.1 4.8.2 0 .3 0 .5-.1 2.1-.4 3.9-1.4 5.5-3.2.8-.9 1.5-1.8 2.1-2.8zm-9.6-5.8h-.3c-.3.1-1.2.2-2 2.1-.4 1-.7 2.1-.7 3.2 1.4-.6 2.4-1.4 3-2.3.5-1 .8-1.8.6-2.4-.1-.3-.1-.5-.2-.6h-.4z"/><path class="st289" d="M39.2 64.2c1.5 0 2.8.3 4 .8 1.8.8 2.9 2.2 3.3 4.1.5 2.6-.2 4.9-2 6.9s-4.4 3.6-7.9 4.9L35.3 78c2-.8 3.4-1.9 4.2-3.4.8-1.4 1.1-2.7.9-3.9-.2-1.2-.7-1.9-1.4-2.2-.5-.2-1-.3-1.5-.3-.2 0-.4 0-.7.1-1.6.3-2.8 1.4-3.7 3.4-.9 2-1.1 4.2-.7 6.6.4 2.4 1.3 4.2 2.7 5.2 1.1.8 2.2 1.1 3.5 1.1.4 0 .8 0 1.2-.1 2.5-.5 4.8-1.8 6.8-3.9 2-2.2 3.5-4.8 4.4-7.9.9.6 1.7 1.3 2.5 2.3-.7 2.7-2.2 5.6-4.6 8.5-1.2 1.4-2.7 2.7-4.5 3.8-1.8 1.1-3.7 1.8-5.8 2.2-.9.2-1.7.2-2.5.2-2.3 0-4.3-.6-6-1.9-2.5-1.9-4-4.5-4.7-8-.4-3.5.3-6.8 2.5-9.8 2.1-3.1 5-4.9 8.7-5.6.9-.2 1.8-.2 2.6-.2m0-4.6c-1.1 0-2.2.1-3.4.3-4.9.9-8.8 3.4-11.6 7.4-2.9 4.1-3.9 8.5-3.1 13.2.8 4.6 3 8.3 6.4 10.8 2.5 1.9 5.5 2.8 8.7 2.8 1.1 0 2.2-.1 3.3-.3 2.6-.5 5.1-1.4 7.3-2.8 2.2-1.3 4.1-2.9 5.7-4.7 2.8-3.5 4.7-6.9 5.5-10.3l.5-2.2-1.3-1.8c-1.1-1.3-2.2-2.3-3.4-3.1l-3.1-2.1c-.9-2.7-2.8-4.8-5.5-6-1.9-.8-3.9-1.2-6-1.2z"/><g><path class="st295" d="M57 88.3c-2.1 0-3.8-.7-5.2-2-1.6-1.5-2.7-3.6-3.1-6.2-.1-.7-.2-1.3-.2-1.7l-1.1-17.2 1.3-.7c1.3-.7 2.8-1.2 4.2-1.4.5-.1 1-.1 1.5-.1 1 0 1.8.2 2.5.6 1.2-1 2.6-1.6 4.2-1.9.6-.1 1.3-.2 1.8-.2 1.3 0 2.4.3 3.4.8 1.6.9 2.6 2.3 2.9 4.1.3 1.8-.1 3.5-1.3 4.9-1 1.2-2.5 2-4.2 2.4 1.7 1.9 2.8 4 3.2 6.4.6 3.2.1 5.9-1.5 8.1-1.6 2.1-3.8 3.4-6.5 3.9-.7.2-1.3.2-1.9.2z"/><path class="st289" d="M63 59.8c.9 0 1.7.2 2.3.5 1 .5 1.6 1.4 1.8 2.5.2 1.1-.1 2.2-.8 3-.7.9-1.8 1.4-3.2 1.7h-.2c0-.4 0-.7-.1-1.1-.2-1.3-.9-1.9-1.9-1.9-.2 0-.4 0-.5.1-1.4.3-2.4 1.4-2.9 3.3 4.2 2.2 6.6 5.1 7.2 8.7.5 2.6.1 4.7-1.1 6.3-1.2 1.6-2.9 2.6-5.1 3-.5.1-1 .2-1.5.2-1.5 0-2.7-.4-3.6-1.3-1.3-1.2-2.1-2.8-2.4-4.9-.1-.6-.2-1.1-.2-1.4l-1-15.8c1.1-.6 2.3-1 3.6-1.2.4-.1.8-.1 1.1-.1 1.4 0 2.2.6 2.4 1.8v.1c1.1-1.8 2.6-2.9 4.7-3.3.5-.1.9-.2 1.4-.2M59.4 81h.4c1.5-.3 2-1.6 1.6-4-.4-2-1.7-3.7-4.1-5.3.3 5 .4 7.5.4 7.5.2 1.2.8 1.8 1.7 1.8M63 55.3c-.7 0-1.5.1-2.2.2-1.5.3-2.9.8-4.2 1.6-.7-.2-1.4-.3-2.2-.3-.6 0-1.2.1-1.9.2-1.7.3-3.3.9-4.9 1.6L45 59.9l.2 3 1 15.8c0 .5.1 1.1.3 1.9.5 3.1 1.8 5.6 3.8 7.4 1.8 1.7 4.1 2.6 6.7 2.6.8 0 1.5-.1 2.3-.2 3.3-.6 6.1-2.2 7.9-4.7 2-2.7 2.7-6 2-9.8-.3-1.8-.9-3.4-1.8-5 .9-.5 1.7-1.2 2.4-2 1.6-1.9 2.2-4.3 1.8-6.8-.4-2.5-1.9-4.5-4-5.7-1.4-.8-2.9-1.1-4.6-1.1z"/></g><g><path class="st295" d="M79.7 84.2c-2.8 0-5.3-.8-7.4-2.3-3-2.2-4.8-5.4-5.6-9.4-.7-4.1.2-8 2.7-11.5 2.5-3.6 5.9-5.7 10.2-6.5 1.1-.2 2.1-.3 3-.3 1.8 0 3.5.3 5 1 2.5 1.1 4.1 3.1 4.6 5.8.3 1.8.2 3.5-.3 5 .2-.5.4-1.1.6-1.7l.9-2.9 2.5 1.7c1 .7 2 1.6 3 2.7l.8.9-.3 1.1c-.7 3-2.4 6.2-5 9.4-1.4 1.7-3.1 3.1-5.1 4.3-2 1.2-4.2 2.1-6.6 2.5-1.1.1-2.1.2-3 .2zm10.9-15.7c-.3.4-.6.8-1 1.2-1.7 1.9-4.1 3.5-7.1 4.8.1 0 .3 0 .5-.1 2.1-.4 3.9-1.4 5.5-3.2.8-.7 1.5-1.7 2.1-2.7zM81 62.8h-.3c-.3.1-1.2.2-2 2.1-.4 1-.7 2.1-.7 3.2 1.4-.6 2.4-1.4 3-2.3.5-1 .8-1.8.6-2.4-.1-.3-.1-.5-.2-.6H81z"/><path class="st289" d="M82.6 56.4c1.5 0 2.8.3 4 .8 1.8.8 2.9 2.2 3.3 4.1.5 2.6-.2 4.9-2 6.9s-4.4 3.6-7.9 4.9l-1.2-2.9c2-.8 3.4-1.9 4.2-3.4.8-1.4 1.1-2.7.9-3.9-.2-1.2-.7-1.9-1.4-2.2-.5-.2-1-.3-1.5-.3-.2 0-.4 0-.7.1-1.6.3-2.8 1.4-3.7 3.4-.9 2-1.1 4.2-.7 6.6.4 2.4 1.3 4.2 2.7 5.2 1.1.8 2.2 1.1 3.5 1.1.4 0 .8 0 1.2-.1 2.5-.5 4.8-1.8 6.8-3.9 2-2.2 3.5-4.8 4.4-7.9.9.6 1.7 1.3 2.5 2.3-.7 2.7-2.2 5.6-4.6 8.5-1.2 1.4-2.7 2.7-4.5 3.8-1.8 1.1-3.7 1.8-5.8 2.2-.9.2-1.7.2-2.5.2-2.3 0-4.3-.6-6-1.9-2.5-1.9-4-4.5-4.7-8-.6-3.5.1-6.7 2.3-9.8 2.1-3.1 5-4.9 8.7-5.6 1-.1 1.9-.2 2.7-.2m0-4.5c-1.1 0-2.2.1-3.4.3-4.9.9-8.8 3.4-11.6 7.4-2.9 4.1-3.9 8.5-3.1 13.2.8 4.6 3 8.3 6.4 10.8 2.5 1.9 5.5 2.8 8.7 2.8 1.1 0 2.2-.1 3.3-.3 2.6-.5 5.1-1.4 7.3-2.8 2.2-1.3 4.1-2.9 5.6-4.7 2.8-3.5 4.7-6.9 5.5-10.3l.5-2.3-1.5-1.8c-1.1-1.3-2.2-2.3-3.4-3.1l-2.9-2c-.9-2.7-2.8-4.7-5.5-6-1.8-.8-3.8-1.2-5.9-1.2z"/></g></g></svg>