<svg version="1.1" id="Layer_1" xmlns="http://www.w3.org/2000/svg" xmlns:xlink="http://www.w3.org/1999/xlink" x="0" y="0" viewBox="0 0 192.5 155.5" xml:space="preserve"><style></style><defs><path id="SVGID_42_" d="M28.7 77.4C46.3 96 68.8 107 95.6 110c23.3 2.6 47.8-.5 71.9-12 8.9-4.3 16.6-15.7 18.2-28.2 1.2-9.6-2.2-18.6-10-26.9-8.5-9-22-16.9-40-23.4C81.7-.2 27.9 8.8 13.4 29.2c-9.4 13.2.1 30.1 9.7 41.9 1.8 2.2 3.7 4.3 5.6 6.3z"/></defs><clipPath id="SVGID_1_"><use xlink:href="#SVGID_42_" overflow="visible"/></clipPath><path d="M15.4 77.1c42.8 52.6 109.1 43.4 128 35.8 11.4 16.5 2.2 32-7.1 42.5 22.7-10.2 31.3-30.2 30.6-50.4 22.7-14.3 48.1-64.8-32.4-94C54.1-18.2-36.8 12.9 15.4 77.1zm116.3-57.9c17.2 6.2 30 13.7 38.1 22.3 7.5 7.9 10.7 16.5 9.5 25.6C177.8 79 170.5 89.9 162 94c-22.9 11-46.3 13.9-68.4 11.4-25.6-2.9-47-13.3-63.8-31-1.8-1.9-3.6-3.9-5.3-6-9.2-11.2-18.2-27.3-9.2-39.9C29.1 9.2 80.3.6 131.7 19.2z" opacity=".55" clip-path="url(#SVGID_1_)" fill="#1d1d1b"/><path d="M18.4 77.2c42.8 52.6 109.1 43.4 128 35.8 11.4 16.5 2.2 32-7.1 42.5 22.7-10.2 31.3-30.2 30.6-50.4 22.7-14.3 48.1-64.8-32.3-94C57.1-18.1-33.8 13 18.4 77.2zm115.5-56c17.2 6.2 30 13.7 38.1 22.3 7.5 7.9 10.7 16.5 9.5 25.6C180 81 172.7 91.9 164.2 96c-22.9 11-46.3 13.9-68.4 11.4-25.6-2.8-47-13.3-63.8-31-1.8-1.9-3.6-3.9-5.3-6-9.2-11.2-18.2-27.3-9.2-39.9 13.8-19.4 65-28 116.4-9.3z" fill="#404351"/></svg>