<svg version="1.1" id="Layer_1" xmlns="http://www.w3.org/2000/svg" xmlns:xlink="http://www.w3.org/1999/xlink" x="0" y="0" viewBox="0 0 210.2 187.7" xml:space="preserve"><style>.st26{fill:#fff}.st95{fill:#0a384d}.st98{fill:none;stroke:#a0a2ae;stroke-width:1.0381}</style><path d="M35.2 107.1c36.1-22.1 81-34.3 123.3-33.5-2-7.6-4.1-15.1-6.1-22.7-42.3-.7-87.3 11.5-123.4 33.6 2.1 7.5 4.1 15.1 6.2 22.6z" fill="#64788c"/><path class="st95" d="M137.4 74.3c7.1-.6 14.1-.8 21.1-.6-2-7.6-4.1-15.1-6.1-22.7-7.7-.2-15.4.1-23.2.8l8.2 22.5zM35.2 107.1c4.8-2.9 9.7-5.7 14.7-8.2l.2-25.8c-7.3 3.4-14.3 7.2-21.1 11.3 2.1 7.6 4.1 15.2 6.2 22.7z"/><linearGradient id="SVGID_1_" gradientUnits="userSpaceOnUse" x1="741.701" y1="649.671" x2="763.875" y2="503.75" gradientTransform="rotate(167.634 459.015 297.54)"><stop offset="0"/><stop offset=".106" stop-color="#050505"/><stop offset=".23" stop-color="#131313"/><stop offset=".362" stop-color="#2a2a2a"/><stop offset=".501" stop-color="#4b4b4b"/><stop offset=".644" stop-color="#757575"/><stop offset=".792" stop-color="#a9a9a9"/><stop offset=".94" stop-color="#e4e4e4"/><stop offset="1" stop-color="#fff"/></linearGradient><path d="M123.3 131.5l26.5 29.6-7.4-37.1c39.4-25.1 8.5-103.8-49.1-80.8-60 24-16.1 101.4 30 88.3z" opacity=".4" fill="url(#SVGID_1_)"/><defs><path id="SVGID_26_" d="M87.3 47.2c37-8.1 49.4 19.6 52.4 28.2 6.7 19.7 2.5 44.3-18.7 55.7-40.4 21.7-65.4-12.6-70-34.6-2.4-11.4-3.8-39.1 33.6-48.7l2.7-.6z"/></defs><clipPath id="SVGID_2_"><use xlink:href="#SVGID_26_" overflow="visible"/></clipPath><g opacity=".6" clip-path="url(#SVGID_2_)"><path class="st98" d="M209.9 84.3L66.2.4M208.3 86.9L64.5 3M206.6 89.5L62.9 5.6M205 92L61.2 8.2M203.3 94.6L59.6 10.7M201.7 97.2L57.9 13.3M200.1 99.8L56.3 15.9M198.4 102.3L54.6 18.5M196.8 104.9L53 21M195.1 107.5L51.3 23.6M193.5 110.1L49.7 26.2M191.8 112.6L48 28.8M190.2 115.2L46.4 31.3M188.5 117.8L44.8 33.9M186.9 120.4L43.1 36.5M185.2 122.9L41.5 39.1M183.6 125.5L39.8 41.6M181.9 128.1L38.2 44.2M180.3 130.7L36.5 46.8M178.6 133.2L34.9 49.3M177 135.8L33.2 51.9M175.3 138.4L31.6 54.5M173.7 140.9L29.9 57.1M172 143.5L28.3 59.6M170.4 146.1L26.6 62.2M168.7 148.7L25 64.8M167.1 151.2L23.3 67.4M165.4 153.8L21.7 69.9M163.8 156.4L20 72.5M162.2 159L18.4 75.1M160.5 161.5L16.7 77.7M158.9 164.1L15.1 80.2M157.2 166.7L13.4 82.8M155.6 169.3L11.8 85.4M153.9 171.8L10.2 87.9M152.3 174.4L8.5 90.5M150.6 177L6.9 93.1M149 179.5L5.2 95.7M147.3 182.1L3.6 98.2M145.7 184.7L1.9 100.8M144 187.3L.3 103.4"/></g><defs><path id="SVGID_28_" d="M87.3 47.2c37-8.1 49.4 19.6 52.4 28.2 6.7 19.7 2.5 44.3-18.7 55.7-40.4 21.7-65.4-12.6-70-34.6-2.4-11.4-3.8-39.1 33.6-48.7l2.7-.6z"/></defs><clipPath id="SVGID_3_"><use xlink:href="#SVGID_28_" overflow="visible"/></clipPath><path d="M97.1 141.9l24.4 37.2-1.6-42.9c48.9-22.8 28.3-115.9-40.6-98.1C7.5 56.7 42.9 150.3 97.1 141.9zM82.5 50.8l2.4-.6c32.6-7.1 43.5 17.2 46.1 24.9 5.9 17.4 2.2 39.1-16.5 49.1-35.5 19.2-57.6-11-61.6-30.4-2.1-10.1-3.3-34.4 29.6-43z" opacity=".55" clip-path="url(#SVGID_3_)" fill="#1d1d1b"/><path d="M100.6 144.2l24.4 37.2-1.6-42.9c48.9-22.8 28.3-115.9-40.6-98.1C11.1 59 46.5 152.6 100.6 144.2zM86.1 53.1l2.4-.6c32.6-7.1 43.5 17.2 46.1 24.9 5.9 17.4 2.2 39.1-16.5 49.1-35.6 19.1-57.6-11.1-61.6-30.5-2.1-10-3.4-34.4 29.6-42.9z" fill="#404351"/><g><linearGradient id="SVGID_4_" gradientUnits="userSpaceOnUse" x1="633.156" y1="524.606" x2="760.956" y2="524.606" gradientTransform="rotate(164.818 425.979 268.297)"><stop offset="0" stop-color="#2b7991"/><stop offset=".487" stop-color="#3c8396"/><stop offset="1" stop-color="#52909d"/></linearGradient><path d="M29 84.5c44 7.1 88.9-5.1 123.3-33.5 3.2 11.7 6.3 23.3 9.5 35-34.4 28.3-79.3 40.5-123.3 33.5-3.1-11.7-6.3-23.3-9.5-35z" fill="url(#SVGID_4_)"/></g><g><path class="st26" d="M44.6 113.8c-.8-5.7-1.4-11.4-2-17.1 1.3-.1 2.5-.1 3.8-.2.5 4.8 1.1 9.5 1.8 14.3 2.3-.1 4.7-.3 7-.5.2.9.3 1.9.5 2.8-3.7.3-7.4.6-11.1.7zM59.5 106.8c.1.3.1.7.2 1 .3 1.5 1 2.9 2.4 2.8 1.3-.1 1.6-1 1.5-2.6 1.1-.1 2.2-.3 3.3-.4.4 3-.8 4.9-4.4 5.2-5.5.6-6.4-3.1-6.8-6.3-.5-3.4-.2-6.7 4.7-7.2 4.2-.4 5.6 2 6.4 5.9 0 .2.1.5.1.7-2.5.4-4.9.6-7.4.9zm3.5-2.4c-.4-1.9-.9-3-2.4-2.8-1.5.1-1.7 1.5-1.5 2.7 0 .2.1.3.1.5 1.3-.1 2.5-.2 3.8-.4zM67.6 95.1c1.2-.2 2.4-.3 3.5-.5.2 1.2.5 2.4.7 3.6l2.1-.3c.2.7.3 1.5.5 2.2l-2.1.3c.5 2.3.9 4.6 1.4 6.9.2 1 .5 1.4 1.6 1.2.3 0 .6-.1.8-.2.2.8.3 1.5.5 2.3-.8.2-1.5.4-2.4.5-2.9.4-3.6-.3-4.2-2.9-.5-2.4-1-4.9-1.4-7.3-.6.1-1.2.2-1.8.2-.1-.7-.3-1.5-.4-2.2.6-.1 1.2-.2 1.8-.2l-.6-3.6zM78.8 96c.5 2.5.3 4.4-2.4 5.1-.1-.5-.2-1.1-.4-1.6.9-.3 1.1-1.2.9-2.1 0-.1-.1-.3-.1-.4-.4.1-.9.1-1.3.2-.3-1.2-.5-2.5-.8-3.7 1.1-.2 2.2-.4 3.4-.6.2 1.1.5 2.1.7 3.1zM85.6 104.8c0 .1.1.3.1.4.3 1.1 1.1 1.7 2.4 1.5 1.1-.2 1.7-.9 1.4-1.9-.2-.8-.9-1.1-1.7-1.2l-2.7-.3c-2.1-.3-3.4-1.2-3.8-3-.5-2.1.6-4 4.2-4.7 3.2-.6 5 .3 5.6 2.6 0 .2.1.3.1.5-1.1.2-2.1.5-3.2.7-.3-1.3-.9-1.8-2-1.6-.9.2-1.6.8-1.3 1.7.1.6.6 1.1 1.9 1.2.8.1 1.5.1 2.3.2 2.4.2 3.5 1 4 2.9.7 2.6-1.1 4.4-4.2 5-4.1.8-5.7-.6-6.3-3 0-.1-.1-.3-.1-.4l3.3-.6zM106.2 92.6c-.8-2.4-1.6-3.3-3.2-2.8-1.8.5-1.7 2.3-.3 6.9 1.5 5 2.6 5.7 4.2 5.2 1.3-.4 2.1-1.2.9-4.8 1.2-.3 2.4-.7 3.6-1 1.2 3.5 1.4 6.8-3.5 8.2-5.6 1.5-7.4-1.9-8.9-6.9s-1.8-8.7 3.5-10.1c5-1.4 6.4 1.9 7.2 4.3-1.1.3-2.3.6-3.5 1zM110.1 85.4c1.1-.3 2.3-.7 3.4-1.1.7 2.1 1.4 4.1 2.2 6.2 1.4-.4 2.7-.9 4.1-1.3-.8-2-1.5-4.1-2.2-6.2 1.1-.4 2.3-.8 3.4-1.2 2 5.3 4.1 10.7 6.2 16l-3.6 1.2c-.9-2.4-1.9-4.7-2.8-7.1-1.4.5-2.7.9-4.1 1.3.9 2.4 1.8 4.8 2.7 7.1-1.2.4-2.4.8-3.6 1.1-2.1-5.1-3.9-10.5-5.7-16zM126.4 79.9c1.4-.5 2.7-1 4.1-1.6 3.6 4.7 7.4 9.3 11.3 13.9l-3.6 1.5c-.8-1-1.5-2-2.3-3l-4.5 1.8.6 3.6c-1.2.5-2.4.9-3.7 1.3-.6-5.8-1.3-11.6-1.9-17.5zm4.5 9.7c1.1-.4 2.2-.9 3.3-1.3-1.6-2.1-3.1-4.3-4.6-6.5.4 2.7.8 5.3 1.3 7.8zM143.9 72.6c.4.9.8 1.7 1.2 2.6-1.2.5-2.3 1.1-3.5 1.6 2 4.3 4.1 8.6 6.2 12.9-1.1.5-2.3 1-3.4 1.5-2.1-4.3-4.1-8.6-6-13-1.2.5-2.4 1-3.5 1.5-.4-.9-.7-1.7-1.1-2.6 3.4-1.5 6.8-3 10.1-4.5zM151.9 82.5c-1.2-1.9-2.3-3.9-3.5-5.9-.8-1.7-1.6-3.3-2.4-5 1-.5 2-1 3-1.4.8 1.7 1.7 3.3 2.5 5 .9 2.1 1.8 4.2 2.7 6.2-.8.4-1.6.7-2.3 1.1zm3.4.1c.5.9 1 1.9 1.5 2.8-1.1.5-2.1 1-3.2 1.5-.5-.9-1-1.9-1.5-2.8 1.1-.5 2.2-1 3.2-1.5z"/></g></svg>