<svg version="1.1" id="Layer_1" xmlns="http://www.w3.org/2000/svg" x="0" y="0" viewBox="0 0 250.8 103.9" xml:space="preserve"><style>.st12{fill:#000100}.st26{fill:#fff}</style><path fill="#aaa798" d="M173.6 94.9l77.2-55.6L164.1.2 164 0l-.3.1h-.1.1l-41 13-45.1-4.2v-.2L0 64.6l87.1 39.2v.1h.1v-.1l43.3-13.2 42.7 4.4v.2l.3-.2h.1z"/><path class="st26" d="M86.4 101.7l-.2-.1-83-37.4L77.1 11l45 4.2 40.7-12.9.1.1 83 37.4L172.1 93h-.2l-42.4-4.4-43.1 13.1zM5 64.1l81.5 36.7 42.9-13.1 42.4 4.4L244.1 40 162.7 3.3l-40.5 12.8-44.8-4.2L5 64.1z"/><path transform="rotate(-5.75 128.363 54.86)" class="st26" d="M37.1 54.4h182.5v.9H37.1z"/><path class="st12" d="M45.1 40.1l7.5-.9.2 2.3-1.8 1 3.1 8.9L56.6 39l3.4-.5 4.6 11.8 1.5-9.4-2-.6-.1-2.1 7.2-.9.2 2.3-1.8.9-2.9 15.3-3.6.4-4.6-11.8-.2 2.6-2 10-3.5.4-5.6-14.5-1.9-.6-.2-2.2zM75.9 48.9c.4 2 1.6 3.1 3.4 2.9 2.1-.2 4.2-1.6 4.2-1.6l1.3 2s-2.3 2.4-5.6 2.7c-4.4.4-6.9-1.9-7.3-6.2-.4-4.5 1.8-7.6 6.1-8.1 3.8-.4 6 1.8 6.4 5.4.1 1 0 1.9 0 2l-8.5.9zm4.4-2.9c-.1-1.5-.9-2.5-2.3-2.3-1.4.1-2.2 1.3-2.3 2.8l4.6-.5zM97.8 51.1s-1.8 2.1-3.9 2.3c-2.5.2-4.1-1.1-4.4-3.6-.3-3 1.8-4.4 5.7-4.8l1.8-.2-.1-1.4c-.1-1.3-.9-1.8-2.1-1.7-1.3.1-2.2.6-2.2.6l-.3 1.7-2.3.2-.6-3.8s3-1.3 5.4-1.6c3.9-.4 5.5.8 5.9 4.5l.6 6.3 2 .3.2 2-5.1.7-.6-1.5zm-2-4c-2 .2-2.7.8-2.6 1.9.1 1 .7 1.5 1.7 1.4 1.3-.1 2.6-1.8 2.6-1.8l-.3-1.6-1.4.1z"/><path class="st12" d="M107.9 39.6s1.6-2.2 3.3-2.4c1.4-.1 2.4.2 2.4.2l.3 4.9-2.3.2-.6-2.1c-1.5.1-2.6 1.7-2.6 1.7l.7 6.7 2.6.4.2 2-8.4.8-.2-2 2-.8-.8-8.3-2.1-.4-.2-2 5.3-.7.4 1.8z"/><path class="st12" d="M117.9 44.6c.4 2 1.6 3.1 3.4 2.9 2.1-.2 4.2-1.6 4.2-1.6l1.3 2s-2.3 2.4-5.6 2.7c-4.4.4-6.9-1.9-7.3-6.2-.4-4.5 1.8-7.6 6.1-8.1 3.8-.4 6 1.8 6.4 5.4.1 1 0 1.9 0 2l-8.5.9zm4.4-2.8c-.1-1.5-.9-2.5-2.3-2.3-1.4.1-2.2 1.3-2.3 2.8l4.6-.5zM136 36.5c.7-.7 2.2-2 4.1-2.2 2.6-.3 4.2 1.3 4.5 4.2l.7 6.7 1.8.5.2 2-6.9.7-.2-2 1.3-.7-.6-6.2c-.1-1.3-.7-2-1.9-1.9-1.4.1-2.6 1.6-2.6 1.6l.7 6.8 1.4.5.2 2-7.2.7-.2-2 2-.8-1.4-14.3-2.1-.3-.2-2 5.8-.8.6 7.5zM150.7 41.3c.4 2 1.6 3.1 3.4 2.9 2.1-.2 4.2-1.6 4.2-1.6l1.3 2s-2.3 2.4-5.6 2.7c-4.4.4-6.9-1.9-7.3-6.2-.4-4.5 1.8-7.6 6.1-8.1 3.8-.4 6 1.8 6.4 5.4.1 1 0 1.9 0 2l-8.5.9zm4.4-2.8c-.1-1.5-.9-2.5-2.3-2.3-1.4.1-2.2 1.3-2.3 2.8l4.6-.5zM164.5 33.9s1.6-2.2 3.3-2.4c1.4-.1 2.4.2 2.4.2l.3 4.9-2.3.2-.6-2.1c-1.5.1-2.6 1.7-2.6 1.7l.7 6.7 2.6.4.2 2-8.4.8-.2-2 2-.8-.8-8.3-2.1-.4-.2-2 5.3-.7.4 1.8z"/><path class="st12" d="M174.5 38.9c.4 2 1.6 3.1 3.4 2.9 2.1-.2 4.2-1.6 4.2-1.6l1.3 2s-2.3 2.4-5.6 2.7c-4.4.4-6.9-1.9-7.3-6.2-.4-4.5 1.8-7.6 6-8.1 3.8-.4 6 1.8 6.4 5.4.1 1 0 1.9 0 2l-8.4.9zm4.4-2.8c-.1-1.5-.9-2.5-2.3-2.3-1.4.1-2.2 1.3-2.3 2.8l4.6-.5zM183.4 24.5l4-.4.8 12.9-3 .4-1.8-12.9zm3.6 15c1.4-.1 2.2.6 2.4 2.1.1 1.5-.8 2.4-2 2.5-1.4.1-2.2-.6-2.3-2.1-.2-1.5.7-2.4 1.9-2.5z"/><g><path class="st26" d="M82.6 79.8l-1.4-13.5 3-.3 1.2 12 4.5-.5.2 1.5-7.5.8zM91.6 78.9l-1.4-13.5 7.5-.8.2 1.5-4.5.5.5 4.5 3-.3.2 1.5-3 .3.5 4.5 4.5-.5.2 1.5-7.7.8zM102.2 77.8l-1.2-12-3 .3-.2-1.5 9-.9.2 1.5-3 .3 1.2 12-3 .3zM106.9 63.7l3-.3.3 3c.2 1.8-.7 2.9-2.7 3.3l-.2-1.5c1-.1 1.4-.7 1.4-1.6l-1.5.2-.3-3.1zM119.2 65.5l-1.5.2c-.2-1-.8-1.4-1.6-1.4-.5.1-.9.2-1.1.5-.2.3-.3.7-.3 1.2 0 .4.2.7.5 1l3.5 3.2c.7.6 1 1.3 1.1 2l.2.8c.1.8-.1 1.6-.7 2.2-.5.7-1.2 1-2 1.1l-1.5.2c-1 .1-1.8-.1-2.3-.5-.6-.4-.9-1.2-1-2.2l1.5-.2v.3c0 .4.2.7.6.9.3.2.7.3 1.1.2.5-.1.9-.2 1.1-.5.2-.3.3-.7.2-1.2 0-.4-.2-.7-.5-1l-3.5-3.2c-.7-.6-1-1.3-1.1-2l-.1-.7c-.1-.8.1-1.5.7-2.2.5-.7 1.2-1 2-1.1l1.5-.2c1.8-.3 2.9.6 3.2 2.6zM133.6 71.6c.1 2-.8 3.1-2.7 3.3l-3 .3c-.8.1-1.5-.1-2.2-.7-.7-.5-1-1.2-1.1-2l-.8-7.5c-.1-.8.1-1.6.7-2.2.5-.7 1.2-1 2-1.1l3-.3c1.9-.2 3 .7 3.3 2.7l-1.5.2c-.2-1-.8-1.4-1.6-1.4l-1.5.2c-.4 0-.7.2-1 .5-.3.3-.4.7-.3 1.1l.8 7.5c0 .4.2.7.5 1 .3.3.7.4 1.1.3l1.5-.2c.9-.1 1.3-.6 1.3-1.7h1.5zM135.4 74.5L134.1 61l3-.3.6 6 3-.3-.6-6 3-.3 1.4 13.5-3 .3-.6-6-3 .3.6 6-3.1.3zM146 73.4l-1.1-10.5c-.1-.8.1-1.6.7-2.2.5-.6 1.2-1 2-1.1l3-.3c.8-.1 1.5.1 2.2.7.6.5 1 1.2 1.1 2l1.1 10.5-3 .3-.6-6-3 .3.6 6-3 .3zm2.2-7.8l3-.3-.3-3c0-.4-.2-.8-.5-1-.3-.3-.7-.4-1.1-.3-.4 0-.7.2-1 .5-.3.3-.4.7-.3 1.1l.2 3zM158.1 72.2l-1.2-12-3 .3-.2-1.5 9-.9.2 1.5-3 .3 1.2 12-3 .3z"/></g></svg>