<svg version="1.1" id="Layer_1" xmlns="http://www.w3.org/2000/svg" xmlns:xlink="http://www.w3.org/1999/xlink" x="0" y="0" viewBox="0 0 210.4 166" xml:space="preserve"><style>.st221{fill:#625e5c}</style><path class="st221" d="M1.8 138.8c0 1.1 0 1.9.1 2.5v.7h.3c.2.1.4.1.8.1h4.6c.4 0 .7.3.7.7s-.3.7-.7.7H4.2c-.9 0-1.6 0-2.1-.1-.6 0-1.3-.1-1.5-.5 0-.1-.1-.2-.2-.3v-.2.3c0-.5-.1-.8-.1-1.2v-.3c0-.6 0-1.5-.1-2.5 0-.5 0-1.1.1-1.8v-2.4c-.1-1.7 0-3.9.1-6.7.1-5.6.1-10.2-.5-14.3 0-.4.2-.8.6-.8.4-.1.8.2.8.6.6 4.2.6 8.9.5 14.5-.1 2.9-.1 5.1-.1 6.7v4.3zM15.8 111.9c1.2.1 3.8.2 4.2.2.4 0 .7.3.7.7 0 .2 0 .4-.2.5s-.3.2-.5.2c-.4 0-3-.1-4.2-.2-1-.1-1.8-.1-2.4 0h-.6c-.4.3-.6.7-.6.7-.1.6-.2 1.4-.3 2.4-.1 1.8-.2 4.1-.2 7.2v.6c0 .7.4 1 1 1h2c.4-.1.8.3.8.7 0 .4-.3.8-.7.8h-1.4c-.3 0-.6.1-.9.1-.6 0-.9.4-.9 1v4.7c.1 2.2.1 3.3.1 3.6v1.3c-.1.8-.1 1.5-.1 2.1 0 .8 0 1.5.1 1.9.1.2.1.3.1.5H18.6c.4 0 .7.3.7.7s-.3.7-.7.7h-1.5c-.9.1-1.7.1-2.3.1-1 0-1.8 0-2.3-.1H12c-.3 0-.6.1-1-.2 0 0-.1-.1-.2-.1-.3-.2-.4-.5-.4-.8-.1-.2-.1-.5-.1-.8-.1-.5-.1-1.2-.1-2 0-.6 0-1.3.1-2.1V136s0-1.6-.1-4.6c-.1-6-.1-11.4.1-15 0-1.1.2-1.9.3-2.5.2-.7.3-1.3.7-1.6s1-.3 1.8-.4h2.7zM29.4 113.9c-.7 0-1 .4-1.1 1-.2 5.2-.2 10.4-.1 18.1v8.5c0 .4-.3.7-.7.7s-.7-.3-.7-.7c0-1.6 0-4.4-.1-8.5-.1-7.8-.1-13 .1-18.1.1-.7-.3-1-1-1-1.1 0-2.1 0-3 .1-.4.1-.8-.3-.8-.7 0-.4.3-.8.7-.8.9-.1 4.3-.1 10.4-.1.4 0 .7.3.7.7s-.3.7-.7.7h-3.7zM37 111c1.7 1.7 2.3 4.2 1.8 7.7-.1.4-.4.7-.8.6-.4-.1-.7-.4-.6-.8.5-3 0-5.1-1.4-6.5-.6-.6.4-1.7 1-1zM42.4 139.3c-.2-.5-.4-.9-.4-1.5 0-.3 0-.6-.1-.8V134.1c0-.4.3-.7.7-.7s.7.3.7.7v2.3c0 .2.1.8.1 1.1.1.2.1.3.1.5s.1.4.2.5c.1.2.1.3.2.5s.1.3.2.5c.8 1.4 2.3 1.9 4.1 1.5 1.8-.4 3.2-1.5 3.5-2.9.2-.7.3-1.3.3-1.8 0-1.1-.2-2-.6-2.9-.5-1-.9-1.6-1.7-2.4-.5-.5-.9-.8-1.2-1.1l-1.3-1.1c-.2-.1-.3-.3-.6-.5-1.6-1.2-2-1.6-3.2-2.9-1.3-1.4-1.7-2.3-2-3.8-.2-.8-.2-1.6-.1-2.4.7-4.5 3.8-7.1 7.1-6.9 3.4.3 5.6 3.4 4.9 8.2-.1.4-.4.7-.8.6-.4-.1-.7-.4-.6-.8.6-4.1-1.2-6.4-3.6-6.6-2.4-.2-4.9 1.8-5.5 5.6-.3 1.7 0 3 1.2 4.4 1.2 1.4 1.8 2 3.7 3.6.2.2.4.3.4.3 1.1.9 1.6 1.4 2.6 2.3s1.4 1.7 2 2.8c.6 1.1.8 2.2.8 3.5 0 1.4-.3 3.4-2 4.8s-4.1 1.9-6.2 1.2c-1.1-.4-1.9-1-2.4-2l-.5-.9zM71.4 117.7c.5-2.3-1-5.8-3.1-5.2-1.2.3-2.1 1.1-2.7 2.4-1.6 3-2.3 8.4-1.5 16.1.5 4.2 1.1 7.2 2.1 8.9 1.6 2.9 3.5 1.3 4.3.1.4-.6.7-1.2.8-2 0-.4.4-.7.8-.6.4 0 .7.4.6.8-.3 1.9-1.4 3.6-3 4.4-1.7.9-3.6.2-4.8-2-2-3.7-3-14-2.4-19.2.4-3.2 1-5.5 1.8-7.2.8-1.5 2.2-2.7 3.6-3.1 1.7-.4 3.3.3 4.1 2.1.9 1.8 1.1 3.4.8 4.8-.1.4-.5.6-.9.6-.4-.1-.6-.5-.5-.9zM84.3 112.2c0 3.3 0 8.3-.1 14.9-.1 6.7-.2 11.6-.2 15 0 .4-.3.7-.7.7s-.7-.3-.7-.7c0-3.1.1-8.1.1-14.8 0-.9-.4-1-1.1-1-.7.1-1.4.1-2.3.1-1 .1-1.7.1-2.3.1-1 0-1 .4-1 1.1v14.9c0 .4-.3.7-.7.7s-.7-.3-.7-.7v-15.1c-.1-6.7-.1-11.7-.1-15.1 0-.4.3-.7.7-.7.4 0 .7.3.7.7 0 3 .1 6.9.1 11.7 0 1.2.4 1 1 1s1.3 0 2.2-.1c1 0 1.8-.1 2.5-.2.7 0 1 .1 1-1.1 0-4.7.1-8.6.1-11.6 0-.4.3-.7.7-.7s.8.5.8.9zM85.8 142.1c-.4-7 0-14.8 1-23.6.2-1.9.6-3.5 1.2-4.8 1-2.1 2.7-2.8 4.5-.4 2.1 3 2.3 7 2.1 15.3-.2 7.7 0 11.4 1.6 13.3.6.7-.5 1.7-1.1.9-2-2.3-2.1-6.5-1.9-14.3 0-1 0-1.8.1-2.3-.1.1-.2.1-.3.1-.4 0-1.4.2-2.9.3-.7.1-1.3.1-1.8.2-.6.1-.9.5-.9 1.1-.3 5-.4 9.7-.2 14.2 0 .4-.3.8-.7.8-.4-.1-.7-.4-.7-.8zm2.9-16.9c.4-.1.8-.1 1.3-.2 1.5-.1 2.5-.2 2.9-.3.1-.1.2 0 .3 0s.2-.4.2-1c-.1-3.5-.3-7.5-2-9.6-1-1.4-1.4-1.2-2 .1-1 2.1-1.3 6-1.6 10-.2.8.1 1.1.9 1zM105.1 113.9c-.7 0-1 .4-1.1 1-.2 5.2-.2 10.4-.1 18.1v8.5c0 .4-.3.7-.7.7-.4 0-.7-.3-.7-.7 0-1.6 0-4.4-.1-8.5 0-7.8 0-13 .1-18.1 0-.7-.3-1-1-1-1.1 0-2.1 0-3 .1-.4.1-.8-.3-.8-.7-.1-.4.3-.8.7-.8.9-.1 4.3-.1 10.4-.1.4 0 .7.3.7.7s-.3.7-.7.7h-3.7z"/><g><defs><path id="SVGID_128_" d="M167.4 81.6c-.3 0-.5-.7-.5-1.6V1.6c0-.9.2-1.6.5-1.6h.8c.3 0 .5.7.5 1.6V80c0 .9-.2 1.6-.5 1.6h-.8z"/></defs><clipPath id="SVGID_1_"><use xlink:href="#SVGID_128_" overflow="visible"/></clipPath><path fill="#ececec" d="M129 8.9h78.5v143H129z"/><defs><path id="SVGID_130_" d="M153.9 156.6s-16 5.6-19.4 7.1c-.7.3-1.1.3-1.2.7v.6c.2 1.1 3.8 1.7 9-.8 7.1-3.4 19.3-7.5 19.3-7.5l-7.7-.1z"/></defs><clipPath id="SVGID_2_"><use xlink:href="#SVGID_130_" overflow="visible"/></clipPath><path clip-path="url(#SVGID_2_)" fill="#b1b1b1" d="M133.3 156.6h.4v10.1h-.4z"/><path clip-path="url(#SVGID_2_)" fill="#b0b0b0" d="M133.7 156.6h.4v10.1h-.4z"/><path clip-path="url(#SVGID_2_)" fill="#afafaf" d="M134.1 156.6h.4v10.1h-.4z"/><path clip-path="url(#SVGID_2_)" fill="#aeaeae" d="M134.5 156.6h.4v10.1h-.4z"/><path clip-path="url(#SVGID_2_)" fill="#adadad" d="M134.9 156.6h.4v10.1h-.4z"/><path clip-path="url(#SVGID_2_)" fill="#acacac" d="M135.4 156.6h.4v10.1h-.4z"/><path clip-path="url(#SVGID_2_)" fill="#ababab" d="M135.8 156.6h.4v10.1h-.4z"/><path clip-path="url(#SVGID_2_)" fill="#aaa" d="M136.2 156.6h.4v10.1h-.4z"/><path clip-path="url(#SVGID_2_)" fill="#a9a9a9" d="M136.6 156.6h.4v10.1h-.4z"/><path clip-path="url(#SVGID_2_)" fill="#a8a8a8" d="M137.1 156.6h.4v10.1h-.4z"/><path clip-path="url(#SVGID_2_)" fill="#a7a7a7" d="M137.5 156.6h.4v10.1h-.4z"/><path clip-path="url(#SVGID_2_)" fill="#a6a6a6" d="M137.9 156.6h.4v10.1h-.4z"/><path clip-path="url(#SVGID_2_)" fill="#a5a5a5" d="M138.3 156.6h.4v10.1h-.4z"/><path clip-path="url(#SVGID_2_)" fill="#a4a4a4" d="M138.8 156.6h.4v10.1h-.4z"/><path clip-path="url(#SVGID_2_)" fill="#a3a3a3" d="M139.2 156.6h.4v10.1h-.4z"/><path clip-path="url(#SVGID_2_)" fill="#a2a2a2" d="M139.6 156.6h.4v10.1h-.4z"/><path clip-path="url(#SVGID_2_)" fill="#a1a1a1" d="M140 156.6h.4v10.1h-.4z"/><path clip-path="url(#SVGID_2_)" fill="#a0a0a0" d="M140.4 156.6h.4v10.1h-.4z"/><path clip-path="url(#SVGID_2_)" fill="#9f9f9f" d="M140.9 156.6h.4v10.1h-.4z"/><path clip-path="url(#SVGID_2_)" fill="#9e9e9e" d="M141.3 156.6h.4v10.1h-.4z"/><path clip-path="url(#SVGID_2_)" fill="#9d9d9d" d="M141.7 156.6h.4v10.1h-.4z"/><path clip-path="url(#SVGID_2_)" fill="#9c9c9c" d="M142.1 156.6h.4v10.1h-.4z"/><path clip-path="url(#SVGID_2_)" fill="#9b9b9b" d="M142.6 156.6h.4v10.1h-.4z"/><path clip-path="url(#SVGID_2_)" fill="#9a9a9a" d="M143 156.6h.4v10.1h-.4z"/><path clip-path="url(#SVGID_2_)" fill="#999" d="M143.4 156.6h.4v10.1h-.4z"/><path clip-path="url(#SVGID_2_)" fill="#989898" d="M143.8 156.6h.4v10.1h-.4z"/><path clip-path="url(#SVGID_2_)" fill="#979797" d="M144.2 156.6h.4v10.1h-.4z"/><path clip-path="url(#SVGID_2_)" fill="#969696" d="M144.7 156.6h.4v10.1h-.4z"/><path clip-path="url(#SVGID_2_)" fill="#959595" d="M145.1 156.6h.4v10.1h-.4z"/><path clip-path="url(#SVGID_2_)" fill="#949494" d="M145.5 156.6h.4v10.1h-.4z"/><path clip-path="url(#SVGID_2_)" fill="#939393" d="M145.9 156.6h.4v10.1h-.4z"/><path clip-path="url(#SVGID_2_)" fill="#929292" d="M146.4 156.6h.4v10.1h-.4z"/><path clip-path="url(#SVGID_2_)" fill="#919191" d="M146.8 156.6h.4v10.1h-.4z"/><path clip-path="url(#SVGID_2_)" fill="#909090" d="M147.2 156.6h.4v10.1h-.4z"/><path clip-path="url(#SVGID_2_)" fill="#8f8f8e" d="M147.6 156.6h.4v10.1h-.4z"/><path clip-path="url(#SVGID_2_)" fill="#8e8e8d" d="M148 156.6h.4v10.1h-.4z"/><path clip-path="url(#SVGID_2_)" fill="#8d8d8c" d="M148.5 156.6h.4v10.1h-.4z"/><path clip-path="url(#SVGID_2_)" fill="#8c8c8b" d="M148.9 156.6h.4v10.1h-.4z"/><path clip-path="url(#SVGID_2_)" fill="#8b8b8a" d="M149.3 156.6h.4v10.1h-.4z"/><path clip-path="url(#SVGID_2_)" fill="#8a8a89" d="M149.7 156.6h.4v10.1h-.4z"/><path clip-path="url(#SVGID_2_)" fill="#898988" d="M150.2 156.6h.4v10.1h-.4z"/><path clip-path="url(#SVGID_2_)" fill="#888887" d="M150.6 156.6h.4v10.1h-.4z"/><path clip-path="url(#SVGID_2_)" fill="#878786" d="M151 156.6h.4v10.1h-.4z"/><path clip-path="url(#SVGID_2_)" fill="#868685" d="M151.4 156.6h.4v10.1h-.4z"/><path clip-path="url(#SVGID_2_)" fill="#858584" d="M151.8 156.6h.4v10.1h-.4z"/><path clip-path="url(#SVGID_2_)" fill="#848483" d="M152.3 156.6h.4v10.1h-.4z"/><path clip-path="url(#SVGID_2_)" fill="#838382" d="M152.7 156.6h.4v10.1h-.4z"/><path clip-path="url(#SVGID_2_)" fill="#828281" d="M153.1 156.6h.4v10.1h-.4z"/><path clip-path="url(#SVGID_2_)" fill="#818180" d="M153.5 156.6h.4v10.1h-.4z"/><path clip-path="url(#SVGID_2_)" fill="#80807f" d="M154 156.6h.4v10.1h-.4z"/><path clip-path="url(#SVGID_2_)" fill="#7f7f7e" d="M154.4 156.6h.4v10.1h-.4z"/><path clip-path="url(#SVGID_2_)" fill="#7e7e7d" d="M154.8 156.6h.4v10.1h-.4z"/><path clip-path="url(#SVGID_2_)" fill="#7d7d7c" d="M155.2 156.6h.4v10.1h-.4z"/><path clip-path="url(#SVGID_2_)" fill="#7c7c7b" d="M155.7 156.6h.4v10.1h-.4z"/><path clip-path="url(#SVGID_2_)" fill="#7b7b7a" d="M156.1 156.6h.4v10.1h-.4z"/><path clip-path="url(#SVGID_2_)" fill="#7a7a79" d="M156.5 156.6h.4v10.1h-.4z"/><path clip-path="url(#SVGID_2_)" fill="#797978" d="M156.9 156.6h.4v10.1h-.4z"/><path clip-path="url(#SVGID_2_)" fill="#787877" d="M157.3 156.6h.4v10.1h-.4z"/><path clip-path="url(#SVGID_2_)" fill="#777776" d="M157.8 156.6h.4v10.1h-.4z"/><path clip-path="url(#SVGID_2_)" fill="#767675" d="M158.2 156.6h.4v10.1h-.4z"/><path clip-path="url(#SVGID_2_)" fill="#757574" d="M158.6 156.6h.4v10.1h-.4z"/><path clip-path="url(#SVGID_2_)" fill="#747473" d="M159 156.6h.4v10.1h-.4z"/><path clip-path="url(#SVGID_2_)" fill="#737372" d="M159.5 156.6h.4v10.1h-.4z"/><path clip-path="url(#SVGID_2_)" fill="#727271" d="M159.9 156.6h.4v10.1h-.4z"/><path clip-path="url(#SVGID_2_)" fill="#717170" d="M160.3 156.6h.4v10.1h-.4z"/><path clip-path="url(#SVGID_2_)" fill="#70706f" d="M160.7 156.6h.4v10.1h-.4z"/><path clip-path="url(#SVGID_2_)" fill="#6f6f6e" d="M161.1 156.6h.4v10.1h-.4z"/><g><defs><path id="SVGID_132_" d="M153.9 156.2s-16 5.6-19.4 7.1.7 3.8 7.8.5c7.1-3.4 19.3-7.5 19.3-7.5l-7.7-.1z"/></defs><clipPath id="SVGID_3_"><use xlink:href="#SVGID_132_" overflow="visible"/></clipPath><path clip-path="url(#SVGID_3_)" fill="#dfe4e6" d="M131.1 162.6l5-2.5 3.5 7.1h-8.5z"/><path clip-path="url(#SVGID_3_)" fill="#dfe4e6" d="M136.1 160.1l.2-.1 3.6 7.2h-.3z"/><path clip-path="url(#SVGID_3_)" fill="#dee3e5" d="M136.3 160l.3-.1 3.6 7.3h-.3z"/><path clip-path="url(#SVGID_3_)" fill="#dde2e4" d="M136.6 159.9l.2-.1 3.7 7.4h-.3z"/><path clip-path="url(#SVGID_3_)" fill="#dce1e3" d="M136.8 159.8l.3-.2 3.7 7.6h-.3z"/><path clip-path="url(#SVGID_3_)" fill="#dbe0e2" d="M137.1 159.6l.2-.1 3.8 7.7h-.3z"/><path clip-path="url(#SVGID_3_)" fill="#dadfe1" d="M137.3 159.5l.3-.1 3.8 7.8h-.3z"/><path clip-path="url(#SVGID_3_)" fill="#d9dee0" d="M137.6 159.4l.2-.1 3.9 7.9h-.3z"/><path clip-path="url(#SVGID_3_)" fill="#d8dddf" d="M137.8 159.3l.3-.2 4 8.1h-.4z"/><path clip-path="url(#SVGID_3_)" fill="#d7dcde" d="M138.1 159.1l.2-.1 4.1 8.2h-.3z"/><path clip-path="url(#SVGID_3_)" fill="#d6dbdd" d="M138.3 159l.3-.1 4.1 8.3h-.3z"/><path clip-path="url(#SVGID_3_)" fill="#d5dadc" d="M138.6 158.9l.2-.1 4.2 8.4h-.3z"/><path clip-path="url(#SVGID_3_)" fill="#d4d9db" d="M138.8 158.8l.3-.2 4.2 8.6h-.3z"/><path clip-path="url(#SVGID_3_)" fill="#d3d8da" d="M139.1 158.6l.2-.1 4.3 8.7h-.3z"/><path clip-path="url(#SVGID_3_)" fill="#d2d7d9" d="M139.3 158.5l.3-.1 4.3 8.8h-.3z"/><path clip-path="url(#SVGID_3_)" fill="#d1d6d8" d="M139.6 158.4l.2-.1 4.4 8.8-.1.1h-.2z"/><path transform="rotate(-26.298 142.121 162.612)" clip-path="url(#SVGID_3_)" fill="#d0d5d7" d="M142 157.7h.3v9.8h-.3z"/><path transform="rotate(-26.298 142.372 162.489)" clip-path="url(#SVGID_3_)" fill="#cfd3d5" d="M142.3 157.6h.3v9.8h-.3z"/><path transform="rotate(-26.298 142.622 162.365)" clip-path="url(#SVGID_3_)" fill="#ced2d4" d="M142.5 157.4h.3v9.8h-.3z"/><path transform="rotate(-26.298 142.873 162.241)" clip-path="url(#SVGID_3_)" fill="#cdd1d3" d="M142.8 157.3h.3v9.8h-.3z"/><path transform="rotate(-26.298 143.123 162.117)" clip-path="url(#SVGID_3_)" fill="#ccd0d2" d="M143 157.2h.3v9.8h-.3z"/><path transform="rotate(-26.298 143.374 161.994)" clip-path="url(#SVGID_3_)" fill="#cbcfd1" d="M143.3 157.1h.3v9.8h-.3z"/><path transform="rotate(-26.298 143.624 161.87)" clip-path="url(#SVGID_3_)" fill="#caced0" d="M143.5 157h.3v9.8h-.3z"/><path transform="rotate(-26.298 143.875 161.746)" clip-path="url(#SVGID_3_)" fill="#c9cdcf" d="M143.8 156.8h.3v9.8h-.3z"/><path transform="rotate(-26.298 144.125 161.623)" clip-path="url(#SVGID_3_)" fill="#c8ccce" d="M144 156.7h.3v9.8h-.3z"/><path transform="rotate(-26.298 144.376 161.499)" clip-path="url(#SVGID_3_)" fill="#c7cbcd" d="M144.3 156.6h.3v9.8h-.3z"/><path transform="rotate(-26.298 144.627 161.375)" clip-path="url(#SVGID_3_)" fill="#c6cacc" d="M144.5 156.5h.3v9.8h-.3z"/><path transform="rotate(-26.298 144.877 161.251)" clip-path="url(#SVGID_3_)" fill="#c5c9cb" d="M144.8 156.3h.3v9.8h-.3z"/><path transform="rotate(-26.298 145.128 161.128)" clip-path="url(#SVGID_3_)" fill="#c4c8ca" d="M145 156.2h.3v9.8h-.3z"/><path transform="rotate(-26.298 145.378 161.004)" clip-path="url(#SVGID_3_)" fill="#c3c7c9" d="M145.3 156.1h.3v9.8h-.3z"/><path transform="rotate(-26.298 145.629 160.88)" clip-path="url(#SVGID_3_)" fill="#c2c6c8" d="M145.5 156h.3v9.8h-.3z"/><path transform="rotate(-26.298 145.879 160.756)" clip-path="url(#SVGID_3_)" fill="#c1c5c7" d="M145.8 155.8h.3v9.8h-.3z"/><path clip-path="url(#SVGID_3_)" fill="#c0c4c6" d="M143.8 156.3l.2-.1h.1l4.4 8.8-.3.1zM144.4 156.2l4.3 8.7-.2.1-4.4-8.8z"/><path clip-path="url(#SVGID_3_)" fill="#bfc3c5" d="M144.7 156.2l4.2 8.6-.2.1-4.3-8.7z"/><path clip-path="url(#SVGID_3_)" fill="#bec2c4" d="M145 156.2l4.2 8.4-.3.2-4.2-8.6z"/><path clip-path="url(#SVGID_3_)" fill="#bdc1c3" d="M145.3 156.2l4.1 8.3-.2.1-4.2-8.4z"/><path clip-path="url(#SVGID_3_)" fill="#bcc0c2" d="M145.6 156.2l4 8.2-.2.1-4.1-8.3z"/><path clip-path="url(#SVGID_3_)" fill="#bbbfc1" d="M145.9 156.2l4 8.1-.3.1-4-8.2z"/><path clip-path="url(#SVGID_3_)" fill="#babec0" d="M146.2 156.2l3.9 8-.2.1-4-8.1z"/><path clip-path="url(#SVGID_3_)" fill="#b9bdbf" d="M146.5 156.2l3.8 7.9-.2.1-3.9-8z"/><path clip-path="url(#SVGID_3_)" fill="#b8bcbe" d="M146.7 156.2l3.9 7.7-.3.2-3.8-7.9z"/><path clip-path="url(#SVGID_3_)" fill="#b7bbbd" d="M147 156.2l3.8 7.6-.2.1-3.9-7.7z"/><path clip-path="url(#SVGID_3_)" fill="#b6babc" d="M147.3 156.2l3.7 7.5-.2.1-3.8-7.6z"/><path clip-path="url(#SVGID_3_)" fill="#b5b9bb" d="M147.6 156.2l3.7 7.4-.3.1-3.7-7.5z"/><path clip-path="url(#SVGID_3_)" fill="#b4b8ba" d="M147.9 156.2l3.6 7.3-.2.1-3.7-7.4z"/><path clip-path="url(#SVGID_3_)" fill="#b3b7b9" d="M148.2 156.2l3.6 7.2-.3.1-3.6-7.3z"/><path clip-path="url(#SVGID_3_)" fill="#b2b6b8" d="M148.5 156.2l3.5 7-.2.2-3.6-7.2z"/><path clip-path="url(#SVGID_3_)" fill="#b1b5b7" d="M148.8 156.2l3.4 6.9-.2.1-3.5-7z"/><path clip-path="url(#SVGID_3_)" fill="#b0b4b6" d="M149.1 156.2l3.4 6.8-.3.1-3.4-6.9z"/><path clip-path="url(#SVGID_3_)" fill="#afb3b5" d="M149.4 156.2l3.3 6.7-.2.1-3.4-6.8z"/><path clip-path="url(#SVGID_3_)" fill="#aeb2b4" d="M149.7 156.2l3.2 6.6-.2.1-3.3-6.7z"/><path clip-path="url(#SVGID_3_)" fill="#adb1b3" d="M150 156.2l3.2 6.5-.3.1-3.2-6.6z"/><path clip-path="url(#SVGID_3_)" fill="#acb0b2" d="M150.3 156.2l3.1 6.3-.2.2-3.2-6.5z"/><path clip-path="url(#SVGID_3_)" fill="#abafb1" d="M150.6 156.2l3 6.2-.2.1-3.1-6.3z"/><path clip-path="url(#SVGID_3_)" fill="#abaeaf" d="M150.8 156.2l3.1 6.1-.3.1-3-6.2z"/><path clip-path="url(#SVGID_3_)" fill="#aaadae" d="M151.1 156.2l3 6-.2.1-3.1-6.1z"/><path clip-path="url(#SVGID_3_)" fill="#a9acad" d="M151.4 156.2l2.9 5.9-.2.1-3-6z"/><path clip-path="url(#SVGID_3_)" fill="#a8abac" d="M151.7 156.2l2.9 5.8-.3.1-2.9-5.9z"/><path clip-path="url(#SVGID_3_)" fill="#a7aaab" d="M152 156.2l2.8 5.7-.2.1-2.9-5.8z"/><path clip-path="url(#SVGID_3_)" fill="#a6a9aa" d="M152.3 156.2l2.7 5.5-.2.2-2.8-5.7z"/><path clip-path="url(#SVGID_3_)" fill="#a5a8a9" d="M152.6 156.2l2.7 5.4-.3.1-2.7-5.5z"/><path clip-path="url(#SVGID_3_)" fill="#a4a7a8" d="M152.9 156.2l2.6 5.3-.2.1-2.7-5.4z"/><path clip-path="url(#SVGID_3_)" fill="#a3a6a7" d="M153.2 156.2l2.6 5.2-.3.1-2.6-5.3z"/><path clip-path="url(#SVGID_3_)" fill="#a2a5a6" d="M153.5 156.2l2.5 5.1-.2.1-2.6-5.2z"/><path clip-path="url(#SVGID_3_)" fill="#a1a4a5" d="M153.8 156.2l2.4 5-.2.1-2.5-5.1z"/><path clip-path="url(#SVGID_3_)" fill="#a0a3a4" d="M154.1 156.2l2.4 4.8-.3.2-2.4-5z"/><path clip-path="url(#SVGID_3_)" fill="#9fa2a3" d="M154.4 156.2l2.3 4.7-.2.1-2.4-4.8z"/><path clip-path="url(#SVGID_3_)" fill="#9ea1a2" d="M154.7 156.2l2.2 4.6-.2.1-2.3-4.7z"/><path clip-path="url(#SVGID_3_)" fill="#9da0a1" d="M154.9 156.2l2.3 4.5-.3.1-2.2-4.6z"/><path clip-path="url(#SVGID_3_)" fill="#9c9fa0" d="M155.2 156.2l2.2 4.4-.2.1-2.3-4.5z"/><path clip-path="url(#SVGID_3_)" fill="#9b9e9f" d="M155.5 156.2l2.1 4.3-.2.1-2.2-4.4z"/><path clip-path="url(#SVGID_3_)" fill="#9a9d9e" d="M155.8 156.2l2.1 4.1-.3.2-2.1-4.3z"/><path clip-path="url(#SVGID_3_)" fill="#999c9d" d="M156.1 156.2l2 4-.2.1-2.1-4.1z"/><path clip-path="url(#SVGID_3_)" fill="#989b9c" d="M156.4 156.2l1.9 3.9-.2.1-2-4z"/><path clip-path="url(#SVGID_3_)" fill="#979a9b" d="M156.7 156.2l1.9 3.8-.3.1-1.9-3.9z"/><path clip-path="url(#SVGID_3_)" fill="#96999a" d="M157 156.2l1.8 3.7-.2.1-1.9-3.8z"/><path clip-path="url(#SVGID_3_)" fill="#96999a" d="M161.6 158.5l-2.8 1.4-1.8-3.7h4.6z"/></g><g><defs><path id="SVGID_134_" d="M183.6 156.6s16 5.6 19.4 7.1c.7.3 1.1.3 1.2.7v.6c-.2 1.1-3.8 1.7-9-.8-7.1-3.4-19.3-7.5-19.3-7.5l7.7-.1z"/></defs><clipPath id="SVGID_4_"><use xlink:href="#SVGID_134_" overflow="visible"/></clipPath><path clip-path="url(#SVGID_4_)" fill="#b1b1b1" d="M203.8 156.6h.4v10.1h-.4z"/><path clip-path="url(#SVGID_4_)" fill="#b0b0b0" d="M203.4 156.6h.4v10.1h-.4z"/><path clip-path="url(#SVGID_4_)" fill="#afafaf" d="M203 156.6h.4v10.1h-.4z"/><path clip-path="url(#SVGID_4_)" fill="#aeaeae" d="M202.6 156.6h.4v10.1h-.4z"/><path clip-path="url(#SVGID_4_)" fill="#adadad" d="M202.1 156.6h.4v10.1h-.4z"/><path clip-path="url(#SVGID_4_)" fill="#acacac" d="M201.7 156.6h.4v10.1h-.4z"/><path clip-path="url(#SVGID_4_)" fill="#ababab" d="M201.3 156.6h.4v10.1h-.4z"/><path clip-path="url(#SVGID_4_)" fill="#aaa" d="M200.9 156.6h.4v10.1h-.4z"/><path clip-path="url(#SVGID_4_)" fill="#a9a9a9" d="M200.5 156.6h.4v10.1h-.4z"/><path clip-path="url(#SVGID_4_)" fill="#a8a8a8" d="M200 156.6h.4v10.1h-.4z"/><path clip-path="url(#SVGID_4_)" fill="#a7a7a7" d="M199.6 156.6h.4v10.1h-.4z"/><path clip-path="url(#SVGID_4_)" fill="#a6a6a6" d="M199.2 156.6h.4v10.1h-.4z"/><path clip-path="url(#SVGID_4_)" fill="#a5a5a5" d="M198.8 156.6h.4v10.1h-.4z"/><path clip-path="url(#SVGID_4_)" fill="#a4a4a4" d="M198.3 156.6h.4v10.1h-.4z"/><path clip-path="url(#SVGID_4_)" fill="#a3a3a3" d="M197.9 156.6h.4v10.1h-.4z"/><path clip-path="url(#SVGID_4_)" fill="#a2a2a2" d="M197.5 156.6h.4v10.1h-.4z"/><path clip-path="url(#SVGID_4_)" fill="#a1a1a1" d="M197.1 156.6h.4v10.1h-.4z"/><path clip-path="url(#SVGID_4_)" fill="#a0a0a0" d="M196.6 156.6h.4v10.1h-.4z"/><path clip-path="url(#SVGID_4_)" fill="#9f9f9f" d="M196.2 156.6h.4v10.1h-.4z"/><path clip-path="url(#SVGID_4_)" fill="#9e9e9e" d="M195.8 156.6h.4v10.1h-.4z"/><path clip-path="url(#SVGID_4_)" fill="#9d9d9d" d="M195.4 156.6h.4v10.1h-.4z"/><path clip-path="url(#SVGID_4_)" fill="#9c9c9c" d="M195 156.6h.4v10.1h-.4z"/><path clip-path="url(#SVGID_4_)" fill="#9b9b9b" d="M194.5 156.6h.4v10.1h-.4z"/><path clip-path="url(#SVGID_4_)" fill="#9a9a9a" d="M194.1 156.6h.4v10.1h-.4z"/><path clip-path="url(#SVGID_4_)" fill="#999" d="M193.7 156.6h.4v10.1h-.4z"/><path clip-path="url(#SVGID_4_)" fill="#989898" d="M193.3 156.6h.4v10.1h-.4z"/><path clip-path="url(#SVGID_4_)" fill="#979797" d="M192.8 156.6h.4v10.1h-.4z"/><path clip-path="url(#SVGID_4_)" fill="#969696" d="M192.4 156.6h.4v10.1h-.4z"/><path clip-path="url(#SVGID_4_)" fill="#959595" d="M192 156.6h.4v10.1h-.4z"/><path clip-path="url(#SVGID_4_)" fill="#949494" d="M191.6 156.6h.4v10.1h-.4z"/><path clip-path="url(#SVGID_4_)" fill="#939393" d="M191.2 156.6h.4v10.1h-.4z"/><path clip-path="url(#SVGID_4_)" fill="#929292" d="M190.7 156.6h.4v10.1h-.4z"/><path clip-path="url(#SVGID_4_)" fill="#919191" d="M190.3 156.6h.4v10.1h-.4z"/><path clip-path="url(#SVGID_4_)" fill="#909090" d="M189.9 156.6h.4v10.1h-.4z"/><path clip-path="url(#SVGID_4_)" fill="#8f8f8e" d="M189.5 156.6h.4v10.1h-.4z"/><path clip-path="url(#SVGID_4_)" fill="#8e8e8d" d="M189 156.6h.4v10.1h-.4z"/><path clip-path="url(#SVGID_4_)" fill="#8d8d8c" d="M188.6 156.6h.4v10.1h-.4z"/><path clip-path="url(#SVGID_4_)" fill="#8c8c8b" d="M188.2 156.6h.4v10.1h-.4z"/><path clip-path="url(#SVGID_4_)" fill="#8b8b8a" d="M187.8 156.6h.4v10.1h-.4z"/><path clip-path="url(#SVGID_4_)" fill="#8a8a89" d="M187.4 156.6h.4v10.1h-.4z"/><path clip-path="url(#SVGID_4_)" fill="#898988" d="M186.9 156.6h.4v10.1h-.4z"/><path clip-path="url(#SVGID_4_)" fill="#888887" d="M186.5 156.6h.4v10.1h-.4z"/><path clip-path="url(#SVGID_4_)" fill="#878786" d="M186.1 156.6h.4v10.1h-.4z"/><path clip-path="url(#SVGID_4_)" fill="#868685" d="M185.7 156.6h.4v10.1h-.4z"/><path clip-path="url(#SVGID_4_)" fill="#858584" d="M185.2 156.6h.4v10.1h-.4z"/><path clip-path="url(#SVGID_4_)" fill="#848483" d="M184.8 156.6h.4v10.1h-.4z"/><path clip-path="url(#SVGID_4_)" fill="#838382" d="M184.4 156.6h.4v10.1h-.4z"/><path clip-path="url(#SVGID_4_)" fill="#828281" d="M184 156.6h.4v10.1h-.4z"/><path clip-path="url(#SVGID_4_)" fill="#818180" d="M183.6 156.6h.4v10.1h-.4z"/><path clip-path="url(#SVGID_4_)" fill="#80807f" d="M183.1 156.6h.4v10.1h-.4z"/><path clip-path="url(#SVGID_4_)" fill="#7f7f7e" d="M182.7 156.6h.4v10.1h-.4z"/><path clip-path="url(#SVGID_4_)" fill="#7e7e7d" d="M182.3 156.6h.4v10.1h-.4z"/><path clip-path="url(#SVGID_4_)" fill="#7d7d7c" d="M181.9 156.6h.4v10.1h-.4z"/><path clip-path="url(#SVGID_4_)" fill="#7c7c7b" d="M181.4 156.6h.4v10.1h-.4z"/><path clip-path="url(#SVGID_4_)" fill="#7b7b7a" d="M181 156.6h.4v10.1h-.4z"/><path clip-path="url(#SVGID_4_)" fill="#7a7a79" d="M180.6 156.6h.4v10.1h-.4z"/><path clip-path="url(#SVGID_4_)" fill="#797978" d="M180.2 156.6h.4v10.1h-.4z"/><path clip-path="url(#SVGID_4_)" fill="#787877" d="M179.7 156.6h.4v10.1h-.4z"/><path clip-path="url(#SVGID_4_)" fill="#777776" d="M179.3 156.6h.4v10.1h-.4z"/><path clip-path="url(#SVGID_4_)" fill="#767675" d="M178.9 156.6h.4v10.1h-.4z"/><path clip-path="url(#SVGID_4_)" fill="#757574" d="M178.5 156.6h.4v10.1h-.4z"/><path clip-path="url(#SVGID_4_)" fill="#747473" d="M178.1 156.6h.4v10.1h-.4z"/><path clip-path="url(#SVGID_4_)" fill="#737372" d="M177.6 156.6h.4v10.1h-.4z"/><path clip-path="url(#SVGID_4_)" fill="#727271" d="M177.2 156.6h.4v10.1h-.4z"/><path clip-path="url(#SVGID_4_)" fill="#717170" d="M176.8 156.6h.4v10.1h-.4z"/><path clip-path="url(#SVGID_4_)" fill="#70706f" d="M176.4 156.6h.4v10.1h-.4z"/><path clip-path="url(#SVGID_4_)" fill="#6f6f6e" d="M175.9 156.6h.4v10.1h-.4z"/></g><g><defs><path id="SVGID_136_" d="M183.6 156.2s16 5.6 19.4 7.1c3.4 1.5-.7 3.8-7.8.5-7.1-3.4-19.3-7.5-19.3-7.5l7.7-.1z"/></defs><clipPath id="SVGID_5_"><use xlink:href="#SVGID_136_" overflow="visible"/></clipPath><path clip-path="url(#SVGID_5_)" fill="#dfe4e6" d="M198 167.2l3.4-7.1 5 2.5v4.6zM197.6 167.2l3.6-7.2.2.1-3.4 7.1z"/><path clip-path="url(#SVGID_5_)" fill="#dee3e5" d="M197.3 167.2l3.6-7.3.3.1-3.6 7.2z"/><path clip-path="url(#SVGID_5_)" fill="#dde2e4" d="M197 167.2l3.7-7.4.2.1-3.6 7.3z"/><path clip-path="url(#SVGID_5_)" fill="#dce1e3" d="M196.7 167.2l3.7-7.6.3.2-3.7 7.4z"/><path clip-path="url(#SVGID_5_)" fill="#dbe0e2" d="M196.4 167.2l3.8-7.7.2.1-3.7 7.6z"/><path clip-path="url(#SVGID_5_)" fill="#dadfe1" d="M196.1 167.2l3.8-7.8.3.1-3.8 7.7z"/><path clip-path="url(#SVGID_5_)" fill="#d9dee0" d="M195.8 167.2l3.9-7.9.2.1-3.8 7.8z"/><path clip-path="url(#SVGID_5_)" fill="#d8dddf" d="M195.5 167.2l3.9-8.1.3.2-3.9 7.9z"/><path clip-path="url(#SVGID_5_)" fill="#d7dcde" d="M195.1 167.2l4.1-8.2.2.1-3.9 8.1z"/><path clip-path="url(#SVGID_5_)" fill="#d6dbdd" d="M194.8 167.2l4.1-8.3.3.1-4.1 8.2z"/><path clip-path="url(#SVGID_5_)" fill="#d5dadc" d="M194.5 167.2l4.2-8.4.2.1-4.1 8.3z"/><path clip-path="url(#SVGID_5_)" fill="#d4d9db" d="M194.2 167.2l4.2-8.6.3.2-4.2 8.4z"/><path clip-path="url(#SVGID_5_)" fill="#d3d8da" d="M193.9 167.2l4.3-8.7.2.1-4.2 8.6z"/><path clip-path="url(#SVGID_5_)" fill="#d2d7d9" d="M193.6 167.2l4.3-8.8.3.1-4.3 8.7z"/><path clip-path="url(#SVGID_5_)" fill="#d1d6d8" d="M193.4 167.2l-.1-.1 4.4-8.8.2.1-4.3 8.8z"/><path transform="rotate(-63.705 195.377 162.624)" clip-path="url(#SVGID_5_)" fill="#d0d5d7" d="M190.4 162.5h9.8v.3h-9.8z"/><path transform="rotate(-63.705 195.126 162.5)" clip-path="url(#SVGID_5_)" fill="#cfd3d5" d="M190.2 162.4h9.8v.3h-9.8z"/><path transform="rotate(-63.705 194.876 162.377)" clip-path="url(#SVGID_5_)" fill="#ced2d4" d="M189.9 162.2h9.8v.3h-9.8z"/><path transform="rotate(-63.705 194.625 162.253)" clip-path="url(#SVGID_5_)" fill="#cdd1d3" d="M189.7 162.1h9.8v.3h-9.8z"/><path transform="rotate(-63.705 194.375 162.13)" clip-path="url(#SVGID_5_)" fill="#ccd0d2" d="M189.4 162h9.8v.3h-9.8z"/><path transform="rotate(-63.705 194.125 162.006)" clip-path="url(#SVGID_5_)" fill="#cbcfd1" d="M189.2 161.9h9.8v.3h-9.8z"/><path transform="rotate(-63.705 193.874 161.882)" clip-path="url(#SVGID_5_)" fill="#caced0" d="M188.9 161.7h9.8v.3h-9.8z"/><path transform="rotate(-63.705 193.624 161.758)" clip-path="url(#SVGID_5_)" fill="#c9cdcf" d="M188.7 161.6h9.8v.3h-9.8z"/><path transform="rotate(-63.705 193.373 161.634)" clip-path="url(#SVGID_5_)" fill="#c8ccce" d="M188.4 161.5h9.8v.3h-9.8z"/><path transform="rotate(-63.705 193.122 161.51)" clip-path="url(#SVGID_5_)" fill="#c7cbcd" d="M188.2 161.4h9.8v.3h-9.8z"/><path transform="rotate(-63.705 192.872 161.387)" clip-path="url(#SVGID_5_)" fill="#c6cacc" d="M187.9 161.2h9.8v.3h-9.8z"/><path transform="rotate(-63.705 192.621 161.263)" clip-path="url(#SVGID_5_)" fill="#c5c9cb" d="M187.7 161.1h9.8v.3h-9.8z"/><path transform="rotate(-63.705 192.37 161.14)" clip-path="url(#SVGID_5_)" fill="#c4c8ca" d="M187.4 161h9.8v.3h-9.8z"/><path transform="rotate(-63.705 192.12 161.015)" clip-path="url(#SVGID_5_)" fill="#c3c7c9" d="M187.2 160.9h9.8v.3h-9.8z"/><path transform="rotate(-63.705 191.87 160.892)" clip-path="url(#SVGID_5_)" fill="#c2c6c8" d="M186.9 160.7h9.8v.3h-9.8z"/><path transform="rotate(-63.705 191.619 160.768)" clip-path="url(#SVGID_5_)" fill="#c1c5c7" d="M186.7 160.6h9.8v.3h-9.8z"/><path clip-path="url(#SVGID_5_)" fill="#c0c4c6" d="M189.3 165.1l-.2-.1 4.3-8.8h.1l.2.1zM189.1 165l-.3-.1 4.3-8.7h.3z"/><path clip-path="url(#SVGID_5_)" fill="#bfc3c5" d="M188.8 164.9l-.2-.1 4.2-8.6h.3z"/><path clip-path="url(#SVGID_5_)" fill="#bec2c4" d="M188.6 164.8l-.3-.2 4.2-8.4h.3z"/><path clip-path="url(#SVGID_5_)" fill="#bdc1c3" d="M188.3 164.6l-.2-.1 4.1-8.3h.3z"/><path clip-path="url(#SVGID_5_)" fill="#bcc0c2" d="M188.1 164.5l-.2-.1 4-8.2h.3z"/><path clip-path="url(#SVGID_5_)" fill="#bbbfc1" d="M187.9 164.4l-.3-.1 4-8.1h.3z"/><path clip-path="url(#SVGID_5_)" fill="#babec0" d="M187.6 164.3l-.2-.1 4-8h.2z"/><path clip-path="url(#SVGID_5_)" fill="#b9bdbf" d="M187.4 164.2l-.2-.1 3.9-7.9h.3z"/><path clip-path="url(#SVGID_5_)" fill="#b8bcbe" d="M187.2 164.1l-.3-.2 3.9-7.7h.3z"/><path clip-path="url(#SVGID_5_)" fill="#b7bbbd" d="M186.9 163.9l-.2-.1 3.8-7.6h.3z"/><path clip-path="url(#SVGID_5_)" fill="#b6babc" d="M186.7 163.8l-.2-.1 3.7-7.5h.3z"/><path clip-path="url(#SVGID_5_)" fill="#b5b9bb" d="M186.5 163.7l-.3-.1 3.7-7.4h.3z"/><path clip-path="url(#SVGID_5_)" fill="#b4b8ba" d="M186.2 163.6l-.2-.1 3.6-7.3h.3z"/><path clip-path="url(#SVGID_5_)" fill="#b3b7b9" d="M186 163.5l-.2-.1 3.5-7.2h.3z"/><path clip-path="url(#SVGID_5_)" fill="#b2b6b8" d="M185.8 163.4l-.3-.2 3.5-7h.3z"/><path clip-path="url(#SVGID_5_)" fill="#b1b5b7" d="M185.5 163.2l-.2-.1 3.4-6.9h.3z"/><path clip-path="url(#SVGID_5_)" fill="#b0b4b6" d="M185.3 163.1l-.2-.1 3.3-6.8h.3z"/><path clip-path="url(#SVGID_5_)" fill="#afb3b5" d="M185.1 163l-.3-.1 3.3-6.7h.3z"/><path clip-path="url(#SVGID_5_)" fill="#aeb2b4" d="M184.8 162.9l-.2-.1 3.2-6.6h.3z"/><path clip-path="url(#SVGID_5_)" fill="#adb1b3" d="M184.6 162.8l-.3-.1 3.2-6.5h.3z"/><path clip-path="url(#SVGID_5_)" fill="#acb0b2" d="M184.3 162.7l-.2-.2 3.2-6.3h.2z"/><path clip-path="url(#SVGID_5_)" fill="#abafb1" d="M184.1 162.5l-.2-.1 3.1-6.2h.3z"/><path clip-path="url(#SVGID_5_)" fill="#abaeaf" d="M183.9 162.4l-.3-.1 3.1-6.1h.3z"/><path clip-path="url(#SVGID_5_)" fill="#aaadae" d="M183.6 162.3l-.2-.1 3-6h.3z"/><path clip-path="url(#SVGID_5_)" fill="#a9acad" d="M183.4 162.2l-.2-.1 2.9-5.9h.3z"/><path clip-path="url(#SVGID_5_)" fill="#a8abac" d="M183.2 162.1l-.3-.1 2.9-5.8h.3z"/><path clip-path="url(#SVGID_5_)" fill="#a7aaab" d="M182.9 162l-.2-.1 2.8-5.7h.3z"/><path clip-path="url(#SVGID_5_)" fill="#a6a9aa" d="M182.7 161.9l-.2-.2 2.7-5.5h.3z"/><path clip-path="url(#SVGID_5_)" fill="#a5a8a9" d="M182.5 161.7l-.3-.1 2.7-5.4h.3z"/><path clip-path="url(#SVGID_5_)" fill="#a4a7a8" d="M182.2 161.6l-.2-.1 2.6-5.3h.3z"/><path clip-path="url(#SVGID_5_)" fill="#a3a6a7" d="M182 161.5l-.2-.1 2.5-5.2h.3z"/><path clip-path="url(#SVGID_5_)" fill="#a2a5a6" d="M181.8 161.4l-.3-.1 2.5-5.1h.3z"/><path clip-path="url(#SVGID_5_)" fill="#a1a4a5" d="M181.5 161.3l-.2-.1 2.4-5h.3z"/><path clip-path="url(#SVGID_5_)" fill="#a0a3a4" d="M181.3 161.2l-.2-.2 2.3-4.8h.3z"/><path clip-path="url(#SVGID_5_)" fill="#9fa2a3" d="M181.1 161l-.3-.1 2.4-4.7h.2z"/><path clip-path="url(#SVGID_5_)" fill="#9ea1a2" d="M180.8 160.9l-.2-.1 2.3-4.6h.3z"/><path clip-path="url(#SVGID_5_)" fill="#9da0a1" d="M180.6 160.8l-.3-.1 2.3-4.5h.3z"/><path clip-path="url(#SVGID_5_)" fill="#9c9fa0" d="M180.3 160.7l-.2-.1 2.2-4.4h.3z"/><path clip-path="url(#SVGID_5_)" fill="#9b9e9f" d="M180.1 160.6l-.2-.1 2.1-4.3h.3z"/><path clip-path="url(#SVGID_5_)" fill="#9a9d9e" d="M179.9 160.5l-.3-.2 2.1-4.1h.3z"/><path clip-path="url(#SVGID_5_)" fill="#999c9d" d="M179.6 160.3l-.2-.1 2-4h.3z"/><path clip-path="url(#SVGID_5_)" fill="#989b9c" d="M179.4 160.2l-.2-.1 1.9-3.9h.3z"/><path clip-path="url(#SVGID_5_)" fill="#979a9b" d="M179.2 160.1l-.3-.1 1.9-3.8h.3z"/><path clip-path="url(#SVGID_5_)" fill="#96999a" d="M178.9 160l-.2-.1 1.8-3.7h.3zM178.7 159.9l-2.8-1.4v-2.3h4.6z"/></g><g><defs><path id="SVGID_138_" d="M208.9 153.5c0 .4-.9-.6-1.8-.6H129c-.9 0-1.6.6-1.6.2v-.6c0-.4 0-2.1 1.6-2.1h78.1c1.6 0 1.8 1.6 1.8 1.9v1.2z"/></defs><clipPath id="SVGID_6_"><use xlink:href="#SVGID_138_" overflow="visible"/></clipPath><path clip-path="url(#SVGID_6_)" fill="#848687" d="M127.3 150.4h81.6v.1h-81.6z"/><path clip-path="url(#SVGID_6_)" fill="#858788" d="M127.3 150.5h81.6v.1h-81.6z"/><path clip-path="url(#SVGID_6_)" fill="#868889" d="M127.3 150.5h81.6v.1h-81.6z"/><path clip-path="url(#SVGID_6_)" fill="#87898a" d="M127.3 150.6h81.6v.1h-81.6z"/><path clip-path="url(#SVGID_6_)" fill="#888a8b" d="M127.3 150.7h81.6v.1h-81.6z"/><path clip-path="url(#SVGID_6_)" fill="#898b8c" d="M127.3 150.8h81.6v.1h-81.6z"/><path clip-path="url(#SVGID_6_)" fill="#8a8c8d" d="M127.3 150.9h81.6v.1h-81.6z"/><path clip-path="url(#SVGID_6_)" fill="#8b8d8e" d="M127.3 151h81.6v.1h-81.6z"/><path clip-path="url(#SVGID_6_)" fill="#8c8f90" d="M127.3 151.1h81.6v.1h-81.6z"/><path clip-path="url(#SVGID_6_)" fill="#8d9091" d="M127.3 151.2h81.6v.1h-81.6z"/><path clip-path="url(#SVGID_6_)" fill="#8e9192" d="M127.3 151.3h81.6v.1h-81.6z"/><path clip-path="url(#SVGID_6_)" fill="#8f9293" d="M127.3 151.3h81.6v.1h-81.6z"/><path clip-path="url(#SVGID_6_)" fill="#909394" d="M127.3 151.4h81.6v.1h-81.6z"/><path clip-path="url(#SVGID_6_)" fill="#919495" d="M127.3 151.5h81.6v.1h-81.6z"/><path clip-path="url(#SVGID_6_)" fill="#929596" d="M127.3 151.6h81.6v.1h-81.6z"/><path clip-path="url(#SVGID_6_)" fill="#939697" d="M127.3 151.7h81.6v.1h-81.6z"/><path clip-path="url(#SVGID_6_)" fill="#949798" d="M127.3 151.8h81.6v.1h-81.6z"/><path clip-path="url(#SVGID_6_)" fill="#959899" d="M127.3 151.9h81.6v.1h-81.6z"/><path clip-path="url(#SVGID_6_)" fill="#96999a" d="M127.3 152h81.6v.1h-81.6z"/></g><g><defs><path id="SVGID_140_" d="M209 155.3c0 .9-.7 1.6-1.6 1.6H129c-.9 0-1.6-.7-1.6-1.6v-2.7c0-.9.7-1.6 1.6-1.6h78.4c.9 0 1.6.7 1.6 1.6v2.7z"/></defs><clipPath id="SVGID_7_"><use xlink:href="#SVGID_140_" overflow="visible"/></clipPath><path clip-path="url(#SVGID_7_)" fill="#d9dee0" d="M127.3 151.1h81.6v.1h-81.6z"/><path clip-path="url(#SVGID_7_)" fill="#d8dddf" d="M127.3 151.2h81.6v.1h-81.6z"/><path clip-path="url(#SVGID_7_)" fill="#d7dcde" d="M127.3 151.3h81.6v.1h-81.6z"/><path clip-path="url(#SVGID_7_)" fill="#d6dbdd" d="M127.3 151.4h81.6v.1h-81.6z"/><path clip-path="url(#SVGID_7_)" fill="#d5dadc" d="M127.3 151.5h81.6v.1h-81.6z"/><path clip-path="url(#SVGID_7_)" fill="#d4d9db" d="M127.3 151.6h81.6v.1h-81.6z"/><path clip-path="url(#SVGID_7_)" fill="#d3d8da" d="M127.3 151.7h81.6v.1h-81.6z"/><path clip-path="url(#SVGID_7_)" fill="#d2d7d9" d="M127.3 151.8h81.6v.1h-81.6z"/><path clip-path="url(#SVGID_7_)" fill="#d1d6d8" d="M127.3 151.9h81.6v.1h-81.6z"/><path clip-path="url(#SVGID_7_)" fill="#d0d5d7" d="M127.3 152h81.6v.1h-81.6z"/><path clip-path="url(#SVGID_7_)" fill="#cfd3d5" d="M127.3 152.1h81.6v.1h-81.6z"/><path clip-path="url(#SVGID_7_)" fill="#ced2d4" d="M127.3 152.2h81.6v.1h-81.6z"/><path clip-path="url(#SVGID_7_)" fill="#cdd1d3" d="M127.3 152.3h81.6v.1h-81.6z"/><path clip-path="url(#SVGID_7_)" fill="#ccd0d2" d="M127.3 152.4h81.6v.1h-81.6z"/><path clip-path="url(#SVGID_7_)" fill="#cbcfd1" d="M127.3 152.5h81.6v.1h-81.6z"/><path clip-path="url(#SVGID_7_)" fill="#caced0" d="M127.3 152.6h81.6v.1h-81.6z"/><path clip-path="url(#SVGID_7_)" fill="#c9cdcf" d="M127.3 152.7h81.6v.1h-81.6z"/><path clip-path="url(#SVGID_7_)" fill="#c8ccce" d="M127.3 152.8h81.6v.1h-81.6z"/><path clip-path="url(#SVGID_7_)" fill="#c7cbcd" d="M127.3 152.9h81.6v.1h-81.6z"/><path clip-path="url(#SVGID_7_)" fill="#c6cacc" d="M127.3 153h81.6v.1h-81.6z"/><path clip-path="url(#SVGID_7_)" fill="#c5c9cb" d="M127.3 153.1h81.6v.1h-81.6z"/><path clip-path="url(#SVGID_7_)" fill="#c4c8ca" d="M127.3 153.2h81.6v.1h-81.6z"/><path clip-path="url(#SVGID_7_)" fill="#c3c7c9" d="M127.3 153.3h81.6v.1h-81.6z"/><path clip-path="url(#SVGID_7_)" fill="#c2c6c8" d="M127.3 153.4h81.6v.1h-81.6z"/><path clip-path="url(#SVGID_7_)" fill="#c1c5c7" d="M127.3 153.5h81.6v.1h-81.6z"/><path clip-path="url(#SVGID_7_)" fill="#c0c4c6" d="M127.3 153.6h81.6v.1h-81.6z"/><path clip-path="url(#SVGID_7_)" fill="#96999a" d="M127.3 154.1h81.6v.1h-81.6z"/><path clip-path="url(#SVGID_7_)" fill="#979a9b" d="M127.3 154.1h81.6v.1h-81.6z"/><path clip-path="url(#SVGID_7_)" fill="#989b9c" d="M127.3 154.2h81.6v.1h-81.6z"/><path clip-path="url(#SVGID_7_)" fill="#999c9d" d="M127.3 154.2h81.6v.1h-81.6z"/><path clip-path="url(#SVGID_7_)" fill="#9a9d9e" d="M127.3 154.3h81.6v.1h-81.6z"/><path clip-path="url(#SVGID_7_)" fill="#9b9e9f" d="M127.3 154.3h81.6v.1h-81.6z"/><path clip-path="url(#SVGID_7_)" fill="#9c9fa0" d="M127.3 154.4h81.6v.1h-81.6z"/><path clip-path="url(#SVGID_7_)" fill="#9da0a1" d="M127.3 154.5h81.6v.1h-81.6z"/><path clip-path="url(#SVGID_7_)" fill="#9ea1a2" d="M127.3 154.5h81.6v.1h-81.6z"/><path clip-path="url(#SVGID_7_)" fill="#9fa2a3" d="M127.3 154.6h81.6v.1h-81.6z"/><path clip-path="url(#SVGID_7_)" fill="#a0a3a4" d="M127.3 154.6h81.6v.1h-81.6z"/><path clip-path="url(#SVGID_7_)" fill="#a1a4a5" d="M127.3 154.7h81.6v.1h-81.6z"/><path clip-path="url(#SVGID_7_)" fill="#a2a5a6" d="M127.3 154.8h81.6v.1h-81.6z"/><path clip-path="url(#SVGID_7_)" fill="#a3a6a7" d="M127.3 154.8h81.6v.1h-81.6z"/><path clip-path="url(#SVGID_7_)" fill="#a4a7a8" d="M127.3 154.9h81.6v.1h-81.6z"/><path clip-path="url(#SVGID_7_)" fill="#a5a8a9" d="M127.3 154.9h81.6v.1h-81.6z"/><path clip-path="url(#SVGID_7_)" fill="#a6a9aa" d="M127.3 155h81.6v.1h-81.6z"/><path clip-path="url(#SVGID_7_)" fill="#a7aaab" d="M127.3 155h81.6v.1h-81.6z"/><path clip-path="url(#SVGID_7_)" fill="#a8abac" d="M127.3 155.1h81.6v.1h-81.6z"/><path clip-path="url(#SVGID_7_)" fill="#a9acad" d="M127.3 155.2h81.6v.1h-81.6z"/><path clip-path="url(#SVGID_7_)" fill="#aaadae" d="M127.3 155.2h81.6v.1h-81.6z"/><path clip-path="url(#SVGID_7_)" fill="#abaeaf" d="M127.3 155.3h81.6v.1h-81.6z"/><path clip-path="url(#SVGID_7_)" fill="#abafb1" d="M127.3 155.3h81.6v.1h-81.6z"/><path clip-path="url(#SVGID_7_)" fill="#acb0b2" d="M127.3 155.4h81.6v.1h-81.6z"/><path clip-path="url(#SVGID_7_)" fill="#adb1b3" d="M127.3 155.5h81.6v.1h-81.6z"/><path clip-path="url(#SVGID_7_)" fill="#aeb2b4" d="M127.3 155.5h81.6v.1h-81.6z"/><path clip-path="url(#SVGID_7_)" fill="#afb3b5" d="M127.3 155.6h81.6v.1h-81.6z"/><path clip-path="url(#SVGID_7_)" fill="#b0b4b6" d="M127.3 155.6h81.6v.1h-81.6z"/><path clip-path="url(#SVGID_7_)" fill="#b1b5b7" d="M127.3 155.7h81.6v.1h-81.6z"/><path clip-path="url(#SVGID_7_)" fill="#b2b6b8" d="M127.3 155.7h81.6v.1h-81.6z"/><path clip-path="url(#SVGID_7_)" fill="#b3b7b9" d="M127.3 155.8h81.6v.1h-81.6z"/><path clip-path="url(#SVGID_7_)" fill="#b4b8ba" d="M127.3 155.9h81.6v.1h-81.6z"/><path clip-path="url(#SVGID_7_)" fill="#b5b9bb" d="M127.3 155.9h81.6v.1h-81.6z"/><path clip-path="url(#SVGID_7_)" fill="#b6babc" d="M127.3 156h81.6v.1h-81.6z"/><path clip-path="url(#SVGID_7_)" fill="#b7bbbd" d="M127.3 156h81.6v.1h-81.6z"/><path clip-path="url(#SVGID_7_)" fill="#b8bcbe" d="M127.3 156.1h81.6v.1h-81.6z"/><path clip-path="url(#SVGID_7_)" fill="#b9bdbf" d="M127.3 156.1h81.6v.1h-81.6z"/><path clip-path="url(#SVGID_7_)" fill="#babec0" d="M127.3 156.2h81.6v.1h-81.6z"/><path clip-path="url(#SVGID_7_)" fill="#bbbfc1" d="M127.3 156.3h81.6v.1h-81.6z"/><path clip-path="url(#SVGID_7_)" fill="#bcc0c2" d="M127.3 156.3h81.6v.1h-81.6z"/><path clip-path="url(#SVGID_7_)" fill="#bdc1c3" d="M127.3 156.4h81.6v.1h-81.6z"/><path clip-path="url(#SVGID_7_)" fill="#bec2c4" d="M127.3 156.4h81.6v.1h-81.6z"/><path clip-path="url(#SVGID_7_)" fill="#bfc3c5" d="M127.3 156.5h81.6v.1h-81.6z"/><path clip-path="url(#SVGID_7_)" fill="#c0c4c6" d="M127.3 156.6h81.6v.1h-81.6z"/></g><g><defs><path id="SVGID_142_" d="M209 9c0 .9-.7 1.6-1.6 1.6H129c-.9 0-1.6-.7-1.6-1.6V6.4c0-.9.7-1.6 1.6-1.6h78.4c.9 0 1.6.7 1.6 1.6V9z"/></defs><clipPath id="SVGID_8_"><use xlink:href="#SVGID_142_" overflow="visible"/></clipPath><path clip-path="url(#SVGID_8_)" fill="#d9dee0" d="M127.3 4.8h81.6v.1h-81.6z"/><path clip-path="url(#SVGID_8_)" fill="#d8dddf" d="M127.3 4.9h81.6V5h-81.6z"/><path clip-path="url(#SVGID_8_)" fill="#d7dcde" d="M127.3 5h81.6v.1h-81.6z"/><path clip-path="url(#SVGID_8_)" fill="#d6dbdd" d="M127.3 5.1h81.6v.1h-81.6z"/><path clip-path="url(#SVGID_8_)" fill="#d5dadc" d="M127.3 5.2h81.6v.1h-81.6z"/><path clip-path="url(#SVGID_8_)" fill="#d4d9db" d="M127.3 5.3h81.6v.1h-81.6z"/><path clip-path="url(#SVGID_8_)" fill="#d3d8da" d="M127.3 5.4h81.6v.1h-81.6z"/><path clip-path="url(#SVGID_8_)" fill="#d2d7d9" d="M127.3 5.5h81.6v.1h-81.6z"/><path clip-path="url(#SVGID_8_)" fill="#d1d6d8" d="M127.3 5.6h81.6v.1h-81.6z"/><path clip-path="url(#SVGID_8_)" fill="#d0d5d7" d="M127.3 5.7h81.6v.1h-81.6z"/><path clip-path="url(#SVGID_8_)" fill="#cfd3d5" d="M127.3 5.8h81.6v.1h-81.6z"/><path clip-path="url(#SVGID_8_)" fill="#ced2d4" d="M127.3 5.9h81.6V6h-81.6z"/><path clip-path="url(#SVGID_8_)" fill="#cdd1d3" d="M127.3 6h81.6v.1h-81.6z"/><path clip-path="url(#SVGID_8_)" fill="#ccd0d2" d="M127.3 6.1h81.6v.1h-81.6z"/><path clip-path="url(#SVGID_8_)" fill="#cbcfd1" d="M127.3 6.2h81.6v.1h-81.6z"/><path clip-path="url(#SVGID_8_)" fill="#caced0" d="M127.3 6.3h81.6v.1h-81.6z"/><path clip-path="url(#SVGID_8_)" fill="#c9cdcf" d="M127.3 6.4h81.6v.1h-81.6z"/><path clip-path="url(#SVGID_8_)" fill="#c8ccce" d="M127.3 6.5h81.6v.1h-81.6z"/><path clip-path="url(#SVGID_8_)" fill="#c7cbcd" d="M127.3 6.6h81.6v.1h-81.6z"/><path clip-path="url(#SVGID_8_)" fill="#c6cacc" d="M127.3 6.7h81.6v.1h-81.6z"/><path clip-path="url(#SVGID_8_)" fill="#c5c9cb" d="M127.3 6.8h81.6v.1h-81.6z"/><path clip-path="url(#SVGID_8_)" fill="#c4c8ca" d="M127.3 6.9h81.6V7h-81.6z"/><path clip-path="url(#SVGID_8_)" fill="#c3c7c9" d="M127.3 7h81.6v.1h-81.6z"/><path clip-path="url(#SVGID_8_)" fill="#c2c6c8" d="M127.3 7.1h81.6v.1h-81.6z"/><path clip-path="url(#SVGID_8_)" fill="#c1c5c7" d="M127.3 7.2h81.6v.1h-81.6z"/><path clip-path="url(#SVGID_8_)" fill="#c0c4c6" d="M127.3 7.3h81.6v.1h-81.6z"/><path clip-path="url(#SVGID_8_)" fill="#96999a" d="M127.3 7.7h81.6v.1h-81.6z"/><path clip-path="url(#SVGID_8_)" fill="#979a9b" d="M127.3 7.8h81.6v.1h-81.6z"/><path clip-path="url(#SVGID_8_)" fill="#989b9c" d="M127.3 7.9h81.6V8h-81.6z"/><path clip-path="url(#SVGID_8_)" fill="#999c9d" d="M127.3 7.9h81.6V8h-81.6z"/><path clip-path="url(#SVGID_8_)" fill="#9a9d9e" d="M127.3 8h81.6v.1h-81.6z"/><path clip-path="url(#SVGID_8_)" fill="#9b9e9f" d="M127.3 8h81.6v.1h-81.6z"/><path clip-path="url(#SVGID_8_)" fill="#9c9fa0" d="M127.3 8.1h81.6v.1h-81.6z"/><path clip-path="url(#SVGID_8_)" fill="#9da0a1" d="M127.3 8.2h81.6v.1h-81.6z"/><path clip-path="url(#SVGID_8_)" fill="#9ea1a2" d="M127.3 8.2h81.6v.1h-81.6z"/><path clip-path="url(#SVGID_8_)" fill="#9fa2a3" d="M127.3 8.3h81.6v.1h-81.6z"/><path clip-path="url(#SVGID_8_)" fill="#a0a3a4" d="M127.3 8.3h81.6v.1h-81.6z"/><path clip-path="url(#SVGID_8_)" fill="#a1a4a5" d="M127.3 8.4h81.6v.1h-81.6z"/><path clip-path="url(#SVGID_8_)" fill="#a2a5a6" d="M127.3 8.4h81.6v.1h-81.6z"/><path clip-path="url(#SVGID_8_)" fill="#a3a6a7" d="M127.3 8.5h81.6v.1h-81.6z"/><path clip-path="url(#SVGID_8_)" fill="#a4a7a8" d="M127.3 8.6h81.6v.1h-81.6z"/><path clip-path="url(#SVGID_8_)" fill="#a5a8a9" d="M127.3 8.6h81.6v.1h-81.6z"/><path clip-path="url(#SVGID_8_)" fill="#a6a9aa" d="M127.3 8.7h81.6v.1h-81.6z"/><path clip-path="url(#SVGID_8_)" fill="#a7aaab" d="M127.3 8.7h81.6v.1h-81.6z"/><path clip-path="url(#SVGID_8_)" fill="#a8abac" d="M127.3 8.8h81.6v.1h-81.6z"/><path clip-path="url(#SVGID_8_)" fill="#a9acad" d="M127.3 8.9h81.6V9h-81.6z"/><path clip-path="url(#SVGID_8_)" fill="#aaadae" d="M127.3 8.9h81.6V9h-81.6z"/><path clip-path="url(#SVGID_8_)" fill="#abaeaf" d="M127.3 9h81.6v.1h-81.6z"/><path clip-path="url(#SVGID_8_)" fill="#abafb1" d="M127.3 9h81.6v.1h-81.6z"/><path clip-path="url(#SVGID_8_)" fill="#acb0b2" d="M127.3 9.1h81.6v.1h-81.6z"/><path clip-path="url(#SVGID_8_)" fill="#adb1b3" d="M127.3 9.1h81.6v.1h-81.6z"/><path clip-path="url(#SVGID_8_)" fill="#aeb2b4" d="M127.3 9.2h81.6v.1h-81.6z"/><path clip-path="url(#SVGID_8_)" fill="#afb3b5" d="M127.3 9.3h81.6v.1h-81.6z"/><path clip-path="url(#SVGID_8_)" fill="#b0b4b6" d="M127.3 9.3h81.6v.1h-81.6z"/><path clip-path="url(#SVGID_8_)" fill="#b1b5b7" d="M127.3 9.4h81.6v.1h-81.6z"/><path clip-path="url(#SVGID_8_)" fill="#b2b6b8" d="M127.3 9.4h81.6v.1h-81.6z"/><path clip-path="url(#SVGID_8_)" fill="#b3b7b9" d="M127.3 9.5h81.6v.1h-81.6z"/><path clip-path="url(#SVGID_8_)" fill="#b4b8ba" d="M127.3 9.5h81.6v.1h-81.6z"/><path clip-path="url(#SVGID_8_)" fill="#b5b9bb" d="M127.3 9.6h81.6v.1h-81.6z"/><path clip-path="url(#SVGID_8_)" fill="#b6babc" d="M127.3 9.7h81.6v.1h-81.6z"/><path clip-path="url(#SVGID_8_)" fill="#b7bbbd" d="M127.3 9.7h81.6v.1h-81.6z"/><path clip-path="url(#SVGID_8_)" fill="#b8bcbe" d="M127.3 9.8h81.6v.1h-81.6z"/><path clip-path="url(#SVGID_8_)" fill="#b9bdbf" d="M127.3 9.8h81.6v.1h-81.6z"/><path clip-path="url(#SVGID_8_)" fill="#babec0" d="M127.3 9.9h81.6v.1h-81.6z"/><path clip-path="url(#SVGID_8_)" fill="#bbbfc1" d="M127.3 10h81.6v.1h-81.6z"/><path clip-path="url(#SVGID_8_)" fill="#bcc0c2" d="M127.3 10h81.6v.1h-81.6z"/><path clip-path="url(#SVGID_8_)" fill="#bdc1c3" d="M127.3 10.1h81.6v.1h-81.6z"/><path clip-path="url(#SVGID_8_)" fill="#bec2c4" d="M127.3 10.1h81.6v.1h-81.6z"/><path clip-path="url(#SVGID_8_)" fill="#bfc3c5" d="M127.3 10.2h81.6v.1h-81.6z"/><path clip-path="url(#SVGID_8_)" fill="#c0c4c6" d="M127.3 10.2h81.6v.1h-81.6z"/></g><g><defs><path id="SVGID_144_" d="M128.8 4.7s-1 2.4 0 6h-1.3c-.6 0-1.5-.5-1.5-3.1 0-2.7.8-2.8 1.3-2.8s1.5-.1 1.5-.1z"/></defs><clipPath id="SVGID_9_"><use xlink:href="#SVGID_144_" overflow="visible"/></clipPath><path clip-path="url(#SVGID_9_)" fill="#575756" d="M126 4.7h2.9v.1H126z"/><path clip-path="url(#SVGID_9_)" fill="#565655" d="M126 4.8h2.9V5H126z"/><path clip-path="url(#SVGID_9_)" fill="#555554" d="M126 5h2.9v.2H126z"/><path clip-path="url(#SVGID_9_)" fill="#545453" d="M126 5.2h2.9v.2H126z"/><path clip-path="url(#SVGID_9_)" fill="#535352" d="M126 5.4h2.9v.2H126z"/><path clip-path="url(#SVGID_9_)" fill="#515150" d="M126 5.6h2.9v.2H126z"/><path clip-path="url(#SVGID_9_)" fill="#50504f" d="M126 5.8h2.9V6H126z"/><path clip-path="url(#SVGID_9_)" fill="#4f4f4e" d="M126 6h2.9v.2H126z"/><path clip-path="url(#SVGID_9_)" fill="#4e4e4d" d="M126 6.2h2.9v.2H126z"/><path clip-path="url(#SVGID_9_)" fill="#4d4d4c" d="M126 6.5h2.9v.2H126z"/><path clip-path="url(#SVGID_9_)" fill="#262625" d="M126 8.1h2.9v.3H126z"/><path clip-path="url(#SVGID_9_)" fill="#252524" d="M126 8.4h2.9v.3H126z"/><path clip-path="url(#SVGID_9_)" fill="#242423" d="M126 8.7h2.9V9H126z"/><path clip-path="url(#SVGID_9_)" fill="#232322" d="M126 8.9h2.9v.3H126z"/><path clip-path="url(#SVGID_9_)" fill="#222221" d="M126 9.2h2.9v.3H126z"/><path clip-path="url(#SVGID_9_)" fill="#21211f" d="M126 9.5h2.9v.3H126z"/><path clip-path="url(#SVGID_9_)" fill="#20201e" d="M126 9.7h2.9v.3H126z"/><path clip-path="url(#SVGID_9_)" fill="#1f1f1d" d="M126 10h2.9v.3H126z"/><path clip-path="url(#SVGID_9_)" fill="#1e1e1c" d="M126 10.2h2.9v.3H126z"/><path clip-path="url(#SVGID_9_)" fill="#1d1d1b" d="M126 10.5h2.9v.2H126z"/></g><g><defs><path id="SVGID_146_" d="M207.5 4.7s1 2.4 0 6h1.3c.6 0 1.5-.5 1.5-3.1 0-2.7-.8-2.8-1.3-2.8s-1.5-.1-1.5-.1z"/></defs><clipPath id="SVGID_10_"><use xlink:href="#SVGID_146_" overflow="visible"/></clipPath><path clip-path="url(#SVGID_10_)" fill="#575756" d="M207.5 4.7h2.9v.1h-2.9z"/><path clip-path="url(#SVGID_10_)" fill="#565655" d="M207.5 4.8h2.9V5h-2.9z"/><path clip-path="url(#SVGID_10_)" fill="#555554" d="M207.5 5h2.9v.2h-2.9z"/><path clip-path="url(#SVGID_10_)" fill="#545453" d="M207.5 5.2h2.9v.2h-2.9z"/><path clip-path="url(#SVGID_10_)" fill="#535352" d="M207.5 5.4h2.9v.2h-2.9z"/><path clip-path="url(#SVGID_10_)" fill="#515150" d="M207.5 5.6h2.9v.2h-2.9z"/><path clip-path="url(#SVGID_10_)" fill="#50504f" d="M207.5 5.8h2.9V6h-2.9z"/><path clip-path="url(#SVGID_10_)" fill="#4f4f4e" d="M207.5 6h2.9v.2h-2.9z"/><path clip-path="url(#SVGID_10_)" fill="#4e4e4d" d="M207.5 6.2h2.9v.2h-2.9z"/><path clip-path="url(#SVGID_10_)" fill="#4d4d4c" d="M207.5 6.5h2.9v.2h-2.9z"/><path clip-path="url(#SVGID_10_)" fill="#262625" d="M207.5 8.1h2.9v.3h-2.9z"/><path clip-path="url(#SVGID_10_)" fill="#252524" d="M207.5 8.4h2.9v.3h-2.9z"/><path clip-path="url(#SVGID_10_)" fill="#242423" d="M207.5 8.7h2.9V9h-2.9z"/><path clip-path="url(#SVGID_10_)" fill="#232322" d="M207.5 8.9h2.9v.3h-2.9z"/><path clip-path="url(#SVGID_10_)" fill="#222221" d="M207.5 9.2h2.9v.3h-2.9z"/><path clip-path="url(#SVGID_10_)" fill="#21211f" d="M207.5 9.5h2.9v.3h-2.9z"/><path clip-path="url(#SVGID_10_)" fill="#20201e" d="M207.5 9.7h2.9v.3h-2.9z"/><path clip-path="url(#SVGID_10_)" fill="#1f1f1d" d="M207.5 10h2.9v.3h-2.9z"/><path clip-path="url(#SVGID_10_)" fill="#1e1e1c" d="M207.5 10.2h2.9v.3h-2.9z"/><path clip-path="url(#SVGID_10_)" fill="#1d1d1b" d="M207.5 10.5h2.9v.2h-2.9z"/></g><g><defs><path id="SVGID_148_" d="M128.8 150.4s-1 2.7 0 6.6h-1.3c-.6 0-1.5-.5-1.5-3.5s.8-3.1 1.3-3.1h1.5z"/></defs><clipPath id="SVGID_11_"><use xlink:href="#SVGID_148_" overflow="visible"/></clipPath><path clip-path="url(#SVGID_11_)" fill="#575756" d="M126 150.4h2.9v.1H126z"/><path clip-path="url(#SVGID_11_)" fill="#565655" d="M126 150.5h2.9v.2H126z"/><path clip-path="url(#SVGID_11_)" fill="#555554" d="M126 150.7h2.9v.2H126z"/><path clip-path="url(#SVGID_11_)" fill="#545453" d="M126 151h2.9v.2H126z"/><path clip-path="url(#SVGID_11_)" fill="#535352" d="M126 151.2h2.9v.2H126z"/><path clip-path="url(#SVGID_11_)" fill="#515150" d="M126 151.4h2.9v.2H126z"/><path clip-path="url(#SVGID_11_)" fill="#50504f" d="M126 151.6h2.9v.2H126z"/><path clip-path="url(#SVGID_11_)" fill="#4f4f4e" d="M126 151.9h2.9v.2H126z"/><path clip-path="url(#SVGID_11_)" fill="#4e4e4d" d="M126 152.1h2.9v.2H126z"/><path clip-path="url(#SVGID_11_)" fill="#4d4d4c" d="M126 152.3h2.9v.2H126z"/><path clip-path="url(#SVGID_11_)" fill="#262625" d="M126 154.2h2.9v.3H126z"/><path clip-path="url(#SVGID_11_)" fill="#252524" d="M126 154.5h2.9v.3H126z"/><path clip-path="url(#SVGID_11_)" fill="#242423" d="M126 154.8h2.9v.3H126z"/><path clip-path="url(#SVGID_11_)" fill="#232322" d="M126 155.1h2.9v.3H126z"/><path clip-path="url(#SVGID_11_)" fill="#222221" d="M126 155.3h2.9v.3H126z"/><path clip-path="url(#SVGID_11_)" fill="#21211f" d="M126 155.6h2.9v.3H126z"/><path clip-path="url(#SVGID_11_)" fill="#20201e" d="M126 155.9h2.9v.3H126z"/><path clip-path="url(#SVGID_11_)" fill="#1f1f1d" d="M126 156.2h2.9v.3H126z"/><path clip-path="url(#SVGID_11_)" fill="#1e1e1c" d="M126 156.5h2.9v.3H126z"/><path clip-path="url(#SVGID_11_)" fill="#1d1d1b" d="M126 156.8h2.9v.2H126z"/></g><g><defs><path id="SVGID_150_" d="M207.5 150.4s1 2.7 0 6.6h1.3c.6 0 1.5-.5 1.5-3.5s-.8-3.1-1.3-3.1h-1.5z"/></defs><clipPath id="SVGID_12_"><use xlink:href="#SVGID_150_" overflow="visible"/></clipPath><path clip-path="url(#SVGID_12_)" fill="#575756" d="M207.5 150.4h2.9v.1h-2.9z"/><path clip-path="url(#SVGID_12_)" fill="#565655" d="M207.5 150.5h2.9v.2h-2.9z"/><path clip-path="url(#SVGID_12_)" fill="#555554" d="M207.5 150.7h2.9v.2h-2.9z"/><path clip-path="url(#SVGID_12_)" fill="#545453" d="M207.5 151h2.9v.2h-2.9z"/><path clip-path="url(#SVGID_12_)" fill="#535352" d="M207.5 151.2h2.9v.2h-2.9z"/><path clip-path="url(#SVGID_12_)" fill="#515150" d="M207.5 151.4h2.9v.2h-2.9z"/><path clip-path="url(#SVGID_12_)" fill="#50504f" d="M207.5 151.6h2.9v.2h-2.9z"/><path clip-path="url(#SVGID_12_)" fill="#4f4f4e" d="M207.5 151.9h2.9v.2h-2.9z"/><path clip-path="url(#SVGID_12_)" fill="#4e4e4d" d="M207.5 152.1h2.9v.2h-2.9z"/><path clip-path="url(#SVGID_12_)" fill="#4d4d4c" d="M207.5 152.3h2.9v.2h-2.9z"/><path clip-path="url(#SVGID_12_)" fill="#262625" d="M207.5 154.2h2.9v.3h-2.9z"/><path clip-path="url(#SVGID_12_)" fill="#252524" d="M207.5 154.5h2.9v.3h-2.9z"/><path clip-path="url(#SVGID_12_)" fill="#242423" d="M207.5 154.8h2.9v.3h-2.9z"/><path clip-path="url(#SVGID_12_)" fill="#232322" d="M207.5 155.1h2.9v.3h-2.9z"/><path clip-path="url(#SVGID_12_)" fill="#222221" d="M207.5 155.3h2.9v.3h-2.9z"/><path clip-path="url(#SVGID_12_)" fill="#21211f" d="M207.5 155.6h2.9v.3h-2.9z"/><path clip-path="url(#SVGID_12_)" fill="#20201e" d="M207.5 155.9h2.9v.3h-2.9z"/><path clip-path="url(#SVGID_12_)" fill="#1f1f1d" d="M207.5 156.2h2.9v.3h-2.9z"/><path clip-path="url(#SVGID_12_)" fill="#1e1e1c" d="M207.5 156.5h2.9v.3h-2.9z"/><path clip-path="url(#SVGID_12_)" fill="#1d1d1b" d="M207.5 156.8h2.9v.2h-2.9z"/></g></g><g><path class="st221" d="M171.5 30.6c0-.3.4-.5.8-.5.3 0 .5.4.4.7l-.8 3.8c-.5 2.6-1.1 6-1.4 7.9l-.7 4.2-.6 3.9c-.1.7-.3 1.8-.6 3.3-.2.7-.3 1.3-.4 1.7 0 .3-.1.5-.2.6v.1s-.1.1-.1.3c-.1.1-.3.2-.5.2-.1 0-.3 0-.4-.1l-.1-.1-.1-.1v-.1l-.2-.5-.6-1.7c-.6-1.8-1-3.1-1.2-3.9l-.4-1.9c-.7-3.1-.6-3-1 0l-.3 2.1c0 .1 0 .5-.1 1.3-.2 1.3-.3 2.4-.5 3.3-.1.3-.1.6-.3 1 0 0 0 .1-.1.2-.1.2-.4.5-.8.5-.2 0-.3 0-.5-.2 0 0 0-.1-.1-.2 0 0-.1-.1-.1-.2s-.1-.3-.2-.6l-.5-1.7c-.5-1.6-.8-2.6-.9-3.2-.1-.4-.2-.6-.3-1l-.3-.9-.3-1.3c-.1-.4-.2-.8-.3-1.4l-.3-1.4c0-.3-.1-.8-.3-1.5-.1-.7-.2-1.1-.2-1.3 0-.2-.2-1.5-.3-2.3 0-.4-.1-.6-.1-1-.1-.5-.3-1.5-.6-2.8-.4-2.1-.6-3.6-.6-4.7 0-.3.3-.6.6-.6s.6.3.6.6c0 1.1.2 2.5.6 4.4.4 1.9.6 3.1.6 3.5 0 .2.1.6.2 1.2l.2 1.3.2 1.2c.2 1.2.2 1.4.4 2.5.1.5.2.9.3 1.3l.3 1.1c.1.5.2.8.3 1.2l.3 1.2s.3.9.8 2.7c.3.6.6 1 .6 1 .1-.5.2-1.1.3-1.9 0-.3.1-.6.1-.8 0-.4.1-.6.2-1l1.1-6.6v-1.1c-.9-4.1-1.5-7.7-1.8-10.7 0-.3.2-.6.6-.7.3 0 .6.3.6.6.2 1.6.4 3.3.7 5.2.6 2.9.5 3.2 1 0l1-5.4c0-.3.4-.5.7-.5.3 0 .5.4.5.7-.6 3.2-1.3 6.7-1.9 10.6v1.1l1.6 7c.2.8.6 2 1.2 3.8l-.3-1c.3.7.6 1.3.7 1 .6-2.9.7-3.2 1.2-7l.7-4.3.7-3.7c.3-1.5.5-2.9.8-4.2l.4-4.2zM176.5 30.9c0 .1-.1.3-.2.7v.3c-.2 1.3 0 3 .1 5.3.1 1.9.2 1.8.1 3.6 0 .8.3.9.8.9h1.3c.3 0 .6.2.7.6 0 .3-.3.6-.6.6h-1.5c-.6 0-.8 0-.9.8-.2 4.1-.3 7.5-.1 9.8 0 .7.1 1.3.2 1.7v.2s.1-.3.1-.4c0 .4.2.7.6.8.9.2 2.2 0 3.4-.1h1.4c.3 0 .6.3.6.6s-.3.6-.6.6c-.5 0-2.3.2-2.9.2-1.4 0-2.4-.1-3.1-.4-.5-.2-.6-.7-.8-1.2-.1-.5-.2-1.1-.3-1.9-.2-2.6-.1-6.3 0-9.1 0-1.4.1-2.5.2-3.5.1-1.9 0-1.7-.1-3.7-.2-2.2-.3-4.1-.1-5.5.1-.8.3-1.6.8-1.9.3-.2.8-.2 1.4-.2h2c2.1 0 3.2.1 3.3.1.3 0 .6.2.7.6 0 .2 0 .3-.2.4-.3.3-.6.2-.9.2h-5.5.1zM153.7 96.2c.1-.7.3-2.5.5-5.4.8-10.3.9-12 1.7-15.8.5-2.2 1-3.9 1.9-4.3 1.7-.9 2.8.2 3.3 1.9.3.8.4 1.8.5 3 0 .6.1.8.1.9.9 6.7 1.4 13.3 1.4 19.8 0 .3-.3.6-.6.6s-.6-.3-.6-.6c0-4.1-.2-8.2-.6-12.3 0-.5-.3-.8-.8-.8-1.2-.1-2.5-.2-3.6-.2-.5 0-.8.3-.9.8-.1 1.3-.3 3.6-.6 7.1-.2 2.9-.4 4.7-.5 5.5 0 .3-.3.6-.7.5-.3 0-.5-.3-.5-.7zm3.3-14.4c1.1 0 2.1.1 3.1.2.6 0 .9.1.9-.8-.1-1.5-.3-2.9-.7-5.4-.1-1-.3-1.9-.5-2.7-.3-1-.6-1.4-1.1-1.4-.4 0-.6.2-.8.6-.1.1-.2.3-.3.6-.3.6-.5 1.4-.7 2.5-.3 1.4-.7 3.3-.8 5.6.1.7.4.8.9.8zM168.6 83c-.1 0 0 .3 0 .3 1.4 2.2 2.1 4.2 3.8 8.3.6 1.5 1.1 2.7 1.6 3.5.4.7-.7 1.3-1.1.6-.5-.9-1-2.1-1.6-3.6-1.9-5-3.2-7.7-3.8-8.3 0 0-.1 0-.1-.1 0 .3-.2.8-.2 1.3 0 .8 0 1.5-.1 2.2 0 .3 0 1-.1 2-.1 2.1-.1 2.7-.1 4.3 0 .8 0 1.6.1 2.2 0 .3-.2.6-.6.6-.3 0-.6-.2-.6-.5-.1-.6-.1-1.4-.1-2.2 0-1.7 0-2.3.1-4.4 0-1 .1-1.7.1-2 .3-5.8.2-10.8-.2-15.1 0-.4-.3-.7-.2-1.1 0-.1 0-.1.1-.2 0-.1.2-.3.3-.3 3.3-.8 5.9.1 7.4 2.1 1.5 1.9 1.4 4.9-.6 7.2-1.1 1.4-2.5 2.5-4.1 3.2zm-.5-1.1c.3-.1.3-.1.6-.3 2.5-1.3 4.3-3.7 4.4-5.7 0-1.1-.2-1.9-.8-2.7-.9-1.4-2.6-2.1-4.7-1.9-.5 0-.8.4-.8.9.2 2.5.3 5.5.3 8.9 0 .6.1.9.3.9.4 0 .7-.1.7-.1zM178.1 71.1c0 .1-.1.3-.2.7v.3c-.2 1.3 0 3 .1 5.3.1 1.9.2 1.8.1 3.6 0 .8.3.9.8.9h1.3c.3 0 .6.2.7.6 0 .3-.3.6-.6.6h-1.5c-.6 0-.8 0-.9.8-.2 4.2-.3 7.5-.1 9.8 0 .7.1 1.3.2 1.7v.2s.1-.3.1-.4c0 .4.2.7.6.8.9.2 2.2 0 3.4-.1h1.4c.3 0 .6.3.6.6s-.3.6-.6.6c-.5 0-2.3.2-2.9.2-1.4 0-2.4-.1-3.1-.4-.5-.2-.6-.7-.8-1.2-.1-.5-.2-1.1-.3-1.9-.2-2.6-.1-6.3 0-9.1 0-1.4.1-2.5.2-3.5.1-1.9 0-1.7-.1-3.7-.2-2.2-.3-4.1-.1-5.5.1-.8.3-1.6.8-1.9.3-.2.8-.2 1.4-.2h2c2.1 0 3.2.1 3.3.1.3 0 .6.2.7.5 0 .2 0 .3-.2.4-.3.3-.6.2-.9.2H178h.1zM148.7 123.1c-.6 0-.8 0-.8.8 0 .9.1 2 .1 3.3.1 3.6.2 6.4.2 9 0 .3-.3.6-.6.6s-.6-.3-.6-.6c0-1.8 0-4.4-.2-7.7-.3-6.6-.3-6.8-.1-11.6 0-2.2.1-3.9 0-5.1 0-.3.2-.6.6-.7.3 0 .6.3.6.6v5.2c0 1.7-.1 3-.1 4 0 .8.3.8.8.8h4.4c.6 0 .8-.1.9-.8.1-1.4.1-2.5.1-3.2s0-2.3.1-3.1c0-.8-.1-1.9-.4-2.7-.2-.8.9-1.1 1.2-.4.3 1 .4 2.3.4 3.1V117.7c0 .8 0 2.3-.1 4.5s-.1 3.8-.1 4.8c-.1 4.2.1 7.2.5 8.8 0 .3-.1.7-.4.7-.3 0-.7-.1-.8-.5-.5-1.7-.6-4.8-.6-9.1 0-.9.1-1.9.1-3.3 0-.8-.3-.8-.8-.8h-4.4zM159.4 111.2c0 .1 0 .1 0 0 0 .1-.1.3-.2.7v.3c-.2 1.3 0 3 .1 5.3.1 1.9.2 1.8.1 3.6 0 .8.3.9.8.9h1.3c.3 0 .6.2.7.6 0 .3-.3.6-.6.6h-1.5c-.6 0-.8 0-.9.8-.2 4.2-.3 7.5-.1 9.8 0 .7.1 1.3.2 1.7v.2s.1-.3.1-.4c0 .4.2.7.6.8.9.2 2.2 0 3.4-.1h1.4c.3 0 .6.3.6.6s-.3.6-.6.6c-.5 0-2.3.2-2.9.2-1.4 0-2.4-.1-3.1-.4-.5-.2-.6-.7-.8-1.2-.1-.5-.2-1.1-.3-1.9-.2-2.6-.1-6.3 0-9.1 0-1.4.1-2.5.2-3.5.1-1.9 0-1.7-.1-3.7-.2-2.2-.3-4.1-.1-5.5.1-.8.3-1.6.8-1.9.3-.2.8-.2 1.4-.2h2c2.1 0 3.2.1 3.3.1.3 0 .6.2.7.5 0 .2 0 .3-.2.4-.3.3-.6.2-.9.2h-5.5.1zM171.6 123.2c-.1 0 0 .3 0 .3 1.4 2.2 2.1 4.2 3.8 8.3.6 1.5 1.1 2.7 1.6 3.5.4.7-.7 1.3-1.1.6-.5-.9-1-2.1-1.6-3.6-1.9-5-3.2-7.7-3.8-8.3 0 0-.1 0-.1-.1 0 .3-.2.8-.2 1.3 0 .8 0 1.5-.1 2.2 0 .3 0 1-.1 2-.1 2.1-.1 2.7-.1 4.3 0 .8 0 1.6.1 2.2 0 .3-.2.6-.6.6-.3 0-.6-.2-.6-.5-.1-.6-.1-1.4-.1-2.2 0-1.7 0-2.3.1-4.4 0-1 .1-1.7.1-2 .3-5.8.2-10.8-.2-15.1 0-.4-.3-.7-.2-1.1 0-.1 0-.1.1-.2 0-.1.2-.3.3-.3 3.3-.8 5.9.1 7.4 2.1 1.5 1.9 1.4 4.9-.6 7.2-1 1.4-2.4 2.5-4.1 3.2zm-.4-1.2c.3-.1.3-.1.6-.3 2.5-1.3 4.3-3.7 4.4-5.7 0-1.1-.2-1.9-.8-2.7-.9-1.4-2.6-2.1-4.7-1.9-.5 0-.8.4-.8.9.2 2.5.3 5.5.3 8.9 0 .6.1.9.3.9.4.1.7-.1.7-.1zM181.2 111.2c-.1.1-.1.1 0 0 0 .1-.1.3-.2.7v.3c-.2 1.3 0 3 .1 5.3.1 1.9.2 1.8.1 3.6 0 .8.3.9.8.9h1.3c.3 0 .6.2.7.6 0 .3-.3.6-.6.6h-1.5c-.6 0-.8 0-.9.8-.2 4.2-.3 7.5-.1 9.8 0 .7.1 1.3.2 1.7v.2s.1-.3.1-.4c0 .4.2.7.6.8.9.2 2.2 0 3.4-.1h1.4c.3 0 .6.3.6.6s-.3.6-.6.6c-.5 0-2.3.2-2.9.2-1.4 0-2.4-.1-3.1-.4-.5-.2-.6-.7-.8-1.2-.1-.5-.2-1.1-.3-1.9-.2-2.6-.1-6.3 0-9.1 0-1.4.1-2.5.2-3.5.1-1.9 0-1.7-.1-3.7-.2-2.2-.3-4.1-.1-5.5.1-.8.3-1.6.8-1.9.3-.2.8-.2 1.4-.2h2c2.1 0 3.2.1 3.3.1.3 0 .6.2.7.5 0 .2 0 .3-.2.4-.3.3-.6.2-.9.2h-5.5.1zM193.4 134.8c0 .2 0 1.7-1.6 1.7-.5 0-.8-.5-.8-.9.1-.7.8-1.2 1.7-1.3.4-.1.7.2.7.5zm-.5-4.7c0 .3-.3.6-.6.6s-.6-.3-.6-.6v-17.7c0-.3.3-.6.6-.6s.6.3.6.6v17.7z"/></g></svg>