<svg version="1.1" id="Layer_1" xmlns="http://www.w3.org/2000/svg" xmlns:xlink="http://www.w3.org/1999/xlink" x="0" y="0" viewBox="0 0 156.2 122.7" xml:space="preserve"><style>.st221{fill:#625e5c}</style><path d="M79.7 114.1l21.7 6.1c9 2.5 18.4 3 27.5 1.3l27.2-5.4L136.4 4.9 6 29.5 22.7 118l30.1-5.3c8.9-1.5 18.2-1.1 26.9 1.4z" fill="#ececec"/><defs><path id="SVGID_152_" d="M139.6 7.3c.3 1.5-.7 3-2.3 3.2L6.3 34.2c-1.5.3-3-.7-3.2-2.3l-.8-4.5c-.3-1.5.7-3 2.3-3.2L135.6.5c1.5-.3 3 .7 3.2 2.2l.8 4.6z"/></defs><clipPath id="SVGID_1_"><use xlink:href="#SVGID_152_" overflow="visible"/></clipPath><path clip-path="url(#SVGID_1_)" fill="#dfe4e6" d="M131.6.3L2 23.7V.3z"/><path clip-path="url(#SVGID_1_)" fill="#dfe4e6" d="M132.6.3L2 23.8v-.1L131.6.3z"/><path clip-path="url(#SVGID_1_)" fill="#dee3e5" d="M133.6.3L2 24v-.2L132.6.3z"/><path clip-path="url(#SVGID_1_)" fill="#dde2e4" d="M134.5.3L2 24.2V24L133.6.3z"/><path clip-path="url(#SVGID_1_)" fill="#dce1e3" d="M135.5.3L2 24.4v-.2L134.5.3z"/><path clip-path="url(#SVGID_1_)" fill="#dbe0e2" d="M136.5.3L2 24.5v-.1L135.5.3z"/><path clip-path="url(#SVGID_1_)" fill="#dadfe1" d="M137.5.3L2 24.7v-.2L136.5.3z"/><path clip-path="url(#SVGID_1_)" fill="#d9dee0" d="M138.5.3L2 24.9v-.2L137.5.3z"/><path clip-path="url(#SVGID_1_)" fill="#d8dddf" d="M139.5.3L2 25.1v-.2L138.5.3z"/><path clip-path="url(#SVGID_1_)" fill="#d7dcde" d="M139.9.4L2 25.3v-.2L139.5.3h.4z"/><path clip-path="url(#SVGID_1_)" fill="#d6dbdd" d="M139.9.6L2 25.4v-.1L139.9.4z"/><path clip-path="url(#SVGID_1_)" fill="#d5dadc" d="M139.9.7L2 25.6v-.2L139.9.6z"/><path clip-path="url(#SVGID_1_)" fill="#d4d9db" d="M139.9.9L2 25.8v-.2L139.9.7z"/><path clip-path="url(#SVGID_1_)" fill="#d3d8da" d="M139.9 1.1L2 26v-.2L139.9.9z"/><path clip-path="url(#SVGID_1_)" fill="#d2d7d9" d="M139.9 1.3L2 26.1V26L139.9 1.1z"/><path clip-path="url(#SVGID_1_)" fill="#d1d6d8" d="M139.9 1.4L2 26.3v-.2L139.9 1.3z"/><path clip-path="url(#SVGID_1_)" fill="#d0d5d7" d="M139.9 1.6L2 26.5v-.2L139.9 1.4z"/><path clip-path="url(#SVGID_1_)" fill="#cfd3d5" d="M139.9 1.8L2 26.7v-.2L139.9 1.6z"/><path clip-path="url(#SVGID_1_)" fill="#ced2d4" d="M139.9 2L2 26.9v-.2L139.9 1.8z"/><path clip-path="url(#SVGID_1_)" fill="#cdd1d3" d="M139.9 2.2L2 27v-.1L139.9 2z"/><path clip-path="url(#SVGID_1_)" fill="#ccd0d2" d="M139.9 2.3L2 27.2V27L139.9 2.2z"/><path clip-path="url(#SVGID_1_)" fill="#cbcfd1" d="M139.9 2.5L2 27.4v-.2L139.9 2.3z"/><path clip-path="url(#SVGID_1_)" fill="#caced0" d="M139.9 2.7L2 27.6v-.2L139.9 2.5z"/><path clip-path="url(#SVGID_1_)" fill="#c9cdcf" d="M139.9 2.9L2 27.7v-.1L139.9 2.7z"/><path clip-path="url(#SVGID_1_)" fill="#c8ccce" d="M139.9 3L2 27.9v-.2L139.9 2.9z"/><path clip-path="url(#SVGID_1_)" fill="#c7cbcd" d="M139.9 3.2L2 28.1v-.2L139.9 3z"/><path clip-path="url(#SVGID_1_)" fill="#c6cacc" d="M139.9 3.4L2 28.3v-.2L139.9 3.2z"/><path clip-path="url(#SVGID_1_)" fill="#c5c9cb" d="M139.9 3.6L2 28.5v-.2L139.9 3.4z"/><path clip-path="url(#SVGID_1_)" fill="#c4c8ca" d="M139.9 3.7L2 28.6v-.1L139.9 3.6z"/><path clip-path="url(#SVGID_1_)" fill="#c3c7c9" d="M139.9 3.9L2 28.8v-.2L139.9 3.7z"/><path clip-path="url(#SVGID_1_)" fill="#c2c6c8" d="M139.9 4.1L2 29v-.2L139.9 3.9z"/><path clip-path="url(#SVGID_1_)" fill="#c1c5c7" d="M139.9 4.3L2 29.2V29L139.9 4.1z"/><path clip-path="url(#SVGID_1_)" fill="#c0c4c6" d="M139.9 4.5L2 29.3v-.1L139.9 4.3z"/><path clip-path="url(#SVGID_1_)" fill="#c0c4c6" d="M139.9 4.5L2 29.4v-.1L139.9 4.5z"/><path clip-path="url(#SVGID_1_)" fill="#bfc3c5" d="M139.9 4.5L2 29.4 139.9 4.5z"/><path clip-path="url(#SVGID_1_)" fill="#bec2c4" d="M139.9 4.5L2 29.4 139.9 4.5z"/><path clip-path="url(#SVGID_1_)" fill="#bdc1c3" d="M139.9 4.5L2 29.4 139.9 4.5z"/><path clip-path="url(#SVGID_1_)" fill="#bcc0c2" d="M139.9 4.5L2 29.4 139.9 4.5z"/><path clip-path="url(#SVGID_1_)" fill="#bbbfc1" d="M139.9 4.5L2 29.4 139.9 4.5z"/><path clip-path="url(#SVGID_1_)" fill="#babec0" d="M139.9 4.5L2 29.4 139.9 4.5z"/><path clip-path="url(#SVGID_1_)" fill="#b9bdbf" d="M139.9 4.6L2 29.4 139.9 4.5z"/><path clip-path="url(#SVGID_1_)" fill="#b8bcbe" d="M139.9 4.6L2 29.5v-.1L139.9 4.6z"/><path clip-path="url(#SVGID_1_)" fill="#b7bbbd" d="M139.9 4.6L2 29.5 139.9 4.6z"/><path clip-path="url(#SVGID_1_)" fill="#b6babc" d="M139.9 4.6L2 29.5 139.9 4.6z"/><path clip-path="url(#SVGID_1_)" fill="#b5b9bb" d="M139.9 4.6L2 29.5 139.9 4.6z"/><path clip-path="url(#SVGID_1_)" fill="#b4b8ba" d="M139.9 4.6L2 29.5 139.9 4.6z"/><path clip-path="url(#SVGID_1_)" fill="#b3b7b9" d="M139.9 4.6L2 29.5 139.9 4.6z"/><path clip-path="url(#SVGID_1_)" fill="#b2b6b8" d="M139.9 4.6L2 29.5 139.9 4.6z"/><path clip-path="url(#SVGID_1_)" fill="#b1b5b7" d="M139.9 4.7L2 29.5 139.9 4.6z"/><path clip-path="url(#SVGID_1_)" fill="#b0b4b6" d="M139.9 4.7L2 29.6v-.1L139.9 4.7z"/><path clip-path="url(#SVGID_1_)" fill="#afb3b5" d="M139.9 4.7L2 29.6 139.9 4.7z"/><path clip-path="url(#SVGID_1_)" fill="#aeb2b4" d="M139.9 4.7L2 29.6 139.9 4.7z"/><path clip-path="url(#SVGID_1_)" fill="#adb1b3" d="M139.9 4.7L2 29.6 139.9 4.7z"/><path clip-path="url(#SVGID_1_)" fill="#acb0b2" d="M139.9 4.7L2 29.6 139.9 4.7z"/><path clip-path="url(#SVGID_1_)" fill="#abafb1" d="M139.9 4.7L2 29.6 139.9 4.7z"/><path clip-path="url(#SVGID_1_)" fill="#abaeaf" d="M139.9 4.7L2 29.6 139.9 4.7z"/><path clip-path="url(#SVGID_1_)" fill="#aaadae" d="M139.9 4.8L2 29.6 139.9 4.7z"/><path clip-path="url(#SVGID_1_)" fill="#a9acad" d="M139.9 4.8L2 29.7v-.1L139.9 4.8z"/><path clip-path="url(#SVGID_1_)" fill="#a8abac" d="M139.9 4.8L2 29.7 139.9 4.8z"/><path clip-path="url(#SVGID_1_)" fill="#a7aaab" d="M139.9 4.8L2 29.7 139.9 4.8z"/><path clip-path="url(#SVGID_1_)" fill="#a6a9aa" d="M139.9 4.8L2 29.7 139.9 4.8z"/><path clip-path="url(#SVGID_1_)" fill="#a5a8a9" d="M139.9 4.8L2 29.7 139.9 4.8z"/><path clip-path="url(#SVGID_1_)" fill="#a4a7a8" d="M139.9 4.8L2 29.7 139.9 4.8z"/><path clip-path="url(#SVGID_1_)" fill="#a3a6a7" d="M139.9 4.8L2 29.7 139.9 4.8z"/><path clip-path="url(#SVGID_1_)" fill="#a2a5a6" d="M139.9 4.9L2 29.7 139.9 4.8z"/><path clip-path="url(#SVGID_1_)" fill="#a1a4a5" d="M139.9 4.9L2 29.8v-.1L139.9 4.9z"/><path clip-path="url(#SVGID_1_)" fill="#a0a3a4" d="M139.9 4.9L2 29.8 139.9 4.9z"/><path clip-path="url(#SVGID_1_)" fill="#9fa2a3" d="M139.9 4.9L2 29.8 139.9 4.9z"/><path clip-path="url(#SVGID_1_)" fill="#9ea1a2" d="M139.9 4.9L2 29.8 139.9 4.9z"/><path clip-path="url(#SVGID_1_)" fill="#9da0a1" d="M139.9 4.9L2 29.8 139.9 4.9z"/><path clip-path="url(#SVGID_1_)" fill="#9c9fa0" d="M139.9 4.9L2 29.8 139.9 4.9z"/><path clip-path="url(#SVGID_1_)" fill="#9b9e9f" d="M139.9 4.9L2 29.8 139.9 4.9z"/><path clip-path="url(#SVGID_1_)" fill="#9a9d9e" d="M139.9 5L2 29.8 139.9 4.9z"/><path clip-path="url(#SVGID_1_)" fill="#999c9d" d="M139.9 5L2 29.9v-.1L139.9 5z"/><path clip-path="url(#SVGID_1_)" fill="#989b9c" d="M139.9 5L2 29.9 139.9 5z"/><path clip-path="url(#SVGID_1_)" fill="#979a9b" d="M139.9 5L2 29.9 139.9 5z"/><path clip-path="url(#SVGID_1_)" fill="#96999a" d="M139.9 5L2 29.9 139.9 5zM139.9 5.1L2 30v-.1L139.9 5z"/><path clip-path="url(#SVGID_1_)" fill="#979a9b" d="M139.9 5.2L2 30.1V30L139.9 5.1z"/><path clip-path="url(#SVGID_1_)" fill="#989b9c" d="M139.9 5.3L2 30.2v-.1L139.9 5.2z"/><path clip-path="url(#SVGID_1_)" fill="#999c9d" d="M139.9 5.4L2 30.3v-.1L139.9 5.3z"/><path clip-path="url(#SVGID_1_)" fill="#9a9d9e" d="M139.9 5.5L2 30.4v-.1L139.9 5.4z"/><path clip-path="url(#SVGID_1_)" fill="#9b9e9f" d="M139.9 5.6L2 30.5v-.1L139.9 5.5z"/><path clip-path="url(#SVGID_1_)" fill="#9c9fa0" d="M139.9 5.7L2 30.6v-.1L139.9 5.6z"/><path clip-path="url(#SVGID_1_)" fill="#9da0a1" d="M139.9 5.8L2 30.7v-.1L139.9 5.7z"/><path clip-path="url(#SVGID_1_)" fill="#9ea1a2" d="M139.9 5.9L2 30.8v-.1L139.9 5.8z"/><path clip-path="url(#SVGID_1_)" fill="#9fa2a3" d="M139.9 6L2 30.9v-.1L139.9 5.9z"/><path clip-path="url(#SVGID_1_)" fill="#a0a3a4" d="M139.9 6.1L2 31v-.1L139.9 6z"/><path clip-path="url(#SVGID_1_)" fill="#a1a4a5" d="M139.9 6.2L2 31.1V31L139.9 6.1z"/><path clip-path="url(#SVGID_1_)" fill="#a2a5a6" d="M139.9 6.3L2 31.2v-.1L139.9 6.2z"/><path clip-path="url(#SVGID_1_)" fill="#a3a6a7" d="M139.9 6.4L2 31.3v-.1L139.9 6.3z"/><path clip-path="url(#SVGID_1_)" fill="#a4a7a8" d="M139.9 6.5L2 31.4v-.1L139.9 6.4z"/><path clip-path="url(#SVGID_1_)" fill="#a5a8a9" d="M139.9 6.6L2 31.5v-.1L139.9 6.5z"/><path clip-path="url(#SVGID_1_)" fill="#a6a9aa" d="M139.9 6.7L2 31.6v-.1L139.9 6.6z"/><path clip-path="url(#SVGID_1_)" fill="#a7aaab" d="M139.9 6.8L2 31.7v-.1L139.9 6.7z"/><path clip-path="url(#SVGID_1_)" fill="#a8abac" d="M139.9 6.9L2 31.8v-.1L139.9 6.8z"/><path clip-path="url(#SVGID_1_)" fill="#a9acad" d="M139.9 7L2 31.9v-.1L139.9 6.9z"/><path clip-path="url(#SVGID_1_)" fill="#aaadae" d="M139.9 7.1L2 32v-.1L139.9 7z"/><path clip-path="url(#SVGID_1_)" fill="#abaeaf" d="M139.9 7.2L2 32.1V32L139.9 7.1z"/><path clip-path="url(#SVGID_1_)" fill="#abafb1" d="M139.9 7.3L2 32.2v-.1L139.9 7.2z"/><path clip-path="url(#SVGID_1_)" fill="#acb0b2" d="M139.9 7.4L2 32.3v-.1L139.9 7.3z"/><path clip-path="url(#SVGID_1_)" fill="#adb1b3" d="M139.9 7.5L2 32.4v-.1L139.9 7.4z"/><path clip-path="url(#SVGID_1_)" fill="#aeb2b4" d="M139.9 7.6L2 32.5v-.1L139.9 7.5z"/><path clip-path="url(#SVGID_1_)" fill="#afb3b5" d="M139.9 7.7L2 32.6v-.1L139.9 7.6z"/><path clip-path="url(#SVGID_1_)" fill="#b0b4b6" d="M139.9 7.8L2 32.7v-.1L139.9 7.7z"/><path clip-path="url(#SVGID_1_)" fill="#b1b5b7" d="M139.9 7.9L2 32.8v-.1L139.9 7.8z"/><path clip-path="url(#SVGID_1_)" fill="#b2b6b8" d="M139.9 8L2 32.9v-.1L139.9 7.9z"/><path clip-path="url(#SVGID_1_)" fill="#b3b7b9" d="M139.9 8.1L2 33v-.1L139.9 8z"/><path clip-path="url(#SVGID_1_)" fill="#b4b8ba" d="M139.9 8.2L2 33.1V33L139.9 8.1z"/><path clip-path="url(#SVGID_1_)" fill="#b5b9bb" d="M139.9 8.3L2 33.2v-.1L139.9 8.2z"/><path clip-path="url(#SVGID_1_)" fill="#b6babc" d="M139.9 8.4L2 33.3v-.1L139.9 8.3z"/><path clip-path="url(#SVGID_1_)" fill="#b7bbbd" d="M139.9 8.5L2 33.4v-.1L139.9 8.4z"/><path clip-path="url(#SVGID_1_)" fill="#b8bcbe" d="M139.9 8.6L2 33.5v-.1L139.9 8.5z"/><path clip-path="url(#SVGID_1_)" fill="#b9bdbf" d="M139.9 8.7L2 33.6v-.1L139.9 8.6z"/><path clip-path="url(#SVGID_1_)" fill="#babec0" d="M139.9 8.8L2 33.7v-.1L139.9 8.7z"/><path clip-path="url(#SVGID_1_)" fill="#bbbfc1" d="M139.9 8.9L2 33.8v-.1L139.9 8.8z"/><path clip-path="url(#SVGID_1_)" fill="#bcc0c2" d="M139.9 9L2 33.9v-.1L139.9 8.9z"/><path clip-path="url(#SVGID_1_)" fill="#bdc1c3" d="M139.9 9.1L2 34v-.1L139.9 9z"/><path clip-path="url(#SVGID_1_)" fill="#bec2c4" d="M139.9 9.2L2 34.1V34L139.9 9.1z"/><path clip-path="url(#SVGID_1_)" fill="#bfc3c5" d="M139.9 9.3L2 34.2v-.1L139.9 9.2z"/><path clip-path="url(#SVGID_1_)" fill="#c0c4c6" d="M139.9 9.4L2 34.3v-.1L139.9 9.3z"/><path clip-path="url(#SVGID_1_)" fill="#c0c4c6" d="M139.9 9.5L2 34.4v-.1L139.9 9.4z"/><path clip-path="url(#SVGID_1_)" fill="#bfc3c5" d="M139.9 9.5L2 34.4 139.9 9.5z"/><path clip-path="url(#SVGID_1_)" fill="#bec2c4" d="M139.9 9.6L2.1 34.5H2v-.1L139.9 9.5z"/><path clip-path="url(#SVGID_1_)" fill="#bdc1c3" d="M139.9 9.6L2.3 34.5h-.2L139.9 9.6z"/><path clip-path="url(#SVGID_1_)" fill="#bcc0c2" d="M139.9 9.7L2.6 34.5h-.3L139.9 9.6z"/><path clip-path="url(#SVGID_1_)" fill="#bbbfc1" d="M139.9 9.8L2.9 34.5h-.3L139.9 9.7z"/><path clip-path="url(#SVGID_1_)" fill="#babec0" d="M139.9 9.8L3.2 34.5h-.3l137-24.7z"/><path clip-path="url(#SVGID_1_)" fill="#b9bdbf" d="M139.9 9.9L3.5 34.5h-.3L139.9 9.8z"/><path clip-path="url(#SVGID_1_)" fill="#b8bcbe" d="M139.9 9.9L3.8 34.5h-.3L139.9 9.9z"/><path clip-path="url(#SVGID_1_)" fill="#b7bbbd" d="M139.9 10L4.1 34.5h-.3L139.9 9.9z"/><path clip-path="url(#SVGID_1_)" fill="#b6babc" d="M139.9 10L4.4 34.5h-.3L139.9 10z"/><path clip-path="url(#SVGID_1_)" fill="#b5b9bb" d="M139.9 10.1L4.7 34.5h-.3L139.9 10z"/><path clip-path="url(#SVGID_1_)" fill="#b4b8ba" d="M139.9 10.1L5 34.5h-.3l135.2-24.4z"/><path clip-path="url(#SVGID_1_)" fill="#b3b7b9" d="M139.9 10.2L5.3 34.5H5l134.9-24.4z"/><path clip-path="url(#SVGID_1_)" fill="#b2b6b8" d="M139.9 10.2L5.6 34.5h-.3l134.6-24.3z"/><path clip-path="url(#SVGID_1_)" fill="#b1b5b7" d="M139.9 10.3L5.9 34.5h-.3l134.3-24.3z"/><path clip-path="url(#SVGID_1_)" fill="#b0b4b6" d="M139.9 10.3L6.2 34.5h-.3l134-24.2z"/><path clip-path="url(#SVGID_1_)" fill="#afb3b5" d="M139.9 10.4L6.5 34.5h-.3l133.7-24.2z"/><path clip-path="url(#SVGID_1_)" fill="#aeb2b4" d="M139.9 10.5L6.8 34.5h-.3l133.4-24.1z"/><path clip-path="url(#SVGID_1_)" fill="#adb1b3" d="M139.9 10.5L7.1 34.5h-.3l133.1-24z"/><path clip-path="url(#SVGID_1_)" fill="#acb0b2" d="M139.9 10.6L7.4 34.5h-.3l132.8-24z"/><path clip-path="url(#SVGID_1_)" fill="#abafb1" d="M139.9 10.6L7.7 34.5h-.3l132.5-23.9z"/><path clip-path="url(#SVGID_1_)" fill="#abaeaf" d="M139.9 10.7L8 34.5h-.3l132.2-23.9z"/><path clip-path="url(#SVGID_1_)" fill="#aaadae" d="M139.9 10.7L8.3 34.5H8l131.9-23.8z"/><path clip-path="url(#SVGID_1_)" fill="#a9acad" d="M139.9 10.8L8.6 34.5h-.3l131.6-23.8z"/><path clip-path="url(#SVGID_1_)" fill="#a8abac" d="M139.9 10.8L8.9 34.5h-.3l131.3-23.7z"/><path clip-path="url(#SVGID_1_)" fill="#a7aaab" d="M139.9 10.9L9.2 34.5h-.3l131-23.7z"/><path clip-path="url(#SVGID_1_)" fill="#a6a9aa" d="M139.9 10.9L9.5 34.5h-.3l130.7-23.6z"/><path clip-path="url(#SVGID_1_)" fill="#a5a8a9" d="M139.9 11L9.8 34.5h-.3l130.4-23.6z"/><path clip-path="url(#SVGID_1_)" fill="#a4a7a8" d="M139.9 11L10.1 34.5h-.3L139.9 11z"/><path clip-path="url(#SVGID_1_)" fill="#a3a6a7" d="M139.9 11.1L10.4 34.5h-.3L139.9 11z"/><path clip-path="url(#SVGID_1_)" fill="#a2a5a6" d="M139.9 11.1L10.7 34.5h-.3l129.5-23.4z"/><path clip-path="url(#SVGID_1_)" fill="#a1a4a5" d="M139.9 11.2L11 34.5h-.3l129.2-23.4z"/><path clip-path="url(#SVGID_1_)" fill="#a0a3a4" d="M139.9 11.3L11.3 34.5H11l128.9-23.3z"/><path clip-path="url(#SVGID_1_)" fill="#9fa2a3" d="M139.9 11.3L11.6 34.5h-.3l128.6-23.2z"/><path clip-path="url(#SVGID_1_)" fill="#9ea1a2" d="M139.9 11.4l-128 23.1h-.3l128.3-23.2z"/><path clip-path="url(#SVGID_1_)" fill="#9da0a1" d="M139.9 11.4L12.2 34.5h-.3l128-23.1z"/><path clip-path="url(#SVGID_1_)" fill="#9c9fa0" d="M139.9 11.5l-127.4 23h-.3l127.7-23.1z"/><path clip-path="url(#SVGID_1_)" fill="#9b9e9f" d="M139.9 11.5l-127.1 23h-.3l127.4-23z"/><path clip-path="url(#SVGID_1_)" fill="#9a9d9e" d="M139.9 11.6L13.1 34.5h-.3l127.1-23z"/><path clip-path="url(#SVGID_1_)" fill="#999c9d" d="M139.9 11.6L13.4 34.5h-.3l126.8-22.9z"/><path clip-path="url(#SVGID_1_)" fill="#989b9c" d="M139.9 11.7L13.7 34.5h-.3l126.5-22.9z"/><path clip-path="url(#SVGID_1_)" fill="#979a9b" d="M139.9 11.7L14 34.5h-.3l126.2-22.8z"/><path clip-path="url(#SVGID_1_)" fill="#96999a" d="M139.9 11.8L14.3 34.5H14l125.9-22.8z"/><path clip-path="url(#SVGID_1_)" fill="#96999a" d="M14.3 34.5l125.6-22.7v22.7z"/><g><defs><path id="SVGID_154_" d="M4.2 24.3s-.9 4.3 1.7 10c0 0-1.2.2-2.2.4S1 34.4.2 29.9c-.8-4.5.4-4.9 1.4-5.1 1-.2 2.6-.5 2.6-.5z"/></defs><clipPath id="SVGID_2_"><use xlink:href="#SVGID_154_" overflow="visible"/></clipPath><path clip-path="url(#SVGID_2_)" fill="#575756" d="M3 24.3l-3.5.6v-.6z"/><path clip-path="url(#SVGID_2_)" fill="#575756" d="M4.9 24.3l-5.4 1v-.4l3.5-.6z"/><path clip-path="url(#SVGID_2_)" fill="#565655" d="M6 24.4l-6.5 1.2v-.3l5.4-1H6z"/><path clip-path="url(#SVGID_2_)" fill="#555554" d="M6 24.8L-.5 26v-.4L6 24.4z"/><path clip-path="url(#SVGID_2_)" fill="#545453" d="M6 25.2l-6.5 1.1V26L6 24.8z"/><path clip-path="url(#SVGID_2_)" fill="#535352" d="M6 25.5l-6.5 1.2v-.4L6 25.2z"/><path clip-path="url(#SVGID_2_)" fill="#515150" d="M6 25.9L-.5 27v-.3L6 25.5z"/><path clip-path="url(#SVGID_2_)" fill="#50504f" d="M6 26.2l-6.5 1.2V27L6 25.9z"/><path clip-path="url(#SVGID_2_)" fill="#4f4f4e" d="M6 26.6l-6.5 1.2v-.4L6 26.2z"/><path clip-path="url(#SVGID_2_)" fill="#4e4e4d" d="M6 26.9l-6.5 1.2v-.3L6 26.6z"/><path clip-path="url(#SVGID_2_)" fill="#4d4d4c" d="M6 27.3l-6.5 1.2v-.4L6 26.9zM6 27.3l-6.5 1.2L6 27.3z"/><path clip-path="url(#SVGID_2_)" fill="#4c4c4b" d="M6 27.4l-6.5 1.2v-.1L6 27.3z"/><path clip-path="url(#SVGID_2_)" fill="#4b4b4a" d="M6 27.5l-6.5 1.2v-.1L6 27.4z"/><path clip-path="url(#SVGID_2_)" fill="#4a4a49" d="M6 27.5l-6.5 1.2L6 27.5z"/><path clip-path="url(#SVGID_2_)" fill="#494948" d="M6 27.6l-6.5 1.2v-.1L6 27.5z"/><path clip-path="url(#SVGID_2_)" fill="#484847" d="M6 27.7l-6.5 1.2v-.1L6 27.6z"/><path clip-path="url(#SVGID_2_)" fill="#474746" d="M6 27.7l-6.5 1.2L6 27.7z"/><path clip-path="url(#SVGID_2_)" fill="#464645" d="M6 27.8L-.5 29v-.1L6 27.7z"/><path clip-path="url(#SVGID_2_)" fill="#454544" d="M6 27.9l-6.5 1.2V29L6 27.8z"/><path clip-path="url(#SVGID_2_)" fill="#444443" d="M6 27.9l-6.5 1.2L6 27.9z"/><path clip-path="url(#SVGID_2_)" fill="#434342" d="M6 28l-6.5 1.2v-.1L6 27.9z"/><path clip-path="url(#SVGID_2_)" fill="#424241" d="M6 28.1l-6.5 1.2v-.1L6 28z"/><path clip-path="url(#SVGID_2_)" fill="#414140" d="M6 28.1l-6.5 1.2L6 28.1z"/><path clip-path="url(#SVGID_2_)" fill="#40403f" d="M6 28.2l-6.5 1.2v-.1L6 28.1z"/><path clip-path="url(#SVGID_2_)" fill="#3f3f3e" d="M6 28.3l-6.5 1.2v-.1L6 28.2z"/><path clip-path="url(#SVGID_2_)" fill="#3e3e3d" d="M6 28.3l-6.5 1.2L6 28.3z"/><path clip-path="url(#SVGID_2_)" fill="#3d3d3c" d="M6 28.4l-6.5 1.2v-.1L6 28.3z"/><path clip-path="url(#SVGID_2_)" fill="#3c3c3b" d="M6 28.5l-6.5 1.1L6 28.4z"/><path clip-path="url(#SVGID_2_)" fill="#3b3b3a" d="M6 28.5l-6.5 1.2v-.1L6 28.5z"/><path clip-path="url(#SVGID_2_)" fill="#3a3a39" d="M6 28.6l-6.5 1.2v-.1L6 28.5z"/><path clip-path="url(#SVGID_2_)" fill="#383837" d="M6 28.7l-6.5 1.1L6 28.6z"/><path clip-path="url(#SVGID_2_)" fill="#373736" d="M6 28.7l-6.5 1.2v-.1L6 28.7z"/><path clip-path="url(#SVGID_2_)" fill="#363635" d="M6 28.8L-.5 30v-.1L6 28.7z"/><path clip-path="url(#SVGID_2_)" fill="#353534" d="M6 28.9L-.5 30 6 28.8z"/><path clip-path="url(#SVGID_2_)" fill="#343433" d="M6 28.9l-6.5 1.2V30L6 28.9z"/><path clip-path="url(#SVGID_2_)" fill="#333332" d="M6 29l-6.5 1.2v-.1L6 28.9z"/><path clip-path="url(#SVGID_2_)" fill="#323231" d="M6 29.1l-6.5 1.1L6 29z"/><path clip-path="url(#SVGID_2_)" fill="#313130" d="M6 29.1l-6.5 1.2v-.1L6 29.1z"/><path clip-path="url(#SVGID_2_)" fill="#30302f" d="M6 29.2l-6.5 1.2v-.1L6 29.1z"/><path clip-path="url(#SVGID_2_)" fill="#2f2f2e" d="M6 29.3l-6.5 1.1L6 29.2z"/><path clip-path="url(#SVGID_2_)" fill="#2e2e2d" d="M6 29.3l-6.5 1.2v-.1L6 29.3z"/><path clip-path="url(#SVGID_2_)" fill="#2d2d2c" d="M6 29.4l-6.5 1.2v-.1L6 29.3z"/><path clip-path="url(#SVGID_2_)" fill="#2c2c2b" d="M6 29.5l-6.5 1.1L6 29.4z"/><path clip-path="url(#SVGID_2_)" fill="#2b2b2a" d="M6 29.5l-6.5 1.2v-.1L6 29.5z"/><path clip-path="url(#SVGID_2_)" fill="#2a2a29" d="M6 29.6l-6.5 1.2v-.1L6 29.5z"/><path clip-path="url(#SVGID_2_)" fill="#292928" d="M6 29.7l-6.5 1.1L6 29.6z"/><path clip-path="url(#SVGID_2_)" fill="#282827" d="M6 29.7l-6.5 1.2v-.1L6 29.7z"/><path clip-path="url(#SVGID_2_)" fill="#272726" d="M6 29.8L-.5 31v-.1L6 29.7z"/><path clip-path="url(#SVGID_2_)" fill="#262625" d="M6 29.9L-.5 31 6 29.8z"/><path clip-path="url(#SVGID_2_)" fill="#262625" d="M6 30.3l-6.5 1.2V31L6 29.9z"/><path clip-path="url(#SVGID_2_)" fill="#252524" d="M6 30.8l-6.5 1.1v-.4L6 30.3z"/><path clip-path="url(#SVGID_2_)" fill="#242423" d="M6 31.2l-6.5 1.2v-.5L6 30.8z"/><path clip-path="url(#SVGID_2_)" fill="#232322" d="M6 31.7l-6.5 1.1v-.4L6 31.2z"/><path clip-path="url(#SVGID_2_)" fill="#222221" d="M6 32.1l-6.5 1.2v-.5L6 31.7z"/><path clip-path="url(#SVGID_2_)" fill="#21211f" d="M6 32.6l-6.5 1.1v-.4L6 32.1z"/><path clip-path="url(#SVGID_2_)" fill="#20201e" d="M6 33l-6.5 1.2v-.5L6 32.6z"/><path clip-path="url(#SVGID_2_)" fill="#1f1f1d" d="M6 33.5l-6.5 1.1v-.4L6 33z"/><path clip-path="url(#SVGID_2_)" fill="#1e1e1c" d="M6 33.9l-5.1.9H-.5v-.2L6 33.5z"/><path clip-path="url(#SVGID_2_)" fill="#1d1d1b" d="M6 34.4l-2.6.4H.9l5.1-.9z"/><path clip-path="url(#SVGID_2_)" fill="#1d1d1b" d="M3.4 34.8l2.6-.4v.4z"/></g><g><defs><path id="SVGID_156_" d="M135.9.5s2.4 3.7 1.9 10c0 0 1.2-.2 2.2-.4 1-.2 2.4-1.2 1.6-5.7-.8-4.5-2.1-4.5-3.1-4.3-.9.1-2.6.4-2.6.4z"/></defs><clipPath id="SVGID_3_"><use xlink:href="#SVGID_156_" overflow="visible"/></clipPath><path clip-path="url(#SVGID_3_)" fill="#575756" d="M138.2-.1l-2.3.4v-.4z"/><path clip-path="url(#SVGID_3_)" fill="#575756" d="M140.2-.1l-4.3.8V.3l2.3-.4z"/><path clip-path="url(#SVGID_3_)" fill="#565655" d="M142.1-.1L135.9 1V.7l4.3-.8z"/><path clip-path="url(#SVGID_3_)" fill="#555554" d="M142.4.2l-6.5 1.2V1l6.2-1.1h.3z"/><path clip-path="url(#SVGID_3_)" fill="#545453" d="M142.4.5l-6.5 1.2v-.3l6.5-1.2z"/><path clip-path="url(#SVGID_3_)" fill="#535352" d="M142.4.9l-6.5 1.2v-.4l6.5-1.2z"/><path clip-path="url(#SVGID_3_)" fill="#515150" d="M142.4 1.3l-6.5 1.1v-.3l6.5-1.2z"/><path clip-path="url(#SVGID_3_)" fill="#50504f" d="M142.4 1.6l-6.5 1.2v-.4l6.5-1.1z"/><path clip-path="url(#SVGID_3_)" fill="#4f4f4e" d="M142.4 2l-6.5 1.1v-.3l6.5-1.2z"/><path clip-path="url(#SVGID_3_)" fill="#4e4e4d" d="M142.4 2.3l-6.5 1.2v-.4l6.5-1.1z"/><path clip-path="url(#SVGID_3_)" fill="#4d4d4c" d="M142.4 2.7l-6.5 1.1v-.3l6.5-1.2z"/><path clip-path="url(#SVGID_3_)" fill="#4d4d4c" d="M142.4 2.7l-6.5 1.2v-.1l6.5-1.1z"/><path clip-path="url(#SVGID_3_)" fill="#4c4c4b" d="M142.4 2.8L135.9 4v-.1l6.5-1.2z"/><path clip-path="url(#SVGID_3_)" fill="#4b4b4a" d="M142.4 2.9L135.9 4l6.5-1.2z"/><path clip-path="url(#SVGID_3_)" fill="#4a4a49" d="M142.4 2.9l-6.5 1.2V4l6.5-1.1z"/><path clip-path="url(#SVGID_3_)" fill="#494948" d="M142.4 3l-6.5 1.2v-.1l6.5-1.2z"/><path clip-path="url(#SVGID_3_)" fill="#484847" d="M142.4 3.1l-6.5 1.1 6.5-1.2z"/><path clip-path="url(#SVGID_3_)" fill="#474746" d="M142.4 3.1l-6.5 1.2v-.1l6.5-1.1z"/><path clip-path="url(#SVGID_3_)" fill="#464645" d="M142.4 3.2l-6.5 1.2v-.1l6.5-1.2z"/><path clip-path="url(#SVGID_3_)" fill="#454544" d="M142.4 3.3l-6.5 1.1 6.5-1.2z"/><path clip-path="url(#SVGID_3_)" fill="#444443" d="M142.4 3.3l-6.5 1.2v-.1l6.5-1.1z"/><path clip-path="url(#SVGID_3_)" fill="#434342" d="M142.4 3.4l-6.5 1.2v-.1l6.5-1.2z"/><path clip-path="url(#SVGID_3_)" fill="#424241" d="M142.4 3.5l-6.5 1.1 6.5-1.2z"/><path clip-path="url(#SVGID_3_)" fill="#414140" d="M142.4 3.5l-6.5 1.2v-.1l6.5-1.1z"/><path clip-path="url(#SVGID_3_)" fill="#40403f" d="M142.4 3.6l-6.5 1.2v-.1l6.5-1.2z"/><path clip-path="url(#SVGID_3_)" fill="#3f3f3e" d="M142.4 3.7l-6.5 1.1 6.5-1.2z"/><path clip-path="url(#SVGID_3_)" fill="#3e3e3d" d="M142.4 3.7l-6.5 1.2v-.1l6.5-1.1z"/><path clip-path="url(#SVGID_3_)" fill="#3d3d3c" d="M142.4 3.8L135.9 5v-.1l6.5-1.2z"/><path clip-path="url(#SVGID_3_)" fill="#3c3c3b" d="M142.4 3.9L135.9 5l6.5-1.2z"/><path clip-path="url(#SVGID_3_)" fill="#3b3b3a" d="M142.4 3.9l-6.5 1.2V5l6.5-1.1z"/><path clip-path="url(#SVGID_3_)" fill="#3a3a39" d="M142.4 4l-6.5 1.2v-.1l6.5-1.2z"/><path clip-path="url(#SVGID_3_)" fill="#383837" d="M142.4 4.1l-6.5 1.1 6.5-1.2z"/><path clip-path="url(#SVGID_3_)" fill="#373736" d="M142.4 4.1l-6.5 1.2v-.1l6.5-1.1z"/><path clip-path="url(#SVGID_3_)" fill="#363635" d="M142.4 4.2l-6.5 1.2v-.1l6.5-1.2z"/><path clip-path="url(#SVGID_3_)" fill="#353534" d="M142.4 4.3l-6.5 1.1 6.5-1.2z"/><path clip-path="url(#SVGID_3_)" fill="#343433" d="M142.4 4.3l-6.5 1.2v-.1l6.5-1.1z"/><path clip-path="url(#SVGID_3_)" fill="#333332" d="M142.4 4.4l-6.5 1.2v-.1l6.5-1.2z"/><path clip-path="url(#SVGID_3_)" fill="#323231" d="M142.4 4.5l-6.5 1.1 6.5-1.2z"/><path clip-path="url(#SVGID_3_)" fill="#313130" d="M142.4 4.5l-6.5 1.2v-.1l6.5-1.1z"/><path clip-path="url(#SVGID_3_)" fill="#30302f" d="M142.4 4.6l-6.5 1.2v-.1l6.5-1.2z"/><path clip-path="url(#SVGID_3_)" fill="#2f2f2e" d="M142.4 4.7l-6.5 1.1 6.5-1.2z"/><path clip-path="url(#SVGID_3_)" fill="#2e2e2d" d="M142.4 4.7l-6.5 1.2v-.1l6.5-1.1z"/><path clip-path="url(#SVGID_3_)" fill="#2d2d2c" d="M142.4 4.8L135.9 6v-.1l6.5-1.2z"/><path clip-path="url(#SVGID_3_)" fill="#2c2c2b" d="M142.4 4.9L135.9 6l6.5-1.2z"/><path clip-path="url(#SVGID_3_)" fill="#2b2b2a" d="M142.4 4.9l-6.5 1.2V6l6.5-1.1z"/><path clip-path="url(#SVGID_3_)" fill="#2a2a29" d="M142.4 5l-6.5 1.2v-.1l6.5-1.2z"/><path clip-path="url(#SVGID_3_)" fill="#292928" d="M142.4 5.1l-6.5 1.1 6.5-1.2z"/><path clip-path="url(#SVGID_3_)" fill="#282827" d="M142.4 5.1l-6.5 1.2v-.1l6.5-1.1z"/><path clip-path="url(#SVGID_3_)" fill="#272726" d="M142.4 5.2l-6.5 1.2v-.1l6.5-1.2z"/><path clip-path="url(#SVGID_3_)" fill="#262625" d="M142.4 5.3l-6.5 1.1 6.5-1.2zM142.4 5.7l-6.5 1.2v-.5l6.5-1.1z"/><path clip-path="url(#SVGID_3_)" fill="#252524" d="M142.4 6.2l-6.5 1.1v-.4l6.5-1.2z"/><path clip-path="url(#SVGID_3_)" fill="#242423" d="M142.4 6.6l-6.5 1.2v-.5l6.5-1.1z"/><path clip-path="url(#SVGID_3_)" fill="#232322" d="M142.4 7.1l-6.5 1.1v-.4l6.5-1.2z"/><path clip-path="url(#SVGID_3_)" fill="#222221" d="M142.4 7.5l-6.5 1.2v-.5l6.5-1.1z"/><path clip-path="url(#SVGID_3_)" fill="#21211f" d="M142.4 8l-6.5 1.1v-.4l6.5-1.2z"/><path clip-path="url(#SVGID_3_)" fill="#20201e" d="M142.4 8.4l-6.5 1.2v-.5l6.5-1.1z"/><path clip-path="url(#SVGID_3_)" fill="#1f1f1d" d="M142.4 8.9l-6.5 1.1v-.4l6.5-1.2z"/><path clip-path="url(#SVGID_3_)" fill="#1e1e1c" d="M142.4 9.3l-6.5 1.2V10l6.5-1.1z"/><path clip-path="url(#SVGID_3_)" fill="#1d1d1b" d="M142.4 9.8l-4 .7h-2.5l6.5-1.2z"/><path clip-path="url(#SVGID_3_)" fill="#1d1d1b" d="M138.4 10.5l4-.7v.7z"/></g><g><path class="st221" d="M31.1 70.6c.2.9.3 1.7.4 2.2l.1.6H32.5c.3-.1.7-.1 1.2-.2.2 0 1.2-.2 2.9-.5.4-.1.7.2.7.5.1.4-.2.7-.5.7l-2.8.5c-.8.1-1.4.2-1.8.2-.5.1-1.1.1-1.4-.2-.1 0-.1-.1-.2-.2-.1 0-.1-.1-.1-.1v.3c-.1-.4-.2-.7-.2-1.1V73c-.1-.5-.2-1.3-.4-2.2-.1-.4-.2-1-.2-1.6-.1-.6-.2-1.1-.2-1.3l-.1-.8c-.3-1.5-.6-3.4-1-5.9-.8-5-1.5-9-2.6-12.5-.1-.3.1-.7.4-.8.3-.1.7.1.8.4 1 3.6 1.7 7.7 2.5 12.7.4 2.5.7 4.5 1 5.9l.6 3.7zM39.2 44.7c1-.1 3.4-.4 3.7-.5s.7.2.7.5c0 .2 0 .3-.1.5s-.2.2-.4.3c-.4.1-2.7.4-3.8.5-.9.1-1.6.2-2.1.4-.2 0-.4.1-.5.1-.3.3-.4.7-.4.7 0 .5 0 1.2.1 2.1.2 1.6.5 3.7.9 6.3l.1.5c.1.6.5.8 1 .7.7-.2 1.5-.3 1.7-.4.3-.1.7.1.8.5.1.4-.1.7-.5.8-.1.1-.5.1-1.2.3-.3 0-.5.1-.7.2-.5.1-.7.5-.6 1 .2 1.2.5 2.6.8 4.1.4 1.9.6 2.9.6 3.1 0 0 .1.4.2 1.2.1.7.2 1.3.3 1.8.1.7.2 1.3.3 1.7.1.1.1.3.1.4h.3c.2 0 .5 0 .9-.1l1.4-.2c.6-.1 1.2-.2 2.1-.4.8-.1 1.2-.2 1.3-.2.4-.1.7.2.7.5s-.2.7-.5.7c-.1 0-.5.1-1.3.3-.8.2-1.5.3-2 .4-.9.2-1.6.3-2.1.3-.1 0-.3 0-.4.1-.3 0-.5.1-.9 0 0 0-.1 0-.1-.1-.3-.1-.4-.4-.5-.6-.1-.2-.1-.4-.2-.7-.1-.4-.2-1-.4-1.8-.1-.5-.2-1.1-.3-1.8-.1-.7-.2-1.1-.2-1.2s-.2-1.4-.8-4c-1-5.3-1.9-10-2.2-13.2-.1-.9-.2-1.7-.2-2.3 0-.6.1-1.2.4-1.5.3-.3.8-.4 1.5-.6l2.5-.4zM51.6 44.3c-.6.1-.8.5-.8 1 .7 4.6 1.5 9.2 2.7 16 .6 3.6 1.1 6.1 1.3 7.5.1.4-.2.7-.5.7s-.7-.2-.7-.5c-.2-1.4-.7-3.9-1.4-7.5-1.2-6.8-2.1-11.4-2.7-16-.1-.6-.4-.8-1-.7-1 .2-1.9.3-2.7.5-.3.1-.7-.1-.8-.5-.1-.3.1-.7.5-.8.7-.2 3.8-.7 9.2-1.7.4-.1.7.2.7.5s-.2.7-.5.7l-3.3.8zM57.9 40.6c1.8 1.2 2.7 3.4 2.7 6.5 0 .4-.3.6-.6.7-.4 0-.6-.3-.7-.6-.1-2.7-.8-4.5-2.2-5.5-.6-.5.1-1.6.8-1.1zM67 64.7c-.2-.4-.4-.7-.6-1.3-.1-.3-.1-.5-.2-.7-.1-.1-.1-.4-.2-.7l-.3-1.9c-.1-.4.2-.7.5-.7s.7.2.7.5l.2 1s0 .2.1.4c0 .3.1.4.1.5 0 .2.2.7.3.9.1.1.1.3.2.4.1.2.1.3.2.4.1.1.1.3.2.4.1.1.1.3.2.4.9 1.1 2.3 1.3 3.8.7 1.5-.6 2.6-1.8 2.7-3.1 0-.6 0-1.2-.1-1.6-.2-1-.4-1.7-1-2.5-.5-.8-1-1.2-1.9-1.9-.5-.3-.9-.6-1.2-.8l-1.3-.7c-.1-.1-.3-.2-.6-.4-1.6-.8-2-1.1-3.3-2.1-1.3-1-1.8-1.7-2.4-3.1-.3-.6-.4-1.3-.4-2.1-.1-4.1 2.3-6.9 5.2-7.1 3-.3 5.5 2.1 5.6 6.5 0 .4-.3.6-.6.7-.4 0-.6-.3-.7-.6-.1-3.7-2-5.5-4.2-5.2-2.2.2-4.1 2.4-4 5.8 0 1.5.5 2.7 1.8 3.7 1.2 1.1 1.9 1.5 3.8 2.6l.4.2c1.1.6 1.6 1 2.6 1.6 1 .7 1.5 1.2 2.2 2.1.7.9 1 1.8 1.2 3 .2 1.3.3 3-1 4.5s-3.4 2.3-5.3 2c-1-.1-1.8-.6-2.4-1.4l-.3-.4zM89.2 41.2c0-2.1-1.8-5-3.6-4.1-1 .4-1.7 1.3-2 2.5-1 2.9-.7 7.8 1.2 14.5 1.1 3.7 2.1 6.2 3.2 7.5 1.8 2.3 3.3.6 3.8-.6.3-.6.4-1.2.4-1.9 0-.4.3-.6.6-.7.4 0 .6.3.7.6.1 1.7-.7 3.4-1.9 4.3-1.3 1-3.2.7-4.6-1-2.3-2.9-4.8-11.9-5.1-16.6-.2-2.9 0-5 .5-6.6.5-1.4 1.5-2.7 2.7-3.3 1.4-.6 2.9-.3 4 1.2 1 1.4 1.5 2.8 1.5 4.1 0 .4-.3.6-.7.6-.5.2-.7-.1-.7-.5zM99.7 34.3c.5 2.9 1.2 7.3 2.2 13.1.9 5.9 1.7 10.3 2.2 13.2.1.4-.2.7-.5.7-.4.1-.7-.2-.7-.5-.5-2.8-1.2-7.1-2.2-13-.1-.8-.5-.8-1.1-.7-.6.1-1.2.3-2 .4-.8.2-1.5.4-2 .4-.8.1-.8.5-.7 1.1 1.1 6 1.9 10.4 2.4 13.2.1.4-.2.7-.5.7-.4.1-.7-.2-.7-.5-.5-2.9-1.3-7.4-2.4-13.3-1.2-5.7-1.9-10.1-2.5-13.1-.1-.4.2-.7.5-.7.4-.1.7.2.7.5.5 2.7 1.1 6.1 1.9 10.3.2 1 .5.8 1 .7.5-.1 1.1-.2 1.9-.4.8-.2 1.6-.4 2.2-.5.6-.1.9-.1.7-1.1-.7-4.2-1.2-7.6-1.7-10.2-.1-.4.2-.7.5-.7s.7.1.8.4zM105.7 60.5c-1.4-6.1-2.3-13.1-2.8-21-.1-1.7 0-3.2.3-4.4.6-2 2-2.9 3.9-1.1 2.3 2.3 3.1 5.8 4.2 13.1 1.1 6.8 1.8 10.1 3.5 11.5.6.5-.1 1.5-.8 1-2.1-1.7-2.9-5.4-3.9-12.3-.1-.8-.3-1.6-.3-2.1-.1.1-.2.1-.2.1-.3.1-1.2.3-2.5.7-.6.1-1.1.3-1.5.5-.5.2-.7.5-.6 1.1.5 4.4 1.2 8.6 2 12.6.1.3-.1.7-.5.8-.4 0-.8-.2-.8-.5zm-.1-15.4c.3-.1.7-.2 1.1-.3 1.3-.3 2.1-.6 2.5-.7.1-.1.1 0 .2 0s.1-.3 0-.9c-.6-3.1-1.4-6.5-3.2-8.2-1.1-1.1-1.4-.8-1.8.4-.5 2-.2 5.5.1 9.1.1.6.5.8 1.1.6zM118.3 32.6c-.6.1-.8.5-.8 1 .7 4.6 1.5 9.2 2.7 16 .6 3.6 1.1 6.1 1.3 7.5.1.4-.2.7-.5.7s-.7-.2-.7-.5c-.2-1.4-.7-3.9-1.4-7.5-1.2-6.8-2.1-11.4-2.7-16-.1-.6-.4-.8-1-.7-1 .2-1.9.3-2.7.5-.3.1-.7-.1-.8-.5-.1-.3.1-.7.5-.8.7-.2 3.8-.7 9.2-1.7.4-.1.7.2.7.5s-.2.7-.5.7l-3.3.8zM130.8 49.5c.1.4-.2.7-.5.7-.4.1-.7-.2-.7-.5l-3.3-18.5c-.1-.4.2-.7.5-.7.4-.1.7.2.7.5l3.3 18.5zm1.3 4.9c.1.2.3 1.8-1.3 2-.5.1-1-.3-1-.8 0-.7.7-1.4 1.6-1.7.3-.1.7.1.7.5z"/></g></svg>