<svg version="1.1" id="Layer_1" xmlns="http://www.w3.org/2000/svg" x="0" y="0" viewBox="0 0 222.6 182.2" xml:space="preserve"><style>.st26{fill:#fff}.st38{fill:#aaa798}</style><linearGradient id="SVGID_1_" gradientUnits="userSpaceOnUse" x1="8.339" y1="94.371" x2="222.587" y2="94.371"><stop offset="0" stop-color="#e72e7c"/><stop offset="1" stop-color="#f5b5c3"/></linearGradient><path d="M219.6 65.9c-6.6-17.2-38.5-41-68-50.8C117.8 3.8 71.3.3 37.7 26.5 15.3 44 2.9 75 10.6 98.6c10.7 32.8 28.7 43.4 59.8 44.2 15.4.4 33.6-.8 50.9-8.1 18.1-7.6 19.5 1.4 18 20.4-.8 9.7-1.4 18.5-5.2 26.9 13.4-11.1 28.8-27.8 39.5-46.6 31.2-14.6 58.3-37.2 46-69.5z" fill="url(#SVGID_1_)"/><linearGradient id="SVGID_2_" gradientUnits="userSpaceOnUse" x1="-1331.017" y1="907.36" x2="-1130.18" y2="907.36" gradientTransform="rotate(-36.685 -1828.198 -1487.49)"><stop offset="0" stop-color="#f8cad5"/><stop offset="1" stop-color="#f5b5c3"/></linearGradient><path d="M170 26.3c13.5 18.1-11.6 59.6-56.1 92.8C69.4 152.2 22.4 164.4 9 146.3-4.6 128.2-7.9 75.8 36.6 42.7 81 9.5 156.5 8.2 170 26.3z" fill="url(#SVGID_2_)"/><linearGradient id="SVGID_3_" gradientUnits="userSpaceOnUse" x1="-831.471" y1="30.904" x2="-630.63" y2="30.904" gradientTransform="matrix(.8238 -.2125 .2499 .9683 696.303 -134.055)"><stop offset="0" stop-color="#f8cad5"/><stop offset="1" stop-color="#f5b5c3"/></linearGradient><path d="M187.7 42.3c5.6 21.9-26.8 49.1-72.5 60.9C69.5 115 27.9 106.9 22.3 85c-5.6-21.9 6.9-70.5 52.6-82.3 45.7-11.8 107.2 17.8 112.8 39.6z" fill="url(#SVGID_3_)"/><linearGradient id="SVGID_4_" gradientUnits="userSpaceOnUse" x1="-4570.105" y1="-2318.633" x2="-4369.273" y2="-2318.633" gradientTransform="matrix(-.7968 -.3947 .4439 -.8961 -2453.802 -3759.525)"><stop offset="0" stop-color="#f8cad5"/><stop offset="1" stop-color="#f5b5c3"/></linearGradient><path d="M4.1 31.2c10-20.2 54-18.9 98.2 3s71.9 56 61.9 76.3c-10 20.2-52.3 48.3-96.5 26.5C23.4 115.1-5.9 51.5 4.1 31.2z" fill="url(#SVGID_4_)"/><path class="st38" d="M37.8 80.4c-1.9 0-3.6-.5-5-1.6-1.9-1.4-3.1-3.5-3.6-6.2-.1-.4-.1-.9-.2-1.5l-.6-13.7c-4-2.1-6.4-5-7-8.4-.4-2.5.1-4.7 1.6-6.5 1.4-1.7 3.3-2.8 5.7-3.3.8-.1 1.5-.2 2.2-.2 2.8 0 6.4 1.2 7.4 6.8V48.6s.1 3.7.2 4.9c0 1.2.1 2.4.1 3.8l.2 5c.1 2 .1 3.7.2 5 0 1.6.1 2.4.2 2.8.3 1.7.9 1.7 1.1 1.7h.3c1.5-.3 2.2-2.3 2.1-5.9L41.3 39l.7-.5c1.2-.8 2.7-1.4 4.4-1.7.5-.1.9-.1 1.4-.1 2.2 0 3.7 1.2 4.1 3.3l.1.8c.5 10.1.7 16.4.7 18.8 0 3.8.2 6.7.5 8.5.2 1.3.7 1.3.9 1.3h.4c1-.2 1.7-1.6 2.1-2.7.7-2.1 1.1-4.6 1.1-7.6 0-6.4-.3-12-1.1-16.4-.4-2-.9-3.8-1.5-5.2l-.4-1 .8-.7c1.4-1.2 3.2-2 5.3-2.4.3-.1.7-.1 1-.1 1.3 0 3.6.5 4.2 4.1.6 3.5 1 9 1.2 16.3.2 6.3-.3 10.9-1.4 14.1-.5 1.4-1.2 2.8-1.9 4.1-1.7 2.9-4.5 4.7-8.3 5.4-.7.1-1.4.2-2.1.2-2.3 0-4.2-.7-5.9-2.1-1.6 2.6-4.2 4.2-7.6 4.8-.8.2-1.5.2-2.2.2zm-10-33.3v.4c0 .1 0 .2.1.3-.1-.2-.1-.5-.1-.7z"/><path class="st26" d="M61.9 34.9c1.5 0 2.4 1 2.7 2.9.6 3.5 1 8.8 1.2 16.1.2 6-.3 10.6-1.3 13.6-.5 1.3-1.1 2.6-1.8 3.8-1.5 2.5-3.9 4.1-7.3 4.7-.6.1-1.2.2-1.8.2-2.5 0-4.6-1.1-6.2-3.2-1.3 3.2-3.9 5.2-7.7 5.8-.7.1-1.3.2-1.9.2-1.6 0-3-.4-4.1-1.3-1.6-1.2-2.6-2.9-3-5.2-.1-.3-.1-.8-.1-1.4l-.7-14.6c-4.1-1.9-6.4-4.5-7-7.8-.4-2.1 0-3.8 1.2-5.3s2.8-2.4 4.8-2.7c.7-.1 1.3-.2 1.9-.2 3.3 0 5.2 1.9 5.9 5.6V49c0 .6 0 1.2.1 1.9 0 .7 0 1.6.1 2.8 0 1.2.1 2.4.1 3.8.1 1.4.1 3 .2 5s.1 3.6.2 5c0 1.4.1 2.4.2 3 .4 2 1.2 3 2.6 3 .2 0 .4 0 .6-.1 2.4-.4 3.5-2.9 3.3-7.4L43 40c1-.7 2.3-1.2 3.8-1.5.4-.1.8-.1 1.1-.1 1.5 0 2.3.7 2.6 2.1l.1.7c.5 10.1.7 16.3.7 18.6 0 3.9.2 6.8.5 8.8.3 1.7 1.1 2.6 2.4 2.6.2 0 .4 0 .6-.1 1.4-.3 2.5-1.5 3.2-3.7.7-2.2 1.1-4.9 1.2-8 0-6.5-.3-12.1-1.2-16.7-.4-2.2-.9-4-1.6-5.5 1.2-1 2.7-1.7 4.6-2.1.4-.2.7-.2.9-.2M29.7 52l-.1-2c-.1-1.1-.2-2.3-.4-3.4-.2-1-.6-1.5-1.2-1.5h-.2c-.6.1-1.1.4-1.3 1-.2.5-.3 1.1-.2 1.7.3 1.5 1.4 2.9 3.4 4.2m32.2-20.1c-.4 0-.8 0-1.2.1-2.4.4-4.5 1.4-6.1 2.8l-1.7 1.4.9 2c.6 1.3 1 2.9 1.4 4.8.8 4.4 1.2 9.8 1.1 16.2 0 2.8-.4 5.2-1 7.1-.2.6-.4 1-.6 1.3-.3-1.8-.4-4.4-.4-7.9 0-2.4-.2-8.6-.7-18.8v-.2l-.1-.7v-.2c-.5-2.8-2.6-4.5-5.5-4.5-.5 0-1.1.1-1.6.2-2 .3-3.7 1-5 2l-1.4.9.1 1.7 1.3 26.1c.1 2.1-.2 3.5-.5 4.1 0-.1 0-.2-.1-.2 0-.3-.1-.9-.2-2.5 0-1.4-.1-3.1-.2-5-.1-2-.1-3.6-.2-5-.1-1.3-.1-2.6-.1-3.8 0-1-.1-1.8-.1-2.5V49v-1.2-1-.2c0-.3 0-.5-.1-.7-.9-5.1-4.1-8-8.9-8-.8 0-1.6.1-2.4.2-2.7.5-5 1.8-6.6 3.8-1.7 2.1-2.4 4.8-1.9 7.7.7 3.7 3 6.8 7 9.1l.6 12.8c0 .7.1 1.3.2 1.7.6 3.1 2 5.5 4.2 7.1 1.7 1.2 3.6 1.8 5.9 1.8.8 0 1.6-.1 2.4-.2 3.2-.6 5.9-2 7.8-4.2 1.6 1 3.5 1.6 5.6 1.6.8 0 1.5-.1 2.3-.2 4.3-.8 7.4-2.8 9.4-6.1.8-1.4 1.5-2.8 2-4.3 1.2-3.4 1.7-8.2 1.5-14.7-.2-7.5-.6-12.9-1.2-16.5-1.1-5.2-4.8-5.6-5.9-5.6z"/><path class="st38" d="M79.8 72.9c-2.6 0-4.9-.7-6.9-2.2-2.8-2.1-4.5-5.1-5.2-8.9-.7-3.9.2-7.5 2.5-10.9 2.4-3.4 5.6-5.5 9.6-6.2 1-.2 2-.3 2.9-.3 1.7 0 3.3.3 4.6 1 2.3 1 3.7 2.8 4.1 5.2.6 3.1-.2 5.8-2.3 8.2-1.9 2.2-4.8 3.9-8.5 5.3l-.6.2c.7.4 1.4.6 2.2.6.3 0 .6 0 .9-.1 2.2-.4 4.2-1.6 6-3.5 1.8-2 3.2-4.4 4.1-7.3l.6-1.9 1.7 1.1c1 .6 1.9 1.5 2.8 2.5l.5.6-.2.7c-.7 2.9-2.4 6-4.9 9.1-1.3 1.6-3 2.9-4.9 4.1-1.9 1.2-4.1 2-6.3 2.4-.9.2-1.9.3-2.7.3zm1.3-21.4h-.4c-1.1.2-1.9 1-2.6 2.5-.6 1.4-.9 3-.7 4.7l.9-.4c1.7-.7 2.8-1.6 3.5-2.7.6-1.1.9-2.1.7-2.9-.1-.7-.3-1-.5-1.1-.3 0-.6-.1-.9-.1z"/><path class="st26" d="M82.7 46c1.5 0 2.8.3 4 .8 1.8.8 2.9 2.2 3.3 4.1.5 2.6-.2 4.9-2 6.9s-4.4 3.6-7.9 4.9l-1.2-2.9c2-.8 3.4-1.9 4.2-3.4.8-1.4 1.1-2.7.9-3.9-.2-1.2-.7-1.9-1.4-2.2-.5-.2-1-.3-1.5-.3-.2 0-.4 0-.7.1-1.6.3-2.8 1.4-3.7 3.4-.9 2-1.1 4.2-.7 6.6.4 2.4 1.3 4.1 2.7 5.1 1 .8 2.2 1.1 3.4 1.1.4 0 .8 0 1.2-.1 2.5-.5 4.8-1.8 6.8-3.9 2-2.2 3.5-4.8 4.4-7.9.9.6 1.7 1.3 2.5 2.3-.7 2.7-2.2 5.5-4.6 8.5-1.2 1.4-2.7 2.7-4.5 3.8-1.8 1.1-3.7 1.8-5.8 2.2-.9.2-1.7.2-2.5.2-2.3 0-4.3-.6-6-1.9-2.5-1.8-4-4.5-4.7-8-.6-3.5.1-6.7 2.3-9.8 2.1-3.1 5-4.9 8.7-5.6 1.1-.1 2-.1 2.8-.1m0-3c-1 0-2.1.1-3.1.3-4.4.8-8 3.1-10.6 6.8-2.6 3.7-3.5 7.8-2.8 12 .8 4.2 2.7 7.5 5.8 9.8 2.2 1.7 4.9 2.5 7.8 2.5 1 0 2-.1 3-.3 2.4-.4 4.7-1.3 6.8-2.6 2.1-1.2 3.8-2.7 5.3-4.4 2.7-3.3 4.4-6.5 5.2-9.7l.4-1.5-1-1.2c-1-1.2-2-2.1-3.1-2.8L93 49.8l-.1.3c-.6-2.8-2.3-4.9-4.9-6.1-1.6-.7-3.4-1-5.3-1zM79 56.4c.1-.6.3-1.2.5-1.7.4-1 .9-1.6 1.5-1.7v.1c.1.4-.1 1.1-.6 1.9-.2.5-.7 1-1.4 1.4z"/><path class="st38" d="M112.7 67.1c-2.3 0-4.4-.7-6.3-2-2.5-1.7-4.1-4.4-4.7-7.8-.9-4.8-.1-8.9 2.2-12.4 2.3-3.4 5.7-5.5 10.1-6.3l.3-.1c.9-.2 1.8-.2 2.6-.2.7 0 1.3 0 2 .1.9-.7 2-1.1 3.3-1.3.7-.1 1.4-.2 1.9-.2.7 0 1.2.1 1.7.3l.9.3.1 1c.1 2.5.3 5.1.4 7.5.1 2.5.2 4.2.2 5.2.1 2.8.3 4.2.4 4.8.1.3.1.5.2.5h.1c.3 0 .8-.5 1.3-1.4.6-1.1 1.1-2.9 1.3-5.2l.3-2.4 2 1.2c1.3.8 2.4 1.9 3.1 3.1l.2.4-.1.5c-.4 3.7-1.5 6.4-3.1 8.3-1.6 1.8-3.5 2.9-5.4 3.3-.8.1-1.5.2-2.2.2-1.8 0-3.4-.5-4.6-1.4-1.5 1.9-3.6 3.1-6.1 3.6-.6.3-1.3.4-2.1.4zm4.2-21.8c-.3 0-.6 0-.9.1-1.7.3-2.9 1.1-3.6 2.6-.8 1.6-1.1 3.9-.8 6.8 0 .3 0 .6.1.8.2 1.3.7 2.2 1.4 2.8.5.4 1 .6 1.6.6h.5c.5-.1 2.1-.4 2.7-4l-.6-9.7h-.4z"/><path class="st26" d="M124.2 38.5c.5 0 .9.1 1.2.2.1 2.5.3 5 .4 7.5.1 2.5.2 4.2.2 5.2.1 2.3.2 4 .4 5 .2 1.2.7 1.8 1.6 1.8h.4c.8-.2 1.6-.9 2.4-2.2.7-1.3 1.2-3.2 1.5-5.8 1.1.7 2 1.6 2.5 2.6-.4 3.4-1.3 5.8-2.7 7.4-1.4 1.6-2.9 2.5-4.5 2.8-.7.1-1.3.2-1.9.2-2.1 0-3.7-.8-4.8-2.3-1.4 2.5-3.4 4-6.2 4.5-.7.1-1.3.2-2 .2-2 0-3.8-.6-5.4-1.7-2.2-1.5-3.6-3.8-4.1-6.8-.8-4.4-.1-8.2 2-11.2 2.1-3.1 5.2-5 9.1-5.7.1 0 .2 0 .3-.1.8-.1 1.6-.2 2.4-.2.8 0 1.6.1 2.4.2.8-.7 1.9-1.2 3.2-1.4.6-.2 1.2-.2 1.6-.2m-9.5 22c.2 0 .5 0 .8-.1 2.1-.4 3.5-2.2 4-5.3l-.8-11.1c-.6-.1-1.2-.2-1.8-.2-.4 0-.8 0-1.2.1-2.2.4-3.7 1.5-4.7 3.4s-1.3 4.4-.9 7.7c0 .3.1.6.1.9.3 1.6.9 2.9 1.9 3.7.8.6 1.7.9 2.6.9m9.5-25c-.7 0-1.4.1-2.2.2-1.3.2-2.4.6-3.4 1.2-.5-.1-1.1-.1-1.6-.1-1 0-1.9.1-2.9.3h-.2c-4.8.9-8.5 3.2-11.1 6.9-2.6 3.7-3.4 8.3-2.5 13.5.7 3.8 2.5 6.8 5.4 8.8 2.2 1.5 4.6 2.3 7.2 2.3.8 0 1.6-.1 2.5-.2 2.4-.4 4.5-1.5 6.1-3.1 1.3.7 2.7 1 4.3 1 .8 0 1.6-.1 2.4-.2 2.3-.4 4.4-1.7 6.3-3.8 1.8-2.1 3-5 3.5-9.1l.1-1-.5-.9c-.8-1.5-2-2.7-3.6-3.7l-4.1-2.5-.5 4.7c-.1.8-.2 1.4-.3 2v-.6c0-1-.1-2.8-.2-5.2-.1-2.5-.2-5-.4-7.6l-.1-2-1.8-.7c-.8-.1-1.5-.2-2.4-.2zm-9.5 22c-.1 0-.3 0-.6-.3-.4-.4-.7-1-.9-2 0-.2-.1-.4-.1-.5v-.2c-.3-2.6-.1-4.7.6-6 .5-.9 1.1-1.4 2.1-1.7l.5 8c-.2 1.2-.7 2.4-1.5 2.6 0 .1 0 .1-.1.1z"/><g><path class="st38" d="M138.1 62.6c-1.9 0-3.4-.6-4.6-1.7-1.5-1.4-2.5-3.3-2.9-5.7-.1-.7-.2-1.2-.2-1.6l-1-16.7.9-.4c1.3-.6 2.6-1.1 4-1.4.5-.1.9-.1 1.4-.1 1 0 1.9.3 2.6.8 1.1-1.1 2.6-1.8 4.3-2.1.6-.1 1.2-.2 1.7-.2 1.1 0 2.2.2 3 .7 1.4.8 2.2 2 2.5 3.6.3 1.6-.1 3-1.1 4.3-1 1.1-2.3 1.9-4 2.2l-1.2.2c2.2 2 3.6 4.3 4 7 .5 3 .1 5.5-1.4 7.5-1.4 1.9-3.5 3.1-6 3.6-.8-.1-1.4 0-2 0zm2.3-8.6c.1.4.2.5.2.6h.1c.2 0 .3-.1.3-.1.1-.1.3-.6.1-2.1-.1-.7-.4-1.4-.9-2 .1 2 .2 3.2.2 3.6zm.2-11.7c.7.4 1.4.9 2 1.4v-1c0-.3 0-.6-.1-.8-.1-.7-.3-.7-.4-.7h-.3c-.3.1-.8.2-1.2 1.1z"/><path class="st26" d="M144.1 34.9c.9 0 1.7.2 2.3.5 1 .5 1.5 1.4 1.8 2.5.2 1.1-.1 2.2-.8 3-.7.9-1.8 1.4-3.2 1.7h-.2c0-.4 0-.7-.1-1.1-.2-1.3-.9-1.9-1.9-1.9-.2 0-.4 0-.5.1-1.4.2-2.3 1.3-2.8 3.2 4.1 2.2 6.5 5.1 7.2 8.7.5 2.6.1 4.7-1.1 6.3-1.2 1.6-2.9 2.6-5.1 3-.5.1-1.1.1-1.5.1-1.5 0-2.7-.4-3.6-1.3-1.3-1.2-2.1-2.8-2.4-4.9-.1-.6-.2-1.1-.2-1.4l-1-15.7c1.1-.6 2.3-1 3.6-1.2.4-.1.8-.1 1.1-.1 1.4 0 2.2.6 2.4 1.8v.1c1.1-1.8 2.6-2.9 4.7-3.3.4-.1.9-.1 1.3-.1M140.6 56h.4c1.5-.3 2-1.6 1.6-4-.3-2-1.7-3.7-4.1-5.3.3 4.9.4 7.4.4 7.5.2 1.2.8 1.8 1.7 1.8m3.5-24.1c-.6 0-1.3.1-1.9.2-1.6.3-3 .9-4.2 1.8-.7-.3-1.5-.5-2.4-.5-.5 0-1.1.1-1.6.2-1.5.3-3 .8-4.4 1.5l-1.7.9.1 2 1 15.7c0 .5.1 1 .2 1.8.5 2.7 1.6 4.9 3.3 6.5 1.5 1.4 3.4 2.1 5.7 2.1.7 0 1.4-.1 2.1-.2 3-.5 5.3-1.9 7-4.1 1.7-2.3 2.3-5.2 1.7-8.6-.4-2.2-1.3-4.1-2.6-5.9 1.4-.5 2.6-1.3 3.5-2.3 1.3-1.6 1.8-3.5 1.4-5.5-.4-2-1.5-3.6-3.2-4.6-1.3-.7-2.6-1-4-1z"/></g><g><path class="st38" d="M160.8 58.4c-2.6 0-4.9-.7-6.9-2.2-2.8-2.1-4.6-5.1-5.2-8.9-.7-3.9.2-7.5 2.5-10.9 2.4-3.4 5.6-5.5 9.6-6.2 1-.2 2-.3 2.9-.3 1.7 0 3.3.3 4.6 1 2.3 1 3.7 2.8 4.1 5.2.5 3.1-.2 5.8-2.3 8.1-1.9 2.2-4.8 3.9-8.5 5.3l-.6.2c.7.4 1.4.6 2.2.6.3 0 .6 0 .9-.1 2.2-.4 4.2-1.5 6-3.5 1.8-2 3.2-4.4 4.1-7.3l.6-1.9 1.7 1.1c1 .6 1.9 1.5 2.8 2.5l.5.6-.2.7c-.7 2.9-2.4 6-4.9 9.1-1.3 1.6-3 2.9-4.9 4.1-2 1.2-4.1 2-6.3 2.4-.9.4-1.8.4-2.7.4zm1.3-21.3h-.4c-1.1.2-1.9 1-2.6 2.5-.6 1.4-.9 3-.7 4.7l.9-.3c1.7-.7 2.8-1.6 3.5-2.7.6-1.1.9-2.1.7-2.9-.1-.7-.3-1-.5-1.1-.3-.2-.6-.2-.9-.2z"/><path class="st26" d="M163.7 31.5c1.5 0 2.8.3 4 .8 1.8.8 2.9 2.2 3.3 4.1.5 2.6-.2 4.9-2 6.9s-4.4 3.6-7.9 4.9l-1.2-2.8c2-.8 3.4-1.9 4.2-3.4.8-1.4 1.1-2.7.9-3.9-.2-1.2-.7-1.9-1.4-2.2-.5-.2-1-.3-1.5-.3-.2 0-.4 0-.7.1-1.6.3-2.8 1.4-3.7 3.4-.9 2-1.1 4.2-.7 6.6.4 2.4 1.3 4.2 2.7 5.1 1 .8 2.2 1.1 3.4 1.1.4 0 .8 0 1.2-.1 2.5-.5 4.8-1.8 6.8-3.9 2-2.2 3.5-4.8 4.4-7.9.9.6 1.7 1.3 2.5 2.3-.7 2.7-2.2 5.5-4.6 8.5-1.2 1.4-2.7 2.7-4.5 3.8-1.8 1.1-3.7 1.8-5.8 2.2-.9.2-1.7.2-2.5.2-2.3 0-4.3-.6-6-1.9-2.5-1.8-4-4.5-4.7-8-.6-3.5.1-6.7 2.3-9.8 2.1-3.1 5-4.9 8.7-5.6 1.1-.1 2-.2 2.8-.2m0-3c-1 0-2.1.1-3.1.3-4.4.8-8 3.1-10.6 6.8-2.6 3.7-3.5 7.8-2.8 12 .8 4.2 2.7 7.5 5.8 9.8 2.2 1.7 4.9 2.5 7.8 2.5 1 0 2-.1 3.1-.3 2.4-.4 4.7-1.3 6.8-2.6 2.1-1.2 3.8-2.7 5.3-4.4 2.7-3.3 4.4-6.5 5.2-9.7l.4-1.5-1-1.2c-1-1.2-2-2.1-3.1-2.8l-3.4-2.2-.1.3c-.6-2.8-2.3-4.8-4.9-6.1-1.7-.5-3.5-.9-5.4-.9zM160 41.9c.1-.6.3-1.2.5-1.7.7-1.5 1.3-1.6 1.5-1.7v.1c.1.4-.1 1.1-.6 1.9-.2.5-.7 1-1.4 1.4z"/></g><g><path class="st38" d="M12.3 121.9c-1.6-27.3-2.6-43.5-3.1-49.5l-.1-.9.8-.5c1-.6 2.4-1.1 4.1-1.4.9-.2 1.7-.2 2.4-.2 3.8 0 4.7 2.2 4.9 3.5l.1.5v.1c.4 5.4.6 10.3.8 14.8 1.6-1.2 3.5-2 5.5-2.4 1-.2 1.9-.3 2.8-.3 2.1 0 3.9.5 5.5 1.4 2.3 1.4 3.7 3.4 4.2 6.1.1.7.2 1.9.2 3.7.2 8.1.4 10.7.5 11.4.2.9.4 1.5.7 1.5h.1c.6-.1 1.4-.9 2.2-2.1.9-1.5 1.4-3.8 1.6-6.8l.2-2.7 2.2 1.6c2 1.5 3.1 2.6 3.7 3.7l.2.4-.1.5c-1 8.6-4.7 13.5-11.1 14.6-.8.1-1.5.2-2.2.2-2.2 0-4-.7-5.4-2-1.8-1.6-3-3.5-3.3-5.7v-.1l-1-14.5c-.2-.8-.5-1.4-.9-1.8-.2-.2-.5-.3-1.1-.3-.2 0-.5 0-.7.1-.9.2-1.6.6-2.1 1.5-.6 1-1 2.2-1.1 3.8.1 2.5.3 6.1.6 10.9.2 4.8.4 7.9.5 9.4l.1 1.3-11.5 2.1-.2-1.9z"/><path class="st26" d="M16.4 70.9c2 0 3.2.8 3.5 2.3l.1.4c.5 6.9.8 12.9.9 18.2 1.9-2.5 4.3-4 7.2-4.5.9-.2 1.7-.2 2.5-.2 1.8 0 3.4.4 4.7 1.2 1.9 1.2 3.1 2.9 3.5 5.1.1.6.2 1.7.2 3.4.2 6.6.3 10.5.5 11.6.3 1.8 1 2.7 2.1 2.7h.4c1.1-.2 2.2-1.2 3.2-2.9s1.6-4.2 1.8-7.4c1.7 1.3 2.8 2.4 3.3 3.2-.9 7.9-4.2 12.3-9.9 13.3-.7.1-1.3.2-1.9.2-1.8 0-3.3-.5-4.5-1.6-1.6-1.4-2.5-3-2.9-4.8l-1-14.5c-.2-1.2-.7-2.1-1.4-2.7-.5-.5-1.2-.7-2.1-.7-.3 0-.6 0-1 .1-1.3.2-2.4 1-3.1 2.2-.7 1.2-1.2 2.7-1.3 4.5.1 2.5.3 6.2.6 11s.4 7.9.5 9.4l-8.6 1.5c-1.6-26.9-2.6-43.4-3.1-49.5.8-.5 2-.9 3.6-1.2.9-.2 1.6-.3 2.2-.3m0-3c-.8 0-1.7.1-2.6.3-1.9.3-3.4.8-4.6 1.5l-1.6.9.1 1.8c.4 6 1.4 22.2 3.1 49.5l.2 3.4 3.3-.6 8.6-1.5 2.6-.5-.2-2.7c-.1-1.4-.2-4.6-.5-9.4-.2-4.7-.4-8.3-.6-10.8.1-1.2.4-2.2.8-3 .3-.6.7-.7 1.1-.8h.7c.1.1.3.3.4.9l1 14.3v.4c.4 2.5 1.7 4.7 3.8 6.5 1.7 1.5 3.9 2.3 6.4 2.3.8 0 1.6-.1 2.4-.2 4.9-.9 11-4.3 12.3-15.9l.1-.9-.5-.8c-.7-1.3-2-2.6-4.1-4.2l-4.4-3.3-.4 5.5c-.2 3.4-.9 5.2-1.4 6.1-.1.2-.2.3-.3.4-.1-1.2-.3-3.9-.4-10.4 0-1.9-.1-3.1-.3-3.9-.6-3.1-2.3-5.5-4.9-7.1-1.8-1.1-3.9-1.6-6.3-1.6-1 0-2 .1-3 .3-1.4.2-2.6.7-3.8 1.3-.2-3.8-.4-7.9-.7-12.2v-.4l-.1-.4c-.6-4.4-4.9-4.8-6.2-4.8z"/><path class="st38" d="M56.9 115.8c-3.2 0-6.1-.9-8.5-2.7-3.5-2.6-5.7-6.3-6.5-11.1-.9-4.8.2-9.4 3.2-13.6 3-4.2 7-6.8 12-7.7 1.3-.2 2.5-.3 3.6-.3 2.1 0 4 .4 5.7 1.2 2.8 1.3 4.5 3.4 5 6.3.7 3.8-.3 7.2-2.9 10.1-2.4 2.7-6 5-10.7 6.7l-1.3.5-2.8-6.4 1.4-.6c2.2-.9 3.8-2.1 4.6-3.6.8-1.5 1.2-2.8 1-4-.1-.5-.3-1.5-.9-1.7-.4-.2-.9-.3-1.3-.3-.2 0-.4 0-.6.1-1.5.3-2.7 1.4-3.6 3.5-1 2.2-1.2 4.8-.7 7.6.5 2.7 1.4 4.6 2.9 5.6 1.1.8 2.2 1.2 3.5 1.2.4 0 .8 0 1.3-.1 2.9-.5 5.5-2 7.8-4.5 2.4-2.6 4.2-5.8 5.3-9.5l.6-1.9 1.7 1.1c1.2.8 2.4 1.9 3.5 3.2l.5.6-.2.7c-.9 3.7-3 7.5-6.1 11.4-1.7 2-3.7 3.7-6.1 5.2-2.4 1.5-5.1 2.5-7.9 3-1.2-.1-2.4 0-3.5 0z"/><path class="st26" d="M60.6 81.8c1.9 0 3.6.3 5.1 1 2.3 1.1 3.7 2.8 4.2 5.3.6 3.3-.3 6.2-2.5 8.8-2.3 2.5-5.6 4.6-10.1 6.3l-1.6-3.6c2.6-1 4.4-2.5 5.4-4.3 1-1.8 1.4-3.5 1.1-5-.3-1.5-.8-2.4-1.7-2.8-.6-.3-1.3-.4-1.9-.4-.3 0-.6 0-.8.1-2 .4-3.6 1.8-4.7 4.3s-1.4 5.4-.8 8.5c.6 3.1 1.7 5.3 3.5 6.6 1.3 1 2.8 1.4 4.4 1.4.5 0 1 0 1.5-.1 3.2-.6 6.1-2.2 8.7-5 2.6-2.8 4.4-6.1 5.7-10.1 1.1.7 2.2 1.7 3.2 2.9-.8 3.5-2.8 7.1-5.8 10.8-1.5 1.8-3.5 3.4-5.8 4.8s-4.8 2.3-7.4 2.8c-1.1.2-2.2.3-3.2.3-2.9 0-5.5-.8-7.7-2.4-3.2-2.4-5.2-5.8-5.9-10.2-.8-4.4.2-8.6 2.9-12.5 2.7-3.9 6.4-6.3 11.1-7.1 1-.3 2.1-.4 3.1-.4m0-3c-1.2 0-2.5.1-3.9.4-5.4 1-9.8 3.8-13 8.3-3.2 4.6-4.4 9.5-3.4 14.7.9 5.2 3.3 9.2 7.1 12.1 2.7 2 5.9 3 9.5 3 1.2 0 2.5-.1 3.8-.3 3-.5 5.8-1.6 8.4-3.2 2.6-1.5 4.8-3.4 6.5-5.5 3.4-4.1 5.5-8.2 6.5-12l.4-1.5-1-1.2c-1.2-1.4-2.5-2.6-3.8-3.4L74.3 88l-1.2 3.8c0 .2-.1.3-.2.5.3-1.5.3-3.1 0-4.7-.7-3.4-2.7-5.9-5.9-7.4-1.9-1-4-1.4-6.4-1.4zm-5.7 17.8c0-1.4.3-2.7.9-3.9 1-2.3 2.1-2.5 2.5-2.6h.3c.2 0 .3 0 .5.1 0 .1.1.3.2.7.2 1-.3 2.1-.8 3-.6.9-1.8 1.9-3.6 2.7zm6.3 8.2c3.4-1.6 6.1-3.4 8.2-5.6-.4.5-.8 1.1-1.3 1.5-2.1 2.2-4.4 3.6-6.9 4.1z"/><g><path class="st38" d="M83.3 111.2c-2.3 0-4.2-.7-5.7-2.1-1.8-1.7-3-4.1-3.6-7.1-.2-.9-.2-1.5-.3-2l-1.3-21 .9-.4c1.6-.8 3.3-1.4 5-1.7.6-.1 1.2-.2 1.7-.2 1.4 0 2.5.4 3.3 1.2 1.5-1.5 3.3-2.5 5.5-2.9.7-.1 1.4-.2 2.1-.2 1.4 0 2.6.3 3.7.9 1.6.9 2.6 2.4 3 4.3.3 1.9-.1 3.6-1.3 5.1-1.2 1.4-2.8 2.3-4.9 2.7l-2 .4v-1.8c0-.4 0-.8-.1-1.1-.2-1.2-.6-1.2-.9-1.2H88c-.3.1-1.3.2-2 1.9 5 3 8 6.8 8.8 11.5.7 3.7.1 6.8-1.7 9.2-1.8 2.4-4.3 3.8-7.4 4.4-1 0-1.7.1-2.4.1zm2.4-10.6c.2 1.1.5 1.1.7 1.1h.3c.4-.1 1.4-.2.8-3.3-.2-1.3-.9-2.5-2-3.7 0 2.5.2 5.4.2 5.9z"/><path class="st26" d="M90.9 76.2c1.1 0 2.1.2 2.9.7 1.2.7 2 1.8 2.2 3.2.3 1.5-.1 2.8-1 3.9s-2.3 1.8-4 2.1h-.3c0-.5 0-.9-.1-1.4-.3-1.6-1.1-2.4-2.4-2.4-.2 0-.5 0-.7.1-1.7.3-2.9 1.7-3.6 4.1 5.3 2.8 8.3 6.5 9.2 11.1.6 3.3.1 6-1.4 8s-3.7 3.3-6.5 3.8c-.7.1-1.3.2-2 .2-1.9 0-3.4-.6-4.6-1.7-1.6-1.5-2.6-3.6-3.1-6.3-.1-.8-.2-1.4-.3-1.8l-1.2-20c1.5-.7 3-1.3 4.6-1.5.5-.1 1-.1 1.4-.1 1.8 0 2.8.8 3 2.3v.1c1.4-2.3 3.4-3.7 6-4.2.8-.1 1.4-.2 1.9-.2m-4.5 27h.5c1.9-.3 2.6-2 2-5.1-.4-2.5-2.2-4.8-5.2-6.8.3 6.3.5 9.5.5 9.6.3 1.5 1 2.3 2.2 2.3m4.5-30c-.7 0-1.5.1-2.4.2-2.1.4-3.9 1.2-5.4 2.4-.9-.5-2-.7-3.2-.7-.6 0-1.2.1-1.9.2-1.9.3-3.7.9-5.4 1.8l-1.8.9.1 2 1.3 20.1c0 .5.1 1.2.3 2.2.6 3.3 1.9 6 4 7.9 1.8 1.7 4 2.5 6.7 2.5.8 0 1.6-.1 2.5-.2 3.6-.6 6.4-2.3 8.4-5 2.1-2.7 2.7-6.2 2-10.4-.5-3-1.9-5.7-4-8.1 2.2-.5 4-1.5 5.3-3.1 1.5-1.8 2.1-4 1.7-6.3-.4-2.3-1.7-4.2-3.7-5.3-1.3-.7-2.8-1.1-4.5-1.1z"/></g><g><path class="st38" d="M112.2 105.9c-3.2 0-6.1-.9-8.6-2.7-3.5-2.6-5.7-6.3-6.5-11.1-.9-4.8.2-9.4 3.2-13.6 3-4.2 7-6.8 12-7.7 1.3-.2 2.5-.3 3.6-.3 2.1 0 4 .4 5.7 1.2 2.8 1.3 4.5 3.4 5 6.3.7 3.8-.3 7.2-2.9 10.1-2.4 2.7-6 4.9-10.7 6.7l-1.3.5-2.8-6.4 1.4-.6c2.2-.9 3.8-2.1 4.6-3.6.8-1.5 1.2-2.8 1-4-.1-.7-.4-1.5-.9-1.7-.4-.2-.9-.3-1.3-.3-.2 0-.4 0-.6.1-1.5.3-2.7 1.4-3.6 3.5-1 2.2-1.2 4.8-.7 7.6.5 2.7 1.4 4.6 2.9 5.6 1.1.8 2.2 1.2 3.5 1.2.4 0 .8 0 1.3-.1 2.9-.5 5.5-2 7.8-4.5 2.4-2.6 4.2-5.8 5.3-9.5l.6-1.9 1.7 1.1c1.2.8 2.4 1.9 3.5 3.2l.5.6-.2.7c-.9 3.7-3 7.5-6.1 11.4-1.7 2-3.7 3.7-6.2 5.2-2.4 1.5-5.1 2.5-7.9 3-1-.1-2.2 0-3.3 0z"/><path class="st26" d="M115.9 71.9c1.9 0 3.6.3 5.1 1 2.3 1.1 3.7 2.8 4.2 5.3.6 3.3-.2 6.2-2.5 8.8-2.3 2.5-5.6 4.6-10.1 6.3l-1.6-3.6c2.6-1 4.4-2.5 5.4-4.3 1-1.8 1.4-3.5 1.1-5-.3-1.5-.8-2.4-1.7-2.8-.6-.3-1.3-.4-1.9-.4-.3 0-.6 0-.8.1-2 .4-3.6 1.8-4.7 4.3s-1.4 5.4-.9 8.5c.6 3.1 1.7 5.3 3.5 6.6 1.3 1 2.8 1.4 4.4 1.4.5 0 1 0 1.5-.1 3.2-.6 6.1-2.2 8.7-5 2.6-2.8 4.5-6.1 5.7-10.1 1.1.7 2.2 1.7 3.2 2.9-.8 3.5-2.8 7.1-5.8 10.8-1.5 1.8-3.5 3.4-5.8 4.8s-4.8 2.3-7.4 2.8c-1.1.2-2.2.3-3.2.3-2.9 0-5.5-.8-7.7-2.4-3.2-2.4-5.2-5.8-5.9-10.2-.8-4.4.2-8.6 2.9-12.5 2.7-3.9 6.4-6.3 11.1-7.1 1.1-.3 2.2-.4 3.2-.4m0-3c-1.2 0-2.5.1-3.9.4-5.4 1-9.8 3.8-13 8.3-3.2 4.6-4.4 9.5-3.4 14.7.9 5.2 3.3 9.2 7.1 12.1 2.7 2 5.9 3 9.5 3 1.2 0 2.5-.1 3.7-.3 3-.5 5.8-1.6 8.4-3.2 2.6-1.5 4.8-3.4 6.5-5.4 3.4-4.1 5.5-8.1 6.5-12l.4-1.5-1-1.2c-1.2-1.4-2.5-2.6-3.8-3.5l-3.4-2.2-1.2 3.9c0 .1-.1.2-.1.3.2-1.5.2-3-.1-4.6-.7-3.4-2.7-5.9-5.9-7.4-1.8-.9-3.9-1.4-6.3-1.4zm-5.7 17.8c0-1.4.3-2.7.9-3.9 1-2.3 2.1-2.5 2.5-2.6h.3c.2 0 .3 0 .5.1 0 .1.1.3.2.7.2 1-.3 2.1-.8 3-.6 1-1.8 1.9-3.6 2.7zm6.3 8.2c3.4-1.5 6.1-3.4 8.2-5.6-.4.5-.8 1-1.3 1.5-2.1 2.3-4.4 3.6-6.9 4.1z"/></g></g><g><path class="st26" d="M78.8 138.2l-3.3-14.5 3.2-.7 2.9 12.9 4.8-1.1.4 1.6-8 1.8zM88.5 136l-3.3-14.5 8.1-1.8.4 1.6-4.8 1.1 1.1 4.8 3.2-.7.4 1.6-3.2.7 1.1 4.8 4.8-1.1.4 1.6-8.2 1.9zM99.9 133.4L97 120.5l-3.2.7-.4-1.6 9.7-2.2.4 1.6-3.2.7 2.9 12.9-3.3.8z"/><path class="st26" d="M103.1 117.4l3.2-.7.7 3.2c.4 1.9-.4 3.2-2.5 3.9l-.4-1.6c1-.3 1.5-.9 1.3-2l-1.6.4-.7-3.2zM116.8 117.7l-1.6.4c-.4-1.1-1-1.5-1.9-1.3-.6.1-1 .4-1.2.7-.2.3-.3.8-.2 1.3.1.4.3.7.7 1l4.3 3.1c.8.6 1.3 1.3 1.5 2.1l.2.8c.2.9.1 1.7-.4 2.5s-1.2 1.3-2.1 1.5l-1.6.4c-1.1.2-1.9.2-2.6-.3-.7-.4-1.1-1.2-1.4-2.2l1.6-.4c0 .1 0 .2.1.3.1.4.3.7.7.9s.8.2 1.2.1c.6-.1.9-.4 1.1-.7.2-.3.2-.8.1-1.3-.1-.4-.3-.8-.7-1l-4.3-3.1c-.8-.6-1.3-1.2-1.5-2.1l-.2-.8c-.2-.9-.1-1.7.4-2.5s1.2-1.3 2.1-1.5l1.6-.4c2.1-.4 3.4.4 4.1 2.5zM133.2 122.5c.4 2.2-.5 3.5-2.5 4l-3.2.7c-.9.2-1.7.1-2.5-.4s-1.3-1.2-1.5-2.1l-1.8-8c-.2-.9-.1-1.7.4-2.5s1.2-1.3 2.1-1.5l3.2-.7c2-.5 3.3.4 3.9 2.5l-1.6.4c-.4-1.1-1-1.5-2-1.3l-1.6.4c-.4.1-.8.3-1 .7-.2.4-.3.8-.2 1.3l1.8 8c.1.4.3.8.7 1 .4.3.8.3 1.2.2l1.6-.4c1-.2 1.4-.9 1.2-2l1.8-.3zM135.6 125.3l-3.3-14.5 3.2-.7 1.5 6.4 3.2-.7-1.5-6.4 3.2-.7 3.3 14.5-3.2.7-1.5-6.4-3.2.7 1.5 6.4-3.2.7zM147 122.8l-2.6-11.3c-.2-.9-.1-1.7.4-2.5s1.2-1.3 2.1-1.5l3.2-.7c.9-.2 1.7 0 2.5.4.8.5 1.3 1.2 1.5 2.1l2.6 11.3-3.2.7-1.5-6.4-3.2.7 1.5 6.4-3.3.8zm1.4-8.8l3.2-.7-.7-3.2c-.1-.5-.3-.8-.7-1-.4-.2-.8-.3-1.3-.2-.4.1-.8.3-1 .7-.2.4-.3.8-.2 1.3l.7 3.1zM160 119.8l-2.9-12.9-3.2.7-.4-1.6 9.7-2.2.4 1.6-3.2.7 2.9 12.9-3.3.8z"/></g></svg>