<svg version="1.1" id="Layer_1" xmlns="http://www.w3.org/2000/svg" x="0" y="0" viewBox="0 0 228.4 165.1" xml:space="preserve"><style>.st26{fill:#fff}.st137{fill:#00a79c}.st138{fill:#1c75bb}.st139{fill:#2aa9e1}</style><path class="st137" d="M201.2 133.4c-2.3 10.1-12.3 16.2-22.3 13.6L32.1 108.5c-10-2.6-16-12.9-13.4-22.9L37 16.4C39.6 6.4 50.2-.9 60.5.1l148 14.9c10.3 1 16.9 10.1 14.6 20.2l-21.9 98.2z"/><path class="st137" d="M52.9 104.6C34.5 129.9 0 132 0 132c22.3-11.3 28.5-33.6 28.5-33.6l24.4 6.2z"/><path class="st138" d="M175.5 146.3c-4.7 9.2-16 12.9-25.2 8.1L36.9 96c-9.2-4.7-12.8-16.1-8.1-25.3l28.8-56.1C62.3 5.3 74.1.7 83.8 4.1l121.3 43.1c9.7 3.5 13.9 13.8 9.2 23l-38.8 76.1z"/><path class="st138" d="M65.4 100.9c-14.2 27.5-46.6 34.5-46.6 34.5C38.5 121 41.6 98.3 41.6 98.3l23.8 2.6z"/><path class="st139" d="M205.9 151.1c-2.5 10-12.8 16-22.8 13.3L49.6 128.2c-10-2.7-17.3-13.3-16.2-23.6L38.5 56c1.1-10.3 10.4-18.3 20.7-17.8l154.5 7.3c10.3.5 16.7 9.1 14.2 19.1l-22 86.5z"/><path class="st139" d="M82.3 122.1C70.4 146.4 36.7 155 36.7 155c19.3-13.7 19.9-33.1 19.9-33.1l25.7.2z"/><g><path class="st137" d="M176.1 105.6c-1.1 5.7-6.6 9.3-12.2 7.8L63.3 87.9c-5.7-1.4-9.4-7.3-8.4-13l4.6-24.8c1.1-5.7 6.7-9.9 12.5-9.1l103 12.7c5.8.7 9.7 6 8.6 11.7l-7.5 40.2z"/></g><g><path class="st26" d="M65.9 42.9l-.1.4c-1.5 5.7-2.5 9.3-2.9 10.6-.7 2.2-1.1 3.9-1.2 5-.1 1.1.3 1.8 1.3 1.9.8.1 1.7-.4 2.5-1.5s1.5-2.6 2.1-4.3c1.2-3.7 1.9-6.9 2.3-9.6.1-1.3.1-2.4 0-3.4.9-.4 1.8-.5 3-.4 1.1.1 1.6.9 1.4 2.2-.3 2.1-1 5.1-2.2 9.2-1 3.4-2 5.9-3.1 7.4-.5.6-1.1 1.3-1.7 1.8-1.3 1.2-2.9 1.6-4.9 1.3-2-.3-3.3-1.3-4-3.1-1.3 1.6-3.1 2.2-5.3 1.9-1.4-.2-2.5-.7-3.2-1.7-.7-.9-.9-2.1-.8-3.5 0-.2.1-.4.2-.8l2.2-8.3c-1.9-1.8-2.8-3.7-2.5-5.6.2-1.2.7-2.1 1.6-2.7.9-.6 2-.8 3.2-.7 2.6.3 3.8 1.8 3.4 4.4v.1c0 .1 0 .2-.1.3 0 .1-.1.3-.1.4-.1.2-.1.4-.2.7-.1.3-.2.7-.3 1.1-.1.4-.3.9-.4 1.6-.2.7-.4 1.4-.6 2.2-.2.8-.5 1.7-.8 2.8-.3 1.1-.6 2.1-.8 2.8s-.4 1.4-.4 1.7c-.2 1.3.3 2.1 1.3 2.2 1.4.2 2.5-1 3.2-3.6l3.8-14.9c.7-.2 1.5-.3 2.4-.1 1.3.6 1.8 1.2 1.7 2.2zm-13.6-1.4c-.4 0-.7.1-.9.3-.2.3-.3.6-.4.9-.1.9.3 1.9 1.1 3l.3-1.2c.2-.6.3-1.3.4-2 .2-.6 0-.9-.5-1zM81.7 57.6c.7-.7 1.1-1.3 1.2-2 .1-.7 0-1.2-.4-1.5-.3-.3-.7-.5-1.2-.5-.9-.1-1.8.3-2.7 1.3-.8 1-1.4 2.2-1.5 3.6-.2 1.4 0 2.6.6 3.4s1.4 1.3 2.4 1.4c1.5.2 3-.1 4.5-1s2.8-2.1 3.9-3.6c.4.5.7 1 1 1.7-.8 1.4-2.2 2.7-4.1 3.9-.9.6-2 1-3.2 1.3s-2.4.4-3.6.2c-2-.3-3.5-1.1-4.5-2.4-1.1-1.5-1.5-3.2-1.2-5.3.3-2.1 1.3-3.7 3-5.1 1.7-1.3 3.7-1.9 5.8-1.6 1.5.2 2.7.7 3.6 1.5s1.2 1.8 1.1 2.9c-.2 1.5-1 2.7-2.3 3.5-1.4.8-3.1 1.3-5.3 1.4l-.2-1.8c1.4-.2 2.4-.6 3.1-1.3zM106.1 69.2c-1.8-.2-3-1-3.4-2.4-1.2 1.2-2.6 1.6-4.2 1.4-1.6-.2-2.9-.9-3.9-2.2-1-1.2-1.3-2.8-1.1-4.5.3-2.6 1.4-4.6 3.1-6 1.7-1.4 3.8-1.9 6.1-1.6h.2c1 .1 1.9.4 2.7.9.6-.3 1.3-.4 2-.3.8.1 1.3.3 1.6.5-.4 1.5-.7 2.9-1.1 4.3-.4 1.4-.7 2.4-.8 3-.4 1.3-.6 2.3-.6 2.9-.1.8.2 1.2.8 1.3.5.1 1.1-.2 1.7-.8.6-.6 1.3-1.6 1.9-3 .5.6.8 1.2 1 1.9-.8 1.8-1.8 3.1-2.8 3.7-1.2.8-2.2 1.1-3.2.9zm-3.2-12.8c-1.3-.2-2.3.2-3.2 1.1-.9.9-1.5 2.3-1.9 4.2 0 .2-.1.3-.1.5-.1 1 0 1.8.4 2.4.4.6 1 1 1.7 1.1 1.3.2 2.3-.6 3.2-2.3l1.5-6.4c-.6-.3-1.1-.5-1.6-.6z"/><path class="st26" d="M119.4 60.1c.1-.9-.2-1.4-1-1.5-.8-.1-1.5.3-2.1 1.3 1.9 2 2.8 4 2.5 6.1-.2 1.5-.8 2.6-1.7 3.3-1 .7-2.1 1-3.4.8-1.3-.2-2.2-.7-2.7-1.6-.5-.9-.7-1.9-.5-3.2 0-.4.1-.7.1-.8l2.2-9c.7-.1 1.5-.1 2.2 0 1.2.2 1.8.7 1.7 1.6v.1c.9-.8 2-1.2 3.2-1 .9.1 1.6.4 2 .9s.6 1 .5 1.7-.4 1.2-1 1.6c-.6.4-1.3.5-2.1.4h-.1c.1-.2.1-.5.2-.7zm-4 1.9c-.7 2.8-1.1 4.2-1.1 4.3-.1.8.2 1.3.9 1.4.9.1 1.4-.5 1.6-2 .1-1.1-.3-2.4-1.4-3.7zM130.9 63.9c.7-.7 1.1-1.3 1.2-2 .1-.7 0-1.2-.4-1.5-.3-.3-.7-.5-1.2-.5-.9-.1-1.8.3-2.7 1.3-.8 1-1.4 2.2-1.5 3.6-.2 1.4 0 2.6.6 3.4.6.8 1.4 1.3 2.4 1.4 1.5.2 3-.1 4.5-1s2.8-2.1 3.9-3.6c.4.5.7 1 1 1.7-.8 1.4-2.2 2.7-4.1 3.9-.9.6-2 1-3.2 1.3-1.2.3-2.4.4-3.6.2-2-.3-3.5-1.1-4.5-2.4-1.1-1.5-1.5-3.2-1.2-5.3.3-2.1 1.3-3.8 3-5.1 1.7-1.3 3.7-1.9 5.8-1.6 1.5.2 2.7.7 3.6 1.5s1.2 1.8 1.1 2.9c-.2 1.5-1 2.7-2.3 3.5-1.4.8-3.1 1.3-5.3 1.4l-.2-1.8c1.4-.2 2.4-.6 3.1-1.3zM150.7 71.3l1.6-6.5c.1-.5 0-1-.2-1.4-.2-.4-.7-.6-1.3-.7s-1.2.1-1.7.5-.9 1-1.2 1.8c-.3 1.1-.7 2.8-1.3 4.9-.6 2.1-.9 3.5-1.1 4.2l-4-.5c3-12 4.8-19.4 5.5-22.2.4-.1 1-.1 1.7 0 1.6.2 2.3.8 2.2 1.7v.2c-.7 3.1-1.5 5.8-2.1 8.1 1.2-.8 2.4-1.1 3.8-1 1.3.2 2.3.6 3 1.4s1 1.7.8 2.7c0 .3-.2.8-.4 1.5-.8 2.9-1.3 4.7-1.4 5.2-.1.9.1 1.4.7 1.5.5.1 1.1-.2 1.8-.8.7-.6 1.3-1.6 1.8-3 .6.8.9 1.4 1 1.9-1.5 3.3-3.5 4.8-6.2 4.5-1.2-.2-2.1-.7-2.6-1.5s-.6-1.6-.4-2.5z"/><path class="st26" d="M166.3 68.5c.7-.7 1.1-1.3 1.2-2 .1-.7 0-1.2-.4-1.5-.3-.3-.7-.5-1.2-.5-.9-.1-1.8.3-2.7 1.3-.8 1-1.4 2.2-1.5 3.6-.2 1.4 0 2.6.6 3.4.6.8 1.4 1.3 2.4 1.4 1.5.2 3-.1 4.5-1s2.8-2.1 3.9-3.6c.4.5.7 1 1 1.7-.8 1.4-2.2 2.7-4.1 3.9-.9.6-2 1-3.2 1.3s-2.4.4-3.6.2c-2-.3-3.5-1.1-4.5-2.4-1.1-1.5-1.5-3.2-1.2-5.3s1.3-3.8 3-5.1c1.7-1.3 3.7-1.9 5.8-1.6 1.5.2 2.7.7 3.6 1.5.9.8 1.2 1.8 1.1 2.9-.2 1.5-1 2.7-2.3 3.5-1.4.8-3.1 1.3-5.3 1.4l-.2-1.8c1.4-.3 2.4-.7 3.1-1.3z"/><path class="st26" d="M181 68c.1-.9-.2-1.4-1-1.5-.8-.1-1.5.3-2.1 1.3 1.9 2 2.8 4 2.5 6.1-.2 1.5-.8 2.6-1.7 3.3-1 .7-2.1.9-3.4.8-1.3-.2-2.2-.7-2.7-1.6-.5-.9-.7-1.9-.5-3.2 0-.4.1-.7.1-.8l2.2-9c.7-.1 1.5-.1 2.2 0 1.2.2 1.8.7 1.7 1.6v.1c.9-.8 2-1.2 3.2-1 .9.1 1.6.4 2 .9.4.5.6 1 .5 1.7s-.4 1.2-1 1.6c-.6.4-1.3.5-2.1.4h-.1c.1-.3.2-.5.2-.7zm-3.9 1.9c-.7 2.8-1.1 4.2-1.1 4.3-.1.8.2 1.3.9 1.4.9.1 1.4-.5 1.6-2 .1-1.2-.4-2.4-1.4-3.7zM192.6 71.8c.7-.7 1.1-1.3 1.2-2 .1-.7 0-1.2-.4-1.5-.3-.3-.7-.5-1.2-.5-.9-.1-1.8.3-2.7 1.3-.8 1-1.4 2.2-1.5 3.6-.2 1.4 0 2.6.6 3.4.6.8 1.4 1.3 2.4 1.4 1.5.2 3-.1 4.5-1s2.8-2.1 3.9-3.6c.4.5.7 1 1 1.7-.9 1.4-2.2 2.7-4.1 3.9-.9.6-2 1-3.2 1.3-1.2.3-2.4.4-3.6.2-2-.3-3.5-1.1-4.5-2.4-1.1-1.5-1.5-3.2-1.2-5.3s1.3-3.8 3-5.1c1.7-1.3 3.7-1.9 5.8-1.6 1.5.2 2.7.7 3.6 1.5.9.8 1.2 1.8 1.1 2.9-.2 1.5-1 2.7-2.3 3.5-1.3.8-3.1 1.3-5.3 1.4l-.2-1.8c1.4-.2 2.4-.6 3.1-1.3zM198.5 77.2c.5-.4 1.1-.6 1.8-.5s1.2.4 1.6.9.6 1.1.5 1.8-.4 1.2-.9 1.6-1.1.6-1.8.5c-.7-.1-1.2-.4-1.6-.9s-.6-1.1-.5-1.8.3-1.1.9-1.6zm5.5-20.9c.4-.1 1.1-.2 2.1 0 2 .2 2.9.8 2.8 1.8 0 .1 0 .2-.1.3l-5.7 15.2-3.2-.4 4.1-16.9z"/></g><g><path class="st26" d="M46 96.8l2.8-21.9 4.9.6L51.2 95l7.3.9-.3 2.4L46 96.8zM76.2 93.2L66.5 92l-.3 2.4c-.1.7.1 1.3.5 1.8s1 .9 1.6.9l2.5.3c1.6.2 2.5-.5 2.7-2.1l2.4.3c-.8 3.2-2.6 4.6-5.5 4.3l-4.9-.6c-1.3-.2-2.4-.8-3.2-1.9-.8-1.1-1.2-2.3-1-3.6l.9-7.3c.2-1.3.8-2.4 1.9-3.2 1.1-.8 2.3-1.2 3.6-1l4.9.6c1.3.2 2.4.8 3.2 1.9.8 1.1 1.2 2.3 1 3.6l-.6 4.8zm-9.4-3.6l4.9.6.3-2.5c.1-.7-.1-1.3-.5-1.8s-1-.8-1.6-.9c-.7-.1-1.3.1-1.8.5s-.8 1-.9 1.6l-.4 2.5zM83.1 79.3l4.8.6-.6 4.9 2.5.3-.3 2.4-2.5-.3-1.2 9.7c-.1.8.1 1.4.6 1.9s.9.8 1.3.8h.2l-.3 2.4-2.5-.3c-1.3-.2-2.4-.8-3.2-1.9-.8-1.1-1.2-2.3-1-3.6l1.2-9.7-2.5-.3.3-2.4 2.5.3.7-4.8zM92.9 80.5l4.9.6-.7 4.9c-.4 2.9-2.2 4.3-5.5 4.2l.3-2.4c1.6.1 2.5-.6 2.8-2.1l-2.5-.3.7-4.9zM111.2 92.7l-2.4-.3c0-1.6-.7-2.5-2-2.7-.9-.1-1.5 0-2 .3s-.7.8-.8 1.4c-.1.7 1 1.8 3.2 3.4 1.8 1.3 2.8 2.3 3 3 .2.7.3 1.5.2 2.2-.2 1.3-.8 2.4-1.9 3.3-1.1.8-2.3 1.2-3.6 1l-2.4-.3c-3.2-.4-4.7-2.2-4.3-5.5l2.5.3c0 1.7.6 2.6 2 2.7.9.1 1.5 0 2-.3s.8-.8.8-1.5-1-1.8-3.2-3.4c-1.8-1.3-2.8-2.3-3-3-.3-.6-.4-1.3-.3-2.1.2-1.3.8-2.4 1.9-3.3 1.1-.8 2.3-1.2 3.6-1l2.4.3c3.1.5 4.5 2.3 4.3 5.5zM132.3 102.9c-.6 3.2-2.4 4.6-5.5 4.3l-4.9-.6c-1.3-.2-2.4-.8-3.2-1.9-.8-1.1-1.2-2.3-1-3.6l1.6-12.1c.2-1.3.8-2.4 1.9-3.2s2.3-1.2 3.6-1l4.9.6c3.1.4 4.5 2.2 4.2 5.5l-2.4-.3c0-1.7-.7-2.6-2.1-2.8l-2.5-.3c-.7-.1-1.3.1-1.8.5s-.9 1-.9 1.6l-1.6 12.1c-.1.7.1 1.3.5 1.8s1 .9 1.6.9l2.5.3c1.4.2 2.4-.5 2.7-2.1l2.4.3zM134.2 108.1l2.8-21.9 4.9.6-.9 7.3c.2-.8.5-1.4 1-1.7.5-.3 1-.5 1.7-.4l2.5.3c1.3.2 2.4.8 3.2 1.9.8 1.1 1.2 2.3 1 3.6l-1.6 12.2-4.8-.6 1.6-12.2c.1-.7-.1-1.3-.5-1.8s-1-.8-1.6-.9c-.7-.1-1.3.1-1.8.5s-.8 1-.9 1.6l-1.6 12.2-5-.7zM162.4 101.8l.3-2.5c.1-.7-.1-1.3-.5-1.8s-1-.8-1.6-.9l-2.4-.3c-1.4-.2-2.4.5-2.7 2.1l-2.5-.3c.8-3.2 2.6-4.6 5.5-4.2l4.9.6c1.3.2 2.4.8 3.2 1.9.8 1.1 1.2 2.3 1 3.6l-1.6 12.2-4.8-.6.3-2.4c-.4 1.6-1.3 2.3-2.8 2.1l-2.4-.3c-1.3-.2-2.4-.8-3.2-1.9-.8-1.1-1.2-2.3-1-3.6.2-1.3.8-2.4 1.9-3.2 1.1-.8 2.3-1.2 3.6-1l4.8.5zm-.4 2.4l-2.5-.3c-.7-.1-1.3.1-1.8.5s-.8 1-.9 1.6c-.1.7.1 1.3.5 1.8s1 .9 1.6.9c.7.1 1.3-.1 1.8-.5s.9-1 .9-1.6l.4-2.4zM173.7 90.9l4.8.6-.6 4.9 2.5.3-.3 2.4-2.5-.3-1.2 9.7c-.1.8.1 1.4.6 1.9s.9.8 1.3.8h.2l-.3 2.4-2.5-.3c-1.3-.2-2.4-.8-3.2-1.9-.8-1.1-1.2-2.3-1-3.6l1.2-9.7-2.5-.3.3-2.4 2.5.3.7-4.8zM180.8 114l.6-4.9 4.9.6-.6 4.9-4.9-.6zM188.1 114.9l.6-4.9 4.9.6-.6 4.9-4.9-.6zM195.5 115.9l.6-4.9 4.9.6-.6 4.9-4.9-.6z"/></g></svg>