<svg version="1.1" id="Layer_1" xmlns="http://www.w3.org/2000/svg" x="0" y="0" viewBox="0 0 253.9 74" xml:space="preserve"><style>.st104{fill:#393e4b}</style><path d="M65.1 22.6c-27.9 1.3-50.4 3.5-59.6 6.7-4.3 1.6-6 6.2-4.1 10 6.2 14 9.2 20.5 9 34h233.1c-.1-13.5 2.9-20.1 9-34 1.8-3.8.1-8.4-4.1-10-7.3-2.5-22.9-4.4-42.9-5.8" fill="none" stroke="#f1dc25" stroke-width="1.267" stroke-miterlimit="10"/><path d="M14 69.8c-.4-12.8-3.4-18.6-9.3-31.9 0 0 0-.1-.1-.1-.4-.9-.5-2-.1-2.9.4-1 1.2-1.8 2.3-2.2 13.5-4.6 61.8-7.8 120.2-7.8 58.4 0 106.7 3.1 120.3 7.8 1 .4 1.8 1.1 2.2 2.1.4.9.3 2-.1 2.9 0 0 0 .1-.1.1-5.9 13.3-8.9 19.1-9.3 31.9H14z" fill="#f1dc25"/><path fill="#393e4b" stroke="#fff" stroke-width=".95" stroke-linecap="round" stroke-linejoin="round" stroke-miterlimit="10" d="M.7 12.7l57.8-9.3-23.1 40.5z"/><path class="st104" d="M70.1 1.4l5.4-.2.6 16.5 6.7-.2.2 4.5-12.2.4-.7-21zM83.9 1L96.3.7l.1 4.5-6.9.2.1 3.6 6.4-.3.1 4.3-6.5.2.1 4.2 7.2-.2.1 4.5-12.7.3-.4-21zM101.5 5.2l-4.1.1-.1-4.6L111 .5l.1 4.6-4.1.1.2 16.3-5.4.1-.3-16.4zM112.4.5h4.9v5.3c0 3.8-1.4 5.6-4.9 5.7V9c1.4-.2 1.9-.9 1.9-2.5v-.4h-1.9V.5zM128.2 6.4v-.5c0-1.2-.5-2.3-1.6-2.3-1.2 0-1.7.9-1.7 1.8 0 4.1 8.9 2.1 8.9 9.8 0 4.5-2.6 6.4-7.4 6.4-4.5 0-7-1.6-7-5.9V15h5.3v.5c0 1.8.7 2.4 1.8 2.4s1.8-.9 1.8-2c0-4.1-8.6-2.1-8.6-9.5 0-4.2 2.3-6.5 6.9-6.5 4.7 0 6.8 2 6.8 6.4h-5.2zM145.2 5.1l-4.1-.1.1-4.6 13.7.2-.1 4.6-4.1-.1-.2 16.3-5.4-.1.1-16.2zM158 .7l6.9.2 4.6 21-5.8-.1-.5-3.7-4.3-.1-.6 3.6-5.8-.1L158 .7zm3.4 4.4l-1.8 8.8 3 .1-1.2-8.9zM171.1 1l5.4.2-.5 16.5 6.7.2-.2 4.5-12.1-.4.7-21zM184.7 1.5l5.4.3-.4 8h.1l4.4-7.8 5.8.3-5.7 8.9 5.3 12.1-6.2-.3-2.8-7.4-1.2 1.7-.3 5.5-5.4-.3 1-21z"/></svg>