<svg version="1.1" id="Layer_1" xmlns="http://www.w3.org/2000/svg" x="0" y="0" viewBox="0 0 259.6 89.4" xml:space="preserve"><style>.st26{fill:#fff}.st38{fill:#aaa798}</style><path d="M252.1 50.5v33.9c0 2.8-2.2 5-5 5H11.7c-2.8 0-5-2.2-5-5l245.4-33.9z" fill="#e2dfce"/><path class="st26" d="M164.9 32.7H198c2.1 0 3.8 1.7 3.8 3.8v34c0 2.1-1.7 3.8-3.8 3.8h-4c-.9 2.4-2.5 4.6-4.8 6.2-2.2 1.5-4.6 2.2-7.1 2.2 2.3-2.4 3.8-5.3 4.4-8.4h-21.8c-2.1 0-3.8-1.7-3.8-3.8v-34c.1-2.1 1.8-3.8 4-3.8z"/><path d="M160.1 36.5c0-2.6 2.1-4.7 4.7-4.7H198c2.6 0 4.7 2.1 4.7 4.7v34c0 2.6-2.1 4.7-4.7 4.7h-3.3c-1 2.5-2.7 4.6-4.9 6.1s-4.8 2.3-7.6 2.3h-2.1l1.5-1.5c1.9-1.9 3.2-4.3 3.9-6.9h-20.6c-2.6 0-4.7-2.1-4.7-4.7m4.7-36.9c-1.6 0-3 1.3-3 3v34c0 1.6 1.3 3 3 3h22.8l-.2 1.1c-.5 2.6-1.6 5-3.2 7.1 1.6-.3 3.1-.9 4.5-1.8 2.1-1.4 3.6-3.4 4.4-5.8l.2-.6h4.6c1.6 0 3-1.3 3-3v-34c0-1.6-1.3-3-3-3h-33.1z" fill="#e99300"/><path d="M252.8.9h-51.3c-3.3 0-5.9 2.7-5.9 5.9v52.5c0 3.3 2.7 5.9 5.9 5.9h6.1c1.3 3.8 3.8 7.2 7.4 9.6 3.4 2.3 7.2 3.4 11 3.4-3.5-3.6-5.9-8.2-6.8-13h33.6c3.3 0 5.9-2.7 5.9-5.9V6.8c0-3.2-2.7-5.9-5.9-5.9z" fill="#e99300" stroke="#fff" stroke-width="1.781"/><path class="st26" d="M243.3 38l-2.8-1.5c1.1-2.1 1.7-4.4 1.7-6.8 0-8.1-6.6-14.7-14.7-14.7s-14.7 6.6-14.7 14.7c0 2.3.5 4.5 1.5 6.6l-2.8 1.4c-1.2-2.5-1.9-5.2-1.9-8 0-9.9 8-17.9 17.9-17.9 9.9 0 17.9 8 17.9 17.9 0 2.9-.7 5.7-2.1 8.3z"/><path class="st26" d="M218.8 47.9c-1.1 0-2.1-.7-2.4-1.7l-5.1-13.5c-.2-.6-.2-1.4.1-2 .3-.6.8-1.1 1.5-1.4 1.3-.5 2.9.2 3.4 1.5l5.1 13.5c.2.7.2 1.4-.1 2-.3.6-.8 1.1-1.4 1.4-.5.2-.8.2-1.1.2zm-5.2-17.1c-.1 0-.2 0-.4.1s-.4.3-.6.5c-.1.2-.1.5 0 .8l5.1 13.5c.2.5.8.8 1.3.6.3-.1.5-.3.6-.5.1-.2.1-.5 0-.8l-5.1-13.5c-.1-.5-.4-.7-.9-.7zm22.5 17.1c-.3 0-.6-.1-.9-.2-.6-.2-1.2-.7-1.4-1.4-.3-.6-.3-1.3-.1-2l5.1-13.5c.5-1.3 2-2 3.3-1.5.7.2 1.2.7 1.5 1.4.3.6.3 1.3.1 2l-5.1 13.5c-.4 1-1.4 1.7-2.5 1.7zm-.9-2.9c-.1.3-.1.5 0 .8.1.2.3.4.6.5.5.2 1.1-.1 1.3-.6l5.1-13.5c.1-.3.1-.5 0-.8-.1-.2-.3-.4-.6-.5-.1 0-.2-.1-.4-.1-.4 0-.8.3-.9.7"/><path class="st26" d="M211.3 45.4l-3-7.7 3.4-4.2 4.8 12zm32.2 0l3-7.7-3.5-4.2-4.7 12z"/><path class="st26" d="M220.1 55.8c-12.8-1.8-14.5-6.9-14.6-9-.2-3 2.1-5.8 5.4-6.7l.4 1.5c-2.6.7-4.4 2.9-4.2 5.1.2 3.6 5.2 6.4 13.2 7.5l-.2 1.6z"/><path class="st26" d="M225.2 57.7h-.2l-5.9-.7c-.9-.1-1.6-1.1-1.5-2.2.1-1.1.9-1.9 1.8-1.8l5.9.7c.9.1 1.6 1.1 1.5 2.2 0 1-.8 1.8-1.6 1.8z"/><path class="st26" d="M219.8 54.8c0 .9-.7 1.6-1.6 1.6-.9 0-1.6-.7-1.6-1.6 0-.9.7-1.6 1.6-1.6.9.1 1.6.8 1.6 1.6z"/><g><path class="st38" d="M.1 45.2c-.2-.8-.1-1.5.1-2.2s.5-1.2.9-1.7.9-.9 1.5-1.1 1.1-.5 1.7-.6c.6-.1 1.2-.1 1.8.1s1.2.4 1.7.7c.5.3 1 .8 1.3 1.4.4.6.6 1.3.7 2.1l1.4 10.8c.1.8.1 1.5-.2 2.2l2 1.2-1.3 2-1.7-1.2c-.4.4-.8.8-1.3 1-.5.2-1 .4-1.6.5-.6.1-1.2.1-1.8-.1-.6-.1-1.2-.4-1.7-.7-.5-.3-1-.8-1.3-1.4-.4-.6-.6-1.3-.7-2.1L.1 45.2zm4.3 10.5c.1.7.4 1.2.8 1.5.4.3.9.4 1.5.3.2 0 .5-.1.6-.2l-1.5-.9 1.3-2 1.3.8v-.1L7 44.3c-.1-.7-.4-1.2-.8-1.5s-.9-.4-1.5-.3c-.5.1-1 .3-1.3.7-.4.4-.5 1-.4 1.7l1.4 10.8zM22 53.6c.1.7 0 1.3-.1 1.9-.2.6-.4 1.2-.8 1.6-.4.5-.8.9-1.4 1.2s-1.1.5-1.8.6-1.3 0-1.9-.1c-.6-.2-1.2-.4-1.6-.8-.5-.4-.9-.8-1.2-1.4s-.5-1.1-.6-1.8L10.4 39l2.9-.4 2.1 15.6c.1.7.3 1.2.7 1.5.4.3.8.4 1.4.3s.9-.3 1.2-.7c.3-.4.4-1 .3-1.7l-2-15.5 2.9-.4L22 53.6zm-.7-16.1l2.9-.4 2.7 20.5-2.9.4-2.7-20.5zm15.8 14.1c.1.6 0 1.3-.1 1.9-.2.6-.4 1.2-.8 1.6-.4.5-.8.9-1.3 1.2-.5.3-1.1.5-1.8.6-.6.1-1.1.1-1.7 0-.6-.1-1.1-.3-1.7-.6-.5-.3-1-.8-1.3-1.3-.4-.6-.6-1.3-.8-2.3l-1.5-11.3c-.1-.7-.1-1.3.1-1.9.2-.6.4-1.1.8-1.6s.8-.9 1.4-1.2c.6-.3 1.2-.5 1.9-.6.7-.1 1.3-.1 1.9.1.6.2 1.1.4 1.6.8s.9.8 1.2 1.4c.3.6.5 1.2.6 1.9l.2 1.1-3 .6-.1-1c-.1-.6-.3-1.1-.7-1.4-.4-.4-.9-.5-1.4-.5-.7.1-1.2.4-1.4.9-.2.5-.2 1-.1 1.7l1.4 10.5c.1.6.3 1.1.6 1.4.3.4.8.5 1.5.4.2 0 .4-.1.6-.2.2-.1.4-.2.6-.4.2-.2.3-.4.4-.7.1-.3.1-.6 0-1l-.1-1 2.9-.4.1 1.3zm-1.2-16l2.9-.4 1.2 9.3h.1l3-9.9 2.9-.4-2.8 8.8 6.4 11.6-3.1.4-4.5-8.6-1.2 3.2.8 6.1-2.9.4-2.8-20.5zm15.2 2.9c-.1-.8-.1-1.6.1-2.2s.5-1.2.9-1.7.9-.9 1.5-1.1c.6-.3 1.1-.5 1.7-.6.6-.1 1.2-.1 1.8.1.6.1 1.2.4 1.7.7.5.4 1 .8 1.3 1.4.4.6.6 1.3.7 2.1L62.4 48c.1.8.1 1.5-.2 2.2l2 1.2-1.3 2-1.9-1.2c-.4.4-.8.8-1.3 1-.5.2-1 .4-1.6.5-.6.1-1.2.1-1.8-.1-.6-.1-1.2-.4-1.7-.7-.5-.3-1-.8-1.3-1.4-.4-.6-.6-1.3-.7-2.1l-1.5-10.9zm4.3 10.4c.1.7.4 1.2.8 1.5.4.3.9.4 1.5.3.2 0 .5-.1.6-.2l-1.5-.9 1.3-2 1.3.8v-.1L58 37.6c-.1-.7-.4-1.2-.8-1.5-.4-.3-.9-.4-1.5-.3-.5.1-1 .3-1.3.7-.3.4-.5.9-.4 1.6l1.4 10.8zM73 46.8c.1.7 0 1.3-.1 1.9-.2.6-.4 1.2-.8 1.6-.4.5-.8.9-1.4 1.2-.5.3-1.1.5-1.8.6-.7.1-1.3 0-1.9-.1-.6-.2-1.2-.4-1.6-.8-.5-.4-.9-.8-1.2-1.4-.3-.5-.5-1.1-.6-1.8l-2.1-15.9 2.9-.4 2.1 15.6c.1.7.3 1.2.7 1.5.4.3.8.4 1.4.3s.9-.3 1.2-.7c.3-.4.4-1 .3-1.7L68 31.3l2.9-.4L73 46.8zm-.8-16l8.7-1.2.4 2.8-5.8.8.8 6 5.1-.7.4 2.8-5.1.7.8 6 5.8-.8.4 2.9-8.7 1.2-2.8-20.5zm19.5 3.4l-2.9.4-.1-.7c-.1-.7-.3-1.2-.7-1.7-.4-.4-.9-.6-1.7-.5-.4.1-.7.2-1 .4-.2.2-.4.4-.5.7-.1.3-.2.5-.2.9v1c.1.4.1.7.2 1 .1.3.2.5.3.7.1.2.3.3.6.5.2.1.6.2 1 .3l2.4.6c.7.2 1.3.4 1.7.7.4.3.8.6 1.1 1.1.3.4.5.9.7 1.5.2.6.3 1.2.4 2 .1.9.1 1.7.1 2.4-.1.8-.3 1.4-.6 2-.3.6-.8 1.1-1.4 1.5-.6.4-1.4.7-2.3.8-.7.1-1.4.1-2-.1-.6-.2-1.2-.4-1.7-.8s-.9-.8-1.3-1.4c-.3-.6-.6-1.2-.6-1.9l-.1-1.1 2.9-.4.1.9c.1.5.3 1 .7 1.4s.9.5 1.7.4c.5-.1.9-.2 1.1-.4.3-.2.4-.4.6-.7.1-.3.2-.6.1-1 0-.4 0-.8-.1-1.3s-.1-1-.2-1.3c-.1-.3-.2-.6-.4-.8-.2-.2-.3-.3-.6-.4-.2-.1-.5-.2-.9-.3l-2.2-.6c-1.3-.3-2.3-.9-2.8-1.7-.5-.8-.9-1.8-1.1-3.1-.1-.8-.1-1.5 0-2.2.1-.7.4-1.4.7-1.9.3-.6.8-1 1.4-1.4.6-.4 1.3-.6 2.2-.7.7-.1 1.4 0 2.1.1.6.2 1.2.5 1.7.9s.9.8 1.2 1.3c.3.5.5 1.1.6 1.6l-.2 1.3z"/><path class="st38" d="M94 30.7l-3.4.4-.4-2.8 9.7-1.3.4 2.8-3.4.4L99.2 48l-2.9.4L94 30.7z"/><path class="st38" d="M99.9 27.1l2.9-.4 2.7 20.5-2.9.4-2.7-20.5zm4.8 4.3c-.1-.8-.1-1.6.1-2.2.2-.7.5-1.2.9-1.7s.9-.9 1.5-1.1c.6-.3 1.1-.5 1.7-.5.6-.1 1.2-.1 1.8.1.6.1 1.2.4 1.7.7.5.3 1 .8 1.3 1.4s.6 1.3.7 2.1l1.4 10.8c.1.8.1 1.6-.1 2.3-.2.7-.5 1.2-.9 1.7s-.9.9-1.5 1.1c-.6.3-1.1.5-1.7.5-.6.1-1.2.1-1.8-.1-.6-.1-1.2-.4-1.7-.7-.5-.3-1-.8-1.3-1.4-.4-.6-.6-1.3-.7-2.1l-1.4-10.9zm4.3 10.4c.1.7.4 1.2.8 1.5.4.3.9.4 1.5.3.5-.1 1-.3 1.3-.7.3-.4.5-.9.4-1.6l-1.4-10.8c-.1-.7-.4-1.2-.8-1.5-.4-.3-.9-.4-1.5-.3-.5.1-1 .3-1.3.7-.3.4-.5.9-.4 1.6l1.4 10.8zm5.9-16.7l2.8-.4 6.1 11.7h.1l-1.6-12.3 2.9-.4 2.7 20.5-2.8.4-6.1-11.7h-.1l1.6 12.3-2.9.4-2.7-20.5zm11.5 2.8c-.1-.6 0-1.2.1-1.7s.4-1.1.8-1.5.8-.8 1.3-1.1 1.1-.5 1.7-.6c.7-.1 1.4 0 2 .2.6.2 1.2.5 1.6 1 .2.2.4.5.6.7s.3.4.4.7c.1.2.2.5.3.9.1.3.1.7.2 1.1.1.5.1.9.2 1.3v.9c0 .3 0 .5-.1.7 0 .2-.1.4-.2.5l-1.5 3.7c-.1.2-.2.5-.3.7-.1.3-.1.5 0 .8l.3 2.3-2.9.4-.4-2.7c-.1-.4 0-.8 0-1.2.1-.4.2-.8.4-1.2l1.4-3.2c.1-.3.2-.6.2-.8v-.9l-.2-1.5c-.1-.4-.2-.7-.6-1s-.7-.3-1.1-.3c-.3 0-.7.2-1 .5-.3.3-.4.7-.3 1.2l.2 1.7-2.9.4-.2-2zm4.7 12.9l2.9-.4.4 2.9-2.9.4-.4-2.9zm-118.4 26l-2.9.4-.1-.7c-.1-.7-.3-1.2-.7-1.7-.4-.4-.9-.6-1.7-.5-.4.1-.7.2-1 .4-.2.2-.4.4-.5.7-.1.3-.2.5-.2.9v1c.1.4.1.7.2 1 .1.3.2.5.4.7.1.2.3.3.6.5.2.1.6.2 1 .3l2.4.6c.7.2 1.2.4 1.7.7.4.3.8.6 1.1 1.1.3.4.5.9.7 1.5.2.6.3 1.2.4 2-.1.7-.1 1.6-.1 2.3-.1.8-.3 1.4-.6 2s-.8 1.1-1.4 1.5c-.6.4-1.4.7-2.3.8-.7.1-1.4.1-2-.1-.7-.2-1.3-.5-1.8-.9s-.9-.8-1.3-1.4c-.3-.6-.6-1.2-.6-1.9l-.2-1 2.9-.4.1.9c.1.5.3 1 .7 1.4.4.4.9.5 1.7.4.5-.1.9-.2 1.1-.4.3-.2.4-.4.6-.7.1-.3.2-.6.1-1 0-.4 0-.8-.1-1.3s-.1-1-.2-1.3c-.1-.3-.2-.6-.4-.8-.2-.2-.3-.3-.6-.4-.2-.1-.5-.2-.9-.3l-2.2-.6c-1.3-.3-2.3-.9-2.8-1.7-.5-.8-.9-1.8-1-3.1-.1-.8-.1-1.5 0-2.2.1-.7.4-1.4.7-1.9.3-.6.8-1 1.4-1.4.6-.4 1.3-.6 2.2-.7.7-.1 1.4 0 2.1.1.6.2 1.2.5 1.7.9s.9.8 1.2 1.3c.3.5.5 1.1.6 1.6v1.4zm0-5.9l4.4-.6c.8-.1 1.5-.1 2.2 0 .6.1 1.2.4 1.8.9.6.5 1 1.1 1.3 1.7.3.7.5 1.7.7 2.9.1.9.2 1.7.1 2.3 0 .7-.2 1.3-.4 1.9-.3.7-.8 1.3-1.4 1.8-.6.5-1.5.8-2.6.9l-1.5.2 1.1 8-2.9.4-2.8-20.4zm4.2 9.3l1.4-.2c.6-.1 1-.2 1.3-.4.3-.2.5-.5.6-.8.1-.3.2-.7.1-1.1 0-.4-.1-.9-.1-1.4-.1-.5-.1-.9-.2-1.4-.1-.4-.2-.8-.4-1.1s-.4-.5-.8-.7c-.3-.1-.8-.2-1.4-.1l-1.4.2.9 7zM23 59.5l8.7-1.2.4 2.8-5.8.8.8 6 5.1-.7.4 2.8-5.1.7.8 6 5.8-.8.4 2.9-8.8 1.2L23 59.5z"/><path class="st38" d="M35.4 57.8l2.4-.3 7.3 19.9-2.9.4-1.4-4.3-4 .5-.3 4.5-2.9.4 1.8-21.1zm2 5.8l-.5 7.6 2.9-.4-2.4-7.2zm5-6.7l2.9-.4 1.2 9.3h.1l3-9.9 2.9-.4-2.9 8.7L56 75.8l-3 .5-4.5-8.6-1.2 3.2.8 6.1-2.9.4-2.8-20.5zm17 .6l-3.4.4-.4-2.8 9.7-1.3.4 2.8-3.4.4 2.3 17.7-2.9.4-2.3-17.6z"/><path class="st38" d="M65.4 58.8c-.1-.8-.1-1.6.1-2.2.2-.7.5-1.2.9-1.7s.9-.9 1.5-1.1c.6-.3 1.1-.5 1.7-.5.6-.1 1.2-.1 1.8.1.6.1 1.2.4 1.7.7.5.3 1 .8 1.3 1.4.4.6.6 1.3.7 2.1l1.4 10.8c.1.8.1 1.6-.1 2.3-.2.7-.5 1.2-.9 1.7s-.9.9-1.5 1.1c-.6.3-1.1.5-1.7.6-.6.1-1.2 0-1.8-.1-.6-.1-1.2-.4-1.7-.7-.5-.3-1-.8-1.3-1.4-.4-.6-.6-1.3-.7-2.1l-1.4-11zm4.3 10.4c.1.7.4 1.2.8 1.5s.9.4 1.5.3c.5-.1 1-.3 1.3-.7.3-.4.5-.9.4-1.6l-1.4-10.8c-.1-.7-.4-1.2-.8-1.5-.4-.3-.9-.4-1.5-.3-.5.1-1 .3-1.3.7-.3.4-.5.9-.4 1.6l1.4 10.8zm21.5-2.6c.1.7 0 1.3-.1 1.9-.2.6-.4 1.2-.8 1.6s-.8.9-1.4 1.2c-.5.3-1.1.5-1.8.6s-1.3 0-1.9-.1c-.6-.2-1.2-.4-1.6-.8-.5-.4-.9-.8-1.2-1.4-.3-.5-.5-1.1-.6-1.8L79.6 52l2.9-.4 2.1 15.6c.1.7.3 1.2.7 1.5s.8.4 1.4.3c.5-.1.9-.3 1.2-.7.3-.4.4-1 .3-1.7L86.1 51l2.9-.4 2.2 16zm9.5-11.4l-2.9.4-.1-.7c-.1-.7-.3-1.2-.7-1.7-.4-.4-.9-.6-1.7-.5-.4.1-.7.2-1 .4-.2.2-.4.4-.5.7-.1.3-.2.5-.2.9v1c.1.4.1.7.2 1 .1.3.2.5.3.7.1.2.3.3.6.5.2.1.6.2 1 .3l2.4.6c.7.2 1.2.4 1.7.7.4.3.8.6 1.1 1.1.3.4.5.9.7 1.5.2.6.3 1.2.4 2 .1.9.1 1.7.1 2.4-.1.8-.3 1.4-.6 2s-.8 1.1-1.4 1.5c-.6.4-1.4.7-2.3.8-.7.1-1.4.1-2-.1-.6-.2-1.2-.4-1.7-.8s-.9-.8-1.3-1.4c-.3-.6-.6-1.2-.6-1.9l-.1-1.1 2.9-.4.1.9c.1.5.3 1 .7 1.4.4.4.9.5 1.7.4.5-.1.9-.2 1.1-.4.3-.2.4-.4.6-.7.1-.3.2-.6.1-1 0-.4 0-.8-.1-1.3s-.1-1-.2-1.3c-.1-.3-.2-.6-.4-.8-.2-.2-.3-.3-.6-.4-.2-.1-.5-.2-.9-.3l-2.2-.6c-1.3-.3-2.3-.9-2.8-1.7-.5-.8-.9-1.8-1.1-3.1-.1-.8-.1-1.5 0-2.2.1-.7.4-1.4.7-1.9.3-.6.8-1 1.4-1.4.6-.4 1.3-.6 2.2-.7.7-.1 1.4 0 2.1.1.6.2 1.2.5 1.7.9s.9.8 1.2 1.3c.3.5.5 1.1.6 1.6l-.2 1.3zm3.9-6.5l2.9-.4 1.2 8.8 3.6-.5-1.2-8.8 2.9-.4 2.7 20.5-2.9.4-1.2-9.1-3.6.5 1.2 9.1-2.9.4-2.7-20.5zm10.8-1.4l8.7-1.2.4 2.8-5.8.8.8 6 5.1-.7.4 2.8-5.1.7.8 6 5.8-.8.4 2.9-8.7 1.2-2.8-20.5zm9.2-1.3l4.7-.6c3.5-.5 5.4 1.3 6 5.3.2 1.2.1 2.2-.2 3.1s-.8 1.7-1.7 2.3l4.4 8.9-3.1.4-3.9-8.4-1.8.2 1.2 8.7-2.9.4-2.7-20.3zm4.1 8.8l1.7-.2c.5-.1.9-.2 1.2-.4.3-.2.5-.4.6-.7.1-.3.2-.6.2-1s0-.9-.1-1.4c-.1-.5-.2-1-.3-1.4-.1-.4-.3-.7-.5-1-.2-.3-.5-.4-.8-.5-.3-.1-.8-.1-1.3 0l-1.5.2.8 6.4zm6.7-10.2l8.7-1.2.4 2.8-5.8.8.8 6 5.1-.7.4 2.8-5.1.7.8 6 5.8-.8.4 2.9-8.7 1.2-2.8-20.5zm9.4-1.2l3.7-.5.9 15.6-1.4.2-3.2-15.3zm2.7 17.5l2.9-.4.4 2.9-2.9.4-.4-2.9z"/></g></svg>