<svg version="1.1" id="Layer_1" xmlns="http://www.w3.org/2000/svg" x="0" y="0" viewBox="0 0 251.9 117" xml:space="preserve"><style>.st215{fill:#4fbed5}.st217{fill:#e01f77}</style><path class="st215" d="M4.8 103.1h2.6l1.1 7.7.8-7.7h2.8l-1.9 11.1H7l-1-7.5-1 7.5H1.9L0 103.1h2.8l.9 7.7 1.1-7.7zM12.9 103.1h6.6v2.4h-3.7v1.9h3.5v2.3h-3.5v2.2h3.8v2.4h-6.7v-11.2zM26.1 103.1h3.6l2.7 11.1h-3.1l-.3-1.9h-2.3l-.3 1.9h-3.1l2.8-11.1zm1.9 2.2l-.8 4.7h1.6l-.8-4.7zM33.1 103.1h4.5c2.2 0 3.1 1.2 3.1 3 0 1.5-.6 2.4-1.9 2.7 1.4.1 1.8 1 1.8 2.5v1c0 .6 0 1.3.1 1.5.1.1.1.2.3.3v.2h-3c-.3-.6-.3-1.7-.3-2.1v-.7c0-1.3-.2-1.6-1-1.6H36v4.5h-2.9v-11.3zm2.9 4.7h.6c.8 0 1.2-.5 1.2-1.3 0-.9-.4-1.3-1.2-1.3H36v2.6zM42.1 103.1h6.6v2.4H45v1.9h3.5v2.3H45v2.2h3.8v2.4h-6.7v-11.2zM55.3 103.1H59l2.7 11.1h-3.1l-.3-1.9H56l-.3 1.9h-3.1l2.7-11.1zm1.9 2.2l-.8 4.7H58l-.8-4.7zM60.8 103.1h3.1l1.2 8.4 1.2-8.4h3.1L67 114.2h-3.7l-2.5-11.1zM71.1 103.1h3.6l2.7 11.1h-3.1l-.3-1.9h-2.3l-.3 1.9h-3.1l2.8-11.1zm1.9 2.2l-.8 4.7h1.6l-.8-4.7zM77.9 103.1h2.9v11.1h-2.9v-11.1zM82.2 103.1h2.9v8.8h3.6v2.4h-6.5v-11.2z"/><path class="st215" d="M91.3 103.1h3.6l2.7 11.1h-3.1l-.3-1.9H92l-.3 1.9h-3.1l2.7-11.1zm1.8 2.2l-.8 4.7h1.6l-.8-4.7zM98.3 103.1h4.4c2.1 0 3 1.1 3 2.8 0 1.2-.5 2.2-1.7 2.5 1.5.1 2.1 1.4 2.1 2.5 0 1.9-.9 3.3-3.4 3.3h-4.4v-11.1zm2.9 4.3h.7c.6 0 .9-.5.9-1.1 0-.6-.3-1.2-.9-1.2h-.7v2.3zm0 4.7h.8c.5 0 1-.5 1-1.4 0-.9-.5-1.3-1-1.3h-.8v2.7zM107.2 103.1h2.9v8.8h3.6v2.4h-6.5v-11.2zM114.5 103.1h6.6v2.4h-3.7v1.9h3.5v2.3h-3.5v2.2h3.8v2.4h-6.7v-11.2zM122.4 111.1h2.6v2.8c0 2-.8 3-2.6 3v-1.3c.7-.1 1-.5 1-1.3v-.2h-1v-3zM128 105.5h-2.2V103h7.3v2.5h-2.2v8.7H128v-8.7zM134.8 103.1h3.6l2.7 11.1H138l-.3-1.9h-2.3l-.3 1.9H132l2.8-11.1zm1.8 2.2l-.8 4.7h1.6l-.8-4.7zM141.7 103.1h2.9v8.8h3.6v2.4h-6.5v-11.2zM148.9 103.1h2.9v4.3l2.2-4.3h3.1l-2.8 4.9 3.2 6.3h-3.3l-1.7-3.9-.6.9v2.9H149v-11.1zM162.8 105.5h-2.2V103h7.3v2.5h-2.2v8.7h-2.9v-8.7zM172.2 102.9c3 0 4 1.6 4 5.8s-1 5.8-4 5.8-4-1.6-4-5.8 1.1-5.8 4-5.8zm0 9.6c.9 0 1-.8 1-3.8s-.1-3.8-1-3.8-1 .8-1 3.8.2 3.8 1 3.8zM184.3 103.1v8c0 1.1.3 1.4.9 1.4s.9-.3.9-1.4v-8h2.9v7.3c0 3.1-1.3 4.1-3.8 4.1s-3.8-.9-3.8-4.1v-7.3h2.9zM194.6 106.3v-.3c0-.7-.3-1.2-.8-1.2-.6 0-.9.5-.9 1 0 2.2 4.7 1.1 4.7 5.2 0 2.4-1.4 3.4-3.9 3.4-2.4 0-3.7-.8-3.7-3.1v-.4h2.8v.3c0 1 .4 1.3 1 1.3s.9-.5.9-1.1c0-2.2-4.6-1.1-4.6-5.1 0-2.2 1.2-3.5 3.6-3.5 2.5 0 3.6 1 3.6 3.4h-2.7z"/><path d="M237.7 14.8C228.8 5.6 218 1 205 1c-13.4 0-24.5 4.6-33.6 13.7-9 9.2-13.5 20.5-13.5 34 0 12.8 4.2 23.5 12.6 32.2 8.4 8.6 19.3 13.3 32.7 14.1v19.3c14.6-4.3 26.5-14.8 35.1-25.7 8.6-11 12.6-25.3 12.6-39.5 0-13.6-4.4-25.1-13.2-34.3z" fill="none" stroke="#4fbed5" stroke-width="2" stroke-linecap="round" stroke-linejoin="round" stroke-miterlimit="10"/><g><path class="st217" d="M199.7 53.4c0 8.3-5.2 16-15.5 22.7-.2.1-.4.2-.5.2-.2 0-.4-.1-.6-.2l-5.4-4.3c-.2-.2-.4-.4-.4-.7 0-.3.1-.6.3-.8 3.6-3.6 5.7-6.9 6.3-9.8h-9.2c-.6 0-1-.4-1-1V40.1c0-.6.4-1 1-1h24c.5 0 1 .4 1 1v13.3zM235.1 53.4c0 8.3-5.2 16-15.5 22.7-.2.1-.4.2-.5.2-.2 0-.4-.1-.6-.2l-5.4-4.3c-.2-.2-.3-.4-.4-.7 0-.3.1-.6.3-.8 3.6-3.6 5.7-6.9 6.3-9.8h-9.2c-.5 0-1-.4-1-1V40.1c0-.6.4-1 1-1h24c.6 0 1 .4 1 1v13.3z"/></g></svg>