<svg version="1.1" id="Layer_1" xmlns="http://www.w3.org/2000/svg" x="0" y="0" viewBox="0 0 140.1 123.5" xml:space="preserve"><style>.st26{fill:#fff}.st39{fill:#3d85c6}</style><path class="st39" d="M46.7 0c2.6 0 4.7 2.1 4.7 4.7s-2.1 4.7-4.7 4.7h46.7c-2.6 0-4.7-2.1-4.7-4.7S90.8 0 93.4 0H46.7M46.7 84.1c2.6 0 4.7 2.1 4.7 4.7s-2.1 4.7-4.7 4.7h46.7c-2.6 0-4.7-2.1-4.7-4.7s2.1-4.7 4.7-4.7H46.7"/><path d="M46.7 0C44.1 0 42 2.1 42 4.7s2.1 4.7 4.7 4.7C26.1 9.3 9.3 26.1 9.3 46.7c0-2.6-2.1-4.7-4.7-4.7C2.1 42 0 44.1 0 46.7 0 20.9 20.9 0 46.7 0" fill="#b9d376"/><path d="M46.7 0c2.6 0 4.7 2.1 4.7 4.7s-2.1 4.7-4.7 4.7S42 7.3 42 4.7 44.1 0 46.7 0" fill="#2c725b"/><path d="M93.4 0c25.8 0 46.7 20.9 46.7 46.7 0-2.6-2.1-4.7-4.7-4.7s-4.6 2.1-4.7 4.6C130.8 26 114 9.3 93.4 9.3c2.6 0 4.7-2.1 4.7-4.7S96 0 93.4 0" fill="#cf8abb"/><path d="M93.4 0c2.6 0 4.7 2.1 4.7 4.7S96 9.3 93.4 9.3s-4.7-2.1-4.7-4.7S90.8 0 93.4 0" fill="#314993"/><path d="M93.4 84.1c15.3 0 28.8.3 37.4 11.7v23c0-20.6-16.7-25.4-37.4-25.4 2.6 0 4.7-2.1 4.7-4.7 0-2.5-2.1-4.6-4.7-4.6" fill="#827bb8"/><path d="M93.4 84.1c2.6 0 4.7 2.1 4.7 4.7s-2.1 4.7-4.7 4.7-4.7-2.1-4.7-4.7c.1-2.6 2.1-4.7 4.7-4.7" fill="#1f428f"/><path d="M9.3 46.7c0 2.6-2.1 4.7-4.7 4.7s-4.7-2.1-4.7-4.7c0 25.8 20.9 46.7 46.7 46.7-2.6 0-4.7-2.1-4.7-4.7S44 84 46.6 84c-20.5.1-37.3-16.6-37.3-37.3m-9.3 0" fill="#43b0e5"/><path d="M46.7 84.1c2.6 0 4.7 2.1 4.7 4.7s-2.1 4.7-4.7 4.7-4.7-2.1-4.7-4.7 2.1-4.7 4.7-4.7" fill="#1f5da8"/><path d="M4.7 42c2.6 0 4.7 2.1 4.7 4.7s-2.1 4.7-4.7 4.7S0 49.3 0 46.7 2.1 42 4.7 42" fill="#2f966a"/><path d="M130.8 46.7c0 2.6 2.1 4.7 4.7 4.7s4.7-2.1 4.7-4.7v72.1c0-10.5-3.5-15.2-9.3-23V46.7h-.1" fill="#e35397"/><path d="M135.5 42c2.6 0 4.7 2.1 4.7 4.7s-2.1 4.7-4.7 4.7-4.7-2.1-4.7-4.7v-.1c0-2.5 2.1-4.6 4.7-4.6" fill="#bd2d74"/><path d="M130.8 95.8c5.9 7.8 9.3 12.5 9.3 23v.1c-.1 2.2-1.6 3.9-3.6 4.4-.3.1-.7.1-1.1.1-2.6 0-4.7-2.1-4.7-4.7v-28" fill="#792872"/><path d="M49 17.5h42c16.1 0 29.2 13.1 29.2 29.2S107.1 75.9 91 75.9H49c-16.1 0-29.2-13.1-29.2-29.2S32.9 17.5 49 17.5z" fill="#7bccee"/><g><path class="st26" d="M33.9 37.1h3v9.2h3.7v2.5h-6.8V37.1zM41.6 37.1h6.9v2.5h-3.9v2h3.6V44h-3.6v2.3h4v2.5h-7.1V37.1zM51.3 39.7H49v-2.6h7.6v2.6h-2.3v9.1h-3v-9.1zM57.5 37.1h2.7V40c0 2.1-.8 3.1-2.7 3.2v-1.4c.8-.1 1-.5 1-1.4v-.2h-1v-3.1zM66.3 40.5v-.3c0-.7-.3-1.3-.9-1.3-.7 0-.9.5-.9 1 0 2.3 5 1.2 5 5.4 0 2.5-1.5 3.6-4.1 3.6-2.5 0-3.9-.9-3.9-3.3v-.4h2.9v.3c0 1 .4 1.4 1 1.4s1-.5 1-1.1c0-2.3-4.8-1.2-4.8-5.3 0-2.4 1.3-3.6 3.8-3.6 2.6 0 3.8 1.1 3.8 3.6h-2.9zM79.6 40.6c0-1.3-.2-1.7-.8-1.7-.9 0-1 .8-1 4s.1 4 1 4c.8 0 .9-.7.9-2.9h2.9v.9c0 3.3-1.9 4.1-3.9 4.1-3.4 0-4.2-1.7-4.2-6.1 0-4.5 1-6.1 4.2-6.1 2.7 0 3.8 1.4 3.8 3.7v.7h-2.9v-.6zM83.8 37.1h3v4.3h1.9v-4.3h3v11.7h-3V44h-1.9v4.8h-3V37.1zM95.2 37.1H99l2.8 11.7h-3.2l-.3-2h-2.4l-.3 2h-3.2l2.8-11.7zm1.9 2.4l-.9 5H98l-.9-5zM103.1 39.7h-2.3v-2.6h7.6v2.6h-2.3v9.1h-3v-9.1z"/></g><g><path class="st26" d="M74.4 57.3c0 2-1.6 3.6-3.6 3.6s-3.6-1.6-3.6-3.6 1.6-3.6 3.6-3.6 3.6 1.6 3.6 3.6zM57.2 57.3c0 2-1.6 3.6-3.6 3.6S50 59.3 50 57.3s1.6-3.6 3.6-3.6 3.6 1.6 3.6 3.6zM91.6 57.3c0 2-1.6 3.6-3.6 3.6s-3.6-1.6-3.6-3.6 1.6-3.6 3.6-3.6 3.6 1.6 3.6 3.6z"/></g></svg>