<svg version="1.1" id="Layer_1" xmlns="http://www.w3.org/2000/svg" x="0" y="0" viewBox="0 0 229.4 117.1" xml:space="preserve"><style>.st142{fill:#1aafbe}.st143{fill:#1995a4}</style><path class="st142" d="M48 31C21.5 31 0 48 0 68.9c0 15 11.3 28 27.5 34.1-.3.7-.6 1.3-1 2-3.2 5.3-7.8 9.3-13.3 12.1 12.2.9 23.6-2.8 31.1-10.5 1.2.1 2.5.2 3.8.2 26.5 0 48-16.9 48-37.8-.2-21-21.6-38-48.1-38z"/><path class="st143" d="M81 96.3C51.3 95.6 27.5 76.5 27.5 53c0-7.3 2.3-14.2 6.3-20.2C38.3 31.6 43.1 31 48 31c26.5 0 48 16.9 48 37.8-.1 10.8-5.8 20.6-15 27.5z"/><path d="M88.9 0c30.4 0 55 19.4 55 43.4 0 17.3-12.9 32.2-31.5 39.2.4.8.7 1.5 1.1 2.2 3.6 6.1 9 10.7 15.3 13.8-14.1 1-27.1-3.2-35.6-12.1-1.4.1-2.9.2-4.3.2-30.4 0-55-19.4-55-43.4C33.9 19.4 58.5 0 88.9 0z" fill="#d1ebfa"/><path class="st143" d="M104.7 44.2c0 4.3 3.5 7.7 7.7 7.7 4.3 0 7.7-3.5 7.7-7.7 0-4.3-3.5-7.7-7.7-7.7-4.2-.1-7.7 3.4-7.7 7.7zM81 44.2c0 4.3 3.5 7.7 7.7 7.7s7.7-3.5 7.7-7.7c0-4.3-3.5-7.7-7.7-7.7-4.2-.1-7.7 3.4-7.7 7.7zM57.3 44.2c0 4.3 3.5 7.7 7.7 7.7 4.3 0 7.7-3.5 7.7-7.7 0-4.3-3.5-7.7-7.7-7.7-4.2-.1-7.7 3.4-7.7 7.7z"/><g><path class="st142" d="M120.1 43.5h-15.3c.3-4 3.6-7.1 7.7-7.1 4 0 7.3 3.2 7.6 7.1zM96.4 43.5H81.1c.3-4 3.6-7.1 7.7-7.1 4 0 7.3 3.2 7.6 7.1zM72.7 43.5H57.4c.3-4 3.6-7.1 7.7-7.1 4 0 7.3 3.2 7.6 7.1z"/></g><g><path class="st142" d="M145 51.1h7.5v22.6h9.2v6.1H145V51.1zM163 51.1h17v6.1h-9.5v4.9h8.9V68h-8.9v5.7h9.9v6.1H163V51.1zM186.3 57.5h-5.6v-6.4h18.8v6.4h-5.6v22.4h-7.5V57.5zM200.6 51.1h6.8v7.3c0 5.2-2 7.7-6.8 7.8v-3.5c1.9-.2 2.6-1.2 2.6-3.4v-.5h-2.6v-7.7zM221.6 59.4v-.7c0-1.7-.7-3.1-2.1-3.1-1.6 0-2.3 1.2-2.3 2.5 0 5.7 12.2 2.9 12.2 13.4 0 6.1-3.6 8.9-10.2 8.9-6.2 0-9.7-2.1-9.7-8.1v-1h7.3v.7c0 2.5 1 3.3 2.5 3.3s2.4-1.2 2.4-2.8c0-5.7-11.8-2.9-11.8-13.1 0-5.8 3.1-9 9.4-9 6.5 0 9.3 2.7 9.3 8.9h-7zM156.4 93.8c0-3.3-.6-4.2-2.1-4.2-2.3 0-2.5 2.1-2.5 9.9s.2 9.9 2.5 9.9c1.9 0 2.3-1.6 2.3-7h7.3v2.1c0 8.1-4.7 10-9.5 10-8.4 0-10.3-4.2-10.3-14.9 0-11 2.5-14.9 10.3-14.9 6.8 0 9.3 3.5 9.3 9.1v1.8h-7.3v-1.8zM166 85h7.5v10.6h4.6V85h7.5v28.8h-7.5V102h-4.6v11.8H166V85zM193.2 85h9.4l7 28.8h-8l-.8-5h-6l-.8 5h-8l7.2-28.8zm4.8 5.9l-2.1 12.2h4.2L198 90.9zM211.9 91.4h-5.6V85H225v6.4h-5.6v22.4h-7.5V91.4z"/></g></svg>