<svg version="1.1" id="Layer_1" xmlns="http://www.w3.org/2000/svg" x="0" y="0" viewBox="0 0 229.3 162.7" xml:space="preserve"><style>.st26{fill:#fff}</style><path d="M159.1 126.2c-10.8-.3-21.2-2.5-30.1-6.3-9.6 4.1-21.2 6.4-33 6.4-33.1 0-59-16.8-59-38.4v-1c-5.4-6.7-8.3-15-8.3-23.8 0-12.9 6.6-24.9 17.2-32C49.3 13.3 65 0 83.6 0 87.9 0 92 .7 96 2c4-1.4 8.1-2 12.4-2 5.8 0 11.4 1.3 16.5 3.7C130 1.3 135.6 0 141.4 0c5.8 0 11.4 1.3 16.5 3.7C163 1.2 168.6 0 174.4 0c18.7 0 34.3 13.3 37.7 31.1 10.6 7 17.2 19.1 17.2 32 0 8.8-2.9 17-8.3 23.8v1c0 16.4-12.4 29.7-32.6 35.3L163 162.7l-3.9-36.5z" fill="#000100"/><path class="st26" d="M63.6 43.8h4.7c4.1.1 6.3 2.3 6.3 6.8s-2.2 6.7-6.3 6.8h-4.7V43.8zm1.3 12.5h2.8c3.9 0 5.6-1.6 5.6-5.7s-1.7-5.7-5.6-5.7h-2.8v11.4zM83.3 43.5c4.3 0 6.4 3.4 6.4 7.1 0 3.7-2.1 7.1-6.4 7.1-4.3 0-6.4-3.4-6.4-7.1-.1-3.7 2.1-7.1 6.4-7.1zm0 13.1c3.6 0 5.1-3 5.1-6s-1.5-6-5.1-6c-3.6 0-5.1 3-5.1 6s1.5 6 5.1 6zM92.5 43.8H94l7.9 11.5V43.8h1.3v13.6h-1.4l-7.9-11.5v11.5h-1.3V43.8zM109 43.8v2c0 1.1-.5 2.3-1.7 2.6v-.8c.6-.2.9-1.2.9-1.8h-.8v-2h1.6zM111.5 43.8h10.8v1.1h-4.7v12.5h-1.3V44.9h-4.8v-1.1zM129.2 43.8H140v1.1h-4.7v12.5H134V44.9h-4.8v-1.1zM142.1 43.8h1.3v5.9h8.1v-5.9h1.3v13.6h-1.3v-6.6h-8.1v6.6h-1.3V43.8zM156.5 43.8h1.3v13.6h-1.3V43.8zM161.5 43.8h1.4l7.9 11.5V43.8h1.3v13.6h-1.4l-7.9-11.5v11.5h-1.3V43.8zM175.8 43.8h1.3v7.3l7.9-7.3h1.8l-6.1 5.6 6.4 8h-1.7l-5.7-7.1-2.6 2.4v4.7h-1.3V43.8zM189.1 57.4v-2h1.6v2h-1.6zm.2-9.5v-4.1h1.3v4.1l-.3 6.2h-.7l-.3-6.2z"/><g><path class="st26" d="M67.1 67.7h-3.9v-4.4h13.1v4.4h-3.9v15.6h-5.2V67.7zM79.4 63.3H86l4.9 20.1h-5.6l-.5-3.5h-4.2l-.5 3.5h-5.6l4.9-20.1zm3.3 4.1l-1.5 8.5h2.9l-1.4-8.5zM91.9 63.3h5.2v15.8h6.4v4.3H91.9V63.3zM104.8 63.3h5.2V71h.1l3.9-7.7h5.6l-5.1 8.8 5.7 11.3h-6l-3.1-7-1.1 1.7v5.3h-5.2V63.3zM129.9 67.7H126v-4.4h13v4.4h-3.9v15.6h-5.2V67.7zM147 62.9c5.3 0 7.2 2.9 7.2 10.4s-1.8 10.4-7.2 10.4c-5.3 0-7.2-2.9-7.2-10.4s1.8-10.4 7.2-10.4zm0 17.3c1.6 0 1.8-1.5 1.8-6.9s-.2-6.9-1.8-6.9-1.8 1.5-1.8 6.9.1 6.9 1.8 6.9zM168.6 63.3v14.5c0 1.9.6 2.4 1.6 2.4s1.6-.5 1.6-2.4V63.3h5.2v13.2c0 5.6-2.4 7.3-6.8 7.3s-6.8-1.7-6.8-7.3V63.3h5.2zM187.2 69v-.5c0-1.2-.5-2.2-1.5-2.2-1.1 0-1.6.9-1.6 1.8 0 4 8.6 2 8.6 9.4 0 4.3-2.5 6.2-7.1 6.2-4.3 0-6.8-1.5-6.8-5.7v-.7h5.1v.5c0 1.7.7 2.3 1.7 2.3 1.1 0 1.7-.8 1.7-1.9 0-4-8.2-2-8.2-9.1 0-4.1 2.2-6.3 6.6-6.3 4.6 0 6.5 1.9 6.5 6.2h-5z"/></g><path d="M8.6 125.6c-.8.1-1.5.3-2.3.4-.1 0-.3-.1-.4-.2-.9-.8-2-.9-3.1-1-1-.1-1.8.4-2.5 1-.2.2-.3.6-.1.9.3.4.6.8.9 1.1.9.8 1.5 1.7 2.1 2.7 1 1.9 2 3.7 3 5.5.7 1.2 1.6 2.3 2.4 3.5 1.4 2 2.9 4 4.7 5.7.3.2.4.6.7.9.4.5.8 1 1.3 1.4.9.7 1.9.6 2.8.2.2-.1.4-.4.5-.6.1-.5.2-1 .2-1.5-.1-1.1-.4-2.3 0-3.4-.2-2 .4-3.8.6-5.8.1-.7.2-1.5.4-2.2l2.1-6.9c.2-.5.5-.9.8-1.4v-.5c0-.5-.1-1.1-.7-1.3-.6-.3-1.2-.5-2-.2-.8.4-1.5 1-2 1.7-.7.9-1.4 1.7-2.1 2.5-.6.8-1.5 1.2-2.3 1.6-.5.3-1 .1-1.1-.5-.1-.6-.2-1.1-.2-1.7-.1-3.4-.1-6.7.4-10 .2-1.2.5-2.5.8-3.7.1-.5.2-1 .2-1.5.4-2.4 1.1-4.6 2.5-6.6 1.5-2.3 3.1-4.4 5.1-6.4 1.3-1.4 2.8-2.5 4.2-3.7 1.6-1.4 3.3-2.7 5.2-3.8 2.3-1.3 4.6-2.6 7.3-3.2.6-.1 1.2-.4 1.8-.5.8-.2 1.7-.4 2.5-.2.6.1 1.2 0 1.9-.1 1.5-.2 3-.6 4.5-.2.6.2 1.2 0 1.5-.6.1-.2.2-.5.2-.7-.1-1-.6-1.8-1.2-2.5-.4-.4-.8-.4-1.3-.3-2.1.4-4.2.5-6.4.6-2.9.2-5.6 1-8.2 2-2 .8-3.7 1.9-5.5 3-2 1.4-4 2.8-6 4.3-1.7 1.2-3 2.7-4.4 4.2-1.1 1.2-2.2 2.6-3.2 3.9-1.7 2.3-2.9 4.8-3.5 7.7-.4 2.1-.9 4.2-1.3 6.3-.2 1.2-.3 2.4-.4 3.6l-.3 6c0 .2-.1.4-.1.5z" fill-rule="evenodd" clip-rule="evenodd" fill="#f19074"/></svg>