<svg version="1.1" id="Layer_1" xmlns="http://www.w3.org/2000/svg" x="0" y="0" viewBox="0 0 192.8 137.3" xml:space="preserve" enable-background="new 0 0 192.8 137.3"><style>.st291{fill:#d51116}.st292,.st293{opacity:.5;fill:#1d1d1b}.st293{opacity:.3}.st294{opacity:.5}.st295{fill:#1d1d1b}</style><path class="st291" d="M132 18.1h57.9v10.5H132zm-1.5-2.3h61v2.3h-61z"/><path class="st292" d="M132 18.1h57.9v.8H132z"/><path class="st291" d="M188 7.4h-.1c-16.4-9.9-37.5-9.9-53.9 0h-.1c-3.3-.1-4.7 3.3-4.7 3.3v5.1h63.6v-5.1s-1.5-3.4-4.8-3.3z"/><path class="st293" d="M184.4 27.6h-46.8V18h46.8v9.6zm-46.6-.2h46.4v-9.1h-46.4v9.1z"/><path fill="#fff" d="M138.3 18.7h45.4v8.2h-45.4z"/><path class="st292" d="M130.5 15.8h61v.8h-61z"/><g class="st294"><path class="st295" d="M130.4 14.7V11c.4-.7.9-1.4 1.6-1.9.3-.2.7-.4 1.1-.5.4-.1.9-.1 1.3-.1 3.9-2.4 8.2-4.3 12.7-5.6C151.6 1.7 156.3 1 161 1c4.7 0 9.4.6 13.9 1.9 4.5 1.2 8.8 3.1 12.8 5.5h-.1c.4 0 .9-.1 1.3.1.4.1.9.3 1.2.5.7.5 1.2 1.2 1.6 1.9v3.9h-46l-15.3-.1zm0 0l15.3-.1H161l30.6-.1-.2.2V11v.1c-.4-.7-.9-1.3-1.5-1.8-.3-.2-.7-.4-1.1-.5-.4-.1-.8-.1-1.2 0h-.2c-3.9-2.4-8.2-4.3-12.7-5.5-4.5-1.3-9.2-1.9-13.8-1.9-4.7 0-9.4.6-13.8 1.9-4.5 1.2-8.8 3.1-12.7 5.5-.4 0-.8-.1-1.2 0-.4.1-.8.3-1.1.5-.7.5-1.2 1.1-1.6 1.8l-.1 3.6z"/></g><path class="st292" d="M190.5 9.6c.5.5.9 1.1 1 1.4v3.7h-61.1V11c.1-.3.5-.9 1-1.4-.8.6-1.3 1.4-1.5 1.8v3.7H192v-3.7c-.1-.4-.7-1.3-1.5-1.8z"/><g class="st294"><path class="st295" d="M187.9 13.5v-1.7h.1c-1-.5-2.1-1.1-3.1-1.5-1.1-.5-2.2-.9-3.2-1.4-2.1-.9-4.3-1.7-6.6-2.3-4.5-1.2-9.2-1.9-13.9-1.9-4.7 0-9.4.6-13.9 1.9-2.3.6-4.5 1.4-6.6 2.3-.5.2-1.1.5-1.6.7-.5.2-1.1.5-1.6.7-1.1.5-2.1 1-3.1 1.5v-.3h.1v.1l-.1 2.1-.1-2.1.1.1v-.3h-.1c1-.7 2-1.3 3-1.9l1.5-.9c.5-.3 1.1-.5 1.6-.7 2.2-.9 4.4-1.7 6.7-2.3 4.3-1 9.1-1.6 13.9-1.6 4.8 0 9.6.6 14.2 1.9 2.3.6 4.5 1.4 6.7 2.3 1.1.4 2.1 1 3.2 1.6 1 .6 2 1.2 3 1.9h-.1.1v.9l-.2.9z"/></g><path class="st293" d="M138.1 18.7h45.5v1h-45.5z"/><path class="st291" d="M192.3 25.6c0-1.9-1.6-3.4-3.6-3.4h-55.3c-2 0-3.6 1.5-3.6 3.4v108.2c0 1.9 1.6 3.4 3.6 3.4h55.3c2 0 3.6-1.5 3.6-3.4V25.6z"/><path class="st295" d="M142.8 128.5l-.1-11.7v-11.6l-.1-23.3V58.6l.1-23.3v-.1h35.4v.1l.1 23.3v46.6c0 7.8 0 15.5-.1 23.3v.1h-17.8l-17.5-.1zm.1-.1l17.6-.1h17.6l-.2.2c0-7.8-.1-15.5-.1-23.3V58.6l.1-23.3.1.1h-35.2l.1-.1.1 23.3v23.3l-.1 23.3v23.2z" opacity=".2"/><g class="st294"><path class="st295" d="M176.9 127.4l-16.4.1H144v-.1c0-7.6-.1-15.2 0-22.7l.1-22.7.1-22.7-.1-22.7v-.1h.1l32.8-.1h.2v45.7l-.1 22.7-.2 22.6zm-.1-.1l-.1-22.7-.1-22.7V36.4l.2.2-32.8-.1.1-.1-.1 22.7.1 22.7.1 22.7v22.7l-.1-.1h16.4l16.3.2z"/></g><path fill="#871811" d="M144.2 36.4H177v90.9h-32.8z"/><path d="M150.4 42.4h7.3V53h-7.3zm9 0h7.3V53h-7.3zm9 0h7.3V53h-7.3zm-18 12h7.3V65h-7.3zm9 0h7.3V65h-7.3zm9 0h7.3V65h-7.3zm-18 12h7.3V77h-7.3zm9 0h7.3V77h-7.3zm9 0h7.3V77h-7.3zm-18 11.9h7.3v10.6h-7.3zm9 0h7.3v10.6h-7.3zm9 0h7.3v10.6h-7.3zm-18 12h7.3v10.6h-7.3zm9 0h7.3v10.6h-7.3zm9 0h7.3v10.6h-7.3zm-18 11.9h7.3v10.6h-7.3zm9 0h7.3v10.6h-7.3zm9 0h7.3v10.6h-7.3z" fill="#252659"/><defs><filter id="Adobe_OpacityMaskFilter" filterUnits="userSpaceOnUse" x="129.7" y="22.2" width="62.6" height="115"><feFlood result="back" flood-color="#fff" flood-opacity="1"/><feBlend in="SourceGraphic" in2="back"/></filter></defs><mask maskUnits="userSpaceOnUse" x="129.7" y="22.2" width="62.6" height="115" id="SVGID_1_"><g filter="url(#Adobe_OpacityMaskFilter)"><defs><filter id="Adobe_OpacityMaskFilter_1_" filterUnits="userSpaceOnUse" x="129.7" y="22.2" width="62.6" height="125"><feFlood result="back" flood-color="#fff" flood-opacity="1"/><feBlend in="SourceGraphic" in2="back"/></filter></defs><linearGradient id="SVGID_2_" gradientUnits="userSpaceOnUse" x1="185.946" y1="145.842" x2="133.634" y2="17.699"><stop offset="0" stop-color="#f6f6f6"/><stop offset=".636" stop-color="#fff"/></linearGradient><path d="M188.6 22.2h-55.3c-2 0-3.6 1.5-3.6 3.4v118.2c0 1.9 1.6 3.4 3.6 3.4h55.3c2 0 3.6-1.5 3.6-3.4V25.6c.1-1.9-1.6-3.4-3.6-3.4zm-35.1 105.1H144v-13.6h9.4v13.6zm0-15.4H144V98.2h9.4v13.7zm0-15.5H144V82.8h9.4v13.6zm0-15.4H144V67.3h9.4V81zm0-15.5H144V51.9h9.4v13.6zm0-15.4H144V36.4h9.4v13.7zm11.7 77.2h-9.4v-13.6h9.4v13.6zm0-15.4h-9.4V98.2h9.4v13.7zm0-15.5h-9.4V82.8h9.4v13.6zm0-15.4h-9.4V67.3h9.4V81zm0-15.5h-9.4V51.9h9.4v13.6zm0-15.4h-9.4V36.4h9.4v13.7zm11.6 77.2h-9.4v-13.6h9.4v13.6zm0-15.4h-9.4V98.2h9.4v13.7zm0-15.5h-9.4V82.8h9.4v13.6zm0-15.4h-9.4V67.3h9.4V81zm0-15.5h-9.4V51.9h9.4v13.6zm0-15.4h-9.4V36.4h9.4v13.7z" mask="url(#SVGID_1_)" fill="url(#SVGID_2_)"/></g></mask><linearGradient id="SVGID_3_" gradientUnits="userSpaceOnUse" x1="184.261" y1="136.715" x2="135.479" y2="17.218"><stop offset="0" stop-color="#ae1917"/><stop offset=".636" stop-color="#d51116"/></linearGradient><path d="M188.6 22.2h-55.3c-2 0-3.6 1.5-3.6 3.4v108.2c0 1.9 1.6 3.4 3.6 3.4h55.3c2 0 3.6-1.5 3.6-3.4V25.6c.1-1.9-1.6-3.4-3.6-3.4zm-35.1 105.1H144v-13.6h9.4v13.6zm0-15.4H144V98.2h9.4v13.7zm0-15.5H144V82.8h9.4v13.6zm0-15.4H144V67.3h9.4V81zm0-15.5H144V51.9h9.4v13.6zm0-15.4H144V36.4h9.4v13.7zm11.7 77.2h-9.4v-13.6h9.4v13.6zm0-15.4h-9.4V98.2h9.4v13.7zm0-15.5h-9.4V82.8h9.4v13.6zm0-15.4h-9.4V67.3h9.4V81zm0-15.5h-9.4V51.9h9.4v13.6zm0-15.4h-9.4V36.4h9.4v13.7zm11.6 77.2h-9.4v-13.6h9.4v13.6zm0-15.4h-9.4V98.2h9.4v13.7zm0-15.5h-9.4V82.8h9.4v13.6zm0-15.4h-9.4V67.3h9.4V81zm0-15.5h-9.4V51.9h9.4v13.6zm0-15.4h-9.4V36.4h9.4v13.7z" fill="url(#SVGID_3_)"/><defs><filter id="Adobe_OpacityMaskFilter_2_" filterUnits="userSpaceOnUse" x="131" y="26.4" width="3.9" height="110.8"><feFlood result="back" flood-color="#fff" flood-opacity="1"/><feBlend in="SourceGraphic" in2="back"/></filter></defs><mask maskUnits="userSpaceOnUse" x="131" y="26.4" width="3.9" height="110.8" id="SVGID_4_"><g filter="url(#Adobe_OpacityMaskFilter_2_)"><defs><filter id="Adobe_OpacityMaskFilter_3_" filterUnits="userSpaceOnUse" x="131" y="26.4" width="3.9" height="120.8"><feFlood result="back" flood-color="#fff" flood-opacity="1"/><feBlend in="SourceGraphic" in2="back"/></filter></defs><linearGradient id="SVGID_5_" gradientUnits="userSpaceOnUse" x1="-1852.629" y1="2979.012" x2="-1852.629" y2="2855.631" gradientTransform="rotate(180 -859.83 1503.033)"><stop offset="0" stop-color="#fff"/><stop offset="1"/></linearGradient><path d="M134.7 26.4l.2 15.1v90.6l-.2 15.1-.2-15.1V41.5l.2-15.1zm-1.4 15.1v90.6l.2 15.1.2-15.1V41.5l-.2-15.1-.2 15.1zm-1.1 0v90.6l.2 15.1.2-15.1V41.5l-.2-15.1-.2 15.1zm-1.2 0v90.6l.2 15.1.2-15.1V41.5l-.2-15.1-.2 15.1z" mask="url(#SVGID_4_)" fill="url(#SVGID_5_)"/></g></mask><linearGradient id="SVGID_6_" gradientUnits="userSpaceOnUse" x1="-1852.629" y1="2979.067" x2="-1852.629" y2="2865.9" gradientTransform="rotate(180 -859.83 1503.033)"><stop offset="0"/><stop offset="1"/></linearGradient><path d="M134.7 26.4l.2 15.1v90.6l-.2 5.1-.2-5.1V41.5l.2-15.1zm-1.4 15.1v90.6l.2 5.1.2-5.1V41.5l-.2-15.1-.2 15.1zm-1.1 0v90.6l.2 5.1.2-5.1V41.5l-.2-15.1-.2 15.1zm-1.2 0v90.6l.2 5.1.2-5.1V41.5l-.2-15.1-.2 15.1z" opacity=".5" fill="url(#SVGID_6_)"/><defs><filter id="Adobe_OpacityMaskFilter_4_" filterUnits="userSpaceOnUse" x="187.1" y="26.4" width="3.9" height="110.8"><feFlood result="back" flood-color="#fff" flood-opacity="1"/><feBlend in="SourceGraphic" in2="back"/></filter></defs><mask maskUnits="userSpaceOnUse" x="187.1" y="26.4" width="3.9" height="110.8" id="SVGID_7_"><g filter="url(#Adobe_OpacityMaskFilter_4_)"><defs><filter id="Adobe_OpacityMaskFilter_5_" filterUnits="userSpaceOnUse" x="187.1" y="26.4" width="3.9" height="120.8"><feFlood result="back" flood-color="#fff" flood-opacity="1"/><feBlend in="SourceGraphic" in2="back"/></filter></defs><linearGradient id="SVGID_8_" gradientUnits="userSpaceOnUse" x1="189.06" y1="145.727" x2="189.06" y2="23.666"><stop offset="0"/><stop offset="1" stop-color="#fff"/></linearGradient><path d="M187.3 147.2l-.2-15.1V41.5l.2-15.1.2 15.1v90.6l-.2 15.1zm1.4-15.1V41.5l-.2-15.1-.2 15.1v90.6l.2 15.1.2-15.1zm1.1 0V41.5l-.2-15.1-.2 15.1v90.6l.2 15.1.2-15.1zm1.2 0V41.5l-.2-15.1-.2 15.1v90.6l.2 15.1.2-15.1z" mask="url(#SVGID_7_)" fill="url(#SVGID_8_)"/></g></mask><linearGradient id="SVGID_9_" gradientUnits="userSpaceOnUse" x1="189.06" y1="135.848" x2="189.06" y2="23.891"><stop offset="0"/><stop offset="1"/></linearGradient><path d="M187.3 137.2l-.2-5.1V41.5l.2-15.1.2 15.1v90.6l-.2 5.1zm1.4-5.1V41.5l-.2-15.1-.2 15.1v90.6l.2 5.1.2-5.1zm1.1 0V41.5l-.2-15.1-.2 15.1v90.6l.2 5.1.2-5.1zm1.2 0V41.5l-.2-15.1-.2 15.1v90.6l.2 5.1.2-5.1z" opacity=".5" fill="url(#SVGID_9_)"/><g class="st294"><defs><filter id="Adobe_OpacityMaskFilter_6_" filterUnits="userSpaceOnUse" x="134.9" y="24.2" width="52.2" height=".4"><feFlood result="back" flood-color="#fff" flood-opacity="1"/><feBlend in="SourceGraphic" in2="back"/></filter></defs><mask maskUnits="userSpaceOnUse" x="134.9" y="24.2" width="52.2" height=".4" id="SVGID_10_"><g filter="url(#Adobe_OpacityMaskFilter_6_)"><defs><filter id="Adobe_OpacityMaskFilter_7_" filterUnits="userSpaceOnUse" x="134.9" y="24.2" width="52.2" height=".4"><feFlood result="back" flood-color="#fff" flood-opacity="1"/><feBlend in="SourceGraphic" in2="back"/></filter></defs><linearGradient id="SVGID_11_" gradientUnits="userSpaceOnUse" x1="134.901" y1="24.378" x2="187.059" y2="24.378"><stop offset="0"/><stop offset="1" stop-color="#fff"/></linearGradient><path d="M134.9 24.4c2.2-.1 4.3-.1 6.5-.2h39l6.5.2-6.5.2h-38.9c-2.3-.1-4.4-.1-6.6-.2z" mask="url(#SVGID_10_)" fill="url(#SVGID_11_)"/></g></mask><linearGradient id="SVGID_12_" gradientUnits="userSpaceOnUse" x1="134.901" y1="24.378" x2="187.059" y2="24.378"><stop offset="0"/><stop offset="1"/></linearGradient><path d="M134.9 24.4c2.2-.1 4.3-.1 6.5-.2h39l6.5.2-6.5.2h-38.9c-2.3-.1-4.4-.1-6.6-.2z" fill="url(#SVGID_12_)"/><defs><filter id="Adobe_OpacityMaskFilter_8_" filterUnits="userSpaceOnUse" x="134.9" y="24.9" width="52.2" height=".4"><feFlood result="back" flood-color="#fff" flood-opacity="1"/><feBlend in="SourceGraphic" in2="back"/></filter></defs><mask maskUnits="userSpaceOnUse" x="134.9" y="24.9" width="52.2" height=".4" id="SVGID_13_"><g filter="url(#Adobe_OpacityMaskFilter_8_)"><defs><filter id="Adobe_OpacityMaskFilter_9_" filterUnits="userSpaceOnUse" x="134.9" y="24.9" width="52.2" height=".4"><feFlood result="back" flood-color="#fff" flood-opacity="1"/><feBlend in="SourceGraphic" in2="back"/></filter></defs><linearGradient id="SVGID_14_" gradientUnits="userSpaceOnUse" x1="134.901" y1="25.08" x2="187.059" y2="25.08"><stop offset="0"/><stop offset="1" stop-color="#fff"/></linearGradient><path d="M134.9 25.1c2.2-.1 4.3-.1 6.5-.2h39l6.5.2-6.5.2h-38.9c-2.3-.1-4.4-.1-6.6-.2z" mask="url(#SVGID_13_)" fill="url(#SVGID_14_)"/></g></mask><linearGradient id="SVGID_15_" gradientUnits="userSpaceOnUse" x1="134.901" y1="25.08" x2="187.059" y2="25.08"><stop offset="0"/><stop offset="1"/></linearGradient><path d="M134.9 25.1c2.2-.1 4.3-.1 6.5-.2h39l6.5.2-6.5.2h-38.9c-2.3-.1-4.4-.1-6.6-.2z" fill="url(#SVGID_15_)"/><defs><filter id="Adobe_OpacityMaskFilter_10_" filterUnits="userSpaceOnUse" x="134.9" y="25.6" width="52.2" height=".4"><feFlood result="back" flood-color="#fff" flood-opacity="1"/><feBlend in="SourceGraphic" in2="back"/></filter></defs><mask maskUnits="userSpaceOnUse" x="134.9" y="25.6" width="52.2" height=".4" id="SVGID_16_"><g filter="url(#Adobe_OpacityMaskFilter_10_)"><defs><filter id="Adobe_OpacityMaskFilter_11_" filterUnits="userSpaceOnUse" x="134.9" y="25.6" width="52.2" height=".4"><feFlood result="back" flood-color="#fff" flood-opacity="1"/><feBlend in="SourceGraphic" in2="back"/></filter></defs><linearGradient id="SVGID_17_" gradientUnits="userSpaceOnUse" x1="134.901" y1="25.782" x2="187.059" y2="25.782"><stop offset="0"/><stop offset="1" stop-color="#fff"/></linearGradient><path d="M134.9 25.8c2.2-.1 4.3-.1 6.5-.2h39l6.5.2-6.5.2h-38.9c-2.3-.1-4.4-.1-6.6-.2z" mask="url(#SVGID_16_)" fill="url(#SVGID_17_)"/></g></mask><linearGradient id="SVGID_18_" gradientUnits="userSpaceOnUse" x1="134.901" y1="25.782" x2="187.059" y2="25.782"><stop offset="0"/><stop offset="1"/></linearGradient><path d="M134.9 25.8c2.2-.1 4.3-.1 6.5-.2h39l6.5.2-6.5.2h-38.9c-2.3-.1-4.4-.1-6.6-.2z" fill="url(#SVGID_18_)"/><defs><filter id="Adobe_OpacityMaskFilter_12_" filterUnits="userSpaceOnUse" x="134.9" y="26.3" width="52.2" height=".4"><feFlood result="back" flood-color="#fff" flood-opacity="1"/><feBlend in="SourceGraphic" in2="back"/></filter></defs><mask maskUnits="userSpaceOnUse" x="134.9" y="26.3" width="52.2" height=".4" id="SVGID_19_"><g filter="url(#Adobe_OpacityMaskFilter_12_)"><defs><filter id="Adobe_OpacityMaskFilter_13_" filterUnits="userSpaceOnUse" x="134.9" y="26.3" width="52.2" height=".4"><feFlood result="back" flood-color="#fff" flood-opacity="1"/><feBlend in="SourceGraphic" in2="back"/></filter></defs><linearGradient id="SVGID_20_" gradientUnits="userSpaceOnUse" x1="134.901" y1="26.485" x2="187.059" y2="26.485"><stop offset="0"/><stop offset="1" stop-color="#fff"/></linearGradient><path d="M134.9 26.5c2.2-.1 4.3-.1 6.5-.2h39l6.5.2-6.5.2h-38.9c-2.3-.1-4.4-.1-6.6-.2z" mask="url(#SVGID_19_)" fill="url(#SVGID_20_)"/></g></mask><linearGradient id="SVGID_22_" gradientUnits="userSpaceOnUse" x1="134.901" y1="26.485" x2="187.059" y2="26.485"><stop offset="0"/><stop offset="1"/></linearGradient><path d="M134.9 26.5c2.2-.1 4.3-.1 6.5-.2h39l6.5.2-6.5.2h-38.9c-2.3-.1-4.4-.1-6.6-.2z" fill="url(#SVGID_22_)"/></g><path class="st295" d="M132.8 24.3c.5 0 1 .4 1.1.9 0 .3-.1.5-.3.8-.2.2-.5.3-.8.3-.3 0-.6-.1-.8-.3-.2-.2-.3-.5-.3-.8.1-.6.6-.9 1.1-.9zm0 0c-.3 0-.5.1-.7.3-.2.2-.2.4-.2.6.1.4.5.7.9.7s.8-.3.9-.7c0-.2 0-.4-.2-.6-.2-.2-.5-.3-.7-.3zm56.2 0c.5 0 1 .4 1.1.9 0 .3-.1.5-.3.8-.2.2-.5.3-.8.3-.3 0-.6-.1-.8-.3-.2-.2-.3-.5-.3-.8 0-.6.5-.9 1.1-.9zm0 0c-.3 0-.5.1-.7.3-.2.2-.2.4-.2.6.1.4.5.7.9.7s.8-.3.9-.7c0-.2 0-.4-.2-.6-.2-.2-.5-.3-.7-.3z" opacity=".3"/><g class="st294"><path class="st295" d="M183.8 137.2l-22.8.1h-23v-.1c0-9.8-.1-9.7 0-19.5l.1-29.5.1-29.5V29.1h.1L184 29h.2v59.2l-.1 29.5-.3 19.5zm0 0l-.1-19.5-.1-29.5v-59l.2.2-45.7-.1.1-.1v29.5l.1 29.5.1 29.5v19.5l-.2-.1H161l22.8.1z"/></g><path class="st292" d="M139.8 30.8v.6h42.4v-.6c0-.3-.4-.6-.9-.6h-40.7c-.5 0-.8.3-.8.6z"/><g class="st294"><path class="st295" d="M182 137.2l-21 .1h-21.1v-.1c0-9.6-.1-9.3 0-18.9l.1-28.9.1-28.9v-29h.1l42-.1h.2v58l-.1 28.9-.3 18.9zm0 0l-.1-18.9-.1-28.9V31.6l.2.2-42-.1.1-.1v28.9l.1 28.9.1 28.9v18.9l-.2-.1h21l20.9.1z"/></g><path opacity=".2" fill="#1d1d1b" d="M142.8 128.5H178v.4h-35.2z"/><path class="st292" d="M137.7 22.2h46.6v.4h-46.6z"/><path class="st291" d="M0 65.8v-1h3.9V36.9H0v-1h12.5v1H8.7v27.8h6.9c2.5 0 4.5-.7 5.8-2.1 1.3-1.4 2.3-4 3-8h1v11.1H0zm27.4 0v-1H31V45.4h-3.6v-1.1h18.8l.2 6.7h-1.2c-.3-3.8-2.1-5.7-5.3-5.7H35v8.8h2.2c1.3 0 2.1-.3 2.5-1 .4-.7.6-1.8.6-3.5h1V60h-1c0-2-.2-3.3-.6-3.9-.4-.6-1.4-.8-3.1-.8H35v9.5h3.9c2.5 0 4.2-.5 5.3-1.6s1.7-2.7 1.9-5h1.2l-.2 7.6H27.4zm22.8-14.5v-6.9H70v6.9h-1.2c0-1.7-.4-3.1-1.1-4.2s-1.9-1.6-3.5-1.6h-2v19.3H66v1H54.3v-1h3.8V45.4h-2c-1.6 0-2.8.5-3.6 1.6-.7 1.1-1.1 2.5-1.1 4.2h-1.2zm22.1-3.2c3.1-2.2 4.6-4.4 4.6-6.7 0-.2 0-.5-.1-.8-.5.3-1.1.5-1.8.5s-1.3-.3-1.9-.8c-.6-.6-.9-1.2-.9-2s.3-1.5.9-2.1c.6-.6 1.3-.9 2-.9 1.2 0 2.2.5 2.8 1.6.6 1 .9 2.3.9 3.8s-.6 3-1.9 4.6-2.7 2.8-4.3 3.6l-.3-.8zm10.6 16.4v-5.8h1.5c.1 2 .8 3.6 1.8 4.8 1.1 1.2 2.3 1.7 3.7 1.7s2.5-.4 3.2-1.2 1.1-1.7 1.1-2.8-.2-1.9-.7-2.4c-.4-.6-1.2-1-2.2-1.3L87 55.8c-1.1-.4-2-1-2.7-2-.8-.9-1.1-2.1-1.1-3.5 0-2 .6-3.6 1.9-4.8 1.2-1.2 3-1.8 5.3-1.8s4.2.4 5.8 1.2l.2 5.1h-1.2c-.2-1.5-.7-2.8-1.5-3.8s-1.9-1.5-3.3-1.5-2.4.4-3.1 1.1c-.7.7-1.1 1.6-1.1 2.5 0 .9.2 1.6.7 2.2s1.3 1 2.3 1.3l4 1.4c2.9 1.1 4.4 2.9 4.4 5.6 0 2.1-.7 3.8-2 5.2-1.3 1.4-3.3 2.1-5.9 2.1s-4.9-.4-6.8-1.6zM4.2 95C1.7 92.2.5 88.4.5 83.8s1.3-8.3 4-11.2c2.6-2.9 6.2-4.3 10.7-4.3 3.1 0 6.4.8 9.9 2.4v7.9h-1.2c-.4-2.8-1.2-5-2.5-6.6-1.3-1.6-3.2-2.4-5.9-2.4-1.6 0-3 .3-4.1.8-1.2.6-2.1 1.3-2.7 2.1-.7.8-1.2 1.9-1.6 3.2-.6 2.1-.9 4.7-.9 8 0 5.1.7 8.8 2.2 10.9.6.9 1.5 1.7 2.6 2.3 1.1.6 2.4.9 3.9.9 2.7 0 4.9-.9 6.4-2.8s2.4-4.3 2.6-7.1H25v8.3c-3.6 2-7.1 3-10.4 3-4.4 0-7.9-1.4-10.4-4.2zM30 98.7v-1h3.6V78.4H30v-1.1h10.9v1.1h-3.3v8.8h9.1v-8.8h-3.3v-1.1h10.9v1.1h-3.6v19.3h3.6v1H43.5v-1h3.3v-9.5h-9.1v9.5H41v1H30zm26.5 0v-1h3.3l7.5-20.9H69l7.6 20.9h3.2v1H68.5v-1h3.8L70 91.3h-6.7l-2.2 6.4h3.5v1h-8.1zm7.2-8.4h5.9l-2.9-8.2h-.1l-2.9 8.2zm16.4-6v-6.9h19.7v6.9h-1.2c0-1.7-.4-3.1-1.1-4.2s-1.9-1.6-3.5-1.6h-2v19.3h3.8v1H84.2v-1H88V78.4h-2c-1.6 0-2.8.5-3.6 1.6-.7 1.1-1.1 2.5-1.1 4.2h-1.2z"/></svg>