<svg version="1.1" id="Layer_1" xmlns="http://www.w3.org/2000/svg" xmlns:xlink="http://www.w3.org/1999/xlink" x="0" y="0" viewBox="0 0 196.1 120.3" xml:space="preserve"><style>.st12{fill:#000100}.st26{fill:#fff}.st76{opacity:.3}.st77{opacity:0;fill:#000100}.st79{opacity:.1818}.st79,.st80,.st81{fill:#000100}.st80{opacity:.2727}.st81{opacity:.3636}.st82{opacity:.4545}.st82,.st83,.st84{fill:#000100}.st83{opacity:.5455}.st84{opacity:.6364}.st85{opacity:.7273}.st85,.st86,.st87{fill:#000100}.st86{opacity:.8182}.st87{opacity:.9091}.st124{fill:#3a3a3a}.st144{opacity:9.090909e-02;fill:#000100}.st153{fill:#637890}.st154{fill:#374f68}</style><g class="st76"><path class="st77" d="M126.6 120.3H44.8l57.9-16.2z"/><path class="st144" d="M126.4 120.1H44.7l57.9-16.2z"/><path class="st79" d="M126.3 119.9H44.5l57.9-16.2z"/><path class="st80" d="M126.1 119.7H44.4l57.9-16.1z"/><path class="st81" d="M126 119.6H44.2l57.9-16.2z"/><path class="st82" d="M125.8 119.4H44.1l57.9-16.2z"/><path class="st83" d="M125.7 119.2H43.9l57.9-16.2z"/><path class="st84" d="M125.5 119H43.8l57.9-16.2z"/><path class="st85" d="M125.4 118.9H43.6l57.9-16.2z"/><path class="st86" d="M125.2 118.7H43.5l57.9-16.2z"/><path class="st87" d="M125.1 118.5H43.3l57.9-16.2z"/><path class="st12" d="M124.9 118.3H43.2l57.9-16.2z"/></g><linearGradient id="SVGID_1_" gradientUnits="userSpaceOnUse" x1="70.794" y1="109.647" x2="123.855" y2="132.848"><stop offset="0" stop-color="#c5cfd6"/><stop offset=".4" stop-color="#e1e5e9"/><stop offset=".679" stop-color="#f4f5f7"/></linearGradient><path fill="url(#SVGID_1_)" d="M124.9 118.3H43.2l57.9-16.2z"/><g class="st76"><path class="st77" d="M44.8 120.3l57.9-16.2 44.5-12.4H53.7z"/><path class="st144" d="M44.7 120.1l57.9-16.2L147 91.5H53.6z"/><path class="st79" d="M44.5 119.9l57.9-16.2 44.5-12.4H53.4z"/><path class="st80" d="M44.4 119.7l57.9-16.1 44.4-12.5H53.2z"/><path class="st81" d="M44.2 119.6l57.9-16.2L146.6 91H53.1z"/><path class="st82" d="M44.1 119.4l57.9-16.2 44.4-12.4H52.9z"/><path class="st83" d="M43.9 119.2l57.9-16.2 44.5-12.4H52.8z"/><path class="st84" d="M43.8 119l57.9-16.2 44.4-12.4H52.6z"/><path class="st85" d="M43.6 118.9l57.9-16.2L146 90.2H52.5z"/><path class="st86" d="M43.5 118.7l57.9-16.2 44.4-12.4H52.3z"/><path class="st87" d="M43.3 118.5l57.9-16.2 44.5-12.4H52.2z"/><path class="st12" d="M43.2 118.3l57.9-16.2 44.4-12.4H52z"/></g><linearGradient id="SVGID_2_" gradientUnits="userSpaceOnUse" x1="61.035" y1="78.499" x2="105.846" y2="112.83"><stop offset="0" stop-color="#c5cfd6"/><stop offset=".4" stop-color="#e1e5e9"/><stop offset=".679" stop-color="#f4f5f7"/></linearGradient><path fill="url(#SVGID_2_)" d="M43.2 118.3l57.9-16.2 44.4-12.4H52z"/><g class="st76"><path class="st77" d="M13.5 17.6l175.8 12.1-19.6 60.8-167 11.9z"/><path class="st144" d="M13.3 17.4l175.8 12.1-19.5 60.8L2.5 102.2z"/><path class="st79" d="M13.2 17.2L189 29.3l-19.6 60.8L2.4 102z"/><path class="st80" d="M13 17l175.8 12.2L169.3 90 2.2 101.9z"/><path class="st81" d="M12.9 16.9L188.7 29l-19.6 60.8-167 11.9z"/><path class="st82" d="M12.7 16.7l175.8 12.1L169 89.6 1.9 101.5z"/><path class="st83" d="M12.6 16.5l175.8 12.1-19.6 60.8-167 11.9z"/><path class="st84" d="M12.4 16.3l175.8 12.1-19.5 60.8-167.1 12z"/><path class="st85" d="M12.3 16.1l175.8 12.2-19.6 60.8L1.5 101z"/><path class="st86" d="M12.1 16l175.8 12.1-19.5 60.8L1.3 100.8z"/><path class="st87" d="M12 15.8l175.8 12.1-19.6 60.8-167 11.9z"/><path class="st12" d="M11.8 15.6l175.8 12.1-19.5 60.8L1 100.4z"/></g><linearGradient id="SVGID_3_" gradientUnits="userSpaceOnUse" x1="18.053" y1="1.318" x2="151.669" y2="111.255"><stop offset="0" stop-color="#c5cfd6"/><stop offset=".4" stop-color="#e1e5e9"/><stop offset=".679" stop-color="#f4f5f7"/></linearGradient><path fill="url(#SVGID_3_)" d="M11.8 15.6l175.8 12.1-19.5 60.8L1 100.4z"/><linearGradient id="SVGID_4_" gradientUnits="userSpaceOnUse" x1="124.995" y1="107.627" x2="90.053" y2="57.998"><stop offset="0" stop-color="#c5cfd6"/><stop offset=".4" stop-color="#e1e5e9"/><stop offset=".679" stop-color="#f4f5f7"/></linearGradient><path fill="url(#SVGID_4_)" d="M185.5 27.6l-19.2 59.7L1.2 99.1l-.2 1.3 167.1-11.9 19.5-60.8z"/><linearGradient id="SVGID_5_" gradientUnits="userSpaceOnUse" x1="79.615" y1="20.635" x2="69.803" y2="-8.323"><stop offset="0" stop-color="#c5cfd6"/><stop offset=".4" stop-color="#e1e5e9"/><stop offset=".679" stop-color="#f4f5f7"/></linearGradient><path fill="url(#SVGID_5_)" d="M13.1 16.8l174.2 12 .3-1.1L11.8 15.6 1 100.4l1.5-.1z"/><g class="st76"><path class="st77" d="M164.7 94.1c4 .3 7.2-1.7 7.2-4.3v-60c0-2.7-3.2-5.1-7.2-5.5l-131-11.5c-3.9-.3-7.9 1.5-8.8 4.1L3.8 77.5c-.9 2.6 1.6 5 5.5 5.2l155.4 11.4z"/><path class="st144" d="M164.4 93.8c4 .3 7.2-1.7 7.2-4.3v-60c0-2.7-3.2-5.1-7.2-5.5l-131-11.5c-3.9-.3-7.9 1.5-8.8 4.1L3.5 77.3c-.9 2.6 1.6 5 5.5 5.2l155.4 11.3z"/><path class="st79" d="M164.1 93.6c4 .3 7.2-1.7 7.2-4.3v-60c0-2.7-3.2-5.1-7.2-5.5l-131-11.5c-3.9-.3-7.9 1.5-8.8 4.1L3.1 77.1c-.9 2.6 1.6 5 5.5 5.2l155.5 11.3z"/><path class="st80" d="M163.8 93.4c4 .3 7.2-1.7 7.2-4.3v-60c0-2.7-3.2-5.1-7.2-5.5l-131-11.5c-3.9-.3-7.9 1.5-8.8 4.1L2.8 76.9c-.9 2.6 1.6 5 5.5 5.2l155.5 11.3z"/><path class="st81" d="M163.4 93.2c4 .3 7.2-1.7 7.2-4.3v-60c0-2.7-3.2-5.1-7.2-5.5l-131-11.5c-3.9-.3-7.9 1.5-8.8 4.1L2.5 76.7c-.9 2.6 1.6 5 5.5 5.2l155.4 11.3z"/><path class="st82" d="M163.1 93c4 .3 7.2-1.7 7.2-4.3v-60c0-2.7-3.2-5.1-7.2-5.5l-131-11.5c-3.9-.3-7.9 1.5-8.8 4.1L2.2 76.4c-.9 2.6 1.6 5 5.5 5.2L163.1 93z"/><path class="st83" d="M162.8 92.7c4 .3 7.2-1.7 7.2-4.3v-60c0-2.7-3.2-5.1-7.2-5.5l-131-11.5c-3.9-.3-7.9 1.5-8.8 4.1L1.8 76.2c-.9 2.6 1.6 5 5.5 5.2l155.5 11.3z"/><path class="st84" d="M162.4 92.5c4 .3 7.2-1.7 7.2-4.3v-60c0-2.7-3.2-5.1-7.2-5.5l-131-11.5c-3.9-.3-7.9 1.5-8.8 4.1L1.5 76c-.9 2.6 1.6 5 5.5 5.2l155.4 11.3z"/><path class="st85" d="M162.1 92.3c4 .3 7.2-1.7 7.2-4.3V28c0-2.7-3.2-5.1-7.2-5.5L31.1 11c-3.9-.3-7.9 1.5-8.8 4.1L1.2 75.8c-.9 2.6 1.6 5 5.5 5.2l155.4 11.3z"/><path class="st86" d="M161.8 92.1c4 .3 7.2-1.7 7.2-4.3v-60c0-2.7-3.2-5.1-7.2-5.5l-131-11.5c-3.9-.3-7.9 1.5-8.8 4.1L.8 75.6c-.9 2.6 1.6 5 5.5 5.2l155.5 11.3z"/><path class="st87" d="M161.5 91.9c4 .3 7.2-1.7 7.2-4.3v-60c0-2.7-3.2-5.1-7.2-5.5l-131-11.5c-3.9-.3-7.9 1.5-8.8 4.1L.5 75.3c-.9 2.6 1.6 5 5.5 5.2l155.5 11.4z"/><path class="st12" d="M161.1 91.6c4 .3 7.2-1.7 7.2-4.3v-60c0-2.7-3.2-5.1-7.2-5.5l-131-11.5c-3.9-.3-7.9 1.5-8.8 4.1L.2 75.1c-.9 2.6 1.6 5 5.5 5.2l155.4 11.3z"/></g><linearGradient id="SVGID_6_" gradientUnits="userSpaceOnUse" x1="46.328" y1="10.945" x2="125.707" y2="96.248"><stop offset=".035" stop-color="#ffe34f"/><stop offset=".244" stop-color="#ffd221"/><stop offset="1" stop-color="#fad000"/></linearGradient><path d="M161.1 91.6c4 .3 7.2-1.7 7.2-4.3v-60c0-2.7-3.2-5.1-7.2-5.5l-131-11.5c-3.9-.3-7.9 1.5-8.8 4.1L.2 75.1c-.9 2.6 1.6 5 5.5 5.2l155.4 11.3z" fill="url(#SVGID_6_)"/><path d="M1.3 76.1l21.2-60.7c.9-2.6 4.9-4.4 8.8-4.1l131 11.5c1.9.2 3.6.8 4.9 1.7-1.3-1.4-3.5-2.5-6-2.7l-131-11.5c-3.9-.3-7.9 1.5-8.8 4.1L.2 75.1c-.5 1.6.2 3.1 1.7 4.1-.8-.9-1-2-.6-3.1z" fill="#f9e925"/><defs><path id="SVGID_40_" d="M136.2 19.5l10.9 1.4 26.3 5.9-1.5 51.7s13 8.8 15 8.2c2-.7 48.8-31.8 48.8-31.8s-14.8-38.7-16.5-39.3c-1.7-.7-39.3-14.7-41-14.8-1.6-.3-40.8-.8-40.8-.8s-9 14.2-8.3 14.7c.7.5 7.1 4.8 7.1 4.8z"/></defs><clipPath id="SVGID_7_"><use xlink:href="#SVGID_40_" overflow="visible"/></clipPath><g clip-path="url(#SVGID_7_)"><path class="st153" d="M191.2 56.9l-5.3-2.8c2.1-4 3.1-8.3 3.1-12.8 0-15.2-12.3-27.5-27.5-27.5S134 26.1 134 41.3c0 4.3 1 8.4 2.9 12.3l-5.3 2.7c-2.3-4.7-3.5-9.7-3.5-14.9 0-18.5 15-33.5 33.5-33.5C180 7.9 195 23 195 41.4c0 5.4-1.3 10.8-3.8 15.5z"/><path class="st153" d="M131.4 70.8l-5.7-14.3 6.5-8L141 71zm60 0l5.7-14.3-6.5-8-8.8 22.5z"/><path class="st26" d="M144.7 74c-1.4 0-2.6-.8-3.1-2.2L132 46.6c-.7-1.7.2-3.7 2-4.3 1.7-.7 3.7.2 4.3 2l9.5 25.3c.7 1.7-.2 3.7-2 4.3-.3 0-.7.1-1.1.1z"/><path class="st154" d="M144.7 75.5c-2 0-3.8-1.3-4.5-3.1l-9.5-25.3c-.5-1.2-.4-2.5.1-3.7.5-1.2 1.5-2.1 2.7-2.5 2.5-.9 5.3.4 6.3 2.8l9.5 25.3c.5 1.2.4 2.5-.1 3.7-.5 1.2-1.5 2.1-2.7 2.5-.6.2-1.2.3-1.8.3zm-9.5-32c-.2 0-.5 0-.7.1-.5.2-.8.5-1 1-.2.5-.2 1 0 1.4l9.5 25.3c.4.9 1.5 1.5 2.4 1.1.5-.2.9-.5 1.1-1 .2-.5.2-1 0-1.4L137 44.7c-.3-.7-1-1.2-1.8-1.2z"/><path class="st26" d="M178.3 74c1.4 0 2.6-.8 3.2-2.2l9.5-25.3c.7-1.7-.2-3.7-2-4.3-1.7-.7-3.7.2-4.3 2l-9.5 25.3c-.7 1.7.2 3.7 2 4.3.3.1.7.2 1.1.2z"/><path class="st154" d="M178.3 75.5c-.6 0-1.2-.1-1.7-.3-1.2-.5-2.2-1.4-2.7-2.5-.5-1.2-.6-2.5-.1-3.7l9.5-25.3c.9-2.4 3.8-3.7 6.3-2.8 1.2.5 2.2 1.4 2.7 2.6.5 1.2.6 2.5.1 3.7l-9.5 25.3c-.8 1.7-2.6 3-4.6 3zm9.5-32c-.8 0-1.5.5-1.8 1.2L176.5 70c-.2.5-.2 1 0 1.4.2.5.6.8 1 1 1 .4 2.1-.2 2.4-1.1l9.5-25.3c.2-.5.2-1 0-1.4-.2-.5-.6-.8-1-1-.1-.1-.3-.1-.6-.1z"/><g><path class="st153" d="M147.9 90.3c-23.8-3.3-27-12.9-27.3-16.8-.4-5.6 3.8-10.9 10-12.6l.8 2.9c-4.8 1.4-8.1 5.4-7.9 9.5.5 6.8 9.7 12 24.7 14.1l-.3 2.9z"/><path class="st154" d="M157.3 93.8h-.3l-10.9-1.2c-1.7-.2-3-2-2.8-4.1.2-2 1.7-3.6 3.4-3.4l10.9 1.2c1.7.2 3 2 2.8 4.1-.2 1.9-1.5 3.4-3.1 3.4z"/><path class="st154" d="M147.3 88.4c0 1.6-1.3 2.9-2.9 2.9-1.6 0-2.9-1.3-2.9-2.9 0-1.6 1.3-2.9 2.9-2.9 1.6 0 2.9 1.3 2.9 2.9z"/></g></g><g><path class="st124" d="M32.6 41.4l-2.2-.2c-.8-.1-1.4-.4-2-1-.5-.6-.7-1.3-.7-2.1l.7-7.2c.1-.8.4-1.5 1-2s1.3-.7 2.1-.7l2.9.3c.8.1 1.4.4 2 1s.7 1.3.7 2.1l-.7 7.2c-.2 1.7-1.2 2.6-3.1 2.6l2.9.3-.1 1.4-2.2-.1c-.8-.1-1.2-.6-1.3-1.6zm-1.2-10.3l-.7 7.2c0 .4.1.7.3 1.1.3.3.6.5 1 .5s.8-.1 1.1-.3c.3-.3.5-.6.5-1l.7-7.2c0-.4-.1-.8-.3-1.1-.3-.3-.6-.5-1-.5s-.7.1-1.1.3c-.3.3-.5.6-.5 1zm15.9 1.4l-.9 10.1-2.9-.3.1-1.4c-.2.9-.7 1.4-1.6 1.3l-1.4-.1c-.8-.1-1.4-.4-2-1-.5-.6-.7-1.3-.7-2.1l.7-7.2 2.9.3-.7 7.2c0 .4.1.7.3 1.1.3.3.6.5 1 .5s.8-.1 1.1-.3c.3-.3.5-.6.5-1l.7-7.2 2.9.1zm.6 10.3l.9-10.1 2.9.3-.9 10.1-2.9-.3zM49 31.2l.1-1.4 2.9.2-.1 1.4-2.9-.2zm11.2 5.4l-1.4-.1c0-1-.5-1.5-1.3-1.6-.4 0-.7.1-1.1.3-.3.3-.5.6-.5 1l-.4 4.3c0 .4.1.7.3 1.1.3.3.6.5 1 .5.9.1 1.4-.4 1.6-1.3l1.4.1c-.3 1.9-1.3 2.8-3.2 2.6l-1.4-.1c-.8-.1-1.4-.4-2-1-.5-.6-.7-1.3-.7-2.1L53 36c.1-.8.4-1.4 1-2 .6-.5 1.3-.7 2.1-.7l1.4.1c1.9.2 2.8 1.3 2.7 3.2zM61 44l1.2-13 2.9.3-.6 6.5 4.7-3.2 2.9.3-6.5 4.5 5.6 5.6-2.9-.3-4-4-.3 3.6-3-.3zm18.3 1.6l-2.2-.2c-.8-.1-1.4-.4-2-1-.5-.6-.7-1.3-.7-2.1l.7-7.2c.1-.8.4-1.5 1-2s1.3-.7 2.1-.7l2.9.3c.8.1 1.4.4 2 1 .5.6.7 1.3.7 2.1l-.7 7.2c-.2 1.7-1.2 2.6-3.1 2.6l2.9.3-.1 1.4-2.2-.2c-.9 0-1.3-.5-1.3-1.5zM78 35.3l-.7 7.2c0 .4.1.7.3 1.1.3.3.6.5 1 .5s.8-.1 1.1-.3c.3-.3.5-.6.5-1l.7-7.2c0-.4-.1-.8-.3-1.1-.3-.3-.6-.5-1-.5s-.7.1-1.1.3c-.3.3-.5.6-.5 1zm16 1.5l-.9 10.1-2.9-.3.1-1.4c-.2.9-.7 1.4-1.6 1.3l-1.4-.1c-.8-.1-1.4-.4-2-1-.5-.6-.7-1.3-.7-2.1l.7-7.2 2.9.3-.7 7.2c0 .4.1.7.3 1.1.3.3.6.5 1 .5s.8-.1 1.1-.3c.3-.3.5-.6.5-1l.7-7.2 2.9.1zm9.6 6.7l-5.8-.5-.1 1.4c0 .4.1.7.3 1.1.3.3.6.5 1 .5l1.5.1c1 .1 1.5-.4 1.6-1.3l1.4.1c-.4 1.9-1.4 2.8-3.1 2.6l-2.9-.3c-.8-.1-1.4-.4-2-1-.5-.6-.7-1.3-.7-2.1l.4-4.3c.1-.8.4-1.4 1-2 .6-.5 1.3-.7 2.1-.7l2.9.3c.8.1 1.4.4 2 1 .5.6.7 1.3.7 2.1l-.3 3zm-5.6-2l2.9.3.1-1.5c0-.4-.1-.7-.3-1.1-.3-.3-.6-.5-1-.5s-.7.1-1.1.3c-.3.3-.5.6-.5 1l-.1 1.5zm14.6-.1l-1.4-.1c0-1-.5-1.5-1.2-1.6-.5 0-.9 0-1.2.2-.3.2-.4.5-.5.9 0 .4.6 1.1 1.9 1.9 1.1.7 1.7 1.3 1.8 1.7.1.4.2.9.1 1.3-.1.8-.4 1.5-1 2s-1.3.7-2.1.7l-1.4-.1c-1.9-.2-2.8-1.2-2.6-3.2l1.5.1c0 1 .4 1.5 1.2 1.6.5 0 .9 0 1.2-.2s.4-.5.5-.9c0-.4-.6-1-1.9-1.9-1.1-.7-1.7-1.3-1.8-1.7-.1-.4-.2-.9-.2-1.3.1-.8.4-1.5 1-2s1.3-.7 2.1-.7l1.4.1c1.8.2 2.7 1.2 2.6 3.2zm3.5-5.6l2.9.3-.3 2.9 1.5.1-.1 1.4-1.5-.1-.5 5.8c0 .5.1.9.4 1.1.3.3.6.4.8.5h.1l-.1 1.4-1.5-.1c-.8-.1-1.4-.4-2-1s-.7-1.3-.7-2.1l.5-5.8-1.5-.1.1-1.4 1.5.1.4-3zm4.7 13.6l.9-10.1 2.9.3-.9 10.1-2.9-.3zm1-11.6l.1-1.4 2.9.3-.1 1.4-2.9-.3zm7.2 2.1l2.9.3c.8.1 1.4.4 2 1s.7 1.3.7 2.1l-.4 4.3c-.1.8-.4 1.4-1 2-.6.5-1.3.7-2.1.7l-2.9-.3c-.8-.1-1.4-.4-2-1-.5-.6-.7-1.3-.7-2.1l.4-4.3c.1-.8.4-1.4 1-2 .6-.5 1.3-.7 2.1-.7zm-.3 2.9l-.4 4.3c0 .4.1.7.3 1.1.3.3.6.5 1 .5s.8-.1 1.1-.3.5-.6.5-1l.4-4.3c0-.4-.1-.7-.3-1.1-.3-.3-.6-.5-1-.5s-.7.1-1.1.3c-.3.3-.5.6-.5 1zm6.6 7.9l.9-10.1 2.9.3-.1 1.4c.1-.5.3-.8.5-1 .3-.2.6-.3 1-.3l1.5.1c.8.1 1.4.4 2 1s.7 1.3.7 2.1l-.7 7.2-2.9-.3.7-7.2c0-.4-.1-.7-.3-1.1-.3-.3-.6-.5-1-.5s-.7.1-1.1.3c-.3.3-.5.6-.5 1l-.7 7.2-2.9-.1zm13.5-3.2l.1-1.4c.1-1.2.8-2.1 2.1-2.8l.3-.1c.5-.3.8-.7.9-1.2 0-.4-.1-.7-.3-1.1-.3-.3-.6-.5-1-.5l-1.4-.1c-.9-.1-1.4.4-1.6 1.3l-1.5-.1c.4-1.9 1.5-2.8 3.2-2.6l2.9.3c.8.1 1.4.4 2 1 .5.6.7 1.3.7 2.1-.1 1.2-.7 2.1-1.9 2.5l-.2.1c-.5.2-.9.4-1 .6s-.2.5-.2.9l-.1 1.4-3-.3zm-.4 4.4l.3-2.9 2.9.3-.3 2.9-2.9-.3zM21 44.7l3.9.4-1.4 15.6 1.9.2c.5 0 1-.1 1.4-.5s.6-.8.7-1.3l1.2-13.6 3.9.3-1.4 15.6 2 .2c.5 0 1-.1 1.4-.5.4-.4.6-.8.7-1.3l1.2-13.6 3.9.4-1 10.8c-.2 1.8-1 3.3-2.4 4.5-1.4 1.2-3 1.7-4.9 1.5l-5-.5.1-.6c-.8.3-1.7.5-2.8.4l-5-.5L21 44.7zm32.1 14.6l-7.8-.7-.2 1.9c0 .5.1 1 .4 1.4.3.4.8.7 1.3.7l2 .2c1.3.1 2-.5 2.1-1.8l1.9.2c-.5 2.6-1.9 3.8-4.2 3.5l-3.9-.4c-1.1-.1-1.9-.6-2.6-1.4-.7-.8-1-1.8-.9-2.9l.5-5.8c.1-1.1.6-1.9 1.4-2.6.8-.7 1.8-1 2.8-.9l3.9.4c1.1.1 1.9.6 2.6 1.4.7.8 1 1.8.9 2.8l-.2 4zm-7.6-2.6l3.9.4.2-2c0-.5-.1-1-.4-1.4-.3-.4-.8-.6-1.3-.7-.5 0-1 .1-1.4.4-.4.3-.6.8-.7 1.3l-.3 2zm21.6 1.9l.2-2c0-.5-.1-1-.4-1.4-.3-.4-.8-.6-1.3-.7l-1.9-.2c-1.2-.1-1.9.5-2.1 1.8l-2-.2c.5-2.6 2-3.7 4.2-3.5l3.9.4c1.1.1 1.9.6 2.6 1.4s1 1.8.9 2.8l-.9 9.7-3.9-.3.2-1.9c-.3 1.3-1 1.9-2.1 1.8l-2-.3c-1.1-.1-1.9-.6-2.6-1.4-.7-.8-1-1.8-.9-2.9.1-1.1.6-1.9 1.4-2.6.8-.7 1.8-1 2.8-.9l3.9.4zm-.2 2l-2-.2c-.5 0-1 .1-1.4.4-.4.3-.6.8-.7 1.3 0 .5.1 1 .4 1.4.3.4.8.7 1.3.7s1-.1 1.4-.5.6-.8.7-1.3l.3-1.8zm9.3 6.7l-3.9-.4 1.2-13.6 3.9.4-.4 3.9c.3-1.3.8-2.2 1.5-2.8.7-.6 1.6-.8 2.8-.7l1.9.2-.3 3.9-3.9-.5c-.5 0-1 .1-1.4.4-.4.3-.6.8-.7 1.3l-.7 7.9zM94.3 63l-7.8-.7-.2 1.9c0 .5.1 1 .4 1.4.3.4.8.7 1.3.7l2 .2c1.3.1 2-.5 2.1-1.8l1.9.2c-.5 2.6-1.9 3.8-4.2 3.5l-3.8-.2c-1.1-.1-1.9-.6-2.6-1.4-.7-.8-1-1.8-.9-2.9l.5-5.8c.1-1.1.6-1.9 1.4-2.6.8-.7 1.8-1 2.8-.9l3.9.4c1.1.1 1.9.6 2.6 1.4.7.8 1 1.8.9 2.8l-.3 3.8zm-7.6-2.6l3.9.4.2-2c0-.5-.1-1-.4-1.4s-.8-.6-1.3-.7c-.5 0-1 .1-1.4.4-.4.3-.6.8-.7 1.3l-.3 2zm13 9l1.6-17.5 3.9.4-.5 5.8c.1-.6.4-1.1.7-1.4s.8-.4 1.4-.4l2 .2c1.1.1 1.9.6 2.6 1.4s1 1.8.9 2.8l-.9 9.7-3.9-.3.9-9.7c0-.5-.1-1-.4-1.4-.3-.4-.8-.6-1.3-.7-.5 0-1 .1-1.4.4-.4.3-.6.8-.7 1.3l-.9 9.7-4-.3zm25.9-3.5l-7.8-.7-.2 1.9c0 .5.1 1 .4 1.4.3.4.8.7 1.3.7l2 .2c1.3.1 2-.5 2.1-1.8l1.9.2c-.5 2.6-1.9 3.8-4.2 3.5l-3.9-.4c-1.1-.1-1.9-.6-2.6-1.4-.7-.8-1-1.8-.9-2.9l.5-5.8c.1-1.1.6-1.9 1.4-2.6.8-.7 1.8-1 2.8-.9l3.9.4c1.1.1 1.9.6 2.6 1.4s1 1.8.9 2.8l-.2 4zm-7.6-2.7l3.9.4.2-2c0-.5-.1-1-.4-1.4-.3-.4-.8-.6-1.3-.7-.5 0-1 .1-1.4.4-.4.3-.6.8-.7 1.3l-.3 2zm13 9l-3.9-.4 1.2-13.6 3.9.4-.3 3.9c.3-1.3.8-2.2 1.5-2.8.7-.6 1.6-.8 2.8-.7l1.9.2-.3 3.9-3.9-.4c-.5 0-1 .1-1.4.4-.4.3-.6.8-.7 1.3l-.8 7.8z"/><path class="st124" d="M149.1 68l-7.8-.7-.2 1.9c0 .5.1 1 .4 1.4.3.4.8.7 1.3.7l2 .2c1.3.1 2-.5 2.1-1.8l1.9.2c-.5 2.6-1.9 3.8-4.2 3.5l-3.9-.4c-1.1-.1-1.9-.6-2.6-1.4-.7-.8-1-1.8-.9-2.9l.5-5.8c.1-1.1.6-1.9 1.4-2.6.8-.7 1.8-1 2.8-.9l3.9.4c1.1.1 1.9.6 2.6 1.4s1 1.8.9 2.8l-.2 4zm-7.6-2.6l3.9.4.2-2c0-.5-.1-1-.4-1.4s-.8-.6-1.3-.7c-.5 0-1 .1-1.4.4-.4.3-.6.8-.7 1.3l-.3 2zm11.1 8.8l.4-3.9 3.9.3-.4 3.9-3.9-.3zm.5-5.8l1.1-11.7 3.8.3-1 11.7-3.9-.3z"/></g></svg>