<svg xmlns="http://www.w3.org/2000/svg" xmlns:xlink="http://www.w3.org/1999/xlink" viewBox="0 0 190.1 101.4"><defs><path id="a" d="M190.1 0H0v81.1h106v20.3h38.3V81.1h45.8z"/></defs><clipPath id="b"><use xlink:href="#a" overflow="visible"/></clipPath><g clip-path="url(#b)"><g opacity=".3" fill="#000100"><path d="M12.4 6.1l162.3 20.4c6.4 1.6 11 8.2 10.3 14.8l-3.3 21.3c-.7 6.5-6.7 12.4-13.3 13.1L147 77.9l-29.8 20-12.8-15.7-91.7 9.2C6.1 92 .8 87.2.8 80.6V15.2C.8 8.6 6 4.5 12.4 6.1z" opacity=".091"/><path d="M12.6 5.9L175 26.2c6.4 1.6 11 8.2 10.3 14.8L182 62.3c-.8 6.5-6.8 12.5-13.3 13.1l-21.4 2.2-29.8 20-12.8-15.7L13 91.1c-6.6.7-12-4.2-12-10.8V15C1 8.4 6.2 4.3 12.6 5.9z" opacity=".182"/><path d="M12.9 5.6L175.2 26c6.4 1.6 11 8.2 10.3 14.8l-3.3 21.3c-.8 6.5-6.8 12.5-13.3 13.1l-21.4 2.2-29.8 20-12.8-15.7-91.7 9.2c-6.6.6-12-4.2-12-10.8V14.7C1.2 8.1 6.5 4 12.9 5.6z" opacity=".273"/><path d="M13.1 5.4l162.3 20.4c6.4 1.6 11 8.2 10.3 14.8l-3.3 21.3c-.8 6.5-6.8 12.5-13.3 13.1l-21.4 2.2-29.8 20-12.7-15.7-91.7 9.2c-6.7.6-12-4.3-12-10.9V14.5c0-6.6 5.2-10.7 11.6-9.1z" opacity=".364"/><path d="M13.3 5.1l162.3 20.4c6.4 1.6 11 8.2 10.3 14.8l-3.3 21.3c-.8 6.5-6.8 12.5-13.3 13.1l-21.4 2.2-29.8 20-12.8-15.7-91.7 9.2c-6.5.7-11.9-4.2-11.9-10.8V14.3c0-6.6 5.2-10.7 11.6-9.2z" opacity=".455"/><path d="M13.6 4.9l162.3 20.4c6.4 1.6 11 8.2 10.3 14.8l-3.3 21.3c-.8 6.5-6.8 12.5-13.3 13.1l-21.4 2.2-29.8 20L105.6 81l-91.7 9.2c-6.6.6-12-4.2-12-10.8V14c0-6.6 5.3-10.7 11.7-9.1z" opacity=".545"/><path d="M13.8 4.6L176.2 25c6.4 1.6 11 8.2 10.3 14.8l-3.3 21.3c-.8 6.5-6.8 12.5-13.3 13.1l-21.4 2.2-29.8 20-12.8-15.7-91.7 9.2c-6.7.7-12-4.2-12-10.8V13.8c0-6.6 5.2-10.7 11.6-9.2z" opacity=".636"/><path d="M14.1 4.4l162.3 20.4c6.4 1.6 11 8.2 10.3 14.8l-3.3 21.3c-.8 6.5-6.7 12.5-13.3 13.1l-21.4 2.2-29.8 20-12.8-15.7-91.7 9.2c-6.6.6-12-4.2-12-10.8V13.5c0-6.6 5.2-10.7 11.7-9.1z" opacity=".727"/><path d="M14.3 4.2l162.3 20.4c6.4 1.6 11 8.2 10.3 14.8l-3.3 21.3c-.8 6.5-6.8 12.5-13.3 13.1L148.9 76l-29.8 20-12.8-15.7-91.7 9.2c-6.6.6-12-4.3-12-10.9V13.3c0-6.6 5.3-10.7 11.7-9.1z" opacity=".818"/><path d="M14.5 3.9l162.3 20.4c6.4 1.6 11 8.2 10.3 14.8l-3.3 21.3c-.8 6.5-6.8 12.5-13.3 13.1l-21.4 2.2-29.8 20L106.5 80l-91.7 9.2C8.2 89.8 2.9 85 2.9 78.4V13c0-6.6 5.2-10.7 11.6-9.1z" opacity=".909"/><path d="M14.8 3.7l162.3 20.4c6.4 1.6 11 8.2 10.3 14.8l-3.3 21.3c-.8 6.5-6.8 12.5-13.3 13.1l-21.4 2.2-29.8 20-12.8-15.7L15 88.9c-6.5.7-11.9-4.2-11.9-10.7V12.8c0-6.6 5.3-10.7 11.7-9.1z"/></g><path d="M14.8 3.7l162.3 20.4c6.4 1.6 11 8.2 10.3 14.8l-3.3 21.3c-.8 6.5-6.8 12.5-13.3 13.1l-21.4 2.2-29.8 20-12.8-15.7L15 88.9c-6.5.7-11.9-4.2-11.9-10.7V12.8c0-6.6 5.3-10.7 11.7-9.1z"/><linearGradient id="c" gradientUnits="userSpaceOnUse" x1="1044.823" y1="92.545" x2="1042.44" y2="55.45" gradientTransform="matrix(-1 0 0 1 1135.774 0)"><stop offset="0" stop-color="#c5cfd6"/><stop offset=".4" stop-color="#e1e5e9"/><stop offset=".679" stop-color="#f4f5f7"/></linearGradient><path d="M3.2 11.1v65.2c0 6.6 5.4 11.4 11.9 10.8l91.7-9.2 12.8 15.7 29.8-20 21.4-2.2c6.6-.7 12.6-6.6 13.3-13.1l3.2-20.8c0 .5 0 .9-.1 1.4l-3.3 21.3c-.8 6.5-6.8 12.5-13.3 13.1l-21.4 2.2-29.8 20-12.8-15.7L15 88.9c-6.5.7-11.9-4.2-11.9-10.7V12.8c0-.6.1-1.1.1-1.7z" fill="url(#c)"/><linearGradient id="d" gradientUnits="userSpaceOnUse" x1="1053.612" y1="54.018" x2="1002.286" y2="-25.991" gradientTransform="matrix(-1 0 0 1 1135.774 0)"><stop offset="0" stop-color="#c5cfd6"/><stop offset=".4" stop-color="#e1e5e9"/><stop offset=".679" stop-color="#f4f5f7"/></linearGradient><path d="M182.9 61.8l3.3-21.3c.8-6.6-3.9-13.2-10.3-14.8L13.6 5.3c-3.7-.9-7 .1-9.1 2.3 1.9-3.3 5.8-5 10.3-3.9l162.3 20.4c6.4 1.6 11 8.2 10.3 14.8l-3.3 21.3c-.3 2.8-1.6 5.5-3.5 7.7 1.2-1.9 2.1-4 2.3-6.1z" fill="url(#d)"/></g><path d="M21.5 32.7h4.2v25.2h8.4v4.2H21.5V32.7zm14.9 0H49v4h-8.4v8.7h7.3v4h-7.3V58H49v4.2H36.4V32.7zm17.7 4h-4.9v-4h14v4h-4.9v25.5h-4.2V36.7zm10.3-4h4.2v4.2L64.4 40v-7.3zm21.1 8.5h-4.2v-1c0-1-.2-1.8-.7-2.5-.5-.7-1.2-1.1-2.3-1.1-.6 0-1.1.1-1.4.3-.4.2-.7.5-.9.8-.2.3-.4.7-.4 1.2-.1.5-.1.9-.1 1.4 0 .6 0 1.1.1 1.5 0 .4.1.7.3 1 .2.3.4.5.7.8.3.2.8.4 1.3.7l3.2 1.3c.9.4 1.7.8 2.3 1.3.6.5 1 1 1.3 1.7.3.6.5 1.4.6 2.2.1.8.2 1.8.2 2.9 0 1.2-.1 2.4-.4 3.5s-.7 2-1.2 2.7c-.6.8-1.3 1.4-2.3 1.8-.9.4-2.1.7-3.4.7-1 0-2-.2-2.9-.5s-1.6-.8-2.3-1.5c-.6-.6-1.1-1.4-1.5-2.2-.4-.9-.6-1.8-.6-2.8v-1.6h4.2v1.3c0 .8.2 1.5.7 2.1.5.6 1.2.9 2.3.9.7 0 1.3-.1 1.7-.3.4-.2.7-.5.9-.9.2-.4.3-.8.4-1.4.1-.6.1-1.2.1-1.8 0-.8 0-1.4-.1-1.9s-.2-.9-.4-1.2c-.2-.3-.4-.6-.7-.7-.3-.2-.7-.4-1.3-.6l-3-1.2c-1.8-.7-3-1.7-3.7-3s-.9-2.8-.9-4.6c0-1.1.2-2.2.5-3.1.3-1 .8-1.8 1.3-2.6.6-.7 1.3-1.3 2.3-1.7.9-.4 2-.6 3.2-.6a7.173 7.173 0 015.1 2.1c.6.6 1.1 1.3 1.4 2.1.3.8.5 1.6.5 2.4v2.1zM109 55.6c0 .9-.2 1.8-.5 2.6s-.8 1.6-1.4 2.2c-.6.6-1.3 1.1-2.1 1.5-.8.4-1.7.6-2.6.6-.8 0-1.6-.1-2.4-.3-.8-.2-1.6-.6-2.2-1.1s-1.2-1.2-1.6-2.1c-.4-.9-.6-2-.6-3.4V39.2c0-1 .2-1.9.5-2.7.3-.8.8-1.5 1.4-2.2.6-.6 1.3-1.1 2.2-1.4.8-.3 1.8-.5 2.8-.5 1 0 1.9.2 2.7.5.8.3 1.5.8 2.2 1.4.6.6 1.1 1.4 1.4 2.2s.5 1.8.5 2.8V41h-4.2v-1.4c0-.8-.2-1.5-.7-2.2-.5-.6-1.1-.9-1.9-.9-1 0-1.7.3-2.1 1-.3.6-.5 1.5-.5 2.5v15.1c0 .9.2 1.6.6 2.2.4.6 1 .9 2 .9.3 0 .6 0 .9-.1.3-.1.6-.3.9-.5.3-.2.5-.5.6-.9.2-.4.2-.9.2-1.4v-1.4h4.2v1.7zm3-22.9h4.2v12.6h5.2V32.7h4.2v29.5h-4.2V49h-5.2v13.1H112V32.7zm21.9 0h3.5l6.6 29.5h-4.2l-1.2-6.3h-5.8l-1.2 6.3h-4.2l6.5-29.5zm1.8 8.5l-2.2 10.7h4.2l-2-10.7zm10.4-4.5h-4.9v-4h14v4h-4.9v25.5h-4.2V36.7zm10.9-4h5.3l-1.6 22.2h-2.1L157 32.7zm.6 25.2h4.2v4.2h-4.2v-4.2z" fill="#fff"/></svg>